G04 #@! TF.GenerationSoftware,KiCad,Pcbnew,(5.1.5)-3*
G04 #@! TF.CreationDate,2020-12-16T15:48:43+01:00*
G04 #@! TF.ProjectId,esc,6573632e-6b69-4636-9164-5f7063625858,rev?*
G04 #@! TF.SameCoordinates,Original*
G04 #@! TF.FileFunction,Copper,L2,Inr*
G04 #@! TF.FilePolarity,Positive*
%FSLAX46Y46*%
G04 Gerber Fmt 4.6, Leading zero omitted, Abs format (unit mm)*
G04 Created by KiCad (PCBNEW (5.1.5)-3) date 2020-12-16 15:48:43*
%MOMM*%
%LPD*%
G04 APERTURE LIST*
%ADD10C,0.499999*%
%ADD11C,2.775000*%
%ADD12C,0.600000*%
%ADD13C,0.450000*%
%ADD14C,0.800000*%
%ADD15C,0.254000*%
G04 APERTURE END LIST*
D10*
X142452999Y-98891999D03*
X143553000Y-98891999D03*
X144653000Y-98891999D03*
X145753000Y-98891999D03*
X146853001Y-98891999D03*
X142452999Y-99992000D03*
X143553000Y-99992000D03*
X144653000Y-99992000D03*
X145753000Y-99992000D03*
X146853001Y-99992000D03*
X142452999Y-101092000D03*
X143553000Y-101092000D03*
X144653000Y-101092000D03*
X145753000Y-101092000D03*
X146853001Y-101092000D03*
X142452999Y-102192000D03*
X143553000Y-102192000D03*
X144653000Y-102192000D03*
X145753000Y-102192000D03*
X146853001Y-102192000D03*
X142452999Y-103292001D03*
X143553000Y-103292001D03*
X144653000Y-103292001D03*
X145753000Y-103292001D03*
X146853001Y-103292001D03*
D11*
X164945000Y-86487000D03*
X164945000Y-80617000D03*
X170815000Y-80617000D03*
X170815000Y-86487000D03*
X113919000Y-98524000D03*
X119789000Y-98524000D03*
X119789000Y-104394000D03*
X113919000Y-104394000D03*
X164945000Y-99568000D03*
X164945000Y-93698000D03*
X170815000Y-93698000D03*
X170815000Y-99568000D03*
X113919000Y-109319000D03*
X119789000Y-109319000D03*
X119789000Y-115189000D03*
X113919000Y-115189000D03*
X164945000Y-112649000D03*
X164945000Y-106779000D03*
X170815000Y-106779000D03*
X170815000Y-112649000D03*
D12*
X140970000Y-106426000D03*
D13*
X152019000Y-95885000D03*
D12*
X161163000Y-97663000D03*
D13*
X152654000Y-95885000D03*
X153289000Y-95885000D03*
X153924000Y-95885000D03*
X154559000Y-95885000D03*
X155194000Y-95885000D03*
X155194000Y-95250000D03*
X153289000Y-95250000D03*
X153924000Y-95250000D03*
X152019000Y-95250000D03*
X152654000Y-95250000D03*
X154559000Y-95250000D03*
X153289000Y-93980000D03*
X154559000Y-93980000D03*
X155194000Y-94615000D03*
X153289000Y-94615000D03*
X152019000Y-93980000D03*
X153924000Y-93980000D03*
X152654000Y-93980000D03*
X155194000Y-93980000D03*
X153924000Y-94615000D03*
X152019000Y-94615000D03*
X152654000Y-94615000D03*
X154559000Y-94615000D03*
X152654000Y-92075000D03*
X155194000Y-92075000D03*
X154559000Y-92075000D03*
X152019000Y-92710000D03*
X152654000Y-92710000D03*
X153289000Y-93345000D03*
X152019000Y-92075000D03*
X154559000Y-93345000D03*
X153924000Y-92710000D03*
X153289000Y-92075000D03*
X154559000Y-92710000D03*
X152019000Y-93345000D03*
X153924000Y-93345000D03*
X152654000Y-93345000D03*
X155194000Y-92710000D03*
X153924000Y-92075000D03*
X155194000Y-93345000D03*
X153289000Y-92710000D03*
X152654000Y-81280000D03*
X155194000Y-81280000D03*
X154559000Y-81280000D03*
X152019000Y-81915000D03*
X152654000Y-81915000D03*
X153289000Y-82550000D03*
X152019000Y-81280000D03*
X154559000Y-82550000D03*
X153924000Y-81915000D03*
X153289000Y-81280000D03*
X155194000Y-83185000D03*
X154559000Y-81915000D03*
X153289000Y-83185000D03*
X152019000Y-82550000D03*
X153924000Y-82550000D03*
X152654000Y-82550000D03*
X155194000Y-81915000D03*
X153924000Y-81280000D03*
X155194000Y-82550000D03*
X153289000Y-81915000D03*
X153924000Y-83185000D03*
X152019000Y-83185000D03*
X152654000Y-83185000D03*
X154559000Y-83185000D03*
X154559000Y-79375000D03*
X154559000Y-80645000D03*
X152019000Y-80010000D03*
X155194000Y-79375000D03*
X152019000Y-80645000D03*
X152019000Y-79375000D03*
X154559000Y-80010000D03*
X153924000Y-80645000D03*
X153924000Y-79375000D03*
X153289000Y-80010000D03*
X152654000Y-79375000D03*
X153289000Y-79375000D03*
X152654000Y-80010000D03*
X153289000Y-80645000D03*
X153924000Y-80010000D03*
X155194000Y-80010000D03*
X155194000Y-80645000D03*
X152654000Y-80645000D03*
X152654000Y-105791000D03*
X153924000Y-108966000D03*
X152654000Y-107696000D03*
X154559000Y-108966000D03*
X153289000Y-108966000D03*
X155194000Y-109601000D03*
X154559000Y-109601000D03*
X153924000Y-105791000D03*
X153289000Y-105791000D03*
X152019000Y-107061000D03*
X154559000Y-106426000D03*
X153289000Y-106426000D03*
X155194000Y-106426000D03*
X152019000Y-105791000D03*
X152654000Y-109601000D03*
X155194000Y-105791000D03*
X154559000Y-105791000D03*
X152019000Y-108331000D03*
X153289000Y-109601000D03*
X152019000Y-109601000D03*
X153924000Y-107061000D03*
X155194000Y-107696000D03*
X153289000Y-108331000D03*
X153289000Y-107061000D03*
X152654000Y-107061000D03*
X155194000Y-108331000D03*
X153924000Y-107696000D03*
X152019000Y-106426000D03*
X152654000Y-108966000D03*
X153924000Y-109601000D03*
X152654000Y-106426000D03*
X154559000Y-107696000D03*
X153924000Y-106426000D03*
X155194000Y-107061000D03*
X153924000Y-108331000D03*
X152019000Y-108966000D03*
X155194000Y-108966000D03*
X154559000Y-107061000D03*
X152654000Y-108331000D03*
X152019000Y-107696000D03*
X153289000Y-107696000D03*
X154559000Y-108331000D03*
X113411000Y-79375000D03*
X114681000Y-82550000D03*
X113411000Y-81280000D03*
X115316000Y-82550000D03*
X114046000Y-82550000D03*
X115951000Y-83185000D03*
X115316000Y-83185000D03*
X114681000Y-79375000D03*
X114046000Y-79375000D03*
X115316000Y-80010000D03*
X114046000Y-80010000D03*
X115951000Y-80010000D03*
X113411000Y-83185000D03*
X115951000Y-79375000D03*
X115316000Y-79375000D03*
X114046000Y-83185000D03*
X114681000Y-80645000D03*
X115951000Y-81280000D03*
X114046000Y-81915000D03*
X114046000Y-80645000D03*
X113411000Y-80645000D03*
X115951000Y-81915000D03*
X114681000Y-81280000D03*
X113411000Y-82550000D03*
X114681000Y-83185000D03*
X113411000Y-80010000D03*
X115316000Y-81280000D03*
X114681000Y-80010000D03*
X115951000Y-80645000D03*
X114681000Y-81915000D03*
X115951000Y-82550000D03*
X115316000Y-80645000D03*
X113411000Y-81915000D03*
X114046000Y-81280000D03*
X115316000Y-81915000D03*
X114046000Y-90424000D03*
X115951000Y-90424000D03*
X113411000Y-92329000D03*
X114681000Y-92964000D03*
X113411000Y-91694000D03*
X113411000Y-92964000D03*
X114046000Y-91694000D03*
X114681000Y-89789000D03*
X113411000Y-91059000D03*
X115316000Y-90424000D03*
X114046000Y-91059000D03*
X114681000Y-90424000D03*
X113411000Y-90424000D03*
X113411000Y-89789000D03*
X115316000Y-89789000D03*
X115951000Y-92329000D03*
X115316000Y-91059000D03*
X115316000Y-92964000D03*
X115316000Y-92329000D03*
X114681000Y-92329000D03*
X115951000Y-89154000D03*
X114046000Y-92329000D03*
X115951000Y-91059000D03*
X115951000Y-92964000D03*
X114046000Y-89789000D03*
X114681000Y-91059000D03*
X115951000Y-89789000D03*
X115951000Y-91694000D03*
X114681000Y-91694000D03*
X115316000Y-91694000D03*
X114046000Y-92964000D03*
X114681000Y-89154000D03*
X113411000Y-89154000D03*
X114046000Y-89154000D03*
X115316000Y-89154000D03*
X112776000Y-80010000D03*
X112776000Y-79375000D03*
X112776000Y-80645000D03*
X112776000Y-82550000D03*
X112776000Y-81915000D03*
X112776000Y-81280000D03*
X112776000Y-83185000D03*
X112776000Y-92329000D03*
X112776000Y-91694000D03*
X112776000Y-91059000D03*
X112776000Y-92964000D03*
X112776000Y-89789000D03*
X112776000Y-90424000D03*
X112776000Y-89154000D03*
D12*
X124841000Y-97599500D03*
X147447000Y-109855000D03*
X147447000Y-108839000D03*
X143383000Y-109855000D03*
X146812000Y-92329000D03*
X143891000Y-90678000D03*
X140462000Y-78867000D03*
X126111000Y-79375000D03*
X124714000Y-89916000D03*
X131318000Y-114300000D03*
X124588030Y-103505000D03*
X124588020Y-105846587D03*
X137160000Y-93217994D03*
X136939161Y-97360031D03*
X133985000Y-112522000D03*
X137414000Y-112522000D03*
X137315052Y-110004950D03*
X132715000Y-107315000D03*
X129413000Y-94234000D03*
X166370000Y-103441500D03*
X166116000Y-90170008D03*
X166433500Y-116395500D03*
D13*
X133223000Y-92900500D03*
X133223000Y-92265500D03*
X133223000Y-90995500D03*
X133223000Y-91630500D03*
D12*
X131318008Y-116205000D03*
X127889000Y-94234000D03*
X137033000Y-94742000D03*
X136271000Y-106045000D03*
X139065000Y-114681000D03*
X138430000Y-109982000D03*
D13*
X117602000Y-80645000D03*
X117602000Y-82550000D03*
X117602000Y-79375000D03*
X117602000Y-81280000D03*
X117602000Y-83185000D03*
X117602000Y-80010000D03*
X117602000Y-81915000D03*
X118237000Y-83185000D03*
X118237000Y-81915000D03*
X118237000Y-79375000D03*
X118237000Y-80010000D03*
X118237000Y-82550000D03*
X118237000Y-81280000D03*
X118237000Y-80645000D03*
X119507000Y-83185000D03*
X119507000Y-81915000D03*
X119507000Y-79375000D03*
X119507000Y-80010000D03*
X119507000Y-82550000D03*
X119507000Y-81280000D03*
X119507000Y-80645000D03*
X118872000Y-80645000D03*
X118872000Y-82550000D03*
X118872000Y-79375000D03*
X118872000Y-81280000D03*
X118872000Y-83185000D03*
X118872000Y-80010000D03*
X118872000Y-81915000D03*
X120142000Y-83185000D03*
X120142000Y-79375000D03*
X120142000Y-82550000D03*
X120142000Y-80645000D03*
X120142000Y-81280000D03*
X120142000Y-80010000D03*
X120142000Y-81915000D03*
X120777000Y-79375000D03*
X120777000Y-80645000D03*
X120777000Y-82550000D03*
X120777000Y-83185000D03*
X120777000Y-80010000D03*
X120777000Y-81280000D03*
X120777000Y-81915000D03*
X158496000Y-79375000D03*
X159131000Y-81915000D03*
X158496000Y-80645000D03*
X159131000Y-81280000D03*
X159131000Y-80010000D03*
X159131000Y-80645000D03*
X159131000Y-82550000D03*
X158496000Y-82550000D03*
X159131000Y-79375000D03*
X159131000Y-83185000D03*
X157226000Y-83185000D03*
X157226000Y-81915000D03*
X157226000Y-79375000D03*
X157226000Y-80010000D03*
X157226000Y-82550000D03*
X157226000Y-81280000D03*
X157226000Y-80645000D03*
X159766000Y-81915000D03*
X158496000Y-83185000D03*
X159766000Y-81280000D03*
X158496000Y-80010000D03*
X159766000Y-80645000D03*
X159766000Y-79375000D03*
X158496000Y-81280000D03*
X158496000Y-81915000D03*
X159766000Y-82550000D03*
X159766000Y-83185000D03*
X159766000Y-80010000D03*
X160401000Y-80010000D03*
X160401000Y-81280000D03*
X160401000Y-81915000D03*
X160401000Y-82550000D03*
X160401000Y-80645000D03*
X160401000Y-83185000D03*
X160401000Y-79375000D03*
X157861000Y-83185000D03*
X157861000Y-79375000D03*
X157861000Y-82550000D03*
X157861000Y-80645000D03*
X157861000Y-81280000D03*
X157861000Y-80010000D03*
X157861000Y-81915000D03*
X158496000Y-92710000D03*
X159766000Y-93980000D03*
X159766000Y-93345000D03*
X159131000Y-94615000D03*
X158496000Y-93345000D03*
X159131000Y-92710000D03*
X159131000Y-93345000D03*
X157226000Y-95885000D03*
X157226000Y-92710000D03*
X158496000Y-95250000D03*
X157226000Y-92075000D03*
X159131000Y-92075000D03*
X157226000Y-95250000D03*
X157226000Y-93980000D03*
X157226000Y-93345000D03*
X159131000Y-95250000D03*
X159131000Y-93980000D03*
X157226000Y-94615000D03*
X159766000Y-94615000D03*
X158496000Y-95885000D03*
X158496000Y-92075000D03*
X159131000Y-95885000D03*
X160401000Y-95250000D03*
X157861000Y-93980000D03*
X157861000Y-92710000D03*
X160401000Y-92710000D03*
X160401000Y-94615000D03*
X160401000Y-93345000D03*
X159766000Y-92710000D03*
X159766000Y-92075000D03*
X160401000Y-92075000D03*
X157861000Y-93345000D03*
X160401000Y-93980000D03*
X157861000Y-92075000D03*
X157861000Y-95250000D03*
X159766000Y-95885000D03*
X157861000Y-94615000D03*
X157861000Y-95885000D03*
X158496000Y-93980000D03*
X158496000Y-94615000D03*
X160401000Y-95885000D03*
X159766000Y-95250000D03*
X160401000Y-106426000D03*
X160401000Y-107696000D03*
X159131000Y-107061000D03*
X157861000Y-108331000D03*
X157861000Y-108966000D03*
X157226000Y-106426000D03*
X158496000Y-108966000D03*
X160401000Y-109601000D03*
X160401000Y-108331000D03*
X158496000Y-107696000D03*
X157226000Y-105791000D03*
X159766000Y-109601000D03*
X158496000Y-107061000D03*
X160401000Y-105791000D03*
X160401000Y-107061000D03*
X157861000Y-107061000D03*
X158496000Y-109601000D03*
X157226000Y-107061000D03*
X157861000Y-106426000D03*
X159131000Y-105791000D03*
X157861000Y-107696000D03*
X159131000Y-108331000D03*
X159766000Y-105791000D03*
X157861000Y-105791000D03*
X157861000Y-109601000D03*
X157226000Y-109601000D03*
X157226000Y-107696000D03*
X159131000Y-108966000D03*
X158496000Y-106426000D03*
X160401000Y-108966000D03*
X159766000Y-108966000D03*
X159766000Y-108331000D03*
X159131000Y-109601000D03*
X159766000Y-106426000D03*
X159131000Y-107696000D03*
X159766000Y-107696000D03*
X158496000Y-105791000D03*
X157226000Y-108331000D03*
X157226000Y-108966000D03*
X159766000Y-107061000D03*
X159131000Y-106426000D03*
X158496000Y-108331000D03*
X145351500Y-88392000D03*
X144716500Y-88392000D03*
X144081500Y-88392000D03*
X145986500Y-88392000D03*
X144081500Y-87757000D03*
X145986500Y-87757000D03*
X144716500Y-87757000D03*
X145351500Y-87757000D03*
D12*
X152273000Y-90333990D03*
X148463000Y-106680000D03*
X150956929Y-101103191D03*
X145468426Y-108855968D03*
D14*
X162179000Y-104394000D03*
X162179000Y-90931990D03*
D12*
X150749000Y-111633000D03*
X143383000Y-108839000D03*
X138430000Y-105791000D03*
X141097000Y-104648002D03*
X140081000Y-112903000D03*
X140081000Y-114681000D03*
X140081000Y-111887000D03*
X129794000Y-101473000D03*
X141097000Y-105537000D03*
X130518058Y-101816058D03*
X140180873Y-104516479D03*
X133985000Y-104013006D03*
X141567998Y-103378000D03*
X135148023Y-101738718D03*
X139192000Y-104140002D03*
X134493000Y-101219000D03*
X139065012Y-102362000D03*
X133878409Y-100584000D03*
X141567998Y-101346000D03*
X133253409Y-103155456D03*
X141567998Y-100457000D03*
X132454271Y-103118076D03*
X139065000Y-99949000D03*
X138302450Y-101345450D03*
X131654291Y-103125139D03*
X141567998Y-99163388D03*
X140096017Y-96649405D03*
X135728553Y-98078441D03*
X140715998Y-97155000D03*
X129921000Y-98806000D03*
X141567998Y-102362000D03*
X135146320Y-102624320D03*
X123063000Y-114935000D03*
X135509797Y-95055021D03*
X123063000Y-116205000D03*
X136398000Y-96012000D03*
X167640000Y-90170000D03*
X129793998Y-102362000D03*
X131952982Y-106807000D03*
X167957500Y-103441502D03*
X148844000Y-113665000D03*
X167957500Y-116395500D03*
X136080500Y-107886500D03*
X157670498Y-97663000D03*
X140716000Y-89662000D03*
X137731500Y-107886500D03*
X131445000Y-94234000D03*
X137223500Y-91694004D03*
X123063000Y-113665000D03*
X133915211Y-94605010D03*
D15*
G36*
X116713000Y-79375000D02*
G01*
X116715440Y-79399776D01*
X116722667Y-79423601D01*
X116734403Y-79445557D01*
X116742000Y-79454814D01*
X116742000Y-79459703D01*
X116775049Y-79625853D01*
X116802655Y-79692500D01*
X116775049Y-79759147D01*
X116742000Y-79925297D01*
X116742000Y-80094703D01*
X116775049Y-80260853D01*
X116802655Y-80327500D01*
X116775049Y-80394147D01*
X116742000Y-80560297D01*
X116742000Y-80729703D01*
X116775049Y-80895853D01*
X116802655Y-80962500D01*
X116775049Y-81029147D01*
X116742000Y-81195297D01*
X116742000Y-81364703D01*
X116775049Y-81530853D01*
X116802655Y-81597500D01*
X116775049Y-81664147D01*
X116742000Y-81830297D01*
X116742000Y-81999703D01*
X116775049Y-82165853D01*
X116802655Y-82232500D01*
X116775049Y-82299147D01*
X116742000Y-82465297D01*
X116742000Y-82634703D01*
X116775049Y-82800853D01*
X116802655Y-82867500D01*
X116775049Y-82934147D01*
X116742000Y-83100297D01*
X116742000Y-83269703D01*
X116775049Y-83435853D01*
X116839878Y-83592363D01*
X116933995Y-83733218D01*
X117053782Y-83853005D01*
X117194637Y-83947122D01*
X117351147Y-84011951D01*
X117517297Y-84045000D01*
X117686703Y-84045000D01*
X117852853Y-84011951D01*
X117919500Y-83984345D01*
X117986147Y-84011951D01*
X118152297Y-84045000D01*
X118321703Y-84045000D01*
X118487853Y-84011951D01*
X118554500Y-83984345D01*
X118621147Y-84011951D01*
X118787297Y-84045000D01*
X118956703Y-84045000D01*
X119122853Y-84011951D01*
X119189500Y-83984345D01*
X119256147Y-84011951D01*
X119422297Y-84045000D01*
X119591703Y-84045000D01*
X119757853Y-84011951D01*
X119824500Y-83984345D01*
X119891147Y-84011951D01*
X120057297Y-84045000D01*
X120226703Y-84045000D01*
X120392853Y-84011951D01*
X120459500Y-83984345D01*
X120526147Y-84011951D01*
X120692297Y-84045000D01*
X120861703Y-84045000D01*
X121027853Y-84011951D01*
X121184363Y-83947122D01*
X121325218Y-83853005D01*
X121445005Y-83733218D01*
X121539122Y-83592363D01*
X121603951Y-83435853D01*
X121637000Y-83269703D01*
X121637000Y-83100297D01*
X121603951Y-82934147D01*
X121576345Y-82867500D01*
X121603951Y-82800853D01*
X121637000Y-82634703D01*
X121637000Y-82465297D01*
X121603951Y-82299147D01*
X121576345Y-82232500D01*
X121603951Y-82165853D01*
X121637000Y-81999703D01*
X121637000Y-81830297D01*
X121603951Y-81664147D01*
X121576345Y-81597500D01*
X121603951Y-81530853D01*
X121637000Y-81364703D01*
X121637000Y-81195297D01*
X121603951Y-81029147D01*
X121576345Y-80962500D01*
X121603951Y-80895853D01*
X121637000Y-80729703D01*
X121637000Y-80560297D01*
X121603951Y-80394147D01*
X121576345Y-80327500D01*
X121603951Y-80260853D01*
X121637000Y-80094703D01*
X121637000Y-79925297D01*
X121603951Y-79759147D01*
X121576345Y-79692500D01*
X121603951Y-79625853D01*
X121637000Y-79459703D01*
X121637000Y-79454814D01*
X121644597Y-79445557D01*
X121656333Y-79423601D01*
X121663560Y-79399776D01*
X121666000Y-79375000D01*
X121666000Y-78384000D01*
X156845000Y-78384000D01*
X156845000Y-78601958D01*
X156818637Y-78612878D01*
X156677782Y-78706995D01*
X156557995Y-78826782D01*
X156463878Y-78967637D01*
X156399049Y-79124147D01*
X156366000Y-79290297D01*
X156366000Y-79459703D01*
X156399049Y-79625853D01*
X156426655Y-79692500D01*
X156399049Y-79759147D01*
X156366000Y-79925297D01*
X156366000Y-80094703D01*
X156399049Y-80260853D01*
X156426655Y-80327500D01*
X156399049Y-80394147D01*
X156366000Y-80560297D01*
X156366000Y-80729703D01*
X156399049Y-80895853D01*
X156426655Y-80962500D01*
X156399049Y-81029147D01*
X156366000Y-81195297D01*
X156366000Y-81364703D01*
X156399049Y-81530853D01*
X156426655Y-81597500D01*
X156399049Y-81664147D01*
X156366000Y-81830297D01*
X156366000Y-81999703D01*
X156399049Y-82165853D01*
X156426655Y-82232500D01*
X156399049Y-82299147D01*
X156366000Y-82465297D01*
X156366000Y-82634703D01*
X156399049Y-82800853D01*
X156426655Y-82867500D01*
X156399049Y-82934147D01*
X156366000Y-83100297D01*
X156366000Y-83269703D01*
X156399049Y-83435853D01*
X156463878Y-83592363D01*
X156557995Y-83733218D01*
X156677782Y-83853005D01*
X156818637Y-83947122D01*
X156975147Y-84011951D01*
X157141297Y-84045000D01*
X157310703Y-84045000D01*
X157476853Y-84011951D01*
X157543500Y-83984345D01*
X157610147Y-84011951D01*
X157776297Y-84045000D01*
X157945703Y-84045000D01*
X158111853Y-84011951D01*
X158178500Y-83984345D01*
X158245147Y-84011951D01*
X158411297Y-84045000D01*
X158580703Y-84045000D01*
X158746853Y-84011951D01*
X158813500Y-83984345D01*
X158880147Y-84011951D01*
X159046297Y-84045000D01*
X159215703Y-84045000D01*
X159381853Y-84011951D01*
X159448500Y-83984345D01*
X159515147Y-84011951D01*
X159681297Y-84045000D01*
X159850703Y-84045000D01*
X160016853Y-84011951D01*
X160083500Y-83984345D01*
X160150147Y-84011951D01*
X160316297Y-84045000D01*
X160485703Y-84045000D01*
X160651853Y-84011951D01*
X160808363Y-83947122D01*
X160949218Y-83853005D01*
X161069005Y-83733218D01*
X161163122Y-83592363D01*
X161227951Y-83435853D01*
X161241777Y-83366344D01*
X165995000Y-83366344D01*
X165995000Y-83737656D01*
X166067439Y-84101834D01*
X166209534Y-84444882D01*
X166415825Y-84753618D01*
X166678382Y-85016175D01*
X166987118Y-85222466D01*
X167330166Y-85364561D01*
X167694344Y-85437000D01*
X168065656Y-85437000D01*
X168429834Y-85364561D01*
X168772882Y-85222466D01*
X169081618Y-85016175D01*
X169344175Y-84753618D01*
X169550466Y-84444882D01*
X169692561Y-84101834D01*
X169765000Y-83737656D01*
X169765000Y-83366344D01*
X169692561Y-83002166D01*
X169550466Y-82659118D01*
X169344175Y-82350382D01*
X169081618Y-82087825D01*
X168772882Y-81881534D01*
X168429834Y-81739439D01*
X168065656Y-81667000D01*
X167694344Y-81667000D01*
X167330166Y-81739439D01*
X166987118Y-81881534D01*
X166678382Y-82087825D01*
X166415825Y-82350382D01*
X166209534Y-82659118D01*
X166067439Y-83002166D01*
X165995000Y-83366344D01*
X161241777Y-83366344D01*
X161261000Y-83269703D01*
X161261000Y-83100297D01*
X161227951Y-82934147D01*
X161200345Y-82867500D01*
X161227951Y-82800853D01*
X161261000Y-82634703D01*
X161261000Y-82465297D01*
X161227951Y-82299147D01*
X161200345Y-82232500D01*
X161227951Y-82165853D01*
X161261000Y-81999703D01*
X161261000Y-81830297D01*
X161227951Y-81664147D01*
X161200345Y-81597500D01*
X161227951Y-81530853D01*
X161261000Y-81364703D01*
X161261000Y-81195297D01*
X161227951Y-81029147D01*
X161200345Y-80962500D01*
X161227951Y-80895853D01*
X161261000Y-80729703D01*
X161261000Y-80560297D01*
X161232657Y-80417801D01*
X162922500Y-80417801D01*
X162922500Y-80816199D01*
X163000224Y-81206941D01*
X163152684Y-81575013D01*
X163374022Y-81906269D01*
X163655731Y-82187978D01*
X163986987Y-82409316D01*
X164355059Y-82561776D01*
X164745801Y-82639500D01*
X165144199Y-82639500D01*
X165534941Y-82561776D01*
X165903013Y-82409316D01*
X166234269Y-82187978D01*
X166515978Y-81906269D01*
X166737316Y-81575013D01*
X166889776Y-81206941D01*
X166967500Y-80816199D01*
X166967500Y-80417801D01*
X166889776Y-80027059D01*
X166737316Y-79658987D01*
X166515978Y-79327731D01*
X166234269Y-79046022D01*
X165903013Y-78824684D01*
X165534941Y-78672224D01*
X165144199Y-78594500D01*
X164745801Y-78594500D01*
X164355059Y-78672224D01*
X163986987Y-78824684D01*
X163655731Y-79046022D01*
X163374022Y-79327731D01*
X163152684Y-79658987D01*
X163000224Y-80027059D01*
X162922500Y-80417801D01*
X161232657Y-80417801D01*
X161227951Y-80394147D01*
X161200345Y-80327500D01*
X161227951Y-80260853D01*
X161261000Y-80094703D01*
X161261000Y-79925297D01*
X161227951Y-79759147D01*
X161200345Y-79692500D01*
X161227951Y-79625853D01*
X161252587Y-79502000D01*
X161671000Y-79502000D01*
X161695776Y-79499560D01*
X161719601Y-79492333D01*
X161741557Y-79480597D01*
X161760803Y-79464803D01*
X161776597Y-79445557D01*
X161788333Y-79423601D01*
X161795560Y-79399776D01*
X161798000Y-79375000D01*
X161798000Y-78384000D01*
X172568001Y-78384000D01*
X172568001Y-79600148D01*
X172385978Y-79327731D01*
X172104269Y-79046022D01*
X171773013Y-78824684D01*
X171404941Y-78672224D01*
X171014199Y-78594500D01*
X170615801Y-78594500D01*
X170225059Y-78672224D01*
X169856987Y-78824684D01*
X169525731Y-79046022D01*
X169244022Y-79327731D01*
X169022684Y-79658987D01*
X168870224Y-80027059D01*
X168792500Y-80417801D01*
X168792500Y-80816199D01*
X168870224Y-81206941D01*
X169022684Y-81575013D01*
X169244022Y-81906269D01*
X169525731Y-82187978D01*
X169856987Y-82409316D01*
X170225059Y-82561776D01*
X170615801Y-82639500D01*
X171014199Y-82639500D01*
X171404941Y-82561776D01*
X171773013Y-82409316D01*
X172104269Y-82187978D01*
X172385978Y-81906269D01*
X172568001Y-81633852D01*
X172568001Y-85470148D01*
X172385978Y-85197731D01*
X172104269Y-84916022D01*
X171773013Y-84694684D01*
X171404941Y-84542224D01*
X171014199Y-84464500D01*
X170615801Y-84464500D01*
X170225059Y-84542224D01*
X169856987Y-84694684D01*
X169525731Y-84916022D01*
X169244022Y-85197731D01*
X169022684Y-85528987D01*
X168870224Y-85897059D01*
X168792500Y-86287801D01*
X168792500Y-86686199D01*
X168870224Y-87076941D01*
X169022684Y-87445013D01*
X169244022Y-87776269D01*
X169525731Y-88057978D01*
X169856987Y-88279316D01*
X170225059Y-88431776D01*
X170615801Y-88509500D01*
X171014199Y-88509500D01*
X171404941Y-88431776D01*
X171773013Y-88279316D01*
X172104269Y-88057978D01*
X172385978Y-87776269D01*
X172568001Y-87503852D01*
X172568001Y-92681147D01*
X172385978Y-92408731D01*
X172104269Y-92127022D01*
X171773013Y-91905684D01*
X171404941Y-91753224D01*
X171014199Y-91675500D01*
X170615801Y-91675500D01*
X170225059Y-91753224D01*
X169856987Y-91905684D01*
X169525731Y-92127022D01*
X169244022Y-92408731D01*
X169022684Y-92739987D01*
X168870224Y-93108059D01*
X168792500Y-93498801D01*
X168792500Y-93897199D01*
X168870224Y-94287941D01*
X169022684Y-94656013D01*
X169244022Y-94987269D01*
X169525731Y-95268978D01*
X169856987Y-95490316D01*
X170225059Y-95642776D01*
X170615801Y-95720500D01*
X171014199Y-95720500D01*
X171404941Y-95642776D01*
X171773013Y-95490316D01*
X172104269Y-95268978D01*
X172385978Y-94987269D01*
X172568001Y-94714853D01*
X172568000Y-98551147D01*
X172385978Y-98278731D01*
X172104269Y-97997022D01*
X171773013Y-97775684D01*
X171404941Y-97623224D01*
X171014199Y-97545500D01*
X170615801Y-97545500D01*
X170225059Y-97623224D01*
X169856987Y-97775684D01*
X169525731Y-97997022D01*
X169244022Y-98278731D01*
X169022684Y-98609987D01*
X168870224Y-98978059D01*
X168792500Y-99368801D01*
X168792500Y-99767199D01*
X168870224Y-100157941D01*
X169022684Y-100526013D01*
X169244022Y-100857269D01*
X169525731Y-101138978D01*
X169856987Y-101360316D01*
X170225059Y-101512776D01*
X170615801Y-101590500D01*
X171014199Y-101590500D01*
X171404941Y-101512776D01*
X171773013Y-101360316D01*
X172104269Y-101138978D01*
X172385978Y-100857269D01*
X172568000Y-100584853D01*
X172568000Y-105762147D01*
X172385978Y-105489731D01*
X172104269Y-105208022D01*
X171773013Y-104986684D01*
X171404941Y-104834224D01*
X171014199Y-104756500D01*
X170615801Y-104756500D01*
X170225059Y-104834224D01*
X169856987Y-104986684D01*
X169525731Y-105208022D01*
X169244022Y-105489731D01*
X169022684Y-105820987D01*
X168870224Y-106189059D01*
X168792500Y-106579801D01*
X168792500Y-106978199D01*
X168870224Y-107368941D01*
X169022684Y-107737013D01*
X169244022Y-108068269D01*
X169525731Y-108349978D01*
X169856987Y-108571316D01*
X170225059Y-108723776D01*
X170615801Y-108801500D01*
X171014199Y-108801500D01*
X171404941Y-108723776D01*
X171773013Y-108571316D01*
X172104269Y-108349978D01*
X172385978Y-108068269D01*
X172568000Y-107795853D01*
X172568000Y-111632147D01*
X172385978Y-111359731D01*
X172104269Y-111078022D01*
X171773013Y-110856684D01*
X171404941Y-110704224D01*
X171014199Y-110626500D01*
X170615801Y-110626500D01*
X170225059Y-110704224D01*
X169856987Y-110856684D01*
X169525731Y-111078022D01*
X169244022Y-111359731D01*
X169022684Y-111690987D01*
X168870224Y-112059059D01*
X168792500Y-112449801D01*
X168792500Y-112848199D01*
X168870224Y-113238941D01*
X169022684Y-113607013D01*
X169244022Y-113938269D01*
X169525731Y-114219978D01*
X169856987Y-114441316D01*
X170225059Y-114593776D01*
X170615801Y-114671500D01*
X171014199Y-114671500D01*
X171404941Y-114593776D01*
X171773013Y-114441316D01*
X172104269Y-114219978D01*
X172385978Y-113938269D01*
X172568000Y-113665853D01*
X172568000Y-116942000D01*
X168716855Y-116942000D01*
X168786086Y-116838389D01*
X168856568Y-116668229D01*
X168892500Y-116487589D01*
X168892500Y-116303411D01*
X168856568Y-116122771D01*
X168786086Y-115952611D01*
X168683762Y-115799472D01*
X168553528Y-115669238D01*
X168400389Y-115566914D01*
X168230229Y-115496432D01*
X168049589Y-115460500D01*
X167865411Y-115460500D01*
X167684771Y-115496432D01*
X167514611Y-115566914D01*
X167361472Y-115669238D01*
X167231238Y-115799472D01*
X167128914Y-115952611D01*
X167058432Y-116122771D01*
X167022500Y-116303411D01*
X167022500Y-116487589D01*
X167058432Y-116668229D01*
X167128914Y-116838389D01*
X167198145Y-116942000D01*
X131897965Y-116942000D01*
X131914036Y-116931262D01*
X132044270Y-116801028D01*
X132146594Y-116647889D01*
X132217076Y-116477729D01*
X132253008Y-116297089D01*
X132253008Y-116112911D01*
X132217076Y-115932271D01*
X132146594Y-115762111D01*
X132044270Y-115608972D01*
X131914036Y-115478738D01*
X131760897Y-115376414D01*
X131590737Y-115305932D01*
X131410097Y-115270000D01*
X131225919Y-115270000D01*
X131045279Y-115305932D01*
X130875119Y-115376414D01*
X130721980Y-115478738D01*
X130591746Y-115608972D01*
X130489422Y-115762111D01*
X130418940Y-115932271D01*
X130383008Y-116112911D01*
X130383008Y-116297089D01*
X130418940Y-116477729D01*
X130489422Y-116647889D01*
X130591746Y-116801028D01*
X130721980Y-116931262D01*
X130738051Y-116942000D01*
X123642957Y-116942000D01*
X123659028Y-116931262D01*
X123789262Y-116801028D01*
X123891586Y-116647889D01*
X123962068Y-116477729D01*
X123998000Y-116297089D01*
X123998000Y-116112911D01*
X123962068Y-115932271D01*
X123891586Y-115762111D01*
X123789262Y-115608972D01*
X123750290Y-115570000D01*
X123789262Y-115531028D01*
X123891586Y-115377889D01*
X123962068Y-115207729D01*
X123998000Y-115027089D01*
X123998000Y-114842911D01*
X123962068Y-114662271D01*
X123931682Y-114588911D01*
X138130000Y-114588911D01*
X138130000Y-114773089D01*
X138165932Y-114953729D01*
X138236414Y-115123889D01*
X138338738Y-115277028D01*
X138468972Y-115407262D01*
X138622111Y-115509586D01*
X138792271Y-115580068D01*
X138972911Y-115616000D01*
X139157089Y-115616000D01*
X139337729Y-115580068D01*
X139507889Y-115509586D01*
X139573000Y-115466080D01*
X139638111Y-115509586D01*
X139808271Y-115580068D01*
X139988911Y-115616000D01*
X140173089Y-115616000D01*
X140353729Y-115580068D01*
X140523889Y-115509586D01*
X140677028Y-115407262D01*
X140807262Y-115277028D01*
X140909586Y-115123889D01*
X140980068Y-114953729D01*
X141016000Y-114773089D01*
X141016000Y-114588911D01*
X140980068Y-114408271D01*
X140909586Y-114238111D01*
X140807262Y-114084972D01*
X140677028Y-113954738D01*
X140523889Y-113852414D01*
X140378036Y-113792000D01*
X140523889Y-113731586D01*
X140677028Y-113629262D01*
X140733379Y-113572911D01*
X147909000Y-113572911D01*
X147909000Y-113757089D01*
X147944932Y-113937729D01*
X148015414Y-114107889D01*
X148117738Y-114261028D01*
X148247972Y-114391262D01*
X148401111Y-114493586D01*
X148571271Y-114564068D01*
X148751911Y-114600000D01*
X148936089Y-114600000D01*
X149116729Y-114564068D01*
X149286889Y-114493586D01*
X149440028Y-114391262D01*
X149570262Y-114261028D01*
X149672586Y-114107889D01*
X149743068Y-113937729D01*
X149779000Y-113757089D01*
X149779000Y-113572911D01*
X149743068Y-113392271D01*
X149672586Y-113222111D01*
X149570262Y-113068972D01*
X149440028Y-112938738D01*
X149286889Y-112836414D01*
X149116729Y-112765932D01*
X148936089Y-112730000D01*
X148751911Y-112730000D01*
X148571271Y-112765932D01*
X148401111Y-112836414D01*
X148247972Y-112938738D01*
X148117738Y-113068972D01*
X148015414Y-113222111D01*
X147944932Y-113392271D01*
X147909000Y-113572911D01*
X140733379Y-113572911D01*
X140807262Y-113499028D01*
X140909586Y-113345889D01*
X140980068Y-113175729D01*
X141016000Y-112995089D01*
X141016000Y-112810911D01*
X140980068Y-112630271D01*
X140909586Y-112460111D01*
X140866080Y-112395000D01*
X140909586Y-112329889D01*
X140980068Y-112159729D01*
X141016000Y-111979089D01*
X141016000Y-111794911D01*
X140980068Y-111614271D01*
X140949682Y-111540911D01*
X149814000Y-111540911D01*
X149814000Y-111725089D01*
X149849932Y-111905729D01*
X149920414Y-112075889D01*
X150022738Y-112229028D01*
X150152972Y-112359262D01*
X150306111Y-112461586D01*
X150476271Y-112532068D01*
X150656911Y-112568000D01*
X150841089Y-112568000D01*
X151021729Y-112532068D01*
X151191889Y-112461586D01*
X151209526Y-112449801D01*
X162922500Y-112449801D01*
X162922500Y-112848199D01*
X163000224Y-113238941D01*
X163152684Y-113607013D01*
X163374022Y-113938269D01*
X163655731Y-114219978D01*
X163986987Y-114441316D01*
X164355059Y-114593776D01*
X164745801Y-114671500D01*
X165144199Y-114671500D01*
X165534941Y-114593776D01*
X165903013Y-114441316D01*
X166234269Y-114219978D01*
X166515978Y-113938269D01*
X166737316Y-113607013D01*
X166889776Y-113238941D01*
X166967500Y-112848199D01*
X166967500Y-112449801D01*
X166889776Y-112059059D01*
X166737316Y-111690987D01*
X166515978Y-111359731D01*
X166234269Y-111078022D01*
X165903013Y-110856684D01*
X165534941Y-110704224D01*
X165144199Y-110626500D01*
X164745801Y-110626500D01*
X164355059Y-110704224D01*
X163986987Y-110856684D01*
X163655731Y-111078022D01*
X163374022Y-111359731D01*
X163152684Y-111690987D01*
X163000224Y-112059059D01*
X162922500Y-112449801D01*
X151209526Y-112449801D01*
X151345028Y-112359262D01*
X151475262Y-112229028D01*
X151577586Y-112075889D01*
X151648068Y-111905729D01*
X151684000Y-111725089D01*
X151684000Y-111540911D01*
X151648068Y-111360271D01*
X151577586Y-111190111D01*
X151475262Y-111036972D01*
X151345028Y-110906738D01*
X151191889Y-110804414D01*
X151021729Y-110733932D01*
X150841089Y-110698000D01*
X150656911Y-110698000D01*
X150476271Y-110733932D01*
X150306111Y-110804414D01*
X150152972Y-110906738D01*
X150022738Y-111036972D01*
X149920414Y-111190111D01*
X149849932Y-111360271D01*
X149814000Y-111540911D01*
X140949682Y-111540911D01*
X140909586Y-111444111D01*
X140807262Y-111290972D01*
X140677028Y-111160738D01*
X140523889Y-111058414D01*
X140353729Y-110987932D01*
X140173089Y-110952000D01*
X139988911Y-110952000D01*
X139808271Y-110987932D01*
X139638111Y-111058414D01*
X139484972Y-111160738D01*
X139354738Y-111290972D01*
X139252414Y-111444111D01*
X139181932Y-111614271D01*
X139146000Y-111794911D01*
X139146000Y-111979089D01*
X139181932Y-112159729D01*
X139252414Y-112329889D01*
X139295920Y-112395000D01*
X139252414Y-112460111D01*
X139181932Y-112630271D01*
X139146000Y-112810911D01*
X139146000Y-112995089D01*
X139181932Y-113175729D01*
X139252414Y-113345889D01*
X139354738Y-113499028D01*
X139484972Y-113629262D01*
X139638111Y-113731586D01*
X139783964Y-113792000D01*
X139638111Y-113852414D01*
X139573000Y-113895920D01*
X139507889Y-113852414D01*
X139337729Y-113781932D01*
X139157089Y-113746000D01*
X138972911Y-113746000D01*
X138792271Y-113781932D01*
X138622111Y-113852414D01*
X138468972Y-113954738D01*
X138338738Y-114084972D01*
X138236414Y-114238111D01*
X138165932Y-114408271D01*
X138130000Y-114588911D01*
X123931682Y-114588911D01*
X123891586Y-114492111D01*
X123789262Y-114338972D01*
X123750290Y-114300000D01*
X123789262Y-114261028D01*
X123891586Y-114107889D01*
X123962068Y-113937729D01*
X123998000Y-113757089D01*
X123998000Y-113572911D01*
X123962068Y-113392271D01*
X123891586Y-113222111D01*
X123789262Y-113068972D01*
X123659028Y-112938738D01*
X123505889Y-112836414D01*
X123335729Y-112765932D01*
X123155089Y-112730000D01*
X122970911Y-112730000D01*
X122790271Y-112765932D01*
X122620111Y-112836414D01*
X122466972Y-112938738D01*
X122336738Y-113068972D01*
X122234414Y-113222111D01*
X122163932Y-113392271D01*
X122128000Y-113572911D01*
X122128000Y-113757089D01*
X122163932Y-113937729D01*
X122234414Y-114107889D01*
X122336738Y-114261028D01*
X122375710Y-114300000D01*
X122336738Y-114338972D01*
X122234414Y-114492111D01*
X122163932Y-114662271D01*
X122128000Y-114842911D01*
X122128000Y-115027089D01*
X122163932Y-115207729D01*
X122234414Y-115377889D01*
X122336738Y-115531028D01*
X122375710Y-115570000D01*
X122336738Y-115608972D01*
X122234414Y-115762111D01*
X122163932Y-115932271D01*
X122128000Y-116112911D01*
X122128000Y-116297089D01*
X122163932Y-116477729D01*
X122234414Y-116647889D01*
X122336738Y-116801028D01*
X122466972Y-116931262D01*
X122483043Y-116942000D01*
X112166000Y-116942000D01*
X112166000Y-112068344D01*
X114969000Y-112068344D01*
X114969000Y-112439656D01*
X115041439Y-112803834D01*
X115183534Y-113146882D01*
X115389825Y-113455618D01*
X115652382Y-113718175D01*
X115961118Y-113924466D01*
X116304166Y-114066561D01*
X116668344Y-114139000D01*
X117039656Y-114139000D01*
X117403834Y-114066561D01*
X117746882Y-113924466D01*
X118055618Y-113718175D01*
X118318175Y-113455618D01*
X118524466Y-113146882D01*
X118666561Y-112803834D01*
X118739000Y-112439656D01*
X118739000Y-112068344D01*
X118666561Y-111704166D01*
X118524466Y-111361118D01*
X118318175Y-111052382D01*
X118055618Y-110789825D01*
X117746882Y-110583534D01*
X117403834Y-110441439D01*
X117039656Y-110369000D01*
X116668344Y-110369000D01*
X116304166Y-110441439D01*
X115961118Y-110583534D01*
X115652382Y-110789825D01*
X115389825Y-111052382D01*
X115183534Y-111361118D01*
X115041439Y-111704166D01*
X114969000Y-112068344D01*
X112166000Y-112068344D01*
X112166000Y-109889911D01*
X137495000Y-109889911D01*
X137495000Y-110074089D01*
X137530932Y-110254729D01*
X137601414Y-110424889D01*
X137703738Y-110578028D01*
X137833972Y-110708262D01*
X137987111Y-110810586D01*
X138157271Y-110881068D01*
X138337911Y-110917000D01*
X138522089Y-110917000D01*
X138702729Y-110881068D01*
X138872889Y-110810586D01*
X139026028Y-110708262D01*
X139156262Y-110578028D01*
X139258586Y-110424889D01*
X139329068Y-110254729D01*
X139365000Y-110074089D01*
X139365000Y-109889911D01*
X139329068Y-109709271D01*
X139258586Y-109539111D01*
X139156262Y-109385972D01*
X139026028Y-109255738D01*
X138872889Y-109153414D01*
X138702729Y-109082932D01*
X138522089Y-109047000D01*
X138337911Y-109047000D01*
X138157271Y-109082932D01*
X137987111Y-109153414D01*
X137833972Y-109255738D01*
X137703738Y-109385972D01*
X137601414Y-109539111D01*
X137530932Y-109709271D01*
X137495000Y-109889911D01*
X112166000Y-109889911D01*
X112166000Y-107794411D01*
X135145500Y-107794411D01*
X135145500Y-107978589D01*
X135181432Y-108159229D01*
X135251914Y-108329389D01*
X135354238Y-108482528D01*
X135484472Y-108612762D01*
X135637611Y-108715086D01*
X135807771Y-108785568D01*
X135988411Y-108821500D01*
X136172589Y-108821500D01*
X136353229Y-108785568D01*
X136523389Y-108715086D01*
X136676528Y-108612762D01*
X136806762Y-108482528D01*
X136906000Y-108334008D01*
X137005238Y-108482528D01*
X137135472Y-108612762D01*
X137288611Y-108715086D01*
X137458771Y-108785568D01*
X137639411Y-108821500D01*
X137823589Y-108821500D01*
X138004229Y-108785568D01*
X138097556Y-108746911D01*
X142448000Y-108746911D01*
X142448000Y-108931089D01*
X142483932Y-109111729D01*
X142554414Y-109281889D01*
X142656738Y-109435028D01*
X142786972Y-109565262D01*
X142940111Y-109667586D01*
X143110271Y-109738068D01*
X143290911Y-109774000D01*
X143475089Y-109774000D01*
X143655729Y-109738068D01*
X143825889Y-109667586D01*
X143979028Y-109565262D01*
X144109262Y-109435028D01*
X144211586Y-109281889D01*
X144282068Y-109111729D01*
X144318000Y-108931089D01*
X144318000Y-108763879D01*
X144533426Y-108763879D01*
X144533426Y-108948057D01*
X144569358Y-109128697D01*
X144639840Y-109298857D01*
X144742164Y-109451996D01*
X144872398Y-109582230D01*
X145025537Y-109684554D01*
X145195697Y-109755036D01*
X145376337Y-109790968D01*
X145560515Y-109790968D01*
X145741155Y-109755036D01*
X145911315Y-109684554D01*
X146064454Y-109582230D01*
X146194688Y-109451996D01*
X146297012Y-109298857D01*
X146367494Y-109128697D01*
X146403426Y-108948057D01*
X146403426Y-108763879D01*
X146367494Y-108583239D01*
X146297012Y-108413079D01*
X146194688Y-108259940D01*
X146064454Y-108129706D01*
X145911315Y-108027382D01*
X145741155Y-107956900D01*
X145560515Y-107920968D01*
X145376337Y-107920968D01*
X145195697Y-107956900D01*
X145025537Y-108027382D01*
X144872398Y-108129706D01*
X144742164Y-108259940D01*
X144639840Y-108413079D01*
X144569358Y-108583239D01*
X144533426Y-108763879D01*
X144318000Y-108763879D01*
X144318000Y-108746911D01*
X144282068Y-108566271D01*
X144211586Y-108396111D01*
X144109262Y-108242972D01*
X143979028Y-108112738D01*
X143825889Y-108010414D01*
X143655729Y-107939932D01*
X143475089Y-107904000D01*
X143290911Y-107904000D01*
X143110271Y-107939932D01*
X142940111Y-108010414D01*
X142786972Y-108112738D01*
X142656738Y-108242972D01*
X142554414Y-108396111D01*
X142483932Y-108566271D01*
X142448000Y-108746911D01*
X138097556Y-108746911D01*
X138174389Y-108715086D01*
X138327528Y-108612762D01*
X138457762Y-108482528D01*
X138560086Y-108329389D01*
X138630568Y-108159229D01*
X138666500Y-107978589D01*
X138666500Y-107794411D01*
X138630568Y-107613771D01*
X138560086Y-107443611D01*
X138457762Y-107290472D01*
X138327528Y-107160238D01*
X138174389Y-107057914D01*
X138004229Y-106987432D01*
X137823589Y-106951500D01*
X137639411Y-106951500D01*
X137458771Y-106987432D01*
X137288611Y-107057914D01*
X137135472Y-107160238D01*
X137005238Y-107290472D01*
X136906000Y-107438992D01*
X136806762Y-107290472D01*
X136676528Y-107160238D01*
X136523389Y-107057914D01*
X136353229Y-106987432D01*
X136315866Y-106980000D01*
X136363089Y-106980000D01*
X136543729Y-106944068D01*
X136713889Y-106873586D01*
X136867028Y-106771262D01*
X136997262Y-106641028D01*
X137099586Y-106487889D01*
X137170068Y-106317729D01*
X137206000Y-106137089D01*
X137206000Y-105952911D01*
X137170068Y-105772271D01*
X137099586Y-105602111D01*
X136997262Y-105448972D01*
X136867028Y-105318738D01*
X136713889Y-105216414D01*
X136543729Y-105145932D01*
X136363089Y-105110000D01*
X136178911Y-105110000D01*
X135998271Y-105145932D01*
X135828111Y-105216414D01*
X135674972Y-105318738D01*
X135544738Y-105448972D01*
X135442414Y-105602111D01*
X135371932Y-105772271D01*
X135336000Y-105952911D01*
X135336000Y-106137089D01*
X135371932Y-106317729D01*
X135442414Y-106487889D01*
X135544738Y-106641028D01*
X135674972Y-106771262D01*
X135828111Y-106873586D01*
X135998271Y-106944068D01*
X136035634Y-106951500D01*
X135988411Y-106951500D01*
X135807771Y-106987432D01*
X135637611Y-107057914D01*
X135484472Y-107160238D01*
X135354238Y-107290472D01*
X135251914Y-107443611D01*
X135181432Y-107613771D01*
X135145500Y-107794411D01*
X112166000Y-107794411D01*
X112166000Y-106714911D01*
X131017982Y-106714911D01*
X131017982Y-106899089D01*
X131053914Y-107079729D01*
X131124396Y-107249889D01*
X131226720Y-107403028D01*
X131356954Y-107533262D01*
X131510093Y-107635586D01*
X131680253Y-107706068D01*
X131860893Y-107742000D01*
X132045071Y-107742000D01*
X132225711Y-107706068D01*
X132395871Y-107635586D01*
X132549010Y-107533262D01*
X132679244Y-107403028D01*
X132781568Y-107249889D01*
X132852050Y-107079729D01*
X132887982Y-106899089D01*
X132887982Y-106714911D01*
X132852050Y-106534271D01*
X132781568Y-106364111D01*
X132679244Y-106210972D01*
X132549010Y-106080738D01*
X132395871Y-105978414D01*
X132225711Y-105907932D01*
X132045071Y-105872000D01*
X131860893Y-105872000D01*
X131680253Y-105907932D01*
X131510093Y-105978414D01*
X131356954Y-106080738D01*
X131226720Y-106210972D01*
X131124396Y-106364111D01*
X131053914Y-106534271D01*
X131017982Y-106714911D01*
X112166000Y-106714911D01*
X112166000Y-105410854D01*
X112348022Y-105683269D01*
X112629731Y-105964978D01*
X112960987Y-106186316D01*
X113329059Y-106338776D01*
X113719801Y-106416500D01*
X114118199Y-106416500D01*
X114508941Y-106338776D01*
X114877013Y-106186316D01*
X115208269Y-105964978D01*
X115489978Y-105683269D01*
X115711316Y-105352013D01*
X115863776Y-104983941D01*
X115941500Y-104593199D01*
X115941500Y-104194801D01*
X117766500Y-104194801D01*
X117766500Y-104593199D01*
X117844224Y-104983941D01*
X117996684Y-105352013D01*
X118218022Y-105683269D01*
X118499731Y-105964978D01*
X118830987Y-106186316D01*
X119199059Y-106338776D01*
X119589801Y-106416500D01*
X119988199Y-106416500D01*
X120378941Y-106338776D01*
X120747013Y-106186316D01*
X121078269Y-105964978D01*
X121359978Y-105683269D01*
X121581316Y-105352013D01*
X121733776Y-104983941D01*
X121811500Y-104593199D01*
X121811500Y-104194801D01*
X121733776Y-103804059D01*
X121581316Y-103435987D01*
X121359978Y-103104731D01*
X121078269Y-102823022D01*
X120747013Y-102601684D01*
X120378941Y-102449224D01*
X119988199Y-102371500D01*
X119589801Y-102371500D01*
X119199059Y-102449224D01*
X118830987Y-102601684D01*
X118499731Y-102823022D01*
X118218022Y-103104731D01*
X117996684Y-103435987D01*
X117844224Y-103804059D01*
X117766500Y-104194801D01*
X115941500Y-104194801D01*
X115863776Y-103804059D01*
X115711316Y-103435987D01*
X115489978Y-103104731D01*
X115208269Y-102823022D01*
X114877013Y-102601684D01*
X114508941Y-102449224D01*
X114118199Y-102371500D01*
X113719801Y-102371500D01*
X113329059Y-102449224D01*
X112960987Y-102601684D01*
X112629731Y-102823022D01*
X112348022Y-103104731D01*
X112166000Y-103377146D01*
X112166000Y-101273344D01*
X114969000Y-101273344D01*
X114969000Y-101644656D01*
X115041439Y-102008834D01*
X115183534Y-102351882D01*
X115389825Y-102660618D01*
X115652382Y-102923175D01*
X115961118Y-103129466D01*
X116304166Y-103271561D01*
X116668344Y-103344000D01*
X117039656Y-103344000D01*
X117403834Y-103271561D01*
X117746882Y-103129466D01*
X118055618Y-102923175D01*
X118318175Y-102660618D01*
X118524466Y-102351882D01*
X118558419Y-102269911D01*
X128858998Y-102269911D01*
X128858998Y-102454089D01*
X128894930Y-102634729D01*
X128965412Y-102804889D01*
X129067736Y-102958028D01*
X129197970Y-103088262D01*
X129351109Y-103190586D01*
X129521269Y-103261068D01*
X129701909Y-103297000D01*
X129886087Y-103297000D01*
X130066727Y-103261068D01*
X130236887Y-103190586D01*
X130390026Y-103088262D01*
X130520260Y-102958028D01*
X130622584Y-102804889D01*
X130648000Y-102743528D01*
X130790787Y-102715126D01*
X130816499Y-102704476D01*
X130755223Y-102852410D01*
X130719291Y-103033050D01*
X130719291Y-103217228D01*
X130755223Y-103397868D01*
X130825705Y-103568028D01*
X130928029Y-103721167D01*
X131058263Y-103851401D01*
X131211402Y-103953725D01*
X131381562Y-104024207D01*
X131562202Y-104060139D01*
X131746380Y-104060139D01*
X131927020Y-104024207D01*
X132062807Y-103967963D01*
X132181542Y-104017144D01*
X132362182Y-104053076D01*
X132546360Y-104053076D01*
X132727000Y-104017144D01*
X132809141Y-103983120D01*
X132810520Y-103984042D01*
X132980680Y-104054524D01*
X133050000Y-104068313D01*
X133050000Y-104105095D01*
X133085932Y-104285735D01*
X133156414Y-104455895D01*
X133258738Y-104609034D01*
X133388972Y-104739268D01*
X133542111Y-104841592D01*
X133712271Y-104912074D01*
X133892911Y-104948006D01*
X134077089Y-104948006D01*
X134257729Y-104912074D01*
X134427889Y-104841592D01*
X134581028Y-104739268D01*
X134711262Y-104609034D01*
X134813586Y-104455895D01*
X134884068Y-104285735D01*
X134920000Y-104105095D01*
X134920000Y-103920917D01*
X134884068Y-103740277D01*
X134813586Y-103570117D01*
X134747452Y-103471140D01*
X134873591Y-103523388D01*
X135054231Y-103559320D01*
X135238409Y-103559320D01*
X135419049Y-103523388D01*
X135589209Y-103452906D01*
X135742348Y-103350582D01*
X135872582Y-103220348D01*
X135974906Y-103067209D01*
X136045388Y-102897049D01*
X136081320Y-102716409D01*
X136081320Y-102532231D01*
X136045388Y-102351591D01*
X135975603Y-102183113D01*
X135976609Y-102181607D01*
X136047091Y-102011447D01*
X136083023Y-101830807D01*
X136083023Y-101646629D01*
X136047091Y-101465989D01*
X135976609Y-101295829D01*
X135948233Y-101253361D01*
X137367450Y-101253361D01*
X137367450Y-101437539D01*
X137403382Y-101618179D01*
X137473864Y-101788339D01*
X137576188Y-101941478D01*
X137706422Y-102071712D01*
X137859561Y-102174036D01*
X138029721Y-102244518D01*
X138131054Y-102264675D01*
X138130012Y-102269911D01*
X138130012Y-102454089D01*
X138165944Y-102634729D01*
X138236426Y-102804889D01*
X138338750Y-102958028D01*
X138468984Y-103088262D01*
X138622123Y-103190586D01*
X138792283Y-103261068D01*
X138845234Y-103271601D01*
X138749111Y-103311416D01*
X138595972Y-103413740D01*
X138465738Y-103543974D01*
X138363414Y-103697113D01*
X138292932Y-103867273D01*
X138257000Y-104047913D01*
X138257000Y-104232091D01*
X138292932Y-104412731D01*
X138363414Y-104582891D01*
X138465738Y-104736030D01*
X138595972Y-104866264D01*
X138605418Y-104872575D01*
X138522089Y-104856000D01*
X138337911Y-104856000D01*
X138157271Y-104891932D01*
X137987111Y-104962414D01*
X137833972Y-105064738D01*
X137703738Y-105194972D01*
X137601414Y-105348111D01*
X137530932Y-105518271D01*
X137495000Y-105698911D01*
X137495000Y-105883089D01*
X137530932Y-106063729D01*
X137601414Y-106233889D01*
X137703738Y-106387028D01*
X137833972Y-106517262D01*
X137987111Y-106619586D01*
X138157271Y-106690068D01*
X138337911Y-106726000D01*
X138522089Y-106726000D01*
X138702729Y-106690068D01*
X138872889Y-106619586D01*
X138920294Y-106587911D01*
X147528000Y-106587911D01*
X147528000Y-106772089D01*
X147563932Y-106952729D01*
X147634414Y-107122889D01*
X147736738Y-107276028D01*
X147866972Y-107406262D01*
X148020111Y-107508586D01*
X148190271Y-107579068D01*
X148370911Y-107615000D01*
X148555089Y-107615000D01*
X148735729Y-107579068D01*
X148905889Y-107508586D01*
X149059028Y-107406262D01*
X149189262Y-107276028D01*
X149291586Y-107122889D01*
X149362068Y-106952729D01*
X149398000Y-106772089D01*
X149398000Y-106587911D01*
X149362068Y-106407271D01*
X149291586Y-106237111D01*
X149189262Y-106083972D01*
X149059028Y-105953738D01*
X148905889Y-105851414D01*
X148735729Y-105780932D01*
X148555089Y-105745000D01*
X148370911Y-105745000D01*
X148190271Y-105780932D01*
X148020111Y-105851414D01*
X147866972Y-105953738D01*
X147736738Y-106083972D01*
X147634414Y-106237111D01*
X147563932Y-106407271D01*
X147528000Y-106587911D01*
X138920294Y-106587911D01*
X139026028Y-106517262D01*
X139156262Y-106387028D01*
X139258586Y-106233889D01*
X139329068Y-106063729D01*
X139365000Y-105883089D01*
X139365000Y-105698911D01*
X139329068Y-105518271D01*
X139258586Y-105348111D01*
X139156262Y-105194972D01*
X139026028Y-105064738D01*
X139016582Y-105058427D01*
X139099911Y-105075002D01*
X139284089Y-105075002D01*
X139412486Y-105049462D01*
X139454611Y-105112507D01*
X139584845Y-105242741D01*
X139737984Y-105345065D01*
X139908144Y-105415547D01*
X140088784Y-105451479D01*
X140162000Y-105451479D01*
X140162000Y-105629089D01*
X140197932Y-105809729D01*
X140268414Y-105979889D01*
X140370738Y-106133028D01*
X140500972Y-106263262D01*
X140654111Y-106365586D01*
X140824271Y-106436068D01*
X141004911Y-106472000D01*
X141189089Y-106472000D01*
X141369729Y-106436068D01*
X141539889Y-106365586D01*
X141693028Y-106263262D01*
X141823262Y-106133028D01*
X141925586Y-105979889D01*
X141996068Y-105809729D01*
X142016642Y-105706297D01*
X156366000Y-105706297D01*
X156366000Y-105875703D01*
X156399049Y-106041853D01*
X156426655Y-106108500D01*
X156399049Y-106175147D01*
X156366000Y-106341297D01*
X156366000Y-106510703D01*
X156399049Y-106676853D01*
X156426655Y-106743500D01*
X156399049Y-106810147D01*
X156366000Y-106976297D01*
X156366000Y-107145703D01*
X156399049Y-107311853D01*
X156426655Y-107378500D01*
X156399049Y-107445147D01*
X156366000Y-107611297D01*
X156366000Y-107780703D01*
X156399049Y-107946853D01*
X156426655Y-108013500D01*
X156399049Y-108080147D01*
X156366000Y-108246297D01*
X156366000Y-108415703D01*
X156399049Y-108581853D01*
X156426655Y-108648500D01*
X156399049Y-108715147D01*
X156366000Y-108881297D01*
X156366000Y-109050703D01*
X156399049Y-109216853D01*
X156426655Y-109283500D01*
X156399049Y-109350147D01*
X156366000Y-109516297D01*
X156366000Y-109685703D01*
X156399049Y-109851853D01*
X156463878Y-110008363D01*
X156557995Y-110149218D01*
X156677782Y-110269005D01*
X156818637Y-110363122D01*
X156975147Y-110427951D01*
X157141297Y-110461000D01*
X157310703Y-110461000D01*
X157476853Y-110427951D01*
X157543500Y-110400345D01*
X157610147Y-110427951D01*
X157776297Y-110461000D01*
X157945703Y-110461000D01*
X158111853Y-110427951D01*
X158178500Y-110400345D01*
X158245147Y-110427951D01*
X158411297Y-110461000D01*
X158580703Y-110461000D01*
X158746853Y-110427951D01*
X158813500Y-110400345D01*
X158880147Y-110427951D01*
X159046297Y-110461000D01*
X159215703Y-110461000D01*
X159381853Y-110427951D01*
X159448500Y-110400345D01*
X159515147Y-110427951D01*
X159681297Y-110461000D01*
X159850703Y-110461000D01*
X160016853Y-110427951D01*
X160083500Y-110400345D01*
X160150147Y-110427951D01*
X160316297Y-110461000D01*
X160485703Y-110461000D01*
X160651853Y-110427951D01*
X160808363Y-110363122D01*
X160949218Y-110269005D01*
X161069005Y-110149218D01*
X161163122Y-110008363D01*
X161227951Y-109851853D01*
X161261000Y-109685703D01*
X161261000Y-109528344D01*
X165995000Y-109528344D01*
X165995000Y-109899656D01*
X166067439Y-110263834D01*
X166209534Y-110606882D01*
X166415825Y-110915618D01*
X166678382Y-111178175D01*
X166987118Y-111384466D01*
X167330166Y-111526561D01*
X167694344Y-111599000D01*
X168065656Y-111599000D01*
X168429834Y-111526561D01*
X168772882Y-111384466D01*
X169081618Y-111178175D01*
X169344175Y-110915618D01*
X169550466Y-110606882D01*
X169692561Y-110263834D01*
X169765000Y-109899656D01*
X169765000Y-109528344D01*
X169692561Y-109164166D01*
X169550466Y-108821118D01*
X169344175Y-108512382D01*
X169081618Y-108249825D01*
X168772882Y-108043534D01*
X168429834Y-107901439D01*
X168065656Y-107829000D01*
X167694344Y-107829000D01*
X167330166Y-107901439D01*
X166987118Y-108043534D01*
X166678382Y-108249825D01*
X166415825Y-108512382D01*
X166209534Y-108821118D01*
X166067439Y-109164166D01*
X165995000Y-109528344D01*
X161261000Y-109528344D01*
X161261000Y-109516297D01*
X161227951Y-109350147D01*
X161200345Y-109283500D01*
X161227951Y-109216853D01*
X161261000Y-109050703D01*
X161261000Y-108881297D01*
X161227951Y-108715147D01*
X161200345Y-108648500D01*
X161227951Y-108581853D01*
X161261000Y-108415703D01*
X161261000Y-108246297D01*
X161227951Y-108080147D01*
X161200345Y-108013500D01*
X161227951Y-107946853D01*
X161261000Y-107780703D01*
X161261000Y-107611297D01*
X161227951Y-107445147D01*
X161200345Y-107378500D01*
X161227951Y-107311853D01*
X161261000Y-107145703D01*
X161261000Y-106976297D01*
X161227951Y-106810147D01*
X161200345Y-106743500D01*
X161227951Y-106676853D01*
X161247255Y-106579801D01*
X162922500Y-106579801D01*
X162922500Y-106978199D01*
X163000224Y-107368941D01*
X163152684Y-107737013D01*
X163374022Y-108068269D01*
X163655731Y-108349978D01*
X163986987Y-108571316D01*
X164355059Y-108723776D01*
X164745801Y-108801500D01*
X165144199Y-108801500D01*
X165534941Y-108723776D01*
X165903013Y-108571316D01*
X166234269Y-108349978D01*
X166515978Y-108068269D01*
X166737316Y-107737013D01*
X166889776Y-107368941D01*
X166967500Y-106978199D01*
X166967500Y-106579801D01*
X166889776Y-106189059D01*
X166737316Y-105820987D01*
X166515978Y-105489731D01*
X166234269Y-105208022D01*
X165903013Y-104986684D01*
X165534941Y-104834224D01*
X165144199Y-104756500D01*
X164745801Y-104756500D01*
X164355059Y-104834224D01*
X163986987Y-104986684D01*
X163655731Y-105208022D01*
X163374022Y-105489731D01*
X163152684Y-105820987D01*
X163000224Y-106189059D01*
X162922500Y-106579801D01*
X161247255Y-106579801D01*
X161261000Y-106510703D01*
X161261000Y-106341297D01*
X161227951Y-106175147D01*
X161200345Y-106108500D01*
X161227951Y-106041853D01*
X161261000Y-105875703D01*
X161261000Y-105706297D01*
X161227951Y-105540147D01*
X161163122Y-105383637D01*
X161069005Y-105242782D01*
X160949218Y-105122995D01*
X160808363Y-105028878D01*
X160651853Y-104964049D01*
X160485703Y-104931000D01*
X160316297Y-104931000D01*
X160150147Y-104964049D01*
X160083500Y-104991655D01*
X160016853Y-104964049D01*
X159850703Y-104931000D01*
X159681297Y-104931000D01*
X159515147Y-104964049D01*
X159448500Y-104991655D01*
X159381853Y-104964049D01*
X159215703Y-104931000D01*
X159046297Y-104931000D01*
X158880147Y-104964049D01*
X158813500Y-104991655D01*
X158746853Y-104964049D01*
X158580703Y-104931000D01*
X158411297Y-104931000D01*
X158245147Y-104964049D01*
X158178500Y-104991655D01*
X158111853Y-104964049D01*
X157945703Y-104931000D01*
X157776297Y-104931000D01*
X157610147Y-104964049D01*
X157543500Y-104991655D01*
X157476853Y-104964049D01*
X157310703Y-104931000D01*
X157141297Y-104931000D01*
X156975147Y-104964049D01*
X156818637Y-105028878D01*
X156677782Y-105122995D01*
X156557995Y-105242782D01*
X156463878Y-105383637D01*
X156399049Y-105540147D01*
X156366000Y-105706297D01*
X142016642Y-105706297D01*
X142032000Y-105629089D01*
X142032000Y-105444911D01*
X141996068Y-105264271D01*
X141925586Y-105094111D01*
X141924510Y-105092501D01*
X141925586Y-105090891D01*
X141996068Y-104920731D01*
X142032000Y-104740091D01*
X142032000Y-104555913D01*
X141996068Y-104375273D01*
X141961601Y-104292061D01*
X161144000Y-104292061D01*
X161144000Y-104495939D01*
X161183774Y-104695898D01*
X161261795Y-104884256D01*
X161375063Y-105053774D01*
X161519226Y-105197937D01*
X161688744Y-105311205D01*
X161877102Y-105389226D01*
X162077061Y-105429000D01*
X162280939Y-105429000D01*
X162480898Y-105389226D01*
X162669256Y-105311205D01*
X162838774Y-105197937D01*
X162982937Y-105053774D01*
X163096205Y-104884256D01*
X163174226Y-104695898D01*
X163214000Y-104495939D01*
X163214000Y-104292061D01*
X163174226Y-104092102D01*
X163096205Y-103903744D01*
X162982937Y-103734226D01*
X162838774Y-103590063D01*
X162669256Y-103476795D01*
X162480898Y-103398774D01*
X162280939Y-103359000D01*
X162077061Y-103359000D01*
X161877102Y-103398774D01*
X161688744Y-103476795D01*
X161519226Y-103590063D01*
X161375063Y-103734226D01*
X161261795Y-103903744D01*
X161183774Y-104092102D01*
X161144000Y-104292061D01*
X141961601Y-104292061D01*
X141938599Y-104236529D01*
X142010887Y-104206586D01*
X142164026Y-104104262D01*
X142294260Y-103974028D01*
X142396584Y-103820889D01*
X142467066Y-103650729D01*
X142502998Y-103470089D01*
X142502998Y-103349413D01*
X167022500Y-103349413D01*
X167022500Y-103533591D01*
X167058432Y-103714231D01*
X167128914Y-103884391D01*
X167231238Y-104037530D01*
X167361472Y-104167764D01*
X167514611Y-104270088D01*
X167684771Y-104340570D01*
X167865411Y-104376502D01*
X168049589Y-104376502D01*
X168230229Y-104340570D01*
X168400389Y-104270088D01*
X168553528Y-104167764D01*
X168683762Y-104037530D01*
X168786086Y-103884391D01*
X168856568Y-103714231D01*
X168892500Y-103533591D01*
X168892500Y-103349413D01*
X168856568Y-103168773D01*
X168786086Y-102998613D01*
X168683762Y-102845474D01*
X168553528Y-102715240D01*
X168400389Y-102612916D01*
X168230229Y-102542434D01*
X168049589Y-102506502D01*
X167865411Y-102506502D01*
X167684771Y-102542434D01*
X167514611Y-102612916D01*
X167361472Y-102715240D01*
X167231238Y-102845474D01*
X167128914Y-102998613D01*
X167058432Y-103168773D01*
X167022500Y-103349413D01*
X142502998Y-103349413D01*
X142502998Y-103285911D01*
X142467066Y-103105271D01*
X142396584Y-102935111D01*
X142353078Y-102870000D01*
X142396584Y-102804889D01*
X142467066Y-102634729D01*
X142502998Y-102454089D01*
X142502998Y-102269911D01*
X142467066Y-102089271D01*
X142396584Y-101919111D01*
X142353078Y-101854000D01*
X142396584Y-101788889D01*
X142467066Y-101618729D01*
X142502998Y-101438089D01*
X142502998Y-101253911D01*
X142467066Y-101073271D01*
X142441315Y-101011102D01*
X150021929Y-101011102D01*
X150021929Y-101195280D01*
X150057861Y-101375920D01*
X150128343Y-101546080D01*
X150230667Y-101699219D01*
X150360901Y-101829453D01*
X150514040Y-101931777D01*
X150684200Y-102002259D01*
X150864840Y-102038191D01*
X151049018Y-102038191D01*
X151229658Y-102002259D01*
X151399818Y-101931777D01*
X151552957Y-101829453D01*
X151683191Y-101699219D01*
X151785515Y-101546080D01*
X151855997Y-101375920D01*
X151891929Y-101195280D01*
X151891929Y-101011102D01*
X151855997Y-100830462D01*
X151785515Y-100660302D01*
X151683191Y-100507163D01*
X151552957Y-100376929D01*
X151399818Y-100274605D01*
X151229658Y-100204123D01*
X151049018Y-100168191D01*
X150864840Y-100168191D01*
X150684200Y-100204123D01*
X150514040Y-100274605D01*
X150360901Y-100376929D01*
X150230667Y-100507163D01*
X150128343Y-100660302D01*
X150057861Y-100830462D01*
X150021929Y-101011102D01*
X142441315Y-101011102D01*
X142396584Y-100903111D01*
X142395508Y-100901500D01*
X142396584Y-100899889D01*
X142467066Y-100729729D01*
X142502998Y-100549089D01*
X142502998Y-100364911D01*
X142467066Y-100184271D01*
X142396584Y-100014111D01*
X142294260Y-99860972D01*
X142243482Y-99810194D01*
X142294260Y-99759416D01*
X142396584Y-99606277D01*
X142467066Y-99436117D01*
X142480456Y-99368801D01*
X162922500Y-99368801D01*
X162922500Y-99767199D01*
X163000224Y-100157941D01*
X163152684Y-100526013D01*
X163374022Y-100857269D01*
X163655731Y-101138978D01*
X163986987Y-101360316D01*
X164355059Y-101512776D01*
X164745801Y-101590500D01*
X165144199Y-101590500D01*
X165534941Y-101512776D01*
X165903013Y-101360316D01*
X166234269Y-101138978D01*
X166515978Y-100857269D01*
X166737316Y-100526013D01*
X166889776Y-100157941D01*
X166967500Y-99767199D01*
X166967500Y-99368801D01*
X166889776Y-98978059D01*
X166737316Y-98609987D01*
X166515978Y-98278731D01*
X166234269Y-97997022D01*
X165903013Y-97775684D01*
X165534941Y-97623224D01*
X165144199Y-97545500D01*
X164745801Y-97545500D01*
X164355059Y-97623224D01*
X163986987Y-97775684D01*
X163655731Y-97997022D01*
X163374022Y-98278731D01*
X163152684Y-98609987D01*
X163000224Y-98978059D01*
X162922500Y-99368801D01*
X142480456Y-99368801D01*
X142502998Y-99255477D01*
X142502998Y-99071299D01*
X142467066Y-98890659D01*
X142396584Y-98720499D01*
X142294260Y-98567360D01*
X142164026Y-98437126D01*
X142010887Y-98334802D01*
X141840727Y-98264320D01*
X141660087Y-98228388D01*
X141475909Y-98228388D01*
X141295269Y-98264320D01*
X141125109Y-98334802D01*
X140971970Y-98437126D01*
X140841736Y-98567360D01*
X140739412Y-98720499D01*
X140668930Y-98890659D01*
X140632998Y-99071299D01*
X140632998Y-99255477D01*
X140668930Y-99436117D01*
X140739412Y-99606277D01*
X140841736Y-99759416D01*
X140892514Y-99810194D01*
X140841736Y-99860972D01*
X140739412Y-100014111D01*
X140668930Y-100184271D01*
X140632998Y-100364911D01*
X140632998Y-100549089D01*
X140668930Y-100729729D01*
X140739412Y-100899889D01*
X140740488Y-100901500D01*
X140739412Y-100903111D01*
X140668930Y-101073271D01*
X140632998Y-101253911D01*
X140632998Y-101438089D01*
X140668930Y-101618729D01*
X140739412Y-101788889D01*
X140782918Y-101854000D01*
X140739412Y-101919111D01*
X140668930Y-102089271D01*
X140632998Y-102269911D01*
X140632998Y-102454089D01*
X140668930Y-102634729D01*
X140739412Y-102804889D01*
X140782918Y-102870000D01*
X140739412Y-102935111D01*
X140668930Y-103105271D01*
X140632998Y-103285911D01*
X140632998Y-103470089D01*
X140668930Y-103650729D01*
X140707499Y-103743844D01*
X140623762Y-103687893D01*
X140453602Y-103617411D01*
X140272962Y-103581479D01*
X140088784Y-103581479D01*
X139960387Y-103607019D01*
X139918262Y-103543974D01*
X139788028Y-103413740D01*
X139634889Y-103311416D01*
X139464729Y-103240934D01*
X139411778Y-103230401D01*
X139507901Y-103190586D01*
X139661040Y-103088262D01*
X139791274Y-102958028D01*
X139893598Y-102804889D01*
X139964080Y-102634729D01*
X140000012Y-102454089D01*
X140000012Y-102269911D01*
X139964080Y-102089271D01*
X139893598Y-101919111D01*
X139791274Y-101765972D01*
X139661040Y-101635738D01*
X139507901Y-101533414D01*
X139337741Y-101462932D01*
X139236408Y-101442775D01*
X139237450Y-101437539D01*
X139237450Y-101253361D01*
X139201518Y-101072721D01*
X139131036Y-100902561D01*
X139118634Y-100884000D01*
X139157089Y-100884000D01*
X139337729Y-100848068D01*
X139507889Y-100777586D01*
X139661028Y-100675262D01*
X139791262Y-100545028D01*
X139893586Y-100391889D01*
X139964068Y-100221729D01*
X140000000Y-100041089D01*
X140000000Y-99856911D01*
X139964068Y-99676271D01*
X139893586Y-99506111D01*
X139791262Y-99352972D01*
X139661028Y-99222738D01*
X139507889Y-99120414D01*
X139337729Y-99049932D01*
X139157089Y-99014000D01*
X138972911Y-99014000D01*
X138792271Y-99049932D01*
X138622111Y-99120414D01*
X138468972Y-99222738D01*
X138338738Y-99352972D01*
X138236414Y-99506111D01*
X138165932Y-99676271D01*
X138130000Y-99856911D01*
X138130000Y-100041089D01*
X138165932Y-100221729D01*
X138236414Y-100391889D01*
X138248816Y-100410450D01*
X138210361Y-100410450D01*
X138029721Y-100446382D01*
X137859561Y-100516864D01*
X137706422Y-100619188D01*
X137576188Y-100749422D01*
X137473864Y-100902561D01*
X137403382Y-101072721D01*
X137367450Y-101253361D01*
X135948233Y-101253361D01*
X135874285Y-101142690D01*
X135744051Y-101012456D01*
X135590912Y-100910132D01*
X135420752Y-100839650D01*
X135341363Y-100823858D01*
X135321586Y-100776111D01*
X135219262Y-100622972D01*
X135089028Y-100492738D01*
X134935889Y-100390414D01*
X134780409Y-100326013D01*
X134777477Y-100311271D01*
X134706995Y-100141111D01*
X134604671Y-99987972D01*
X134474437Y-99857738D01*
X134321298Y-99755414D01*
X134151138Y-99684932D01*
X133970498Y-99649000D01*
X133786320Y-99649000D01*
X133605680Y-99684932D01*
X133435520Y-99755414D01*
X133282381Y-99857738D01*
X133152147Y-99987972D01*
X133049823Y-100141111D01*
X132979341Y-100311271D01*
X132943409Y-100491911D01*
X132943409Y-100676089D01*
X132979341Y-100856729D01*
X133049823Y-101026889D01*
X133152147Y-101180028D01*
X133282381Y-101310262D01*
X133435520Y-101412586D01*
X133591000Y-101476987D01*
X133593932Y-101491729D01*
X133664414Y-101661889D01*
X133766738Y-101815028D01*
X133896972Y-101945262D01*
X134050111Y-102047586D01*
X134220271Y-102118068D01*
X134299660Y-102133860D01*
X134318740Y-102179925D01*
X134317734Y-102181431D01*
X134247252Y-102351591D01*
X134211320Y-102532231D01*
X134211320Y-102716409D01*
X134247252Y-102897049D01*
X134317734Y-103067209D01*
X134383868Y-103166186D01*
X134257729Y-103113938D01*
X134188409Y-103100149D01*
X134188409Y-103063367D01*
X134152477Y-102882727D01*
X134081995Y-102712567D01*
X133979671Y-102559428D01*
X133849437Y-102429194D01*
X133696298Y-102326870D01*
X133526138Y-102256388D01*
X133345498Y-102220456D01*
X133161320Y-102220456D01*
X132980680Y-102256388D01*
X132898539Y-102290412D01*
X132897160Y-102289490D01*
X132727000Y-102219008D01*
X132546360Y-102183076D01*
X132362182Y-102183076D01*
X132181542Y-102219008D01*
X132045755Y-102275252D01*
X131927020Y-102226071D01*
X131746380Y-102190139D01*
X131562202Y-102190139D01*
X131381562Y-102226071D01*
X131355850Y-102236721D01*
X131417126Y-102088787D01*
X131453058Y-101908147D01*
X131453058Y-101723969D01*
X131417126Y-101543329D01*
X131346644Y-101373169D01*
X131244320Y-101220030D01*
X131114086Y-101089796D01*
X130960947Y-100987472D01*
X130790787Y-100916990D01*
X130610147Y-100881058D01*
X130522992Y-100881058D01*
X130520262Y-100876972D01*
X130390028Y-100746738D01*
X130236889Y-100644414D01*
X130066729Y-100573932D01*
X129886089Y-100538000D01*
X129701911Y-100538000D01*
X129521271Y-100573932D01*
X129351111Y-100644414D01*
X129197972Y-100746738D01*
X129067738Y-100876972D01*
X128965414Y-101030111D01*
X128894932Y-101200271D01*
X128859000Y-101380911D01*
X128859000Y-101565089D01*
X128894932Y-101745729D01*
X128965414Y-101915889D01*
X128966489Y-101917499D01*
X128965412Y-101919111D01*
X128894930Y-102089271D01*
X128858998Y-102269911D01*
X118558419Y-102269911D01*
X118666561Y-102008834D01*
X118739000Y-101644656D01*
X118739000Y-101273344D01*
X118666561Y-100909166D01*
X118524466Y-100566118D01*
X118318175Y-100257382D01*
X118055618Y-99994825D01*
X117746882Y-99788534D01*
X117403834Y-99646439D01*
X117039656Y-99574000D01*
X116668344Y-99574000D01*
X116304166Y-99646439D01*
X115961118Y-99788534D01*
X115652382Y-99994825D01*
X115389825Y-100257382D01*
X115183534Y-100566118D01*
X115041439Y-100909166D01*
X114969000Y-101273344D01*
X112166000Y-101273344D01*
X112166000Y-99540854D01*
X112348022Y-99813269D01*
X112629731Y-100094978D01*
X112960987Y-100316316D01*
X113329059Y-100468776D01*
X113719801Y-100546500D01*
X114118199Y-100546500D01*
X114508941Y-100468776D01*
X114877013Y-100316316D01*
X115208269Y-100094978D01*
X115489978Y-99813269D01*
X115711316Y-99482013D01*
X115863776Y-99113941D01*
X115941500Y-98723199D01*
X115941500Y-98324801D01*
X117766500Y-98324801D01*
X117766500Y-98723199D01*
X117844224Y-99113941D01*
X117996684Y-99482013D01*
X118218022Y-99813269D01*
X118499731Y-100094978D01*
X118830987Y-100316316D01*
X119199059Y-100468776D01*
X119589801Y-100546500D01*
X119988199Y-100546500D01*
X120378941Y-100468776D01*
X120747013Y-100316316D01*
X121078269Y-100094978D01*
X121359978Y-99813269D01*
X121581316Y-99482013D01*
X121733776Y-99113941D01*
X121811500Y-98723199D01*
X121811500Y-98713911D01*
X128986000Y-98713911D01*
X128986000Y-98898089D01*
X129021932Y-99078729D01*
X129092414Y-99248889D01*
X129194738Y-99402028D01*
X129324972Y-99532262D01*
X129478111Y-99634586D01*
X129648271Y-99705068D01*
X129828911Y-99741000D01*
X130013089Y-99741000D01*
X130193729Y-99705068D01*
X130363889Y-99634586D01*
X130517028Y-99532262D01*
X130647262Y-99402028D01*
X130749586Y-99248889D01*
X130820068Y-99078729D01*
X130856000Y-98898089D01*
X130856000Y-98713911D01*
X130820068Y-98533271D01*
X130749586Y-98363111D01*
X130647262Y-98209972D01*
X130517028Y-98079738D01*
X130377266Y-97986352D01*
X134793553Y-97986352D01*
X134793553Y-98170530D01*
X134829485Y-98351170D01*
X134899967Y-98521330D01*
X135002291Y-98674469D01*
X135132525Y-98804703D01*
X135285664Y-98907027D01*
X135455824Y-98977509D01*
X135636464Y-99013441D01*
X135820642Y-99013441D01*
X136001282Y-98977509D01*
X136171442Y-98907027D01*
X136324581Y-98804703D01*
X136454815Y-98674469D01*
X136557139Y-98521330D01*
X136627621Y-98351170D01*
X136663553Y-98170530D01*
X136663553Y-97986352D01*
X136627621Y-97805712D01*
X136557139Y-97635552D01*
X136454815Y-97482413D01*
X136324581Y-97352179D01*
X136171442Y-97249855D01*
X136001282Y-97179373D01*
X135820642Y-97143441D01*
X135636464Y-97143441D01*
X135455824Y-97179373D01*
X135285664Y-97249855D01*
X135132525Y-97352179D01*
X135002291Y-97482413D01*
X134899967Y-97635552D01*
X134829485Y-97805712D01*
X134793553Y-97986352D01*
X130377266Y-97986352D01*
X130363889Y-97977414D01*
X130193729Y-97906932D01*
X130013089Y-97871000D01*
X129828911Y-97871000D01*
X129648271Y-97906932D01*
X129478111Y-97977414D01*
X129324972Y-98079738D01*
X129194738Y-98209972D01*
X129092414Y-98363111D01*
X129021932Y-98533271D01*
X128986000Y-98713911D01*
X121811500Y-98713911D01*
X121811500Y-98324801D01*
X121733776Y-97934059D01*
X121581316Y-97565987D01*
X121359978Y-97234731D01*
X121078269Y-96953022D01*
X120747013Y-96731684D01*
X120378941Y-96579224D01*
X119988199Y-96501500D01*
X119589801Y-96501500D01*
X119199059Y-96579224D01*
X118830987Y-96731684D01*
X118499731Y-96953022D01*
X118218022Y-97234731D01*
X117996684Y-97565987D01*
X117844224Y-97934059D01*
X117766500Y-98324801D01*
X115941500Y-98324801D01*
X115863776Y-97934059D01*
X115711316Y-97565987D01*
X115489978Y-97234731D01*
X115208269Y-96953022D01*
X114877013Y-96731684D01*
X114508941Y-96579224D01*
X114118199Y-96501500D01*
X113719801Y-96501500D01*
X113329059Y-96579224D01*
X112960987Y-96731684D01*
X112629731Y-96953022D01*
X112348022Y-97234731D01*
X112166000Y-97507146D01*
X112166000Y-94141911D01*
X126954000Y-94141911D01*
X126954000Y-94326089D01*
X126989932Y-94506729D01*
X127060414Y-94676889D01*
X127162738Y-94830028D01*
X127292972Y-94960262D01*
X127446111Y-95062586D01*
X127616271Y-95133068D01*
X127796911Y-95169000D01*
X127981089Y-95169000D01*
X128161729Y-95133068D01*
X128331889Y-95062586D01*
X128485028Y-94960262D01*
X128615262Y-94830028D01*
X128717586Y-94676889D01*
X128788068Y-94506729D01*
X128824000Y-94326089D01*
X128824000Y-94141911D01*
X130510000Y-94141911D01*
X130510000Y-94326089D01*
X130545932Y-94506729D01*
X130616414Y-94676889D01*
X130718738Y-94830028D01*
X130848972Y-94960262D01*
X131002111Y-95062586D01*
X131172271Y-95133068D01*
X131352911Y-95169000D01*
X131537089Y-95169000D01*
X131717729Y-95133068D01*
X131887889Y-95062586D01*
X132041028Y-94960262D01*
X132171262Y-94830028D01*
X132273586Y-94676889D01*
X132341503Y-94512921D01*
X132980211Y-94512921D01*
X132980211Y-94697099D01*
X133016143Y-94877739D01*
X133086625Y-95047899D01*
X133188949Y-95201038D01*
X133319183Y-95331272D01*
X133472322Y-95433596D01*
X133642482Y-95504078D01*
X133823122Y-95540010D01*
X134007300Y-95540010D01*
X134187940Y-95504078D01*
X134358100Y-95433596D01*
X134511239Y-95331272D01*
X134594807Y-95247704D01*
X134610729Y-95327750D01*
X134681211Y-95497910D01*
X134783535Y-95651049D01*
X134913769Y-95781283D01*
X135066908Y-95883607D01*
X135237068Y-95954089D01*
X135417708Y-95990021D01*
X135463000Y-95990021D01*
X135463000Y-96104089D01*
X135498932Y-96284729D01*
X135569414Y-96454889D01*
X135671738Y-96608028D01*
X135801972Y-96738262D01*
X135955111Y-96840586D01*
X136125271Y-96911068D01*
X136305911Y-96947000D01*
X136490089Y-96947000D01*
X136670729Y-96911068D01*
X136840889Y-96840586D01*
X136994028Y-96738262D01*
X137124262Y-96608028D01*
X137158146Y-96557316D01*
X139161017Y-96557316D01*
X139161017Y-96741494D01*
X139196949Y-96922134D01*
X139267431Y-97092294D01*
X139369755Y-97245433D01*
X139499989Y-97375667D01*
X139653128Y-97477991D01*
X139823288Y-97548473D01*
X139870863Y-97557936D01*
X139887412Y-97597889D01*
X139989736Y-97751028D01*
X140119970Y-97881262D01*
X140273109Y-97983586D01*
X140443269Y-98054068D01*
X140623909Y-98090000D01*
X140808087Y-98090000D01*
X140988727Y-98054068D01*
X141158887Y-97983586D01*
X141312026Y-97881262D01*
X141442260Y-97751028D01*
X141544584Y-97597889D01*
X141615066Y-97427729D01*
X141650998Y-97247089D01*
X141650998Y-97062911D01*
X141615066Y-96882271D01*
X141544584Y-96712111D01*
X141442260Y-96558972D01*
X141312026Y-96428738D01*
X141158887Y-96326414D01*
X140988727Y-96255932D01*
X140941152Y-96246469D01*
X140924603Y-96206516D01*
X140822279Y-96053377D01*
X140692045Y-95923143D01*
X140538906Y-95820819D01*
X140368746Y-95750337D01*
X140188106Y-95714405D01*
X140003928Y-95714405D01*
X139823288Y-95750337D01*
X139653128Y-95820819D01*
X139499989Y-95923143D01*
X139369755Y-96053377D01*
X139267431Y-96206516D01*
X139196949Y-96376676D01*
X139161017Y-96557316D01*
X137158146Y-96557316D01*
X137226586Y-96454889D01*
X137297068Y-96284729D01*
X137333000Y-96104089D01*
X137333000Y-95919911D01*
X137297068Y-95739271D01*
X137260147Y-95650135D01*
X137305729Y-95641068D01*
X137475889Y-95570586D01*
X137629028Y-95468262D01*
X137759262Y-95338028D01*
X137861586Y-95184889D01*
X137932068Y-95014729D01*
X137968000Y-94834089D01*
X137968000Y-94649911D01*
X137932068Y-94469271D01*
X137861586Y-94299111D01*
X137759262Y-94145972D01*
X137629028Y-94015738D01*
X137475889Y-93913414D01*
X137305729Y-93842932D01*
X137125089Y-93807000D01*
X136940911Y-93807000D01*
X136760271Y-93842932D01*
X136590111Y-93913414D01*
X136436972Y-94015738D01*
X136306738Y-94145972D01*
X136204414Y-94299111D01*
X136166854Y-94389788D01*
X136105825Y-94328759D01*
X135952686Y-94226435D01*
X135782526Y-94155953D01*
X135601886Y-94120021D01*
X135417708Y-94120021D01*
X135237068Y-94155953D01*
X135066908Y-94226435D01*
X134913769Y-94328759D01*
X134830201Y-94412327D01*
X134814279Y-94332281D01*
X134743797Y-94162121D01*
X134641473Y-94008982D01*
X134511239Y-93878748D01*
X134358100Y-93776424D01*
X134187940Y-93705942D01*
X134007300Y-93670010D01*
X133823122Y-93670010D01*
X133642482Y-93705942D01*
X133472322Y-93776424D01*
X133319183Y-93878748D01*
X133188949Y-94008982D01*
X133086625Y-94162121D01*
X133016143Y-94332281D01*
X132980211Y-94512921D01*
X132341503Y-94512921D01*
X132344068Y-94506729D01*
X132380000Y-94326089D01*
X132380000Y-94141911D01*
X132344068Y-93961271D01*
X132273586Y-93791111D01*
X132171262Y-93637972D01*
X132041028Y-93507738D01*
X131887889Y-93405414D01*
X131717729Y-93334932D01*
X131537089Y-93299000D01*
X131352911Y-93299000D01*
X131172271Y-93334932D01*
X131002111Y-93405414D01*
X130848972Y-93507738D01*
X130718738Y-93637972D01*
X130616414Y-93791111D01*
X130545932Y-93961271D01*
X130510000Y-94141911D01*
X128824000Y-94141911D01*
X128788068Y-93961271D01*
X128717586Y-93791111D01*
X128615262Y-93637972D01*
X128485028Y-93507738D01*
X128331889Y-93405414D01*
X128161729Y-93334932D01*
X127981089Y-93299000D01*
X127796911Y-93299000D01*
X127616271Y-93334932D01*
X127446111Y-93405414D01*
X127292972Y-93507738D01*
X127162738Y-93637972D01*
X127060414Y-93791111D01*
X126989932Y-93961271D01*
X126954000Y-94141911D01*
X112166000Y-94141911D01*
X112166000Y-90910797D01*
X132363000Y-90910797D01*
X132363000Y-91080203D01*
X132396049Y-91246353D01*
X132423655Y-91313000D01*
X132396049Y-91379647D01*
X132363000Y-91545797D01*
X132363000Y-91715203D01*
X132396049Y-91881353D01*
X132423655Y-91948000D01*
X132396049Y-92014647D01*
X132363000Y-92180797D01*
X132363000Y-92350203D01*
X132396049Y-92516353D01*
X132423655Y-92583000D01*
X132396049Y-92649647D01*
X132363000Y-92815797D01*
X132363000Y-92985203D01*
X132396049Y-93151353D01*
X132460878Y-93307863D01*
X132554995Y-93448718D01*
X132674782Y-93568505D01*
X132815637Y-93662622D01*
X132972147Y-93727451D01*
X133138297Y-93760500D01*
X133307703Y-93760500D01*
X133473853Y-93727451D01*
X133630363Y-93662622D01*
X133771218Y-93568505D01*
X133891005Y-93448718D01*
X133985122Y-93307863D01*
X134049951Y-93151353D01*
X134083000Y-92985203D01*
X134083000Y-92815797D01*
X134049951Y-92649647D01*
X134022345Y-92583000D01*
X134049951Y-92516353D01*
X134083000Y-92350203D01*
X134083000Y-92180797D01*
X134049951Y-92014647D01*
X134022345Y-91948000D01*
X134049951Y-91881353D01*
X134083000Y-91715203D01*
X134083000Y-91601915D01*
X136288500Y-91601915D01*
X136288500Y-91786093D01*
X136324432Y-91966733D01*
X136394914Y-92136893D01*
X136497238Y-92290032D01*
X136627472Y-92420266D01*
X136780611Y-92522590D01*
X136950771Y-92593072D01*
X137131411Y-92629004D01*
X137315589Y-92629004D01*
X137496229Y-92593072D01*
X137666389Y-92522590D01*
X137819528Y-92420266D01*
X137949762Y-92290032D01*
X138052086Y-92136893D01*
X138112807Y-91990297D01*
X156366000Y-91990297D01*
X156366000Y-92159703D01*
X156399049Y-92325853D01*
X156426655Y-92392500D01*
X156399049Y-92459147D01*
X156366000Y-92625297D01*
X156366000Y-92794703D01*
X156399049Y-92960853D01*
X156426655Y-93027500D01*
X156399049Y-93094147D01*
X156366000Y-93260297D01*
X156366000Y-93429703D01*
X156399049Y-93595853D01*
X156426655Y-93662500D01*
X156399049Y-93729147D01*
X156366000Y-93895297D01*
X156366000Y-94064703D01*
X156399049Y-94230853D01*
X156426655Y-94297500D01*
X156399049Y-94364147D01*
X156366000Y-94530297D01*
X156366000Y-94699703D01*
X156399049Y-94865853D01*
X156426655Y-94932500D01*
X156399049Y-94999147D01*
X156366000Y-95165297D01*
X156366000Y-95334703D01*
X156399049Y-95500853D01*
X156426655Y-95567500D01*
X156399049Y-95634147D01*
X156366000Y-95800297D01*
X156366000Y-95969703D01*
X156399049Y-96135853D01*
X156463878Y-96292363D01*
X156557995Y-96433218D01*
X156677782Y-96553005D01*
X156818637Y-96647122D01*
X156975147Y-96711951D01*
X157141297Y-96745000D01*
X157310703Y-96745000D01*
X157476853Y-96711951D01*
X157543500Y-96684345D01*
X157610147Y-96711951D01*
X157690831Y-96728000D01*
X157578409Y-96728000D01*
X157397769Y-96763932D01*
X157227609Y-96834414D01*
X157074470Y-96936738D01*
X156944236Y-97066972D01*
X156841912Y-97220111D01*
X156771430Y-97390271D01*
X156735498Y-97570911D01*
X156735498Y-97755089D01*
X156771430Y-97935729D01*
X156841912Y-98105889D01*
X156944236Y-98259028D01*
X157074470Y-98389262D01*
X157227609Y-98491586D01*
X157397769Y-98562068D01*
X157578409Y-98598000D01*
X157762587Y-98598000D01*
X157943227Y-98562068D01*
X158113387Y-98491586D01*
X158266526Y-98389262D01*
X158396760Y-98259028D01*
X158499084Y-98105889D01*
X158569566Y-97935729D01*
X158605498Y-97755089D01*
X158605498Y-97570911D01*
X158569566Y-97390271D01*
X158499084Y-97220111D01*
X158396760Y-97066972D01*
X158266526Y-96936738D01*
X158113387Y-96834414D01*
X157943227Y-96763932D01*
X157848051Y-96745000D01*
X157945703Y-96745000D01*
X158111853Y-96711951D01*
X158178500Y-96684345D01*
X158245147Y-96711951D01*
X158411297Y-96745000D01*
X158580703Y-96745000D01*
X158746853Y-96711951D01*
X158813500Y-96684345D01*
X158880147Y-96711951D01*
X159046297Y-96745000D01*
X159215703Y-96745000D01*
X159381853Y-96711951D01*
X159448500Y-96684345D01*
X159515147Y-96711951D01*
X159681297Y-96745000D01*
X159850703Y-96745000D01*
X160016853Y-96711951D01*
X160083500Y-96684345D01*
X160150147Y-96711951D01*
X160316297Y-96745000D01*
X160485703Y-96745000D01*
X160651853Y-96711951D01*
X160808363Y-96647122D01*
X160949218Y-96553005D01*
X161054879Y-96447344D01*
X165995000Y-96447344D01*
X165995000Y-96818656D01*
X166067439Y-97182834D01*
X166209534Y-97525882D01*
X166415825Y-97834618D01*
X166678382Y-98097175D01*
X166987118Y-98303466D01*
X167330166Y-98445561D01*
X167694344Y-98518000D01*
X168065656Y-98518000D01*
X168429834Y-98445561D01*
X168772882Y-98303466D01*
X169081618Y-98097175D01*
X169344175Y-97834618D01*
X169550466Y-97525882D01*
X169692561Y-97182834D01*
X169765000Y-96818656D01*
X169765000Y-96447344D01*
X169692561Y-96083166D01*
X169550466Y-95740118D01*
X169344175Y-95431382D01*
X169081618Y-95168825D01*
X168772882Y-94962534D01*
X168429834Y-94820439D01*
X168065656Y-94748000D01*
X167694344Y-94748000D01*
X167330166Y-94820439D01*
X166987118Y-94962534D01*
X166678382Y-95168825D01*
X166415825Y-95431382D01*
X166209534Y-95740118D01*
X166067439Y-96083166D01*
X165995000Y-96447344D01*
X161054879Y-96447344D01*
X161069005Y-96433218D01*
X161163122Y-96292363D01*
X161227951Y-96135853D01*
X161261000Y-95969703D01*
X161261000Y-95800297D01*
X161227951Y-95634147D01*
X161200345Y-95567500D01*
X161227951Y-95500853D01*
X161261000Y-95334703D01*
X161261000Y-95165297D01*
X161227951Y-94999147D01*
X161200345Y-94932500D01*
X161227951Y-94865853D01*
X161261000Y-94699703D01*
X161261000Y-94530297D01*
X161227951Y-94364147D01*
X161200345Y-94297500D01*
X161227951Y-94230853D01*
X161261000Y-94064703D01*
X161261000Y-93895297D01*
X161227951Y-93729147D01*
X161200345Y-93662500D01*
X161227951Y-93595853D01*
X161247255Y-93498801D01*
X162922500Y-93498801D01*
X162922500Y-93897199D01*
X163000224Y-94287941D01*
X163152684Y-94656013D01*
X163374022Y-94987269D01*
X163655731Y-95268978D01*
X163986987Y-95490316D01*
X164355059Y-95642776D01*
X164745801Y-95720500D01*
X165144199Y-95720500D01*
X165534941Y-95642776D01*
X165903013Y-95490316D01*
X166234269Y-95268978D01*
X166515978Y-94987269D01*
X166737316Y-94656013D01*
X166889776Y-94287941D01*
X166967500Y-93897199D01*
X166967500Y-93498801D01*
X166889776Y-93108059D01*
X166737316Y-92739987D01*
X166515978Y-92408731D01*
X166234269Y-92127022D01*
X165903013Y-91905684D01*
X165534941Y-91753224D01*
X165144199Y-91675500D01*
X164745801Y-91675500D01*
X164355059Y-91753224D01*
X163986987Y-91905684D01*
X163655731Y-92127022D01*
X163374022Y-92408731D01*
X163152684Y-92739987D01*
X163000224Y-93108059D01*
X162922500Y-93498801D01*
X161247255Y-93498801D01*
X161261000Y-93429703D01*
X161261000Y-93260297D01*
X161227951Y-93094147D01*
X161200345Y-93027500D01*
X161227951Y-92960853D01*
X161261000Y-92794703D01*
X161261000Y-92625297D01*
X161227951Y-92459147D01*
X161200345Y-92392500D01*
X161227951Y-92325853D01*
X161261000Y-92159703D01*
X161261000Y-91990297D01*
X161227951Y-91824147D01*
X161163122Y-91667637D01*
X161069005Y-91526782D01*
X160949218Y-91406995D01*
X160808363Y-91312878D01*
X160651853Y-91248049D01*
X160485703Y-91215000D01*
X160316297Y-91215000D01*
X160150147Y-91248049D01*
X160083500Y-91275655D01*
X160016853Y-91248049D01*
X159850703Y-91215000D01*
X159681297Y-91215000D01*
X159515147Y-91248049D01*
X159448500Y-91275655D01*
X159381853Y-91248049D01*
X159215703Y-91215000D01*
X159046297Y-91215000D01*
X158880147Y-91248049D01*
X158813500Y-91275655D01*
X158746853Y-91248049D01*
X158580703Y-91215000D01*
X158411297Y-91215000D01*
X158245147Y-91248049D01*
X158178500Y-91275655D01*
X158111853Y-91248049D01*
X157945703Y-91215000D01*
X157776297Y-91215000D01*
X157610147Y-91248049D01*
X157543500Y-91275655D01*
X157476853Y-91248049D01*
X157310703Y-91215000D01*
X157141297Y-91215000D01*
X156975147Y-91248049D01*
X156818637Y-91312878D01*
X156677782Y-91406995D01*
X156557995Y-91526782D01*
X156463878Y-91667637D01*
X156399049Y-91824147D01*
X156366000Y-91990297D01*
X138112807Y-91990297D01*
X138122568Y-91966733D01*
X138158500Y-91786093D01*
X138158500Y-91601915D01*
X138122568Y-91421275D01*
X138052086Y-91251115D01*
X137949762Y-91097976D01*
X137819528Y-90967742D01*
X137666389Y-90865418D01*
X137496229Y-90794936D01*
X137315589Y-90759004D01*
X137131411Y-90759004D01*
X136950771Y-90794936D01*
X136780611Y-90865418D01*
X136627472Y-90967742D01*
X136497238Y-91097976D01*
X136394914Y-91251115D01*
X136324432Y-91421275D01*
X136288500Y-91601915D01*
X134083000Y-91601915D01*
X134083000Y-91545797D01*
X134049951Y-91379647D01*
X134022345Y-91313000D01*
X134049951Y-91246353D01*
X134083000Y-91080203D01*
X134083000Y-90910797D01*
X134049951Y-90744647D01*
X133985122Y-90588137D01*
X133891005Y-90447282D01*
X133771218Y-90327495D01*
X133630363Y-90233378D01*
X133473853Y-90168549D01*
X133307703Y-90135500D01*
X133138297Y-90135500D01*
X132972147Y-90168549D01*
X132815637Y-90233378D01*
X132674782Y-90327495D01*
X132554995Y-90447282D01*
X132460878Y-90588137D01*
X132396049Y-90744647D01*
X132363000Y-90910797D01*
X112166000Y-90910797D01*
X112166000Y-89569911D01*
X139781000Y-89569911D01*
X139781000Y-89754089D01*
X139816932Y-89934729D01*
X139887414Y-90104889D01*
X139989738Y-90258028D01*
X140119972Y-90388262D01*
X140273111Y-90490586D01*
X140443271Y-90561068D01*
X140623911Y-90597000D01*
X140808089Y-90597000D01*
X140988729Y-90561068D01*
X141158889Y-90490586D01*
X141312028Y-90388262D01*
X141442262Y-90258028D01*
X141453037Y-90241901D01*
X151338000Y-90241901D01*
X151338000Y-90426079D01*
X151373932Y-90606719D01*
X151444414Y-90776879D01*
X151546738Y-90930018D01*
X151676972Y-91060252D01*
X151830111Y-91162576D01*
X152000271Y-91233058D01*
X152180911Y-91268990D01*
X152365089Y-91268990D01*
X152545729Y-91233058D01*
X152715889Y-91162576D01*
X152869028Y-91060252D01*
X152999262Y-90930018D01*
X153066057Y-90830051D01*
X161144000Y-90830051D01*
X161144000Y-91033929D01*
X161183774Y-91233888D01*
X161261795Y-91422246D01*
X161375063Y-91591764D01*
X161519226Y-91735927D01*
X161688744Y-91849195D01*
X161877102Y-91927216D01*
X162077061Y-91966990D01*
X162280939Y-91966990D01*
X162480898Y-91927216D01*
X162669256Y-91849195D01*
X162838774Y-91735927D01*
X162982937Y-91591764D01*
X163096205Y-91422246D01*
X163174226Y-91233888D01*
X163214000Y-91033929D01*
X163214000Y-90830051D01*
X163174226Y-90630092D01*
X163096205Y-90441734D01*
X162982937Y-90272216D01*
X162838774Y-90128053D01*
X162763731Y-90077911D01*
X166705000Y-90077911D01*
X166705000Y-90262089D01*
X166740932Y-90442729D01*
X166811414Y-90612889D01*
X166913738Y-90766028D01*
X167043972Y-90896262D01*
X167197111Y-90998586D01*
X167367271Y-91069068D01*
X167547911Y-91105000D01*
X167732089Y-91105000D01*
X167912729Y-91069068D01*
X168082889Y-90998586D01*
X168236028Y-90896262D01*
X168366262Y-90766028D01*
X168468586Y-90612889D01*
X168539068Y-90442729D01*
X168575000Y-90262089D01*
X168575000Y-90077911D01*
X168539068Y-89897271D01*
X168468586Y-89727111D01*
X168366262Y-89573972D01*
X168236028Y-89443738D01*
X168082889Y-89341414D01*
X167912729Y-89270932D01*
X167732089Y-89235000D01*
X167547911Y-89235000D01*
X167367271Y-89270932D01*
X167197111Y-89341414D01*
X167043972Y-89443738D01*
X166913738Y-89573972D01*
X166811414Y-89727111D01*
X166740932Y-89897271D01*
X166705000Y-90077911D01*
X162763731Y-90077911D01*
X162669256Y-90014785D01*
X162480898Y-89936764D01*
X162280939Y-89896990D01*
X162077061Y-89896990D01*
X161877102Y-89936764D01*
X161688744Y-90014785D01*
X161519226Y-90128053D01*
X161375063Y-90272216D01*
X161261795Y-90441734D01*
X161183774Y-90630092D01*
X161144000Y-90830051D01*
X153066057Y-90830051D01*
X153101586Y-90776879D01*
X153172068Y-90606719D01*
X153208000Y-90426079D01*
X153208000Y-90241901D01*
X153172068Y-90061261D01*
X153101586Y-89891101D01*
X152999262Y-89737962D01*
X152869028Y-89607728D01*
X152715889Y-89505404D01*
X152545729Y-89434922D01*
X152365089Y-89398990D01*
X152180911Y-89398990D01*
X152000271Y-89434922D01*
X151830111Y-89505404D01*
X151676972Y-89607728D01*
X151546738Y-89737962D01*
X151444414Y-89891101D01*
X151373932Y-90061261D01*
X151338000Y-90241901D01*
X141453037Y-90241901D01*
X141544586Y-90104889D01*
X141615068Y-89934729D01*
X141651000Y-89754089D01*
X141651000Y-89569911D01*
X141615068Y-89389271D01*
X141544586Y-89219111D01*
X141442262Y-89065972D01*
X141312028Y-88935738D01*
X141158889Y-88833414D01*
X140988729Y-88762932D01*
X140808089Y-88727000D01*
X140623911Y-88727000D01*
X140443271Y-88762932D01*
X140273111Y-88833414D01*
X140119972Y-88935738D01*
X139989738Y-89065972D01*
X139887414Y-89219111D01*
X139816932Y-89389271D01*
X139781000Y-89569911D01*
X112166000Y-89569911D01*
X112166000Y-87672297D01*
X143221500Y-87672297D01*
X143221500Y-87841703D01*
X143254549Y-88007853D01*
X143282155Y-88074500D01*
X143254549Y-88141147D01*
X143221500Y-88307297D01*
X143221500Y-88476703D01*
X143254549Y-88642853D01*
X143319378Y-88799363D01*
X143413495Y-88940218D01*
X143533282Y-89060005D01*
X143674137Y-89154122D01*
X143830647Y-89218951D01*
X143996797Y-89252000D01*
X144166203Y-89252000D01*
X144332353Y-89218951D01*
X144399000Y-89191345D01*
X144465647Y-89218951D01*
X144631797Y-89252000D01*
X144801203Y-89252000D01*
X144967353Y-89218951D01*
X145034000Y-89191345D01*
X145100647Y-89218951D01*
X145266797Y-89252000D01*
X145436203Y-89252000D01*
X145602353Y-89218951D01*
X145669000Y-89191345D01*
X145735647Y-89218951D01*
X145901797Y-89252000D01*
X146071203Y-89252000D01*
X146237353Y-89218951D01*
X146393863Y-89154122D01*
X146534718Y-89060005D01*
X146654505Y-88940218D01*
X146748622Y-88799363D01*
X146813451Y-88642853D01*
X146846500Y-88476703D01*
X146846500Y-88307297D01*
X146813451Y-88141147D01*
X146785845Y-88074500D01*
X146813451Y-88007853D01*
X146846500Y-87841703D01*
X146846500Y-87672297D01*
X146813451Y-87506147D01*
X146748622Y-87349637D01*
X146654505Y-87208782D01*
X146534718Y-87088995D01*
X146393863Y-86994878D01*
X146237353Y-86930049D01*
X146071203Y-86897000D01*
X145901797Y-86897000D01*
X145735647Y-86930049D01*
X145669000Y-86957655D01*
X145602353Y-86930049D01*
X145436203Y-86897000D01*
X145266797Y-86897000D01*
X145100647Y-86930049D01*
X145034000Y-86957655D01*
X144967353Y-86930049D01*
X144801203Y-86897000D01*
X144631797Y-86897000D01*
X144465647Y-86930049D01*
X144399000Y-86957655D01*
X144332353Y-86930049D01*
X144166203Y-86897000D01*
X143996797Y-86897000D01*
X143830647Y-86930049D01*
X143674137Y-86994878D01*
X143533282Y-87088995D01*
X143413495Y-87208782D01*
X143319378Y-87349637D01*
X143254549Y-87506147D01*
X143221500Y-87672297D01*
X112166000Y-87672297D01*
X112166000Y-86287801D01*
X162922500Y-86287801D01*
X162922500Y-86686199D01*
X163000224Y-87076941D01*
X163152684Y-87445013D01*
X163374022Y-87776269D01*
X163655731Y-88057978D01*
X163986987Y-88279316D01*
X164355059Y-88431776D01*
X164745801Y-88509500D01*
X165144199Y-88509500D01*
X165534941Y-88431776D01*
X165903013Y-88279316D01*
X166234269Y-88057978D01*
X166515978Y-87776269D01*
X166737316Y-87445013D01*
X166889776Y-87076941D01*
X166967500Y-86686199D01*
X166967500Y-86287801D01*
X166889776Y-85897059D01*
X166737316Y-85528987D01*
X166515978Y-85197731D01*
X166234269Y-84916022D01*
X165903013Y-84694684D01*
X165534941Y-84542224D01*
X165144199Y-84464500D01*
X164745801Y-84464500D01*
X164355059Y-84542224D01*
X163986987Y-84694684D01*
X163655731Y-84916022D01*
X163374022Y-85197731D01*
X163152684Y-85528987D01*
X163000224Y-85897059D01*
X162922500Y-86287801D01*
X112166000Y-86287801D01*
X112166000Y-78384000D01*
X116713000Y-78384000D01*
X116713000Y-79375000D01*
G37*
X116713000Y-79375000D02*
X116715440Y-79399776D01*
X116722667Y-79423601D01*
X116734403Y-79445557D01*
X116742000Y-79454814D01*
X116742000Y-79459703D01*
X116775049Y-79625853D01*
X116802655Y-79692500D01*
X116775049Y-79759147D01*
X116742000Y-79925297D01*
X116742000Y-80094703D01*
X116775049Y-80260853D01*
X116802655Y-80327500D01*
X116775049Y-80394147D01*
X116742000Y-80560297D01*
X116742000Y-80729703D01*
X116775049Y-80895853D01*
X116802655Y-80962500D01*
X116775049Y-81029147D01*
X116742000Y-81195297D01*
X116742000Y-81364703D01*
X116775049Y-81530853D01*
X116802655Y-81597500D01*
X116775049Y-81664147D01*
X116742000Y-81830297D01*
X116742000Y-81999703D01*
X116775049Y-82165853D01*
X116802655Y-82232500D01*
X116775049Y-82299147D01*
X116742000Y-82465297D01*
X116742000Y-82634703D01*
X116775049Y-82800853D01*
X116802655Y-82867500D01*
X116775049Y-82934147D01*
X116742000Y-83100297D01*
X116742000Y-83269703D01*
X116775049Y-83435853D01*
X116839878Y-83592363D01*
X116933995Y-83733218D01*
X117053782Y-83853005D01*
X117194637Y-83947122D01*
X117351147Y-84011951D01*
X117517297Y-84045000D01*
X117686703Y-84045000D01*
X117852853Y-84011951D01*
X117919500Y-83984345D01*
X117986147Y-84011951D01*
X118152297Y-84045000D01*
X118321703Y-84045000D01*
X118487853Y-84011951D01*
X118554500Y-83984345D01*
X118621147Y-84011951D01*
X118787297Y-84045000D01*
X118956703Y-84045000D01*
X119122853Y-84011951D01*
X119189500Y-83984345D01*
X119256147Y-84011951D01*
X119422297Y-84045000D01*
X119591703Y-84045000D01*
X119757853Y-84011951D01*
X119824500Y-83984345D01*
X119891147Y-84011951D01*
X120057297Y-84045000D01*
X120226703Y-84045000D01*
X120392853Y-84011951D01*
X120459500Y-83984345D01*
X120526147Y-84011951D01*
X120692297Y-84045000D01*
X120861703Y-84045000D01*
X121027853Y-84011951D01*
X121184363Y-83947122D01*
X121325218Y-83853005D01*
X121445005Y-83733218D01*
X121539122Y-83592363D01*
X121603951Y-83435853D01*
X121637000Y-83269703D01*
X121637000Y-83100297D01*
X121603951Y-82934147D01*
X121576345Y-82867500D01*
X121603951Y-82800853D01*
X121637000Y-82634703D01*
X121637000Y-82465297D01*
X121603951Y-82299147D01*
X121576345Y-82232500D01*
X121603951Y-82165853D01*
X121637000Y-81999703D01*
X121637000Y-81830297D01*
X121603951Y-81664147D01*
X121576345Y-81597500D01*
X121603951Y-81530853D01*
X121637000Y-81364703D01*
X121637000Y-81195297D01*
X121603951Y-81029147D01*
X121576345Y-80962500D01*
X121603951Y-80895853D01*
X121637000Y-80729703D01*
X121637000Y-80560297D01*
X121603951Y-80394147D01*
X121576345Y-80327500D01*
X121603951Y-80260853D01*
X121637000Y-80094703D01*
X121637000Y-79925297D01*
X121603951Y-79759147D01*
X121576345Y-79692500D01*
X121603951Y-79625853D01*
X121637000Y-79459703D01*
X121637000Y-79454814D01*
X121644597Y-79445557D01*
X121656333Y-79423601D01*
X121663560Y-79399776D01*
X121666000Y-79375000D01*
X121666000Y-78384000D01*
X156845000Y-78384000D01*
X156845000Y-78601958D01*
X156818637Y-78612878D01*
X156677782Y-78706995D01*
X156557995Y-78826782D01*
X156463878Y-78967637D01*
X156399049Y-79124147D01*
X156366000Y-79290297D01*
X156366000Y-79459703D01*
X156399049Y-79625853D01*
X156426655Y-79692500D01*
X156399049Y-79759147D01*
X156366000Y-79925297D01*
X156366000Y-80094703D01*
X156399049Y-80260853D01*
X156426655Y-80327500D01*
X156399049Y-80394147D01*
X156366000Y-80560297D01*
X156366000Y-80729703D01*
X156399049Y-80895853D01*
X156426655Y-80962500D01*
X156399049Y-81029147D01*
X156366000Y-81195297D01*
X156366000Y-81364703D01*
X156399049Y-81530853D01*
X156426655Y-81597500D01*
X156399049Y-81664147D01*
X156366000Y-81830297D01*
X156366000Y-81999703D01*
X156399049Y-82165853D01*
X156426655Y-82232500D01*
X156399049Y-82299147D01*
X156366000Y-82465297D01*
X156366000Y-82634703D01*
X156399049Y-82800853D01*
X156426655Y-82867500D01*
X156399049Y-82934147D01*
X156366000Y-83100297D01*
X156366000Y-83269703D01*
X156399049Y-83435853D01*
X156463878Y-83592363D01*
X156557995Y-83733218D01*
X156677782Y-83853005D01*
X156818637Y-83947122D01*
X156975147Y-84011951D01*
X157141297Y-84045000D01*
X157310703Y-84045000D01*
X157476853Y-84011951D01*
X157543500Y-83984345D01*
X157610147Y-84011951D01*
X157776297Y-84045000D01*
X157945703Y-84045000D01*
X158111853Y-84011951D01*
X158178500Y-83984345D01*
X158245147Y-84011951D01*
X158411297Y-84045000D01*
X158580703Y-84045000D01*
X158746853Y-84011951D01*
X158813500Y-83984345D01*
X158880147Y-84011951D01*
X159046297Y-84045000D01*
X159215703Y-84045000D01*
X159381853Y-84011951D01*
X159448500Y-83984345D01*
X159515147Y-84011951D01*
X159681297Y-84045000D01*
X159850703Y-84045000D01*
X160016853Y-84011951D01*
X160083500Y-83984345D01*
X160150147Y-84011951D01*
X160316297Y-84045000D01*
X160485703Y-84045000D01*
X160651853Y-84011951D01*
X160808363Y-83947122D01*
X160949218Y-83853005D01*
X161069005Y-83733218D01*
X161163122Y-83592363D01*
X161227951Y-83435853D01*
X161241777Y-83366344D01*
X165995000Y-83366344D01*
X165995000Y-83737656D01*
X166067439Y-84101834D01*
X166209534Y-84444882D01*
X166415825Y-84753618D01*
X166678382Y-85016175D01*
X166987118Y-85222466D01*
X167330166Y-85364561D01*
X167694344Y-85437000D01*
X168065656Y-85437000D01*
X168429834Y-85364561D01*
X168772882Y-85222466D01*
X169081618Y-85016175D01*
X169344175Y-84753618D01*
X169550466Y-84444882D01*
X169692561Y-84101834D01*
X169765000Y-83737656D01*
X169765000Y-83366344D01*
X169692561Y-83002166D01*
X169550466Y-82659118D01*
X169344175Y-82350382D01*
X169081618Y-82087825D01*
X168772882Y-81881534D01*
X168429834Y-81739439D01*
X168065656Y-81667000D01*
X167694344Y-81667000D01*
X167330166Y-81739439D01*
X166987118Y-81881534D01*
X166678382Y-82087825D01*
X166415825Y-82350382D01*
X166209534Y-82659118D01*
X166067439Y-83002166D01*
X165995000Y-83366344D01*
X161241777Y-83366344D01*
X161261000Y-83269703D01*
X161261000Y-83100297D01*
X161227951Y-82934147D01*
X161200345Y-82867500D01*
X161227951Y-82800853D01*
X161261000Y-82634703D01*
X161261000Y-82465297D01*
X161227951Y-82299147D01*
X161200345Y-82232500D01*
X161227951Y-82165853D01*
X161261000Y-81999703D01*
X161261000Y-81830297D01*
X161227951Y-81664147D01*
X161200345Y-81597500D01*
X161227951Y-81530853D01*
X161261000Y-81364703D01*
X161261000Y-81195297D01*
X161227951Y-81029147D01*
X161200345Y-80962500D01*
X161227951Y-80895853D01*
X161261000Y-80729703D01*
X161261000Y-80560297D01*
X161232657Y-80417801D01*
X162922500Y-80417801D01*
X162922500Y-80816199D01*
X163000224Y-81206941D01*
X163152684Y-81575013D01*
X163374022Y-81906269D01*
X163655731Y-82187978D01*
X163986987Y-82409316D01*
X164355059Y-82561776D01*
X164745801Y-82639500D01*
X165144199Y-82639500D01*
X165534941Y-82561776D01*
X165903013Y-82409316D01*
X166234269Y-82187978D01*
X166515978Y-81906269D01*
X166737316Y-81575013D01*
X166889776Y-81206941D01*
X166967500Y-80816199D01*
X166967500Y-80417801D01*
X166889776Y-80027059D01*
X166737316Y-79658987D01*
X166515978Y-79327731D01*
X166234269Y-79046022D01*
X165903013Y-78824684D01*
X165534941Y-78672224D01*
X165144199Y-78594500D01*
X164745801Y-78594500D01*
X164355059Y-78672224D01*
X163986987Y-78824684D01*
X163655731Y-79046022D01*
X163374022Y-79327731D01*
X163152684Y-79658987D01*
X163000224Y-80027059D01*
X162922500Y-80417801D01*
X161232657Y-80417801D01*
X161227951Y-80394147D01*
X161200345Y-80327500D01*
X161227951Y-80260853D01*
X161261000Y-80094703D01*
X161261000Y-79925297D01*
X161227951Y-79759147D01*
X161200345Y-79692500D01*
X161227951Y-79625853D01*
X161252587Y-79502000D01*
X161671000Y-79502000D01*
X161695776Y-79499560D01*
X161719601Y-79492333D01*
X161741557Y-79480597D01*
X161760803Y-79464803D01*
X161776597Y-79445557D01*
X161788333Y-79423601D01*
X161795560Y-79399776D01*
X161798000Y-79375000D01*
X161798000Y-78384000D01*
X172568001Y-78384000D01*
X172568001Y-79600148D01*
X172385978Y-79327731D01*
X172104269Y-79046022D01*
X171773013Y-78824684D01*
X171404941Y-78672224D01*
X171014199Y-78594500D01*
X170615801Y-78594500D01*
X170225059Y-78672224D01*
X169856987Y-78824684D01*
X169525731Y-79046022D01*
X169244022Y-79327731D01*
X169022684Y-79658987D01*
X168870224Y-80027059D01*
X168792500Y-80417801D01*
X168792500Y-80816199D01*
X168870224Y-81206941D01*
X169022684Y-81575013D01*
X169244022Y-81906269D01*
X169525731Y-82187978D01*
X169856987Y-82409316D01*
X170225059Y-82561776D01*
X170615801Y-82639500D01*
X171014199Y-82639500D01*
X171404941Y-82561776D01*
X171773013Y-82409316D01*
X172104269Y-82187978D01*
X172385978Y-81906269D01*
X172568001Y-81633852D01*
X172568001Y-85470148D01*
X172385978Y-85197731D01*
X172104269Y-84916022D01*
X171773013Y-84694684D01*
X171404941Y-84542224D01*
X171014199Y-84464500D01*
X170615801Y-84464500D01*
X170225059Y-84542224D01*
X169856987Y-84694684D01*
X169525731Y-84916022D01*
X169244022Y-85197731D01*
X169022684Y-85528987D01*
X168870224Y-85897059D01*
X168792500Y-86287801D01*
X168792500Y-86686199D01*
X168870224Y-87076941D01*
X169022684Y-87445013D01*
X169244022Y-87776269D01*
X169525731Y-88057978D01*
X169856987Y-88279316D01*
X170225059Y-88431776D01*
X170615801Y-88509500D01*
X171014199Y-88509500D01*
X171404941Y-88431776D01*
X171773013Y-88279316D01*
X172104269Y-88057978D01*
X172385978Y-87776269D01*
X172568001Y-87503852D01*
X172568001Y-92681147D01*
X172385978Y-92408731D01*
X172104269Y-92127022D01*
X171773013Y-91905684D01*
X171404941Y-91753224D01*
X171014199Y-91675500D01*
X170615801Y-91675500D01*
X170225059Y-91753224D01*
X169856987Y-91905684D01*
X169525731Y-92127022D01*
X169244022Y-92408731D01*
X169022684Y-92739987D01*
X168870224Y-93108059D01*
X168792500Y-93498801D01*
X168792500Y-93897199D01*
X168870224Y-94287941D01*
X169022684Y-94656013D01*
X169244022Y-94987269D01*
X169525731Y-95268978D01*
X169856987Y-95490316D01*
X170225059Y-95642776D01*
X170615801Y-95720500D01*
X171014199Y-95720500D01*
X171404941Y-95642776D01*
X171773013Y-95490316D01*
X172104269Y-95268978D01*
X172385978Y-94987269D01*
X172568001Y-94714853D01*
X172568000Y-98551147D01*
X172385978Y-98278731D01*
X172104269Y-97997022D01*
X171773013Y-97775684D01*
X171404941Y-97623224D01*
X171014199Y-97545500D01*
X170615801Y-97545500D01*
X170225059Y-97623224D01*
X169856987Y-97775684D01*
X169525731Y-97997022D01*
X169244022Y-98278731D01*
X169022684Y-98609987D01*
X168870224Y-98978059D01*
X168792500Y-99368801D01*
X168792500Y-99767199D01*
X168870224Y-100157941D01*
X169022684Y-100526013D01*
X169244022Y-100857269D01*
X169525731Y-101138978D01*
X169856987Y-101360316D01*
X170225059Y-101512776D01*
X170615801Y-101590500D01*
X171014199Y-101590500D01*
X171404941Y-101512776D01*
X171773013Y-101360316D01*
X172104269Y-101138978D01*
X172385978Y-100857269D01*
X172568000Y-100584853D01*
X172568000Y-105762147D01*
X172385978Y-105489731D01*
X172104269Y-105208022D01*
X171773013Y-104986684D01*
X171404941Y-104834224D01*
X171014199Y-104756500D01*
X170615801Y-104756500D01*
X170225059Y-104834224D01*
X169856987Y-104986684D01*
X169525731Y-105208022D01*
X169244022Y-105489731D01*
X169022684Y-105820987D01*
X168870224Y-106189059D01*
X168792500Y-106579801D01*
X168792500Y-106978199D01*
X168870224Y-107368941D01*
X169022684Y-107737013D01*
X169244022Y-108068269D01*
X169525731Y-108349978D01*
X169856987Y-108571316D01*
X170225059Y-108723776D01*
X170615801Y-108801500D01*
X171014199Y-108801500D01*
X171404941Y-108723776D01*
X171773013Y-108571316D01*
X172104269Y-108349978D01*
X172385978Y-108068269D01*
X172568000Y-107795853D01*
X172568000Y-111632147D01*
X172385978Y-111359731D01*
X172104269Y-111078022D01*
X171773013Y-110856684D01*
X171404941Y-110704224D01*
X171014199Y-110626500D01*
X170615801Y-110626500D01*
X170225059Y-110704224D01*
X169856987Y-110856684D01*
X169525731Y-111078022D01*
X169244022Y-111359731D01*
X169022684Y-111690987D01*
X168870224Y-112059059D01*
X168792500Y-112449801D01*
X168792500Y-112848199D01*
X168870224Y-113238941D01*
X169022684Y-113607013D01*
X169244022Y-113938269D01*
X169525731Y-114219978D01*
X169856987Y-114441316D01*
X170225059Y-114593776D01*
X170615801Y-114671500D01*
X171014199Y-114671500D01*
X171404941Y-114593776D01*
X171773013Y-114441316D01*
X172104269Y-114219978D01*
X172385978Y-113938269D01*
X172568000Y-113665853D01*
X172568000Y-116942000D01*
X168716855Y-116942000D01*
X168786086Y-116838389D01*
X168856568Y-116668229D01*
X168892500Y-116487589D01*
X168892500Y-116303411D01*
X168856568Y-116122771D01*
X168786086Y-115952611D01*
X168683762Y-115799472D01*
X168553528Y-115669238D01*
X168400389Y-115566914D01*
X168230229Y-115496432D01*
X168049589Y-115460500D01*
X167865411Y-115460500D01*
X167684771Y-115496432D01*
X167514611Y-115566914D01*
X167361472Y-115669238D01*
X167231238Y-115799472D01*
X167128914Y-115952611D01*
X167058432Y-116122771D01*
X167022500Y-116303411D01*
X167022500Y-116487589D01*
X167058432Y-116668229D01*
X167128914Y-116838389D01*
X167198145Y-116942000D01*
X131897965Y-116942000D01*
X131914036Y-116931262D01*
X132044270Y-116801028D01*
X132146594Y-116647889D01*
X132217076Y-116477729D01*
X132253008Y-116297089D01*
X132253008Y-116112911D01*
X132217076Y-115932271D01*
X132146594Y-115762111D01*
X132044270Y-115608972D01*
X131914036Y-115478738D01*
X131760897Y-115376414D01*
X131590737Y-115305932D01*
X131410097Y-115270000D01*
X131225919Y-115270000D01*
X131045279Y-115305932D01*
X130875119Y-115376414D01*
X130721980Y-115478738D01*
X130591746Y-115608972D01*
X130489422Y-115762111D01*
X130418940Y-115932271D01*
X130383008Y-116112911D01*
X130383008Y-116297089D01*
X130418940Y-116477729D01*
X130489422Y-116647889D01*
X130591746Y-116801028D01*
X130721980Y-116931262D01*
X130738051Y-116942000D01*
X123642957Y-116942000D01*
X123659028Y-116931262D01*
X123789262Y-116801028D01*
X123891586Y-116647889D01*
X123962068Y-116477729D01*
X123998000Y-116297089D01*
X123998000Y-116112911D01*
X123962068Y-115932271D01*
X123891586Y-115762111D01*
X123789262Y-115608972D01*
X123750290Y-115570000D01*
X123789262Y-115531028D01*
X123891586Y-115377889D01*
X123962068Y-115207729D01*
X123998000Y-115027089D01*
X123998000Y-114842911D01*
X123962068Y-114662271D01*
X123931682Y-114588911D01*
X138130000Y-114588911D01*
X138130000Y-114773089D01*
X138165932Y-114953729D01*
X138236414Y-115123889D01*
X138338738Y-115277028D01*
X138468972Y-115407262D01*
X138622111Y-115509586D01*
X138792271Y-115580068D01*
X138972911Y-115616000D01*
X139157089Y-115616000D01*
X139337729Y-115580068D01*
X139507889Y-115509586D01*
X139573000Y-115466080D01*
X139638111Y-115509586D01*
X139808271Y-115580068D01*
X139988911Y-115616000D01*
X140173089Y-115616000D01*
X140353729Y-115580068D01*
X140523889Y-115509586D01*
X140677028Y-115407262D01*
X140807262Y-115277028D01*
X140909586Y-115123889D01*
X140980068Y-114953729D01*
X141016000Y-114773089D01*
X141016000Y-114588911D01*
X140980068Y-114408271D01*
X140909586Y-114238111D01*
X140807262Y-114084972D01*
X140677028Y-113954738D01*
X140523889Y-113852414D01*
X140378036Y-113792000D01*
X140523889Y-113731586D01*
X140677028Y-113629262D01*
X140733379Y-113572911D01*
X147909000Y-113572911D01*
X147909000Y-113757089D01*
X147944932Y-113937729D01*
X148015414Y-114107889D01*
X148117738Y-114261028D01*
X148247972Y-114391262D01*
X148401111Y-114493586D01*
X148571271Y-114564068D01*
X148751911Y-114600000D01*
X148936089Y-114600000D01*
X149116729Y-114564068D01*
X149286889Y-114493586D01*
X149440028Y-114391262D01*
X149570262Y-114261028D01*
X149672586Y-114107889D01*
X149743068Y-113937729D01*
X149779000Y-113757089D01*
X149779000Y-113572911D01*
X149743068Y-113392271D01*
X149672586Y-113222111D01*
X149570262Y-113068972D01*
X149440028Y-112938738D01*
X149286889Y-112836414D01*
X149116729Y-112765932D01*
X148936089Y-112730000D01*
X148751911Y-112730000D01*
X148571271Y-112765932D01*
X148401111Y-112836414D01*
X148247972Y-112938738D01*
X148117738Y-113068972D01*
X148015414Y-113222111D01*
X147944932Y-113392271D01*
X147909000Y-113572911D01*
X140733379Y-113572911D01*
X140807262Y-113499028D01*
X140909586Y-113345889D01*
X140980068Y-113175729D01*
X141016000Y-112995089D01*
X141016000Y-112810911D01*
X140980068Y-112630271D01*
X140909586Y-112460111D01*
X140866080Y-112395000D01*
X140909586Y-112329889D01*
X140980068Y-112159729D01*
X141016000Y-111979089D01*
X141016000Y-111794911D01*
X140980068Y-111614271D01*
X140949682Y-111540911D01*
X149814000Y-111540911D01*
X149814000Y-111725089D01*
X149849932Y-111905729D01*
X149920414Y-112075889D01*
X150022738Y-112229028D01*
X150152972Y-112359262D01*
X150306111Y-112461586D01*
X150476271Y-112532068D01*
X150656911Y-112568000D01*
X150841089Y-112568000D01*
X151021729Y-112532068D01*
X151191889Y-112461586D01*
X151209526Y-112449801D01*
X162922500Y-112449801D01*
X162922500Y-112848199D01*
X163000224Y-113238941D01*
X163152684Y-113607013D01*
X163374022Y-113938269D01*
X163655731Y-114219978D01*
X163986987Y-114441316D01*
X164355059Y-114593776D01*
X164745801Y-114671500D01*
X165144199Y-114671500D01*
X165534941Y-114593776D01*
X165903013Y-114441316D01*
X166234269Y-114219978D01*
X166515978Y-113938269D01*
X166737316Y-113607013D01*
X166889776Y-113238941D01*
X166967500Y-112848199D01*
X166967500Y-112449801D01*
X166889776Y-112059059D01*
X166737316Y-111690987D01*
X166515978Y-111359731D01*
X166234269Y-111078022D01*
X165903013Y-110856684D01*
X165534941Y-110704224D01*
X165144199Y-110626500D01*
X164745801Y-110626500D01*
X164355059Y-110704224D01*
X163986987Y-110856684D01*
X163655731Y-111078022D01*
X163374022Y-111359731D01*
X163152684Y-111690987D01*
X163000224Y-112059059D01*
X162922500Y-112449801D01*
X151209526Y-112449801D01*
X151345028Y-112359262D01*
X151475262Y-112229028D01*
X151577586Y-112075889D01*
X151648068Y-111905729D01*
X151684000Y-111725089D01*
X151684000Y-111540911D01*
X151648068Y-111360271D01*
X151577586Y-111190111D01*
X151475262Y-111036972D01*
X151345028Y-110906738D01*
X151191889Y-110804414D01*
X151021729Y-110733932D01*
X150841089Y-110698000D01*
X150656911Y-110698000D01*
X150476271Y-110733932D01*
X150306111Y-110804414D01*
X150152972Y-110906738D01*
X150022738Y-111036972D01*
X149920414Y-111190111D01*
X149849932Y-111360271D01*
X149814000Y-111540911D01*
X140949682Y-111540911D01*
X140909586Y-111444111D01*
X140807262Y-111290972D01*
X140677028Y-111160738D01*
X140523889Y-111058414D01*
X140353729Y-110987932D01*
X140173089Y-110952000D01*
X139988911Y-110952000D01*
X139808271Y-110987932D01*
X139638111Y-111058414D01*
X139484972Y-111160738D01*
X139354738Y-111290972D01*
X139252414Y-111444111D01*
X139181932Y-111614271D01*
X139146000Y-111794911D01*
X139146000Y-111979089D01*
X139181932Y-112159729D01*
X139252414Y-112329889D01*
X139295920Y-112395000D01*
X139252414Y-112460111D01*
X139181932Y-112630271D01*
X139146000Y-112810911D01*
X139146000Y-112995089D01*
X139181932Y-113175729D01*
X139252414Y-113345889D01*
X139354738Y-113499028D01*
X139484972Y-113629262D01*
X139638111Y-113731586D01*
X139783964Y-113792000D01*
X139638111Y-113852414D01*
X139573000Y-113895920D01*
X139507889Y-113852414D01*
X139337729Y-113781932D01*
X139157089Y-113746000D01*
X138972911Y-113746000D01*
X138792271Y-113781932D01*
X138622111Y-113852414D01*
X138468972Y-113954738D01*
X138338738Y-114084972D01*
X138236414Y-114238111D01*
X138165932Y-114408271D01*
X138130000Y-114588911D01*
X123931682Y-114588911D01*
X123891586Y-114492111D01*
X123789262Y-114338972D01*
X123750290Y-114300000D01*
X123789262Y-114261028D01*
X123891586Y-114107889D01*
X123962068Y-113937729D01*
X123998000Y-113757089D01*
X123998000Y-113572911D01*
X123962068Y-113392271D01*
X123891586Y-113222111D01*
X123789262Y-113068972D01*
X123659028Y-112938738D01*
X123505889Y-112836414D01*
X123335729Y-112765932D01*
X123155089Y-112730000D01*
X122970911Y-112730000D01*
X122790271Y-112765932D01*
X122620111Y-112836414D01*
X122466972Y-112938738D01*
X122336738Y-113068972D01*
X122234414Y-113222111D01*
X122163932Y-113392271D01*
X122128000Y-113572911D01*
X122128000Y-113757089D01*
X122163932Y-113937729D01*
X122234414Y-114107889D01*
X122336738Y-114261028D01*
X122375710Y-114300000D01*
X122336738Y-114338972D01*
X122234414Y-114492111D01*
X122163932Y-114662271D01*
X122128000Y-114842911D01*
X122128000Y-115027089D01*
X122163932Y-115207729D01*
X122234414Y-115377889D01*
X122336738Y-115531028D01*
X122375710Y-115570000D01*
X122336738Y-115608972D01*
X122234414Y-115762111D01*
X122163932Y-115932271D01*
X122128000Y-116112911D01*
X122128000Y-116297089D01*
X122163932Y-116477729D01*
X122234414Y-116647889D01*
X122336738Y-116801028D01*
X122466972Y-116931262D01*
X122483043Y-116942000D01*
X112166000Y-116942000D01*
X112166000Y-112068344D01*
X114969000Y-112068344D01*
X114969000Y-112439656D01*
X115041439Y-112803834D01*
X115183534Y-113146882D01*
X115389825Y-113455618D01*
X115652382Y-113718175D01*
X115961118Y-113924466D01*
X116304166Y-114066561D01*
X116668344Y-114139000D01*
X117039656Y-114139000D01*
X117403834Y-114066561D01*
X117746882Y-113924466D01*
X118055618Y-113718175D01*
X118318175Y-113455618D01*
X118524466Y-113146882D01*
X118666561Y-112803834D01*
X118739000Y-112439656D01*
X118739000Y-112068344D01*
X118666561Y-111704166D01*
X118524466Y-111361118D01*
X118318175Y-111052382D01*
X118055618Y-110789825D01*
X117746882Y-110583534D01*
X117403834Y-110441439D01*
X117039656Y-110369000D01*
X116668344Y-110369000D01*
X116304166Y-110441439D01*
X115961118Y-110583534D01*
X115652382Y-110789825D01*
X115389825Y-111052382D01*
X115183534Y-111361118D01*
X115041439Y-111704166D01*
X114969000Y-112068344D01*
X112166000Y-112068344D01*
X112166000Y-109889911D01*
X137495000Y-109889911D01*
X137495000Y-110074089D01*
X137530932Y-110254729D01*
X137601414Y-110424889D01*
X137703738Y-110578028D01*
X137833972Y-110708262D01*
X137987111Y-110810586D01*
X138157271Y-110881068D01*
X138337911Y-110917000D01*
X138522089Y-110917000D01*
X138702729Y-110881068D01*
X138872889Y-110810586D01*
X139026028Y-110708262D01*
X139156262Y-110578028D01*
X139258586Y-110424889D01*
X139329068Y-110254729D01*
X139365000Y-110074089D01*
X139365000Y-109889911D01*
X139329068Y-109709271D01*
X139258586Y-109539111D01*
X139156262Y-109385972D01*
X139026028Y-109255738D01*
X138872889Y-109153414D01*
X138702729Y-109082932D01*
X138522089Y-109047000D01*
X138337911Y-109047000D01*
X138157271Y-109082932D01*
X137987111Y-109153414D01*
X137833972Y-109255738D01*
X137703738Y-109385972D01*
X137601414Y-109539111D01*
X137530932Y-109709271D01*
X137495000Y-109889911D01*
X112166000Y-109889911D01*
X112166000Y-107794411D01*
X135145500Y-107794411D01*
X135145500Y-107978589D01*
X135181432Y-108159229D01*
X135251914Y-108329389D01*
X135354238Y-108482528D01*
X135484472Y-108612762D01*
X135637611Y-108715086D01*
X135807771Y-108785568D01*
X135988411Y-108821500D01*
X136172589Y-108821500D01*
X136353229Y-108785568D01*
X136523389Y-108715086D01*
X136676528Y-108612762D01*
X136806762Y-108482528D01*
X136906000Y-108334008D01*
X137005238Y-108482528D01*
X137135472Y-108612762D01*
X137288611Y-108715086D01*
X137458771Y-108785568D01*
X137639411Y-108821500D01*
X137823589Y-108821500D01*
X138004229Y-108785568D01*
X138097556Y-108746911D01*
X142448000Y-108746911D01*
X142448000Y-108931089D01*
X142483932Y-109111729D01*
X142554414Y-109281889D01*
X142656738Y-109435028D01*
X142786972Y-109565262D01*
X142940111Y-109667586D01*
X143110271Y-109738068D01*
X143290911Y-109774000D01*
X143475089Y-109774000D01*
X143655729Y-109738068D01*
X143825889Y-109667586D01*
X143979028Y-109565262D01*
X144109262Y-109435028D01*
X144211586Y-109281889D01*
X144282068Y-109111729D01*
X144318000Y-108931089D01*
X144318000Y-108763879D01*
X144533426Y-108763879D01*
X144533426Y-108948057D01*
X144569358Y-109128697D01*
X144639840Y-109298857D01*
X144742164Y-109451996D01*
X144872398Y-109582230D01*
X145025537Y-109684554D01*
X145195697Y-109755036D01*
X145376337Y-109790968D01*
X145560515Y-109790968D01*
X145741155Y-109755036D01*
X145911315Y-109684554D01*
X146064454Y-109582230D01*
X146194688Y-109451996D01*
X146297012Y-109298857D01*
X146367494Y-109128697D01*
X146403426Y-108948057D01*
X146403426Y-108763879D01*
X146367494Y-108583239D01*
X146297012Y-108413079D01*
X146194688Y-108259940D01*
X146064454Y-108129706D01*
X145911315Y-108027382D01*
X145741155Y-107956900D01*
X145560515Y-107920968D01*
X145376337Y-107920968D01*
X145195697Y-107956900D01*
X145025537Y-108027382D01*
X144872398Y-108129706D01*
X144742164Y-108259940D01*
X144639840Y-108413079D01*
X144569358Y-108583239D01*
X144533426Y-108763879D01*
X144318000Y-108763879D01*
X144318000Y-108746911D01*
X144282068Y-108566271D01*
X144211586Y-108396111D01*
X144109262Y-108242972D01*
X143979028Y-108112738D01*
X143825889Y-108010414D01*
X143655729Y-107939932D01*
X143475089Y-107904000D01*
X143290911Y-107904000D01*
X143110271Y-107939932D01*
X142940111Y-108010414D01*
X142786972Y-108112738D01*
X142656738Y-108242972D01*
X142554414Y-108396111D01*
X142483932Y-108566271D01*
X142448000Y-108746911D01*
X138097556Y-108746911D01*
X138174389Y-108715086D01*
X138327528Y-108612762D01*
X138457762Y-108482528D01*
X138560086Y-108329389D01*
X138630568Y-108159229D01*
X138666500Y-107978589D01*
X138666500Y-107794411D01*
X138630568Y-107613771D01*
X138560086Y-107443611D01*
X138457762Y-107290472D01*
X138327528Y-107160238D01*
X138174389Y-107057914D01*
X138004229Y-106987432D01*
X137823589Y-106951500D01*
X137639411Y-106951500D01*
X137458771Y-106987432D01*
X137288611Y-107057914D01*
X137135472Y-107160238D01*
X137005238Y-107290472D01*
X136906000Y-107438992D01*
X136806762Y-107290472D01*
X136676528Y-107160238D01*
X136523389Y-107057914D01*
X136353229Y-106987432D01*
X136315866Y-106980000D01*
X136363089Y-106980000D01*
X136543729Y-106944068D01*
X136713889Y-106873586D01*
X136867028Y-106771262D01*
X136997262Y-106641028D01*
X137099586Y-106487889D01*
X137170068Y-106317729D01*
X137206000Y-106137089D01*
X137206000Y-105952911D01*
X137170068Y-105772271D01*
X137099586Y-105602111D01*
X136997262Y-105448972D01*
X136867028Y-105318738D01*
X136713889Y-105216414D01*
X136543729Y-105145932D01*
X136363089Y-105110000D01*
X136178911Y-105110000D01*
X135998271Y-105145932D01*
X135828111Y-105216414D01*
X135674972Y-105318738D01*
X135544738Y-105448972D01*
X135442414Y-105602111D01*
X135371932Y-105772271D01*
X135336000Y-105952911D01*
X135336000Y-106137089D01*
X135371932Y-106317729D01*
X135442414Y-106487889D01*
X135544738Y-106641028D01*
X135674972Y-106771262D01*
X135828111Y-106873586D01*
X135998271Y-106944068D01*
X136035634Y-106951500D01*
X135988411Y-106951500D01*
X135807771Y-106987432D01*
X135637611Y-107057914D01*
X135484472Y-107160238D01*
X135354238Y-107290472D01*
X135251914Y-107443611D01*
X135181432Y-107613771D01*
X135145500Y-107794411D01*
X112166000Y-107794411D01*
X112166000Y-106714911D01*
X131017982Y-106714911D01*
X131017982Y-106899089D01*
X131053914Y-107079729D01*
X131124396Y-107249889D01*
X131226720Y-107403028D01*
X131356954Y-107533262D01*
X131510093Y-107635586D01*
X131680253Y-107706068D01*
X131860893Y-107742000D01*
X132045071Y-107742000D01*
X132225711Y-107706068D01*
X132395871Y-107635586D01*
X132549010Y-107533262D01*
X132679244Y-107403028D01*
X132781568Y-107249889D01*
X132852050Y-107079729D01*
X132887982Y-106899089D01*
X132887982Y-106714911D01*
X132852050Y-106534271D01*
X132781568Y-106364111D01*
X132679244Y-106210972D01*
X132549010Y-106080738D01*
X132395871Y-105978414D01*
X132225711Y-105907932D01*
X132045071Y-105872000D01*
X131860893Y-105872000D01*
X131680253Y-105907932D01*
X131510093Y-105978414D01*
X131356954Y-106080738D01*
X131226720Y-106210972D01*
X131124396Y-106364111D01*
X131053914Y-106534271D01*
X131017982Y-106714911D01*
X112166000Y-106714911D01*
X112166000Y-105410854D01*
X112348022Y-105683269D01*
X112629731Y-105964978D01*
X112960987Y-106186316D01*
X113329059Y-106338776D01*
X113719801Y-106416500D01*
X114118199Y-106416500D01*
X114508941Y-106338776D01*
X114877013Y-106186316D01*
X115208269Y-105964978D01*
X115489978Y-105683269D01*
X115711316Y-105352013D01*
X115863776Y-104983941D01*
X115941500Y-104593199D01*
X115941500Y-104194801D01*
X117766500Y-104194801D01*
X117766500Y-104593199D01*
X117844224Y-104983941D01*
X117996684Y-105352013D01*
X118218022Y-105683269D01*
X118499731Y-105964978D01*
X118830987Y-106186316D01*
X119199059Y-106338776D01*
X119589801Y-106416500D01*
X119988199Y-106416500D01*
X120378941Y-106338776D01*
X120747013Y-106186316D01*
X121078269Y-105964978D01*
X121359978Y-105683269D01*
X121581316Y-105352013D01*
X121733776Y-104983941D01*
X121811500Y-104593199D01*
X121811500Y-104194801D01*
X121733776Y-103804059D01*
X121581316Y-103435987D01*
X121359978Y-103104731D01*
X121078269Y-102823022D01*
X120747013Y-102601684D01*
X120378941Y-102449224D01*
X119988199Y-102371500D01*
X119589801Y-102371500D01*
X119199059Y-102449224D01*
X118830987Y-102601684D01*
X118499731Y-102823022D01*
X118218022Y-103104731D01*
X117996684Y-103435987D01*
X117844224Y-103804059D01*
X117766500Y-104194801D01*
X115941500Y-104194801D01*
X115863776Y-103804059D01*
X115711316Y-103435987D01*
X115489978Y-103104731D01*
X115208269Y-102823022D01*
X114877013Y-102601684D01*
X114508941Y-102449224D01*
X114118199Y-102371500D01*
X113719801Y-102371500D01*
X113329059Y-102449224D01*
X112960987Y-102601684D01*
X112629731Y-102823022D01*
X112348022Y-103104731D01*
X112166000Y-103377146D01*
X112166000Y-101273344D01*
X114969000Y-101273344D01*
X114969000Y-101644656D01*
X115041439Y-102008834D01*
X115183534Y-102351882D01*
X115389825Y-102660618D01*
X115652382Y-102923175D01*
X115961118Y-103129466D01*
X116304166Y-103271561D01*
X116668344Y-103344000D01*
X117039656Y-103344000D01*
X117403834Y-103271561D01*
X117746882Y-103129466D01*
X118055618Y-102923175D01*
X118318175Y-102660618D01*
X118524466Y-102351882D01*
X118558419Y-102269911D01*
X128858998Y-102269911D01*
X128858998Y-102454089D01*
X128894930Y-102634729D01*
X128965412Y-102804889D01*
X129067736Y-102958028D01*
X129197970Y-103088262D01*
X129351109Y-103190586D01*
X129521269Y-103261068D01*
X129701909Y-103297000D01*
X129886087Y-103297000D01*
X130066727Y-103261068D01*
X130236887Y-103190586D01*
X130390026Y-103088262D01*
X130520260Y-102958028D01*
X130622584Y-102804889D01*
X130648000Y-102743528D01*
X130790787Y-102715126D01*
X130816499Y-102704476D01*
X130755223Y-102852410D01*
X130719291Y-103033050D01*
X130719291Y-103217228D01*
X130755223Y-103397868D01*
X130825705Y-103568028D01*
X130928029Y-103721167D01*
X131058263Y-103851401D01*
X131211402Y-103953725D01*
X131381562Y-104024207D01*
X131562202Y-104060139D01*
X131746380Y-104060139D01*
X131927020Y-104024207D01*
X132062807Y-103967963D01*
X132181542Y-104017144D01*
X132362182Y-104053076D01*
X132546360Y-104053076D01*
X132727000Y-104017144D01*
X132809141Y-103983120D01*
X132810520Y-103984042D01*
X132980680Y-104054524D01*
X133050000Y-104068313D01*
X133050000Y-104105095D01*
X133085932Y-104285735D01*
X133156414Y-104455895D01*
X133258738Y-104609034D01*
X133388972Y-104739268D01*
X133542111Y-104841592D01*
X133712271Y-104912074D01*
X133892911Y-104948006D01*
X134077089Y-104948006D01*
X134257729Y-104912074D01*
X134427889Y-104841592D01*
X134581028Y-104739268D01*
X134711262Y-104609034D01*
X134813586Y-104455895D01*
X134884068Y-104285735D01*
X134920000Y-104105095D01*
X134920000Y-103920917D01*
X134884068Y-103740277D01*
X134813586Y-103570117D01*
X134747452Y-103471140D01*
X134873591Y-103523388D01*
X135054231Y-103559320D01*
X135238409Y-103559320D01*
X135419049Y-103523388D01*
X135589209Y-103452906D01*
X135742348Y-103350582D01*
X135872582Y-103220348D01*
X135974906Y-103067209D01*
X136045388Y-102897049D01*
X136081320Y-102716409D01*
X136081320Y-102532231D01*
X136045388Y-102351591D01*
X135975603Y-102183113D01*
X135976609Y-102181607D01*
X136047091Y-102011447D01*
X136083023Y-101830807D01*
X136083023Y-101646629D01*
X136047091Y-101465989D01*
X135976609Y-101295829D01*
X135948233Y-101253361D01*
X137367450Y-101253361D01*
X137367450Y-101437539D01*
X137403382Y-101618179D01*
X137473864Y-101788339D01*
X137576188Y-101941478D01*
X137706422Y-102071712D01*
X137859561Y-102174036D01*
X138029721Y-102244518D01*
X138131054Y-102264675D01*
X138130012Y-102269911D01*
X138130012Y-102454089D01*
X138165944Y-102634729D01*
X138236426Y-102804889D01*
X138338750Y-102958028D01*
X138468984Y-103088262D01*
X138622123Y-103190586D01*
X138792283Y-103261068D01*
X138845234Y-103271601D01*
X138749111Y-103311416D01*
X138595972Y-103413740D01*
X138465738Y-103543974D01*
X138363414Y-103697113D01*
X138292932Y-103867273D01*
X138257000Y-104047913D01*
X138257000Y-104232091D01*
X138292932Y-104412731D01*
X138363414Y-104582891D01*
X138465738Y-104736030D01*
X138595972Y-104866264D01*
X138605418Y-104872575D01*
X138522089Y-104856000D01*
X138337911Y-104856000D01*
X138157271Y-104891932D01*
X137987111Y-104962414D01*
X137833972Y-105064738D01*
X137703738Y-105194972D01*
X137601414Y-105348111D01*
X137530932Y-105518271D01*
X137495000Y-105698911D01*
X137495000Y-105883089D01*
X137530932Y-106063729D01*
X137601414Y-106233889D01*
X137703738Y-106387028D01*
X137833972Y-106517262D01*
X137987111Y-106619586D01*
X138157271Y-106690068D01*
X138337911Y-106726000D01*
X138522089Y-106726000D01*
X138702729Y-106690068D01*
X138872889Y-106619586D01*
X138920294Y-106587911D01*
X147528000Y-106587911D01*
X147528000Y-106772089D01*
X147563932Y-106952729D01*
X147634414Y-107122889D01*
X147736738Y-107276028D01*
X147866972Y-107406262D01*
X148020111Y-107508586D01*
X148190271Y-107579068D01*
X148370911Y-107615000D01*
X148555089Y-107615000D01*
X148735729Y-107579068D01*
X148905889Y-107508586D01*
X149059028Y-107406262D01*
X149189262Y-107276028D01*
X149291586Y-107122889D01*
X149362068Y-106952729D01*
X149398000Y-106772089D01*
X149398000Y-106587911D01*
X149362068Y-106407271D01*
X149291586Y-106237111D01*
X149189262Y-106083972D01*
X149059028Y-105953738D01*
X148905889Y-105851414D01*
X148735729Y-105780932D01*
X148555089Y-105745000D01*
X148370911Y-105745000D01*
X148190271Y-105780932D01*
X148020111Y-105851414D01*
X147866972Y-105953738D01*
X147736738Y-106083972D01*
X147634414Y-106237111D01*
X147563932Y-106407271D01*
X147528000Y-106587911D01*
X138920294Y-106587911D01*
X139026028Y-106517262D01*
X139156262Y-106387028D01*
X139258586Y-106233889D01*
X139329068Y-106063729D01*
X139365000Y-105883089D01*
X139365000Y-105698911D01*
X139329068Y-105518271D01*
X139258586Y-105348111D01*
X139156262Y-105194972D01*
X139026028Y-105064738D01*
X139016582Y-105058427D01*
X139099911Y-105075002D01*
X139284089Y-105075002D01*
X139412486Y-105049462D01*
X139454611Y-105112507D01*
X139584845Y-105242741D01*
X139737984Y-105345065D01*
X139908144Y-105415547D01*
X140088784Y-105451479D01*
X140162000Y-105451479D01*
X140162000Y-105629089D01*
X140197932Y-105809729D01*
X140268414Y-105979889D01*
X140370738Y-106133028D01*
X140500972Y-106263262D01*
X140654111Y-106365586D01*
X140824271Y-106436068D01*
X141004911Y-106472000D01*
X141189089Y-106472000D01*
X141369729Y-106436068D01*
X141539889Y-106365586D01*
X141693028Y-106263262D01*
X141823262Y-106133028D01*
X141925586Y-105979889D01*
X141996068Y-105809729D01*
X142016642Y-105706297D01*
X156366000Y-105706297D01*
X156366000Y-105875703D01*
X156399049Y-106041853D01*
X156426655Y-106108500D01*
X156399049Y-106175147D01*
X156366000Y-106341297D01*
X156366000Y-106510703D01*
X156399049Y-106676853D01*
X156426655Y-106743500D01*
X156399049Y-106810147D01*
X156366000Y-106976297D01*
X156366000Y-107145703D01*
X156399049Y-107311853D01*
X156426655Y-107378500D01*
X156399049Y-107445147D01*
X156366000Y-107611297D01*
X156366000Y-107780703D01*
X156399049Y-107946853D01*
X156426655Y-108013500D01*
X156399049Y-108080147D01*
X156366000Y-108246297D01*
X156366000Y-108415703D01*
X156399049Y-108581853D01*
X156426655Y-108648500D01*
X156399049Y-108715147D01*
X156366000Y-108881297D01*
X156366000Y-109050703D01*
X156399049Y-109216853D01*
X156426655Y-109283500D01*
X156399049Y-109350147D01*
X156366000Y-109516297D01*
X156366000Y-109685703D01*
X156399049Y-109851853D01*
X156463878Y-110008363D01*
X156557995Y-110149218D01*
X156677782Y-110269005D01*
X156818637Y-110363122D01*
X156975147Y-110427951D01*
X157141297Y-110461000D01*
X157310703Y-110461000D01*
X157476853Y-110427951D01*
X157543500Y-110400345D01*
X157610147Y-110427951D01*
X157776297Y-110461000D01*
X157945703Y-110461000D01*
X158111853Y-110427951D01*
X158178500Y-110400345D01*
X158245147Y-110427951D01*
X158411297Y-110461000D01*
X158580703Y-110461000D01*
X158746853Y-110427951D01*
X158813500Y-110400345D01*
X158880147Y-110427951D01*
X159046297Y-110461000D01*
X159215703Y-110461000D01*
X159381853Y-110427951D01*
X159448500Y-110400345D01*
X159515147Y-110427951D01*
X159681297Y-110461000D01*
X159850703Y-110461000D01*
X160016853Y-110427951D01*
X160083500Y-110400345D01*
X160150147Y-110427951D01*
X160316297Y-110461000D01*
X160485703Y-110461000D01*
X160651853Y-110427951D01*
X160808363Y-110363122D01*
X160949218Y-110269005D01*
X161069005Y-110149218D01*
X161163122Y-110008363D01*
X161227951Y-109851853D01*
X161261000Y-109685703D01*
X161261000Y-109528344D01*
X165995000Y-109528344D01*
X165995000Y-109899656D01*
X166067439Y-110263834D01*
X166209534Y-110606882D01*
X166415825Y-110915618D01*
X166678382Y-111178175D01*
X166987118Y-111384466D01*
X167330166Y-111526561D01*
X167694344Y-111599000D01*
X168065656Y-111599000D01*
X168429834Y-111526561D01*
X168772882Y-111384466D01*
X169081618Y-111178175D01*
X169344175Y-110915618D01*
X169550466Y-110606882D01*
X169692561Y-110263834D01*
X169765000Y-109899656D01*
X169765000Y-109528344D01*
X169692561Y-109164166D01*
X169550466Y-108821118D01*
X169344175Y-108512382D01*
X169081618Y-108249825D01*
X168772882Y-108043534D01*
X168429834Y-107901439D01*
X168065656Y-107829000D01*
X167694344Y-107829000D01*
X167330166Y-107901439D01*
X166987118Y-108043534D01*
X166678382Y-108249825D01*
X166415825Y-108512382D01*
X166209534Y-108821118D01*
X166067439Y-109164166D01*
X165995000Y-109528344D01*
X161261000Y-109528344D01*
X161261000Y-109516297D01*
X161227951Y-109350147D01*
X161200345Y-109283500D01*
X161227951Y-109216853D01*
X161261000Y-109050703D01*
X161261000Y-108881297D01*
X161227951Y-108715147D01*
X161200345Y-108648500D01*
X161227951Y-108581853D01*
X161261000Y-108415703D01*
X161261000Y-108246297D01*
X161227951Y-108080147D01*
X161200345Y-108013500D01*
X161227951Y-107946853D01*
X161261000Y-107780703D01*
X161261000Y-107611297D01*
X161227951Y-107445147D01*
X161200345Y-107378500D01*
X161227951Y-107311853D01*
X161261000Y-107145703D01*
X161261000Y-106976297D01*
X161227951Y-106810147D01*
X161200345Y-106743500D01*
X161227951Y-106676853D01*
X161247255Y-106579801D01*
X162922500Y-106579801D01*
X162922500Y-106978199D01*
X163000224Y-107368941D01*
X163152684Y-107737013D01*
X163374022Y-108068269D01*
X163655731Y-108349978D01*
X163986987Y-108571316D01*
X164355059Y-108723776D01*
X164745801Y-108801500D01*
X165144199Y-108801500D01*
X165534941Y-108723776D01*
X165903013Y-108571316D01*
X166234269Y-108349978D01*
X166515978Y-108068269D01*
X166737316Y-107737013D01*
X166889776Y-107368941D01*
X166967500Y-106978199D01*
X166967500Y-106579801D01*
X166889776Y-106189059D01*
X166737316Y-105820987D01*
X166515978Y-105489731D01*
X166234269Y-105208022D01*
X165903013Y-104986684D01*
X165534941Y-104834224D01*
X165144199Y-104756500D01*
X164745801Y-104756500D01*
X164355059Y-104834224D01*
X163986987Y-104986684D01*
X163655731Y-105208022D01*
X163374022Y-105489731D01*
X163152684Y-105820987D01*
X163000224Y-106189059D01*
X162922500Y-106579801D01*
X161247255Y-106579801D01*
X161261000Y-106510703D01*
X161261000Y-106341297D01*
X161227951Y-106175147D01*
X161200345Y-106108500D01*
X161227951Y-106041853D01*
X161261000Y-105875703D01*
X161261000Y-105706297D01*
X161227951Y-105540147D01*
X161163122Y-105383637D01*
X161069005Y-105242782D01*
X160949218Y-105122995D01*
X160808363Y-105028878D01*
X160651853Y-104964049D01*
X160485703Y-104931000D01*
X160316297Y-104931000D01*
X160150147Y-104964049D01*
X160083500Y-104991655D01*
X160016853Y-104964049D01*
X159850703Y-104931000D01*
X159681297Y-104931000D01*
X159515147Y-104964049D01*
X159448500Y-104991655D01*
X159381853Y-104964049D01*
X159215703Y-104931000D01*
X159046297Y-104931000D01*
X158880147Y-104964049D01*
X158813500Y-104991655D01*
X158746853Y-104964049D01*
X158580703Y-104931000D01*
X158411297Y-104931000D01*
X158245147Y-104964049D01*
X158178500Y-104991655D01*
X158111853Y-104964049D01*
X157945703Y-104931000D01*
X157776297Y-104931000D01*
X157610147Y-104964049D01*
X157543500Y-104991655D01*
X157476853Y-104964049D01*
X157310703Y-104931000D01*
X157141297Y-104931000D01*
X156975147Y-104964049D01*
X156818637Y-105028878D01*
X156677782Y-105122995D01*
X156557995Y-105242782D01*
X156463878Y-105383637D01*
X156399049Y-105540147D01*
X156366000Y-105706297D01*
X142016642Y-105706297D01*
X142032000Y-105629089D01*
X142032000Y-105444911D01*
X141996068Y-105264271D01*
X141925586Y-105094111D01*
X141924510Y-105092501D01*
X141925586Y-105090891D01*
X141996068Y-104920731D01*
X142032000Y-104740091D01*
X142032000Y-104555913D01*
X141996068Y-104375273D01*
X141961601Y-104292061D01*
X161144000Y-104292061D01*
X161144000Y-104495939D01*
X161183774Y-104695898D01*
X161261795Y-104884256D01*
X161375063Y-105053774D01*
X161519226Y-105197937D01*
X161688744Y-105311205D01*
X161877102Y-105389226D01*
X162077061Y-105429000D01*
X162280939Y-105429000D01*
X162480898Y-105389226D01*
X162669256Y-105311205D01*
X162838774Y-105197937D01*
X162982937Y-105053774D01*
X163096205Y-104884256D01*
X163174226Y-104695898D01*
X163214000Y-104495939D01*
X163214000Y-104292061D01*
X163174226Y-104092102D01*
X163096205Y-103903744D01*
X162982937Y-103734226D01*
X162838774Y-103590063D01*
X162669256Y-103476795D01*
X162480898Y-103398774D01*
X162280939Y-103359000D01*
X162077061Y-103359000D01*
X161877102Y-103398774D01*
X161688744Y-103476795D01*
X161519226Y-103590063D01*
X161375063Y-103734226D01*
X161261795Y-103903744D01*
X161183774Y-104092102D01*
X161144000Y-104292061D01*
X141961601Y-104292061D01*
X141938599Y-104236529D01*
X142010887Y-104206586D01*
X142164026Y-104104262D01*
X142294260Y-103974028D01*
X142396584Y-103820889D01*
X142467066Y-103650729D01*
X142502998Y-103470089D01*
X142502998Y-103349413D01*
X167022500Y-103349413D01*
X167022500Y-103533591D01*
X167058432Y-103714231D01*
X167128914Y-103884391D01*
X167231238Y-104037530D01*
X167361472Y-104167764D01*
X167514611Y-104270088D01*
X167684771Y-104340570D01*
X167865411Y-104376502D01*
X168049589Y-104376502D01*
X168230229Y-104340570D01*
X168400389Y-104270088D01*
X168553528Y-104167764D01*
X168683762Y-104037530D01*
X168786086Y-103884391D01*
X168856568Y-103714231D01*
X168892500Y-103533591D01*
X168892500Y-103349413D01*
X168856568Y-103168773D01*
X168786086Y-102998613D01*
X168683762Y-102845474D01*
X168553528Y-102715240D01*
X168400389Y-102612916D01*
X168230229Y-102542434D01*
X168049589Y-102506502D01*
X167865411Y-102506502D01*
X167684771Y-102542434D01*
X167514611Y-102612916D01*
X167361472Y-102715240D01*
X167231238Y-102845474D01*
X167128914Y-102998613D01*
X167058432Y-103168773D01*
X167022500Y-103349413D01*
X142502998Y-103349413D01*
X142502998Y-103285911D01*
X142467066Y-103105271D01*
X142396584Y-102935111D01*
X142353078Y-102870000D01*
X142396584Y-102804889D01*
X142467066Y-102634729D01*
X142502998Y-102454089D01*
X142502998Y-102269911D01*
X142467066Y-102089271D01*
X142396584Y-101919111D01*
X142353078Y-101854000D01*
X142396584Y-101788889D01*
X142467066Y-101618729D01*
X142502998Y-101438089D01*
X142502998Y-101253911D01*
X142467066Y-101073271D01*
X142441315Y-101011102D01*
X150021929Y-101011102D01*
X150021929Y-101195280D01*
X150057861Y-101375920D01*
X150128343Y-101546080D01*
X150230667Y-101699219D01*
X150360901Y-101829453D01*
X150514040Y-101931777D01*
X150684200Y-102002259D01*
X150864840Y-102038191D01*
X151049018Y-102038191D01*
X151229658Y-102002259D01*
X151399818Y-101931777D01*
X151552957Y-101829453D01*
X151683191Y-101699219D01*
X151785515Y-101546080D01*
X151855997Y-101375920D01*
X151891929Y-101195280D01*
X151891929Y-101011102D01*
X151855997Y-100830462D01*
X151785515Y-100660302D01*
X151683191Y-100507163D01*
X151552957Y-100376929D01*
X151399818Y-100274605D01*
X151229658Y-100204123D01*
X151049018Y-100168191D01*
X150864840Y-100168191D01*
X150684200Y-100204123D01*
X150514040Y-100274605D01*
X150360901Y-100376929D01*
X150230667Y-100507163D01*
X150128343Y-100660302D01*
X150057861Y-100830462D01*
X150021929Y-101011102D01*
X142441315Y-101011102D01*
X142396584Y-100903111D01*
X142395508Y-100901500D01*
X142396584Y-100899889D01*
X142467066Y-100729729D01*
X142502998Y-100549089D01*
X142502998Y-100364911D01*
X142467066Y-100184271D01*
X142396584Y-100014111D01*
X142294260Y-99860972D01*
X142243482Y-99810194D01*
X142294260Y-99759416D01*
X142396584Y-99606277D01*
X142467066Y-99436117D01*
X142480456Y-99368801D01*
X162922500Y-99368801D01*
X162922500Y-99767199D01*
X163000224Y-100157941D01*
X163152684Y-100526013D01*
X163374022Y-100857269D01*
X163655731Y-101138978D01*
X163986987Y-101360316D01*
X164355059Y-101512776D01*
X164745801Y-101590500D01*
X165144199Y-101590500D01*
X165534941Y-101512776D01*
X165903013Y-101360316D01*
X166234269Y-101138978D01*
X166515978Y-100857269D01*
X166737316Y-100526013D01*
X166889776Y-100157941D01*
X166967500Y-99767199D01*
X166967500Y-99368801D01*
X166889776Y-98978059D01*
X166737316Y-98609987D01*
X166515978Y-98278731D01*
X166234269Y-97997022D01*
X165903013Y-97775684D01*
X165534941Y-97623224D01*
X165144199Y-97545500D01*
X164745801Y-97545500D01*
X164355059Y-97623224D01*
X163986987Y-97775684D01*
X163655731Y-97997022D01*
X163374022Y-98278731D01*
X163152684Y-98609987D01*
X163000224Y-98978059D01*
X162922500Y-99368801D01*
X142480456Y-99368801D01*
X142502998Y-99255477D01*
X142502998Y-99071299D01*
X142467066Y-98890659D01*
X142396584Y-98720499D01*
X142294260Y-98567360D01*
X142164026Y-98437126D01*
X142010887Y-98334802D01*
X141840727Y-98264320D01*
X141660087Y-98228388D01*
X141475909Y-98228388D01*
X141295269Y-98264320D01*
X141125109Y-98334802D01*
X140971970Y-98437126D01*
X140841736Y-98567360D01*
X140739412Y-98720499D01*
X140668930Y-98890659D01*
X140632998Y-99071299D01*
X140632998Y-99255477D01*
X140668930Y-99436117D01*
X140739412Y-99606277D01*
X140841736Y-99759416D01*
X140892514Y-99810194D01*
X140841736Y-99860972D01*
X140739412Y-100014111D01*
X140668930Y-100184271D01*
X140632998Y-100364911D01*
X140632998Y-100549089D01*
X140668930Y-100729729D01*
X140739412Y-100899889D01*
X140740488Y-100901500D01*
X140739412Y-100903111D01*
X140668930Y-101073271D01*
X140632998Y-101253911D01*
X140632998Y-101438089D01*
X140668930Y-101618729D01*
X140739412Y-101788889D01*
X140782918Y-101854000D01*
X140739412Y-101919111D01*
X140668930Y-102089271D01*
X140632998Y-102269911D01*
X140632998Y-102454089D01*
X140668930Y-102634729D01*
X140739412Y-102804889D01*
X140782918Y-102870000D01*
X140739412Y-102935111D01*
X140668930Y-103105271D01*
X140632998Y-103285911D01*
X140632998Y-103470089D01*
X140668930Y-103650729D01*
X140707499Y-103743844D01*
X140623762Y-103687893D01*
X140453602Y-103617411D01*
X140272962Y-103581479D01*
X140088784Y-103581479D01*
X139960387Y-103607019D01*
X139918262Y-103543974D01*
X139788028Y-103413740D01*
X139634889Y-103311416D01*
X139464729Y-103240934D01*
X139411778Y-103230401D01*
X139507901Y-103190586D01*
X139661040Y-103088262D01*
X139791274Y-102958028D01*
X139893598Y-102804889D01*
X139964080Y-102634729D01*
X140000012Y-102454089D01*
X140000012Y-102269911D01*
X139964080Y-102089271D01*
X139893598Y-101919111D01*
X139791274Y-101765972D01*
X139661040Y-101635738D01*
X139507901Y-101533414D01*
X139337741Y-101462932D01*
X139236408Y-101442775D01*
X139237450Y-101437539D01*
X139237450Y-101253361D01*
X139201518Y-101072721D01*
X139131036Y-100902561D01*
X139118634Y-100884000D01*
X139157089Y-100884000D01*
X139337729Y-100848068D01*
X139507889Y-100777586D01*
X139661028Y-100675262D01*
X139791262Y-100545028D01*
X139893586Y-100391889D01*
X139964068Y-100221729D01*
X140000000Y-100041089D01*
X140000000Y-99856911D01*
X139964068Y-99676271D01*
X139893586Y-99506111D01*
X139791262Y-99352972D01*
X139661028Y-99222738D01*
X139507889Y-99120414D01*
X139337729Y-99049932D01*
X139157089Y-99014000D01*
X138972911Y-99014000D01*
X138792271Y-99049932D01*
X138622111Y-99120414D01*
X138468972Y-99222738D01*
X138338738Y-99352972D01*
X138236414Y-99506111D01*
X138165932Y-99676271D01*
X138130000Y-99856911D01*
X138130000Y-100041089D01*
X138165932Y-100221729D01*
X138236414Y-100391889D01*
X138248816Y-100410450D01*
X138210361Y-100410450D01*
X138029721Y-100446382D01*
X137859561Y-100516864D01*
X137706422Y-100619188D01*
X137576188Y-100749422D01*
X137473864Y-100902561D01*
X137403382Y-101072721D01*
X137367450Y-101253361D01*
X135948233Y-101253361D01*
X135874285Y-101142690D01*
X135744051Y-101012456D01*
X135590912Y-100910132D01*
X135420752Y-100839650D01*
X135341363Y-100823858D01*
X135321586Y-100776111D01*
X135219262Y-100622972D01*
X135089028Y-100492738D01*
X134935889Y-100390414D01*
X134780409Y-100326013D01*
X134777477Y-100311271D01*
X134706995Y-100141111D01*
X134604671Y-99987972D01*
X134474437Y-99857738D01*
X134321298Y-99755414D01*
X134151138Y-99684932D01*
X133970498Y-99649000D01*
X133786320Y-99649000D01*
X133605680Y-99684932D01*
X133435520Y-99755414D01*
X133282381Y-99857738D01*
X133152147Y-99987972D01*
X133049823Y-100141111D01*
X132979341Y-100311271D01*
X132943409Y-100491911D01*
X132943409Y-100676089D01*
X132979341Y-100856729D01*
X133049823Y-101026889D01*
X133152147Y-101180028D01*
X133282381Y-101310262D01*
X133435520Y-101412586D01*
X133591000Y-101476987D01*
X133593932Y-101491729D01*
X133664414Y-101661889D01*
X133766738Y-101815028D01*
X133896972Y-101945262D01*
X134050111Y-102047586D01*
X134220271Y-102118068D01*
X134299660Y-102133860D01*
X134318740Y-102179925D01*
X134317734Y-102181431D01*
X134247252Y-102351591D01*
X134211320Y-102532231D01*
X134211320Y-102716409D01*
X134247252Y-102897049D01*
X134317734Y-103067209D01*
X134383868Y-103166186D01*
X134257729Y-103113938D01*
X134188409Y-103100149D01*
X134188409Y-103063367D01*
X134152477Y-102882727D01*
X134081995Y-102712567D01*
X133979671Y-102559428D01*
X133849437Y-102429194D01*
X133696298Y-102326870D01*
X133526138Y-102256388D01*
X133345498Y-102220456D01*
X133161320Y-102220456D01*
X132980680Y-102256388D01*
X132898539Y-102290412D01*
X132897160Y-102289490D01*
X132727000Y-102219008D01*
X132546360Y-102183076D01*
X132362182Y-102183076D01*
X132181542Y-102219008D01*
X132045755Y-102275252D01*
X131927020Y-102226071D01*
X131746380Y-102190139D01*
X131562202Y-102190139D01*
X131381562Y-102226071D01*
X131355850Y-102236721D01*
X131417126Y-102088787D01*
X131453058Y-101908147D01*
X131453058Y-101723969D01*
X131417126Y-101543329D01*
X131346644Y-101373169D01*
X131244320Y-101220030D01*
X131114086Y-101089796D01*
X130960947Y-100987472D01*
X130790787Y-100916990D01*
X130610147Y-100881058D01*
X130522992Y-100881058D01*
X130520262Y-100876972D01*
X130390028Y-100746738D01*
X130236889Y-100644414D01*
X130066729Y-100573932D01*
X129886089Y-100538000D01*
X129701911Y-100538000D01*
X129521271Y-100573932D01*
X129351111Y-100644414D01*
X129197972Y-100746738D01*
X129067738Y-100876972D01*
X128965414Y-101030111D01*
X128894932Y-101200271D01*
X128859000Y-101380911D01*
X128859000Y-101565089D01*
X128894932Y-101745729D01*
X128965414Y-101915889D01*
X128966489Y-101917499D01*
X128965412Y-101919111D01*
X128894930Y-102089271D01*
X128858998Y-102269911D01*
X118558419Y-102269911D01*
X118666561Y-102008834D01*
X118739000Y-101644656D01*
X118739000Y-101273344D01*
X118666561Y-100909166D01*
X118524466Y-100566118D01*
X118318175Y-100257382D01*
X118055618Y-99994825D01*
X117746882Y-99788534D01*
X117403834Y-99646439D01*
X117039656Y-99574000D01*
X116668344Y-99574000D01*
X116304166Y-99646439D01*
X115961118Y-99788534D01*
X115652382Y-99994825D01*
X115389825Y-100257382D01*
X115183534Y-100566118D01*
X115041439Y-100909166D01*
X114969000Y-101273344D01*
X112166000Y-101273344D01*
X112166000Y-99540854D01*
X112348022Y-99813269D01*
X112629731Y-100094978D01*
X112960987Y-100316316D01*
X113329059Y-100468776D01*
X113719801Y-100546500D01*
X114118199Y-100546500D01*
X114508941Y-100468776D01*
X114877013Y-100316316D01*
X115208269Y-100094978D01*
X115489978Y-99813269D01*
X115711316Y-99482013D01*
X115863776Y-99113941D01*
X115941500Y-98723199D01*
X115941500Y-98324801D01*
X117766500Y-98324801D01*
X117766500Y-98723199D01*
X117844224Y-99113941D01*
X117996684Y-99482013D01*
X118218022Y-99813269D01*
X118499731Y-100094978D01*
X118830987Y-100316316D01*
X119199059Y-100468776D01*
X119589801Y-100546500D01*
X119988199Y-100546500D01*
X120378941Y-100468776D01*
X120747013Y-100316316D01*
X121078269Y-100094978D01*
X121359978Y-99813269D01*
X121581316Y-99482013D01*
X121733776Y-99113941D01*
X121811500Y-98723199D01*
X121811500Y-98713911D01*
X128986000Y-98713911D01*
X128986000Y-98898089D01*
X129021932Y-99078729D01*
X129092414Y-99248889D01*
X129194738Y-99402028D01*
X129324972Y-99532262D01*
X129478111Y-99634586D01*
X129648271Y-99705068D01*
X129828911Y-99741000D01*
X130013089Y-99741000D01*
X130193729Y-99705068D01*
X130363889Y-99634586D01*
X130517028Y-99532262D01*
X130647262Y-99402028D01*
X130749586Y-99248889D01*
X130820068Y-99078729D01*
X130856000Y-98898089D01*
X130856000Y-98713911D01*
X130820068Y-98533271D01*
X130749586Y-98363111D01*
X130647262Y-98209972D01*
X130517028Y-98079738D01*
X130377266Y-97986352D01*
X134793553Y-97986352D01*
X134793553Y-98170530D01*
X134829485Y-98351170D01*
X134899967Y-98521330D01*
X135002291Y-98674469D01*
X135132525Y-98804703D01*
X135285664Y-98907027D01*
X135455824Y-98977509D01*
X135636464Y-99013441D01*
X135820642Y-99013441D01*
X136001282Y-98977509D01*
X136171442Y-98907027D01*
X136324581Y-98804703D01*
X136454815Y-98674469D01*
X136557139Y-98521330D01*
X136627621Y-98351170D01*
X136663553Y-98170530D01*
X136663553Y-97986352D01*
X136627621Y-97805712D01*
X136557139Y-97635552D01*
X136454815Y-97482413D01*
X136324581Y-97352179D01*
X136171442Y-97249855D01*
X136001282Y-97179373D01*
X135820642Y-97143441D01*
X135636464Y-97143441D01*
X135455824Y-97179373D01*
X135285664Y-97249855D01*
X135132525Y-97352179D01*
X135002291Y-97482413D01*
X134899967Y-97635552D01*
X134829485Y-97805712D01*
X134793553Y-97986352D01*
X130377266Y-97986352D01*
X130363889Y-97977414D01*
X130193729Y-97906932D01*
X130013089Y-97871000D01*
X129828911Y-97871000D01*
X129648271Y-97906932D01*
X129478111Y-97977414D01*
X129324972Y-98079738D01*
X129194738Y-98209972D01*
X129092414Y-98363111D01*
X129021932Y-98533271D01*
X128986000Y-98713911D01*
X121811500Y-98713911D01*
X121811500Y-98324801D01*
X121733776Y-97934059D01*
X121581316Y-97565987D01*
X121359978Y-97234731D01*
X121078269Y-96953022D01*
X120747013Y-96731684D01*
X120378941Y-96579224D01*
X119988199Y-96501500D01*
X119589801Y-96501500D01*
X119199059Y-96579224D01*
X118830987Y-96731684D01*
X118499731Y-96953022D01*
X118218022Y-97234731D01*
X117996684Y-97565987D01*
X117844224Y-97934059D01*
X117766500Y-98324801D01*
X115941500Y-98324801D01*
X115863776Y-97934059D01*
X115711316Y-97565987D01*
X115489978Y-97234731D01*
X115208269Y-96953022D01*
X114877013Y-96731684D01*
X114508941Y-96579224D01*
X114118199Y-96501500D01*
X113719801Y-96501500D01*
X113329059Y-96579224D01*
X112960987Y-96731684D01*
X112629731Y-96953022D01*
X112348022Y-97234731D01*
X112166000Y-97507146D01*
X112166000Y-94141911D01*
X126954000Y-94141911D01*
X126954000Y-94326089D01*
X126989932Y-94506729D01*
X127060414Y-94676889D01*
X127162738Y-94830028D01*
X127292972Y-94960262D01*
X127446111Y-95062586D01*
X127616271Y-95133068D01*
X127796911Y-95169000D01*
X127981089Y-95169000D01*
X128161729Y-95133068D01*
X128331889Y-95062586D01*
X128485028Y-94960262D01*
X128615262Y-94830028D01*
X128717586Y-94676889D01*
X128788068Y-94506729D01*
X128824000Y-94326089D01*
X128824000Y-94141911D01*
X130510000Y-94141911D01*
X130510000Y-94326089D01*
X130545932Y-94506729D01*
X130616414Y-94676889D01*
X130718738Y-94830028D01*
X130848972Y-94960262D01*
X131002111Y-95062586D01*
X131172271Y-95133068D01*
X131352911Y-95169000D01*
X131537089Y-95169000D01*
X131717729Y-95133068D01*
X131887889Y-95062586D01*
X132041028Y-94960262D01*
X132171262Y-94830028D01*
X132273586Y-94676889D01*
X132341503Y-94512921D01*
X132980211Y-94512921D01*
X132980211Y-94697099D01*
X133016143Y-94877739D01*
X133086625Y-95047899D01*
X133188949Y-95201038D01*
X133319183Y-95331272D01*
X133472322Y-95433596D01*
X133642482Y-95504078D01*
X133823122Y-95540010D01*
X134007300Y-95540010D01*
X134187940Y-95504078D01*
X134358100Y-95433596D01*
X134511239Y-95331272D01*
X134594807Y-95247704D01*
X134610729Y-95327750D01*
X134681211Y-95497910D01*
X134783535Y-95651049D01*
X134913769Y-95781283D01*
X135066908Y-95883607D01*
X135237068Y-95954089D01*
X135417708Y-95990021D01*
X135463000Y-95990021D01*
X135463000Y-96104089D01*
X135498932Y-96284729D01*
X135569414Y-96454889D01*
X135671738Y-96608028D01*
X135801972Y-96738262D01*
X135955111Y-96840586D01*
X136125271Y-96911068D01*
X136305911Y-96947000D01*
X136490089Y-96947000D01*
X136670729Y-96911068D01*
X136840889Y-96840586D01*
X136994028Y-96738262D01*
X137124262Y-96608028D01*
X137158146Y-96557316D01*
X139161017Y-96557316D01*
X139161017Y-96741494D01*
X139196949Y-96922134D01*
X139267431Y-97092294D01*
X139369755Y-97245433D01*
X139499989Y-97375667D01*
X139653128Y-97477991D01*
X139823288Y-97548473D01*
X139870863Y-97557936D01*
X139887412Y-97597889D01*
X139989736Y-97751028D01*
X140119970Y-97881262D01*
X140273109Y-97983586D01*
X140443269Y-98054068D01*
X140623909Y-98090000D01*
X140808087Y-98090000D01*
X140988727Y-98054068D01*
X141158887Y-97983586D01*
X141312026Y-97881262D01*
X141442260Y-97751028D01*
X141544584Y-97597889D01*
X141615066Y-97427729D01*
X141650998Y-97247089D01*
X141650998Y-97062911D01*
X141615066Y-96882271D01*
X141544584Y-96712111D01*
X141442260Y-96558972D01*
X141312026Y-96428738D01*
X141158887Y-96326414D01*
X140988727Y-96255932D01*
X140941152Y-96246469D01*
X140924603Y-96206516D01*
X140822279Y-96053377D01*
X140692045Y-95923143D01*
X140538906Y-95820819D01*
X140368746Y-95750337D01*
X140188106Y-95714405D01*
X140003928Y-95714405D01*
X139823288Y-95750337D01*
X139653128Y-95820819D01*
X139499989Y-95923143D01*
X139369755Y-96053377D01*
X139267431Y-96206516D01*
X139196949Y-96376676D01*
X139161017Y-96557316D01*
X137158146Y-96557316D01*
X137226586Y-96454889D01*
X137297068Y-96284729D01*
X137333000Y-96104089D01*
X137333000Y-95919911D01*
X137297068Y-95739271D01*
X137260147Y-95650135D01*
X137305729Y-95641068D01*
X137475889Y-95570586D01*
X137629028Y-95468262D01*
X137759262Y-95338028D01*
X137861586Y-95184889D01*
X137932068Y-95014729D01*
X137968000Y-94834089D01*
X137968000Y-94649911D01*
X137932068Y-94469271D01*
X137861586Y-94299111D01*
X137759262Y-94145972D01*
X137629028Y-94015738D01*
X137475889Y-93913414D01*
X137305729Y-93842932D01*
X137125089Y-93807000D01*
X136940911Y-93807000D01*
X136760271Y-93842932D01*
X136590111Y-93913414D01*
X136436972Y-94015738D01*
X136306738Y-94145972D01*
X136204414Y-94299111D01*
X136166854Y-94389788D01*
X136105825Y-94328759D01*
X135952686Y-94226435D01*
X135782526Y-94155953D01*
X135601886Y-94120021D01*
X135417708Y-94120021D01*
X135237068Y-94155953D01*
X135066908Y-94226435D01*
X134913769Y-94328759D01*
X134830201Y-94412327D01*
X134814279Y-94332281D01*
X134743797Y-94162121D01*
X134641473Y-94008982D01*
X134511239Y-93878748D01*
X134358100Y-93776424D01*
X134187940Y-93705942D01*
X134007300Y-93670010D01*
X133823122Y-93670010D01*
X133642482Y-93705942D01*
X133472322Y-93776424D01*
X133319183Y-93878748D01*
X133188949Y-94008982D01*
X133086625Y-94162121D01*
X133016143Y-94332281D01*
X132980211Y-94512921D01*
X132341503Y-94512921D01*
X132344068Y-94506729D01*
X132380000Y-94326089D01*
X132380000Y-94141911D01*
X132344068Y-93961271D01*
X132273586Y-93791111D01*
X132171262Y-93637972D01*
X132041028Y-93507738D01*
X131887889Y-93405414D01*
X131717729Y-93334932D01*
X131537089Y-93299000D01*
X131352911Y-93299000D01*
X131172271Y-93334932D01*
X131002111Y-93405414D01*
X130848972Y-93507738D01*
X130718738Y-93637972D01*
X130616414Y-93791111D01*
X130545932Y-93961271D01*
X130510000Y-94141911D01*
X128824000Y-94141911D01*
X128788068Y-93961271D01*
X128717586Y-93791111D01*
X128615262Y-93637972D01*
X128485028Y-93507738D01*
X128331889Y-93405414D01*
X128161729Y-93334932D01*
X127981089Y-93299000D01*
X127796911Y-93299000D01*
X127616271Y-93334932D01*
X127446111Y-93405414D01*
X127292972Y-93507738D01*
X127162738Y-93637972D01*
X127060414Y-93791111D01*
X126989932Y-93961271D01*
X126954000Y-94141911D01*
X112166000Y-94141911D01*
X112166000Y-90910797D01*
X132363000Y-90910797D01*
X132363000Y-91080203D01*
X132396049Y-91246353D01*
X132423655Y-91313000D01*
X132396049Y-91379647D01*
X132363000Y-91545797D01*
X132363000Y-91715203D01*
X132396049Y-91881353D01*
X132423655Y-91948000D01*
X132396049Y-92014647D01*
X132363000Y-92180797D01*
X132363000Y-92350203D01*
X132396049Y-92516353D01*
X132423655Y-92583000D01*
X132396049Y-92649647D01*
X132363000Y-92815797D01*
X132363000Y-92985203D01*
X132396049Y-93151353D01*
X132460878Y-93307863D01*
X132554995Y-93448718D01*
X132674782Y-93568505D01*
X132815637Y-93662622D01*
X132972147Y-93727451D01*
X133138297Y-93760500D01*
X133307703Y-93760500D01*
X133473853Y-93727451D01*
X133630363Y-93662622D01*
X133771218Y-93568505D01*
X133891005Y-93448718D01*
X133985122Y-93307863D01*
X134049951Y-93151353D01*
X134083000Y-92985203D01*
X134083000Y-92815797D01*
X134049951Y-92649647D01*
X134022345Y-92583000D01*
X134049951Y-92516353D01*
X134083000Y-92350203D01*
X134083000Y-92180797D01*
X134049951Y-92014647D01*
X134022345Y-91948000D01*
X134049951Y-91881353D01*
X134083000Y-91715203D01*
X134083000Y-91601915D01*
X136288500Y-91601915D01*
X136288500Y-91786093D01*
X136324432Y-91966733D01*
X136394914Y-92136893D01*
X136497238Y-92290032D01*
X136627472Y-92420266D01*
X136780611Y-92522590D01*
X136950771Y-92593072D01*
X137131411Y-92629004D01*
X137315589Y-92629004D01*
X137496229Y-92593072D01*
X137666389Y-92522590D01*
X137819528Y-92420266D01*
X137949762Y-92290032D01*
X138052086Y-92136893D01*
X138112807Y-91990297D01*
X156366000Y-91990297D01*
X156366000Y-92159703D01*
X156399049Y-92325853D01*
X156426655Y-92392500D01*
X156399049Y-92459147D01*
X156366000Y-92625297D01*
X156366000Y-92794703D01*
X156399049Y-92960853D01*
X156426655Y-93027500D01*
X156399049Y-93094147D01*
X156366000Y-93260297D01*
X156366000Y-93429703D01*
X156399049Y-93595853D01*
X156426655Y-93662500D01*
X156399049Y-93729147D01*
X156366000Y-93895297D01*
X156366000Y-94064703D01*
X156399049Y-94230853D01*
X156426655Y-94297500D01*
X156399049Y-94364147D01*
X156366000Y-94530297D01*
X156366000Y-94699703D01*
X156399049Y-94865853D01*
X156426655Y-94932500D01*
X156399049Y-94999147D01*
X156366000Y-95165297D01*
X156366000Y-95334703D01*
X156399049Y-95500853D01*
X156426655Y-95567500D01*
X156399049Y-95634147D01*
X156366000Y-95800297D01*
X156366000Y-95969703D01*
X156399049Y-96135853D01*
X156463878Y-96292363D01*
X156557995Y-96433218D01*
X156677782Y-96553005D01*
X156818637Y-96647122D01*
X156975147Y-96711951D01*
X157141297Y-96745000D01*
X157310703Y-96745000D01*
X157476853Y-96711951D01*
X157543500Y-96684345D01*
X157610147Y-96711951D01*
X157690831Y-96728000D01*
X157578409Y-96728000D01*
X157397769Y-96763932D01*
X157227609Y-96834414D01*
X157074470Y-96936738D01*
X156944236Y-97066972D01*
X156841912Y-97220111D01*
X156771430Y-97390271D01*
X156735498Y-97570911D01*
X156735498Y-97755089D01*
X156771430Y-97935729D01*
X156841912Y-98105889D01*
X156944236Y-98259028D01*
X157074470Y-98389262D01*
X157227609Y-98491586D01*
X157397769Y-98562068D01*
X157578409Y-98598000D01*
X157762587Y-98598000D01*
X157943227Y-98562068D01*
X158113387Y-98491586D01*
X158266526Y-98389262D01*
X158396760Y-98259028D01*
X158499084Y-98105889D01*
X158569566Y-97935729D01*
X158605498Y-97755089D01*
X158605498Y-97570911D01*
X158569566Y-97390271D01*
X158499084Y-97220111D01*
X158396760Y-97066972D01*
X158266526Y-96936738D01*
X158113387Y-96834414D01*
X157943227Y-96763932D01*
X157848051Y-96745000D01*
X157945703Y-96745000D01*
X158111853Y-96711951D01*
X158178500Y-96684345D01*
X158245147Y-96711951D01*
X158411297Y-96745000D01*
X158580703Y-96745000D01*
X158746853Y-96711951D01*
X158813500Y-96684345D01*
X158880147Y-96711951D01*
X159046297Y-96745000D01*
X159215703Y-96745000D01*
X159381853Y-96711951D01*
X159448500Y-96684345D01*
X159515147Y-96711951D01*
X159681297Y-96745000D01*
X159850703Y-96745000D01*
X160016853Y-96711951D01*
X160083500Y-96684345D01*
X160150147Y-96711951D01*
X160316297Y-96745000D01*
X160485703Y-96745000D01*
X160651853Y-96711951D01*
X160808363Y-96647122D01*
X160949218Y-96553005D01*
X161054879Y-96447344D01*
X165995000Y-96447344D01*
X165995000Y-96818656D01*
X166067439Y-97182834D01*
X166209534Y-97525882D01*
X166415825Y-97834618D01*
X166678382Y-98097175D01*
X166987118Y-98303466D01*
X167330166Y-98445561D01*
X167694344Y-98518000D01*
X168065656Y-98518000D01*
X168429834Y-98445561D01*
X168772882Y-98303466D01*
X169081618Y-98097175D01*
X169344175Y-97834618D01*
X169550466Y-97525882D01*
X169692561Y-97182834D01*
X169765000Y-96818656D01*
X169765000Y-96447344D01*
X169692561Y-96083166D01*
X169550466Y-95740118D01*
X169344175Y-95431382D01*
X169081618Y-95168825D01*
X168772882Y-94962534D01*
X168429834Y-94820439D01*
X168065656Y-94748000D01*
X167694344Y-94748000D01*
X167330166Y-94820439D01*
X166987118Y-94962534D01*
X166678382Y-95168825D01*
X166415825Y-95431382D01*
X166209534Y-95740118D01*
X166067439Y-96083166D01*
X165995000Y-96447344D01*
X161054879Y-96447344D01*
X161069005Y-96433218D01*
X161163122Y-96292363D01*
X161227951Y-96135853D01*
X161261000Y-95969703D01*
X161261000Y-95800297D01*
X161227951Y-95634147D01*
X161200345Y-95567500D01*
X161227951Y-95500853D01*
X161261000Y-95334703D01*
X161261000Y-95165297D01*
X161227951Y-94999147D01*
X161200345Y-94932500D01*
X161227951Y-94865853D01*
X161261000Y-94699703D01*
X161261000Y-94530297D01*
X161227951Y-94364147D01*
X161200345Y-94297500D01*
X161227951Y-94230853D01*
X161261000Y-94064703D01*
X161261000Y-93895297D01*
X161227951Y-93729147D01*
X161200345Y-93662500D01*
X161227951Y-93595853D01*
X161247255Y-93498801D01*
X162922500Y-93498801D01*
X162922500Y-93897199D01*
X163000224Y-94287941D01*
X163152684Y-94656013D01*
X163374022Y-94987269D01*
X163655731Y-95268978D01*
X163986987Y-95490316D01*
X164355059Y-95642776D01*
X164745801Y-95720500D01*
X165144199Y-95720500D01*
X165534941Y-95642776D01*
X165903013Y-95490316D01*
X166234269Y-95268978D01*
X166515978Y-94987269D01*
X166737316Y-94656013D01*
X166889776Y-94287941D01*
X166967500Y-93897199D01*
X166967500Y-93498801D01*
X166889776Y-93108059D01*
X166737316Y-92739987D01*
X166515978Y-92408731D01*
X166234269Y-92127022D01*
X165903013Y-91905684D01*
X165534941Y-91753224D01*
X165144199Y-91675500D01*
X164745801Y-91675500D01*
X164355059Y-91753224D01*
X163986987Y-91905684D01*
X163655731Y-92127022D01*
X163374022Y-92408731D01*
X163152684Y-92739987D01*
X163000224Y-93108059D01*
X162922500Y-93498801D01*
X161247255Y-93498801D01*
X161261000Y-93429703D01*
X161261000Y-93260297D01*
X161227951Y-93094147D01*
X161200345Y-93027500D01*
X161227951Y-92960853D01*
X161261000Y-92794703D01*
X161261000Y-92625297D01*
X161227951Y-92459147D01*
X161200345Y-92392500D01*
X161227951Y-92325853D01*
X161261000Y-92159703D01*
X161261000Y-91990297D01*
X161227951Y-91824147D01*
X161163122Y-91667637D01*
X161069005Y-91526782D01*
X160949218Y-91406995D01*
X160808363Y-91312878D01*
X160651853Y-91248049D01*
X160485703Y-91215000D01*
X160316297Y-91215000D01*
X160150147Y-91248049D01*
X160083500Y-91275655D01*
X160016853Y-91248049D01*
X159850703Y-91215000D01*
X159681297Y-91215000D01*
X159515147Y-91248049D01*
X159448500Y-91275655D01*
X159381853Y-91248049D01*
X159215703Y-91215000D01*
X159046297Y-91215000D01*
X158880147Y-91248049D01*
X158813500Y-91275655D01*
X158746853Y-91248049D01*
X158580703Y-91215000D01*
X158411297Y-91215000D01*
X158245147Y-91248049D01*
X158178500Y-91275655D01*
X158111853Y-91248049D01*
X157945703Y-91215000D01*
X157776297Y-91215000D01*
X157610147Y-91248049D01*
X157543500Y-91275655D01*
X157476853Y-91248049D01*
X157310703Y-91215000D01*
X157141297Y-91215000D01*
X156975147Y-91248049D01*
X156818637Y-91312878D01*
X156677782Y-91406995D01*
X156557995Y-91526782D01*
X156463878Y-91667637D01*
X156399049Y-91824147D01*
X156366000Y-91990297D01*
X138112807Y-91990297D01*
X138122568Y-91966733D01*
X138158500Y-91786093D01*
X138158500Y-91601915D01*
X138122568Y-91421275D01*
X138052086Y-91251115D01*
X137949762Y-91097976D01*
X137819528Y-90967742D01*
X137666389Y-90865418D01*
X137496229Y-90794936D01*
X137315589Y-90759004D01*
X137131411Y-90759004D01*
X136950771Y-90794936D01*
X136780611Y-90865418D01*
X136627472Y-90967742D01*
X136497238Y-91097976D01*
X136394914Y-91251115D01*
X136324432Y-91421275D01*
X136288500Y-91601915D01*
X134083000Y-91601915D01*
X134083000Y-91545797D01*
X134049951Y-91379647D01*
X134022345Y-91313000D01*
X134049951Y-91246353D01*
X134083000Y-91080203D01*
X134083000Y-90910797D01*
X134049951Y-90744647D01*
X133985122Y-90588137D01*
X133891005Y-90447282D01*
X133771218Y-90327495D01*
X133630363Y-90233378D01*
X133473853Y-90168549D01*
X133307703Y-90135500D01*
X133138297Y-90135500D01*
X132972147Y-90168549D01*
X132815637Y-90233378D01*
X132674782Y-90327495D01*
X132554995Y-90447282D01*
X132460878Y-90588137D01*
X132396049Y-90744647D01*
X132363000Y-90910797D01*
X112166000Y-90910797D01*
X112166000Y-89569911D01*
X139781000Y-89569911D01*
X139781000Y-89754089D01*
X139816932Y-89934729D01*
X139887414Y-90104889D01*
X139989738Y-90258028D01*
X140119972Y-90388262D01*
X140273111Y-90490586D01*
X140443271Y-90561068D01*
X140623911Y-90597000D01*
X140808089Y-90597000D01*
X140988729Y-90561068D01*
X141158889Y-90490586D01*
X141312028Y-90388262D01*
X141442262Y-90258028D01*
X141453037Y-90241901D01*
X151338000Y-90241901D01*
X151338000Y-90426079D01*
X151373932Y-90606719D01*
X151444414Y-90776879D01*
X151546738Y-90930018D01*
X151676972Y-91060252D01*
X151830111Y-91162576D01*
X152000271Y-91233058D01*
X152180911Y-91268990D01*
X152365089Y-91268990D01*
X152545729Y-91233058D01*
X152715889Y-91162576D01*
X152869028Y-91060252D01*
X152999262Y-90930018D01*
X153066057Y-90830051D01*
X161144000Y-90830051D01*
X161144000Y-91033929D01*
X161183774Y-91233888D01*
X161261795Y-91422246D01*
X161375063Y-91591764D01*
X161519226Y-91735927D01*
X161688744Y-91849195D01*
X161877102Y-91927216D01*
X162077061Y-91966990D01*
X162280939Y-91966990D01*
X162480898Y-91927216D01*
X162669256Y-91849195D01*
X162838774Y-91735927D01*
X162982937Y-91591764D01*
X163096205Y-91422246D01*
X163174226Y-91233888D01*
X163214000Y-91033929D01*
X163214000Y-90830051D01*
X163174226Y-90630092D01*
X163096205Y-90441734D01*
X162982937Y-90272216D01*
X162838774Y-90128053D01*
X162763731Y-90077911D01*
X166705000Y-90077911D01*
X166705000Y-90262089D01*
X166740932Y-90442729D01*
X166811414Y-90612889D01*
X166913738Y-90766028D01*
X167043972Y-90896262D01*
X167197111Y-90998586D01*
X167367271Y-91069068D01*
X167547911Y-91105000D01*
X167732089Y-91105000D01*
X167912729Y-91069068D01*
X168082889Y-90998586D01*
X168236028Y-90896262D01*
X168366262Y-90766028D01*
X168468586Y-90612889D01*
X168539068Y-90442729D01*
X168575000Y-90262089D01*
X168575000Y-90077911D01*
X168539068Y-89897271D01*
X168468586Y-89727111D01*
X168366262Y-89573972D01*
X168236028Y-89443738D01*
X168082889Y-89341414D01*
X167912729Y-89270932D01*
X167732089Y-89235000D01*
X167547911Y-89235000D01*
X167367271Y-89270932D01*
X167197111Y-89341414D01*
X167043972Y-89443738D01*
X166913738Y-89573972D01*
X166811414Y-89727111D01*
X166740932Y-89897271D01*
X166705000Y-90077911D01*
X162763731Y-90077911D01*
X162669256Y-90014785D01*
X162480898Y-89936764D01*
X162280939Y-89896990D01*
X162077061Y-89896990D01*
X161877102Y-89936764D01*
X161688744Y-90014785D01*
X161519226Y-90128053D01*
X161375063Y-90272216D01*
X161261795Y-90441734D01*
X161183774Y-90630092D01*
X161144000Y-90830051D01*
X153066057Y-90830051D01*
X153101586Y-90776879D01*
X153172068Y-90606719D01*
X153208000Y-90426079D01*
X153208000Y-90241901D01*
X153172068Y-90061261D01*
X153101586Y-89891101D01*
X152999262Y-89737962D01*
X152869028Y-89607728D01*
X152715889Y-89505404D01*
X152545729Y-89434922D01*
X152365089Y-89398990D01*
X152180911Y-89398990D01*
X152000271Y-89434922D01*
X151830111Y-89505404D01*
X151676972Y-89607728D01*
X151546738Y-89737962D01*
X151444414Y-89891101D01*
X151373932Y-90061261D01*
X151338000Y-90241901D01*
X141453037Y-90241901D01*
X141544586Y-90104889D01*
X141615068Y-89934729D01*
X141651000Y-89754089D01*
X141651000Y-89569911D01*
X141615068Y-89389271D01*
X141544586Y-89219111D01*
X141442262Y-89065972D01*
X141312028Y-88935738D01*
X141158889Y-88833414D01*
X140988729Y-88762932D01*
X140808089Y-88727000D01*
X140623911Y-88727000D01*
X140443271Y-88762932D01*
X140273111Y-88833414D01*
X140119972Y-88935738D01*
X139989738Y-89065972D01*
X139887414Y-89219111D01*
X139816932Y-89389271D01*
X139781000Y-89569911D01*
X112166000Y-89569911D01*
X112166000Y-87672297D01*
X143221500Y-87672297D01*
X143221500Y-87841703D01*
X143254549Y-88007853D01*
X143282155Y-88074500D01*
X143254549Y-88141147D01*
X143221500Y-88307297D01*
X143221500Y-88476703D01*
X143254549Y-88642853D01*
X143319378Y-88799363D01*
X143413495Y-88940218D01*
X143533282Y-89060005D01*
X143674137Y-89154122D01*
X143830647Y-89218951D01*
X143996797Y-89252000D01*
X144166203Y-89252000D01*
X144332353Y-89218951D01*
X144399000Y-89191345D01*
X144465647Y-89218951D01*
X144631797Y-89252000D01*
X144801203Y-89252000D01*
X144967353Y-89218951D01*
X145034000Y-89191345D01*
X145100647Y-89218951D01*
X145266797Y-89252000D01*
X145436203Y-89252000D01*
X145602353Y-89218951D01*
X145669000Y-89191345D01*
X145735647Y-89218951D01*
X145901797Y-89252000D01*
X146071203Y-89252000D01*
X146237353Y-89218951D01*
X146393863Y-89154122D01*
X146534718Y-89060005D01*
X146654505Y-88940218D01*
X146748622Y-88799363D01*
X146813451Y-88642853D01*
X146846500Y-88476703D01*
X146846500Y-88307297D01*
X146813451Y-88141147D01*
X146785845Y-88074500D01*
X146813451Y-88007853D01*
X146846500Y-87841703D01*
X146846500Y-87672297D01*
X146813451Y-87506147D01*
X146748622Y-87349637D01*
X146654505Y-87208782D01*
X146534718Y-87088995D01*
X146393863Y-86994878D01*
X146237353Y-86930049D01*
X146071203Y-86897000D01*
X145901797Y-86897000D01*
X145735647Y-86930049D01*
X145669000Y-86957655D01*
X145602353Y-86930049D01*
X145436203Y-86897000D01*
X145266797Y-86897000D01*
X145100647Y-86930049D01*
X145034000Y-86957655D01*
X144967353Y-86930049D01*
X144801203Y-86897000D01*
X144631797Y-86897000D01*
X144465647Y-86930049D01*
X144399000Y-86957655D01*
X144332353Y-86930049D01*
X144166203Y-86897000D01*
X143996797Y-86897000D01*
X143830647Y-86930049D01*
X143674137Y-86994878D01*
X143533282Y-87088995D01*
X143413495Y-87208782D01*
X143319378Y-87349637D01*
X143254549Y-87506147D01*
X143221500Y-87672297D01*
X112166000Y-87672297D01*
X112166000Y-86287801D01*
X162922500Y-86287801D01*
X162922500Y-86686199D01*
X163000224Y-87076941D01*
X163152684Y-87445013D01*
X163374022Y-87776269D01*
X163655731Y-88057978D01*
X163986987Y-88279316D01*
X164355059Y-88431776D01*
X164745801Y-88509500D01*
X165144199Y-88509500D01*
X165534941Y-88431776D01*
X165903013Y-88279316D01*
X166234269Y-88057978D01*
X166515978Y-87776269D01*
X166737316Y-87445013D01*
X166889776Y-87076941D01*
X166967500Y-86686199D01*
X166967500Y-86287801D01*
X166889776Y-85897059D01*
X166737316Y-85528987D01*
X166515978Y-85197731D01*
X166234269Y-84916022D01*
X165903013Y-84694684D01*
X165534941Y-84542224D01*
X165144199Y-84464500D01*
X164745801Y-84464500D01*
X164355059Y-84542224D01*
X163986987Y-84694684D01*
X163655731Y-84916022D01*
X163374022Y-85197731D01*
X163152684Y-85528987D01*
X163000224Y-85897059D01*
X162922500Y-86287801D01*
X112166000Y-86287801D01*
X112166000Y-78384000D01*
X116713000Y-78384000D01*
X116713000Y-79375000D01*
M02*
