G04 #@! TF.GenerationSoftware,KiCad,Pcbnew,(5.1.5)-3*
G04 #@! TF.CreationDate,2020-12-16T15:48:43+01:00*
G04 #@! TF.ProjectId,esc,6573632e-6b69-4636-9164-5f7063625858,rev?*
G04 #@! TF.SameCoordinates,Original*
G04 #@! TF.FileFunction,Soldermask,Top*
G04 #@! TF.FilePolarity,Negative*
%FSLAX46Y46*%
G04 Gerber Fmt 4.6, Leading zero omitted, Abs format (unit mm)*
G04 Created by KiCad (PCBNEW (5.1.5)-3) date 2020-12-16 15:48:43*
%MOMM*%
%LPD*%
G04 APERTURE LIST*
%ADD10C,0.100000*%
G04 APERTURE END LIST*
D10*
G36*
X121412000Y-108204000D02*
G01*
X121412000Y-116332000D01*
X120904000Y-116840000D01*
X112903000Y-116840000D01*
X112395000Y-116332000D01*
X112395000Y-108204000D01*
X112903000Y-107696000D01*
X120904000Y-107696000D01*
X121412000Y-108204000D01*
G37*
G36*
X130735000Y-116626000D02*
G01*
X127843000Y-116626000D01*
X127843000Y-115784000D01*
X130735000Y-115784000D01*
X130735000Y-116626000D01*
G37*
G36*
X126665000Y-116626000D02*
G01*
X123773000Y-116626000D01*
X123773000Y-115784000D01*
X126665000Y-115784000D01*
X126665000Y-116626000D01*
G37*
G36*
X162763000Y-112492000D02*
G01*
X162087999Y-112492000D01*
X162063613Y-112494402D01*
X162040164Y-112501515D01*
X162018553Y-112513066D01*
X161999611Y-112528611D01*
X161984066Y-112547553D01*
X161972515Y-112569164D01*
X161965402Y-112592613D01*
X161963000Y-112616999D01*
X161963000Y-112935001D01*
X161965402Y-112959387D01*
X161972515Y-112982836D01*
X161984066Y-113004447D01*
X161999611Y-113023389D01*
X162018553Y-113038934D01*
X162040164Y-113050485D01*
X162063613Y-113057598D01*
X162087999Y-113060000D01*
X162763000Y-113060000D01*
X162763000Y-113762000D01*
X162087999Y-113762000D01*
X162063613Y-113764402D01*
X162040164Y-113771515D01*
X162018553Y-113783066D01*
X161999611Y-113798611D01*
X161984066Y-113817553D01*
X161972515Y-113839164D01*
X161965402Y-113862613D01*
X161963000Y-113886999D01*
X161963000Y-114205001D01*
X161965402Y-114229387D01*
X161972515Y-114252836D01*
X161984066Y-114274447D01*
X161999611Y-114293389D01*
X162018553Y-114308934D01*
X162040164Y-114320485D01*
X162063613Y-114327598D01*
X162087999Y-114330000D01*
X162763000Y-114330000D01*
X162763000Y-115032000D01*
X162087999Y-115032000D01*
X162063613Y-115034402D01*
X162040164Y-115041515D01*
X162018553Y-115053066D01*
X161999611Y-115068611D01*
X161984066Y-115087553D01*
X161972515Y-115109164D01*
X161965402Y-115132613D01*
X161963000Y-115156999D01*
X161963000Y-115475001D01*
X161965402Y-115499387D01*
X161972515Y-115522836D01*
X161984066Y-115544447D01*
X161999611Y-115563389D01*
X162018553Y-115578934D01*
X162040164Y-115590485D01*
X162063613Y-115597598D01*
X162087999Y-115600000D01*
X162763000Y-115600000D01*
X162763000Y-116302000D01*
X158111000Y-116302000D01*
X158111000Y-111790000D01*
X162763000Y-111790000D01*
X162763000Y-112492000D01*
G37*
G36*
X157213000Y-116252000D02*
G01*
X156011000Y-116252000D01*
X156011000Y-115650000D01*
X157213000Y-115650000D01*
X157213000Y-116252000D01*
G37*
G36*
X166032591Y-115078085D02*
G01*
X166066569Y-115088393D01*
X166097890Y-115105134D01*
X166125339Y-115127661D01*
X166147866Y-115155110D01*
X166164607Y-115186431D01*
X166174915Y-115220409D01*
X166179000Y-115261890D01*
X166179000Y-115938110D01*
X166174915Y-115979591D01*
X166164607Y-116013569D01*
X166147866Y-116044890D01*
X166125339Y-116072339D01*
X166097890Y-116094866D01*
X166066569Y-116111607D01*
X166032591Y-116121915D01*
X165991110Y-116126000D01*
X165389890Y-116126000D01*
X165348409Y-116121915D01*
X165314431Y-116111607D01*
X165283110Y-116094866D01*
X165255661Y-116072339D01*
X165233134Y-116044890D01*
X165216393Y-116013569D01*
X165206085Y-115979591D01*
X165202000Y-115938110D01*
X165202000Y-115261890D01*
X165206085Y-115220409D01*
X165216393Y-115186431D01*
X165233134Y-115155110D01*
X165255661Y-115127661D01*
X165283110Y-115105134D01*
X165314431Y-115088393D01*
X165348409Y-115078085D01*
X165389890Y-115074000D01*
X165991110Y-115074000D01*
X166032591Y-115078085D01*
G37*
G36*
X167607591Y-115078085D02*
G01*
X167641569Y-115088393D01*
X167672890Y-115105134D01*
X167700339Y-115127661D01*
X167722866Y-115155110D01*
X167739607Y-115186431D01*
X167749915Y-115220409D01*
X167754000Y-115261890D01*
X167754000Y-115938110D01*
X167749915Y-115979591D01*
X167739607Y-116013569D01*
X167722866Y-116044890D01*
X167700339Y-116072339D01*
X167672890Y-116094866D01*
X167641569Y-116111607D01*
X167607591Y-116121915D01*
X167566110Y-116126000D01*
X166964890Y-116126000D01*
X166923409Y-116121915D01*
X166889431Y-116111607D01*
X166858110Y-116094866D01*
X166830661Y-116072339D01*
X166808134Y-116044890D01*
X166791393Y-116013569D01*
X166781085Y-115979591D01*
X166777000Y-115938110D01*
X166777000Y-115261890D01*
X166781085Y-115220409D01*
X166791393Y-115186431D01*
X166808134Y-115155110D01*
X166830661Y-115127661D01*
X166858110Y-115105134D01*
X166889431Y-115088393D01*
X166923409Y-115078085D01*
X166964890Y-115074000D01*
X167566110Y-115074000D01*
X167607591Y-115078085D01*
G37*
G36*
X168972591Y-115078085D02*
G01*
X169006569Y-115088393D01*
X169037890Y-115105134D01*
X169065339Y-115127661D01*
X169087866Y-115155110D01*
X169104607Y-115186431D01*
X169114915Y-115220409D01*
X169119000Y-115261890D01*
X169119000Y-115938110D01*
X169114915Y-115979591D01*
X169104607Y-116013569D01*
X169087866Y-116044890D01*
X169065339Y-116072339D01*
X169037890Y-116094866D01*
X169006569Y-116111607D01*
X168972591Y-116121915D01*
X168931110Y-116126000D01*
X168329890Y-116126000D01*
X168288409Y-116121915D01*
X168254431Y-116111607D01*
X168223110Y-116094866D01*
X168195661Y-116072339D01*
X168173134Y-116044890D01*
X168156393Y-116013569D01*
X168146085Y-115979591D01*
X168142000Y-115938110D01*
X168142000Y-115261890D01*
X168146085Y-115220409D01*
X168156393Y-115186431D01*
X168173134Y-115155110D01*
X168195661Y-115127661D01*
X168223110Y-115105134D01*
X168254431Y-115088393D01*
X168288409Y-115078085D01*
X168329890Y-115074000D01*
X168931110Y-115074000D01*
X168972591Y-115078085D01*
G37*
G36*
X170547591Y-115078085D02*
G01*
X170581569Y-115088393D01*
X170612890Y-115105134D01*
X170640339Y-115127661D01*
X170662866Y-115155110D01*
X170679607Y-115186431D01*
X170689915Y-115220409D01*
X170694000Y-115261890D01*
X170694000Y-115938110D01*
X170689915Y-115979591D01*
X170679607Y-116013569D01*
X170662866Y-116044890D01*
X170640339Y-116072339D01*
X170612890Y-116094866D01*
X170581569Y-116111607D01*
X170547591Y-116121915D01*
X170506110Y-116126000D01*
X169904890Y-116126000D01*
X169863409Y-116121915D01*
X169829431Y-116111607D01*
X169798110Y-116094866D01*
X169770661Y-116072339D01*
X169748134Y-116044890D01*
X169731393Y-116013569D01*
X169721085Y-115979591D01*
X169717000Y-115938110D01*
X169717000Y-115261890D01*
X169721085Y-115220409D01*
X169731393Y-115186431D01*
X169748134Y-115155110D01*
X169770661Y-115127661D01*
X169798110Y-115105134D01*
X169829431Y-115088393D01*
X169863409Y-115078085D01*
X169904890Y-115074000D01*
X170506110Y-115074000D01*
X170547591Y-115078085D01*
G37*
G36*
X130735000Y-115356000D02*
G01*
X127843000Y-115356000D01*
X127843000Y-114514000D01*
X130735000Y-114514000D01*
X130735000Y-115356000D01*
G37*
G36*
X126665000Y-115356000D02*
G01*
X123773000Y-115356000D01*
X123773000Y-114514000D01*
X126665000Y-114514000D01*
X126665000Y-115356000D01*
G37*
G36*
X138416591Y-114286085D02*
G01*
X138450569Y-114296393D01*
X138481890Y-114313134D01*
X138509339Y-114335661D01*
X138531866Y-114363110D01*
X138548607Y-114394431D01*
X138558915Y-114428409D01*
X138563000Y-114469890D01*
X138563000Y-115146110D01*
X138558915Y-115187591D01*
X138548607Y-115221569D01*
X138531866Y-115252890D01*
X138509339Y-115280339D01*
X138481890Y-115302866D01*
X138450569Y-115319607D01*
X138416591Y-115329915D01*
X138375110Y-115334000D01*
X137773890Y-115334000D01*
X137732409Y-115329915D01*
X137698431Y-115319607D01*
X137667110Y-115302866D01*
X137639661Y-115280339D01*
X137617134Y-115252890D01*
X137600393Y-115221569D01*
X137590085Y-115187591D01*
X137586000Y-115146110D01*
X137586000Y-114469890D01*
X137590085Y-114428409D01*
X137600393Y-114394431D01*
X137617134Y-114363110D01*
X137639661Y-114335661D01*
X137667110Y-114313134D01*
X137698431Y-114296393D01*
X137732409Y-114286085D01*
X137773890Y-114282000D01*
X138375110Y-114282000D01*
X138416591Y-114286085D01*
G37*
G36*
X136841591Y-114286085D02*
G01*
X136875569Y-114296393D01*
X136906890Y-114313134D01*
X136934339Y-114335661D01*
X136956866Y-114363110D01*
X136973607Y-114394431D01*
X136983915Y-114428409D01*
X136988000Y-114469890D01*
X136988000Y-115146110D01*
X136983915Y-115187591D01*
X136973607Y-115221569D01*
X136956866Y-115252890D01*
X136934339Y-115280339D01*
X136906890Y-115302866D01*
X136875569Y-115319607D01*
X136841591Y-115329915D01*
X136800110Y-115334000D01*
X136198890Y-115334000D01*
X136157409Y-115329915D01*
X136123431Y-115319607D01*
X136092110Y-115302866D01*
X136064661Y-115280339D01*
X136042134Y-115252890D01*
X136025393Y-115221569D01*
X136015085Y-115187591D01*
X136011000Y-115146110D01*
X136011000Y-114469890D01*
X136015085Y-114428409D01*
X136025393Y-114394431D01*
X136042134Y-114363110D01*
X136064661Y-114335661D01*
X136092110Y-114313134D01*
X136123431Y-114296393D01*
X136157409Y-114286085D01*
X136198890Y-114282000D01*
X136800110Y-114282000D01*
X136841591Y-114286085D01*
G37*
G36*
X157213000Y-114982000D02*
G01*
X156011000Y-114982000D01*
X156011000Y-114380000D01*
X156386001Y-114380000D01*
X156410387Y-114377598D01*
X156433836Y-114370485D01*
X156455447Y-114358934D01*
X156474389Y-114343389D01*
X156489934Y-114324447D01*
X156501485Y-114302836D01*
X156508598Y-114279387D01*
X156511000Y-114255001D01*
X156511000Y-113836999D01*
X156508598Y-113812613D01*
X156501485Y-113789164D01*
X156489934Y-113767553D01*
X156474389Y-113748611D01*
X156455447Y-113733066D01*
X156433836Y-113721515D01*
X156410387Y-113714402D01*
X156386001Y-113712000D01*
X156011000Y-113712000D01*
X156011000Y-113110000D01*
X156386001Y-113110000D01*
X156410387Y-113107598D01*
X156433836Y-113100485D01*
X156455447Y-113088934D01*
X156474389Y-113073389D01*
X156489934Y-113054447D01*
X156501485Y-113032836D01*
X156508598Y-113009387D01*
X156511000Y-112985001D01*
X156511000Y-112566999D01*
X156508598Y-112542613D01*
X156501485Y-112519164D01*
X156489934Y-112497553D01*
X156474389Y-112478611D01*
X156455447Y-112463066D01*
X156433836Y-112451515D01*
X156410387Y-112444402D01*
X156386001Y-112442000D01*
X156011000Y-112442000D01*
X156011000Y-111840000D01*
X156386001Y-111840000D01*
X156410387Y-111837598D01*
X156433836Y-111830485D01*
X156455447Y-111818934D01*
X156474389Y-111803389D01*
X156489934Y-111784447D01*
X156501485Y-111762836D01*
X156508598Y-111739387D01*
X156511000Y-111715001D01*
X156511000Y-111680000D01*
X157213000Y-111680000D01*
X157213000Y-114982000D01*
G37*
G36*
X154861798Y-113430247D02*
G01*
X154897367Y-113441037D01*
X154930139Y-113458554D01*
X154958869Y-113482131D01*
X154982446Y-113510861D01*
X154999963Y-113543633D01*
X155010753Y-113579202D01*
X155015000Y-113622325D01*
X155015000Y-114681675D01*
X155010753Y-114724798D01*
X154999963Y-114760367D01*
X154982446Y-114793139D01*
X154958869Y-114821869D01*
X154930139Y-114845446D01*
X154897367Y-114862963D01*
X154861798Y-114873753D01*
X154818675Y-114878000D01*
X151759325Y-114878000D01*
X151716202Y-114873753D01*
X151680633Y-114862963D01*
X151647861Y-114845446D01*
X151619131Y-114821869D01*
X151595554Y-114793139D01*
X151578037Y-114760367D01*
X151567247Y-114724798D01*
X151563000Y-114681675D01*
X151563000Y-113622325D01*
X151567247Y-113579202D01*
X151578037Y-113543633D01*
X151595554Y-113510861D01*
X151619131Y-113482131D01*
X151647861Y-113458554D01*
X151680633Y-113441037D01*
X151716202Y-113430247D01*
X151759325Y-113426000D01*
X154818675Y-113426000D01*
X154861798Y-113430247D01*
G37*
G36*
X172466000Y-105664000D02*
G01*
X172466000Y-113792000D01*
X171958000Y-114300000D01*
X163957000Y-114300000D01*
X163449000Y-113792000D01*
X163449000Y-105664000D01*
X163957000Y-105156000D01*
X171958000Y-105156000D01*
X172466000Y-105664000D01*
G37*
G36*
X126665000Y-114086000D02*
G01*
X123773000Y-114086000D01*
X123773000Y-113244000D01*
X126665000Y-113244000D01*
X126665000Y-114086000D01*
G37*
G36*
X130735000Y-114086000D02*
G01*
X127843000Y-114086000D01*
X127843000Y-113244000D01*
X130735000Y-113244000D01*
X130735000Y-114086000D01*
G37*
G36*
X138416591Y-112762085D02*
G01*
X138450569Y-112772393D01*
X138481890Y-112789134D01*
X138509339Y-112811661D01*
X138531866Y-112839110D01*
X138548607Y-112870431D01*
X138558915Y-112904409D01*
X138563000Y-112945890D01*
X138563000Y-113622110D01*
X138558915Y-113663591D01*
X138548607Y-113697569D01*
X138531866Y-113728890D01*
X138509339Y-113756339D01*
X138481890Y-113778866D01*
X138450569Y-113795607D01*
X138416591Y-113805915D01*
X138375110Y-113810000D01*
X137773890Y-113810000D01*
X137732409Y-113805915D01*
X137698431Y-113795607D01*
X137667110Y-113778866D01*
X137639661Y-113756339D01*
X137617134Y-113728890D01*
X137600393Y-113697569D01*
X137590085Y-113663591D01*
X137586000Y-113622110D01*
X137586000Y-112945890D01*
X137590085Y-112904409D01*
X137600393Y-112870431D01*
X137617134Y-112839110D01*
X137639661Y-112811661D01*
X137667110Y-112789134D01*
X137698431Y-112772393D01*
X137732409Y-112762085D01*
X137773890Y-112758000D01*
X138375110Y-112758000D01*
X138416591Y-112762085D01*
G37*
G36*
X136841591Y-112762085D02*
G01*
X136875569Y-112772393D01*
X136906890Y-112789134D01*
X136934339Y-112811661D01*
X136956866Y-112839110D01*
X136973607Y-112870431D01*
X136983915Y-112904409D01*
X136988000Y-112945890D01*
X136988000Y-113622110D01*
X136983915Y-113663591D01*
X136973607Y-113697569D01*
X136956866Y-113728890D01*
X136934339Y-113756339D01*
X136906890Y-113778866D01*
X136875569Y-113795607D01*
X136841591Y-113805915D01*
X136800110Y-113810000D01*
X136198890Y-113810000D01*
X136157409Y-113805915D01*
X136123431Y-113795607D01*
X136092110Y-113778866D01*
X136064661Y-113756339D01*
X136042134Y-113728890D01*
X136025393Y-113697569D01*
X136015085Y-113663591D01*
X136011000Y-113622110D01*
X136011000Y-112945890D01*
X136015085Y-112904409D01*
X136025393Y-112870431D01*
X136042134Y-112839110D01*
X136064661Y-112811661D01*
X136092110Y-112789134D01*
X136123431Y-112772393D01*
X136157409Y-112762085D01*
X136198890Y-112758000D01*
X136800110Y-112758000D01*
X136841591Y-112762085D01*
G37*
G36*
X135241591Y-112762085D02*
G01*
X135275569Y-112772393D01*
X135306890Y-112789134D01*
X135334339Y-112811661D01*
X135356866Y-112839110D01*
X135373607Y-112870431D01*
X135383915Y-112904409D01*
X135388000Y-112945890D01*
X135388000Y-113622110D01*
X135383915Y-113663591D01*
X135373607Y-113697569D01*
X135356866Y-113728890D01*
X135334339Y-113756339D01*
X135306890Y-113778866D01*
X135275569Y-113795607D01*
X135241591Y-113805915D01*
X135200110Y-113810000D01*
X134598890Y-113810000D01*
X134557409Y-113805915D01*
X134523431Y-113795607D01*
X134492110Y-113778866D01*
X134464661Y-113756339D01*
X134442134Y-113728890D01*
X134425393Y-113697569D01*
X134415085Y-113663591D01*
X134411000Y-113622110D01*
X134411000Y-112945890D01*
X134415085Y-112904409D01*
X134425393Y-112870431D01*
X134442134Y-112839110D01*
X134464661Y-112811661D01*
X134492110Y-112789134D01*
X134523431Y-112772393D01*
X134557409Y-112762085D01*
X134598890Y-112758000D01*
X135200110Y-112758000D01*
X135241591Y-112762085D01*
G37*
G36*
X133666591Y-112762085D02*
G01*
X133700569Y-112772393D01*
X133731890Y-112789134D01*
X133759339Y-112811661D01*
X133781866Y-112839110D01*
X133798607Y-112870431D01*
X133808915Y-112904409D01*
X133813000Y-112945890D01*
X133813000Y-113622110D01*
X133808915Y-113663591D01*
X133798607Y-113697569D01*
X133781866Y-113728890D01*
X133759339Y-113756339D01*
X133731890Y-113778866D01*
X133700569Y-113795607D01*
X133666591Y-113805915D01*
X133625110Y-113810000D01*
X133023890Y-113810000D01*
X132982409Y-113805915D01*
X132948431Y-113795607D01*
X132917110Y-113778866D01*
X132889661Y-113756339D01*
X132867134Y-113728890D01*
X132850393Y-113697569D01*
X132840085Y-113663591D01*
X132836000Y-113622110D01*
X132836000Y-112945890D01*
X132840085Y-112904409D01*
X132850393Y-112870431D01*
X132867134Y-112839110D01*
X132889661Y-112811661D01*
X132917110Y-112789134D01*
X132948431Y-112772393D01*
X132982409Y-112762085D01*
X133023890Y-112758000D01*
X133625110Y-112758000D01*
X133666591Y-112762085D01*
G37*
G36*
X126665000Y-112816000D02*
G01*
X123773000Y-112816000D01*
X123773000Y-111974000D01*
X126665000Y-111974000D01*
X126665000Y-112816000D01*
G37*
G36*
X133666591Y-111238085D02*
G01*
X133700569Y-111248393D01*
X133731890Y-111265134D01*
X133759339Y-111287661D01*
X133781866Y-111315110D01*
X133798607Y-111346431D01*
X133808915Y-111380409D01*
X133813000Y-111421890D01*
X133813000Y-112098110D01*
X133808915Y-112139591D01*
X133798607Y-112173569D01*
X133781866Y-112204890D01*
X133759339Y-112232339D01*
X133731890Y-112254866D01*
X133700569Y-112271607D01*
X133666591Y-112281915D01*
X133625110Y-112286000D01*
X133023890Y-112286000D01*
X132982409Y-112281915D01*
X132948431Y-112271607D01*
X132917110Y-112254866D01*
X132889661Y-112232339D01*
X132867134Y-112204890D01*
X132850393Y-112173569D01*
X132840085Y-112139591D01*
X132836000Y-112098110D01*
X132836000Y-111421890D01*
X132840085Y-111380409D01*
X132850393Y-111346431D01*
X132867134Y-111315110D01*
X132889661Y-111287661D01*
X132917110Y-111265134D01*
X132948431Y-111248393D01*
X132982409Y-111238085D01*
X133023890Y-111234000D01*
X133625110Y-111234000D01*
X133666591Y-111238085D01*
G37*
G36*
X138416591Y-111238085D02*
G01*
X138450569Y-111248393D01*
X138481890Y-111265134D01*
X138509339Y-111287661D01*
X138531866Y-111315110D01*
X138548607Y-111346431D01*
X138558915Y-111380409D01*
X138563000Y-111421890D01*
X138563000Y-112098110D01*
X138558915Y-112139591D01*
X138548607Y-112173569D01*
X138531866Y-112204890D01*
X138509339Y-112232339D01*
X138481890Y-112254866D01*
X138450569Y-112271607D01*
X138416591Y-112281915D01*
X138375110Y-112286000D01*
X137773890Y-112286000D01*
X137732409Y-112281915D01*
X137698431Y-112271607D01*
X137667110Y-112254866D01*
X137639661Y-112232339D01*
X137617134Y-112204890D01*
X137600393Y-112173569D01*
X137590085Y-112139591D01*
X137586000Y-112098110D01*
X137586000Y-111421890D01*
X137590085Y-111380409D01*
X137600393Y-111346431D01*
X137617134Y-111315110D01*
X137639661Y-111287661D01*
X137667110Y-111265134D01*
X137698431Y-111248393D01*
X137732409Y-111238085D01*
X137773890Y-111234000D01*
X138375110Y-111234000D01*
X138416591Y-111238085D01*
G37*
G36*
X136841591Y-111238085D02*
G01*
X136875569Y-111248393D01*
X136906890Y-111265134D01*
X136934339Y-111287661D01*
X136956866Y-111315110D01*
X136973607Y-111346431D01*
X136983915Y-111380409D01*
X136988000Y-111421890D01*
X136988000Y-112098110D01*
X136983915Y-112139591D01*
X136973607Y-112173569D01*
X136956866Y-112204890D01*
X136934339Y-112232339D01*
X136906890Y-112254866D01*
X136875569Y-112271607D01*
X136841591Y-112281915D01*
X136800110Y-112286000D01*
X136198890Y-112286000D01*
X136157409Y-112281915D01*
X136123431Y-112271607D01*
X136092110Y-112254866D01*
X136064661Y-112232339D01*
X136042134Y-112204890D01*
X136025393Y-112173569D01*
X136015085Y-112139591D01*
X136011000Y-112098110D01*
X136011000Y-111421890D01*
X136015085Y-111380409D01*
X136025393Y-111346431D01*
X136042134Y-111315110D01*
X136064661Y-111287661D01*
X136092110Y-111265134D01*
X136123431Y-111248393D01*
X136157409Y-111238085D01*
X136198890Y-111234000D01*
X136800110Y-111234000D01*
X136841591Y-111238085D01*
G37*
G36*
X135241591Y-111238085D02*
G01*
X135275569Y-111248393D01*
X135306890Y-111265134D01*
X135334339Y-111287661D01*
X135356866Y-111315110D01*
X135373607Y-111346431D01*
X135383915Y-111380409D01*
X135388000Y-111421890D01*
X135388000Y-112098110D01*
X135383915Y-112139591D01*
X135373607Y-112173569D01*
X135356866Y-112204890D01*
X135334339Y-112232339D01*
X135306890Y-112254866D01*
X135275569Y-112271607D01*
X135241591Y-112281915D01*
X135200110Y-112286000D01*
X134598890Y-112286000D01*
X134557409Y-112281915D01*
X134523431Y-112271607D01*
X134492110Y-112254866D01*
X134464661Y-112232339D01*
X134442134Y-112204890D01*
X134425393Y-112173569D01*
X134415085Y-112139591D01*
X134411000Y-112098110D01*
X134411000Y-111421890D01*
X134415085Y-111380409D01*
X134425393Y-111346431D01*
X134442134Y-111315110D01*
X134464661Y-111287661D01*
X134492110Y-111265134D01*
X134523431Y-111248393D01*
X134557409Y-111238085D01*
X134598890Y-111234000D01*
X135200110Y-111234000D01*
X135241591Y-111238085D01*
G37*
G36*
X126665000Y-111546000D02*
G01*
X123773000Y-111546000D01*
X123773000Y-110704000D01*
X126665000Y-110704000D01*
X126665000Y-111546000D01*
G37*
G36*
X130735000Y-111546000D02*
G01*
X127843000Y-111546000D01*
X127843000Y-110704000D01*
X130735000Y-110704000D01*
X130735000Y-111546000D01*
G37*
G36*
X162841000Y-107362000D02*
G01*
X162465999Y-107362000D01*
X162441613Y-107364402D01*
X162418164Y-107371515D01*
X162396553Y-107383066D01*
X162377611Y-107398611D01*
X162362066Y-107417553D01*
X162350515Y-107439164D01*
X162343402Y-107462613D01*
X162341000Y-107486999D01*
X162341000Y-107905001D01*
X162343402Y-107929387D01*
X162350515Y-107952836D01*
X162362066Y-107974447D01*
X162377611Y-107993389D01*
X162396553Y-108008934D01*
X162418164Y-108020485D01*
X162441613Y-108027598D01*
X162465999Y-108030000D01*
X162841000Y-108030000D01*
X162841000Y-108632000D01*
X162465999Y-108632000D01*
X162441613Y-108634402D01*
X162418164Y-108641515D01*
X162396553Y-108653066D01*
X162377611Y-108668611D01*
X162362066Y-108687553D01*
X162350515Y-108709164D01*
X162343402Y-108732613D01*
X162341000Y-108756999D01*
X162341000Y-109175001D01*
X162343402Y-109199387D01*
X162350515Y-109222836D01*
X162362066Y-109244447D01*
X162377611Y-109263389D01*
X162396553Y-109278934D01*
X162418164Y-109290485D01*
X162441613Y-109297598D01*
X162465999Y-109300000D01*
X162841000Y-109300000D01*
X162841000Y-109902000D01*
X162465999Y-109902000D01*
X162441613Y-109904402D01*
X162418164Y-109911515D01*
X162396553Y-109923066D01*
X162377611Y-109938611D01*
X162362066Y-109957553D01*
X162350515Y-109979164D01*
X162343402Y-110002613D01*
X162341000Y-110026999D01*
X162341000Y-110062000D01*
X161639000Y-110062000D01*
X161639000Y-106760000D01*
X162841000Y-106760000D01*
X162841000Y-107362000D01*
G37*
G36*
X160741000Y-109952000D02*
G01*
X156089000Y-109952000D01*
X156089000Y-109250000D01*
X156764001Y-109250000D01*
X156788387Y-109247598D01*
X156811836Y-109240485D01*
X156833447Y-109228934D01*
X156852389Y-109213389D01*
X156867934Y-109194447D01*
X156879485Y-109172836D01*
X156886598Y-109149387D01*
X156889000Y-109125001D01*
X156889000Y-108806999D01*
X156886598Y-108782613D01*
X156879485Y-108759164D01*
X156867934Y-108737553D01*
X156852389Y-108718611D01*
X156833447Y-108703066D01*
X156811836Y-108691515D01*
X156788387Y-108684402D01*
X156764001Y-108682000D01*
X156089000Y-108682000D01*
X156089000Y-107980000D01*
X156764001Y-107980000D01*
X156788387Y-107977598D01*
X156811836Y-107970485D01*
X156833447Y-107958934D01*
X156852389Y-107943389D01*
X156867934Y-107924447D01*
X156879485Y-107902836D01*
X156886598Y-107879387D01*
X156889000Y-107855001D01*
X156889000Y-107536999D01*
X156886598Y-107512613D01*
X156879485Y-107489164D01*
X156867934Y-107467553D01*
X156852389Y-107448611D01*
X156833447Y-107433066D01*
X156811836Y-107421515D01*
X156788387Y-107414402D01*
X156764001Y-107412000D01*
X156089000Y-107412000D01*
X156089000Y-106710000D01*
X156764001Y-106710000D01*
X156788387Y-106707598D01*
X156811836Y-106700485D01*
X156833447Y-106688934D01*
X156852389Y-106673389D01*
X156867934Y-106654447D01*
X156879485Y-106632836D01*
X156886598Y-106609387D01*
X156889000Y-106585001D01*
X156889000Y-106266999D01*
X156886598Y-106242613D01*
X156879485Y-106219164D01*
X156867934Y-106197553D01*
X156852389Y-106178611D01*
X156833447Y-106163066D01*
X156811836Y-106151515D01*
X156788387Y-106144402D01*
X156764001Y-106142000D01*
X156089000Y-106142000D01*
X156089000Y-105440000D01*
X160741000Y-105440000D01*
X160741000Y-109952000D01*
G37*
G36*
X146810591Y-108888085D02*
G01*
X146844569Y-108898393D01*
X146875890Y-108915134D01*
X146903339Y-108937661D01*
X146925866Y-108965110D01*
X146942607Y-108996431D01*
X146952915Y-109030409D01*
X146957000Y-109071890D01*
X146957000Y-109673110D01*
X146952915Y-109714591D01*
X146942607Y-109748569D01*
X146925866Y-109779890D01*
X146903339Y-109807339D01*
X146875890Y-109829866D01*
X146844569Y-109846607D01*
X146810591Y-109856915D01*
X146769110Y-109861000D01*
X146092890Y-109861000D01*
X146051409Y-109856915D01*
X146017431Y-109846607D01*
X145986110Y-109829866D01*
X145958661Y-109807339D01*
X145936134Y-109779890D01*
X145919393Y-109748569D01*
X145909085Y-109714591D01*
X145905000Y-109673110D01*
X145905000Y-109071890D01*
X145909085Y-109030409D01*
X145919393Y-108996431D01*
X145936134Y-108965110D01*
X145958661Y-108937661D01*
X145986110Y-108915134D01*
X146017431Y-108898393D01*
X146051409Y-108888085D01*
X146092890Y-108884000D01*
X146769110Y-108884000D01*
X146810591Y-108888085D01*
G37*
G36*
X148842591Y-108888085D02*
G01*
X148876569Y-108898393D01*
X148907890Y-108915134D01*
X148935339Y-108937661D01*
X148957866Y-108965110D01*
X148974607Y-108996431D01*
X148984915Y-109030409D01*
X148989000Y-109071890D01*
X148989000Y-109673110D01*
X148984915Y-109714591D01*
X148974607Y-109748569D01*
X148957866Y-109779890D01*
X148935339Y-109807339D01*
X148907890Y-109829866D01*
X148876569Y-109846607D01*
X148842591Y-109856915D01*
X148801110Y-109861000D01*
X148124890Y-109861000D01*
X148083409Y-109856915D01*
X148049431Y-109846607D01*
X148018110Y-109829866D01*
X147990661Y-109807339D01*
X147968134Y-109779890D01*
X147951393Y-109748569D01*
X147941085Y-109714591D01*
X147937000Y-109673110D01*
X147937000Y-109071890D01*
X147941085Y-109030409D01*
X147951393Y-108996431D01*
X147968134Y-108965110D01*
X147990661Y-108937661D01*
X148018110Y-108915134D01*
X148049431Y-108898393D01*
X148083409Y-108888085D01*
X148124890Y-108884000D01*
X148801110Y-108884000D01*
X148842591Y-108888085D01*
G37*
G36*
X144778591Y-108888085D02*
G01*
X144812569Y-108898393D01*
X144843890Y-108915134D01*
X144871339Y-108937661D01*
X144893866Y-108965110D01*
X144910607Y-108996431D01*
X144920915Y-109030409D01*
X144925000Y-109071890D01*
X144925000Y-109673110D01*
X144920915Y-109714591D01*
X144910607Y-109748569D01*
X144893866Y-109779890D01*
X144871339Y-109807339D01*
X144843890Y-109829866D01*
X144812569Y-109846607D01*
X144778591Y-109856915D01*
X144737110Y-109861000D01*
X144060890Y-109861000D01*
X144019409Y-109856915D01*
X143985431Y-109846607D01*
X143954110Y-109829866D01*
X143926661Y-109807339D01*
X143904134Y-109779890D01*
X143887393Y-109748569D01*
X143877085Y-109714591D01*
X143873000Y-109673110D01*
X143873000Y-109071890D01*
X143877085Y-109030409D01*
X143887393Y-108996431D01*
X143904134Y-108965110D01*
X143926661Y-108937661D01*
X143954110Y-108915134D01*
X143985431Y-108898393D01*
X144019409Y-108888085D01*
X144060890Y-108884000D01*
X144737110Y-108884000D01*
X144778591Y-108888085D01*
G37*
G36*
X137285591Y-108253085D02*
G01*
X137319569Y-108263393D01*
X137350890Y-108280134D01*
X137378339Y-108302661D01*
X137400866Y-108330110D01*
X137417607Y-108361431D01*
X137427915Y-108395409D01*
X137432000Y-108436890D01*
X137432000Y-109038110D01*
X137427915Y-109079591D01*
X137417607Y-109113569D01*
X137400866Y-109144890D01*
X137378339Y-109172339D01*
X137350890Y-109194866D01*
X137319569Y-109211607D01*
X137285591Y-109221915D01*
X137244110Y-109226000D01*
X136567890Y-109226000D01*
X136526409Y-109221915D01*
X136492431Y-109211607D01*
X136461110Y-109194866D01*
X136433661Y-109172339D01*
X136411134Y-109144890D01*
X136394393Y-109113569D01*
X136384085Y-109079591D01*
X136380000Y-109038110D01*
X136380000Y-108436890D01*
X136384085Y-108395409D01*
X136394393Y-108361431D01*
X136411134Y-108330110D01*
X136433661Y-108302661D01*
X136461110Y-108280134D01*
X136492431Y-108263393D01*
X136526409Y-108253085D01*
X136567890Y-108249000D01*
X137244110Y-108249000D01*
X137285591Y-108253085D01*
G37*
G36*
X135634591Y-108253085D02*
G01*
X135668569Y-108263393D01*
X135699890Y-108280134D01*
X135727339Y-108302661D01*
X135749866Y-108330110D01*
X135766607Y-108361431D01*
X135776915Y-108395409D01*
X135781000Y-108436890D01*
X135781000Y-109038110D01*
X135776915Y-109079591D01*
X135766607Y-109113569D01*
X135749866Y-109144890D01*
X135727339Y-109172339D01*
X135699890Y-109194866D01*
X135668569Y-109211607D01*
X135634591Y-109221915D01*
X135593110Y-109226000D01*
X134916890Y-109226000D01*
X134875409Y-109221915D01*
X134841431Y-109211607D01*
X134810110Y-109194866D01*
X134782661Y-109172339D01*
X134760134Y-109144890D01*
X134743393Y-109113569D01*
X134733085Y-109079591D01*
X134729000Y-109038110D01*
X134729000Y-108436890D01*
X134733085Y-108395409D01*
X134743393Y-108361431D01*
X134760134Y-108330110D01*
X134782661Y-108302661D01*
X134810110Y-108280134D01*
X134841431Y-108263393D01*
X134875409Y-108253085D01*
X134916890Y-108249000D01*
X135593110Y-108249000D01*
X135634591Y-108253085D01*
G37*
G36*
X138809591Y-108253085D02*
G01*
X138843569Y-108263393D01*
X138874890Y-108280134D01*
X138902339Y-108302661D01*
X138924866Y-108330110D01*
X138941607Y-108361431D01*
X138951915Y-108395409D01*
X138956000Y-108436890D01*
X138956000Y-109038110D01*
X138951915Y-109079591D01*
X138941607Y-109113569D01*
X138924866Y-109144890D01*
X138902339Y-109172339D01*
X138874890Y-109194866D01*
X138843569Y-109211607D01*
X138809591Y-109221915D01*
X138768110Y-109226000D01*
X138091890Y-109226000D01*
X138050409Y-109221915D01*
X138016431Y-109211607D01*
X137985110Y-109194866D01*
X137957661Y-109172339D01*
X137935134Y-109144890D01*
X137918393Y-109113569D01*
X137908085Y-109079591D01*
X137904000Y-109038110D01*
X137904000Y-108436890D01*
X137908085Y-108395409D01*
X137918393Y-108361431D01*
X137935134Y-108330110D01*
X137957661Y-108302661D01*
X137985110Y-108280134D01*
X138016431Y-108263393D01*
X138050409Y-108253085D01*
X138091890Y-108249000D01*
X138768110Y-108249000D01*
X138809591Y-108253085D01*
G37*
G36*
X125970591Y-108063085D02*
G01*
X126004569Y-108073393D01*
X126035890Y-108090134D01*
X126063339Y-108112661D01*
X126085866Y-108140110D01*
X126102607Y-108171431D01*
X126112915Y-108205409D01*
X126117000Y-108246890D01*
X126117000Y-108923110D01*
X126112915Y-108964591D01*
X126102607Y-108998569D01*
X126085866Y-109029890D01*
X126063339Y-109057339D01*
X126035890Y-109079866D01*
X126004569Y-109096607D01*
X125970591Y-109106915D01*
X125929110Y-109111000D01*
X125327890Y-109111000D01*
X125286409Y-109106915D01*
X125252431Y-109096607D01*
X125221110Y-109079866D01*
X125193661Y-109057339D01*
X125171134Y-109029890D01*
X125154393Y-108998569D01*
X125144085Y-108964591D01*
X125140000Y-108923110D01*
X125140000Y-108246890D01*
X125144085Y-108205409D01*
X125154393Y-108171431D01*
X125171134Y-108140110D01*
X125193661Y-108112661D01*
X125221110Y-108090134D01*
X125252431Y-108073393D01*
X125286409Y-108063085D01*
X125327890Y-108059000D01*
X125929110Y-108059000D01*
X125970591Y-108063085D01*
G37*
G36*
X124395591Y-108063085D02*
G01*
X124429569Y-108073393D01*
X124460890Y-108090134D01*
X124488339Y-108112661D01*
X124510866Y-108140110D01*
X124527607Y-108171431D01*
X124537915Y-108205409D01*
X124542000Y-108246890D01*
X124542000Y-108923110D01*
X124537915Y-108964591D01*
X124527607Y-108998569D01*
X124510866Y-109029890D01*
X124488339Y-109057339D01*
X124460890Y-109079866D01*
X124429569Y-109096607D01*
X124395591Y-109106915D01*
X124354110Y-109111000D01*
X123752890Y-109111000D01*
X123711409Y-109106915D01*
X123677431Y-109096607D01*
X123646110Y-109079866D01*
X123618661Y-109057339D01*
X123596134Y-109029890D01*
X123579393Y-108998569D01*
X123569085Y-108964591D01*
X123565000Y-108923110D01*
X123565000Y-108246890D01*
X123569085Y-108205409D01*
X123579393Y-108171431D01*
X123596134Y-108140110D01*
X123618661Y-108112661D01*
X123646110Y-108090134D01*
X123677431Y-108073393D01*
X123711409Y-108063085D01*
X123752890Y-108059000D01*
X124354110Y-108059000D01*
X124395591Y-108063085D01*
G37*
G36*
X154861798Y-107630247D02*
G01*
X154897367Y-107641037D01*
X154930139Y-107658554D01*
X154958869Y-107682131D01*
X154982446Y-107710861D01*
X154999963Y-107743633D01*
X155010753Y-107779202D01*
X155015000Y-107822325D01*
X155015000Y-108881675D01*
X155010753Y-108924798D01*
X154999963Y-108960367D01*
X154982446Y-108993139D01*
X154958869Y-109021869D01*
X154930139Y-109045446D01*
X154897367Y-109062963D01*
X154861798Y-109073753D01*
X154818675Y-109078000D01*
X151759325Y-109078000D01*
X151716202Y-109073753D01*
X151680633Y-109062963D01*
X151647861Y-109045446D01*
X151619131Y-109021869D01*
X151595554Y-108993139D01*
X151578037Y-108960367D01*
X151567247Y-108924798D01*
X151563000Y-108881675D01*
X151563000Y-107822325D01*
X151567247Y-107779202D01*
X151578037Y-107743633D01*
X151595554Y-107710861D01*
X151619131Y-107682131D01*
X151647861Y-107658554D01*
X151680633Y-107641037D01*
X151716202Y-107630247D01*
X151759325Y-107626000D01*
X154818675Y-107626000D01*
X154861798Y-107630247D01*
G37*
G36*
X148842591Y-107313085D02*
G01*
X148876569Y-107323393D01*
X148907890Y-107340134D01*
X148935339Y-107362661D01*
X148957866Y-107390110D01*
X148974607Y-107421431D01*
X148984915Y-107455409D01*
X148989000Y-107496890D01*
X148989000Y-108098110D01*
X148984915Y-108139591D01*
X148974607Y-108173569D01*
X148957866Y-108204890D01*
X148935339Y-108232339D01*
X148907890Y-108254866D01*
X148876569Y-108271607D01*
X148842591Y-108281915D01*
X148801110Y-108286000D01*
X148124890Y-108286000D01*
X148083409Y-108281915D01*
X148049431Y-108271607D01*
X148018110Y-108254866D01*
X147990661Y-108232339D01*
X147968134Y-108204890D01*
X147951393Y-108173569D01*
X147941085Y-108139591D01*
X147937000Y-108098110D01*
X147937000Y-107496890D01*
X147941085Y-107455409D01*
X147951393Y-107421431D01*
X147968134Y-107390110D01*
X147990661Y-107362661D01*
X148018110Y-107340134D01*
X148049431Y-107323393D01*
X148083409Y-107313085D01*
X148124890Y-107309000D01*
X148801110Y-107309000D01*
X148842591Y-107313085D01*
G37*
G36*
X144778591Y-107313085D02*
G01*
X144812569Y-107323393D01*
X144843890Y-107340134D01*
X144871339Y-107362661D01*
X144893866Y-107390110D01*
X144910607Y-107421431D01*
X144920915Y-107455409D01*
X144925000Y-107496890D01*
X144925000Y-108098110D01*
X144920915Y-108139591D01*
X144910607Y-108173569D01*
X144893866Y-108204890D01*
X144871339Y-108232339D01*
X144843890Y-108254866D01*
X144812569Y-108271607D01*
X144778591Y-108281915D01*
X144737110Y-108286000D01*
X144060890Y-108286000D01*
X144019409Y-108281915D01*
X143985431Y-108271607D01*
X143954110Y-108254866D01*
X143926661Y-108232339D01*
X143904134Y-108204890D01*
X143887393Y-108173569D01*
X143877085Y-108139591D01*
X143873000Y-108098110D01*
X143873000Y-107496890D01*
X143877085Y-107455409D01*
X143887393Y-107421431D01*
X143904134Y-107390110D01*
X143926661Y-107362661D01*
X143954110Y-107340134D01*
X143985431Y-107323393D01*
X144019409Y-107313085D01*
X144060890Y-107309000D01*
X144737110Y-107309000D01*
X144778591Y-107313085D01*
G37*
G36*
X146810591Y-107313085D02*
G01*
X146844569Y-107323393D01*
X146875890Y-107340134D01*
X146903339Y-107362661D01*
X146925866Y-107390110D01*
X146942607Y-107421431D01*
X146952915Y-107455409D01*
X146957000Y-107496890D01*
X146957000Y-108098110D01*
X146952915Y-108139591D01*
X146942607Y-108173569D01*
X146925866Y-108204890D01*
X146903339Y-108232339D01*
X146875890Y-108254866D01*
X146844569Y-108271607D01*
X146810591Y-108281915D01*
X146769110Y-108286000D01*
X146092890Y-108286000D01*
X146051409Y-108281915D01*
X146017431Y-108271607D01*
X145986110Y-108254866D01*
X145958661Y-108232339D01*
X145936134Y-108204890D01*
X145919393Y-108173569D01*
X145909085Y-108139591D01*
X145905000Y-108098110D01*
X145905000Y-107496890D01*
X145909085Y-107455409D01*
X145919393Y-107421431D01*
X145936134Y-107390110D01*
X145958661Y-107362661D01*
X145986110Y-107340134D01*
X146017431Y-107323393D01*
X146051409Y-107313085D01*
X146092890Y-107309000D01*
X146769110Y-107309000D01*
X146810591Y-107313085D01*
G37*
G36*
X142125091Y-106666085D02*
G01*
X142159069Y-106676393D01*
X142190390Y-106693134D01*
X142217839Y-106715661D01*
X142240366Y-106743110D01*
X142257107Y-106774431D01*
X142267415Y-106808409D01*
X142271500Y-106849890D01*
X142271500Y-107526110D01*
X142267415Y-107567591D01*
X142257107Y-107601569D01*
X142240366Y-107632890D01*
X142217839Y-107660339D01*
X142190390Y-107682866D01*
X142159069Y-107699607D01*
X142125091Y-107709915D01*
X142083610Y-107714000D01*
X141482390Y-107714000D01*
X141440909Y-107709915D01*
X141406931Y-107699607D01*
X141375610Y-107682866D01*
X141348161Y-107660339D01*
X141325634Y-107632890D01*
X141308893Y-107601569D01*
X141298585Y-107567591D01*
X141294500Y-107526110D01*
X141294500Y-106849890D01*
X141298585Y-106808409D01*
X141308893Y-106774431D01*
X141325634Y-106743110D01*
X141348161Y-106715661D01*
X141375610Y-106693134D01*
X141406931Y-106676393D01*
X141440909Y-106666085D01*
X141482390Y-106662000D01*
X142083610Y-106662000D01*
X142125091Y-106666085D01*
G37*
G36*
X140550091Y-106666085D02*
G01*
X140584069Y-106676393D01*
X140615390Y-106693134D01*
X140642839Y-106715661D01*
X140665366Y-106743110D01*
X140682107Y-106774431D01*
X140692415Y-106808409D01*
X140696500Y-106849890D01*
X140696500Y-107526110D01*
X140692415Y-107567591D01*
X140682107Y-107601569D01*
X140665366Y-107632890D01*
X140642839Y-107660339D01*
X140615390Y-107682866D01*
X140584069Y-107699607D01*
X140550091Y-107709915D01*
X140508610Y-107714000D01*
X139907390Y-107714000D01*
X139865909Y-107709915D01*
X139831931Y-107699607D01*
X139800610Y-107682866D01*
X139773161Y-107660339D01*
X139750634Y-107632890D01*
X139733893Y-107601569D01*
X139723585Y-107567591D01*
X139719500Y-107526110D01*
X139719500Y-106849890D01*
X139723585Y-106808409D01*
X139733893Y-106774431D01*
X139750634Y-106743110D01*
X139773161Y-106715661D01*
X139800610Y-106693134D01*
X139831931Y-106676393D01*
X139865909Y-106666085D01*
X139907390Y-106662000D01*
X140508610Y-106662000D01*
X140550091Y-106666085D01*
G37*
G36*
X138809591Y-106678085D02*
G01*
X138843569Y-106688393D01*
X138874890Y-106705134D01*
X138902339Y-106727661D01*
X138924866Y-106755110D01*
X138941607Y-106786431D01*
X138951915Y-106820409D01*
X138956000Y-106861890D01*
X138956000Y-107463110D01*
X138951915Y-107504591D01*
X138941607Y-107538569D01*
X138924866Y-107569890D01*
X138902339Y-107597339D01*
X138874890Y-107619866D01*
X138843569Y-107636607D01*
X138809591Y-107646915D01*
X138768110Y-107651000D01*
X138091890Y-107651000D01*
X138050409Y-107646915D01*
X138016431Y-107636607D01*
X137985110Y-107619866D01*
X137957661Y-107597339D01*
X137935134Y-107569890D01*
X137918393Y-107538569D01*
X137908085Y-107504591D01*
X137904000Y-107463110D01*
X137904000Y-106861890D01*
X137908085Y-106820409D01*
X137918393Y-106786431D01*
X137935134Y-106755110D01*
X137957661Y-106727661D01*
X137985110Y-106705134D01*
X138016431Y-106688393D01*
X138050409Y-106678085D01*
X138091890Y-106674000D01*
X138768110Y-106674000D01*
X138809591Y-106678085D01*
G37*
G36*
X137285591Y-106678085D02*
G01*
X137319569Y-106688393D01*
X137350890Y-106705134D01*
X137378339Y-106727661D01*
X137400866Y-106755110D01*
X137417607Y-106786431D01*
X137427915Y-106820409D01*
X137432000Y-106861890D01*
X137432000Y-107463110D01*
X137427915Y-107504591D01*
X137417607Y-107538569D01*
X137400866Y-107569890D01*
X137378339Y-107597339D01*
X137350890Y-107619866D01*
X137319569Y-107636607D01*
X137285591Y-107646915D01*
X137244110Y-107651000D01*
X136567890Y-107651000D01*
X136526409Y-107646915D01*
X136492431Y-107636607D01*
X136461110Y-107619866D01*
X136433661Y-107597339D01*
X136411134Y-107569890D01*
X136394393Y-107538569D01*
X136384085Y-107504591D01*
X136380000Y-107463110D01*
X136380000Y-106861890D01*
X136384085Y-106820409D01*
X136394393Y-106786431D01*
X136411134Y-106755110D01*
X136433661Y-106727661D01*
X136461110Y-106705134D01*
X136492431Y-106688393D01*
X136526409Y-106678085D01*
X136567890Y-106674000D01*
X137244110Y-106674000D01*
X137285591Y-106678085D01*
G37*
G36*
X135634591Y-106678085D02*
G01*
X135668569Y-106688393D01*
X135699890Y-106705134D01*
X135727339Y-106727661D01*
X135749866Y-106755110D01*
X135766607Y-106786431D01*
X135776915Y-106820409D01*
X135781000Y-106861890D01*
X135781000Y-107463110D01*
X135776915Y-107504591D01*
X135766607Y-107538569D01*
X135749866Y-107569890D01*
X135727339Y-107597339D01*
X135699890Y-107619866D01*
X135668569Y-107636607D01*
X135634591Y-107646915D01*
X135593110Y-107651000D01*
X134916890Y-107651000D01*
X134875409Y-107646915D01*
X134841431Y-107636607D01*
X134810110Y-107619866D01*
X134782661Y-107597339D01*
X134760134Y-107569890D01*
X134743393Y-107538569D01*
X134733085Y-107504591D01*
X134729000Y-107463110D01*
X134729000Y-106861890D01*
X134733085Y-106820409D01*
X134743393Y-106786431D01*
X134760134Y-106755110D01*
X134782661Y-106727661D01*
X134810110Y-106705134D01*
X134841431Y-106688393D01*
X134875409Y-106678085D01*
X134916890Y-106674000D01*
X135593110Y-106674000D01*
X135634591Y-106678085D01*
G37*
G36*
X124395591Y-106539085D02*
G01*
X124429569Y-106549393D01*
X124460890Y-106566134D01*
X124488339Y-106588661D01*
X124510866Y-106616110D01*
X124527607Y-106647431D01*
X124537915Y-106681409D01*
X124542000Y-106722890D01*
X124542000Y-107399110D01*
X124537915Y-107440591D01*
X124527607Y-107474569D01*
X124510866Y-107505890D01*
X124488339Y-107533339D01*
X124460890Y-107555866D01*
X124429569Y-107572607D01*
X124395591Y-107582915D01*
X124354110Y-107587000D01*
X123752890Y-107587000D01*
X123711409Y-107582915D01*
X123677431Y-107572607D01*
X123646110Y-107555866D01*
X123618661Y-107533339D01*
X123596134Y-107505890D01*
X123579393Y-107474569D01*
X123569085Y-107440591D01*
X123565000Y-107399110D01*
X123565000Y-106722890D01*
X123569085Y-106681409D01*
X123579393Y-106647431D01*
X123596134Y-106616110D01*
X123618661Y-106588661D01*
X123646110Y-106566134D01*
X123677431Y-106549393D01*
X123711409Y-106539085D01*
X123752890Y-106535000D01*
X124354110Y-106535000D01*
X124395591Y-106539085D01*
G37*
G36*
X125970591Y-106539085D02*
G01*
X126004569Y-106549393D01*
X126035890Y-106566134D01*
X126063339Y-106588661D01*
X126085866Y-106616110D01*
X126102607Y-106647431D01*
X126112915Y-106681409D01*
X126117000Y-106722890D01*
X126117000Y-107399110D01*
X126112915Y-107440591D01*
X126102607Y-107474569D01*
X126085866Y-107505890D01*
X126063339Y-107533339D01*
X126035890Y-107555866D01*
X126004569Y-107572607D01*
X125970591Y-107582915D01*
X125929110Y-107587000D01*
X125327890Y-107587000D01*
X125286409Y-107582915D01*
X125252431Y-107572607D01*
X125221110Y-107555866D01*
X125193661Y-107533339D01*
X125171134Y-107505890D01*
X125154393Y-107474569D01*
X125144085Y-107440591D01*
X125140000Y-107399110D01*
X125140000Y-106722890D01*
X125144085Y-106681409D01*
X125154393Y-106647431D01*
X125171134Y-106616110D01*
X125193661Y-106588661D01*
X125221110Y-106566134D01*
X125252431Y-106549393D01*
X125286409Y-106539085D01*
X125327890Y-106535000D01*
X125929110Y-106535000D01*
X125970591Y-106539085D01*
G37*
G36*
X135666000Y-106118500D02*
G01*
X129764000Y-106118500D01*
X129764000Y-104541500D01*
X135666000Y-104541500D01*
X135666000Y-106118500D01*
G37*
G36*
X141907304Y-104540452D02*
G01*
X141942400Y-104543908D01*
X141980293Y-104555403D01*
X142015207Y-104574065D01*
X142045816Y-104599184D01*
X142056374Y-104612049D01*
X142073701Y-104629376D01*
X142094075Y-104642990D01*
X142116714Y-104652367D01*
X142140747Y-104657148D01*
X142165251Y-104657148D01*
X142189284Y-104652368D01*
X142211923Y-104642991D01*
X142232298Y-104629377D01*
X142249628Y-104612046D01*
X142260183Y-104599183D01*
X142290791Y-104574065D01*
X142325705Y-104555403D01*
X142363598Y-104543908D01*
X142402998Y-104540028D01*
X142402999Y-104540028D01*
X142407303Y-104540452D01*
X142442399Y-104543908D01*
X142480292Y-104555403D01*
X142515206Y-104574065D01*
X142545815Y-104599184D01*
X142556373Y-104612049D01*
X142573700Y-104629376D01*
X142594074Y-104642990D01*
X142616713Y-104652367D01*
X142640746Y-104657148D01*
X142665250Y-104657148D01*
X142689283Y-104652368D01*
X142711922Y-104642991D01*
X142732297Y-104629377D01*
X142749627Y-104612046D01*
X142760182Y-104599183D01*
X142790790Y-104574065D01*
X142825704Y-104555403D01*
X142863597Y-104543908D01*
X142902997Y-104540028D01*
X142902998Y-104540028D01*
X142907302Y-104540452D01*
X142942398Y-104543908D01*
X142980291Y-104555403D01*
X143015205Y-104574065D01*
X143045815Y-104599185D01*
X143056373Y-104612050D01*
X143073700Y-104629377D01*
X143094075Y-104642991D01*
X143116713Y-104652369D01*
X143140747Y-104657149D01*
X143165251Y-104657149D01*
X143189284Y-104652369D01*
X143211923Y-104642991D01*
X143232297Y-104629378D01*
X143249625Y-104612050D01*
X143260184Y-104599184D01*
X143290792Y-104574065D01*
X143325706Y-104555403D01*
X143363599Y-104543908D01*
X143402999Y-104540028D01*
X143403000Y-104540028D01*
X143407304Y-104540452D01*
X143442400Y-104543908D01*
X143480293Y-104555403D01*
X143515207Y-104574065D01*
X143545816Y-104599184D01*
X143556374Y-104612049D01*
X143573701Y-104629376D01*
X143594075Y-104642990D01*
X143616714Y-104652367D01*
X143640747Y-104657148D01*
X143665251Y-104657148D01*
X143689284Y-104652368D01*
X143711923Y-104642991D01*
X143732298Y-104629377D01*
X143749628Y-104612046D01*
X143760183Y-104599183D01*
X143790791Y-104574065D01*
X143825705Y-104555403D01*
X143863598Y-104543908D01*
X143902998Y-104540028D01*
X143902999Y-104540028D01*
X143907303Y-104540452D01*
X143942399Y-104543908D01*
X143980292Y-104555403D01*
X144015206Y-104574065D01*
X144045816Y-104599185D01*
X144056374Y-104612050D01*
X144073701Y-104629377D01*
X144094076Y-104642991D01*
X144116714Y-104652369D01*
X144140748Y-104657149D01*
X144165252Y-104657149D01*
X144189285Y-104652369D01*
X144211924Y-104642991D01*
X144232298Y-104629378D01*
X144249628Y-104612048D01*
X144249768Y-104611878D01*
X144260185Y-104599184D01*
X144290791Y-104574066D01*
X144290790Y-104574066D01*
X144290792Y-104574065D01*
X144325706Y-104555403D01*
X144363599Y-104543908D01*
X144402999Y-104540028D01*
X144403000Y-104540028D01*
X144407304Y-104540452D01*
X144442400Y-104543908D01*
X144480293Y-104555403D01*
X144515207Y-104574065D01*
X144545816Y-104599184D01*
X144556374Y-104612049D01*
X144573701Y-104629376D01*
X144594075Y-104642990D01*
X144616714Y-104652367D01*
X144640747Y-104657148D01*
X144665251Y-104657148D01*
X144689284Y-104652368D01*
X144711923Y-104642991D01*
X144732298Y-104629377D01*
X144749626Y-104612049D01*
X144760184Y-104599183D01*
X144790792Y-104574065D01*
X144825706Y-104555403D01*
X144863599Y-104543908D01*
X144902999Y-104540028D01*
X144903000Y-104540028D01*
X144907304Y-104540452D01*
X144942400Y-104543908D01*
X144980293Y-104555403D01*
X145015207Y-104574065D01*
X145045819Y-104599186D01*
X145056373Y-104612047D01*
X145073699Y-104629375D01*
X145094074Y-104642989D01*
X145116712Y-104652366D01*
X145140746Y-104657147D01*
X145165250Y-104657147D01*
X145189283Y-104652367D01*
X145211922Y-104642990D01*
X145232296Y-104629376D01*
X145249625Y-104612047D01*
X145260180Y-104599185D01*
X145290790Y-104574065D01*
X145325704Y-104555403D01*
X145363597Y-104543908D01*
X145402997Y-104540028D01*
X145402998Y-104540028D01*
X145407302Y-104540452D01*
X145442398Y-104543908D01*
X145480291Y-104555403D01*
X145515205Y-104574065D01*
X145545815Y-104599185D01*
X145556373Y-104612050D01*
X145573700Y-104629377D01*
X145594075Y-104642991D01*
X145616713Y-104652369D01*
X145640747Y-104657149D01*
X145665251Y-104657149D01*
X145689284Y-104652369D01*
X145711923Y-104642991D01*
X145732297Y-104629378D01*
X145749625Y-104612050D01*
X145760184Y-104599184D01*
X145790792Y-104574065D01*
X145825706Y-104555403D01*
X145863599Y-104543908D01*
X145902999Y-104540028D01*
X145903000Y-104540028D01*
X145907304Y-104540452D01*
X145942400Y-104543908D01*
X145980293Y-104555403D01*
X146015207Y-104574065D01*
X146045816Y-104599184D01*
X146056374Y-104612049D01*
X146073701Y-104629376D01*
X146094075Y-104642990D01*
X146116714Y-104652367D01*
X146140747Y-104657148D01*
X146165251Y-104657148D01*
X146189284Y-104652368D01*
X146211923Y-104642991D01*
X146232298Y-104629377D01*
X146249628Y-104612046D01*
X146260183Y-104599183D01*
X146290791Y-104574065D01*
X146325705Y-104555403D01*
X146363598Y-104543908D01*
X146402998Y-104540028D01*
X146402999Y-104540028D01*
X146407303Y-104540452D01*
X146442399Y-104543908D01*
X146480292Y-104555403D01*
X146515206Y-104574065D01*
X146545816Y-104599185D01*
X146556374Y-104612050D01*
X146573701Y-104629377D01*
X146594076Y-104642991D01*
X146616714Y-104652369D01*
X146640748Y-104657149D01*
X146665252Y-104657149D01*
X146689285Y-104652369D01*
X146711924Y-104642991D01*
X146732298Y-104629378D01*
X146749626Y-104612050D01*
X146760185Y-104599184D01*
X146790793Y-104574065D01*
X146825707Y-104555403D01*
X146863600Y-104543908D01*
X146903000Y-104540028D01*
X146903001Y-104540028D01*
X146907305Y-104540452D01*
X146942401Y-104543908D01*
X146980294Y-104555403D01*
X147015208Y-104574065D01*
X147045817Y-104599184D01*
X147056375Y-104612049D01*
X147073702Y-104629376D01*
X147094076Y-104642990D01*
X147116715Y-104652367D01*
X147140748Y-104657148D01*
X147165252Y-104657148D01*
X147189285Y-104652368D01*
X147211924Y-104642991D01*
X147232299Y-104629377D01*
X147249629Y-104612046D01*
X147260184Y-104599183D01*
X147290792Y-104574065D01*
X147325706Y-104555403D01*
X147363599Y-104543908D01*
X147402999Y-104540028D01*
X147403000Y-104540028D01*
X147407304Y-104540452D01*
X147442400Y-104543908D01*
X147480293Y-104555403D01*
X147515207Y-104574065D01*
X147545816Y-104599184D01*
X147570934Y-104629791D01*
X147589596Y-104664705D01*
X147601091Y-104702598D01*
X147603999Y-104732125D01*
X147603999Y-105901875D01*
X147601091Y-105931402D01*
X147589596Y-105969295D01*
X147570934Y-106004209D01*
X147545816Y-106034817D01*
X147515208Y-106059935D01*
X147480294Y-106078597D01*
X147442401Y-106090092D01*
X147403001Y-106093972D01*
X147403000Y-106093972D01*
X147398696Y-106093548D01*
X147363600Y-106090092D01*
X147325707Y-106078597D01*
X147290793Y-106059935D01*
X147260185Y-106034817D01*
X147249627Y-106021951D01*
X147232300Y-106004624D01*
X147211926Y-105991010D01*
X147189287Y-105981633D01*
X147165254Y-105976852D01*
X147140750Y-105976852D01*
X147116717Y-105981632D01*
X147094078Y-105991009D01*
X147073703Y-106004623D01*
X147056375Y-106021951D01*
X147045817Y-106034817D01*
X147015209Y-106059935D01*
X146980295Y-106078597D01*
X146942402Y-106090092D01*
X146903002Y-106093972D01*
X146903001Y-106093972D01*
X146898697Y-106093548D01*
X146863601Y-106090092D01*
X146825708Y-106078597D01*
X146790794Y-106059935D01*
X146760185Y-106034816D01*
X146749628Y-106021951D01*
X146732302Y-106004623D01*
X146711928Y-105991009D01*
X146689289Y-105981631D01*
X146665256Y-105976850D01*
X146640752Y-105976850D01*
X146616719Y-105981630D01*
X146594080Y-105991006D01*
X146573705Y-106004620D01*
X146556376Y-106021948D01*
X146545816Y-106034816D01*
X146515207Y-106059935D01*
X146480293Y-106078597D01*
X146442400Y-106090092D01*
X146403000Y-106093972D01*
X146402999Y-106093972D01*
X146398695Y-106093548D01*
X146363599Y-106090092D01*
X146325706Y-106078597D01*
X146290792Y-106059935D01*
X146260184Y-106034817D01*
X146249626Y-106021951D01*
X146232299Y-106004624D01*
X146211925Y-105991010D01*
X146189286Y-105981633D01*
X146165253Y-105976852D01*
X146140749Y-105976852D01*
X146116716Y-105981632D01*
X146094077Y-105991009D01*
X146073702Y-106004623D01*
X146056374Y-106021951D01*
X146045816Y-106034817D01*
X146015208Y-106059935D01*
X145980294Y-106078597D01*
X145942401Y-106090092D01*
X145903001Y-106093972D01*
X145903000Y-106093972D01*
X145898696Y-106093548D01*
X145863600Y-106090092D01*
X145825707Y-106078597D01*
X145790793Y-106059935D01*
X145760184Y-106034816D01*
X145749627Y-106021951D01*
X145732301Y-106004623D01*
X145711927Y-105991009D01*
X145689288Y-105981631D01*
X145665255Y-105976850D01*
X145640751Y-105976850D01*
X145616718Y-105981630D01*
X145594079Y-105991006D01*
X145573704Y-106004620D01*
X145556375Y-106021948D01*
X145545815Y-106034816D01*
X145515206Y-106059935D01*
X145480292Y-106078597D01*
X145442399Y-106090092D01*
X145402999Y-106093972D01*
X145402998Y-106093972D01*
X145398694Y-106093548D01*
X145363598Y-106090092D01*
X145325705Y-106078597D01*
X145290791Y-106059935D01*
X145260181Y-106034815D01*
X145249626Y-106021953D01*
X145232300Y-106004625D01*
X145211925Y-105991011D01*
X145189287Y-105981634D01*
X145165253Y-105976853D01*
X145140749Y-105976853D01*
X145116716Y-105981633D01*
X145094077Y-105991010D01*
X145073703Y-106004624D01*
X145056376Y-106021950D01*
X145045818Y-106034815D01*
X145015208Y-106059935D01*
X144980294Y-106078597D01*
X144942401Y-106090092D01*
X144903001Y-106093972D01*
X144903000Y-106093972D01*
X144898696Y-106093548D01*
X144863600Y-106090092D01*
X144825707Y-106078597D01*
X144790793Y-106059935D01*
X144760188Y-106034818D01*
X144760186Y-106034815D01*
X144749625Y-106021948D01*
X144732302Y-106004625D01*
X144711928Y-105991010D01*
X144689290Y-105981632D01*
X144665257Y-105976851D01*
X144640753Y-105976851D01*
X144616719Y-105981630D01*
X144594080Y-105991007D01*
X144573705Y-106004620D01*
X144556375Y-106021950D01*
X144545816Y-106034816D01*
X144515208Y-106059935D01*
X144480294Y-106078597D01*
X144442401Y-106090092D01*
X144403001Y-106093972D01*
X144403000Y-106093972D01*
X144398696Y-106093548D01*
X144363600Y-106090092D01*
X144325707Y-106078597D01*
X144290793Y-106059935D01*
X144260185Y-106034816D01*
X144249626Y-106021950D01*
X144232299Y-106004623D01*
X144211924Y-105991009D01*
X144189286Y-105981631D01*
X144165252Y-105976851D01*
X144140748Y-105976851D01*
X144116715Y-105981631D01*
X144094076Y-105991009D01*
X144073702Y-106004622D01*
X144056374Y-106021950D01*
X144045815Y-106034816D01*
X144015207Y-106059935D01*
X143980293Y-106078597D01*
X143942400Y-106090092D01*
X143903000Y-106093972D01*
X143902999Y-106093972D01*
X143898695Y-106093548D01*
X143863599Y-106090092D01*
X143825706Y-106078597D01*
X143790792Y-106059935D01*
X143760184Y-106034817D01*
X143749626Y-106021951D01*
X143732299Y-106004624D01*
X143711925Y-105991010D01*
X143689286Y-105981633D01*
X143665253Y-105976852D01*
X143640749Y-105976852D01*
X143616716Y-105981632D01*
X143594077Y-105991009D01*
X143573702Y-106004623D01*
X143556374Y-106021951D01*
X143545816Y-106034817D01*
X143515208Y-106059935D01*
X143480294Y-106078597D01*
X143442401Y-106090092D01*
X143403001Y-106093972D01*
X143403000Y-106093972D01*
X143398696Y-106093548D01*
X143363600Y-106090092D01*
X143325707Y-106078597D01*
X143290793Y-106059935D01*
X143260184Y-106034816D01*
X143249627Y-106021951D01*
X143232301Y-106004623D01*
X143211927Y-105991009D01*
X143189288Y-105981631D01*
X143165255Y-105976850D01*
X143140751Y-105976850D01*
X143116718Y-105981630D01*
X143094079Y-105991006D01*
X143073704Y-106004620D01*
X143056375Y-106021948D01*
X143045815Y-106034816D01*
X143015206Y-106059935D01*
X142980292Y-106078597D01*
X142942399Y-106090092D01*
X142902999Y-106093972D01*
X142902998Y-106093972D01*
X142898694Y-106093548D01*
X142863598Y-106090092D01*
X142825705Y-106078597D01*
X142790791Y-106059935D01*
X142760183Y-106034817D01*
X142749625Y-106021951D01*
X142732298Y-106004624D01*
X142711924Y-105991010D01*
X142689285Y-105981633D01*
X142665252Y-105976852D01*
X142640748Y-105976852D01*
X142616715Y-105981632D01*
X142594076Y-105991009D01*
X142573701Y-106004623D01*
X142556373Y-106021951D01*
X142545815Y-106034817D01*
X142515207Y-106059935D01*
X142480293Y-106078597D01*
X142442400Y-106090092D01*
X142403000Y-106093972D01*
X142402999Y-106093972D01*
X142398695Y-106093548D01*
X142363599Y-106090092D01*
X142325706Y-106078597D01*
X142290792Y-106059935D01*
X142260184Y-106034817D01*
X142249626Y-106021951D01*
X142232299Y-106004624D01*
X142211925Y-105991010D01*
X142189286Y-105981633D01*
X142165253Y-105976852D01*
X142140749Y-105976852D01*
X142116716Y-105981632D01*
X142094077Y-105991009D01*
X142073702Y-106004623D01*
X142056374Y-106021951D01*
X142045816Y-106034817D01*
X142015208Y-106059935D01*
X141980294Y-106078597D01*
X141942401Y-106090092D01*
X141903001Y-106093972D01*
X141903000Y-106093972D01*
X141898696Y-106093548D01*
X141863600Y-106090092D01*
X141825707Y-106078597D01*
X141790793Y-106059935D01*
X141760185Y-106034817D01*
X141735067Y-106004209D01*
X141716405Y-105969295D01*
X141704910Y-105931402D01*
X141702002Y-105901874D01*
X141702001Y-104732126D01*
X141704909Y-104702599D01*
X141716404Y-104664706D01*
X141735066Y-104629792D01*
X141760185Y-104599183D01*
X141790792Y-104574065D01*
X141825706Y-104555403D01*
X141863599Y-104543908D01*
X141902999Y-104540028D01*
X141903000Y-104540028D01*
X141907304Y-104540452D01*
G37*
G36*
X162841000Y-106092000D02*
G01*
X161639000Y-106092000D01*
X161639000Y-105490000D01*
X162841000Y-105490000D01*
X162841000Y-106092000D01*
G37*
G36*
X121412000Y-97409000D02*
G01*
X121412000Y-105537000D01*
X120904000Y-106045000D01*
X112903000Y-106045000D01*
X112395000Y-105537000D01*
X112395000Y-97409000D01*
X112903000Y-96901000D01*
X120904000Y-96901000D01*
X121412000Y-97409000D01*
G37*
G36*
X125843591Y-103872085D02*
G01*
X125877569Y-103882393D01*
X125908890Y-103899134D01*
X125936339Y-103921661D01*
X125958866Y-103949110D01*
X125975607Y-103980431D01*
X125985915Y-104014409D01*
X125990000Y-104055890D01*
X125990000Y-104732110D01*
X125985915Y-104773591D01*
X125975607Y-104807569D01*
X125958866Y-104838890D01*
X125936339Y-104866339D01*
X125908890Y-104888866D01*
X125877569Y-104905607D01*
X125843591Y-104915915D01*
X125802110Y-104920000D01*
X125200890Y-104920000D01*
X125159409Y-104915915D01*
X125125431Y-104905607D01*
X125094110Y-104888866D01*
X125066661Y-104866339D01*
X125044134Y-104838890D01*
X125027393Y-104807569D01*
X125017085Y-104773591D01*
X125013000Y-104732110D01*
X125013000Y-104055890D01*
X125017085Y-104014409D01*
X125027393Y-103980431D01*
X125044134Y-103949110D01*
X125066661Y-103921661D01*
X125094110Y-103899134D01*
X125125431Y-103882393D01*
X125159409Y-103872085D01*
X125200890Y-103868000D01*
X125802110Y-103868000D01*
X125843591Y-103872085D01*
G37*
G36*
X124268591Y-103872085D02*
G01*
X124302569Y-103882393D01*
X124333890Y-103899134D01*
X124361339Y-103921661D01*
X124383866Y-103949110D01*
X124400607Y-103980431D01*
X124410915Y-104014409D01*
X124415000Y-104055890D01*
X124415000Y-104732110D01*
X124410915Y-104773591D01*
X124400607Y-104807569D01*
X124383866Y-104838890D01*
X124361339Y-104866339D01*
X124333890Y-104888866D01*
X124302569Y-104905607D01*
X124268591Y-104915915D01*
X124227110Y-104920000D01*
X123625890Y-104920000D01*
X123584409Y-104915915D01*
X123550431Y-104905607D01*
X123519110Y-104888866D01*
X123491661Y-104866339D01*
X123469134Y-104838890D01*
X123452393Y-104807569D01*
X123442085Y-104773591D01*
X123438000Y-104732110D01*
X123438000Y-104055890D01*
X123442085Y-104014409D01*
X123452393Y-103980431D01*
X123469134Y-103949110D01*
X123491661Y-103921661D01*
X123519110Y-103899134D01*
X123550431Y-103882393D01*
X123584409Y-103872085D01*
X123625890Y-103868000D01*
X124227110Y-103868000D01*
X124268591Y-103872085D01*
G37*
G36*
X137741500Y-104043000D02*
G01*
X136164500Y-104043000D01*
X136164500Y-98141000D01*
X137741500Y-98141000D01*
X137741500Y-104043000D01*
G37*
G36*
X129265500Y-104043000D02*
G01*
X127688500Y-104043000D01*
X127688500Y-98141000D01*
X129265500Y-98141000D01*
X129265500Y-104043000D01*
G37*
G36*
X149492402Y-98143909D02*
G01*
X149530295Y-98155404D01*
X149565209Y-98174066D01*
X149595817Y-98199184D01*
X149620935Y-98229792D01*
X149639597Y-98264706D01*
X149651092Y-98302599D01*
X149654972Y-98342000D01*
X149651092Y-98381401D01*
X149639597Y-98419294D01*
X149620935Y-98454208D01*
X149595815Y-98484818D01*
X149582950Y-98495376D01*
X149565623Y-98512703D01*
X149552010Y-98533078D01*
X149542633Y-98555717D01*
X149537853Y-98579750D01*
X149537853Y-98604254D01*
X149542634Y-98628287D01*
X149552012Y-98650926D01*
X149565626Y-98671300D01*
X149582953Y-98688626D01*
X149595815Y-98699181D01*
X149620935Y-98729791D01*
X149639597Y-98764705D01*
X149651092Y-98802598D01*
X149654972Y-98841999D01*
X149651092Y-98881400D01*
X149639597Y-98919293D01*
X149620935Y-98954207D01*
X149595815Y-98984817D01*
X149582953Y-98995372D01*
X149565625Y-99012698D01*
X149552011Y-99033073D01*
X149542634Y-99055711D01*
X149537853Y-99079745D01*
X149537853Y-99104249D01*
X149542633Y-99128282D01*
X149552010Y-99150921D01*
X149565624Y-99171295D01*
X149582950Y-99188622D01*
X149595815Y-99199180D01*
X149620935Y-99229790D01*
X149639597Y-99264704D01*
X149651092Y-99302597D01*
X149654972Y-99341998D01*
X149651092Y-99381399D01*
X149639597Y-99419292D01*
X149620935Y-99454206D01*
X149595816Y-99484814D01*
X149582950Y-99495373D01*
X149565623Y-99512700D01*
X149552009Y-99533075D01*
X149542631Y-99555713D01*
X149537851Y-99579747D01*
X149537851Y-99604251D01*
X149542631Y-99628284D01*
X149552009Y-99650923D01*
X149565622Y-99671297D01*
X149582950Y-99688625D01*
X149595816Y-99699184D01*
X149620935Y-99729792D01*
X149639597Y-99764706D01*
X149651092Y-99802599D01*
X149654972Y-99842000D01*
X149651092Y-99881401D01*
X149639597Y-99919294D01*
X149620935Y-99954208D01*
X149595815Y-99984818D01*
X149582950Y-99995376D01*
X149565623Y-100012703D01*
X149552010Y-100033078D01*
X149542633Y-100055717D01*
X149537853Y-100079750D01*
X149537853Y-100104254D01*
X149542634Y-100128287D01*
X149552012Y-100150926D01*
X149565626Y-100171300D01*
X149582953Y-100188626D01*
X149595815Y-100199181D01*
X149620935Y-100229791D01*
X149639597Y-100264705D01*
X149651092Y-100302598D01*
X149654972Y-100341999D01*
X149651092Y-100381400D01*
X149639597Y-100419293D01*
X149620935Y-100454207D01*
X149595816Y-100484815D01*
X149582950Y-100495374D01*
X149565623Y-100512701D01*
X149552009Y-100533076D01*
X149542631Y-100555714D01*
X149537851Y-100579748D01*
X149537851Y-100604252D01*
X149542631Y-100628285D01*
X149552009Y-100650924D01*
X149565622Y-100671298D01*
X149582952Y-100688628D01*
X149595818Y-100699187D01*
X149620935Y-100729792D01*
X149639597Y-100764706D01*
X149651092Y-100802599D01*
X149654972Y-100842000D01*
X149651092Y-100881401D01*
X149639597Y-100919294D01*
X149620935Y-100954208D01*
X149595817Y-100984816D01*
X149582951Y-100995374D01*
X149565624Y-101012701D01*
X149552010Y-101033075D01*
X149542633Y-101055714D01*
X149537852Y-101079747D01*
X149537852Y-101104251D01*
X149542632Y-101128284D01*
X149552009Y-101150923D01*
X149565623Y-101171298D01*
X149582951Y-101188626D01*
X149595817Y-101199184D01*
X149620935Y-101229792D01*
X149639597Y-101264706D01*
X149651092Y-101302599D01*
X149654972Y-101342000D01*
X149651092Y-101381401D01*
X149639597Y-101419294D01*
X149620935Y-101454208D01*
X149595815Y-101484818D01*
X149582953Y-101495373D01*
X149565625Y-101512699D01*
X149552011Y-101533074D01*
X149542634Y-101555712D01*
X149537853Y-101579746D01*
X149537853Y-101604250D01*
X149542633Y-101628283D01*
X149552010Y-101650922D01*
X149565624Y-101671296D01*
X149582953Y-101688625D01*
X149595815Y-101699180D01*
X149620935Y-101729790D01*
X149639597Y-101764704D01*
X149651092Y-101802597D01*
X149654972Y-101841998D01*
X149651092Y-101881399D01*
X149639597Y-101919292D01*
X149620935Y-101954206D01*
X149595816Y-101984814D01*
X149582950Y-101995373D01*
X149565623Y-102012700D01*
X149552009Y-102033075D01*
X149542631Y-102055713D01*
X149537851Y-102079747D01*
X149537851Y-102104251D01*
X149542631Y-102128284D01*
X149552009Y-102150923D01*
X149565622Y-102171297D01*
X149582950Y-102188625D01*
X149595816Y-102199184D01*
X149620935Y-102229792D01*
X149639597Y-102264706D01*
X149651092Y-102302599D01*
X149654972Y-102342000D01*
X149651092Y-102381401D01*
X149639597Y-102419294D01*
X149620935Y-102454208D01*
X149595815Y-102484818D01*
X149582953Y-102495373D01*
X149565625Y-102512699D01*
X149552011Y-102533074D01*
X149542634Y-102555712D01*
X149537853Y-102579746D01*
X149537853Y-102604250D01*
X149542633Y-102628283D01*
X149552010Y-102650922D01*
X149565624Y-102671296D01*
X149582950Y-102688623D01*
X149595815Y-102699181D01*
X149620935Y-102729791D01*
X149639597Y-102764705D01*
X149651092Y-102802598D01*
X149654972Y-102841999D01*
X149651092Y-102881400D01*
X149639597Y-102919293D01*
X149620935Y-102954207D01*
X149595816Y-102984815D01*
X149582950Y-102995374D01*
X149565623Y-103012701D01*
X149552009Y-103033076D01*
X149542631Y-103055714D01*
X149537851Y-103079748D01*
X149537851Y-103104252D01*
X149542631Y-103128285D01*
X149552009Y-103150924D01*
X149565622Y-103171298D01*
X149582950Y-103188626D01*
X149595816Y-103199185D01*
X149620935Y-103229793D01*
X149639597Y-103264707D01*
X149651092Y-103302600D01*
X149654972Y-103342001D01*
X149651092Y-103381402D01*
X149639597Y-103419295D01*
X149620935Y-103454209D01*
X149595815Y-103484819D01*
X149582950Y-103495377D01*
X149565623Y-103512704D01*
X149552010Y-103533079D01*
X149542633Y-103555718D01*
X149537853Y-103579751D01*
X149537853Y-103604255D01*
X149542634Y-103628288D01*
X149552012Y-103650927D01*
X149565626Y-103671301D01*
X149582953Y-103688627D01*
X149595815Y-103699182D01*
X149620935Y-103729792D01*
X149639597Y-103764706D01*
X149651092Y-103802599D01*
X149654972Y-103842000D01*
X149651092Y-103881401D01*
X149639597Y-103919294D01*
X149620935Y-103954208D01*
X149595817Y-103984816D01*
X149565209Y-104009934D01*
X149530295Y-104028596D01*
X149492402Y-104040091D01*
X149462875Y-104042999D01*
X148293125Y-104042999D01*
X148263598Y-104040091D01*
X148225705Y-104028596D01*
X148190791Y-104009934D01*
X148160183Y-103984816D01*
X148135065Y-103954208D01*
X148116403Y-103919294D01*
X148104908Y-103881401D01*
X148101028Y-103842000D01*
X148104908Y-103802599D01*
X148116403Y-103764706D01*
X148135065Y-103729792D01*
X148160185Y-103699182D01*
X148173047Y-103688627D01*
X148190375Y-103671301D01*
X148203989Y-103650926D01*
X148213366Y-103628288D01*
X148218147Y-103604254D01*
X148218147Y-103579750D01*
X148213367Y-103555717D01*
X148203990Y-103533078D01*
X148190376Y-103512704D01*
X148173050Y-103495377D01*
X148160185Y-103484819D01*
X148135065Y-103454209D01*
X148116403Y-103419295D01*
X148104908Y-103381402D01*
X148101028Y-103342001D01*
X148104908Y-103302600D01*
X148116403Y-103264707D01*
X148135065Y-103229793D01*
X148160184Y-103199185D01*
X148173050Y-103188626D01*
X148190377Y-103171299D01*
X148203991Y-103150924D01*
X148213369Y-103128286D01*
X148218149Y-103104252D01*
X148218149Y-103079748D01*
X148213369Y-103055715D01*
X148203991Y-103033076D01*
X148190378Y-103012702D01*
X148173050Y-102995374D01*
X148160184Y-102984815D01*
X148135065Y-102954207D01*
X148116403Y-102919293D01*
X148104908Y-102881400D01*
X148101028Y-102841999D01*
X148104908Y-102802598D01*
X148116403Y-102764705D01*
X148135065Y-102729791D01*
X148160185Y-102699181D01*
X148173050Y-102688623D01*
X148190377Y-102671296D01*
X148203990Y-102650921D01*
X148213367Y-102628282D01*
X148218147Y-102604249D01*
X148218147Y-102579745D01*
X148213366Y-102555712D01*
X148203988Y-102533073D01*
X148190374Y-102512699D01*
X148173047Y-102495373D01*
X148160185Y-102484818D01*
X148135065Y-102454208D01*
X148116403Y-102419294D01*
X148104908Y-102381401D01*
X148101028Y-102342000D01*
X148104908Y-102302599D01*
X148116403Y-102264706D01*
X148135065Y-102229792D01*
X148160184Y-102199184D01*
X148173050Y-102188625D01*
X148190377Y-102171298D01*
X148203991Y-102150923D01*
X148213369Y-102128285D01*
X148218149Y-102104251D01*
X148218149Y-102079747D01*
X148213369Y-102055714D01*
X148203991Y-102033075D01*
X148190378Y-102012701D01*
X148173050Y-101995373D01*
X148160184Y-101984814D01*
X148135065Y-101954206D01*
X148116403Y-101919292D01*
X148104908Y-101881399D01*
X148101028Y-101841998D01*
X148104908Y-101802597D01*
X148116403Y-101764704D01*
X148135065Y-101729790D01*
X148160185Y-101699180D01*
X148173047Y-101688625D01*
X148190375Y-101671299D01*
X148203989Y-101650924D01*
X148213366Y-101628286D01*
X148218147Y-101604252D01*
X148218147Y-101579748D01*
X148213367Y-101555715D01*
X148203990Y-101533076D01*
X148190376Y-101512702D01*
X148173047Y-101495373D01*
X148160185Y-101484818D01*
X148135065Y-101454208D01*
X148116403Y-101419294D01*
X148104908Y-101381401D01*
X148101028Y-101342000D01*
X148104908Y-101302599D01*
X148116403Y-101264706D01*
X148135065Y-101229792D01*
X148160183Y-101199184D01*
X148173049Y-101188626D01*
X148190376Y-101171299D01*
X148203990Y-101150925D01*
X148213367Y-101128286D01*
X148218148Y-101104253D01*
X148218148Y-101079749D01*
X148213368Y-101055716D01*
X148203991Y-101033077D01*
X148190377Y-101012702D01*
X148173049Y-100995374D01*
X148160183Y-100984816D01*
X148135065Y-100954208D01*
X148116403Y-100919294D01*
X148104908Y-100881401D01*
X148101028Y-100842000D01*
X148104908Y-100802599D01*
X148116403Y-100764706D01*
X148135065Y-100729792D01*
X148160182Y-100699187D01*
X148173048Y-100688628D01*
X148190375Y-100671301D01*
X148203990Y-100650927D01*
X148213368Y-100628289D01*
X148218149Y-100604256D01*
X148218149Y-100579752D01*
X148213370Y-100555718D01*
X148203993Y-100533079D01*
X148190380Y-100512704D01*
X148173050Y-100495374D01*
X148160184Y-100484815D01*
X148135065Y-100454207D01*
X148116403Y-100419293D01*
X148104908Y-100381400D01*
X148101028Y-100341999D01*
X148104908Y-100302598D01*
X148116403Y-100264705D01*
X148135065Y-100229791D01*
X148160185Y-100199181D01*
X148173047Y-100188626D01*
X148190375Y-100171300D01*
X148203989Y-100150925D01*
X148213366Y-100128287D01*
X148218147Y-100104253D01*
X148218147Y-100079749D01*
X148213367Y-100055716D01*
X148203990Y-100033077D01*
X148190376Y-100012703D01*
X148173050Y-99995376D01*
X148160185Y-99984818D01*
X148135065Y-99954208D01*
X148116403Y-99919294D01*
X148104908Y-99881401D01*
X148101028Y-99842000D01*
X148104908Y-99802599D01*
X148116403Y-99764706D01*
X148135065Y-99729792D01*
X148160184Y-99699184D01*
X148173050Y-99688625D01*
X148190377Y-99671298D01*
X148203991Y-99650923D01*
X148213369Y-99628285D01*
X148218149Y-99604251D01*
X148218149Y-99579747D01*
X148213369Y-99555714D01*
X148203991Y-99533075D01*
X148190378Y-99512701D01*
X148173050Y-99495373D01*
X148160184Y-99484814D01*
X148135065Y-99454206D01*
X148116403Y-99419292D01*
X148104908Y-99381399D01*
X148101028Y-99341998D01*
X148104908Y-99302597D01*
X148116403Y-99264704D01*
X148135065Y-99229790D01*
X148160185Y-99199180D01*
X148173047Y-99188625D01*
X148190375Y-99171299D01*
X148203989Y-99150924D01*
X148213366Y-99128286D01*
X148218147Y-99104252D01*
X148218147Y-99079748D01*
X148213367Y-99055715D01*
X148203990Y-99033076D01*
X148190376Y-99012702D01*
X148173050Y-98995375D01*
X148160185Y-98984817D01*
X148135065Y-98954207D01*
X148116403Y-98919293D01*
X148104908Y-98881400D01*
X148101028Y-98841999D01*
X148104908Y-98802598D01*
X148116403Y-98764705D01*
X148135065Y-98729791D01*
X148160185Y-98699181D01*
X148173047Y-98688626D01*
X148190375Y-98671300D01*
X148203989Y-98650925D01*
X148213366Y-98628287D01*
X148218147Y-98604253D01*
X148218147Y-98579749D01*
X148213367Y-98555716D01*
X148203990Y-98533077D01*
X148190376Y-98512703D01*
X148173050Y-98495376D01*
X148160185Y-98484818D01*
X148135065Y-98454208D01*
X148116403Y-98419294D01*
X148104908Y-98381401D01*
X148101028Y-98342000D01*
X148104908Y-98302599D01*
X148116403Y-98264706D01*
X148135065Y-98229792D01*
X148160183Y-98199184D01*
X148190791Y-98174066D01*
X148225705Y-98155404D01*
X148263598Y-98143909D01*
X148293125Y-98141001D01*
X149462875Y-98141001D01*
X149492402Y-98143909D01*
G37*
G36*
X141042402Y-98143909D02*
G01*
X141080295Y-98155404D01*
X141115209Y-98174066D01*
X141145817Y-98199184D01*
X141170935Y-98229792D01*
X141189597Y-98264706D01*
X141201092Y-98302599D01*
X141204972Y-98342000D01*
X141201092Y-98381401D01*
X141189597Y-98419294D01*
X141170935Y-98454208D01*
X141145815Y-98484818D01*
X141132950Y-98495376D01*
X141115623Y-98512703D01*
X141102010Y-98533078D01*
X141092633Y-98555717D01*
X141087853Y-98579750D01*
X141087853Y-98604254D01*
X141092634Y-98628287D01*
X141102012Y-98650926D01*
X141115626Y-98671300D01*
X141132953Y-98688626D01*
X141145815Y-98699181D01*
X141170935Y-98729791D01*
X141189597Y-98764705D01*
X141201092Y-98802598D01*
X141204972Y-98841999D01*
X141201092Y-98881400D01*
X141189597Y-98919293D01*
X141170935Y-98954207D01*
X141145815Y-98984817D01*
X141132953Y-98995372D01*
X141115625Y-99012698D01*
X141102011Y-99033073D01*
X141092634Y-99055711D01*
X141087853Y-99079745D01*
X141087853Y-99104249D01*
X141092633Y-99128282D01*
X141102010Y-99150921D01*
X141115624Y-99171295D01*
X141132950Y-99188622D01*
X141145815Y-99199180D01*
X141170935Y-99229790D01*
X141189597Y-99264704D01*
X141201092Y-99302597D01*
X141204972Y-99341998D01*
X141201092Y-99381399D01*
X141189597Y-99419292D01*
X141170935Y-99454206D01*
X141145816Y-99484814D01*
X141132950Y-99495373D01*
X141115623Y-99512700D01*
X141102009Y-99533075D01*
X141092631Y-99555713D01*
X141087851Y-99579747D01*
X141087851Y-99604251D01*
X141092631Y-99628284D01*
X141102009Y-99650923D01*
X141115622Y-99671297D01*
X141132950Y-99688625D01*
X141145816Y-99699184D01*
X141170935Y-99729792D01*
X141189597Y-99764706D01*
X141201092Y-99802599D01*
X141204972Y-99842000D01*
X141201092Y-99881401D01*
X141189597Y-99919294D01*
X141170935Y-99954208D01*
X141145815Y-99984818D01*
X141132950Y-99995376D01*
X141115623Y-100012703D01*
X141102010Y-100033078D01*
X141092633Y-100055717D01*
X141087853Y-100079750D01*
X141087853Y-100104254D01*
X141092634Y-100128287D01*
X141102012Y-100150926D01*
X141115626Y-100171300D01*
X141132953Y-100188626D01*
X141145815Y-100199181D01*
X141170935Y-100229791D01*
X141189597Y-100264705D01*
X141201092Y-100302598D01*
X141204972Y-100341999D01*
X141201092Y-100381400D01*
X141189597Y-100419293D01*
X141170935Y-100454207D01*
X141145816Y-100484815D01*
X141132950Y-100495374D01*
X141115623Y-100512701D01*
X141102009Y-100533076D01*
X141092631Y-100555714D01*
X141087851Y-100579748D01*
X141087851Y-100604252D01*
X141092631Y-100628285D01*
X141102009Y-100650924D01*
X141115622Y-100671298D01*
X141132952Y-100688628D01*
X141145818Y-100699187D01*
X141170935Y-100729792D01*
X141189597Y-100764706D01*
X141201092Y-100802599D01*
X141204972Y-100842000D01*
X141201092Y-100881401D01*
X141189597Y-100919294D01*
X141170935Y-100954208D01*
X141145817Y-100984816D01*
X141132951Y-100995374D01*
X141115624Y-101012701D01*
X141102010Y-101033075D01*
X141092633Y-101055714D01*
X141087852Y-101079747D01*
X141087852Y-101104251D01*
X141092632Y-101128284D01*
X141102009Y-101150923D01*
X141115623Y-101171298D01*
X141132951Y-101188626D01*
X141145817Y-101199184D01*
X141170935Y-101229792D01*
X141189597Y-101264706D01*
X141201092Y-101302599D01*
X141204972Y-101342000D01*
X141201092Y-101381401D01*
X141189597Y-101419294D01*
X141170935Y-101454208D01*
X141145815Y-101484818D01*
X141132953Y-101495373D01*
X141115625Y-101512699D01*
X141102011Y-101533074D01*
X141092634Y-101555712D01*
X141087853Y-101579746D01*
X141087853Y-101604250D01*
X141092633Y-101628283D01*
X141102010Y-101650922D01*
X141115624Y-101671296D01*
X141132953Y-101688625D01*
X141145815Y-101699180D01*
X141170935Y-101729790D01*
X141189597Y-101764704D01*
X141201092Y-101802597D01*
X141204972Y-101841998D01*
X141201092Y-101881399D01*
X141189597Y-101919292D01*
X141170935Y-101954206D01*
X141145816Y-101984814D01*
X141132950Y-101995373D01*
X141115623Y-102012700D01*
X141102009Y-102033075D01*
X141092631Y-102055713D01*
X141087851Y-102079747D01*
X141087851Y-102104251D01*
X141092631Y-102128284D01*
X141102009Y-102150923D01*
X141115622Y-102171297D01*
X141132950Y-102188625D01*
X141145816Y-102199184D01*
X141170935Y-102229792D01*
X141189597Y-102264706D01*
X141201092Y-102302599D01*
X141204972Y-102342000D01*
X141201092Y-102381401D01*
X141189597Y-102419294D01*
X141170935Y-102454208D01*
X141145815Y-102484818D01*
X141132953Y-102495373D01*
X141115625Y-102512699D01*
X141102011Y-102533074D01*
X141092634Y-102555712D01*
X141087853Y-102579746D01*
X141087853Y-102604250D01*
X141092633Y-102628283D01*
X141102010Y-102650922D01*
X141115624Y-102671296D01*
X141132950Y-102688623D01*
X141145815Y-102699181D01*
X141170935Y-102729791D01*
X141189597Y-102764705D01*
X141201092Y-102802598D01*
X141204972Y-102841999D01*
X141201092Y-102881400D01*
X141189597Y-102919293D01*
X141170935Y-102954207D01*
X141145816Y-102984815D01*
X141132950Y-102995374D01*
X141115623Y-103012701D01*
X141102009Y-103033076D01*
X141092631Y-103055714D01*
X141087851Y-103079748D01*
X141087851Y-103104252D01*
X141092631Y-103128285D01*
X141102009Y-103150924D01*
X141115622Y-103171298D01*
X141132950Y-103188626D01*
X141145816Y-103199185D01*
X141170935Y-103229793D01*
X141189597Y-103264707D01*
X141201092Y-103302600D01*
X141204972Y-103342001D01*
X141201092Y-103381402D01*
X141189597Y-103419295D01*
X141170935Y-103454209D01*
X141145815Y-103484819D01*
X141132950Y-103495377D01*
X141115623Y-103512704D01*
X141102010Y-103533079D01*
X141092633Y-103555718D01*
X141087853Y-103579751D01*
X141087853Y-103604255D01*
X141092634Y-103628288D01*
X141102012Y-103650927D01*
X141115626Y-103671301D01*
X141132953Y-103688627D01*
X141145815Y-103699182D01*
X141170935Y-103729792D01*
X141189597Y-103764706D01*
X141201092Y-103802599D01*
X141204972Y-103842000D01*
X141201092Y-103881401D01*
X141189597Y-103919294D01*
X141170935Y-103954208D01*
X141145817Y-103984816D01*
X141115209Y-104009934D01*
X141080295Y-104028596D01*
X141042402Y-104040091D01*
X141012875Y-104042999D01*
X139843125Y-104042999D01*
X139813598Y-104040091D01*
X139775705Y-104028596D01*
X139740791Y-104009934D01*
X139710183Y-103984816D01*
X139685065Y-103954208D01*
X139666403Y-103919294D01*
X139654908Y-103881401D01*
X139651028Y-103842000D01*
X139654908Y-103802599D01*
X139666403Y-103764706D01*
X139685065Y-103729792D01*
X139710185Y-103699182D01*
X139723047Y-103688627D01*
X139740375Y-103671301D01*
X139753989Y-103650926D01*
X139763366Y-103628288D01*
X139768147Y-103604254D01*
X139768147Y-103579750D01*
X139763367Y-103555717D01*
X139753990Y-103533078D01*
X139740376Y-103512704D01*
X139723050Y-103495377D01*
X139710185Y-103484819D01*
X139685065Y-103454209D01*
X139666403Y-103419295D01*
X139654908Y-103381402D01*
X139651028Y-103342001D01*
X139654908Y-103302600D01*
X139666403Y-103264707D01*
X139685065Y-103229793D01*
X139710184Y-103199185D01*
X139723050Y-103188626D01*
X139740377Y-103171299D01*
X139753991Y-103150924D01*
X139763369Y-103128286D01*
X139768149Y-103104252D01*
X139768149Y-103079748D01*
X139763369Y-103055715D01*
X139753991Y-103033076D01*
X139740378Y-103012702D01*
X139723050Y-102995374D01*
X139710184Y-102984815D01*
X139685065Y-102954207D01*
X139666403Y-102919293D01*
X139654908Y-102881400D01*
X139651028Y-102841999D01*
X139654908Y-102802598D01*
X139666403Y-102764705D01*
X139685065Y-102729791D01*
X139710185Y-102699181D01*
X139723047Y-102688626D01*
X139740375Y-102671300D01*
X139753989Y-102650925D01*
X139763366Y-102628287D01*
X139768147Y-102604253D01*
X139768147Y-102579749D01*
X139763367Y-102555716D01*
X139753990Y-102533077D01*
X139740376Y-102512703D01*
X139723050Y-102495376D01*
X139710185Y-102484818D01*
X139685065Y-102454208D01*
X139666403Y-102419294D01*
X139654908Y-102381401D01*
X139651028Y-102342000D01*
X139654908Y-102302599D01*
X139666403Y-102264706D01*
X139685065Y-102229792D01*
X139710184Y-102199184D01*
X139723050Y-102188625D01*
X139740377Y-102171298D01*
X139753991Y-102150923D01*
X139763369Y-102128285D01*
X139768149Y-102104251D01*
X139768149Y-102079747D01*
X139763369Y-102055714D01*
X139753991Y-102033075D01*
X139740378Y-102012701D01*
X139723050Y-101995373D01*
X139710184Y-101984814D01*
X139685065Y-101954206D01*
X139666403Y-101919292D01*
X139654908Y-101881399D01*
X139651028Y-101841998D01*
X139654908Y-101802597D01*
X139666403Y-101764704D01*
X139685065Y-101729790D01*
X139710185Y-101699180D01*
X139723047Y-101688625D01*
X139740375Y-101671299D01*
X139753989Y-101650924D01*
X139763366Y-101628286D01*
X139768147Y-101604252D01*
X139768147Y-101579748D01*
X139763367Y-101555715D01*
X139753990Y-101533076D01*
X139740376Y-101512702D01*
X139723047Y-101495373D01*
X139710185Y-101484818D01*
X139685065Y-101454208D01*
X139666403Y-101419294D01*
X139654908Y-101381401D01*
X139651028Y-101342000D01*
X139654908Y-101302599D01*
X139666403Y-101264706D01*
X139685065Y-101229792D01*
X139710183Y-101199184D01*
X139723049Y-101188626D01*
X139740376Y-101171299D01*
X139753990Y-101150925D01*
X139763367Y-101128286D01*
X139768148Y-101104253D01*
X139768148Y-101079749D01*
X139763368Y-101055716D01*
X139753991Y-101033077D01*
X139740377Y-101012702D01*
X139723049Y-100995374D01*
X139710183Y-100984816D01*
X139685065Y-100954208D01*
X139666403Y-100919294D01*
X139654908Y-100881401D01*
X139651028Y-100842000D01*
X139654908Y-100802599D01*
X139666403Y-100764706D01*
X139685065Y-100729792D01*
X139710182Y-100699187D01*
X139723048Y-100688628D01*
X139740375Y-100671301D01*
X139753990Y-100650927D01*
X139763368Y-100628289D01*
X139768149Y-100604256D01*
X139768149Y-100579752D01*
X139763370Y-100555718D01*
X139753993Y-100533079D01*
X139740380Y-100512704D01*
X139723050Y-100495374D01*
X139710184Y-100484815D01*
X139685065Y-100454207D01*
X139666403Y-100419293D01*
X139654908Y-100381400D01*
X139651028Y-100341999D01*
X139654908Y-100302598D01*
X139666403Y-100264705D01*
X139685065Y-100229791D01*
X139710185Y-100199181D01*
X139723047Y-100188626D01*
X139740375Y-100171300D01*
X139753989Y-100150925D01*
X139763366Y-100128287D01*
X139768147Y-100104253D01*
X139768147Y-100079749D01*
X139763367Y-100055716D01*
X139753990Y-100033077D01*
X139740376Y-100012703D01*
X139723050Y-99995376D01*
X139710185Y-99984818D01*
X139685065Y-99954208D01*
X139666403Y-99919294D01*
X139654908Y-99881401D01*
X139651028Y-99842000D01*
X139654908Y-99802599D01*
X139666403Y-99764706D01*
X139685065Y-99729792D01*
X139710184Y-99699184D01*
X139723050Y-99688625D01*
X139740377Y-99671298D01*
X139753991Y-99650923D01*
X139763369Y-99628285D01*
X139768149Y-99604251D01*
X139768149Y-99579747D01*
X139763369Y-99555714D01*
X139753991Y-99533075D01*
X139740378Y-99512701D01*
X139723050Y-99495373D01*
X139710184Y-99484814D01*
X139685065Y-99454206D01*
X139666403Y-99419292D01*
X139654908Y-99381399D01*
X139651028Y-99341998D01*
X139654908Y-99302597D01*
X139666403Y-99264704D01*
X139685065Y-99229790D01*
X139710185Y-99199180D01*
X139723047Y-99188625D01*
X139740375Y-99171299D01*
X139753989Y-99150924D01*
X139763366Y-99128286D01*
X139768147Y-99104252D01*
X139768147Y-99079748D01*
X139763367Y-99055715D01*
X139753990Y-99033076D01*
X139740376Y-99012702D01*
X139723050Y-98995375D01*
X139710185Y-98984817D01*
X139685065Y-98954207D01*
X139666403Y-98919293D01*
X139654908Y-98881400D01*
X139651028Y-98841999D01*
X139654908Y-98802598D01*
X139666403Y-98764705D01*
X139685065Y-98729791D01*
X139710185Y-98699181D01*
X139723047Y-98688626D01*
X139740375Y-98671300D01*
X139753989Y-98650925D01*
X139763366Y-98628287D01*
X139768147Y-98604253D01*
X139768147Y-98579749D01*
X139763367Y-98555716D01*
X139753990Y-98533077D01*
X139740376Y-98512703D01*
X139723050Y-98495376D01*
X139710185Y-98484818D01*
X139685065Y-98454208D01*
X139666403Y-98419294D01*
X139654908Y-98381401D01*
X139651028Y-98342000D01*
X139654908Y-98302599D01*
X139666403Y-98264706D01*
X139685065Y-98229792D01*
X139710183Y-98199184D01*
X139740791Y-98174066D01*
X139775705Y-98155404D01*
X139813598Y-98143909D01*
X139843125Y-98141001D01*
X141012875Y-98141001D01*
X141042402Y-98143909D01*
G37*
G36*
X147289000Y-103727997D02*
G01*
X142017000Y-103727997D01*
X142017000Y-98455997D01*
X147289000Y-98455997D01*
X147289000Y-103727997D01*
G37*
G36*
X162763000Y-99792000D02*
G01*
X162087999Y-99792000D01*
X162063613Y-99794402D01*
X162040164Y-99801515D01*
X162018553Y-99813066D01*
X161999611Y-99828611D01*
X161984066Y-99847553D01*
X161972515Y-99869164D01*
X161965402Y-99892613D01*
X161963000Y-99916999D01*
X161963000Y-100235001D01*
X161965402Y-100259387D01*
X161972515Y-100282836D01*
X161984066Y-100304447D01*
X161999611Y-100323389D01*
X162018553Y-100338934D01*
X162040164Y-100350485D01*
X162063613Y-100357598D01*
X162087999Y-100360000D01*
X162763000Y-100360000D01*
X162763000Y-101062000D01*
X162087999Y-101062000D01*
X162063613Y-101064402D01*
X162040164Y-101071515D01*
X162018553Y-101083066D01*
X161999611Y-101098611D01*
X161984066Y-101117553D01*
X161972515Y-101139164D01*
X161965402Y-101162613D01*
X161963000Y-101186999D01*
X161963000Y-101505001D01*
X161965402Y-101529387D01*
X161972515Y-101552836D01*
X161984066Y-101574447D01*
X161999611Y-101593389D01*
X162018553Y-101608934D01*
X162040164Y-101620485D01*
X162063613Y-101627598D01*
X162087999Y-101630000D01*
X162763000Y-101630000D01*
X162763000Y-102332000D01*
X162087999Y-102332000D01*
X162063613Y-102334402D01*
X162040164Y-102341515D01*
X162018553Y-102353066D01*
X161999611Y-102368611D01*
X161984066Y-102387553D01*
X161972515Y-102409164D01*
X161965402Y-102432613D01*
X161963000Y-102456999D01*
X161963000Y-102775001D01*
X161965402Y-102799387D01*
X161972515Y-102822836D01*
X161984066Y-102844447D01*
X161999611Y-102863389D01*
X162018553Y-102878934D01*
X162040164Y-102890485D01*
X162063613Y-102897598D01*
X162087999Y-102900000D01*
X162763000Y-102900000D01*
X162763000Y-103602000D01*
X158111000Y-103602000D01*
X158111000Y-99090000D01*
X162763000Y-99090000D01*
X162763000Y-99792000D01*
G37*
G36*
X157213000Y-103552000D02*
G01*
X156011000Y-103552000D01*
X156011000Y-102950000D01*
X157213000Y-102950000D01*
X157213000Y-103552000D01*
G37*
G36*
X126565000Y-103535000D02*
G01*
X125263000Y-103535000D01*
X125263000Y-101633000D01*
X126565000Y-101633000D01*
X126565000Y-103535000D01*
G37*
G36*
X124165000Y-103535000D02*
G01*
X122863000Y-103535000D01*
X122863000Y-101633000D01*
X124165000Y-101633000D01*
X124165000Y-103535000D01*
G37*
G36*
X168972591Y-102124085D02*
G01*
X169006569Y-102134393D01*
X169037890Y-102151134D01*
X169065339Y-102173661D01*
X169087866Y-102201110D01*
X169104607Y-102232431D01*
X169114915Y-102266409D01*
X169119000Y-102307890D01*
X169119000Y-102984110D01*
X169114915Y-103025591D01*
X169104607Y-103059569D01*
X169087866Y-103090890D01*
X169065339Y-103118339D01*
X169037890Y-103140866D01*
X169006569Y-103157607D01*
X168972591Y-103167915D01*
X168931110Y-103172000D01*
X168329890Y-103172000D01*
X168288409Y-103167915D01*
X168254431Y-103157607D01*
X168223110Y-103140866D01*
X168195661Y-103118339D01*
X168173134Y-103090890D01*
X168156393Y-103059569D01*
X168146085Y-103025591D01*
X168142000Y-102984110D01*
X168142000Y-102307890D01*
X168146085Y-102266409D01*
X168156393Y-102232431D01*
X168173134Y-102201110D01*
X168195661Y-102173661D01*
X168223110Y-102151134D01*
X168254431Y-102134393D01*
X168288409Y-102124085D01*
X168329890Y-102120000D01*
X168931110Y-102120000D01*
X168972591Y-102124085D01*
G37*
G36*
X170547591Y-102124085D02*
G01*
X170581569Y-102134393D01*
X170612890Y-102151134D01*
X170640339Y-102173661D01*
X170662866Y-102201110D01*
X170679607Y-102232431D01*
X170689915Y-102266409D01*
X170694000Y-102307890D01*
X170694000Y-102984110D01*
X170689915Y-103025591D01*
X170679607Y-103059569D01*
X170662866Y-103090890D01*
X170640339Y-103118339D01*
X170612890Y-103140866D01*
X170581569Y-103157607D01*
X170547591Y-103167915D01*
X170506110Y-103172000D01*
X169904890Y-103172000D01*
X169863409Y-103167915D01*
X169829431Y-103157607D01*
X169798110Y-103140866D01*
X169770661Y-103118339D01*
X169748134Y-103090890D01*
X169731393Y-103059569D01*
X169721085Y-103025591D01*
X169717000Y-102984110D01*
X169717000Y-102307890D01*
X169721085Y-102266409D01*
X169731393Y-102232431D01*
X169748134Y-102201110D01*
X169770661Y-102173661D01*
X169798110Y-102151134D01*
X169829431Y-102134393D01*
X169863409Y-102124085D01*
X169904890Y-102120000D01*
X170506110Y-102120000D01*
X170547591Y-102124085D01*
G37*
G36*
X165978591Y-102124085D02*
G01*
X166012569Y-102134393D01*
X166043890Y-102151134D01*
X166071339Y-102173661D01*
X166093866Y-102201110D01*
X166110607Y-102232431D01*
X166120915Y-102266409D01*
X166125000Y-102307890D01*
X166125000Y-102984110D01*
X166120915Y-103025591D01*
X166110607Y-103059569D01*
X166093866Y-103090890D01*
X166071339Y-103118339D01*
X166043890Y-103140866D01*
X166012569Y-103157607D01*
X165978591Y-103167915D01*
X165937110Y-103172000D01*
X165335890Y-103172000D01*
X165294409Y-103167915D01*
X165260431Y-103157607D01*
X165229110Y-103140866D01*
X165201661Y-103118339D01*
X165179134Y-103090890D01*
X165162393Y-103059569D01*
X165152085Y-103025591D01*
X165148000Y-102984110D01*
X165148000Y-102307890D01*
X165152085Y-102266409D01*
X165162393Y-102232431D01*
X165179134Y-102201110D01*
X165201661Y-102173661D01*
X165229110Y-102151134D01*
X165260431Y-102134393D01*
X165294409Y-102124085D01*
X165335890Y-102120000D01*
X165937110Y-102120000D01*
X165978591Y-102124085D01*
G37*
G36*
X167553591Y-102124085D02*
G01*
X167587569Y-102134393D01*
X167618890Y-102151134D01*
X167646339Y-102173661D01*
X167668866Y-102201110D01*
X167685607Y-102232431D01*
X167695915Y-102266409D01*
X167700000Y-102307890D01*
X167700000Y-102984110D01*
X167695915Y-103025591D01*
X167685607Y-103059569D01*
X167668866Y-103090890D01*
X167646339Y-103118339D01*
X167618890Y-103140866D01*
X167587569Y-103157607D01*
X167553591Y-103167915D01*
X167512110Y-103172000D01*
X166910890Y-103172000D01*
X166869409Y-103167915D01*
X166835431Y-103157607D01*
X166804110Y-103140866D01*
X166776661Y-103118339D01*
X166754134Y-103090890D01*
X166737393Y-103059569D01*
X166727085Y-103025591D01*
X166723000Y-102984110D01*
X166723000Y-102307890D01*
X166727085Y-102266409D01*
X166737393Y-102232431D01*
X166754134Y-102201110D01*
X166776661Y-102173661D01*
X166804110Y-102151134D01*
X166835431Y-102134393D01*
X166869409Y-102124085D01*
X166910890Y-102120000D01*
X167512110Y-102120000D01*
X167553591Y-102124085D01*
G37*
G36*
X154861798Y-100984247D02*
G01*
X154897367Y-100995037D01*
X154930139Y-101012554D01*
X154958869Y-101036131D01*
X154982446Y-101064861D01*
X154999963Y-101097633D01*
X155010753Y-101133202D01*
X155015000Y-101176325D01*
X155015000Y-102235675D01*
X155010753Y-102278798D01*
X154999963Y-102314367D01*
X154982446Y-102347139D01*
X154958869Y-102375869D01*
X154930139Y-102399446D01*
X154897367Y-102416963D01*
X154861798Y-102427753D01*
X154818675Y-102432000D01*
X151759325Y-102432000D01*
X151716202Y-102427753D01*
X151680633Y-102416963D01*
X151647861Y-102399446D01*
X151619131Y-102375869D01*
X151595554Y-102347139D01*
X151578037Y-102314367D01*
X151567247Y-102278798D01*
X151563000Y-102235675D01*
X151563000Y-101176325D01*
X151567247Y-101133202D01*
X151578037Y-101097633D01*
X151595554Y-101064861D01*
X151619131Y-101036131D01*
X151647861Y-101012554D01*
X151680633Y-100995037D01*
X151716202Y-100984247D01*
X151759325Y-100980000D01*
X154818675Y-100980000D01*
X154861798Y-100984247D01*
G37*
G36*
X157213000Y-102282000D02*
G01*
X156011000Y-102282000D01*
X156011000Y-101680000D01*
X156386001Y-101680000D01*
X156410387Y-101677598D01*
X156433836Y-101670485D01*
X156455447Y-101658934D01*
X156474389Y-101643389D01*
X156489934Y-101624447D01*
X156501485Y-101602836D01*
X156508598Y-101579387D01*
X156511000Y-101555001D01*
X156511000Y-101136999D01*
X156508598Y-101112613D01*
X156501485Y-101089164D01*
X156489934Y-101067553D01*
X156474389Y-101048611D01*
X156455447Y-101033066D01*
X156433836Y-101021515D01*
X156410387Y-101014402D01*
X156386001Y-101012000D01*
X156011000Y-101012000D01*
X156011000Y-100410000D01*
X156386001Y-100410000D01*
X156410387Y-100407598D01*
X156433836Y-100400485D01*
X156455447Y-100388934D01*
X156474389Y-100373389D01*
X156489934Y-100354447D01*
X156501485Y-100332836D01*
X156508598Y-100309387D01*
X156511000Y-100285001D01*
X156511000Y-99866999D01*
X156508598Y-99842613D01*
X156501485Y-99819164D01*
X156489934Y-99797553D01*
X156474389Y-99778611D01*
X156455447Y-99763066D01*
X156433836Y-99751515D01*
X156410387Y-99744402D01*
X156386001Y-99742000D01*
X156011000Y-99742000D01*
X156011000Y-99140000D01*
X156386001Y-99140000D01*
X156410387Y-99137598D01*
X156433836Y-99130485D01*
X156455447Y-99118934D01*
X156474389Y-99103389D01*
X156489934Y-99084447D01*
X156501485Y-99062836D01*
X156508598Y-99039387D01*
X156511000Y-99015001D01*
X156511000Y-98980000D01*
X157213000Y-98980000D01*
X157213000Y-102282000D01*
G37*
G36*
X172466000Y-92583000D02*
G01*
X172466000Y-100711000D01*
X171958000Y-101219000D01*
X163957000Y-101219000D01*
X163449000Y-100711000D01*
X163449000Y-92583000D01*
X163957000Y-92075000D01*
X171958000Y-92075000D01*
X172466000Y-92583000D01*
G37*
G36*
X124165000Y-99535000D02*
G01*
X122863000Y-99535000D01*
X122863000Y-97633000D01*
X124165000Y-97633000D01*
X124165000Y-99535000D01*
G37*
G36*
X126565000Y-99535000D02*
G01*
X125263000Y-99535000D01*
X125263000Y-97633000D01*
X126565000Y-97633000D01*
X126565000Y-99535000D01*
G37*
G36*
X158939591Y-97141085D02*
G01*
X158973569Y-97151393D01*
X159004890Y-97168134D01*
X159032339Y-97190661D01*
X159054866Y-97218110D01*
X159071607Y-97249431D01*
X159081915Y-97283409D01*
X159086000Y-97324890D01*
X159086000Y-98001110D01*
X159081915Y-98042591D01*
X159071607Y-98076569D01*
X159054866Y-98107890D01*
X159032339Y-98135339D01*
X159004890Y-98157866D01*
X158973569Y-98174607D01*
X158939591Y-98184915D01*
X158898110Y-98189000D01*
X158296890Y-98189000D01*
X158255409Y-98184915D01*
X158221431Y-98174607D01*
X158190110Y-98157866D01*
X158162661Y-98135339D01*
X158140134Y-98107890D01*
X158123393Y-98076569D01*
X158113085Y-98042591D01*
X158109000Y-98001110D01*
X158109000Y-97324890D01*
X158113085Y-97283409D01*
X158123393Y-97249431D01*
X158140134Y-97218110D01*
X158162661Y-97190661D01*
X158190110Y-97168134D01*
X158221431Y-97151393D01*
X158255409Y-97141085D01*
X158296890Y-97137000D01*
X158898110Y-97137000D01*
X158939591Y-97141085D01*
G37*
G36*
X160514591Y-97141085D02*
G01*
X160548569Y-97151393D01*
X160579890Y-97168134D01*
X160607339Y-97190661D01*
X160629866Y-97218110D01*
X160646607Y-97249431D01*
X160656915Y-97283409D01*
X160661000Y-97324890D01*
X160661000Y-98001110D01*
X160656915Y-98042591D01*
X160646607Y-98076569D01*
X160629866Y-98107890D01*
X160607339Y-98135339D01*
X160579890Y-98157866D01*
X160548569Y-98174607D01*
X160514591Y-98184915D01*
X160473110Y-98189000D01*
X159871890Y-98189000D01*
X159830409Y-98184915D01*
X159796431Y-98174607D01*
X159765110Y-98157866D01*
X159737661Y-98135339D01*
X159715134Y-98107890D01*
X159698393Y-98076569D01*
X159688085Y-98042591D01*
X159684000Y-98001110D01*
X159684000Y-97324890D01*
X159688085Y-97283409D01*
X159698393Y-97249431D01*
X159715134Y-97218110D01*
X159737661Y-97190661D01*
X159765110Y-97168134D01*
X159796431Y-97151393D01*
X159830409Y-97141085D01*
X159871890Y-97137000D01*
X160473110Y-97137000D01*
X160514591Y-97141085D01*
G37*
G36*
X141907304Y-96090452D02*
G01*
X141942400Y-96093908D01*
X141980293Y-96105403D01*
X142015207Y-96124065D01*
X142045816Y-96149184D01*
X142056374Y-96162049D01*
X142073701Y-96179376D01*
X142094075Y-96192990D01*
X142116714Y-96202367D01*
X142140747Y-96207148D01*
X142165251Y-96207148D01*
X142189284Y-96202368D01*
X142211923Y-96192991D01*
X142232298Y-96179377D01*
X142249628Y-96162046D01*
X142260183Y-96149183D01*
X142290791Y-96124065D01*
X142325705Y-96105403D01*
X142363598Y-96093908D01*
X142402998Y-96090028D01*
X142402999Y-96090028D01*
X142407303Y-96090452D01*
X142442399Y-96093908D01*
X142480292Y-96105403D01*
X142515206Y-96124065D01*
X142545815Y-96149184D01*
X142556373Y-96162049D01*
X142573700Y-96179376D01*
X142594074Y-96192990D01*
X142616713Y-96202367D01*
X142640746Y-96207148D01*
X142665250Y-96207148D01*
X142689283Y-96202368D01*
X142711922Y-96192991D01*
X142732297Y-96179377D01*
X142749627Y-96162046D01*
X142760182Y-96149183D01*
X142790790Y-96124065D01*
X142825704Y-96105403D01*
X142863597Y-96093908D01*
X142902997Y-96090028D01*
X142902998Y-96090028D01*
X142907302Y-96090452D01*
X142942398Y-96093908D01*
X142980291Y-96105403D01*
X143015205Y-96124065D01*
X143045815Y-96149185D01*
X143056373Y-96162050D01*
X143073700Y-96179377D01*
X143094075Y-96192991D01*
X143116713Y-96202369D01*
X143140747Y-96207149D01*
X143165251Y-96207149D01*
X143189284Y-96202369D01*
X143211923Y-96192991D01*
X143232297Y-96179378D01*
X143249625Y-96162050D01*
X143260184Y-96149184D01*
X143290792Y-96124065D01*
X143325706Y-96105403D01*
X143363599Y-96093908D01*
X143402999Y-96090028D01*
X143403000Y-96090028D01*
X143407304Y-96090452D01*
X143442400Y-96093908D01*
X143480293Y-96105403D01*
X143515207Y-96124065D01*
X143545816Y-96149184D01*
X143556374Y-96162049D01*
X143573701Y-96179376D01*
X143594075Y-96192990D01*
X143616714Y-96202367D01*
X143640747Y-96207148D01*
X143665251Y-96207148D01*
X143689284Y-96202368D01*
X143711923Y-96192991D01*
X143732298Y-96179377D01*
X143749628Y-96162046D01*
X143760183Y-96149183D01*
X143790791Y-96124065D01*
X143825705Y-96105403D01*
X143863598Y-96093908D01*
X143902998Y-96090028D01*
X143902999Y-96090028D01*
X143907303Y-96090452D01*
X143942399Y-96093908D01*
X143980292Y-96105403D01*
X144015206Y-96124065D01*
X144045816Y-96149185D01*
X144056374Y-96162050D01*
X144073701Y-96179377D01*
X144094076Y-96192991D01*
X144116714Y-96202369D01*
X144140748Y-96207149D01*
X144165252Y-96207149D01*
X144189285Y-96202369D01*
X144211924Y-96192991D01*
X144232298Y-96179378D01*
X144249628Y-96162048D01*
X144249768Y-96161878D01*
X144260185Y-96149184D01*
X144290791Y-96124066D01*
X144290790Y-96124066D01*
X144290792Y-96124065D01*
X144325706Y-96105403D01*
X144363599Y-96093908D01*
X144402999Y-96090028D01*
X144403000Y-96090028D01*
X144407304Y-96090452D01*
X144442400Y-96093908D01*
X144480293Y-96105403D01*
X144515207Y-96124065D01*
X144545816Y-96149184D01*
X144556374Y-96162049D01*
X144573701Y-96179376D01*
X144594075Y-96192990D01*
X144616714Y-96202367D01*
X144640747Y-96207148D01*
X144665251Y-96207148D01*
X144689284Y-96202368D01*
X144711923Y-96192991D01*
X144732298Y-96179377D01*
X144749626Y-96162049D01*
X144760184Y-96149183D01*
X144790792Y-96124065D01*
X144825706Y-96105403D01*
X144863599Y-96093908D01*
X144902999Y-96090028D01*
X144903000Y-96090028D01*
X144907304Y-96090452D01*
X144942400Y-96093908D01*
X144980293Y-96105403D01*
X145015207Y-96124065D01*
X145045819Y-96149186D01*
X145056373Y-96162047D01*
X145073699Y-96179375D01*
X145094074Y-96192989D01*
X145116712Y-96202366D01*
X145140746Y-96207147D01*
X145165250Y-96207147D01*
X145189283Y-96202367D01*
X145211922Y-96192990D01*
X145232296Y-96179376D01*
X145249625Y-96162047D01*
X145260180Y-96149185D01*
X145290790Y-96124065D01*
X145325704Y-96105403D01*
X145363597Y-96093908D01*
X145402997Y-96090028D01*
X145402998Y-96090028D01*
X145407302Y-96090452D01*
X145442398Y-96093908D01*
X145480291Y-96105403D01*
X145515205Y-96124065D01*
X145545815Y-96149185D01*
X145556373Y-96162050D01*
X145573700Y-96179377D01*
X145594075Y-96192991D01*
X145616713Y-96202369D01*
X145640747Y-96207149D01*
X145665251Y-96207149D01*
X145689284Y-96202369D01*
X145711923Y-96192991D01*
X145732297Y-96179378D01*
X145749625Y-96162050D01*
X145760184Y-96149184D01*
X145790792Y-96124065D01*
X145825706Y-96105403D01*
X145863599Y-96093908D01*
X145902999Y-96090028D01*
X145903000Y-96090028D01*
X145907304Y-96090452D01*
X145942400Y-96093908D01*
X145980293Y-96105403D01*
X146015207Y-96124065D01*
X146045816Y-96149184D01*
X146056374Y-96162049D01*
X146073701Y-96179376D01*
X146094075Y-96192990D01*
X146116714Y-96202367D01*
X146140747Y-96207148D01*
X146165251Y-96207148D01*
X146189284Y-96202368D01*
X146211923Y-96192991D01*
X146232298Y-96179377D01*
X146249628Y-96162046D01*
X146260183Y-96149183D01*
X146290791Y-96124065D01*
X146325705Y-96105403D01*
X146363598Y-96093908D01*
X146402998Y-96090028D01*
X146402999Y-96090028D01*
X146407303Y-96090452D01*
X146442399Y-96093908D01*
X146480292Y-96105403D01*
X146515206Y-96124065D01*
X146545816Y-96149185D01*
X146556374Y-96162050D01*
X146573701Y-96179377D01*
X146594076Y-96192991D01*
X146616714Y-96202369D01*
X146640748Y-96207149D01*
X146665252Y-96207149D01*
X146689285Y-96202369D01*
X146711924Y-96192991D01*
X146732298Y-96179378D01*
X146749626Y-96162050D01*
X146760185Y-96149184D01*
X146790793Y-96124065D01*
X146825707Y-96105403D01*
X146863600Y-96093908D01*
X146903000Y-96090028D01*
X146903001Y-96090028D01*
X146907305Y-96090452D01*
X146942401Y-96093908D01*
X146980294Y-96105403D01*
X147015208Y-96124065D01*
X147045817Y-96149184D01*
X147056375Y-96162049D01*
X147073702Y-96179376D01*
X147094076Y-96192990D01*
X147116715Y-96202367D01*
X147140748Y-96207148D01*
X147165252Y-96207148D01*
X147189285Y-96202368D01*
X147211924Y-96192991D01*
X147232299Y-96179377D01*
X147249629Y-96162046D01*
X147260184Y-96149183D01*
X147290792Y-96124065D01*
X147325706Y-96105403D01*
X147363599Y-96093908D01*
X147402999Y-96090028D01*
X147403000Y-96090028D01*
X147407304Y-96090452D01*
X147442400Y-96093908D01*
X147480293Y-96105403D01*
X147515207Y-96124065D01*
X147545816Y-96149184D01*
X147570934Y-96179791D01*
X147589596Y-96214705D01*
X147601091Y-96252598D01*
X147603999Y-96282125D01*
X147603999Y-97451875D01*
X147601091Y-97481402D01*
X147589596Y-97519295D01*
X147570934Y-97554209D01*
X147545816Y-97584817D01*
X147515208Y-97609935D01*
X147480294Y-97628597D01*
X147442401Y-97640092D01*
X147403001Y-97643972D01*
X147403000Y-97643972D01*
X147398696Y-97643548D01*
X147363600Y-97640092D01*
X147325707Y-97628597D01*
X147290793Y-97609935D01*
X147260185Y-97584817D01*
X147249627Y-97571951D01*
X147232300Y-97554624D01*
X147211926Y-97541010D01*
X147189287Y-97531633D01*
X147165254Y-97526852D01*
X147140750Y-97526852D01*
X147116717Y-97531632D01*
X147094078Y-97541009D01*
X147073703Y-97554623D01*
X147056375Y-97571951D01*
X147045817Y-97584817D01*
X147015209Y-97609935D01*
X146980295Y-97628597D01*
X146942402Y-97640092D01*
X146903002Y-97643972D01*
X146903001Y-97643972D01*
X146898697Y-97643548D01*
X146863601Y-97640092D01*
X146825708Y-97628597D01*
X146790794Y-97609935D01*
X146760185Y-97584816D01*
X146749628Y-97571951D01*
X146732302Y-97554623D01*
X146711928Y-97541009D01*
X146689289Y-97531631D01*
X146665256Y-97526850D01*
X146640752Y-97526850D01*
X146616719Y-97531630D01*
X146594080Y-97541006D01*
X146573705Y-97554620D01*
X146556376Y-97571948D01*
X146545816Y-97584816D01*
X146515207Y-97609935D01*
X146480293Y-97628597D01*
X146442400Y-97640092D01*
X146403000Y-97643972D01*
X146402999Y-97643972D01*
X146398695Y-97643548D01*
X146363599Y-97640092D01*
X146325706Y-97628597D01*
X146290792Y-97609935D01*
X146260184Y-97584817D01*
X146249626Y-97571951D01*
X146232299Y-97554624D01*
X146211925Y-97541010D01*
X146189286Y-97531633D01*
X146165253Y-97526852D01*
X146140749Y-97526852D01*
X146116716Y-97531632D01*
X146094077Y-97541009D01*
X146073702Y-97554623D01*
X146056374Y-97571951D01*
X146045816Y-97584817D01*
X146015208Y-97609935D01*
X145980294Y-97628597D01*
X145942401Y-97640092D01*
X145903001Y-97643972D01*
X145903000Y-97643972D01*
X145898696Y-97643548D01*
X145863600Y-97640092D01*
X145825707Y-97628597D01*
X145790793Y-97609935D01*
X145760184Y-97584816D01*
X145749627Y-97571951D01*
X145732301Y-97554623D01*
X145711927Y-97541009D01*
X145689288Y-97531631D01*
X145665255Y-97526850D01*
X145640751Y-97526850D01*
X145616718Y-97531630D01*
X145594079Y-97541006D01*
X145573704Y-97554620D01*
X145556375Y-97571948D01*
X145545815Y-97584816D01*
X145515206Y-97609935D01*
X145480292Y-97628597D01*
X145442399Y-97640092D01*
X145402999Y-97643972D01*
X145402998Y-97643972D01*
X145398694Y-97643548D01*
X145363598Y-97640092D01*
X145325705Y-97628597D01*
X145290791Y-97609935D01*
X145260181Y-97584815D01*
X145249626Y-97571953D01*
X145232300Y-97554625D01*
X145211925Y-97541011D01*
X145189287Y-97531634D01*
X145165253Y-97526853D01*
X145140749Y-97526853D01*
X145116716Y-97531633D01*
X145094077Y-97541010D01*
X145073703Y-97554624D01*
X145056376Y-97571950D01*
X145045818Y-97584815D01*
X145015208Y-97609935D01*
X144980294Y-97628597D01*
X144942401Y-97640092D01*
X144903001Y-97643972D01*
X144903000Y-97643972D01*
X144898696Y-97643548D01*
X144863600Y-97640092D01*
X144825707Y-97628597D01*
X144790793Y-97609935D01*
X144760188Y-97584818D01*
X144760186Y-97584815D01*
X144749625Y-97571948D01*
X144732302Y-97554625D01*
X144711928Y-97541010D01*
X144689290Y-97531632D01*
X144665257Y-97526851D01*
X144640753Y-97526851D01*
X144616719Y-97531630D01*
X144594080Y-97541007D01*
X144573705Y-97554620D01*
X144556375Y-97571950D01*
X144545816Y-97584816D01*
X144515208Y-97609935D01*
X144480294Y-97628597D01*
X144442401Y-97640092D01*
X144403001Y-97643972D01*
X144403000Y-97643972D01*
X144398696Y-97643548D01*
X144363600Y-97640092D01*
X144325707Y-97628597D01*
X144290793Y-97609935D01*
X144260185Y-97584816D01*
X144249626Y-97571950D01*
X144232299Y-97554623D01*
X144211924Y-97541009D01*
X144189286Y-97531631D01*
X144165252Y-97526851D01*
X144140748Y-97526851D01*
X144116715Y-97531631D01*
X144094076Y-97541009D01*
X144073702Y-97554622D01*
X144056374Y-97571950D01*
X144045815Y-97584816D01*
X144015207Y-97609935D01*
X143980293Y-97628597D01*
X143942400Y-97640092D01*
X143903000Y-97643972D01*
X143902999Y-97643972D01*
X143898695Y-97643548D01*
X143863599Y-97640092D01*
X143825706Y-97628597D01*
X143790792Y-97609935D01*
X143760184Y-97584817D01*
X143749626Y-97571951D01*
X143732299Y-97554624D01*
X143711925Y-97541010D01*
X143689286Y-97531633D01*
X143665253Y-97526852D01*
X143640749Y-97526852D01*
X143616716Y-97531632D01*
X143594077Y-97541009D01*
X143573702Y-97554623D01*
X143556374Y-97571951D01*
X143545816Y-97584817D01*
X143515208Y-97609935D01*
X143480294Y-97628597D01*
X143442401Y-97640092D01*
X143403001Y-97643972D01*
X143403000Y-97643972D01*
X143398696Y-97643548D01*
X143363600Y-97640092D01*
X143325707Y-97628597D01*
X143290793Y-97609935D01*
X143260184Y-97584816D01*
X143249627Y-97571951D01*
X143232301Y-97554623D01*
X143211927Y-97541009D01*
X143189288Y-97531631D01*
X143165255Y-97526850D01*
X143140751Y-97526850D01*
X143116718Y-97531630D01*
X143094079Y-97541006D01*
X143073704Y-97554620D01*
X143056375Y-97571948D01*
X143045815Y-97584816D01*
X143015206Y-97609935D01*
X142980292Y-97628597D01*
X142942399Y-97640092D01*
X142902999Y-97643972D01*
X142902998Y-97643972D01*
X142898694Y-97643548D01*
X142863598Y-97640092D01*
X142825705Y-97628597D01*
X142790791Y-97609935D01*
X142760183Y-97584817D01*
X142749625Y-97571951D01*
X142732298Y-97554624D01*
X142711924Y-97541010D01*
X142689285Y-97531633D01*
X142665252Y-97526852D01*
X142640748Y-97526852D01*
X142616715Y-97531632D01*
X142594076Y-97541009D01*
X142573701Y-97554623D01*
X142556373Y-97571951D01*
X142545815Y-97584817D01*
X142515207Y-97609935D01*
X142480293Y-97628597D01*
X142442400Y-97640092D01*
X142403000Y-97643972D01*
X142402999Y-97643972D01*
X142398695Y-97643548D01*
X142363599Y-97640092D01*
X142325706Y-97628597D01*
X142290792Y-97609935D01*
X142260184Y-97584817D01*
X142249626Y-97571951D01*
X142232299Y-97554624D01*
X142211925Y-97541010D01*
X142189286Y-97531633D01*
X142165253Y-97526852D01*
X142140749Y-97526852D01*
X142116716Y-97531632D01*
X142094077Y-97541009D01*
X142073702Y-97554623D01*
X142056374Y-97571951D01*
X142045816Y-97584817D01*
X142015208Y-97609935D01*
X141980294Y-97628597D01*
X141942401Y-97640092D01*
X141903001Y-97643972D01*
X141903000Y-97643972D01*
X141898696Y-97643548D01*
X141863600Y-97640092D01*
X141825707Y-97628597D01*
X141790793Y-97609935D01*
X141760185Y-97584817D01*
X141735067Y-97554209D01*
X141716405Y-97519295D01*
X141704910Y-97481402D01*
X141702002Y-97451874D01*
X141702001Y-96282126D01*
X141704909Y-96252599D01*
X141716404Y-96214706D01*
X141735066Y-96179792D01*
X141760185Y-96149183D01*
X141790792Y-96124065D01*
X141825706Y-96105403D01*
X141863599Y-96093908D01*
X141902999Y-96090028D01*
X141903000Y-96090028D01*
X141907304Y-96090452D01*
G37*
G36*
X135666000Y-97642500D02*
G01*
X129764000Y-97642500D01*
X129764000Y-96065500D01*
X135666000Y-96065500D01*
X135666000Y-97642500D01*
G37*
G36*
X138301591Y-96569085D02*
G01*
X138335569Y-96579393D01*
X138366890Y-96596134D01*
X138394339Y-96618661D01*
X138416866Y-96646110D01*
X138433607Y-96677431D01*
X138443915Y-96711409D01*
X138448000Y-96752890D01*
X138448000Y-97354110D01*
X138443915Y-97395591D01*
X138433607Y-97429569D01*
X138416866Y-97460890D01*
X138394339Y-97488339D01*
X138366890Y-97510866D01*
X138335569Y-97527607D01*
X138301591Y-97537915D01*
X138260110Y-97542000D01*
X137583890Y-97542000D01*
X137542409Y-97537915D01*
X137508431Y-97527607D01*
X137477110Y-97510866D01*
X137449661Y-97488339D01*
X137427134Y-97460890D01*
X137410393Y-97429569D01*
X137400085Y-97395591D01*
X137396000Y-97354110D01*
X137396000Y-96752890D01*
X137400085Y-96711409D01*
X137410393Y-96677431D01*
X137427134Y-96646110D01*
X137449661Y-96618661D01*
X137477110Y-96596134D01*
X137508431Y-96579393D01*
X137542409Y-96569085D01*
X137583890Y-96565000D01*
X138260110Y-96565000D01*
X138301591Y-96569085D01*
G37*
G36*
X125843591Y-96252085D02*
G01*
X125877569Y-96262393D01*
X125908890Y-96279134D01*
X125936339Y-96301661D01*
X125958866Y-96329110D01*
X125975607Y-96360431D01*
X125985915Y-96394409D01*
X125990000Y-96435890D01*
X125990000Y-97112110D01*
X125985915Y-97153591D01*
X125975607Y-97187569D01*
X125958866Y-97218890D01*
X125936339Y-97246339D01*
X125908890Y-97268866D01*
X125877569Y-97285607D01*
X125843591Y-97295915D01*
X125802110Y-97300000D01*
X125200890Y-97300000D01*
X125159409Y-97295915D01*
X125125431Y-97285607D01*
X125094110Y-97268866D01*
X125066661Y-97246339D01*
X125044134Y-97218890D01*
X125027393Y-97187569D01*
X125017085Y-97153591D01*
X125013000Y-97112110D01*
X125013000Y-96435890D01*
X125017085Y-96394409D01*
X125027393Y-96360431D01*
X125044134Y-96329110D01*
X125066661Y-96301661D01*
X125094110Y-96279134D01*
X125125431Y-96262393D01*
X125159409Y-96252085D01*
X125200890Y-96248000D01*
X125802110Y-96248000D01*
X125843591Y-96252085D01*
G37*
G36*
X124268591Y-96252085D02*
G01*
X124302569Y-96262393D01*
X124333890Y-96279134D01*
X124361339Y-96301661D01*
X124383866Y-96329110D01*
X124400607Y-96360431D01*
X124410915Y-96394409D01*
X124415000Y-96435890D01*
X124415000Y-97112110D01*
X124410915Y-97153591D01*
X124400607Y-97187569D01*
X124383866Y-97218890D01*
X124361339Y-97246339D01*
X124333890Y-97268866D01*
X124302569Y-97285607D01*
X124268591Y-97295915D01*
X124227110Y-97300000D01*
X123625890Y-97300000D01*
X123584409Y-97295915D01*
X123550431Y-97285607D01*
X123519110Y-97268866D01*
X123491661Y-97246339D01*
X123469134Y-97218890D01*
X123452393Y-97187569D01*
X123442085Y-97153591D01*
X123438000Y-97112110D01*
X123438000Y-96435890D01*
X123442085Y-96394409D01*
X123452393Y-96360431D01*
X123469134Y-96329110D01*
X123491661Y-96301661D01*
X123519110Y-96279134D01*
X123550431Y-96262393D01*
X123584409Y-96252085D01*
X123625890Y-96248000D01*
X124227110Y-96248000D01*
X124268591Y-96252085D01*
G37*
G36*
X154861798Y-95184247D02*
G01*
X154897367Y-95195037D01*
X154930139Y-95212554D01*
X154958869Y-95236131D01*
X154982446Y-95264861D01*
X154999963Y-95297633D01*
X155010753Y-95333202D01*
X155015000Y-95376325D01*
X155015000Y-96435675D01*
X155010753Y-96478798D01*
X154999963Y-96514367D01*
X154982446Y-96547139D01*
X154958869Y-96575869D01*
X154930139Y-96599446D01*
X154897367Y-96616963D01*
X154861798Y-96627753D01*
X154818675Y-96632000D01*
X151759325Y-96632000D01*
X151716202Y-96627753D01*
X151680633Y-96616963D01*
X151647861Y-96599446D01*
X151619131Y-96575869D01*
X151595554Y-96547139D01*
X151578037Y-96514367D01*
X151567247Y-96478798D01*
X151563000Y-96435675D01*
X151563000Y-95376325D01*
X151567247Y-95333202D01*
X151578037Y-95297633D01*
X151595554Y-95264861D01*
X151619131Y-95236131D01*
X151647861Y-95212554D01*
X151680633Y-95195037D01*
X151716202Y-95184247D01*
X151759325Y-95180000D01*
X154818675Y-95180000D01*
X154861798Y-95184247D01*
G37*
G36*
X162831000Y-93646000D02*
G01*
X162455999Y-93646000D01*
X162431613Y-93648402D01*
X162408164Y-93655515D01*
X162386553Y-93667066D01*
X162367611Y-93682611D01*
X162352066Y-93701553D01*
X162340515Y-93723164D01*
X162333402Y-93746613D01*
X162331000Y-93770999D01*
X162331000Y-94189001D01*
X162333402Y-94213387D01*
X162340515Y-94236836D01*
X162352066Y-94258447D01*
X162367611Y-94277389D01*
X162386553Y-94292934D01*
X162408164Y-94304485D01*
X162431613Y-94311598D01*
X162455999Y-94314000D01*
X162831000Y-94314000D01*
X162831000Y-94916000D01*
X162455999Y-94916000D01*
X162431613Y-94918402D01*
X162408164Y-94925515D01*
X162386553Y-94937066D01*
X162367611Y-94952611D01*
X162352066Y-94971553D01*
X162340515Y-94993164D01*
X162333402Y-95016613D01*
X162331000Y-95040999D01*
X162331000Y-95459001D01*
X162333402Y-95483387D01*
X162340515Y-95506836D01*
X162352066Y-95528447D01*
X162367611Y-95547389D01*
X162386553Y-95562934D01*
X162408164Y-95574485D01*
X162431613Y-95581598D01*
X162455999Y-95584000D01*
X162831000Y-95584000D01*
X162831000Y-96186000D01*
X162455999Y-96186000D01*
X162431613Y-96188402D01*
X162408164Y-96195515D01*
X162386553Y-96207066D01*
X162367611Y-96222611D01*
X162352066Y-96241553D01*
X162340515Y-96263164D01*
X162333402Y-96286613D01*
X162331000Y-96310999D01*
X162331000Y-96346000D01*
X161629000Y-96346000D01*
X161629000Y-93044000D01*
X162831000Y-93044000D01*
X162831000Y-93646000D01*
G37*
G36*
X160731000Y-96236000D02*
G01*
X156079000Y-96236000D01*
X156079000Y-95534000D01*
X156754001Y-95534000D01*
X156778387Y-95531598D01*
X156801836Y-95524485D01*
X156823447Y-95512934D01*
X156842389Y-95497389D01*
X156857934Y-95478447D01*
X156869485Y-95456836D01*
X156876598Y-95433387D01*
X156879000Y-95409001D01*
X156879000Y-95090999D01*
X156876598Y-95066613D01*
X156869485Y-95043164D01*
X156857934Y-95021553D01*
X156842389Y-95002611D01*
X156823447Y-94987066D01*
X156801836Y-94975515D01*
X156778387Y-94968402D01*
X156754001Y-94966000D01*
X156079000Y-94966000D01*
X156079000Y-94264000D01*
X156754001Y-94264000D01*
X156778387Y-94261598D01*
X156801836Y-94254485D01*
X156823447Y-94242934D01*
X156842389Y-94227389D01*
X156857934Y-94208447D01*
X156869485Y-94186836D01*
X156876598Y-94163387D01*
X156879000Y-94139001D01*
X156879000Y-93820999D01*
X156876598Y-93796613D01*
X156869485Y-93773164D01*
X156857934Y-93751553D01*
X156842389Y-93732611D01*
X156823447Y-93717066D01*
X156801836Y-93705515D01*
X156778387Y-93698402D01*
X156754001Y-93696000D01*
X156079000Y-93696000D01*
X156079000Y-92994000D01*
X156754001Y-92994000D01*
X156778387Y-92991598D01*
X156801836Y-92984485D01*
X156823447Y-92972934D01*
X156842389Y-92957389D01*
X156857934Y-92938447D01*
X156869485Y-92916836D01*
X156876598Y-92893387D01*
X156879000Y-92869001D01*
X156879000Y-92550999D01*
X156876598Y-92526613D01*
X156869485Y-92503164D01*
X156857934Y-92481553D01*
X156842389Y-92462611D01*
X156823447Y-92447066D01*
X156801836Y-92435515D01*
X156778387Y-92428402D01*
X156754001Y-92426000D01*
X156079000Y-92426000D01*
X156079000Y-91724000D01*
X160731000Y-91724000D01*
X160731000Y-96236000D01*
G37*
G36*
X138301591Y-94994085D02*
G01*
X138335569Y-95004393D01*
X138366890Y-95021134D01*
X138394339Y-95043661D01*
X138416866Y-95071110D01*
X138433607Y-95102431D01*
X138443915Y-95136409D01*
X138448000Y-95177890D01*
X138448000Y-95779110D01*
X138443915Y-95820591D01*
X138433607Y-95854569D01*
X138416866Y-95885890D01*
X138394339Y-95913339D01*
X138366890Y-95935866D01*
X138335569Y-95952607D01*
X138301591Y-95962915D01*
X138260110Y-95967000D01*
X137583890Y-95967000D01*
X137542409Y-95962915D01*
X137508431Y-95952607D01*
X137477110Y-95935866D01*
X137449661Y-95913339D01*
X137427134Y-95885890D01*
X137410393Y-95854569D01*
X137400085Y-95820591D01*
X137396000Y-95779110D01*
X137396000Y-95177890D01*
X137400085Y-95136409D01*
X137410393Y-95102431D01*
X137427134Y-95071110D01*
X137449661Y-95043661D01*
X137477110Y-95021134D01*
X137508431Y-95004393D01*
X137542409Y-94994085D01*
X137583890Y-94990000D01*
X138260110Y-94990000D01*
X138301591Y-94994085D01*
G37*
G36*
X130733091Y-94601085D02*
G01*
X130767069Y-94611393D01*
X130798390Y-94628134D01*
X130825839Y-94650661D01*
X130848366Y-94678110D01*
X130865107Y-94709431D01*
X130875415Y-94743409D01*
X130879500Y-94784890D01*
X130879500Y-95461110D01*
X130875415Y-95502591D01*
X130865107Y-95536569D01*
X130848366Y-95567890D01*
X130825839Y-95595339D01*
X130798390Y-95617866D01*
X130767069Y-95634607D01*
X130733091Y-95644915D01*
X130691610Y-95649000D01*
X130090390Y-95649000D01*
X130048909Y-95644915D01*
X130014931Y-95634607D01*
X129983610Y-95617866D01*
X129956161Y-95595339D01*
X129933634Y-95567890D01*
X129916893Y-95536569D01*
X129906585Y-95502591D01*
X129902500Y-95461110D01*
X129902500Y-94784890D01*
X129906585Y-94743409D01*
X129916893Y-94709431D01*
X129933634Y-94678110D01*
X129956161Y-94650661D01*
X129983610Y-94628134D01*
X130014931Y-94611393D01*
X130048909Y-94601085D01*
X130090390Y-94597000D01*
X130691610Y-94597000D01*
X130733091Y-94601085D01*
G37*
G36*
X129158091Y-94601085D02*
G01*
X129192069Y-94611393D01*
X129223390Y-94628134D01*
X129250839Y-94650661D01*
X129273366Y-94678110D01*
X129290107Y-94709431D01*
X129300415Y-94743409D01*
X129304500Y-94784890D01*
X129304500Y-95461110D01*
X129300415Y-95502591D01*
X129290107Y-95536569D01*
X129273366Y-95567890D01*
X129250839Y-95595339D01*
X129223390Y-95617866D01*
X129192069Y-95634607D01*
X129158091Y-95644915D01*
X129116610Y-95649000D01*
X128515390Y-95649000D01*
X128473909Y-95644915D01*
X128439931Y-95634607D01*
X128408610Y-95617866D01*
X128381161Y-95595339D01*
X128358634Y-95567890D01*
X128341893Y-95536569D01*
X128331585Y-95502591D01*
X128327500Y-95461110D01*
X128327500Y-94784890D01*
X128331585Y-94743409D01*
X128341893Y-94709431D01*
X128358634Y-94678110D01*
X128381161Y-94650661D01*
X128408610Y-94628134D01*
X128439931Y-94611393D01*
X128473909Y-94601085D01*
X128515390Y-94597000D01*
X129116610Y-94597000D01*
X129158091Y-94601085D01*
G37*
G36*
X124331591Y-94562585D02*
G01*
X124365569Y-94572893D01*
X124396890Y-94589634D01*
X124424339Y-94612161D01*
X124446866Y-94639610D01*
X124463607Y-94670931D01*
X124473915Y-94704909D01*
X124478000Y-94746390D01*
X124478000Y-95347610D01*
X124473915Y-95389091D01*
X124463607Y-95423069D01*
X124446866Y-95454390D01*
X124424339Y-95481839D01*
X124396890Y-95504366D01*
X124365569Y-95521107D01*
X124331591Y-95531415D01*
X124290110Y-95535500D01*
X123613890Y-95535500D01*
X123572409Y-95531415D01*
X123538431Y-95521107D01*
X123507110Y-95504366D01*
X123479661Y-95481839D01*
X123457134Y-95454390D01*
X123440393Y-95423069D01*
X123430085Y-95389091D01*
X123426000Y-95347610D01*
X123426000Y-94746390D01*
X123430085Y-94704909D01*
X123440393Y-94670931D01*
X123457134Y-94639610D01*
X123479661Y-94612161D01*
X123507110Y-94589634D01*
X123538431Y-94572893D01*
X123572409Y-94562585D01*
X123613890Y-94558500D01*
X124290110Y-94558500D01*
X124331591Y-94562585D01*
G37*
G36*
X148068591Y-94474085D02*
G01*
X148102569Y-94484393D01*
X148133890Y-94501134D01*
X148161339Y-94523661D01*
X148183866Y-94551110D01*
X148200607Y-94582431D01*
X148210915Y-94616409D01*
X148215000Y-94657890D01*
X148215000Y-95334110D01*
X148210915Y-95375591D01*
X148200607Y-95409569D01*
X148183866Y-95440890D01*
X148161339Y-95468339D01*
X148133890Y-95490866D01*
X148102569Y-95507607D01*
X148068591Y-95517915D01*
X148027110Y-95522000D01*
X147425890Y-95522000D01*
X147384409Y-95517915D01*
X147350431Y-95507607D01*
X147319110Y-95490866D01*
X147291661Y-95468339D01*
X147269134Y-95440890D01*
X147252393Y-95409569D01*
X147242085Y-95375591D01*
X147238000Y-95334110D01*
X147238000Y-94657890D01*
X147242085Y-94616409D01*
X147252393Y-94582431D01*
X147269134Y-94551110D01*
X147291661Y-94523661D01*
X147319110Y-94501134D01*
X147350431Y-94484393D01*
X147384409Y-94474085D01*
X147425890Y-94470000D01*
X148027110Y-94470000D01*
X148068591Y-94474085D01*
G37*
G36*
X146493591Y-94474085D02*
G01*
X146527569Y-94484393D01*
X146558890Y-94501134D01*
X146586339Y-94523661D01*
X146608866Y-94551110D01*
X146625607Y-94582431D01*
X146635915Y-94616409D01*
X146640000Y-94657890D01*
X146640000Y-95334110D01*
X146635915Y-95375591D01*
X146625607Y-95409569D01*
X146608866Y-95440890D01*
X146586339Y-95468339D01*
X146558890Y-95490866D01*
X146527569Y-95507607D01*
X146493591Y-95517915D01*
X146452110Y-95522000D01*
X145850890Y-95522000D01*
X145809409Y-95517915D01*
X145775431Y-95507607D01*
X145744110Y-95490866D01*
X145716661Y-95468339D01*
X145694134Y-95440890D01*
X145677393Y-95409569D01*
X145667085Y-95375591D01*
X145663000Y-95334110D01*
X145663000Y-94657890D01*
X145667085Y-94616409D01*
X145677393Y-94582431D01*
X145694134Y-94551110D01*
X145716661Y-94523661D01*
X145744110Y-94501134D01*
X145775431Y-94484393D01*
X145809409Y-94474085D01*
X145850890Y-94470000D01*
X146452110Y-94470000D01*
X146493591Y-94474085D01*
G37*
G36*
X125855591Y-94537085D02*
G01*
X125889569Y-94547393D01*
X125920890Y-94564134D01*
X125948339Y-94586661D01*
X125970866Y-94614110D01*
X125987607Y-94645431D01*
X125997915Y-94679409D01*
X126002000Y-94720890D01*
X126002000Y-95322110D01*
X125997915Y-95363591D01*
X125987607Y-95397569D01*
X125970866Y-95428890D01*
X125948339Y-95456339D01*
X125920890Y-95478866D01*
X125889569Y-95495607D01*
X125855591Y-95505915D01*
X125814110Y-95510000D01*
X125137890Y-95510000D01*
X125096409Y-95505915D01*
X125062431Y-95495607D01*
X125031110Y-95478866D01*
X125003661Y-95456339D01*
X124981134Y-95428890D01*
X124964393Y-95397569D01*
X124954085Y-95363591D01*
X124950000Y-95322110D01*
X124950000Y-94720890D01*
X124954085Y-94679409D01*
X124964393Y-94645431D01*
X124981134Y-94614110D01*
X125003661Y-94586661D01*
X125031110Y-94564134D01*
X125062431Y-94547393D01*
X125096409Y-94537085D01*
X125137890Y-94533000D01*
X125814110Y-94533000D01*
X125855591Y-94537085D01*
G37*
G36*
X144258591Y-93966085D02*
G01*
X144292569Y-93976393D01*
X144323890Y-93993134D01*
X144351339Y-94015661D01*
X144373866Y-94043110D01*
X144390607Y-94074431D01*
X144400915Y-94108409D01*
X144405000Y-94149890D01*
X144405000Y-94826110D01*
X144400915Y-94867591D01*
X144390607Y-94901569D01*
X144373866Y-94932890D01*
X144351339Y-94960339D01*
X144323890Y-94982866D01*
X144292569Y-94999607D01*
X144258591Y-95009915D01*
X144217110Y-95014000D01*
X143615890Y-95014000D01*
X143574409Y-95009915D01*
X143540431Y-94999607D01*
X143509110Y-94982866D01*
X143481661Y-94960339D01*
X143459134Y-94932890D01*
X143442393Y-94901569D01*
X143432085Y-94867591D01*
X143428000Y-94826110D01*
X143428000Y-94149890D01*
X143432085Y-94108409D01*
X143442393Y-94074431D01*
X143459134Y-94043110D01*
X143481661Y-94015661D01*
X143509110Y-93993134D01*
X143540431Y-93976393D01*
X143574409Y-93966085D01*
X143615890Y-93962000D01*
X144217110Y-93962000D01*
X144258591Y-93966085D01*
G37*
G36*
X142683591Y-93966085D02*
G01*
X142717569Y-93976393D01*
X142748890Y-93993134D01*
X142776339Y-94015661D01*
X142798866Y-94043110D01*
X142815607Y-94074431D01*
X142825915Y-94108409D01*
X142830000Y-94149890D01*
X142830000Y-94826110D01*
X142825915Y-94867591D01*
X142815607Y-94901569D01*
X142798866Y-94932890D01*
X142776339Y-94960339D01*
X142748890Y-94982866D01*
X142717569Y-94999607D01*
X142683591Y-95009915D01*
X142642110Y-95014000D01*
X142040890Y-95014000D01*
X141999409Y-95009915D01*
X141965431Y-94999607D01*
X141934110Y-94982866D01*
X141906661Y-94960339D01*
X141884134Y-94932890D01*
X141867393Y-94901569D01*
X141857085Y-94867591D01*
X141853000Y-94826110D01*
X141853000Y-94149890D01*
X141857085Y-94108409D01*
X141867393Y-94074431D01*
X141884134Y-94043110D01*
X141906661Y-94015661D01*
X141934110Y-93993134D01*
X141965431Y-93976393D01*
X141999409Y-93966085D01*
X142040890Y-93962000D01*
X142642110Y-93962000D01*
X142683591Y-93966085D01*
G37*
G36*
X138301591Y-93648085D02*
G01*
X138335569Y-93658393D01*
X138366890Y-93675134D01*
X138394339Y-93697661D01*
X138416866Y-93725110D01*
X138433607Y-93756431D01*
X138443915Y-93790409D01*
X138448000Y-93831890D01*
X138448000Y-94433110D01*
X138443915Y-94474591D01*
X138433607Y-94508569D01*
X138416866Y-94539890D01*
X138394339Y-94567339D01*
X138366890Y-94589866D01*
X138335569Y-94606607D01*
X138301591Y-94616915D01*
X138260110Y-94621000D01*
X137583890Y-94621000D01*
X137542409Y-94616915D01*
X137508431Y-94606607D01*
X137477110Y-94589866D01*
X137449661Y-94567339D01*
X137427134Y-94539890D01*
X137410393Y-94508569D01*
X137400085Y-94474591D01*
X137396000Y-94433110D01*
X137396000Y-93831890D01*
X137400085Y-93790409D01*
X137410393Y-93756431D01*
X137427134Y-93725110D01*
X137449661Y-93697661D01*
X137477110Y-93675134D01*
X137508431Y-93658393D01*
X137542409Y-93648085D01*
X137583890Y-93644000D01*
X138260110Y-93644000D01*
X138301591Y-93648085D01*
G37*
G36*
X147994468Y-92471565D02*
G01*
X148033138Y-92483296D01*
X148068777Y-92502346D01*
X148100017Y-92527983D01*
X148125654Y-92559223D01*
X148144704Y-92594862D01*
X148156435Y-92633532D01*
X148161000Y-92679888D01*
X148161000Y-93756112D01*
X148156435Y-93802468D01*
X148144704Y-93841138D01*
X148125654Y-93876777D01*
X148100017Y-93908017D01*
X148068777Y-93933654D01*
X148033138Y-93952704D01*
X147994468Y-93964435D01*
X147948112Y-93969000D01*
X147296888Y-93969000D01*
X147250532Y-93964435D01*
X147211862Y-93952704D01*
X147176223Y-93933654D01*
X147144983Y-93908017D01*
X147119346Y-93876777D01*
X147100296Y-93841138D01*
X147088565Y-93802468D01*
X147084000Y-93756112D01*
X147084000Y-92679888D01*
X147088565Y-92633532D01*
X147100296Y-92594862D01*
X147119346Y-92559223D01*
X147144983Y-92527983D01*
X147176223Y-92502346D01*
X147211862Y-92483296D01*
X147250532Y-92471565D01*
X147296888Y-92467000D01*
X147948112Y-92467000D01*
X147994468Y-92471565D01*
G37*
G36*
X146119468Y-92471565D02*
G01*
X146158138Y-92483296D01*
X146193777Y-92502346D01*
X146225017Y-92527983D01*
X146250654Y-92559223D01*
X146269704Y-92594862D01*
X146281435Y-92633532D01*
X146286000Y-92679888D01*
X146286000Y-93756112D01*
X146281435Y-93802468D01*
X146269704Y-93841138D01*
X146250654Y-93876777D01*
X146225017Y-93908017D01*
X146193777Y-93933654D01*
X146158138Y-93952704D01*
X146119468Y-93964435D01*
X146073112Y-93969000D01*
X145421888Y-93969000D01*
X145375532Y-93964435D01*
X145336862Y-93952704D01*
X145301223Y-93933654D01*
X145269983Y-93908017D01*
X145244346Y-93876777D01*
X145225296Y-93841138D01*
X145213565Y-93802468D01*
X145209000Y-93756112D01*
X145209000Y-92679888D01*
X145213565Y-92633532D01*
X145225296Y-92594862D01*
X145244346Y-92559223D01*
X145269983Y-92527983D01*
X145301223Y-92502346D01*
X145336862Y-92483296D01*
X145375532Y-92471565D01*
X145421888Y-92467000D01*
X146073112Y-92467000D01*
X146119468Y-92471565D01*
G37*
G36*
X124331591Y-92987585D02*
G01*
X124365569Y-92997893D01*
X124396890Y-93014634D01*
X124424339Y-93037161D01*
X124446866Y-93064610D01*
X124463607Y-93095931D01*
X124473915Y-93129909D01*
X124478000Y-93171390D01*
X124478000Y-93772610D01*
X124473915Y-93814091D01*
X124463607Y-93848069D01*
X124446866Y-93879390D01*
X124424339Y-93906839D01*
X124396890Y-93929366D01*
X124365569Y-93946107D01*
X124331591Y-93956415D01*
X124290110Y-93960500D01*
X123613890Y-93960500D01*
X123572409Y-93956415D01*
X123538431Y-93946107D01*
X123507110Y-93929366D01*
X123479661Y-93906839D01*
X123457134Y-93879390D01*
X123440393Y-93848069D01*
X123430085Y-93814091D01*
X123426000Y-93772610D01*
X123426000Y-93171390D01*
X123430085Y-93129909D01*
X123440393Y-93095931D01*
X123457134Y-93064610D01*
X123479661Y-93037161D01*
X123507110Y-93014634D01*
X123538431Y-92997893D01*
X123572409Y-92987585D01*
X123613890Y-92983500D01*
X124290110Y-92983500D01*
X124331591Y-92987585D01*
G37*
G36*
X125855591Y-92962085D02*
G01*
X125889569Y-92972393D01*
X125920890Y-92989134D01*
X125948339Y-93011661D01*
X125970866Y-93039110D01*
X125987607Y-93070431D01*
X125997915Y-93104409D01*
X126002000Y-93145890D01*
X126002000Y-93747110D01*
X125997915Y-93788591D01*
X125987607Y-93822569D01*
X125970866Y-93853890D01*
X125948339Y-93881339D01*
X125920890Y-93903866D01*
X125889569Y-93920607D01*
X125855591Y-93930915D01*
X125814110Y-93935000D01*
X125137890Y-93935000D01*
X125096409Y-93930915D01*
X125062431Y-93920607D01*
X125031110Y-93903866D01*
X125003661Y-93881339D01*
X124981134Y-93853890D01*
X124964393Y-93822569D01*
X124954085Y-93788591D01*
X124950000Y-93747110D01*
X124950000Y-93145890D01*
X124954085Y-93104409D01*
X124964393Y-93070431D01*
X124981134Y-93039110D01*
X125003661Y-93011661D01*
X125031110Y-92989134D01*
X125062431Y-92972393D01*
X125096409Y-92962085D01*
X125137890Y-92958000D01*
X125814110Y-92958000D01*
X125855591Y-92962085D01*
G37*
G36*
X135369132Y-91106810D02*
G01*
X135400423Y-91116302D01*
X135429263Y-91131717D01*
X135454539Y-91152461D01*
X135475283Y-91177737D01*
X135490698Y-91206577D01*
X135500190Y-91237868D01*
X135504000Y-91276551D01*
X135504000Y-93381449D01*
X135500190Y-93420132D01*
X135490698Y-93451423D01*
X135475283Y-93480263D01*
X135454539Y-93505539D01*
X135429263Y-93526283D01*
X135400423Y-93541698D01*
X135369132Y-93551190D01*
X135330449Y-93555000D01*
X133500551Y-93555000D01*
X133461868Y-93551190D01*
X133430577Y-93541698D01*
X133401737Y-93526283D01*
X133376461Y-93505539D01*
X133355717Y-93480263D01*
X133340302Y-93451423D01*
X133330810Y-93420132D01*
X133327000Y-93381449D01*
X133327000Y-91276551D01*
X133330810Y-91237868D01*
X133340302Y-91206577D01*
X133355717Y-91177737D01*
X133376461Y-91152461D01*
X133401737Y-91131717D01*
X133430577Y-91116302D01*
X133461868Y-91106810D01*
X133500551Y-91103000D01*
X135330449Y-91103000D01*
X135369132Y-91106810D01*
G37*
G36*
X130444132Y-91106810D02*
G01*
X130475423Y-91116302D01*
X130504263Y-91131717D01*
X130529539Y-91152461D01*
X130550283Y-91177737D01*
X130565698Y-91206577D01*
X130575190Y-91237868D01*
X130579000Y-91276551D01*
X130579000Y-93381449D01*
X130575190Y-93420132D01*
X130565698Y-93451423D01*
X130550283Y-93480263D01*
X130529539Y-93505539D01*
X130504263Y-93526283D01*
X130475423Y-93541698D01*
X130444132Y-93551190D01*
X130405449Y-93555000D01*
X128575551Y-93555000D01*
X128536868Y-93551190D01*
X128505577Y-93541698D01*
X128476737Y-93526283D01*
X128451461Y-93505539D01*
X128430717Y-93480263D01*
X128415302Y-93451423D01*
X128405810Y-93420132D01*
X128402000Y-93381449D01*
X128402000Y-91276551D01*
X128405810Y-91237868D01*
X128415302Y-91206577D01*
X128430717Y-91177737D01*
X128451461Y-91152461D01*
X128476737Y-91131717D01*
X128505577Y-91116302D01*
X128536868Y-91106810D01*
X128575551Y-91103000D01*
X130405449Y-91103000D01*
X130444132Y-91106810D01*
G37*
G36*
X142683591Y-92442085D02*
G01*
X142717569Y-92452393D01*
X142748890Y-92469134D01*
X142776339Y-92491661D01*
X142798866Y-92519110D01*
X142815607Y-92550431D01*
X142825915Y-92584409D01*
X142830000Y-92625890D01*
X142830000Y-93302110D01*
X142825915Y-93343591D01*
X142815607Y-93377569D01*
X142798866Y-93408890D01*
X142776339Y-93436339D01*
X142748890Y-93458866D01*
X142717569Y-93475607D01*
X142683591Y-93485915D01*
X142642110Y-93490000D01*
X142040890Y-93490000D01*
X141999409Y-93485915D01*
X141965431Y-93475607D01*
X141934110Y-93458866D01*
X141906661Y-93436339D01*
X141884134Y-93408890D01*
X141867393Y-93377569D01*
X141857085Y-93343591D01*
X141853000Y-93302110D01*
X141853000Y-92625890D01*
X141857085Y-92584409D01*
X141867393Y-92550431D01*
X141884134Y-92519110D01*
X141906661Y-92491661D01*
X141934110Y-92469134D01*
X141965431Y-92452393D01*
X141999409Y-92442085D01*
X142040890Y-92438000D01*
X142642110Y-92438000D01*
X142683591Y-92442085D01*
G37*
G36*
X144258591Y-92442085D02*
G01*
X144292569Y-92452393D01*
X144323890Y-92469134D01*
X144351339Y-92491661D01*
X144373866Y-92519110D01*
X144390607Y-92550431D01*
X144400915Y-92584409D01*
X144405000Y-92625890D01*
X144405000Y-93302110D01*
X144400915Y-93343591D01*
X144390607Y-93377569D01*
X144373866Y-93408890D01*
X144351339Y-93436339D01*
X144323890Y-93458866D01*
X144292569Y-93475607D01*
X144258591Y-93485915D01*
X144217110Y-93490000D01*
X143615890Y-93490000D01*
X143574409Y-93485915D01*
X143540431Y-93475607D01*
X143509110Y-93458866D01*
X143481661Y-93436339D01*
X143459134Y-93408890D01*
X143442393Y-93377569D01*
X143432085Y-93343591D01*
X143428000Y-93302110D01*
X143428000Y-92625890D01*
X143432085Y-92584409D01*
X143442393Y-92550431D01*
X143459134Y-92519110D01*
X143481661Y-92491661D01*
X143509110Y-92469134D01*
X143540431Y-92452393D01*
X143574409Y-92442085D01*
X143615890Y-92438000D01*
X144217110Y-92438000D01*
X144258591Y-92442085D01*
G37*
G36*
X115388934Y-90650671D02*
G01*
X115418877Y-90659754D01*
X115446465Y-90674500D01*
X115470651Y-90694349D01*
X115490500Y-90718535D01*
X115505246Y-90746123D01*
X115514329Y-90776066D01*
X115518000Y-90813340D01*
X115518000Y-93082660D01*
X115514329Y-93119934D01*
X115505246Y-93149877D01*
X115490500Y-93177465D01*
X115470651Y-93201651D01*
X115446465Y-93221500D01*
X115418877Y-93236246D01*
X115388934Y-93245329D01*
X115351660Y-93249000D01*
X112082340Y-93249000D01*
X112045066Y-93245329D01*
X112015123Y-93236246D01*
X111987535Y-93221500D01*
X111963349Y-93201651D01*
X111943500Y-93177465D01*
X111928754Y-93149877D01*
X111919671Y-93119934D01*
X111916000Y-93082660D01*
X111916000Y-90813340D01*
X111919671Y-90776066D01*
X111928754Y-90746123D01*
X111943500Y-90718535D01*
X111963349Y-90694349D01*
X111987535Y-90674500D01*
X112015123Y-90659754D01*
X112045066Y-90650671D01*
X112082340Y-90647000D01*
X115351660Y-90647000D01*
X115388934Y-90650671D01*
G37*
G36*
X121888934Y-90650671D02*
G01*
X121918877Y-90659754D01*
X121946465Y-90674500D01*
X121970651Y-90694349D01*
X121990500Y-90718535D01*
X122005246Y-90746123D01*
X122014329Y-90776066D01*
X122018000Y-90813340D01*
X122018000Y-93082660D01*
X122014329Y-93119934D01*
X122005246Y-93149877D01*
X121990500Y-93177465D01*
X121970651Y-93201651D01*
X121946465Y-93221500D01*
X121918877Y-93236246D01*
X121888934Y-93245329D01*
X121851660Y-93249000D01*
X118582340Y-93249000D01*
X118545066Y-93245329D01*
X118515123Y-93236246D01*
X118487535Y-93221500D01*
X118463349Y-93201651D01*
X118443500Y-93177465D01*
X118428754Y-93149877D01*
X118419671Y-93119934D01*
X118416000Y-93082660D01*
X118416000Y-90813340D01*
X118419671Y-90776066D01*
X118428754Y-90746123D01*
X118443500Y-90718535D01*
X118463349Y-90694349D01*
X118487535Y-90674500D01*
X118515123Y-90659754D01*
X118545066Y-90650671D01*
X118582340Y-90647000D01*
X121851660Y-90647000D01*
X121888934Y-90650671D01*
G37*
G36*
X138301591Y-92073085D02*
G01*
X138335569Y-92083393D01*
X138366890Y-92100134D01*
X138394339Y-92122661D01*
X138416866Y-92150110D01*
X138433607Y-92181431D01*
X138443915Y-92215409D01*
X138448000Y-92256890D01*
X138448000Y-92858110D01*
X138443915Y-92899591D01*
X138433607Y-92933569D01*
X138416866Y-92964890D01*
X138394339Y-92992339D01*
X138366890Y-93014866D01*
X138335569Y-93031607D01*
X138301591Y-93041915D01*
X138260110Y-93046000D01*
X137583890Y-93046000D01*
X137542409Y-93041915D01*
X137508431Y-93031607D01*
X137477110Y-93014866D01*
X137449661Y-92992339D01*
X137427134Y-92964890D01*
X137410393Y-92933569D01*
X137400085Y-92899591D01*
X137396000Y-92858110D01*
X137396000Y-92256890D01*
X137400085Y-92215409D01*
X137410393Y-92181431D01*
X137427134Y-92150110D01*
X137449661Y-92122661D01*
X137477110Y-92100134D01*
X137508431Y-92083393D01*
X137542409Y-92073085D01*
X137583890Y-92069000D01*
X138260110Y-92069000D01*
X138301591Y-92073085D01*
G37*
G36*
X125615000Y-92491000D02*
G01*
X123813000Y-92491000D01*
X123813000Y-91789000D01*
X125615000Y-91789000D01*
X125615000Y-92491000D01*
G37*
G36*
X162831000Y-92376000D02*
G01*
X161629000Y-92376000D01*
X161629000Y-91774000D01*
X162831000Y-91774000D01*
X162831000Y-92376000D01*
G37*
G36*
X144258591Y-90918085D02*
G01*
X144292569Y-90928393D01*
X144323890Y-90945134D01*
X144351339Y-90967661D01*
X144373866Y-90995110D01*
X144390607Y-91026431D01*
X144400915Y-91060409D01*
X144405000Y-91101890D01*
X144405000Y-91778110D01*
X144400915Y-91819591D01*
X144390607Y-91853569D01*
X144373866Y-91884890D01*
X144351339Y-91912339D01*
X144323890Y-91934866D01*
X144292569Y-91951607D01*
X144258591Y-91961915D01*
X144217110Y-91966000D01*
X143615890Y-91966000D01*
X143574409Y-91961915D01*
X143540431Y-91951607D01*
X143509110Y-91934866D01*
X143481661Y-91912339D01*
X143459134Y-91884890D01*
X143442393Y-91853569D01*
X143432085Y-91819591D01*
X143428000Y-91778110D01*
X143428000Y-91101890D01*
X143432085Y-91060409D01*
X143442393Y-91026431D01*
X143459134Y-90995110D01*
X143481661Y-90967661D01*
X143509110Y-90945134D01*
X143540431Y-90928393D01*
X143574409Y-90918085D01*
X143615890Y-90914000D01*
X144217110Y-90914000D01*
X144258591Y-90918085D01*
G37*
G36*
X148068591Y-90918085D02*
G01*
X148102569Y-90928393D01*
X148133890Y-90945134D01*
X148161339Y-90967661D01*
X148183866Y-90995110D01*
X148200607Y-91026431D01*
X148210915Y-91060409D01*
X148215000Y-91101890D01*
X148215000Y-91778110D01*
X148210915Y-91819591D01*
X148200607Y-91853569D01*
X148183866Y-91884890D01*
X148161339Y-91912339D01*
X148133890Y-91934866D01*
X148102569Y-91951607D01*
X148068591Y-91961915D01*
X148027110Y-91966000D01*
X147425890Y-91966000D01*
X147384409Y-91961915D01*
X147350431Y-91951607D01*
X147319110Y-91934866D01*
X147291661Y-91912339D01*
X147269134Y-91884890D01*
X147252393Y-91853569D01*
X147242085Y-91819591D01*
X147238000Y-91778110D01*
X147238000Y-91101890D01*
X147242085Y-91060409D01*
X147252393Y-91026431D01*
X147269134Y-90995110D01*
X147291661Y-90967661D01*
X147319110Y-90945134D01*
X147350431Y-90928393D01*
X147384409Y-90918085D01*
X147425890Y-90914000D01*
X148027110Y-90914000D01*
X148068591Y-90918085D01*
G37*
G36*
X142683591Y-90918085D02*
G01*
X142717569Y-90928393D01*
X142748890Y-90945134D01*
X142776339Y-90967661D01*
X142798866Y-90995110D01*
X142815607Y-91026431D01*
X142825915Y-91060409D01*
X142830000Y-91101890D01*
X142830000Y-91778110D01*
X142825915Y-91819591D01*
X142815607Y-91853569D01*
X142798866Y-91884890D01*
X142776339Y-91912339D01*
X142748890Y-91934866D01*
X142717569Y-91951607D01*
X142683591Y-91961915D01*
X142642110Y-91966000D01*
X142040890Y-91966000D01*
X141999409Y-91961915D01*
X141965431Y-91951607D01*
X141934110Y-91934866D01*
X141906661Y-91912339D01*
X141884134Y-91884890D01*
X141867393Y-91853569D01*
X141857085Y-91819591D01*
X141853000Y-91778110D01*
X141853000Y-91101890D01*
X141857085Y-91060409D01*
X141867393Y-91026431D01*
X141884134Y-90995110D01*
X141906661Y-90967661D01*
X141934110Y-90945134D01*
X141965431Y-90928393D01*
X141999409Y-90918085D01*
X142040890Y-90914000D01*
X142642110Y-90914000D01*
X142683591Y-90918085D01*
G37*
G36*
X146493591Y-90918085D02*
G01*
X146527569Y-90928393D01*
X146558890Y-90945134D01*
X146586339Y-90967661D01*
X146608866Y-90995110D01*
X146625607Y-91026431D01*
X146635915Y-91060409D01*
X146640000Y-91101890D01*
X146640000Y-91778110D01*
X146635915Y-91819591D01*
X146625607Y-91853569D01*
X146608866Y-91884890D01*
X146586339Y-91912339D01*
X146558890Y-91934866D01*
X146527569Y-91951607D01*
X146493591Y-91961915D01*
X146452110Y-91966000D01*
X145850890Y-91966000D01*
X145809409Y-91961915D01*
X145775431Y-91951607D01*
X145744110Y-91934866D01*
X145716661Y-91912339D01*
X145694134Y-91884890D01*
X145677393Y-91853569D01*
X145667085Y-91819591D01*
X145663000Y-91778110D01*
X145663000Y-91101890D01*
X145667085Y-91060409D01*
X145677393Y-91026431D01*
X145694134Y-90995110D01*
X145716661Y-90967661D01*
X145744110Y-90945134D01*
X145775431Y-90928393D01*
X145809409Y-90918085D01*
X145850890Y-90914000D01*
X146452110Y-90914000D01*
X146493591Y-90918085D01*
G37*
G36*
X125615000Y-91091000D02*
G01*
X123813000Y-91091000D01*
X123813000Y-90389000D01*
X125615000Y-90389000D01*
X125615000Y-91091000D01*
G37*
G36*
X142683591Y-89394085D02*
G01*
X142717569Y-89404393D01*
X142748890Y-89421134D01*
X142776339Y-89443661D01*
X142798866Y-89471110D01*
X142815607Y-89502431D01*
X142825915Y-89536409D01*
X142830000Y-89577890D01*
X142830000Y-90254110D01*
X142825915Y-90295591D01*
X142815607Y-90329569D01*
X142798866Y-90360890D01*
X142776339Y-90388339D01*
X142748890Y-90410866D01*
X142717569Y-90427607D01*
X142683591Y-90437915D01*
X142642110Y-90442000D01*
X142040890Y-90442000D01*
X141999409Y-90437915D01*
X141965431Y-90427607D01*
X141934110Y-90410866D01*
X141906661Y-90388339D01*
X141884134Y-90360890D01*
X141867393Y-90329569D01*
X141857085Y-90295591D01*
X141853000Y-90254110D01*
X141853000Y-89577890D01*
X141857085Y-89536409D01*
X141867393Y-89502431D01*
X141884134Y-89471110D01*
X141906661Y-89443661D01*
X141934110Y-89421134D01*
X141965431Y-89404393D01*
X141999409Y-89394085D01*
X142040890Y-89390000D01*
X142642110Y-89390000D01*
X142683591Y-89394085D01*
G37*
G36*
X148068591Y-89394085D02*
G01*
X148102569Y-89404393D01*
X148133890Y-89421134D01*
X148161339Y-89443661D01*
X148183866Y-89471110D01*
X148200607Y-89502431D01*
X148210915Y-89536409D01*
X148215000Y-89577890D01*
X148215000Y-90254110D01*
X148210915Y-90295591D01*
X148200607Y-90329569D01*
X148183866Y-90360890D01*
X148161339Y-90388339D01*
X148133890Y-90410866D01*
X148102569Y-90427607D01*
X148068591Y-90437915D01*
X148027110Y-90442000D01*
X147425890Y-90442000D01*
X147384409Y-90437915D01*
X147350431Y-90427607D01*
X147319110Y-90410866D01*
X147291661Y-90388339D01*
X147269134Y-90360890D01*
X147252393Y-90329569D01*
X147242085Y-90295591D01*
X147238000Y-90254110D01*
X147238000Y-89577890D01*
X147242085Y-89536409D01*
X147252393Y-89502431D01*
X147269134Y-89471110D01*
X147291661Y-89443661D01*
X147319110Y-89421134D01*
X147350431Y-89404393D01*
X147384409Y-89394085D01*
X147425890Y-89390000D01*
X148027110Y-89390000D01*
X148068591Y-89394085D01*
G37*
G36*
X146493591Y-89394085D02*
G01*
X146527569Y-89404393D01*
X146558890Y-89421134D01*
X146586339Y-89443661D01*
X146608866Y-89471110D01*
X146625607Y-89502431D01*
X146635915Y-89536409D01*
X146640000Y-89577890D01*
X146640000Y-90254110D01*
X146635915Y-90295591D01*
X146625607Y-90329569D01*
X146608866Y-90360890D01*
X146586339Y-90388339D01*
X146558890Y-90410866D01*
X146527569Y-90427607D01*
X146493591Y-90437915D01*
X146452110Y-90442000D01*
X145850890Y-90442000D01*
X145809409Y-90437915D01*
X145775431Y-90427607D01*
X145744110Y-90410866D01*
X145716661Y-90388339D01*
X145694134Y-90360890D01*
X145677393Y-90329569D01*
X145667085Y-90295591D01*
X145663000Y-90254110D01*
X145663000Y-89577890D01*
X145667085Y-89536409D01*
X145677393Y-89502431D01*
X145694134Y-89471110D01*
X145716661Y-89443661D01*
X145744110Y-89421134D01*
X145775431Y-89404393D01*
X145809409Y-89394085D01*
X145850890Y-89390000D01*
X146452110Y-89390000D01*
X146493591Y-89394085D01*
G37*
G36*
X144258591Y-89394085D02*
G01*
X144292569Y-89404393D01*
X144323890Y-89421134D01*
X144351339Y-89443661D01*
X144373866Y-89471110D01*
X144390607Y-89502431D01*
X144400915Y-89536409D01*
X144405000Y-89577890D01*
X144405000Y-90254110D01*
X144400915Y-90295591D01*
X144390607Y-90329569D01*
X144373866Y-90360890D01*
X144351339Y-90388339D01*
X144323890Y-90410866D01*
X144292569Y-90427607D01*
X144258591Y-90437915D01*
X144217110Y-90442000D01*
X143615890Y-90442000D01*
X143574409Y-90437915D01*
X143540431Y-90427607D01*
X143509110Y-90410866D01*
X143481661Y-90388339D01*
X143459134Y-90360890D01*
X143442393Y-90329569D01*
X143432085Y-90295591D01*
X143428000Y-90254110D01*
X143428000Y-89577890D01*
X143432085Y-89536409D01*
X143442393Y-89502431D01*
X143459134Y-89471110D01*
X143481661Y-89443661D01*
X143509110Y-89421134D01*
X143540431Y-89404393D01*
X143574409Y-89394085D01*
X143615890Y-89390000D01*
X144217110Y-89390000D01*
X144258591Y-89394085D01*
G37*
G36*
X135114000Y-90069000D02*
G01*
X132812000Y-90069000D01*
X132812000Y-83667000D01*
X135114000Y-83667000D01*
X135114000Y-90069000D01*
G37*
G36*
X131104000Y-90069000D02*
G01*
X128802000Y-90069000D01*
X128802000Y-83667000D01*
X131104000Y-83667000D01*
X131104000Y-90069000D01*
G37*
G36*
X165670591Y-88886085D02*
G01*
X165704569Y-88896393D01*
X165735890Y-88913134D01*
X165763339Y-88935661D01*
X165785866Y-88963110D01*
X165802607Y-88994431D01*
X165812915Y-89028409D01*
X165817000Y-89069890D01*
X165817000Y-89746110D01*
X165812915Y-89787591D01*
X165802607Y-89821569D01*
X165785866Y-89852890D01*
X165763339Y-89880339D01*
X165735890Y-89902866D01*
X165704569Y-89919607D01*
X165670591Y-89929915D01*
X165629110Y-89934000D01*
X165027890Y-89934000D01*
X164986409Y-89929915D01*
X164952431Y-89919607D01*
X164921110Y-89902866D01*
X164893661Y-89880339D01*
X164871134Y-89852890D01*
X164854393Y-89821569D01*
X164844085Y-89787591D01*
X164840000Y-89746110D01*
X164840000Y-89069890D01*
X164844085Y-89028409D01*
X164854393Y-88994431D01*
X164871134Y-88963110D01*
X164893661Y-88935661D01*
X164921110Y-88913134D01*
X164952431Y-88896393D01*
X164986409Y-88886085D01*
X165027890Y-88882000D01*
X165629110Y-88882000D01*
X165670591Y-88886085D01*
G37*
G36*
X167245591Y-88886085D02*
G01*
X167279569Y-88896393D01*
X167310890Y-88913134D01*
X167338339Y-88935661D01*
X167360866Y-88963110D01*
X167377607Y-88994431D01*
X167387915Y-89028409D01*
X167392000Y-89069890D01*
X167392000Y-89746110D01*
X167387915Y-89787591D01*
X167377607Y-89821569D01*
X167360866Y-89852890D01*
X167338339Y-89880339D01*
X167310890Y-89902866D01*
X167279569Y-89919607D01*
X167245591Y-89929915D01*
X167204110Y-89934000D01*
X166602890Y-89934000D01*
X166561409Y-89929915D01*
X166527431Y-89919607D01*
X166496110Y-89902866D01*
X166468661Y-89880339D01*
X166446134Y-89852890D01*
X166429393Y-89821569D01*
X166419085Y-89787591D01*
X166415000Y-89746110D01*
X166415000Y-89069890D01*
X166419085Y-89028409D01*
X166429393Y-88994431D01*
X166446134Y-88963110D01*
X166468661Y-88935661D01*
X166496110Y-88913134D01*
X166527431Y-88896393D01*
X166561409Y-88886085D01*
X166602890Y-88882000D01*
X167204110Y-88882000D01*
X167245591Y-88886085D01*
G37*
G36*
X168718591Y-88886085D02*
G01*
X168752569Y-88896393D01*
X168783890Y-88913134D01*
X168811339Y-88935661D01*
X168833866Y-88963110D01*
X168850607Y-88994431D01*
X168860915Y-89028409D01*
X168865000Y-89069890D01*
X168865000Y-89746110D01*
X168860915Y-89787591D01*
X168850607Y-89821569D01*
X168833866Y-89852890D01*
X168811339Y-89880339D01*
X168783890Y-89902866D01*
X168752569Y-89919607D01*
X168718591Y-89929915D01*
X168677110Y-89934000D01*
X168075890Y-89934000D01*
X168034409Y-89929915D01*
X168000431Y-89919607D01*
X167969110Y-89902866D01*
X167941661Y-89880339D01*
X167919134Y-89852890D01*
X167902393Y-89821569D01*
X167892085Y-89787591D01*
X167888000Y-89746110D01*
X167888000Y-89069890D01*
X167892085Y-89028409D01*
X167902393Y-88994431D01*
X167919134Y-88963110D01*
X167941661Y-88935661D01*
X167969110Y-88913134D01*
X168000431Y-88896393D01*
X168034409Y-88886085D01*
X168075890Y-88882000D01*
X168677110Y-88882000D01*
X168718591Y-88886085D01*
G37*
G36*
X170293591Y-88886085D02*
G01*
X170327569Y-88896393D01*
X170358890Y-88913134D01*
X170386339Y-88935661D01*
X170408866Y-88963110D01*
X170425607Y-88994431D01*
X170435915Y-89028409D01*
X170440000Y-89069890D01*
X170440000Y-89746110D01*
X170435915Y-89787591D01*
X170425607Y-89821569D01*
X170408866Y-89852890D01*
X170386339Y-89880339D01*
X170358890Y-89902866D01*
X170327569Y-89919607D01*
X170293591Y-89929915D01*
X170252110Y-89934000D01*
X169650890Y-89934000D01*
X169609409Y-89929915D01*
X169575431Y-89919607D01*
X169544110Y-89902866D01*
X169516661Y-89880339D01*
X169494134Y-89852890D01*
X169477393Y-89821569D01*
X169467085Y-89787591D01*
X169463000Y-89746110D01*
X169463000Y-89069890D01*
X169467085Y-89028409D01*
X169477393Y-88994431D01*
X169494134Y-88963110D01*
X169516661Y-88935661D01*
X169544110Y-88913134D01*
X169575431Y-88896393D01*
X169609409Y-88886085D01*
X169650890Y-88882000D01*
X170252110Y-88882000D01*
X170293591Y-88886085D01*
G37*
G36*
X162763000Y-86076000D02*
G01*
X162087999Y-86076000D01*
X162063613Y-86078402D01*
X162040164Y-86085515D01*
X162018553Y-86097066D01*
X161999611Y-86112611D01*
X161984066Y-86131553D01*
X161972515Y-86153164D01*
X161965402Y-86176613D01*
X161963000Y-86200999D01*
X161963000Y-86519001D01*
X161965402Y-86543387D01*
X161972515Y-86566836D01*
X161984066Y-86588447D01*
X161999611Y-86607389D01*
X162018553Y-86622934D01*
X162040164Y-86634485D01*
X162063613Y-86641598D01*
X162087999Y-86644000D01*
X162763000Y-86644000D01*
X162763000Y-87346000D01*
X162087999Y-87346000D01*
X162063613Y-87348402D01*
X162040164Y-87355515D01*
X162018553Y-87367066D01*
X161999611Y-87382611D01*
X161984066Y-87401553D01*
X161972515Y-87423164D01*
X161965402Y-87446613D01*
X161963000Y-87470999D01*
X161963000Y-87789001D01*
X161965402Y-87813387D01*
X161972515Y-87836836D01*
X161984066Y-87858447D01*
X161999611Y-87877389D01*
X162018553Y-87892934D01*
X162040164Y-87904485D01*
X162063613Y-87911598D01*
X162087999Y-87914000D01*
X162763000Y-87914000D01*
X162763000Y-88616000D01*
X162087999Y-88616000D01*
X162063613Y-88618402D01*
X162040164Y-88625515D01*
X162018553Y-88637066D01*
X161999611Y-88652611D01*
X161984066Y-88671553D01*
X161972515Y-88693164D01*
X161965402Y-88716613D01*
X161963000Y-88740999D01*
X161963000Y-89059001D01*
X161965402Y-89083387D01*
X161972515Y-89106836D01*
X161984066Y-89128447D01*
X161999611Y-89147389D01*
X162018553Y-89162934D01*
X162040164Y-89174485D01*
X162063613Y-89181598D01*
X162087999Y-89184000D01*
X162763000Y-89184000D01*
X162763000Y-89886000D01*
X158111000Y-89886000D01*
X158111000Y-85374000D01*
X162763000Y-85374000D01*
X162763000Y-86076000D01*
G37*
G36*
X157213000Y-89836000D02*
G01*
X156011000Y-89836000D01*
X156011000Y-89234000D01*
X157213000Y-89234000D01*
X157213000Y-89836000D01*
G37*
G36*
X154861798Y-87268247D02*
G01*
X154897367Y-87279037D01*
X154930139Y-87296554D01*
X154958869Y-87320131D01*
X154982446Y-87348861D01*
X154999963Y-87381633D01*
X155010753Y-87417202D01*
X155015000Y-87460325D01*
X155015000Y-88519675D01*
X155010753Y-88562798D01*
X154999963Y-88598367D01*
X154982446Y-88631139D01*
X154958869Y-88659869D01*
X154930139Y-88683446D01*
X154897367Y-88700963D01*
X154861798Y-88711753D01*
X154818675Y-88716000D01*
X151759325Y-88716000D01*
X151716202Y-88711753D01*
X151680633Y-88700963D01*
X151647861Y-88683446D01*
X151619131Y-88659869D01*
X151595554Y-88631139D01*
X151578037Y-88598367D01*
X151567247Y-88562798D01*
X151563000Y-88519675D01*
X151563000Y-87460325D01*
X151567247Y-87417202D01*
X151578037Y-87381633D01*
X151595554Y-87348861D01*
X151619131Y-87320131D01*
X151647861Y-87296554D01*
X151680633Y-87279037D01*
X151716202Y-87268247D01*
X151759325Y-87264000D01*
X154818675Y-87264000D01*
X154861798Y-87268247D01*
G37*
G36*
X157213000Y-88566000D02*
G01*
X156011000Y-88566000D01*
X156011000Y-87964000D01*
X156386001Y-87964000D01*
X156410387Y-87961598D01*
X156433836Y-87954485D01*
X156455447Y-87942934D01*
X156474389Y-87927389D01*
X156489934Y-87908447D01*
X156501485Y-87886836D01*
X156508598Y-87863387D01*
X156511000Y-87839001D01*
X156511000Y-87420999D01*
X156508598Y-87396613D01*
X156501485Y-87373164D01*
X156489934Y-87351553D01*
X156474389Y-87332611D01*
X156455447Y-87317066D01*
X156433836Y-87305515D01*
X156410387Y-87298402D01*
X156386001Y-87296000D01*
X156011000Y-87296000D01*
X156011000Y-86694000D01*
X156386001Y-86694000D01*
X156410387Y-86691598D01*
X156433836Y-86684485D01*
X156455447Y-86672934D01*
X156474389Y-86657389D01*
X156489934Y-86638447D01*
X156501485Y-86616836D01*
X156508598Y-86593387D01*
X156511000Y-86569001D01*
X156511000Y-86150999D01*
X156508598Y-86126613D01*
X156501485Y-86103164D01*
X156489934Y-86081553D01*
X156474389Y-86062611D01*
X156455447Y-86047066D01*
X156433836Y-86035515D01*
X156410387Y-86028402D01*
X156386001Y-86026000D01*
X156011000Y-86026000D01*
X156011000Y-85424000D01*
X156386001Y-85424000D01*
X156410387Y-85421598D01*
X156433836Y-85414485D01*
X156455447Y-85402934D01*
X156474389Y-85387389D01*
X156489934Y-85368447D01*
X156501485Y-85346836D01*
X156508598Y-85323387D01*
X156511000Y-85299001D01*
X156511000Y-85264000D01*
X157213000Y-85264000D01*
X157213000Y-88566000D01*
G37*
G36*
X172466000Y-79502000D02*
G01*
X172466000Y-87630000D01*
X171958000Y-88138000D01*
X163957000Y-88138000D01*
X163449000Y-87630000D01*
X163449000Y-79502000D01*
X163957000Y-78994000D01*
X171958000Y-78994000D01*
X172466000Y-79502000D01*
G37*
G36*
X127577428Y-85906764D02*
G01*
X127598509Y-85913160D01*
X127617945Y-85923548D01*
X127634976Y-85937524D01*
X127648952Y-85954555D01*
X127659340Y-85973991D01*
X127665736Y-85995072D01*
X127668500Y-86023140D01*
X127668500Y-87836860D01*
X127665736Y-87864928D01*
X127659340Y-87886009D01*
X127648952Y-87905445D01*
X127634976Y-87922476D01*
X127617945Y-87936452D01*
X127598509Y-87946840D01*
X127577428Y-87953236D01*
X127549360Y-87956000D01*
X127085640Y-87956000D01*
X127057572Y-87953236D01*
X127036491Y-87946840D01*
X127017055Y-87936452D01*
X127000024Y-87922476D01*
X126986048Y-87905445D01*
X126975660Y-87886009D01*
X126969264Y-87864928D01*
X126966500Y-87836860D01*
X126966500Y-86023140D01*
X126969264Y-85995072D01*
X126975660Y-85973991D01*
X126986048Y-85954555D01*
X127000024Y-85937524D01*
X127017055Y-85923548D01*
X127036491Y-85913160D01*
X127057572Y-85906764D01*
X127085640Y-85904000D01*
X127549360Y-85904000D01*
X127577428Y-85906764D01*
G37*
G36*
X123767428Y-85906764D02*
G01*
X123788509Y-85913160D01*
X123807945Y-85923548D01*
X123824976Y-85937524D01*
X123838952Y-85954555D01*
X123849340Y-85973991D01*
X123855736Y-85995072D01*
X123858500Y-86023140D01*
X123858500Y-87836860D01*
X123855736Y-87864928D01*
X123849340Y-87886009D01*
X123838952Y-87905445D01*
X123824976Y-87922476D01*
X123807945Y-87936452D01*
X123788509Y-87946840D01*
X123767428Y-87953236D01*
X123739360Y-87956000D01*
X123275640Y-87956000D01*
X123247572Y-87953236D01*
X123226491Y-87946840D01*
X123207055Y-87936452D01*
X123190024Y-87922476D01*
X123176048Y-87905445D01*
X123165660Y-87886009D01*
X123159264Y-87864928D01*
X123156500Y-87836860D01*
X123156500Y-86023140D01*
X123159264Y-85995072D01*
X123165660Y-85973991D01*
X123176048Y-85954555D01*
X123190024Y-85937524D01*
X123207055Y-85923548D01*
X123226491Y-85913160D01*
X123247572Y-85906764D01*
X123275640Y-85904000D01*
X123739360Y-85904000D01*
X123767428Y-85906764D01*
G37*
G36*
X125037428Y-85906764D02*
G01*
X125058509Y-85913160D01*
X125077945Y-85923548D01*
X125094976Y-85937524D01*
X125108952Y-85954555D01*
X125119340Y-85973991D01*
X125125736Y-85995072D01*
X125128500Y-86023140D01*
X125128500Y-87836860D01*
X125125736Y-87864928D01*
X125119340Y-87886009D01*
X125108952Y-87905445D01*
X125094976Y-87922476D01*
X125077945Y-87936452D01*
X125058509Y-87946840D01*
X125037428Y-87953236D01*
X125009360Y-87956000D01*
X124545640Y-87956000D01*
X124517572Y-87953236D01*
X124496491Y-87946840D01*
X124477055Y-87936452D01*
X124460024Y-87922476D01*
X124446048Y-87905445D01*
X124435660Y-87886009D01*
X124429264Y-87864928D01*
X124426500Y-87836860D01*
X124426500Y-86023140D01*
X124429264Y-85995072D01*
X124435660Y-85973991D01*
X124446048Y-85954555D01*
X124460024Y-85937524D01*
X124477055Y-85923548D01*
X124496491Y-85913160D01*
X124517572Y-85906764D01*
X124545640Y-85904000D01*
X125009360Y-85904000D01*
X125037428Y-85906764D01*
G37*
G36*
X126307428Y-85906764D02*
G01*
X126328509Y-85913160D01*
X126347945Y-85923548D01*
X126364976Y-85937524D01*
X126378952Y-85954555D01*
X126389340Y-85973991D01*
X126395736Y-85995072D01*
X126398500Y-86023140D01*
X126398500Y-87836860D01*
X126395736Y-87864928D01*
X126389340Y-87886009D01*
X126378952Y-87905445D01*
X126364976Y-87922476D01*
X126347945Y-87936452D01*
X126328509Y-87946840D01*
X126307428Y-87953236D01*
X126279360Y-87956000D01*
X125815640Y-87956000D01*
X125787572Y-87953236D01*
X125766491Y-87946840D01*
X125747055Y-87936452D01*
X125730024Y-87922476D01*
X125716048Y-87905445D01*
X125705660Y-87886009D01*
X125699264Y-87864928D01*
X125696500Y-87836860D01*
X125696500Y-86023140D01*
X125699264Y-85995072D01*
X125705660Y-85973991D01*
X125716048Y-85954555D01*
X125730024Y-85937524D01*
X125747055Y-85923548D01*
X125766491Y-85913160D01*
X125787572Y-85906764D01*
X125815640Y-85904000D01*
X126279360Y-85904000D01*
X126307428Y-85906764D01*
G37*
G36*
X162841000Y-80946000D02*
G01*
X162465999Y-80946000D01*
X162441613Y-80948402D01*
X162418164Y-80955515D01*
X162396553Y-80967066D01*
X162377611Y-80982611D01*
X162362066Y-81001553D01*
X162350515Y-81023164D01*
X162343402Y-81046613D01*
X162341000Y-81070999D01*
X162341000Y-81489001D01*
X162343402Y-81513387D01*
X162350515Y-81536836D01*
X162362066Y-81558447D01*
X162377611Y-81577389D01*
X162396553Y-81592934D01*
X162418164Y-81604485D01*
X162441613Y-81611598D01*
X162465999Y-81614000D01*
X162841000Y-81614000D01*
X162841000Y-82216000D01*
X162465999Y-82216000D01*
X162441613Y-82218402D01*
X162418164Y-82225515D01*
X162396553Y-82237066D01*
X162377611Y-82252611D01*
X162362066Y-82271553D01*
X162350515Y-82293164D01*
X162343402Y-82316613D01*
X162341000Y-82340999D01*
X162341000Y-82759001D01*
X162343402Y-82783387D01*
X162350515Y-82806836D01*
X162362066Y-82828447D01*
X162377611Y-82847389D01*
X162396553Y-82862934D01*
X162418164Y-82874485D01*
X162441613Y-82881598D01*
X162465999Y-82884000D01*
X162841000Y-82884000D01*
X162841000Y-83486000D01*
X162465999Y-83486000D01*
X162441613Y-83488402D01*
X162418164Y-83495515D01*
X162396553Y-83507066D01*
X162377611Y-83522611D01*
X162362066Y-83541553D01*
X162350515Y-83563164D01*
X162343402Y-83586613D01*
X162341000Y-83610999D01*
X162341000Y-83646000D01*
X161639000Y-83646000D01*
X161639000Y-80344000D01*
X162841000Y-80344000D01*
X162841000Y-80946000D01*
G37*
G36*
X121888934Y-80998671D02*
G01*
X121918877Y-81007754D01*
X121946465Y-81022500D01*
X121970651Y-81042349D01*
X121990500Y-81066535D01*
X122005246Y-81094123D01*
X122014329Y-81124066D01*
X122018000Y-81161340D01*
X122018000Y-83430660D01*
X122014329Y-83467934D01*
X122005246Y-83497877D01*
X121990500Y-83525465D01*
X121970651Y-83549651D01*
X121946465Y-83569500D01*
X121918877Y-83584246D01*
X121888934Y-83593329D01*
X121851660Y-83597000D01*
X118582340Y-83597000D01*
X118545066Y-83593329D01*
X118515123Y-83584246D01*
X118487535Y-83569500D01*
X118463349Y-83549651D01*
X118443500Y-83525465D01*
X118428754Y-83497877D01*
X118419671Y-83467934D01*
X118416000Y-83430660D01*
X118416000Y-81161340D01*
X118419671Y-81124066D01*
X118428754Y-81094123D01*
X118443500Y-81066535D01*
X118463349Y-81042349D01*
X118487535Y-81022500D01*
X118515123Y-81007754D01*
X118545066Y-80998671D01*
X118582340Y-80995000D01*
X121851660Y-80995000D01*
X121888934Y-80998671D01*
G37*
G36*
X115388934Y-80998671D02*
G01*
X115418877Y-81007754D01*
X115446465Y-81022500D01*
X115470651Y-81042349D01*
X115490500Y-81066535D01*
X115505246Y-81094123D01*
X115514329Y-81124066D01*
X115518000Y-81161340D01*
X115518000Y-83430660D01*
X115514329Y-83467934D01*
X115505246Y-83497877D01*
X115490500Y-83525465D01*
X115470651Y-83549651D01*
X115446465Y-83569500D01*
X115418877Y-83584246D01*
X115388934Y-83593329D01*
X115351660Y-83597000D01*
X112082340Y-83597000D01*
X112045066Y-83593329D01*
X112015123Y-83584246D01*
X111987535Y-83569500D01*
X111963349Y-83549651D01*
X111943500Y-83525465D01*
X111928754Y-83497877D01*
X111919671Y-83467934D01*
X111916000Y-83430660D01*
X111916000Y-81161340D01*
X111919671Y-81124066D01*
X111928754Y-81094123D01*
X111943500Y-81066535D01*
X111963349Y-81042349D01*
X111987535Y-81022500D01*
X112015123Y-81007754D01*
X112045066Y-80998671D01*
X112082340Y-80995000D01*
X115351660Y-80995000D01*
X115388934Y-80998671D01*
G37*
G36*
X160741000Y-83536000D02*
G01*
X156089000Y-83536000D01*
X156089000Y-82834000D01*
X156764001Y-82834000D01*
X156788387Y-82831598D01*
X156811836Y-82824485D01*
X156833447Y-82812934D01*
X156852389Y-82797389D01*
X156867934Y-82778447D01*
X156879485Y-82756836D01*
X156886598Y-82733387D01*
X156889000Y-82709001D01*
X156889000Y-82390999D01*
X156886598Y-82366613D01*
X156879485Y-82343164D01*
X156867934Y-82321553D01*
X156852389Y-82302611D01*
X156833447Y-82287066D01*
X156811836Y-82275515D01*
X156788387Y-82268402D01*
X156764001Y-82266000D01*
X156089000Y-82266000D01*
X156089000Y-81564000D01*
X156764001Y-81564000D01*
X156788387Y-81561598D01*
X156811836Y-81554485D01*
X156833447Y-81542934D01*
X156852389Y-81527389D01*
X156867934Y-81508447D01*
X156879485Y-81486836D01*
X156886598Y-81463387D01*
X156889000Y-81439001D01*
X156889000Y-81120999D01*
X156886598Y-81096613D01*
X156879485Y-81073164D01*
X156867934Y-81051553D01*
X156852389Y-81032611D01*
X156833447Y-81017066D01*
X156811836Y-81005515D01*
X156788387Y-80998402D01*
X156764001Y-80996000D01*
X156089000Y-80996000D01*
X156089000Y-80294000D01*
X156764001Y-80294000D01*
X156788387Y-80291598D01*
X156811836Y-80284485D01*
X156833447Y-80272934D01*
X156852389Y-80257389D01*
X156867934Y-80238447D01*
X156879485Y-80216836D01*
X156886598Y-80193387D01*
X156889000Y-80169001D01*
X156889000Y-79850999D01*
X156886598Y-79826613D01*
X156879485Y-79803164D01*
X156867934Y-79781553D01*
X156852389Y-79762611D01*
X156833447Y-79747066D01*
X156811836Y-79735515D01*
X156788387Y-79728402D01*
X156764001Y-79726000D01*
X156089000Y-79726000D01*
X156089000Y-79024000D01*
X160741000Y-79024000D01*
X160741000Y-83536000D01*
G37*
G36*
X132275000Y-83007000D02*
G01*
X131473000Y-83007000D01*
X131473000Y-79705000D01*
X132275000Y-79705000D01*
X132275000Y-83007000D01*
G37*
G36*
X143276000Y-83007000D02*
G01*
X142474000Y-83007000D01*
X142474000Y-79705000D01*
X143276000Y-79705000D01*
X143276000Y-83007000D01*
G37*
G36*
X141776000Y-83007000D02*
G01*
X140974000Y-83007000D01*
X140974000Y-79705000D01*
X141776000Y-79705000D01*
X141776000Y-83007000D01*
G37*
G36*
X140276000Y-83007000D02*
G01*
X139474000Y-83007000D01*
X139474000Y-79705000D01*
X140276000Y-79705000D01*
X140276000Y-83007000D01*
G37*
G36*
X133775000Y-83007000D02*
G01*
X132973000Y-83007000D01*
X132973000Y-79705000D01*
X133775000Y-79705000D01*
X133775000Y-83007000D01*
G37*
G36*
X144776000Y-83007000D02*
G01*
X143974000Y-83007000D01*
X143974000Y-79705000D01*
X144776000Y-79705000D01*
X144776000Y-83007000D01*
G37*
G36*
X146276000Y-83007000D02*
G01*
X145474000Y-83007000D01*
X145474000Y-79705000D01*
X146276000Y-79705000D01*
X146276000Y-83007000D01*
G37*
G36*
X125037428Y-80956764D02*
G01*
X125058509Y-80963160D01*
X125077945Y-80973548D01*
X125094976Y-80987524D01*
X125108952Y-81004555D01*
X125119340Y-81023991D01*
X125125736Y-81045072D01*
X125128500Y-81073140D01*
X125128500Y-82886860D01*
X125125736Y-82914928D01*
X125119340Y-82936009D01*
X125108952Y-82955445D01*
X125094976Y-82972476D01*
X125077945Y-82986452D01*
X125058509Y-82996840D01*
X125037428Y-83003236D01*
X125009360Y-83006000D01*
X124545640Y-83006000D01*
X124517572Y-83003236D01*
X124496491Y-82996840D01*
X124477055Y-82986452D01*
X124460024Y-82972476D01*
X124446048Y-82955445D01*
X124435660Y-82936009D01*
X124429264Y-82914928D01*
X124426500Y-82886860D01*
X124426500Y-81073140D01*
X124429264Y-81045072D01*
X124435660Y-81023991D01*
X124446048Y-81004555D01*
X124460024Y-80987524D01*
X124477055Y-80973548D01*
X124496491Y-80963160D01*
X124517572Y-80956764D01*
X124545640Y-80954000D01*
X125009360Y-80954000D01*
X125037428Y-80956764D01*
G37*
G36*
X123767428Y-80956764D02*
G01*
X123788509Y-80963160D01*
X123807945Y-80973548D01*
X123824976Y-80987524D01*
X123838952Y-81004555D01*
X123849340Y-81023991D01*
X123855736Y-81045072D01*
X123858500Y-81073140D01*
X123858500Y-82886860D01*
X123855736Y-82914928D01*
X123849340Y-82936009D01*
X123838952Y-82955445D01*
X123824976Y-82972476D01*
X123807945Y-82986452D01*
X123788509Y-82996840D01*
X123767428Y-83003236D01*
X123739360Y-83006000D01*
X123275640Y-83006000D01*
X123247572Y-83003236D01*
X123226491Y-82996840D01*
X123207055Y-82986452D01*
X123190024Y-82972476D01*
X123176048Y-82955445D01*
X123165660Y-82936009D01*
X123159264Y-82914928D01*
X123156500Y-82886860D01*
X123156500Y-81073140D01*
X123159264Y-81045072D01*
X123165660Y-81023991D01*
X123176048Y-81004555D01*
X123190024Y-80987524D01*
X123207055Y-80973548D01*
X123226491Y-80963160D01*
X123247572Y-80956764D01*
X123275640Y-80954000D01*
X123739360Y-80954000D01*
X123767428Y-80956764D01*
G37*
G36*
X126307428Y-80956764D02*
G01*
X126328509Y-80963160D01*
X126347945Y-80973548D01*
X126364976Y-80987524D01*
X126378952Y-81004555D01*
X126389340Y-81023991D01*
X126395736Y-81045072D01*
X126398500Y-81073140D01*
X126398500Y-82886860D01*
X126395736Y-82914928D01*
X126389340Y-82936009D01*
X126378952Y-82955445D01*
X126364976Y-82972476D01*
X126347945Y-82986452D01*
X126328509Y-82996840D01*
X126307428Y-83003236D01*
X126279360Y-83006000D01*
X125815640Y-83006000D01*
X125787572Y-83003236D01*
X125766491Y-82996840D01*
X125747055Y-82986452D01*
X125730024Y-82972476D01*
X125716048Y-82955445D01*
X125705660Y-82936009D01*
X125699264Y-82914928D01*
X125696500Y-82886860D01*
X125696500Y-81073140D01*
X125699264Y-81045072D01*
X125705660Y-81023991D01*
X125716048Y-81004555D01*
X125730024Y-80987524D01*
X125747055Y-80973548D01*
X125766491Y-80963160D01*
X125787572Y-80956764D01*
X125815640Y-80954000D01*
X126279360Y-80954000D01*
X126307428Y-80956764D01*
G37*
G36*
X127577428Y-80956764D02*
G01*
X127598509Y-80963160D01*
X127617945Y-80973548D01*
X127634976Y-80987524D01*
X127648952Y-81004555D01*
X127659340Y-81023991D01*
X127665736Y-81045072D01*
X127668500Y-81073140D01*
X127668500Y-82886860D01*
X127665736Y-82914928D01*
X127659340Y-82936009D01*
X127648952Y-82955445D01*
X127634976Y-82972476D01*
X127617945Y-82986452D01*
X127598509Y-82996840D01*
X127577428Y-83003236D01*
X127549360Y-83006000D01*
X127085640Y-83006000D01*
X127057572Y-83003236D01*
X127036491Y-82996840D01*
X127017055Y-82986452D01*
X127000024Y-82972476D01*
X126986048Y-82955445D01*
X126975660Y-82936009D01*
X126969264Y-82914928D01*
X126966500Y-82886860D01*
X126966500Y-81073140D01*
X126969264Y-81045072D01*
X126975660Y-81023991D01*
X126986048Y-81004555D01*
X127000024Y-80987524D01*
X127017055Y-80973548D01*
X127036491Y-80963160D01*
X127057572Y-80956764D01*
X127085640Y-80954000D01*
X127549360Y-80954000D01*
X127577428Y-80956764D01*
G37*
G36*
X147766000Y-82997000D02*
G01*
X146964000Y-82997000D01*
X146964000Y-79695000D01*
X147766000Y-79695000D01*
X147766000Y-82997000D01*
G37*
G36*
X154861798Y-81468247D02*
G01*
X154897367Y-81479037D01*
X154930139Y-81496554D01*
X154958869Y-81520131D01*
X154982446Y-81548861D01*
X154999963Y-81581633D01*
X155010753Y-81617202D01*
X155015000Y-81660325D01*
X155015000Y-82719675D01*
X155010753Y-82762798D01*
X154999963Y-82798367D01*
X154982446Y-82831139D01*
X154958869Y-82859869D01*
X154930139Y-82883446D01*
X154897367Y-82900963D01*
X154861798Y-82911753D01*
X154818675Y-82916000D01*
X151759325Y-82916000D01*
X151716202Y-82911753D01*
X151680633Y-82900963D01*
X151647861Y-82883446D01*
X151619131Y-82859869D01*
X151595554Y-82831139D01*
X151578037Y-82798367D01*
X151567247Y-82762798D01*
X151563000Y-82719675D01*
X151563000Y-81660325D01*
X151567247Y-81617202D01*
X151578037Y-81581633D01*
X151595554Y-81548861D01*
X151619131Y-81520131D01*
X151647861Y-81496554D01*
X151680633Y-81479037D01*
X151716202Y-81468247D01*
X151759325Y-81464000D01*
X154818675Y-81464000D01*
X154861798Y-81468247D01*
G37*
G36*
X150226000Y-80407000D02*
G01*
X148624000Y-80407000D01*
X148624000Y-78005000D01*
X150226000Y-78005000D01*
X150226000Y-80407000D01*
G37*
G36*
X138626000Y-80407000D02*
G01*
X137024000Y-80407000D01*
X137024000Y-78005000D01*
X138626000Y-78005000D01*
X138626000Y-80407000D01*
G37*
G36*
X136225000Y-80407000D02*
G01*
X134623000Y-80407000D01*
X134623000Y-78005000D01*
X136225000Y-78005000D01*
X136225000Y-80407000D01*
G37*
G36*
X130625000Y-80407000D02*
G01*
X129023000Y-80407000D01*
X129023000Y-78005000D01*
X130625000Y-78005000D01*
X130625000Y-80407000D01*
G37*
G36*
X124327000Y-80026000D02*
G01*
X123325000Y-80026000D01*
X123325000Y-78724000D01*
X124327000Y-78724000D01*
X124327000Y-80026000D01*
G37*
G36*
X127627000Y-80026000D02*
G01*
X126625000Y-80026000D01*
X126625000Y-78724000D01*
X127627000Y-78724000D01*
X127627000Y-80026000D01*
G37*
G36*
X162841000Y-79676000D02*
G01*
X161639000Y-79676000D01*
X161639000Y-79074000D01*
X162841000Y-79074000D01*
X162841000Y-79676000D01*
G37*
M02*
