G04 #@! TF.GenerationSoftware,KiCad,Pcbnew,(5.1.5)-3*
G04 #@! TF.CreationDate,2020-12-16T15:48:43+01:00*
G04 #@! TF.ProjectId,esc,6573632e-6b69-4636-9164-5f7063625858,rev?*
G04 #@! TF.SameCoordinates,Original*
G04 #@! TF.FileFunction,Legend,Bot*
G04 #@! TF.FilePolarity,Positive*
%FSLAX46Y46*%
G04 Gerber Fmt 4.6, Leading zero omitted, Abs format (unit mm)*
G04 Created by KiCad (PCBNEW (5.1.5)-3) date 2020-12-16 15:48:43*
%MOMM*%
%LPD*%
G04 APERTURE LIST*
%ADD10C,0.010000*%
G04 APERTURE END LIST*
D10*
G36*
X141431462Y-86419074D02*
G01*
X141379222Y-86419576D01*
X141264491Y-86420794D01*
X141174488Y-86422055D01*
X141105719Y-86423663D01*
X141054692Y-86425921D01*
X141017913Y-86429131D01*
X140991889Y-86433597D01*
X140973126Y-86439622D01*
X140958132Y-86447508D01*
X140943709Y-86457347D01*
X140922528Y-86473143D01*
X140905117Y-86489311D01*
X140891105Y-86508636D01*
X140880124Y-86533904D01*
X140871805Y-86567901D01*
X140865779Y-86613410D01*
X140861677Y-86673219D01*
X140859131Y-86750111D01*
X140857770Y-86846873D01*
X140857228Y-86966289D01*
X140857133Y-87110963D01*
X140857235Y-87256149D01*
X140857807Y-87375867D01*
X140859265Y-87472872D01*
X140862026Y-87549919D01*
X140866507Y-87609762D01*
X140873125Y-87655157D01*
X140882296Y-87688857D01*
X140894438Y-87713618D01*
X140909968Y-87732194D01*
X140929301Y-87747339D01*
X140952855Y-87761810D01*
X140955889Y-87763575D01*
X140972741Y-87772355D01*
X140991874Y-87779206D01*
X141016937Y-87784410D01*
X141051582Y-87788250D01*
X141099459Y-87791005D01*
X141164220Y-87792960D01*
X141249514Y-87794395D01*
X141358992Y-87795593D01*
X141372167Y-87795718D01*
X141493004Y-87796487D01*
X141588809Y-87796194D01*
X141662755Y-87794717D01*
X141718017Y-87791934D01*
X141757768Y-87787726D01*
X141785182Y-87781971D01*
X141792106Y-87779696D01*
X141847055Y-87754820D01*
X141883586Y-87724395D01*
X141909319Y-87684645D01*
X141914660Y-87669773D01*
X141919015Y-87646099D01*
X141922474Y-87611023D01*
X141925130Y-87561942D01*
X141927072Y-87496255D01*
X141928390Y-87411361D01*
X141929176Y-87304657D01*
X141929521Y-87173543D01*
X141929555Y-87103621D01*
X141929525Y-86965755D01*
X141929331Y-86853255D01*
X141928818Y-86763263D01*
X141927834Y-86692922D01*
X141926223Y-86639375D01*
X141923840Y-86599889D01*
X141746111Y-86599889D01*
X141746111Y-87601778D01*
X141040555Y-87601778D01*
X141040555Y-86599889D01*
X141746111Y-86599889D01*
X141923840Y-86599889D01*
X141923832Y-86599764D01*
X141920506Y-86571233D01*
X141916092Y-86550925D01*
X141910434Y-86535983D01*
X141903379Y-86523549D01*
X141897805Y-86515215D01*
X141877799Y-86487442D01*
X141857643Y-86465380D01*
X141833995Y-86448414D01*
X141803510Y-86435927D01*
X141762842Y-86427300D01*
X141708648Y-86421919D01*
X141637583Y-86419165D01*
X141546303Y-86418422D01*
X141431462Y-86419074D01*
G37*
X141431462Y-86419074D02*
X141379222Y-86419576D01*
X141264491Y-86420794D01*
X141174488Y-86422055D01*
X141105719Y-86423663D01*
X141054692Y-86425921D01*
X141017913Y-86429131D01*
X140991889Y-86433597D01*
X140973126Y-86439622D01*
X140958132Y-86447508D01*
X140943709Y-86457347D01*
X140922528Y-86473143D01*
X140905117Y-86489311D01*
X140891105Y-86508636D01*
X140880124Y-86533904D01*
X140871805Y-86567901D01*
X140865779Y-86613410D01*
X140861677Y-86673219D01*
X140859131Y-86750111D01*
X140857770Y-86846873D01*
X140857228Y-86966289D01*
X140857133Y-87110963D01*
X140857235Y-87256149D01*
X140857807Y-87375867D01*
X140859265Y-87472872D01*
X140862026Y-87549919D01*
X140866507Y-87609762D01*
X140873125Y-87655157D01*
X140882296Y-87688857D01*
X140894438Y-87713618D01*
X140909968Y-87732194D01*
X140929301Y-87747339D01*
X140952855Y-87761810D01*
X140955889Y-87763575D01*
X140972741Y-87772355D01*
X140991874Y-87779206D01*
X141016937Y-87784410D01*
X141051582Y-87788250D01*
X141099459Y-87791005D01*
X141164220Y-87792960D01*
X141249514Y-87794395D01*
X141358992Y-87795593D01*
X141372167Y-87795718D01*
X141493004Y-87796487D01*
X141588809Y-87796194D01*
X141662755Y-87794717D01*
X141718017Y-87791934D01*
X141757768Y-87787726D01*
X141785182Y-87781971D01*
X141792106Y-87779696D01*
X141847055Y-87754820D01*
X141883586Y-87724395D01*
X141909319Y-87684645D01*
X141914660Y-87669773D01*
X141919015Y-87646099D01*
X141922474Y-87611023D01*
X141925130Y-87561942D01*
X141927072Y-87496255D01*
X141928390Y-87411361D01*
X141929176Y-87304657D01*
X141929521Y-87173543D01*
X141929555Y-87103621D01*
X141929525Y-86965755D01*
X141929331Y-86853255D01*
X141928818Y-86763263D01*
X141927834Y-86692922D01*
X141926223Y-86639375D01*
X141923840Y-86599889D01*
X141746111Y-86599889D01*
X141746111Y-87601778D01*
X141040555Y-87601778D01*
X141040555Y-86599889D01*
X141746111Y-86599889D01*
X141923840Y-86599889D01*
X141923832Y-86599764D01*
X141920506Y-86571233D01*
X141916092Y-86550925D01*
X141910434Y-86535983D01*
X141903379Y-86523549D01*
X141897805Y-86515215D01*
X141877799Y-86487442D01*
X141857643Y-86465380D01*
X141833995Y-86448414D01*
X141803510Y-86435927D01*
X141762842Y-86427300D01*
X141708648Y-86421919D01*
X141637583Y-86419165D01*
X141546303Y-86418422D01*
X141431462Y-86419074D01*
G36*
X140242991Y-86949139D02*
G01*
X140198917Y-87008078D01*
X140160418Y-87058339D01*
X140130729Y-87095792D01*
X140113082Y-87116307D01*
X140110042Y-87118879D01*
X140098537Y-87109511D01*
X140073718Y-87081085D01*
X140038736Y-87037466D01*
X139996741Y-86982520D01*
X139974883Y-86953074D01*
X139850044Y-86783333D01*
X139641152Y-86783333D01*
X139694761Y-86857416D01*
X139723380Y-86896531D01*
X139764022Y-86951507D01*
X139811728Y-87015662D01*
X139861542Y-87082314D01*
X139872352Y-87096730D01*
X139916154Y-87155701D01*
X139953164Y-87206662D01*
X139980382Y-87245395D01*
X139994809Y-87267679D01*
X139996333Y-87271147D01*
X139988323Y-87284536D01*
X139965981Y-87317061D01*
X139931839Y-87365229D01*
X139888432Y-87425549D01*
X139838292Y-87494526D01*
X139783952Y-87568669D01*
X139727946Y-87644485D01*
X139672806Y-87718481D01*
X139646528Y-87753472D01*
X139611984Y-87799333D01*
X139821659Y-87799333D01*
X139961913Y-87608991D01*
X140008727Y-87546046D01*
X140049763Y-87491979D01*
X140082131Y-87450511D01*
X140102942Y-87425358D01*
X140109222Y-87419438D01*
X140119482Y-87430510D01*
X140143409Y-87460656D01*
X140178110Y-87506101D01*
X140220690Y-87563069D01*
X140255100Y-87609780D01*
X140393921Y-87799333D01*
X140603094Y-87799333D01*
X140426232Y-87562972D01*
X140372240Y-87490341D01*
X140323382Y-87423725D01*
X140282457Y-87367009D01*
X140252262Y-87324081D01*
X140235595Y-87298827D01*
X140233890Y-87295769D01*
X140230242Y-87283376D01*
X140232327Y-87267546D01*
X140242035Y-87245126D01*
X140261255Y-87212960D01*
X140291876Y-87167897D01*
X140335786Y-87106782D01*
X140394876Y-87026461D01*
X140396600Y-87024130D01*
X140574791Y-86783333D01*
X140365621Y-86783333D01*
X140242991Y-86949139D01*
G37*
X140242991Y-86949139D02*
X140198917Y-87008078D01*
X140160418Y-87058339D01*
X140130729Y-87095792D01*
X140113082Y-87116307D01*
X140110042Y-87118879D01*
X140098537Y-87109511D01*
X140073718Y-87081085D01*
X140038736Y-87037466D01*
X139996741Y-86982520D01*
X139974883Y-86953074D01*
X139850044Y-86783333D01*
X139641152Y-86783333D01*
X139694761Y-86857416D01*
X139723380Y-86896531D01*
X139764022Y-86951507D01*
X139811728Y-87015662D01*
X139861542Y-87082314D01*
X139872352Y-87096730D01*
X139916154Y-87155701D01*
X139953164Y-87206662D01*
X139980382Y-87245395D01*
X139994809Y-87267679D01*
X139996333Y-87271147D01*
X139988323Y-87284536D01*
X139965981Y-87317061D01*
X139931839Y-87365229D01*
X139888432Y-87425549D01*
X139838292Y-87494526D01*
X139783952Y-87568669D01*
X139727946Y-87644485D01*
X139672806Y-87718481D01*
X139646528Y-87753472D01*
X139611984Y-87799333D01*
X139821659Y-87799333D01*
X139961913Y-87608991D01*
X140008727Y-87546046D01*
X140049763Y-87491979D01*
X140082131Y-87450511D01*
X140102942Y-87425358D01*
X140109222Y-87419438D01*
X140119482Y-87430510D01*
X140143409Y-87460656D01*
X140178110Y-87506101D01*
X140220690Y-87563069D01*
X140255100Y-87609780D01*
X140393921Y-87799333D01*
X140603094Y-87799333D01*
X140426232Y-87562972D01*
X140372240Y-87490341D01*
X140323382Y-87423725D01*
X140282457Y-87367009D01*
X140252262Y-87324081D01*
X140235595Y-87298827D01*
X140233890Y-87295769D01*
X140230242Y-87283376D01*
X140232327Y-87267546D01*
X140242035Y-87245126D01*
X140261255Y-87212960D01*
X140291876Y-87167897D01*
X140335786Y-87106782D01*
X140394876Y-87026461D01*
X140396600Y-87024130D01*
X140574791Y-86783333D01*
X140365621Y-86783333D01*
X140242991Y-86949139D01*
G36*
X138701545Y-86416714D02*
G01*
X138605344Y-86417891D01*
X138530308Y-86420527D01*
X138472910Y-86425176D01*
X138429623Y-86432388D01*
X138396919Y-86442718D01*
X138371271Y-86456716D01*
X138349152Y-86474935D01*
X138331222Y-86493360D01*
X138295944Y-86531579D01*
X138292206Y-87091373D01*
X138290711Y-87250177D01*
X138289612Y-87383088D01*
X138290538Y-87492409D01*
X138295115Y-87580443D01*
X138304968Y-87649492D01*
X138321726Y-87701859D01*
X138347014Y-87739846D01*
X138382460Y-87765758D01*
X138429690Y-87781895D01*
X138490330Y-87790561D01*
X138566007Y-87794058D01*
X138658349Y-87794689D01*
X138768981Y-87794758D01*
X138789175Y-87794875D01*
X138890511Y-87795175D01*
X138984455Y-87794667D01*
X139066717Y-87793438D01*
X139133005Y-87791571D01*
X139179029Y-87789154D01*
X139199055Y-87786718D01*
X139265946Y-87760045D01*
X139313644Y-87716692D01*
X139334285Y-87683479D01*
X139341297Y-87668361D01*
X139346985Y-87650933D01*
X139351487Y-87628253D01*
X139354940Y-87597378D01*
X139357482Y-87555367D01*
X139359250Y-87499277D01*
X139360381Y-87426168D01*
X139361013Y-87333097D01*
X139361284Y-87217122D01*
X139361333Y-87104703D01*
X139361267Y-86959501D01*
X139360752Y-86839766D01*
X139359313Y-86742742D01*
X139356476Y-86665673D01*
X139351765Y-86605804D01*
X139350846Y-86599889D01*
X139177889Y-86599889D01*
X139177889Y-87601778D01*
X138472333Y-87601778D01*
X138472333Y-86599889D01*
X139177889Y-86599889D01*
X139350846Y-86599889D01*
X139344705Y-86560379D01*
X139334823Y-86526642D01*
X139321643Y-86501839D01*
X139304689Y-86483213D01*
X139283489Y-86468008D01*
X139257565Y-86453470D01*
X139248266Y-86448546D01*
X139228732Y-86438776D01*
X139209113Y-86431218D01*
X139185647Y-86425590D01*
X139154570Y-86421608D01*
X139112121Y-86418987D01*
X139054537Y-86417445D01*
X138978053Y-86416697D01*
X138878909Y-86416460D01*
X138822438Y-86416444D01*
X138701545Y-86416714D01*
G37*
X138701545Y-86416714D02*
X138605344Y-86417891D01*
X138530308Y-86420527D01*
X138472910Y-86425176D01*
X138429623Y-86432388D01*
X138396919Y-86442718D01*
X138371271Y-86456716D01*
X138349152Y-86474935D01*
X138331222Y-86493360D01*
X138295944Y-86531579D01*
X138292206Y-87091373D01*
X138290711Y-87250177D01*
X138289612Y-87383088D01*
X138290538Y-87492409D01*
X138295115Y-87580443D01*
X138304968Y-87649492D01*
X138321726Y-87701859D01*
X138347014Y-87739846D01*
X138382460Y-87765758D01*
X138429690Y-87781895D01*
X138490330Y-87790561D01*
X138566007Y-87794058D01*
X138658349Y-87794689D01*
X138768981Y-87794758D01*
X138789175Y-87794875D01*
X138890511Y-87795175D01*
X138984455Y-87794667D01*
X139066717Y-87793438D01*
X139133005Y-87791571D01*
X139179029Y-87789154D01*
X139199055Y-87786718D01*
X139265946Y-87760045D01*
X139313644Y-87716692D01*
X139334285Y-87683479D01*
X139341297Y-87668361D01*
X139346985Y-87650933D01*
X139351487Y-87628253D01*
X139354940Y-87597378D01*
X139357482Y-87555367D01*
X139359250Y-87499277D01*
X139360381Y-87426168D01*
X139361013Y-87333097D01*
X139361284Y-87217122D01*
X139361333Y-87104703D01*
X139361267Y-86959501D01*
X139360752Y-86839766D01*
X139359313Y-86742742D01*
X139356476Y-86665673D01*
X139351765Y-86605804D01*
X139350846Y-86599889D01*
X139177889Y-86599889D01*
X139177889Y-87601778D01*
X138472333Y-87601778D01*
X138472333Y-86599889D01*
X139177889Y-86599889D01*
X139350846Y-86599889D01*
X139344705Y-86560379D01*
X139334823Y-86526642D01*
X139321643Y-86501839D01*
X139304689Y-86483213D01*
X139283489Y-86468008D01*
X139257565Y-86453470D01*
X139248266Y-86448546D01*
X139228732Y-86438776D01*
X139209113Y-86431218D01*
X139185647Y-86425590D01*
X139154570Y-86421608D01*
X139112121Y-86418987D01*
X139054537Y-86417445D01*
X138978053Y-86416697D01*
X138878909Y-86416460D01*
X138822438Y-86416444D01*
X138701545Y-86416714D01*
G36*
X137266406Y-86416594D02*
G01*
X137178565Y-86417208D01*
X137111454Y-86418534D01*
X137061326Y-86420819D01*
X137024436Y-86424311D01*
X136997037Y-86429257D01*
X136975384Y-86435905D01*
X136956008Y-86444367D01*
X136912906Y-86472735D01*
X136877106Y-86508728D01*
X136870414Y-86518450D01*
X136863299Y-86531436D01*
X136857505Y-86546432D01*
X136852898Y-86566295D01*
X136849342Y-86593880D01*
X136846702Y-86632046D01*
X136844842Y-86683647D01*
X136843627Y-86751542D01*
X136842922Y-86838587D01*
X136842592Y-86947638D01*
X136842501Y-87081552D01*
X136842500Y-87107889D01*
X136842076Y-87264587D01*
X136841953Y-87395430D01*
X136843855Y-87502749D01*
X136849505Y-87588874D01*
X136860627Y-87656137D01*
X136878944Y-87706868D01*
X136906181Y-87743398D01*
X136944061Y-87768058D01*
X136994307Y-87783180D01*
X137058644Y-87791093D01*
X137138794Y-87794130D01*
X137236482Y-87794621D01*
X137350500Y-87794875D01*
X137452215Y-87795124D01*
X137546968Y-87794471D01*
X137630364Y-87793015D01*
X137698006Y-87790857D01*
X137745501Y-87788096D01*
X137766553Y-87785398D01*
X137826493Y-87756916D01*
X137874510Y-87706894D01*
X137906049Y-87641039D01*
X137914343Y-87601778D01*
X137724444Y-87601778D01*
X137018528Y-87601778D01*
X137025944Y-86606944D01*
X137724444Y-86599396D01*
X137724444Y-87601778D01*
X137914343Y-87601778D01*
X137914767Y-87599773D01*
X137916862Y-87567579D01*
X137918520Y-87511121D01*
X137919708Y-87434356D01*
X137920390Y-87341240D01*
X137920535Y-87235728D01*
X137920107Y-87121776D01*
X137919500Y-87044389D01*
X137918085Y-86906046D01*
X137916349Y-86793039D01*
X137913723Y-86702483D01*
X137909641Y-86631493D01*
X137903533Y-86577184D01*
X137894834Y-86536672D01*
X137882974Y-86507070D01*
X137867386Y-86485495D01*
X137847503Y-86469061D01*
X137822757Y-86454882D01*
X137801436Y-86444367D01*
X137781781Y-86435799D01*
X137760073Y-86429177D01*
X137732567Y-86424253D01*
X137695518Y-86420779D01*
X137645178Y-86418509D01*
X137577803Y-86417195D01*
X137489646Y-86416589D01*
X137378722Y-86416444D01*
X137266406Y-86416594D01*
G37*
X137266406Y-86416594D02*
X137178565Y-86417208D01*
X137111454Y-86418534D01*
X137061326Y-86420819D01*
X137024436Y-86424311D01*
X136997037Y-86429257D01*
X136975384Y-86435905D01*
X136956008Y-86444367D01*
X136912906Y-86472735D01*
X136877106Y-86508728D01*
X136870414Y-86518450D01*
X136863299Y-86531436D01*
X136857505Y-86546432D01*
X136852898Y-86566295D01*
X136849342Y-86593880D01*
X136846702Y-86632046D01*
X136844842Y-86683647D01*
X136843627Y-86751542D01*
X136842922Y-86838587D01*
X136842592Y-86947638D01*
X136842501Y-87081552D01*
X136842500Y-87107889D01*
X136842076Y-87264587D01*
X136841953Y-87395430D01*
X136843855Y-87502749D01*
X136849505Y-87588874D01*
X136860627Y-87656137D01*
X136878944Y-87706868D01*
X136906181Y-87743398D01*
X136944061Y-87768058D01*
X136994307Y-87783180D01*
X137058644Y-87791093D01*
X137138794Y-87794130D01*
X137236482Y-87794621D01*
X137350500Y-87794875D01*
X137452215Y-87795124D01*
X137546968Y-87794471D01*
X137630364Y-87793015D01*
X137698006Y-87790857D01*
X137745501Y-87788096D01*
X137766553Y-87785398D01*
X137826493Y-87756916D01*
X137874510Y-87706894D01*
X137906049Y-87641039D01*
X137914343Y-87601778D01*
X137724444Y-87601778D01*
X137018528Y-87601778D01*
X137025944Y-86606944D01*
X137724444Y-86599396D01*
X137724444Y-87601778D01*
X137914343Y-87601778D01*
X137914767Y-87599773D01*
X137916862Y-87567579D01*
X137918520Y-87511121D01*
X137919708Y-87434356D01*
X137920390Y-87341240D01*
X137920535Y-87235728D01*
X137920107Y-87121776D01*
X137919500Y-87044389D01*
X137918085Y-86906046D01*
X137916349Y-86793039D01*
X137913723Y-86702483D01*
X137909641Y-86631493D01*
X137903533Y-86577184D01*
X137894834Y-86536672D01*
X137882974Y-86507070D01*
X137867386Y-86485495D01*
X137847503Y-86469061D01*
X137822757Y-86454882D01*
X137801436Y-86444367D01*
X137781781Y-86435799D01*
X137760073Y-86429177D01*
X137732567Y-86424253D01*
X137695518Y-86420779D01*
X137645178Y-86418509D01*
X137577803Y-86417195D01*
X137489646Y-86416589D01*
X137378722Y-86416444D01*
X137266406Y-86416594D01*
G36*
X136093489Y-86417620D02*
G01*
X135990053Y-86418756D01*
X135964824Y-86419072D01*
X135856148Y-86420550D01*
X135771989Y-86422120D01*
X135708642Y-86424118D01*
X135662403Y-86426882D01*
X135629568Y-86430750D01*
X135606431Y-86436058D01*
X135589289Y-86443144D01*
X135574438Y-86452346D01*
X135570712Y-86454972D01*
X135533698Y-86487308D01*
X135507916Y-86526245D01*
X135491648Y-86577121D01*
X135483175Y-86645279D01*
X135480778Y-86734440D01*
X135482950Y-86830352D01*
X135490360Y-86903056D01*
X135504348Y-86957295D01*
X135526256Y-86997814D01*
X135557423Y-87029355D01*
X135565932Y-87035759D01*
X135592321Y-87051519D01*
X135640394Y-87077042D01*
X135706170Y-87110345D01*
X135785673Y-87149442D01*
X135874924Y-87192350D01*
X135965231Y-87234889D01*
X136313235Y-87397166D01*
X136313333Y-87601778D01*
X135636000Y-87601778D01*
X135636000Y-87432444D01*
X135452555Y-87432444D01*
X135452555Y-87799333D01*
X136499793Y-87799333D01*
X136494209Y-87584139D01*
X136490666Y-87486274D01*
X136484792Y-87412067D01*
X136475063Y-87356969D01*
X136459955Y-87316425D01*
X136437942Y-87285886D01*
X136407501Y-87260798D01*
X136380282Y-87243999D01*
X136351023Y-87228594D01*
X136300406Y-87203417D01*
X136232696Y-87170525D01*
X136152159Y-87131979D01*
X136063059Y-87089838D01*
X135992305Y-87056702D01*
X135664222Y-86903725D01*
X135664222Y-86599889D01*
X136313333Y-86599889D01*
X136313333Y-86783333D01*
X136500404Y-86783333D01*
X136493918Y-86673972D01*
X136484949Y-86591462D01*
X136467496Y-86531081D01*
X136438762Y-86487313D01*
X136395954Y-86454644D01*
X136377959Y-86445211D01*
X136357130Y-86435735D01*
X136336195Y-86428514D01*
X136311256Y-86423303D01*
X136278414Y-86419855D01*
X136233771Y-86417923D01*
X136173429Y-86417260D01*
X136093489Y-86417620D01*
G37*
X136093489Y-86417620D02*
X135990053Y-86418756D01*
X135964824Y-86419072D01*
X135856148Y-86420550D01*
X135771989Y-86422120D01*
X135708642Y-86424118D01*
X135662403Y-86426882D01*
X135629568Y-86430750D01*
X135606431Y-86436058D01*
X135589289Y-86443144D01*
X135574438Y-86452346D01*
X135570712Y-86454972D01*
X135533698Y-86487308D01*
X135507916Y-86526245D01*
X135491648Y-86577121D01*
X135483175Y-86645279D01*
X135480778Y-86734440D01*
X135482950Y-86830352D01*
X135490360Y-86903056D01*
X135504348Y-86957295D01*
X135526256Y-86997814D01*
X135557423Y-87029355D01*
X135565932Y-87035759D01*
X135592321Y-87051519D01*
X135640394Y-87077042D01*
X135706170Y-87110345D01*
X135785673Y-87149442D01*
X135874924Y-87192350D01*
X135965231Y-87234889D01*
X136313235Y-87397166D01*
X136313333Y-87601778D01*
X135636000Y-87601778D01*
X135636000Y-87432444D01*
X135452555Y-87432444D01*
X135452555Y-87799333D01*
X136499793Y-87799333D01*
X136494209Y-87584139D01*
X136490666Y-87486274D01*
X136484792Y-87412067D01*
X136475063Y-87356969D01*
X136459955Y-87316425D01*
X136437942Y-87285886D01*
X136407501Y-87260798D01*
X136380282Y-87243999D01*
X136351023Y-87228594D01*
X136300406Y-87203417D01*
X136232696Y-87170525D01*
X136152159Y-87131979D01*
X136063059Y-87089838D01*
X135992305Y-87056702D01*
X135664222Y-86903725D01*
X135664222Y-86599889D01*
X136313333Y-86599889D01*
X136313333Y-86783333D01*
X136500404Y-86783333D01*
X136493918Y-86673972D01*
X136484949Y-86591462D01*
X136467496Y-86531081D01*
X136438762Y-86487313D01*
X136395954Y-86454644D01*
X136377959Y-86445211D01*
X136357130Y-86435735D01*
X136336195Y-86428514D01*
X136311256Y-86423303D01*
X136278414Y-86419855D01*
X136233771Y-86417923D01*
X136173429Y-86417260D01*
X136093489Y-86417620D01*
G36*
X134859889Y-87799333D02*
G01*
X135128000Y-87799333D01*
X135128000Y-87517111D01*
X134859889Y-87517111D01*
X134859889Y-87799333D01*
G37*
X134859889Y-87799333D02*
X135128000Y-87799333D01*
X135128000Y-87517111D01*
X134859889Y-87517111D01*
X134859889Y-87799333D01*
G36*
X134196667Y-87799333D02*
G01*
X134380111Y-87799333D01*
X134380111Y-86599889D01*
X134620000Y-86599889D01*
X134620000Y-86416444D01*
X134196667Y-86416444D01*
X134196667Y-87799333D01*
G37*
X134196667Y-87799333D02*
X134380111Y-87799333D01*
X134380111Y-86599889D01*
X134620000Y-86599889D01*
X134620000Y-86416444D01*
X134196667Y-86416444D01*
X134196667Y-87799333D01*
G36*
X148629316Y-84141028D02*
G01*
X148627281Y-84203015D01*
X148625101Y-84239819D01*
X148622008Y-84254474D01*
X148617236Y-84250012D01*
X148610017Y-84229466D01*
X148608316Y-84224028D01*
X148568169Y-84137431D01*
X148508217Y-84066952D01*
X148479472Y-84044505D01*
X148460624Y-84032484D01*
X148441190Y-84023584D01*
X148416616Y-84017241D01*
X148382350Y-84012894D01*
X148333837Y-84009980D01*
X148266525Y-84007934D01*
X148175859Y-84006194D01*
X148168622Y-84006071D01*
X148070950Y-84004844D01*
X147996814Y-84005105D01*
X147941557Y-84007126D01*
X147900518Y-84011179D01*
X147869039Y-84017534D01*
X147846655Y-84024820D01*
X147788166Y-84058255D01*
X147735552Y-84107946D01*
X147696093Y-84165570D01*
X147677735Y-84217995D01*
X147668237Y-84257659D01*
X147657689Y-84269243D01*
X147647248Y-84252726D01*
X147639648Y-84218639D01*
X147618434Y-84160506D01*
X147577153Y-84102325D01*
X147522654Y-84052535D01*
X147486907Y-84030429D01*
X147465258Y-84020434D01*
X147442282Y-84013190D01*
X147413413Y-84008357D01*
X147374083Y-84005596D01*
X147319723Y-84004567D01*
X147245765Y-84004931D01*
X147160188Y-84006144D01*
X147066023Y-84007811D01*
X146995615Y-84009712D01*
X146944500Y-84012386D01*
X146908215Y-84016372D01*
X146882296Y-84022211D01*
X146862280Y-84030441D01*
X146843702Y-84041604D01*
X146838589Y-84045031D01*
X146772410Y-84105472D01*
X146725495Y-84181377D01*
X146712837Y-84216452D01*
X146709762Y-84241326D01*
X146706979Y-84291920D01*
X146704540Y-84365737D01*
X146702491Y-84460276D01*
X146700883Y-84573039D01*
X146699764Y-84701525D01*
X146699184Y-84843234D01*
X146699111Y-84917045D01*
X146699111Y-85569778D01*
X146981333Y-85569778D01*
X146981333Y-84285666D01*
X147658667Y-84285666D01*
X147658667Y-85569778D01*
X147940889Y-85569778D01*
X147940889Y-84285666D01*
X148632333Y-84285666D01*
X148632333Y-85569778D01*
X148914555Y-85569778D01*
X148914555Y-84003444D01*
X148633355Y-84003444D01*
X148629316Y-84141028D01*
G37*
X148629316Y-84141028D02*
X148627281Y-84203015D01*
X148625101Y-84239819D01*
X148622008Y-84254474D01*
X148617236Y-84250012D01*
X148610017Y-84229466D01*
X148608316Y-84224028D01*
X148568169Y-84137431D01*
X148508217Y-84066952D01*
X148479472Y-84044505D01*
X148460624Y-84032484D01*
X148441190Y-84023584D01*
X148416616Y-84017241D01*
X148382350Y-84012894D01*
X148333837Y-84009980D01*
X148266525Y-84007934D01*
X148175859Y-84006194D01*
X148168622Y-84006071D01*
X148070950Y-84004844D01*
X147996814Y-84005105D01*
X147941557Y-84007126D01*
X147900518Y-84011179D01*
X147869039Y-84017534D01*
X147846655Y-84024820D01*
X147788166Y-84058255D01*
X147735552Y-84107946D01*
X147696093Y-84165570D01*
X147677735Y-84217995D01*
X147668237Y-84257659D01*
X147657689Y-84269243D01*
X147647248Y-84252726D01*
X147639648Y-84218639D01*
X147618434Y-84160506D01*
X147577153Y-84102325D01*
X147522654Y-84052535D01*
X147486907Y-84030429D01*
X147465258Y-84020434D01*
X147442282Y-84013190D01*
X147413413Y-84008357D01*
X147374083Y-84005596D01*
X147319723Y-84004567D01*
X147245765Y-84004931D01*
X147160188Y-84006144D01*
X147066023Y-84007811D01*
X146995615Y-84009712D01*
X146944500Y-84012386D01*
X146908215Y-84016372D01*
X146882296Y-84022211D01*
X146862280Y-84030441D01*
X146843702Y-84041604D01*
X146838589Y-84045031D01*
X146772410Y-84105472D01*
X146725495Y-84181377D01*
X146712837Y-84216452D01*
X146709762Y-84241326D01*
X146706979Y-84291920D01*
X146704540Y-84365737D01*
X146702491Y-84460276D01*
X146700883Y-84573039D01*
X146699764Y-84701525D01*
X146699184Y-84843234D01*
X146699111Y-84917045D01*
X146699111Y-85569778D01*
X146981333Y-85569778D01*
X146981333Y-84285666D01*
X147658667Y-84285666D01*
X147658667Y-85569778D01*
X147940889Y-85569778D01*
X147940889Y-84285666D01*
X148632333Y-84285666D01*
X148632333Y-85569778D01*
X148914555Y-85569778D01*
X148914555Y-84003444D01*
X148633355Y-84003444D01*
X148629316Y-84141028D01*
G36*
X145468351Y-84003613D02*
G01*
X145356974Y-84004196D01*
X145268014Y-84005307D01*
X145198569Y-84007061D01*
X145145736Y-84009573D01*
X145106614Y-84012956D01*
X145078300Y-84017326D01*
X145057894Y-84022797D01*
X145051378Y-84025284D01*
X144977740Y-84068969D01*
X144922346Y-84132409D01*
X144905627Y-84161632D01*
X144899434Y-84175031D01*
X144894271Y-84190636D01*
X144890045Y-84210983D01*
X144886663Y-84238607D01*
X144884031Y-84276046D01*
X144882057Y-84325834D01*
X144880646Y-84390509D01*
X144879707Y-84472605D01*
X144879145Y-84574659D01*
X144878867Y-84699207D01*
X144878780Y-84848785D01*
X144878778Y-84891882D01*
X144878778Y-85569778D01*
X145146889Y-85569778D01*
X145146889Y-85442778D01*
X145148659Y-85379788D01*
X145153459Y-85337282D01*
X145160527Y-85317086D01*
X145169100Y-85321027D01*
X145178413Y-85350931D01*
X145180643Y-85362008D01*
X145202014Y-85415676D01*
X145242263Y-85470462D01*
X145293840Y-85517586D01*
X145336391Y-85543068D01*
X145359451Y-85552083D01*
X145386271Y-85558787D01*
X145421209Y-85563509D01*
X145468619Y-85566576D01*
X145532860Y-85568316D01*
X145618288Y-85569056D01*
X145683111Y-85569158D01*
X145783704Y-85568868D01*
X145860436Y-85567780D01*
X145917663Y-85565567D01*
X145959742Y-85561900D01*
X145991029Y-85556452D01*
X146015881Y-85548894D01*
X146029832Y-85543068D01*
X146099508Y-85496561D01*
X146153783Y-85429853D01*
X146188175Y-85348768D01*
X146192099Y-85332185D01*
X146198176Y-85285306D01*
X146202206Y-85216498D01*
X146203955Y-85131992D01*
X146203194Y-85038023D01*
X146203127Y-85034999D01*
X146201000Y-84950890D01*
X146198443Y-84889530D01*
X146197471Y-84878333D01*
X145923000Y-84878333D01*
X145923000Y-85287555D01*
X145146889Y-85287555D01*
X145146889Y-84878333D01*
X145923000Y-84878333D01*
X146197471Y-84878333D01*
X146194613Y-84845449D01*
X146188669Y-84813176D01*
X146179768Y-84787243D01*
X146167070Y-84762178D01*
X146158986Y-84748180D01*
X146102213Y-84678539D01*
X146053153Y-84642347D01*
X145986500Y-84603166D01*
X145566694Y-84598865D01*
X145146889Y-84594564D01*
X145146889Y-84285666D01*
X146106444Y-84285666D01*
X146106444Y-84003444D01*
X145605047Y-84003444D01*
X145468351Y-84003613D01*
G37*
X145468351Y-84003613D02*
X145356974Y-84004196D01*
X145268014Y-84005307D01*
X145198569Y-84007061D01*
X145145736Y-84009573D01*
X145106614Y-84012956D01*
X145078300Y-84017326D01*
X145057894Y-84022797D01*
X145051378Y-84025284D01*
X144977740Y-84068969D01*
X144922346Y-84132409D01*
X144905627Y-84161632D01*
X144899434Y-84175031D01*
X144894271Y-84190636D01*
X144890045Y-84210983D01*
X144886663Y-84238607D01*
X144884031Y-84276046D01*
X144882057Y-84325834D01*
X144880646Y-84390509D01*
X144879707Y-84472605D01*
X144879145Y-84574659D01*
X144878867Y-84699207D01*
X144878780Y-84848785D01*
X144878778Y-84891882D01*
X144878778Y-85569778D01*
X145146889Y-85569778D01*
X145146889Y-85442778D01*
X145148659Y-85379788D01*
X145153459Y-85337282D01*
X145160527Y-85317086D01*
X145169100Y-85321027D01*
X145178413Y-85350931D01*
X145180643Y-85362008D01*
X145202014Y-85415676D01*
X145242263Y-85470462D01*
X145293840Y-85517586D01*
X145336391Y-85543068D01*
X145359451Y-85552083D01*
X145386271Y-85558787D01*
X145421209Y-85563509D01*
X145468619Y-85566576D01*
X145532860Y-85568316D01*
X145618288Y-85569056D01*
X145683111Y-85569158D01*
X145783704Y-85568868D01*
X145860436Y-85567780D01*
X145917663Y-85565567D01*
X145959742Y-85561900D01*
X145991029Y-85556452D01*
X146015881Y-85548894D01*
X146029832Y-85543068D01*
X146099508Y-85496561D01*
X146153783Y-85429853D01*
X146188175Y-85348768D01*
X146192099Y-85332185D01*
X146198176Y-85285306D01*
X146202206Y-85216498D01*
X146203955Y-85131992D01*
X146203194Y-85038023D01*
X146203127Y-85034999D01*
X146201000Y-84950890D01*
X146198443Y-84889530D01*
X146197471Y-84878333D01*
X145923000Y-84878333D01*
X145923000Y-85287555D01*
X145146889Y-85287555D01*
X145146889Y-84878333D01*
X145923000Y-84878333D01*
X146197471Y-84878333D01*
X146194613Y-84845449D01*
X146188669Y-84813176D01*
X146179768Y-84787243D01*
X146167070Y-84762178D01*
X146158986Y-84748180D01*
X146102213Y-84678539D01*
X146053153Y-84642347D01*
X145986500Y-84603166D01*
X145566694Y-84598865D01*
X145146889Y-84594564D01*
X145146889Y-84285666D01*
X146106444Y-84285666D01*
X146106444Y-84003444D01*
X145605047Y-84003444D01*
X145468351Y-84003613D01*
G36*
X143639473Y-84003479D02*
G01*
X143530860Y-84003699D01*
X143444400Y-84004278D01*
X143377060Y-84005388D01*
X143325805Y-84007202D01*
X143287603Y-84009893D01*
X143259417Y-84013635D01*
X143238215Y-84018601D01*
X143220961Y-84024962D01*
X143204623Y-84032894D01*
X143198247Y-84036237D01*
X143146250Y-84073294D01*
X143100137Y-84122512D01*
X143093722Y-84131487D01*
X143051389Y-84193944D01*
X143047352Y-84881861D01*
X143043314Y-85569778D01*
X143326555Y-85569778D01*
X143327550Y-85439250D01*
X143328162Y-85378575D01*
X143329445Y-85343037D01*
X143332267Y-85329550D01*
X143337497Y-85335028D01*
X143346002Y-85356388D01*
X143348756Y-85363886D01*
X143392598Y-85448208D01*
X143454055Y-85511982D01*
X143499960Y-85540111D01*
X143522622Y-85550114D01*
X143546468Y-85557587D01*
X143575874Y-85562892D01*
X143615213Y-85566392D01*
X143668859Y-85568450D01*
X143741186Y-85569429D01*
X143836567Y-85569692D01*
X143856650Y-85569691D01*
X143967836Y-85569076D01*
X144053516Y-85567204D01*
X144116381Y-85563924D01*
X144159124Y-85559086D01*
X144184439Y-85552538D01*
X144187333Y-85551177D01*
X144248461Y-85515194D01*
X144290871Y-85478431D01*
X144323094Y-85432758D01*
X144334827Y-85410603D01*
X144347655Y-85383619D01*
X144356997Y-85358546D01*
X144363397Y-85330389D01*
X144367399Y-85294152D01*
X144369550Y-85244840D01*
X144370392Y-85177456D01*
X144370472Y-85087006D01*
X144370468Y-85083701D01*
X144369473Y-84976255D01*
X144366034Y-84892596D01*
X144364480Y-84878333D01*
X144088555Y-84878333D01*
X144088555Y-85287555D01*
X143326555Y-85287555D01*
X143326555Y-84878333D01*
X144088555Y-84878333D01*
X144364480Y-84878333D01*
X144359028Y-84828321D01*
X144347331Y-84779024D01*
X144329820Y-84740302D01*
X144305372Y-84707750D01*
X144272863Y-84676965D01*
X144265064Y-84670442D01*
X144237774Y-84649856D01*
X144208971Y-84633421D01*
X144175226Y-84620679D01*
X144133108Y-84611171D01*
X144079187Y-84604440D01*
X144010032Y-84600028D01*
X143922213Y-84597477D01*
X143812300Y-84596328D01*
X143708362Y-84596111D01*
X143326555Y-84596111D01*
X143326555Y-84285666D01*
X144286111Y-84285666D01*
X144286111Y-84003444D01*
X143773275Y-84003444D01*
X143639473Y-84003479D01*
G37*
X143639473Y-84003479D02*
X143530860Y-84003699D01*
X143444400Y-84004278D01*
X143377060Y-84005388D01*
X143325805Y-84007202D01*
X143287603Y-84009893D01*
X143259417Y-84013635D01*
X143238215Y-84018601D01*
X143220961Y-84024962D01*
X143204623Y-84032894D01*
X143198247Y-84036237D01*
X143146250Y-84073294D01*
X143100137Y-84122512D01*
X143093722Y-84131487D01*
X143051389Y-84193944D01*
X143047352Y-84881861D01*
X143043314Y-85569778D01*
X143326555Y-85569778D01*
X143327550Y-85439250D01*
X143328162Y-85378575D01*
X143329445Y-85343037D01*
X143332267Y-85329550D01*
X143337497Y-85335028D01*
X143346002Y-85356388D01*
X143348756Y-85363886D01*
X143392598Y-85448208D01*
X143454055Y-85511982D01*
X143499960Y-85540111D01*
X143522622Y-85550114D01*
X143546468Y-85557587D01*
X143575874Y-85562892D01*
X143615213Y-85566392D01*
X143668859Y-85568450D01*
X143741186Y-85569429D01*
X143836567Y-85569692D01*
X143856650Y-85569691D01*
X143967836Y-85569076D01*
X144053516Y-85567204D01*
X144116381Y-85563924D01*
X144159124Y-85559086D01*
X144184439Y-85552538D01*
X144187333Y-85551177D01*
X144248461Y-85515194D01*
X144290871Y-85478431D01*
X144323094Y-85432758D01*
X144334827Y-85410603D01*
X144347655Y-85383619D01*
X144356997Y-85358546D01*
X144363397Y-85330389D01*
X144367399Y-85294152D01*
X144369550Y-85244840D01*
X144370392Y-85177456D01*
X144370472Y-85087006D01*
X144370468Y-85083701D01*
X144369473Y-84976255D01*
X144366034Y-84892596D01*
X144364480Y-84878333D01*
X144088555Y-84878333D01*
X144088555Y-85287555D01*
X143326555Y-85287555D01*
X143326555Y-84878333D01*
X144088555Y-84878333D01*
X144364480Y-84878333D01*
X144359028Y-84828321D01*
X144347331Y-84779024D01*
X144329820Y-84740302D01*
X144305372Y-84707750D01*
X144272863Y-84676965D01*
X144265064Y-84670442D01*
X144237774Y-84649856D01*
X144208971Y-84633421D01*
X144175226Y-84620679D01*
X144133108Y-84611171D01*
X144079187Y-84604440D01*
X144010032Y-84600028D01*
X143922213Y-84597477D01*
X143812300Y-84596328D01*
X143708362Y-84596111D01*
X143326555Y-84596111D01*
X143326555Y-84285666D01*
X144286111Y-84285666D01*
X144286111Y-84003444D01*
X143773275Y-84003444D01*
X143639473Y-84003479D01*
G36*
X142268222Y-84004620D02*
G01*
X142267935Y-84150960D01*
X142267100Y-84281057D01*
X142265758Y-84393005D01*
X142263948Y-84484897D01*
X142261711Y-84554829D01*
X142259087Y-84600892D01*
X142256116Y-84621182D01*
X142255216Y-84621981D01*
X142241947Y-84611700D01*
X142210361Y-84584725D01*
X142163034Y-84543334D01*
X142102544Y-84489802D01*
X142031469Y-84426407D01*
X141952387Y-84355425D01*
X141901971Y-84309966D01*
X141561733Y-84002654D01*
X141372042Y-84006577D01*
X141182350Y-84010500D01*
X141591353Y-84377389D01*
X141681784Y-84459009D01*
X141765097Y-84535172D01*
X141839047Y-84603752D01*
X141901389Y-84662622D01*
X141949877Y-84709658D01*
X141982266Y-84742733D01*
X141996312Y-84759723D01*
X141996706Y-84761162D01*
X141985705Y-84774100D01*
X141955953Y-84803623D01*
X141909784Y-84847558D01*
X141849532Y-84903730D01*
X141777532Y-84969964D01*
X141696117Y-85044088D01*
X141607621Y-85123926D01*
X141597944Y-85132613D01*
X141507002Y-85214317D01*
X141421187Y-85291592D01*
X141343130Y-85362055D01*
X141275467Y-85423321D01*
X141220829Y-85473006D01*
X141181850Y-85508726D01*
X141161164Y-85528095D01*
X141160771Y-85528479D01*
X141118709Y-85569778D01*
X141499616Y-85569778D01*
X141876658Y-85231111D01*
X141963573Y-85153218D01*
X142043816Y-85081640D01*
X142114991Y-85018491D01*
X142174697Y-84965885D01*
X142220536Y-84925935D01*
X142250109Y-84900757D01*
X142260961Y-84892444D01*
X142262985Y-84905912D01*
X142264792Y-84943746D01*
X142266298Y-85002090D01*
X142267423Y-85077086D01*
X142268082Y-85164879D01*
X142268222Y-85231111D01*
X142268222Y-85569778D01*
X142536333Y-85569778D01*
X142536333Y-83382555D01*
X142268222Y-83382555D01*
X142268222Y-84004620D01*
G37*
X142268222Y-84004620D02*
X142267935Y-84150960D01*
X142267100Y-84281057D01*
X142265758Y-84393005D01*
X142263948Y-84484897D01*
X142261711Y-84554829D01*
X142259087Y-84600892D01*
X142256116Y-84621182D01*
X142255216Y-84621981D01*
X142241947Y-84611700D01*
X142210361Y-84584725D01*
X142163034Y-84543334D01*
X142102544Y-84489802D01*
X142031469Y-84426407D01*
X141952387Y-84355425D01*
X141901971Y-84309966D01*
X141561733Y-84002654D01*
X141372042Y-84006577D01*
X141182350Y-84010500D01*
X141591353Y-84377389D01*
X141681784Y-84459009D01*
X141765097Y-84535172D01*
X141839047Y-84603752D01*
X141901389Y-84662622D01*
X141949877Y-84709658D01*
X141982266Y-84742733D01*
X141996312Y-84759723D01*
X141996706Y-84761162D01*
X141985705Y-84774100D01*
X141955953Y-84803623D01*
X141909784Y-84847558D01*
X141849532Y-84903730D01*
X141777532Y-84969964D01*
X141696117Y-85044088D01*
X141607621Y-85123926D01*
X141597944Y-85132613D01*
X141507002Y-85214317D01*
X141421187Y-85291592D01*
X141343130Y-85362055D01*
X141275467Y-85423321D01*
X141220829Y-85473006D01*
X141181850Y-85508726D01*
X141161164Y-85528095D01*
X141160771Y-85528479D01*
X141118709Y-85569778D01*
X141499616Y-85569778D01*
X141876658Y-85231111D01*
X141963573Y-85153218D01*
X142043816Y-85081640D01*
X142114991Y-85018491D01*
X142174697Y-84965885D01*
X142220536Y-84925935D01*
X142250109Y-84900757D01*
X142260961Y-84892444D01*
X142262985Y-84905912D01*
X142264792Y-84943746D01*
X142266298Y-85002090D01*
X142267423Y-85077086D01*
X142268082Y-85164879D01*
X142268222Y-85231111D01*
X142268222Y-85569778D01*
X142536333Y-85569778D01*
X142536333Y-83382555D01*
X142268222Y-83382555D01*
X142268222Y-84004620D01*
G36*
X140588056Y-83830583D02*
G01*
X140587686Y-83954403D01*
X140587076Y-84052348D01*
X140586105Y-84126768D01*
X140584655Y-84180010D01*
X140582605Y-84214423D01*
X140579834Y-84232354D01*
X140576224Y-84236152D01*
X140571654Y-84228165D01*
X140568260Y-84218241D01*
X140529029Y-84134337D01*
X140470659Y-84068577D01*
X140415595Y-84033111D01*
X140394007Y-84023529D01*
X140371301Y-84016258D01*
X140343378Y-84010980D01*
X140306139Y-84007380D01*
X140255485Y-84005144D01*
X140187317Y-84003955D01*
X140097536Y-84003498D01*
X140030146Y-84003444D01*
X139925662Y-84003576D01*
X139845303Y-84004195D01*
X139784971Y-84005639D01*
X139740567Y-84008244D01*
X139707995Y-84012348D01*
X139683156Y-84018286D01*
X139661954Y-84026396D01*
X139643836Y-84035194D01*
X139569996Y-84086993D01*
X139518452Y-84155891D01*
X139488601Y-84242712D01*
X139487503Y-84248417D01*
X139483137Y-84288505D01*
X139479769Y-84355089D01*
X139477432Y-84446459D01*
X139476157Y-84560906D01*
X139475974Y-84696719D01*
X139476811Y-84840740D01*
X139478042Y-84974560D01*
X139479281Y-85083180D01*
X139480712Y-85169622D01*
X139482521Y-85236910D01*
X139484895Y-85288066D01*
X139488018Y-85326110D01*
X139492076Y-85354067D01*
X139497257Y-85374958D01*
X139503744Y-85391805D01*
X139511654Y-85407500D01*
X139560999Y-85479042D01*
X139622337Y-85528789D01*
X139660934Y-85547937D01*
X139679747Y-85554107D01*
X139705492Y-85559029D01*
X139741209Y-85562829D01*
X139789940Y-85565636D01*
X139854727Y-85567576D01*
X139938611Y-85568776D01*
X140044632Y-85569364D01*
X140175797Y-85569468D01*
X140304076Y-85569258D01*
X140407331Y-85568711D01*
X140488762Y-85567667D01*
X140551566Y-85565965D01*
X140598942Y-85563447D01*
X140634088Y-85559950D01*
X140660203Y-85555315D01*
X140680485Y-85549383D01*
X140694954Y-85543461D01*
X140757296Y-85503324D01*
X140811280Y-85447030D01*
X140848677Y-85383837D01*
X140856263Y-85362024D01*
X140859585Y-85335307D01*
X140862503Y-85280832D01*
X140865009Y-85199063D01*
X140867096Y-85090461D01*
X140868759Y-84955489D01*
X140869989Y-84794608D01*
X140870781Y-84608283D01*
X140871128Y-84396974D01*
X140871143Y-84345639D01*
X140871147Y-84285666D01*
X140589000Y-84285666D01*
X140589000Y-85287555D01*
X139756444Y-85287555D01*
X139756444Y-84285666D01*
X140589000Y-84285666D01*
X140871147Y-84285666D01*
X140871222Y-83382555D01*
X140589000Y-83382555D01*
X140588056Y-83830583D01*
G37*
X140588056Y-83830583D02*
X140587686Y-83954403D01*
X140587076Y-84052348D01*
X140586105Y-84126768D01*
X140584655Y-84180010D01*
X140582605Y-84214423D01*
X140579834Y-84232354D01*
X140576224Y-84236152D01*
X140571654Y-84228165D01*
X140568260Y-84218241D01*
X140529029Y-84134337D01*
X140470659Y-84068577D01*
X140415595Y-84033111D01*
X140394007Y-84023529D01*
X140371301Y-84016258D01*
X140343378Y-84010980D01*
X140306139Y-84007380D01*
X140255485Y-84005144D01*
X140187317Y-84003955D01*
X140097536Y-84003498D01*
X140030146Y-84003444D01*
X139925662Y-84003576D01*
X139845303Y-84004195D01*
X139784971Y-84005639D01*
X139740567Y-84008244D01*
X139707995Y-84012348D01*
X139683156Y-84018286D01*
X139661954Y-84026396D01*
X139643836Y-84035194D01*
X139569996Y-84086993D01*
X139518452Y-84155891D01*
X139488601Y-84242712D01*
X139487503Y-84248417D01*
X139483137Y-84288505D01*
X139479769Y-84355089D01*
X139477432Y-84446459D01*
X139476157Y-84560906D01*
X139475974Y-84696719D01*
X139476811Y-84840740D01*
X139478042Y-84974560D01*
X139479281Y-85083180D01*
X139480712Y-85169622D01*
X139482521Y-85236910D01*
X139484895Y-85288066D01*
X139488018Y-85326110D01*
X139492076Y-85354067D01*
X139497257Y-85374958D01*
X139503744Y-85391805D01*
X139511654Y-85407500D01*
X139560999Y-85479042D01*
X139622337Y-85528789D01*
X139660934Y-85547937D01*
X139679747Y-85554107D01*
X139705492Y-85559029D01*
X139741209Y-85562829D01*
X139789940Y-85565636D01*
X139854727Y-85567576D01*
X139938611Y-85568776D01*
X140044632Y-85569364D01*
X140175797Y-85569468D01*
X140304076Y-85569258D01*
X140407331Y-85568711D01*
X140488762Y-85567667D01*
X140551566Y-85565965D01*
X140598942Y-85563447D01*
X140634088Y-85559950D01*
X140660203Y-85555315D01*
X140680485Y-85549383D01*
X140694954Y-85543461D01*
X140757296Y-85503324D01*
X140811280Y-85447030D01*
X140848677Y-85383837D01*
X140856263Y-85362024D01*
X140859585Y-85335307D01*
X140862503Y-85280832D01*
X140865009Y-85199063D01*
X140867096Y-85090461D01*
X140868759Y-84955489D01*
X140869989Y-84794608D01*
X140870781Y-84608283D01*
X140871128Y-84396974D01*
X140871143Y-84345639D01*
X140871147Y-84285666D01*
X140589000Y-84285666D01*
X140589000Y-85287555D01*
X139756444Y-85287555D01*
X139756444Y-84285666D01*
X140589000Y-84285666D01*
X140871147Y-84285666D01*
X140871222Y-83382555D01*
X140589000Y-83382555D01*
X140588056Y-83830583D01*
G36*
X138360638Y-84006475D02*
G01*
X137839720Y-84010500D01*
X137779638Y-84052833D01*
X137736041Y-84091744D01*
X137697469Y-84139521D01*
X137686722Y-84157358D01*
X137653889Y-84219550D01*
X137653889Y-85569778D01*
X137936111Y-85569778D01*
X137936730Y-85439250D01*
X137937217Y-85378998D01*
X137938497Y-85343852D01*
X137941349Y-85330695D01*
X137946554Y-85336412D01*
X137954893Y-85357885D01*
X137956190Y-85361510D01*
X137987929Y-85431793D01*
X138029475Y-85484356D01*
X138080014Y-85523943D01*
X138138564Y-85562722D01*
X138443032Y-85564988D01*
X138534454Y-85565324D01*
X138617560Y-85564979D01*
X138687764Y-85564025D01*
X138740483Y-85562533D01*
X138771131Y-85560575D01*
X138775722Y-85559812D01*
X138812202Y-85543590D01*
X138856039Y-85515607D01*
X138894800Y-85484227D01*
X138907024Y-85471518D01*
X138924572Y-85445422D01*
X138946021Y-85406598D01*
X138952575Y-85393389D01*
X138962826Y-85368628D01*
X138970185Y-85340310D01*
X138975120Y-85303433D01*
X138978095Y-85252998D01*
X138979577Y-85184004D01*
X138980023Y-85098692D01*
X138979267Y-84991573D01*
X138976004Y-84908072D01*
X138972872Y-84878333D01*
X138698111Y-84878333D01*
X138698111Y-85287555D01*
X137936111Y-85287555D01*
X137936111Y-84878333D01*
X138698111Y-84878333D01*
X138972872Y-84878333D01*
X138969216Y-84843621D01*
X138957886Y-84793656D01*
X138940993Y-84753611D01*
X138917520Y-84718920D01*
X138888103Y-84686669D01*
X138861801Y-84662073D01*
X138834999Y-84642358D01*
X138804329Y-84626990D01*
X138766424Y-84615435D01*
X138717918Y-84607157D01*
X138655442Y-84601622D01*
X138575628Y-84598295D01*
X138475111Y-84596641D01*
X138350521Y-84596125D01*
X138317918Y-84596111D01*
X137936111Y-84596111D01*
X137936111Y-84285666D01*
X138881555Y-84285666D01*
X138881555Y-84002451D01*
X138360638Y-84006475D01*
G37*
X138360638Y-84006475D02*
X137839720Y-84010500D01*
X137779638Y-84052833D01*
X137736041Y-84091744D01*
X137697469Y-84139521D01*
X137686722Y-84157358D01*
X137653889Y-84219550D01*
X137653889Y-85569778D01*
X137936111Y-85569778D01*
X137936730Y-85439250D01*
X137937217Y-85378998D01*
X137938497Y-85343852D01*
X137941349Y-85330695D01*
X137946554Y-85336412D01*
X137954893Y-85357885D01*
X137956190Y-85361510D01*
X137987929Y-85431793D01*
X138029475Y-85484356D01*
X138080014Y-85523943D01*
X138138564Y-85562722D01*
X138443032Y-85564988D01*
X138534454Y-85565324D01*
X138617560Y-85564979D01*
X138687764Y-85564025D01*
X138740483Y-85562533D01*
X138771131Y-85560575D01*
X138775722Y-85559812D01*
X138812202Y-85543590D01*
X138856039Y-85515607D01*
X138894800Y-85484227D01*
X138907024Y-85471518D01*
X138924572Y-85445422D01*
X138946021Y-85406598D01*
X138952575Y-85393389D01*
X138962826Y-85368628D01*
X138970185Y-85340310D01*
X138975120Y-85303433D01*
X138978095Y-85252998D01*
X138979577Y-85184004D01*
X138980023Y-85098692D01*
X138979267Y-84991573D01*
X138976004Y-84908072D01*
X138972872Y-84878333D01*
X138698111Y-84878333D01*
X138698111Y-85287555D01*
X137936111Y-85287555D01*
X137936111Y-84878333D01*
X138698111Y-84878333D01*
X138972872Y-84878333D01*
X138969216Y-84843621D01*
X138957886Y-84793656D01*
X138940993Y-84753611D01*
X138917520Y-84718920D01*
X138888103Y-84686669D01*
X138861801Y-84662073D01*
X138834999Y-84642358D01*
X138804329Y-84626990D01*
X138766424Y-84615435D01*
X138717918Y-84607157D01*
X138655442Y-84601622D01*
X138575628Y-84598295D01*
X138475111Y-84596641D01*
X138350521Y-84596125D01*
X138317918Y-84596111D01*
X137936111Y-84596111D01*
X137936111Y-84285666D01*
X138881555Y-84285666D01*
X138881555Y-84002451D01*
X138360638Y-84006475D01*
G36*
X136009944Y-84010500D02*
G01*
X135958923Y-84045031D01*
X135892744Y-84105472D01*
X135845829Y-84181377D01*
X135833171Y-84216452D01*
X135830095Y-84241326D01*
X135827313Y-84291920D01*
X135824873Y-84365737D01*
X135822824Y-84460276D01*
X135821216Y-84573039D01*
X135820098Y-84701525D01*
X135819517Y-84843234D01*
X135819444Y-84917045D01*
X135819444Y-85569778D01*
X136101667Y-85569778D01*
X136102479Y-85439250D01*
X136103292Y-85308722D01*
X136135683Y-85379278D01*
X136186822Y-85463903D01*
X136252118Y-85524835D01*
X136291374Y-85547289D01*
X136312818Y-85555152D01*
X136342082Y-85561023D01*
X136383123Y-85565161D01*
X136439897Y-85567825D01*
X136516362Y-85569275D01*
X136616475Y-85569770D01*
X136634274Y-85569778D01*
X136733455Y-85569632D01*
X136808777Y-85568928D01*
X136864603Y-85567265D01*
X136905296Y-85564242D01*
X136935218Y-85559460D01*
X136958731Y-85552518D01*
X136980200Y-85543015D01*
X136991975Y-85536944D01*
X137038864Y-85504278D01*
X137083199Y-85460979D01*
X137096500Y-85444059D01*
X137138833Y-85384007D01*
X137143399Y-85120587D01*
X137144611Y-85011798D01*
X137143524Y-84926835D01*
X137140472Y-84878333D01*
X136877778Y-84878333D01*
X136877778Y-85287555D01*
X136101667Y-85287555D01*
X136101667Y-84878333D01*
X136877778Y-84878333D01*
X137140472Y-84878333D01*
X137139403Y-84861348D01*
X137131515Y-84810984D01*
X137119124Y-84771392D01*
X137101497Y-84738219D01*
X137077900Y-84707114D01*
X137072602Y-84700989D01*
X137048866Y-84674488D01*
X137026954Y-84653263D01*
X137003508Y-84636690D01*
X136975173Y-84624147D01*
X136938591Y-84615011D01*
X136890406Y-84608658D01*
X136827262Y-84604465D01*
X136745800Y-84601810D01*
X136642666Y-84600070D01*
X136521472Y-84598695D01*
X136101667Y-84594224D01*
X136101667Y-84285666D01*
X137061222Y-84285666D01*
X137061222Y-84002462D01*
X136009944Y-84010500D01*
G37*
X136009944Y-84010500D02*
X135958923Y-84045031D01*
X135892744Y-84105472D01*
X135845829Y-84181377D01*
X135833171Y-84216452D01*
X135830095Y-84241326D01*
X135827313Y-84291920D01*
X135824873Y-84365737D01*
X135822824Y-84460276D01*
X135821216Y-84573039D01*
X135820098Y-84701525D01*
X135819517Y-84843234D01*
X135819444Y-84917045D01*
X135819444Y-85569778D01*
X136101667Y-85569778D01*
X136102479Y-85439250D01*
X136103292Y-85308722D01*
X136135683Y-85379278D01*
X136186822Y-85463903D01*
X136252118Y-85524835D01*
X136291374Y-85547289D01*
X136312818Y-85555152D01*
X136342082Y-85561023D01*
X136383123Y-85565161D01*
X136439897Y-85567825D01*
X136516362Y-85569275D01*
X136616475Y-85569770D01*
X136634274Y-85569778D01*
X136733455Y-85569632D01*
X136808777Y-85568928D01*
X136864603Y-85567265D01*
X136905296Y-85564242D01*
X136935218Y-85559460D01*
X136958731Y-85552518D01*
X136980200Y-85543015D01*
X136991975Y-85536944D01*
X137038864Y-85504278D01*
X137083199Y-85460979D01*
X137096500Y-85444059D01*
X137138833Y-85384007D01*
X137143399Y-85120587D01*
X137144611Y-85011798D01*
X137143524Y-84926835D01*
X137140472Y-84878333D01*
X136877778Y-84878333D01*
X136877778Y-85287555D01*
X136101667Y-85287555D01*
X136101667Y-84878333D01*
X136877778Y-84878333D01*
X137140472Y-84878333D01*
X137139403Y-84861348D01*
X137131515Y-84810984D01*
X137119124Y-84771392D01*
X137101497Y-84738219D01*
X137077900Y-84707114D01*
X137072602Y-84700989D01*
X137048866Y-84674488D01*
X137026954Y-84653263D01*
X137003508Y-84636690D01*
X136975173Y-84624147D01*
X136938591Y-84615011D01*
X136890406Y-84608658D01*
X136827262Y-84604465D01*
X136745800Y-84601810D01*
X136642666Y-84600070D01*
X136521472Y-84598695D01*
X136101667Y-84594224D01*
X136101667Y-84285666D01*
X137061222Y-84285666D01*
X137061222Y-84002462D01*
X136009944Y-84010500D01*
G36*
X134140222Y-84285666D02*
G01*
X135071555Y-84285666D01*
X135071555Y-84621976D01*
X134687028Y-84626682D01*
X134572808Y-84628143D01*
X134483167Y-84629615D01*
X134414463Y-84631425D01*
X134363054Y-84633898D01*
X134325299Y-84637358D01*
X134297555Y-84642132D01*
X134276182Y-84648546D01*
X134257537Y-84656924D01*
X134239627Y-84666666D01*
X134192476Y-84700809D01*
X134147732Y-84745268D01*
X134133793Y-84763088D01*
X134090833Y-84824232D01*
X134086148Y-85078079D01*
X134084611Y-85168770D01*
X134084163Y-85236257D01*
X134085291Y-85285553D01*
X134088481Y-85321669D01*
X134094221Y-85349619D01*
X134102997Y-85374413D01*
X134115296Y-85401064D01*
X134118076Y-85406761D01*
X134168714Y-85482448D01*
X134214484Y-85522159D01*
X134274278Y-85562722D01*
X134814028Y-85566729D01*
X135353778Y-85570737D01*
X135353778Y-85287555D01*
X134366000Y-85287555D01*
X134366000Y-84906555D01*
X134747453Y-84906555D01*
X134870294Y-84906333D01*
X134968415Y-84905309D01*
X135045315Y-84902943D01*
X135104497Y-84898696D01*
X135149461Y-84892029D01*
X135183707Y-84882405D01*
X135210736Y-84869283D01*
X135234048Y-84852126D01*
X135257145Y-84830394D01*
X135259838Y-84827685D01*
X135289522Y-84796177D01*
X135311560Y-84766809D01*
X135327086Y-84734726D01*
X135337231Y-84695073D01*
X135343128Y-84642994D01*
X135345907Y-84573634D01*
X135346701Y-84482137D01*
X135346722Y-84455000D01*
X135346250Y-84357155D01*
X135344078Y-84282672D01*
X135339074Y-84226694D01*
X135330107Y-84184366D01*
X135316044Y-84150832D01*
X135295754Y-84121238D01*
X135268105Y-84090727D01*
X135259838Y-84082314D01*
X135239295Y-84062316D01*
X135219211Y-84046019D01*
X135196584Y-84033046D01*
X135168412Y-84023016D01*
X135131694Y-84015553D01*
X135083428Y-84010276D01*
X135020611Y-84006808D01*
X134940243Y-84004770D01*
X134839321Y-84003783D01*
X134714843Y-84003468D01*
X134634564Y-84003444D01*
X134140222Y-84003444D01*
X134140222Y-84285666D01*
G37*
X134140222Y-84285666D02*
X135071555Y-84285666D01*
X135071555Y-84621976D01*
X134687028Y-84626682D01*
X134572808Y-84628143D01*
X134483167Y-84629615D01*
X134414463Y-84631425D01*
X134363054Y-84633898D01*
X134325299Y-84637358D01*
X134297555Y-84642132D01*
X134276182Y-84648546D01*
X134257537Y-84656924D01*
X134239627Y-84666666D01*
X134192476Y-84700809D01*
X134147732Y-84745268D01*
X134133793Y-84763088D01*
X134090833Y-84824232D01*
X134086148Y-85078079D01*
X134084611Y-85168770D01*
X134084163Y-85236257D01*
X134085291Y-85285553D01*
X134088481Y-85321669D01*
X134094221Y-85349619D01*
X134102997Y-85374413D01*
X134115296Y-85401064D01*
X134118076Y-85406761D01*
X134168714Y-85482448D01*
X134214484Y-85522159D01*
X134274278Y-85562722D01*
X134814028Y-85566729D01*
X135353778Y-85570737D01*
X135353778Y-85287555D01*
X134366000Y-85287555D01*
X134366000Y-84906555D01*
X134747453Y-84906555D01*
X134870294Y-84906333D01*
X134968415Y-84905309D01*
X135045315Y-84902943D01*
X135104497Y-84898696D01*
X135149461Y-84892029D01*
X135183707Y-84882405D01*
X135210736Y-84869283D01*
X135234048Y-84852126D01*
X135257145Y-84830394D01*
X135259838Y-84827685D01*
X135289522Y-84796177D01*
X135311560Y-84766809D01*
X135327086Y-84734726D01*
X135337231Y-84695073D01*
X135343128Y-84642994D01*
X135345907Y-84573634D01*
X135346701Y-84482137D01*
X135346722Y-84455000D01*
X135346250Y-84357155D01*
X135344078Y-84282672D01*
X135339074Y-84226694D01*
X135330107Y-84184366D01*
X135316044Y-84150832D01*
X135295754Y-84121238D01*
X135268105Y-84090727D01*
X135259838Y-84082314D01*
X135239295Y-84062316D01*
X135219211Y-84046019D01*
X135196584Y-84033046D01*
X135168412Y-84023016D01*
X135131694Y-84015553D01*
X135083428Y-84010276D01*
X135020611Y-84006808D01*
X134940243Y-84004770D01*
X134839321Y-84003783D01*
X134714843Y-84003468D01*
X134634564Y-84003444D01*
X134140222Y-84003444D01*
X134140222Y-84285666D01*
G36*
X130886921Y-78878388D02*
G01*
X130619544Y-78930277D01*
X130358273Y-79008295D01*
X130104900Y-79111746D01*
X129861213Y-79239937D01*
X129629004Y-79392172D01*
X129410063Y-79567757D01*
X129277978Y-79691818D01*
X129088557Y-79899183D01*
X128924414Y-80118259D01*
X128784911Y-80350226D01*
X128669408Y-80596262D01*
X128577269Y-80857550D01*
X128514455Y-81103611D01*
X128502176Y-81162667D01*
X128492763Y-81213669D01*
X128485835Y-81261809D01*
X128481012Y-81312276D01*
X128477913Y-81370261D01*
X128476158Y-81440954D01*
X128475368Y-81529546D01*
X128475161Y-81639833D01*
X128475416Y-81755659D01*
X128476485Y-81848478D01*
X128478682Y-81923500D01*
X128482324Y-81985934D01*
X128487725Y-82040992D01*
X128495202Y-82093883D01*
X128505070Y-82149817D01*
X128506504Y-82157370D01*
X128573657Y-82439333D01*
X128664512Y-82706005D01*
X128779136Y-82957520D01*
X128917598Y-83194012D01*
X129079964Y-83415614D01*
X129229134Y-83584375D01*
X129402670Y-83753241D01*
X129579273Y-83899302D01*
X129765956Y-84027699D01*
X129969732Y-84143572D01*
X130040944Y-84179458D01*
X130279083Y-84284576D01*
X130515084Y-84364762D01*
X130755357Y-84421979D01*
X130916911Y-84447790D01*
X131009018Y-84456954D01*
X131117900Y-84463175D01*
X131235255Y-84466378D01*
X131352780Y-84466490D01*
X131462171Y-84463436D01*
X131555124Y-84457143D01*
X131585513Y-84453745D01*
X131861686Y-84404385D01*
X132129777Y-84329406D01*
X132387899Y-84229957D01*
X132634167Y-84107189D01*
X132866697Y-83962253D01*
X133083602Y-83796300D01*
X133282999Y-83610480D01*
X133463002Y-83405945D01*
X133592350Y-83228752D01*
X133734962Y-82990731D01*
X133852349Y-82742230D01*
X133944434Y-82485298D01*
X134011144Y-82221985D01*
X134052404Y-81954340D01*
X134068139Y-81684413D01*
X134067719Y-81672892D01*
X133928680Y-81672892D01*
X133914208Y-81935442D01*
X133874587Y-82195039D01*
X133809635Y-82448731D01*
X133764143Y-82581750D01*
X133745574Y-82628245D01*
X133729766Y-82662163D01*
X133719858Y-82676845D01*
X133719271Y-82677000D01*
X133707624Y-82667346D01*
X133678198Y-82639776D01*
X133633126Y-82596372D01*
X133574539Y-82539220D01*
X133504570Y-82470404D01*
X133425351Y-82392008D01*
X133339014Y-82306116D01*
X133297171Y-82264339D01*
X132884333Y-81851679D01*
X132884333Y-81653484D01*
X133046611Y-81491666D01*
X133208889Y-81329849D01*
X133208889Y-80376889D01*
X131677276Y-80376889D01*
X131543778Y-80510944D01*
X131410280Y-80645000D01*
X131126912Y-80645000D01*
X130874088Y-80391000D01*
X129243667Y-80391000D01*
X129244082Y-80888416D01*
X129244497Y-81385833D01*
X129634449Y-81789429D01*
X129732127Y-81890458D01*
X129812199Y-81972957D01*
X129876644Y-82038715D01*
X129927444Y-82089522D01*
X129966577Y-82127167D01*
X129996026Y-82153439D01*
X130017769Y-82170128D01*
X130033787Y-82179022D01*
X130046060Y-82181910D01*
X130056569Y-82180582D01*
X130064423Y-82177919D01*
X130104444Y-82162812D01*
X130104444Y-81203732D01*
X130149546Y-81157199D01*
X130183187Y-81127338D01*
X130216131Y-81113811D01*
X130261944Y-81110666D01*
X130311651Y-81106463D01*
X130349764Y-81089911D01*
X130378777Y-81067172D01*
X130424530Y-81010830D01*
X130445821Y-80947809D01*
X130445091Y-80925367D01*
X130302000Y-80925367D01*
X130298941Y-80957500D01*
X130292593Y-80974259D01*
X130266743Y-80983494D01*
X130232388Y-80979510D01*
X130204800Y-80964289D01*
X130203374Y-80962683D01*
X130192878Y-80931936D01*
X130198671Y-80896287D01*
X130217655Y-80869510D01*
X130225289Y-80865329D01*
X130260562Y-80864533D01*
X130288898Y-80885325D01*
X130301872Y-80921111D01*
X130302000Y-80925367D01*
X130445091Y-80925367D01*
X130443727Y-80883440D01*
X130419327Y-80823057D01*
X130373696Y-80771992D01*
X130312119Y-80737142D01*
X130268795Y-80723491D01*
X130234360Y-80722647D01*
X130197221Y-80732505D01*
X130136723Y-80766589D01*
X130088245Y-80820523D01*
X130057861Y-80886566D01*
X130051757Y-80917774D01*
X130043927Y-80957403D01*
X130027093Y-80991189D01*
X129995789Y-81028559D01*
X129975760Y-81048825D01*
X129906889Y-81116661D01*
X129906198Y-81448803D01*
X129905508Y-81780944D01*
X129680420Y-81549547D01*
X129455333Y-81318151D01*
X129455333Y-80588555D01*
X130789422Y-80588555D01*
X130915833Y-80715555D01*
X131042245Y-80842555D01*
X131494977Y-80842555D01*
X131621389Y-80715555D01*
X131747800Y-80588555D01*
X132997222Y-80588555D01*
X132997222Y-81259293D01*
X132834944Y-81421111D01*
X132672667Y-81582928D01*
X132672667Y-81921904D01*
X133153800Y-82403189D01*
X133634934Y-82884475D01*
X133605069Y-82943015D01*
X133585394Y-82977667D01*
X133569618Y-82998667D01*
X133564979Y-83001555D01*
X133553310Y-82991868D01*
X133523636Y-82964056D01*
X133477867Y-82919988D01*
X133417912Y-82861539D01*
X133345681Y-82790578D01*
X133263085Y-82708979D01*
X133172032Y-82618612D01*
X133074431Y-82521349D01*
X133043155Y-82490100D01*
X132531555Y-81978645D01*
X132531555Y-81130869D01*
X132453944Y-81054222D01*
X132412496Y-81010986D01*
X132388633Y-80978751D01*
X132378597Y-80952029D01*
X132232035Y-80952029D01*
X132213812Y-80978091D01*
X132177683Y-80983752D01*
X132144654Y-80975101D01*
X132126691Y-80955330D01*
X132122451Y-80923197D01*
X132131370Y-80890680D01*
X132149533Y-80871325D01*
X132187643Y-80863268D01*
X132217145Y-80880665D01*
X132229810Y-80907580D01*
X132232035Y-80952029D01*
X132378597Y-80952029D01*
X132378083Y-80950662D01*
X132376333Y-80929625D01*
X132369155Y-80885613D01*
X132351426Y-80837954D01*
X132346781Y-80829094D01*
X132300861Y-80772101D01*
X132243577Y-80737658D01*
X132180533Y-80725765D01*
X132117336Y-80736422D01*
X132059591Y-80769629D01*
X132012903Y-80825386D01*
X132010774Y-80829094D01*
X131985732Y-80898065D01*
X131985931Y-80964530D01*
X132008621Y-81023745D01*
X132051051Y-81070966D01*
X132110473Y-81101451D01*
X132174008Y-81110666D01*
X132218932Y-81114740D01*
X132251578Y-81131424D01*
X132277341Y-81156528D01*
X132319062Y-81202389D01*
X132319475Y-81625657D01*
X132319889Y-82048926D01*
X132886367Y-82615534D01*
X133452846Y-83182142D01*
X133421439Y-83232960D01*
X133398403Y-83264469D01*
X133378469Y-83282289D01*
X133373608Y-83283778D01*
X133360870Y-83274065D01*
X133330068Y-83246113D01*
X133283035Y-83201702D01*
X133221600Y-83142609D01*
X133147595Y-83070615D01*
X133062850Y-82987497D01*
X132969196Y-82895036D01*
X132868465Y-82795010D01*
X132789185Y-82715908D01*
X132221185Y-82148038D01*
X131953037Y-82415907D01*
X131684889Y-82683777D01*
X131684889Y-83008053D01*
X131438533Y-83255555D01*
X131099783Y-83255555D01*
X130961947Y-83118237D01*
X130824111Y-82980918D01*
X130824111Y-82697662D01*
X130675944Y-82550000D01*
X130611111Y-82483806D01*
X130565982Y-82432923D01*
X130539027Y-82394073D01*
X130528713Y-82363980D01*
X130533507Y-82339369D01*
X130551879Y-82316961D01*
X130562716Y-82307857D01*
X130601646Y-82261200D01*
X130619286Y-82204065D01*
X130617706Y-82155551D01*
X130478599Y-82155551D01*
X130477707Y-82189262D01*
X130457361Y-82214176D01*
X130425968Y-82225981D01*
X130391939Y-82220360D01*
X130375378Y-82208511D01*
X130359362Y-82175903D01*
X130368554Y-82141535D01*
X130388848Y-82121082D01*
X130425712Y-82108964D01*
X130458224Y-82122290D01*
X130478599Y-82155551D01*
X130617706Y-82155551D01*
X130617278Y-82142424D01*
X130597260Y-82082252D01*
X130560876Y-82029521D01*
X130509764Y-81990205D01*
X130471333Y-81975169D01*
X130404188Y-81970904D01*
X130340219Y-81991104D01*
X130285184Y-82032131D01*
X130244836Y-82090346D01*
X130231387Y-82126879D01*
X130223029Y-82190587D01*
X130237635Y-82244747D01*
X130277393Y-82296837D01*
X130282631Y-82302019D01*
X130313953Y-82337756D01*
X130327692Y-82372284D01*
X130330222Y-82408053D01*
X130331297Y-82432129D01*
X130336454Y-82453770D01*
X130348596Y-82477213D01*
X130370626Y-82506698D01*
X130405443Y-82546465D01*
X130455951Y-82600752D01*
X130478389Y-82624514D01*
X130626555Y-82781161D01*
X130626555Y-83064702D01*
X131028357Y-83467222D01*
X131508135Y-83467222D01*
X131896555Y-83079544D01*
X131896555Y-82754150D01*
X132221317Y-82430310D01*
X133243810Y-83452803D01*
X133131100Y-83566926D01*
X132947363Y-83733459D01*
X132743081Y-83882692D01*
X132521123Y-84013079D01*
X132284359Y-84123075D01*
X132035659Y-84211136D01*
X131838463Y-84262881D01*
X131598055Y-84304730D01*
X131351236Y-84325175D01*
X131106382Y-84323817D01*
X130918662Y-84306908D01*
X130655739Y-84258446D01*
X130400961Y-84183701D01*
X130155945Y-84083848D01*
X129922308Y-83960060D01*
X129701671Y-83813513D01*
X129495649Y-83645381D01*
X129305863Y-83456838D01*
X129133928Y-83249059D01*
X128981465Y-83023218D01*
X128869048Y-82819253D01*
X128764486Y-82578788D01*
X128686321Y-82331823D01*
X128634016Y-82080293D01*
X128607034Y-81826132D01*
X128604840Y-81571276D01*
X128626897Y-81317657D01*
X128672669Y-81067210D01*
X128741619Y-80821870D01*
X128833211Y-80583572D01*
X128946909Y-80354248D01*
X129082176Y-80135835D01*
X129238476Y-79930266D01*
X129415274Y-79739475D01*
X129612032Y-79565397D01*
X129811230Y-79421005D01*
X130042943Y-79285868D01*
X130287066Y-79175647D01*
X130541804Y-79090867D01*
X130805365Y-79032057D01*
X131075954Y-78999742D01*
X131267019Y-78993170D01*
X131539098Y-79007117D01*
X131807143Y-79048436D01*
X132069016Y-79116341D01*
X132322575Y-79210047D01*
X132565681Y-79328770D01*
X132796193Y-79471724D01*
X133001729Y-79629400D01*
X133127582Y-79746416D01*
X133255024Y-79883989D01*
X133378653Y-80035334D01*
X133493070Y-80193664D01*
X133592875Y-80352194D01*
X133630215Y-80419222D01*
X133738742Y-80652236D01*
X133823034Y-80897063D01*
X133882910Y-81150750D01*
X133918186Y-81410344D01*
X133928680Y-81672892D01*
X134067719Y-81672892D01*
X134058275Y-81414254D01*
X134022737Y-81145911D01*
X133961450Y-80881436D01*
X133874340Y-80622876D01*
X133761332Y-80372282D01*
X133700477Y-80259979D01*
X133556562Y-80036463D01*
X133390110Y-79827779D01*
X133203413Y-79635346D01*
X132998769Y-79460586D01*
X132778470Y-79304920D01*
X132544813Y-79169768D01*
X132300091Y-79056553D01*
X132046599Y-78966694D01*
X131786632Y-78901614D01*
X131522485Y-78862732D01*
X131432830Y-78855774D01*
X131158613Y-78853322D01*
X130886921Y-78878388D01*
G37*
X130886921Y-78878388D02*
X130619544Y-78930277D01*
X130358273Y-79008295D01*
X130104900Y-79111746D01*
X129861213Y-79239937D01*
X129629004Y-79392172D01*
X129410063Y-79567757D01*
X129277978Y-79691818D01*
X129088557Y-79899183D01*
X128924414Y-80118259D01*
X128784911Y-80350226D01*
X128669408Y-80596262D01*
X128577269Y-80857550D01*
X128514455Y-81103611D01*
X128502176Y-81162667D01*
X128492763Y-81213669D01*
X128485835Y-81261809D01*
X128481012Y-81312276D01*
X128477913Y-81370261D01*
X128476158Y-81440954D01*
X128475368Y-81529546D01*
X128475161Y-81639833D01*
X128475416Y-81755659D01*
X128476485Y-81848478D01*
X128478682Y-81923500D01*
X128482324Y-81985934D01*
X128487725Y-82040992D01*
X128495202Y-82093883D01*
X128505070Y-82149817D01*
X128506504Y-82157370D01*
X128573657Y-82439333D01*
X128664512Y-82706005D01*
X128779136Y-82957520D01*
X128917598Y-83194012D01*
X129079964Y-83415614D01*
X129229134Y-83584375D01*
X129402670Y-83753241D01*
X129579273Y-83899302D01*
X129765956Y-84027699D01*
X129969732Y-84143572D01*
X130040944Y-84179458D01*
X130279083Y-84284576D01*
X130515084Y-84364762D01*
X130755357Y-84421979D01*
X130916911Y-84447790D01*
X131009018Y-84456954D01*
X131117900Y-84463175D01*
X131235255Y-84466378D01*
X131352780Y-84466490D01*
X131462171Y-84463436D01*
X131555124Y-84457143D01*
X131585513Y-84453745D01*
X131861686Y-84404385D01*
X132129777Y-84329406D01*
X132387899Y-84229957D01*
X132634167Y-84107189D01*
X132866697Y-83962253D01*
X133083602Y-83796300D01*
X133282999Y-83610480D01*
X133463002Y-83405945D01*
X133592350Y-83228752D01*
X133734962Y-82990731D01*
X133852349Y-82742230D01*
X133944434Y-82485298D01*
X134011144Y-82221985D01*
X134052404Y-81954340D01*
X134068139Y-81684413D01*
X134067719Y-81672892D01*
X133928680Y-81672892D01*
X133914208Y-81935442D01*
X133874587Y-82195039D01*
X133809635Y-82448731D01*
X133764143Y-82581750D01*
X133745574Y-82628245D01*
X133729766Y-82662163D01*
X133719858Y-82676845D01*
X133719271Y-82677000D01*
X133707624Y-82667346D01*
X133678198Y-82639776D01*
X133633126Y-82596372D01*
X133574539Y-82539220D01*
X133504570Y-82470404D01*
X133425351Y-82392008D01*
X133339014Y-82306116D01*
X133297171Y-82264339D01*
X132884333Y-81851679D01*
X132884333Y-81653484D01*
X133046611Y-81491666D01*
X133208889Y-81329849D01*
X133208889Y-80376889D01*
X131677276Y-80376889D01*
X131543778Y-80510944D01*
X131410280Y-80645000D01*
X131126912Y-80645000D01*
X130874088Y-80391000D01*
X129243667Y-80391000D01*
X129244082Y-80888416D01*
X129244497Y-81385833D01*
X129634449Y-81789429D01*
X129732127Y-81890458D01*
X129812199Y-81972957D01*
X129876644Y-82038715D01*
X129927444Y-82089522D01*
X129966577Y-82127167D01*
X129996026Y-82153439D01*
X130017769Y-82170128D01*
X130033787Y-82179022D01*
X130046060Y-82181910D01*
X130056569Y-82180582D01*
X130064423Y-82177919D01*
X130104444Y-82162812D01*
X130104444Y-81203732D01*
X130149546Y-81157199D01*
X130183187Y-81127338D01*
X130216131Y-81113811D01*
X130261944Y-81110666D01*
X130311651Y-81106463D01*
X130349764Y-81089911D01*
X130378777Y-81067172D01*
X130424530Y-81010830D01*
X130445821Y-80947809D01*
X130445091Y-80925367D01*
X130302000Y-80925367D01*
X130298941Y-80957500D01*
X130292593Y-80974259D01*
X130266743Y-80983494D01*
X130232388Y-80979510D01*
X130204800Y-80964289D01*
X130203374Y-80962683D01*
X130192878Y-80931936D01*
X130198671Y-80896287D01*
X130217655Y-80869510D01*
X130225289Y-80865329D01*
X130260562Y-80864533D01*
X130288898Y-80885325D01*
X130301872Y-80921111D01*
X130302000Y-80925367D01*
X130445091Y-80925367D01*
X130443727Y-80883440D01*
X130419327Y-80823057D01*
X130373696Y-80771992D01*
X130312119Y-80737142D01*
X130268795Y-80723491D01*
X130234360Y-80722647D01*
X130197221Y-80732505D01*
X130136723Y-80766589D01*
X130088245Y-80820523D01*
X130057861Y-80886566D01*
X130051757Y-80917774D01*
X130043927Y-80957403D01*
X130027093Y-80991189D01*
X129995789Y-81028559D01*
X129975760Y-81048825D01*
X129906889Y-81116661D01*
X129906198Y-81448803D01*
X129905508Y-81780944D01*
X129680420Y-81549547D01*
X129455333Y-81318151D01*
X129455333Y-80588555D01*
X130789422Y-80588555D01*
X130915833Y-80715555D01*
X131042245Y-80842555D01*
X131494977Y-80842555D01*
X131621389Y-80715555D01*
X131747800Y-80588555D01*
X132997222Y-80588555D01*
X132997222Y-81259293D01*
X132834944Y-81421111D01*
X132672667Y-81582928D01*
X132672667Y-81921904D01*
X133153800Y-82403189D01*
X133634934Y-82884475D01*
X133605069Y-82943015D01*
X133585394Y-82977667D01*
X133569618Y-82998667D01*
X133564979Y-83001555D01*
X133553310Y-82991868D01*
X133523636Y-82964056D01*
X133477867Y-82919988D01*
X133417912Y-82861539D01*
X133345681Y-82790578D01*
X133263085Y-82708979D01*
X133172032Y-82618612D01*
X133074431Y-82521349D01*
X133043155Y-82490100D01*
X132531555Y-81978645D01*
X132531555Y-81130869D01*
X132453944Y-81054222D01*
X132412496Y-81010986D01*
X132388633Y-80978751D01*
X132378597Y-80952029D01*
X132232035Y-80952029D01*
X132213812Y-80978091D01*
X132177683Y-80983752D01*
X132144654Y-80975101D01*
X132126691Y-80955330D01*
X132122451Y-80923197D01*
X132131370Y-80890680D01*
X132149533Y-80871325D01*
X132187643Y-80863268D01*
X132217145Y-80880665D01*
X132229810Y-80907580D01*
X132232035Y-80952029D01*
X132378597Y-80952029D01*
X132378083Y-80950662D01*
X132376333Y-80929625D01*
X132369155Y-80885613D01*
X132351426Y-80837954D01*
X132346781Y-80829094D01*
X132300861Y-80772101D01*
X132243577Y-80737658D01*
X132180533Y-80725765D01*
X132117336Y-80736422D01*
X132059591Y-80769629D01*
X132012903Y-80825386D01*
X132010774Y-80829094D01*
X131985732Y-80898065D01*
X131985931Y-80964530D01*
X132008621Y-81023745D01*
X132051051Y-81070966D01*
X132110473Y-81101451D01*
X132174008Y-81110666D01*
X132218932Y-81114740D01*
X132251578Y-81131424D01*
X132277341Y-81156528D01*
X132319062Y-81202389D01*
X132319475Y-81625657D01*
X132319889Y-82048926D01*
X132886367Y-82615534D01*
X133452846Y-83182142D01*
X133421439Y-83232960D01*
X133398403Y-83264469D01*
X133378469Y-83282289D01*
X133373608Y-83283778D01*
X133360870Y-83274065D01*
X133330068Y-83246113D01*
X133283035Y-83201702D01*
X133221600Y-83142609D01*
X133147595Y-83070615D01*
X133062850Y-82987497D01*
X132969196Y-82895036D01*
X132868465Y-82795010D01*
X132789185Y-82715908D01*
X132221185Y-82148038D01*
X131953037Y-82415907D01*
X131684889Y-82683777D01*
X131684889Y-83008053D01*
X131438533Y-83255555D01*
X131099783Y-83255555D01*
X130961947Y-83118237D01*
X130824111Y-82980918D01*
X130824111Y-82697662D01*
X130675944Y-82550000D01*
X130611111Y-82483806D01*
X130565982Y-82432923D01*
X130539027Y-82394073D01*
X130528713Y-82363980D01*
X130533507Y-82339369D01*
X130551879Y-82316961D01*
X130562716Y-82307857D01*
X130601646Y-82261200D01*
X130619286Y-82204065D01*
X130617706Y-82155551D01*
X130478599Y-82155551D01*
X130477707Y-82189262D01*
X130457361Y-82214176D01*
X130425968Y-82225981D01*
X130391939Y-82220360D01*
X130375378Y-82208511D01*
X130359362Y-82175903D01*
X130368554Y-82141535D01*
X130388848Y-82121082D01*
X130425712Y-82108964D01*
X130458224Y-82122290D01*
X130478599Y-82155551D01*
X130617706Y-82155551D01*
X130617278Y-82142424D01*
X130597260Y-82082252D01*
X130560876Y-82029521D01*
X130509764Y-81990205D01*
X130471333Y-81975169D01*
X130404188Y-81970904D01*
X130340219Y-81991104D01*
X130285184Y-82032131D01*
X130244836Y-82090346D01*
X130231387Y-82126879D01*
X130223029Y-82190587D01*
X130237635Y-82244747D01*
X130277393Y-82296837D01*
X130282631Y-82302019D01*
X130313953Y-82337756D01*
X130327692Y-82372284D01*
X130330222Y-82408053D01*
X130331297Y-82432129D01*
X130336454Y-82453770D01*
X130348596Y-82477213D01*
X130370626Y-82506698D01*
X130405443Y-82546465D01*
X130455951Y-82600752D01*
X130478389Y-82624514D01*
X130626555Y-82781161D01*
X130626555Y-83064702D01*
X131028357Y-83467222D01*
X131508135Y-83467222D01*
X131896555Y-83079544D01*
X131896555Y-82754150D01*
X132221317Y-82430310D01*
X133243810Y-83452803D01*
X133131100Y-83566926D01*
X132947363Y-83733459D01*
X132743081Y-83882692D01*
X132521123Y-84013079D01*
X132284359Y-84123075D01*
X132035659Y-84211136D01*
X131838463Y-84262881D01*
X131598055Y-84304730D01*
X131351236Y-84325175D01*
X131106382Y-84323817D01*
X130918662Y-84306908D01*
X130655739Y-84258446D01*
X130400961Y-84183701D01*
X130155945Y-84083848D01*
X129922308Y-83960060D01*
X129701671Y-83813513D01*
X129495649Y-83645381D01*
X129305863Y-83456838D01*
X129133928Y-83249059D01*
X128981465Y-83023218D01*
X128869048Y-82819253D01*
X128764486Y-82578788D01*
X128686321Y-82331823D01*
X128634016Y-82080293D01*
X128607034Y-81826132D01*
X128604840Y-81571276D01*
X128626897Y-81317657D01*
X128672669Y-81067210D01*
X128741619Y-80821870D01*
X128833211Y-80583572D01*
X128946909Y-80354248D01*
X129082176Y-80135835D01*
X129238476Y-79930266D01*
X129415274Y-79739475D01*
X129612032Y-79565397D01*
X129811230Y-79421005D01*
X130042943Y-79285868D01*
X130287066Y-79175647D01*
X130541804Y-79090867D01*
X130805365Y-79032057D01*
X131075954Y-78999742D01*
X131267019Y-78993170D01*
X131539098Y-79007117D01*
X131807143Y-79048436D01*
X132069016Y-79116341D01*
X132322575Y-79210047D01*
X132565681Y-79328770D01*
X132796193Y-79471724D01*
X133001729Y-79629400D01*
X133127582Y-79746416D01*
X133255024Y-79883989D01*
X133378653Y-80035334D01*
X133493070Y-80193664D01*
X133592875Y-80352194D01*
X133630215Y-80419222D01*
X133738742Y-80652236D01*
X133823034Y-80897063D01*
X133882910Y-81150750D01*
X133918186Y-81410344D01*
X133928680Y-81672892D01*
X134067719Y-81672892D01*
X134058275Y-81414254D01*
X134022737Y-81145911D01*
X133961450Y-80881436D01*
X133874340Y-80622876D01*
X133761332Y-80372282D01*
X133700477Y-80259979D01*
X133556562Y-80036463D01*
X133390110Y-79827779D01*
X133203413Y-79635346D01*
X132998769Y-79460586D01*
X132778470Y-79304920D01*
X132544813Y-79169768D01*
X132300091Y-79056553D01*
X132046599Y-78966694D01*
X131786632Y-78901614D01*
X131522485Y-78862732D01*
X131432830Y-78855774D01*
X131158613Y-78853322D01*
X130886921Y-78878388D01*
G36*
X131205245Y-82621650D02*
G01*
X131171672Y-82626665D01*
X131148753Y-82638200D01*
X131127717Y-82658853D01*
X131127269Y-82659361D01*
X131101991Y-82700019D01*
X131092913Y-82751474D01*
X131092668Y-82762330D01*
X131095259Y-82804190D01*
X131107483Y-82835320D01*
X131134949Y-82868023D01*
X131145734Y-82878747D01*
X131182695Y-82910983D01*
X131214996Y-82926508D01*
X131255235Y-82930943D01*
X131262814Y-82931000D01*
X131304644Y-82927973D01*
X131336103Y-82915102D01*
X131369496Y-82886704D01*
X131378636Y-82877488D01*
X131411000Y-82840282D01*
X131426533Y-82807734D01*
X131430856Y-82767402D01*
X131430889Y-82761844D01*
X131425496Y-82712173D01*
X131405663Y-82674561D01*
X131392971Y-82660133D01*
X131369724Y-82638804D01*
X131345505Y-82626879D01*
X131311221Y-82621686D01*
X131258239Y-82620555D01*
X131205245Y-82621650D01*
G37*
X131205245Y-82621650D02*
X131171672Y-82626665D01*
X131148753Y-82638200D01*
X131127717Y-82658853D01*
X131127269Y-82659361D01*
X131101991Y-82700019D01*
X131092913Y-82751474D01*
X131092668Y-82762330D01*
X131095259Y-82804190D01*
X131107483Y-82835320D01*
X131134949Y-82868023D01*
X131145734Y-82878747D01*
X131182695Y-82910983D01*
X131214996Y-82926508D01*
X131255235Y-82930943D01*
X131262814Y-82931000D01*
X131304644Y-82927973D01*
X131336103Y-82915102D01*
X131369496Y-82886704D01*
X131378636Y-82877488D01*
X131411000Y-82840282D01*
X131426533Y-82807734D01*
X131430856Y-82767402D01*
X131430889Y-82761844D01*
X131425496Y-82712173D01*
X131405663Y-82674561D01*
X131392971Y-82660133D01*
X131369724Y-82638804D01*
X131345505Y-82626879D01*
X131311221Y-82621686D01*
X131258239Y-82620555D01*
X131205245Y-82621650D01*
G36*
X131688846Y-81475988D02*
G01*
X131640161Y-81508878D01*
X131601498Y-81555525D01*
X131593940Y-81569642D01*
X131578282Y-81610596D01*
X131577439Y-81645927D01*
X131585254Y-81677816D01*
X131614418Y-81730285D01*
X131661596Y-81767379D01*
X131719573Y-81786368D01*
X131781132Y-81784523D01*
X131824447Y-81768308D01*
X131866625Y-81730463D01*
X131890078Y-81678971D01*
X131895112Y-81621022D01*
X131882035Y-81563808D01*
X131851154Y-81514520D01*
X131812351Y-81484850D01*
X131772858Y-81469539D01*
X131738506Y-81463497D01*
X131688846Y-81475988D01*
G37*
X131688846Y-81475988D02*
X131640161Y-81508878D01*
X131601498Y-81555525D01*
X131593940Y-81569642D01*
X131578282Y-81610596D01*
X131577439Y-81645927D01*
X131585254Y-81677816D01*
X131614418Y-81730285D01*
X131661596Y-81767379D01*
X131719573Y-81786368D01*
X131781132Y-81784523D01*
X131824447Y-81768308D01*
X131866625Y-81730463D01*
X131890078Y-81678971D01*
X131895112Y-81621022D01*
X131882035Y-81563808D01*
X131851154Y-81514520D01*
X131812351Y-81484850D01*
X131772858Y-81469539D01*
X131738506Y-81463497D01*
X131688846Y-81475988D01*
G36*
X130694710Y-81489952D02*
G01*
X130644969Y-81523080D01*
X130610718Y-81570844D01*
X130598333Y-81625722D01*
X130611284Y-81680924D01*
X130645517Y-81728531D01*
X130694102Y-81761719D01*
X130748617Y-81773681D01*
X130794643Y-81768845D01*
X130834661Y-81757320D01*
X130837944Y-81755764D01*
X130879269Y-81719778D01*
X130903464Y-81665172D01*
X130908570Y-81620783D01*
X130895831Y-81568502D01*
X130861681Y-81523017D01*
X130812924Y-81490615D01*
X130756368Y-81477585D01*
X130753555Y-81477555D01*
X130694710Y-81489952D01*
G37*
X130694710Y-81489952D02*
X130644969Y-81523080D01*
X130610718Y-81570844D01*
X130598333Y-81625722D01*
X130611284Y-81680924D01*
X130645517Y-81728531D01*
X130694102Y-81761719D01*
X130748617Y-81773681D01*
X130794643Y-81768845D01*
X130834661Y-81757320D01*
X130837944Y-81755764D01*
X130879269Y-81719778D01*
X130903464Y-81665172D01*
X130908570Y-81620783D01*
X130895831Y-81568502D01*
X130861681Y-81523017D01*
X130812924Y-81490615D01*
X130756368Y-81477585D01*
X130753555Y-81477555D01*
X130694710Y-81489952D01*
M02*
