G04 #@! TF.GenerationSoftware,KiCad,Pcbnew,(5.1.5)-3*
G04 #@! TF.CreationDate,2020-12-16T15:48:43+01:00*
G04 #@! TF.ProjectId,esc,6573632e-6b69-4636-9164-5f7063625858,rev?*
G04 #@! TF.SameCoordinates,Original*
G04 #@! TF.FileFunction,Legend,Top*
G04 #@! TF.FilePolarity,Positive*
%FSLAX46Y46*%
G04 Gerber Fmt 4.6, Leading zero omitted, Abs format (unit mm)*
G04 Created by KiCad (PCBNEW (5.1.5)-3) date 2020-12-16 15:48:43*
%MOMM*%
%LPD*%
G04 APERTURE LIST*
%ADD10C,0.150000*%
%ADD11C,0.010000*%
G04 APERTURE END LIST*
D10*
X127349619Y-109037380D02*
X127349619Y-108037380D01*
X127682952Y-108751666D01*
X128016285Y-108037380D01*
X128016285Y-109037380D01*
X128825809Y-108513571D02*
X128968666Y-108561190D01*
X129016285Y-108608809D01*
X129063904Y-108704047D01*
X129063904Y-108846904D01*
X129016285Y-108942142D01*
X128968666Y-108989761D01*
X128873428Y-109037380D01*
X128492476Y-109037380D01*
X128492476Y-108037380D01*
X128825809Y-108037380D01*
X128921047Y-108085000D01*
X128968666Y-108132619D01*
X129016285Y-108227857D01*
X129016285Y-108323095D01*
X128968666Y-108418333D01*
X128921047Y-108465952D01*
X128825809Y-108513571D01*
X128492476Y-108513571D01*
X129968666Y-109037380D02*
X129492476Y-109037380D01*
X129492476Y-108037380D01*
X130302000Y-109037380D02*
X130302000Y-108037380D01*
X130540095Y-108037380D01*
X130682952Y-108085000D01*
X130778190Y-108180238D01*
X130825809Y-108275476D01*
X130873428Y-108465952D01*
X130873428Y-108608809D01*
X130825809Y-108799285D01*
X130778190Y-108894523D01*
X130682952Y-108989761D01*
X130540095Y-109037380D01*
X130302000Y-109037380D01*
X131873428Y-108942142D02*
X131825809Y-108989761D01*
X131682952Y-109037380D01*
X131587714Y-109037380D01*
X131444857Y-108989761D01*
X131349619Y-108894523D01*
X131302000Y-108799285D01*
X131254380Y-108608809D01*
X131254380Y-108465952D01*
X131302000Y-108275476D01*
X131349619Y-108180238D01*
X131444857Y-108085000D01*
X131587714Y-108037380D01*
X131682952Y-108037380D01*
X131825809Y-108085000D01*
X131873428Y-108132619D01*
X132302000Y-108942142D02*
X132349619Y-108989761D01*
X132302000Y-109037380D01*
X132254380Y-108989761D01*
X132302000Y-108942142D01*
X132302000Y-109037380D01*
X133302000Y-109037380D02*
X132730571Y-109037380D01*
X133016285Y-109037380D02*
X133016285Y-108037380D01*
X132921047Y-108180238D01*
X132825809Y-108275476D01*
X132730571Y-108323095D01*
X121158047Y-107132428D02*
X121919952Y-107132428D01*
X121158047Y-96337428D02*
X121919952Y-96337428D01*
X121539000Y-96718380D02*
X121539000Y-95956476D01*
X171402428Y-115022380D02*
X171640523Y-116022380D01*
X171831000Y-115308095D01*
X172021476Y-116022380D01*
X172259571Y-115022380D01*
X171497666Y-102068380D02*
X171831000Y-103068380D01*
X172164333Y-102068380D01*
X171545285Y-88733380D02*
X171545285Y-89542904D01*
X171592904Y-89638142D01*
X171640523Y-89685761D01*
X171735761Y-89733380D01*
X171926238Y-89733380D01*
X172021476Y-89685761D01*
X172069095Y-89638142D01*
X172116714Y-89542904D01*
X172116714Y-88733380D01*
X148375619Y-84518523D02*
X148375619Y-84042333D01*
X147899428Y-83994714D01*
X147947047Y-84042333D01*
X147994666Y-84137571D01*
X147994666Y-84375666D01*
X147947047Y-84470904D01*
X147899428Y-84518523D01*
X147804190Y-84566142D01*
X147566095Y-84566142D01*
X147470857Y-84518523D01*
X147423238Y-84470904D01*
X147375619Y-84375666D01*
X147375619Y-84137571D01*
X147423238Y-84042333D01*
X147470857Y-83994714D01*
X148375619Y-84851857D02*
X147375619Y-85185190D01*
X148375619Y-85518523D01*
X146724619Y-83899476D02*
X146724619Y-84470904D01*
X145724619Y-84185190D02*
X146724619Y-84185190D01*
X145724619Y-84804238D02*
X146724619Y-84804238D01*
X146010333Y-85137571D01*
X146724619Y-85470904D01*
X145724619Y-85470904D01*
X145724619Y-85947095D02*
X146724619Y-85947095D01*
X146724619Y-86328047D01*
X146677000Y-86423285D01*
X146629380Y-86470904D01*
X146534142Y-86518523D01*
X146391285Y-86518523D01*
X146296047Y-86470904D01*
X146248428Y-86423285D01*
X146200809Y-86328047D01*
X146200809Y-85947095D01*
X144073619Y-84042333D02*
X145073619Y-84042333D01*
X144597428Y-84042333D02*
X144597428Y-84613761D01*
X144073619Y-84613761D02*
X145073619Y-84613761D01*
X145073619Y-85089952D02*
X144264095Y-85089952D01*
X144168857Y-85137571D01*
X144121238Y-85185190D01*
X144073619Y-85280428D01*
X144073619Y-85470904D01*
X144121238Y-85566142D01*
X144168857Y-85613761D01*
X144264095Y-85661380D01*
X145073619Y-85661380D01*
X142422619Y-84042333D02*
X143422619Y-84042333D01*
X142946428Y-84042333D02*
X142946428Y-84613761D01*
X142422619Y-84613761D02*
X143422619Y-84613761D01*
X143422619Y-84947095D02*
X142422619Y-85280428D01*
X143422619Y-85613761D01*
X140771619Y-84042333D02*
X141771619Y-84042333D01*
X141295428Y-84042333D02*
X141295428Y-84613761D01*
X140771619Y-84613761D02*
X141771619Y-84613761D01*
X141771619Y-84994714D02*
X140771619Y-85232809D01*
X141485904Y-85423285D01*
X140771619Y-85613761D01*
X141771619Y-85851856D01*
X140073000Y-84566142D02*
X140120619Y-84470904D01*
X140120619Y-84328047D01*
X140073000Y-84185189D01*
X139977761Y-84089951D01*
X139882523Y-84042332D01*
X139692047Y-83994713D01*
X139549190Y-83994713D01*
X139358714Y-84042332D01*
X139263476Y-84089951D01*
X139168238Y-84185189D01*
X139120619Y-84328047D01*
X139120619Y-84423285D01*
X139168238Y-84566142D01*
X139215857Y-84613761D01*
X139549190Y-84613761D01*
X139549190Y-84423285D01*
X139120619Y-85042332D02*
X140120619Y-85042332D01*
X139120619Y-85613761D01*
X140120619Y-85613761D01*
X139120619Y-86089951D02*
X140120619Y-86089951D01*
X140120619Y-86328047D01*
X140073000Y-86470904D01*
X139977761Y-86566142D01*
X139882523Y-86613761D01*
X139692047Y-86661380D01*
X139549190Y-86661380D01*
X139358714Y-86613761D01*
X139263476Y-86566142D01*
X139168238Y-86470904D01*
X139120619Y-86328047D01*
X139120619Y-86089951D01*
D11*
G36*
X145459615Y-113374943D02*
G01*
X145505394Y-113410036D01*
X145528708Y-113444568D01*
X145547237Y-113498582D01*
X145541277Y-113546169D01*
X145509977Y-113592517D01*
X145503232Y-113599494D01*
X145469550Y-113628702D01*
X145437592Y-113641920D01*
X145395256Y-113644947D01*
X145350186Y-113641300D01*
X145317798Y-113626906D01*
X145293656Y-113605870D01*
X145260359Y-113556463D01*
X145252436Y-113502851D01*
X145269765Y-113448867D01*
X145300032Y-113409663D01*
X145351649Y-113373950D01*
X145406605Y-113362645D01*
X145459615Y-113374943D01*
G37*
X145459615Y-113374943D02*
X145505394Y-113410036D01*
X145528708Y-113444568D01*
X145547237Y-113498582D01*
X145541277Y-113546169D01*
X145509977Y-113592517D01*
X145503232Y-113599494D01*
X145469550Y-113628702D01*
X145437592Y-113641920D01*
X145395256Y-113644947D01*
X145350186Y-113641300D01*
X145317798Y-113626906D01*
X145293656Y-113605870D01*
X145260359Y-113556463D01*
X145252436Y-113502851D01*
X145269765Y-113448867D01*
X145300032Y-113409663D01*
X145351649Y-113373950D01*
X145406605Y-113362645D01*
X145459615Y-113374943D01*
G36*
X144496584Y-113356816D02*
G01*
X144542061Y-113385134D01*
X144560994Y-113402743D01*
X144592687Y-113438006D01*
X144608229Y-113468002D01*
X144612827Y-113503546D01*
X144612895Y-113510569D01*
X144606919Y-113568191D01*
X144586650Y-113608073D01*
X144548579Y-113636940D01*
X144546320Y-113638124D01*
X144484979Y-113657642D01*
X144424546Y-113655195D01*
X144372102Y-113631493D01*
X144357867Y-113619239D01*
X144325465Y-113569811D01*
X144314852Y-113513368D01*
X144324882Y-113456637D01*
X144354408Y-113406344D01*
X144400322Y-113370211D01*
X144451300Y-113352239D01*
X144496584Y-113356816D01*
G37*
X144496584Y-113356816D02*
X144542061Y-113385134D01*
X144560994Y-113402743D01*
X144592687Y-113438006D01*
X144608229Y-113468002D01*
X144612827Y-113503546D01*
X144612895Y-113510569D01*
X144606919Y-113568191D01*
X144586650Y-113608073D01*
X144548579Y-113636940D01*
X144546320Y-113638124D01*
X144484979Y-113657642D01*
X144424546Y-113655195D01*
X144372102Y-113631493D01*
X144357867Y-113619239D01*
X144325465Y-113569811D01*
X144314852Y-113513368D01*
X144324882Y-113456637D01*
X144354408Y-113406344D01*
X144400322Y-113370211D01*
X144451300Y-113352239D01*
X144496584Y-113356816D01*
G36*
X144970050Y-114448256D02*
G01*
X145001936Y-114453656D01*
X145024927Y-114465930D01*
X145044868Y-114484547D01*
X145069950Y-114518650D01*
X145079904Y-114558423D01*
X145080790Y-114582097D01*
X145077904Y-114621654D01*
X145065658Y-114651462D01*
X145038665Y-114683157D01*
X145030095Y-114691655D01*
X144995079Y-114722195D01*
X144964477Y-114736903D01*
X144926356Y-114741104D01*
X144919176Y-114741158D01*
X144879548Y-114738290D01*
X144849744Y-114726096D01*
X144818109Y-114699193D01*
X144809450Y-114690462D01*
X144778789Y-114655215D01*
X144764074Y-114624380D01*
X144759978Y-114586170D01*
X144759948Y-114580904D01*
X144765057Y-114533848D01*
X144783846Y-114498216D01*
X144795870Y-114484547D01*
X144818395Y-114464005D01*
X144841983Y-114452698D01*
X144875535Y-114447943D01*
X144920369Y-114447052D01*
X144970050Y-114448256D01*
G37*
X144970050Y-114448256D02*
X145001936Y-114453656D01*
X145024927Y-114465930D01*
X145044868Y-114484547D01*
X145069950Y-114518650D01*
X145079904Y-114558423D01*
X145080790Y-114582097D01*
X145077904Y-114621654D01*
X145065658Y-114651462D01*
X145038665Y-114683157D01*
X145030095Y-114691655D01*
X144995079Y-114722195D01*
X144964477Y-114736903D01*
X144926356Y-114741104D01*
X144919176Y-114741158D01*
X144879548Y-114738290D01*
X144849744Y-114726096D01*
X144818109Y-114699193D01*
X144809450Y-114690462D01*
X144778789Y-114655215D01*
X144764074Y-114624380D01*
X144759978Y-114586170D01*
X144759948Y-114580904D01*
X144765057Y-114533848D01*
X144783846Y-114498216D01*
X144795870Y-114484547D01*
X144818395Y-114464005D01*
X144841983Y-114452698D01*
X144875535Y-114447943D01*
X144920369Y-114447052D01*
X144970050Y-114448256D01*
G36*
X145031235Y-110879788D02*
G01*
X145140801Y-110885627D01*
X145236032Y-110894638D01*
X145262159Y-110898177D01*
X145527865Y-110950937D01*
X145784727Y-111028710D01*
X146031542Y-111130887D01*
X146267103Y-111256860D01*
X146490209Y-111406019D01*
X146699654Y-111577755D01*
X146805901Y-111678914D01*
X146985388Y-111877085D01*
X147141655Y-112088505D01*
X147274645Y-112313069D01*
X147384303Y-112550673D01*
X147470572Y-112801215D01*
X147521107Y-113003263D01*
X147540511Y-113118732D01*
X147554730Y-113252888D01*
X147563526Y-113398144D01*
X147566664Y-113546914D01*
X147563904Y-113691608D01*
X147555011Y-113824640D01*
X147548575Y-113881501D01*
X147500773Y-114145371D01*
X147428607Y-114399296D01*
X147332980Y-114642023D01*
X147214794Y-114872297D01*
X147074951Y-115088866D01*
X146914354Y-115290475D01*
X146733906Y-115475871D01*
X146534508Y-115643800D01*
X146317063Y-115793009D01*
X146082474Y-115922243D01*
X146078110Y-115924374D01*
X145837554Y-116029450D01*
X145598651Y-116108900D01*
X145358171Y-116163383D01*
X145112888Y-116193561D01*
X144859573Y-116200095D01*
X144751135Y-116196010D01*
X144498600Y-116168861D01*
X144249821Y-116116329D01*
X144006903Y-116039690D01*
X143771949Y-115940220D01*
X143547061Y-115819196D01*
X143334342Y-115677895D01*
X143135896Y-115517592D01*
X142953826Y-115339564D01*
X142790235Y-115145087D01*
X142647226Y-114935438D01*
X142631822Y-114909786D01*
X142513689Y-114685191D01*
X142414964Y-114443897D01*
X142336691Y-114188632D01*
X142304713Y-114052684D01*
X142293145Y-113996495D01*
X142284273Y-113947751D01*
X142277734Y-113901509D01*
X142273165Y-113852831D01*
X142270201Y-113796776D01*
X142268478Y-113728402D01*
X142267634Y-113642771D01*
X142267368Y-113559136D01*
X142385479Y-113559136D01*
X142401717Y-113813609D01*
X142443529Y-114068129D01*
X142511000Y-114321152D01*
X142566967Y-114479732D01*
X142582211Y-114519096D01*
X142982606Y-114118868D01*
X143383000Y-113718641D01*
X143383000Y-113544248D01*
X143229263Y-113390947D01*
X143075527Y-113237646D01*
X143075527Y-112321473D01*
X144513160Y-112321473D01*
X144766104Y-112575473D01*
X145047926Y-112575473D01*
X145167685Y-112455158D01*
X145287443Y-112334842D01*
X146832053Y-112334842D01*
X146831793Y-112806079D01*
X146831532Y-113277316D01*
X146090286Y-114043422D01*
X146050090Y-114027025D01*
X146009895Y-114010628D01*
X146006374Y-113550938D01*
X146002853Y-113091247D01*
X145967110Y-113053939D01*
X145936711Y-113028834D01*
X145901958Y-113018166D01*
X145870368Y-113016581D01*
X145802100Y-113006398D01*
X145749657Y-112978814D01*
X145713192Y-112938089D01*
X145692857Y-112888484D01*
X145689981Y-112849996D01*
X145822704Y-112849996D01*
X145836123Y-112876958D01*
X145861861Y-112893630D01*
X145892723Y-112895487D01*
X145921514Y-112878003D01*
X145922856Y-112876436D01*
X145933015Y-112847528D01*
X145927452Y-112814912D01*
X145909310Y-112790830D01*
X145899752Y-112786457D01*
X145860803Y-112786336D01*
X145832859Y-112810327D01*
X145828798Y-112817270D01*
X145822704Y-112849996D01*
X145689981Y-112849996D01*
X145688805Y-112834260D01*
X145701189Y-112779677D01*
X145730161Y-112728996D01*
X145775873Y-112686476D01*
X145838479Y-112656380D01*
X145857281Y-112651178D01*
X145903727Y-112652482D01*
X145954111Y-112673457D01*
X146000990Y-112709583D01*
X146036917Y-112756340D01*
X146039974Y-112762122D01*
X146057933Y-112804591D01*
X146068688Y-112843263D01*
X146070053Y-112856203D01*
X146080160Y-112888319D01*
X146111455Y-112929993D01*
X146136895Y-112956473D01*
X146203737Y-113022310D01*
X146204391Y-113336971D01*
X146205046Y-113651631D01*
X146418286Y-113432413D01*
X146631527Y-113213195D01*
X146631527Y-112522000D01*
X145367653Y-112522000D01*
X145247895Y-112642316D01*
X145128137Y-112762631D01*
X144685864Y-112762631D01*
X144566106Y-112642316D01*
X144446347Y-112522000D01*
X143262685Y-112522000D01*
X143262685Y-113157436D01*
X143416421Y-113310737D01*
X143570158Y-113464037D01*
X143570158Y-113798539D01*
X142670266Y-114698723D01*
X142687176Y-114739550D01*
X142695395Y-114759617D01*
X142703172Y-114775666D01*
X142712113Y-114786474D01*
X142723826Y-114790816D01*
X142739917Y-114787467D01*
X142761993Y-114775204D01*
X142791662Y-114752802D01*
X142830529Y-114719036D01*
X142880201Y-114672684D01*
X142942285Y-114612520D01*
X143018389Y-114537321D01*
X143110118Y-114445861D01*
X143219080Y-114336918D01*
X143230158Y-114325842D01*
X143717211Y-113838927D01*
X143717211Y-113035771D01*
X143789180Y-112964696D01*
X143827376Y-112925015D01*
X143849392Y-112895431D01*
X143859477Y-112868793D01*
X143861562Y-112845712D01*
X143997866Y-112845712D01*
X144000741Y-112876675D01*
X144006860Y-112887403D01*
X144031349Y-112896153D01*
X144063896Y-112892378D01*
X144090032Y-112877958D01*
X144091383Y-112876436D01*
X144103922Y-112845009D01*
X144096191Y-112814646D01*
X144074012Y-112792241D01*
X144043206Y-112784689D01*
X144019899Y-112791780D01*
X144004890Y-112812740D01*
X143997866Y-112845712D01*
X143861562Y-112845712D01*
X143861855Y-112842477D01*
X143873691Y-112774314D01*
X143903977Y-112720405D01*
X143947984Y-112681676D01*
X144000982Y-112659055D01*
X144058244Y-112653468D01*
X144115040Y-112665841D01*
X144166640Y-112697103D01*
X144208316Y-112748180D01*
X144220250Y-112772228D01*
X144235737Y-112838084D01*
X144227510Y-112899678D01*
X144198591Y-112952668D01*
X144152003Y-112992709D01*
X144090769Y-113015458D01*
X144048519Y-113019005D01*
X144012146Y-113022377D01*
X143982727Y-113037359D01*
X143950939Y-113067593D01*
X143905092Y-113116894D01*
X143904730Y-113518010D01*
X143904369Y-113919125D01*
X143370499Y-114452870D01*
X142836629Y-114986614D01*
X142908421Y-115087754D01*
X143453149Y-114543579D01*
X143997877Y-113999403D01*
X144251912Y-114253175D01*
X144505948Y-114506946D01*
X144505948Y-114814182D01*
X144629342Y-114938091D01*
X144752735Y-115062000D01*
X145061215Y-115062000D01*
X145198002Y-114924745D01*
X145334790Y-114787491D01*
X145334790Y-114520101D01*
X145475158Y-114380210D01*
X145526432Y-114327459D01*
X145568835Y-114280624D01*
X145599207Y-114243423D01*
X145614387Y-114219572D01*
X145615527Y-114215109D01*
X145607095Y-114190052D01*
X145585909Y-114157021D01*
X145575615Y-114144440D01*
X145536260Y-114082910D01*
X145527969Y-114042216D01*
X145661281Y-114042216D01*
X145662476Y-114046505D01*
X145680785Y-114067109D01*
X145710933Y-114073449D01*
X145742181Y-114065579D01*
X145762579Y-114046000D01*
X145769028Y-114010982D01*
X145754435Y-113981518D01*
X145723895Y-113966343D01*
X145715790Y-113965789D01*
X145683473Y-113977289D01*
X145663317Y-114005773D01*
X145661281Y-114042216D01*
X145527969Y-114042216D01*
X145523310Y-114019351D01*
X145536724Y-113955690D01*
X145576466Y-113893858D01*
X145580711Y-113889125D01*
X145611290Y-113859861D01*
X145641550Y-113844178D01*
X145683414Y-113836603D01*
X145698071Y-113835252D01*
X145742717Y-113833113D01*
X145772646Y-113838344D01*
X145799606Y-113854510D01*
X145821100Y-113872566D01*
X145864240Y-113915134D01*
X145888362Y-113953516D01*
X145897924Y-113996326D01*
X145898634Y-114022367D01*
X145886090Y-114084976D01*
X145853557Y-114139486D01*
X145827148Y-114163731D01*
X145810156Y-114186066D01*
X145803151Y-114225143D01*
X145802685Y-114244181D01*
X145802086Y-114269106D01*
X145798388Y-114289878D01*
X145788739Y-114310616D01*
X145770289Y-114335443D01*
X145740185Y-114368480D01*
X145695575Y-114413848D01*
X145662316Y-114447052D01*
X145521948Y-114586943D01*
X145521948Y-114867823D01*
X145331621Y-115058490D01*
X145141293Y-115249158D01*
X144672681Y-115249158D01*
X144495736Y-115071847D01*
X144318790Y-114894536D01*
X144318790Y-114587003D01*
X144158276Y-114426907D01*
X143997761Y-114266811D01*
X143513491Y-114751082D01*
X143029220Y-115235353D01*
X143102505Y-115310197D01*
X143278453Y-115471744D01*
X143473355Y-115617648D01*
X143683430Y-115745989D01*
X143904900Y-115854848D01*
X144133986Y-115942304D01*
X144366907Y-116006437D01*
X144532685Y-116036782D01*
X144586431Y-116044625D01*
X144633719Y-116051745D01*
X144664910Y-116056690D01*
X144666369Y-116056939D01*
X144689471Y-116058457D01*
X144734756Y-116059384D01*
X144797675Y-116059702D01*
X144873680Y-116059395D01*
X144958222Y-116058446D01*
X144980527Y-116058100D01*
X145082944Y-116055992D01*
X145164533Y-116053081D01*
X145231198Y-116048851D01*
X145288845Y-116042783D01*
X145343381Y-116034359D01*
X145400711Y-116023060D01*
X145415000Y-116019982D01*
X145595498Y-115974895D01*
X145762109Y-115920344D01*
X145927169Y-115852095D01*
X145989842Y-115822753D01*
X146217607Y-115698514D01*
X146431569Y-115552176D01*
X146629335Y-115385537D01*
X146788860Y-115222646D01*
X146954649Y-115018041D01*
X147096374Y-114802988D01*
X147213911Y-114578945D01*
X147307132Y-114347373D01*
X147375912Y-114109730D01*
X147420127Y-113867477D01*
X147439651Y-113622073D01*
X147434357Y-113374978D01*
X147404121Y-113127652D01*
X147348817Y-112881554D01*
X147268320Y-112638144D01*
X147162503Y-112398882D01*
X147049286Y-112194473D01*
X146906345Y-111984987D01*
X146743778Y-111793048D01*
X146562888Y-111619562D01*
X146364973Y-111465432D01*
X146151335Y-111331565D01*
X145923274Y-111218864D01*
X145682090Y-111128234D01*
X145429085Y-111060579D01*
X145415000Y-111057574D01*
X145293904Y-111037215D01*
X145155889Y-111022617D01*
X145009094Y-111014037D01*
X144861654Y-111011734D01*
X144721708Y-111015965D01*
X144597393Y-111026990D01*
X144570092Y-111030779D01*
X144306531Y-111083327D01*
X144055162Y-111159250D01*
X143816875Y-111257931D01*
X143592559Y-111378751D01*
X143383104Y-111521091D01*
X143189400Y-111684332D01*
X143012336Y-111867857D01*
X142852803Y-112071046D01*
X142711688Y-112293282D01*
X142684905Y-112341526D01*
X142574554Y-112572599D01*
X142489351Y-112811441D01*
X142429381Y-113056507D01*
X142394728Y-113306254D01*
X142385479Y-113559136D01*
X142267368Y-113559136D01*
X142267321Y-113544684D01*
X142268089Y-113398791D01*
X142270951Y-113279489D01*
X142275910Y-113186715D01*
X142282968Y-113120405D01*
X142284650Y-113110210D01*
X142343439Y-112845211D01*
X142422484Y-112597018D01*
X142522622Y-112364056D01*
X142644691Y-112144753D01*
X142789527Y-111937534D01*
X142957969Y-111740827D01*
X143077086Y-111621112D01*
X143279311Y-111446983D01*
X143497268Y-111293849D01*
X143729035Y-111162623D01*
X143972691Y-111054221D01*
X144226314Y-110969558D01*
X144487982Y-110909548D01*
X144612895Y-110890160D01*
X144698165Y-110882306D01*
X144801753Y-110878027D01*
X144915498Y-110877221D01*
X145031235Y-110879788D01*
G37*
X145031235Y-110879788D02*
X145140801Y-110885627D01*
X145236032Y-110894638D01*
X145262159Y-110898177D01*
X145527865Y-110950937D01*
X145784727Y-111028710D01*
X146031542Y-111130887D01*
X146267103Y-111256860D01*
X146490209Y-111406019D01*
X146699654Y-111577755D01*
X146805901Y-111678914D01*
X146985388Y-111877085D01*
X147141655Y-112088505D01*
X147274645Y-112313069D01*
X147384303Y-112550673D01*
X147470572Y-112801215D01*
X147521107Y-113003263D01*
X147540511Y-113118732D01*
X147554730Y-113252888D01*
X147563526Y-113398144D01*
X147566664Y-113546914D01*
X147563904Y-113691608D01*
X147555011Y-113824640D01*
X147548575Y-113881501D01*
X147500773Y-114145371D01*
X147428607Y-114399296D01*
X147332980Y-114642023D01*
X147214794Y-114872297D01*
X147074951Y-115088866D01*
X146914354Y-115290475D01*
X146733906Y-115475871D01*
X146534508Y-115643800D01*
X146317063Y-115793009D01*
X146082474Y-115922243D01*
X146078110Y-115924374D01*
X145837554Y-116029450D01*
X145598651Y-116108900D01*
X145358171Y-116163383D01*
X145112888Y-116193561D01*
X144859573Y-116200095D01*
X144751135Y-116196010D01*
X144498600Y-116168861D01*
X144249821Y-116116329D01*
X144006903Y-116039690D01*
X143771949Y-115940220D01*
X143547061Y-115819196D01*
X143334342Y-115677895D01*
X143135896Y-115517592D01*
X142953826Y-115339564D01*
X142790235Y-115145087D01*
X142647226Y-114935438D01*
X142631822Y-114909786D01*
X142513689Y-114685191D01*
X142414964Y-114443897D01*
X142336691Y-114188632D01*
X142304713Y-114052684D01*
X142293145Y-113996495D01*
X142284273Y-113947751D01*
X142277734Y-113901509D01*
X142273165Y-113852831D01*
X142270201Y-113796776D01*
X142268478Y-113728402D01*
X142267634Y-113642771D01*
X142267368Y-113559136D01*
X142385479Y-113559136D01*
X142401717Y-113813609D01*
X142443529Y-114068129D01*
X142511000Y-114321152D01*
X142566967Y-114479732D01*
X142582211Y-114519096D01*
X142982606Y-114118868D01*
X143383000Y-113718641D01*
X143383000Y-113544248D01*
X143229263Y-113390947D01*
X143075527Y-113237646D01*
X143075527Y-112321473D01*
X144513160Y-112321473D01*
X144766104Y-112575473D01*
X145047926Y-112575473D01*
X145167685Y-112455158D01*
X145287443Y-112334842D01*
X146832053Y-112334842D01*
X146831793Y-112806079D01*
X146831532Y-113277316D01*
X146090286Y-114043422D01*
X146050090Y-114027025D01*
X146009895Y-114010628D01*
X146006374Y-113550938D01*
X146002853Y-113091247D01*
X145967110Y-113053939D01*
X145936711Y-113028834D01*
X145901958Y-113018166D01*
X145870368Y-113016581D01*
X145802100Y-113006398D01*
X145749657Y-112978814D01*
X145713192Y-112938089D01*
X145692857Y-112888484D01*
X145689981Y-112849996D01*
X145822704Y-112849996D01*
X145836123Y-112876958D01*
X145861861Y-112893630D01*
X145892723Y-112895487D01*
X145921514Y-112878003D01*
X145922856Y-112876436D01*
X145933015Y-112847528D01*
X145927452Y-112814912D01*
X145909310Y-112790830D01*
X145899752Y-112786457D01*
X145860803Y-112786336D01*
X145832859Y-112810327D01*
X145828798Y-112817270D01*
X145822704Y-112849996D01*
X145689981Y-112849996D01*
X145688805Y-112834260D01*
X145701189Y-112779677D01*
X145730161Y-112728996D01*
X145775873Y-112686476D01*
X145838479Y-112656380D01*
X145857281Y-112651178D01*
X145903727Y-112652482D01*
X145954111Y-112673457D01*
X146000990Y-112709583D01*
X146036917Y-112756340D01*
X146039974Y-112762122D01*
X146057933Y-112804591D01*
X146068688Y-112843263D01*
X146070053Y-112856203D01*
X146080160Y-112888319D01*
X146111455Y-112929993D01*
X146136895Y-112956473D01*
X146203737Y-113022310D01*
X146204391Y-113336971D01*
X146205046Y-113651631D01*
X146418286Y-113432413D01*
X146631527Y-113213195D01*
X146631527Y-112522000D01*
X145367653Y-112522000D01*
X145247895Y-112642316D01*
X145128137Y-112762631D01*
X144685864Y-112762631D01*
X144566106Y-112642316D01*
X144446347Y-112522000D01*
X143262685Y-112522000D01*
X143262685Y-113157436D01*
X143416421Y-113310737D01*
X143570158Y-113464037D01*
X143570158Y-113798539D01*
X142670266Y-114698723D01*
X142687176Y-114739550D01*
X142695395Y-114759617D01*
X142703172Y-114775666D01*
X142712113Y-114786474D01*
X142723826Y-114790816D01*
X142739917Y-114787467D01*
X142761993Y-114775204D01*
X142791662Y-114752802D01*
X142830529Y-114719036D01*
X142880201Y-114672684D01*
X142942285Y-114612520D01*
X143018389Y-114537321D01*
X143110118Y-114445861D01*
X143219080Y-114336918D01*
X143230158Y-114325842D01*
X143717211Y-113838927D01*
X143717211Y-113035771D01*
X143789180Y-112964696D01*
X143827376Y-112925015D01*
X143849392Y-112895431D01*
X143859477Y-112868793D01*
X143861562Y-112845712D01*
X143997866Y-112845712D01*
X144000741Y-112876675D01*
X144006860Y-112887403D01*
X144031349Y-112896153D01*
X144063896Y-112892378D01*
X144090032Y-112877958D01*
X144091383Y-112876436D01*
X144103922Y-112845009D01*
X144096191Y-112814646D01*
X144074012Y-112792241D01*
X144043206Y-112784689D01*
X144019899Y-112791780D01*
X144004890Y-112812740D01*
X143997866Y-112845712D01*
X143861562Y-112845712D01*
X143861855Y-112842477D01*
X143873691Y-112774314D01*
X143903977Y-112720405D01*
X143947984Y-112681676D01*
X144000982Y-112659055D01*
X144058244Y-112653468D01*
X144115040Y-112665841D01*
X144166640Y-112697103D01*
X144208316Y-112748180D01*
X144220250Y-112772228D01*
X144235737Y-112838084D01*
X144227510Y-112899678D01*
X144198591Y-112952668D01*
X144152003Y-112992709D01*
X144090769Y-113015458D01*
X144048519Y-113019005D01*
X144012146Y-113022377D01*
X143982727Y-113037359D01*
X143950939Y-113067593D01*
X143905092Y-113116894D01*
X143904730Y-113518010D01*
X143904369Y-113919125D01*
X143370499Y-114452870D01*
X142836629Y-114986614D01*
X142908421Y-115087754D01*
X143453149Y-114543579D01*
X143997877Y-113999403D01*
X144251912Y-114253175D01*
X144505948Y-114506946D01*
X144505948Y-114814182D01*
X144629342Y-114938091D01*
X144752735Y-115062000D01*
X145061215Y-115062000D01*
X145198002Y-114924745D01*
X145334790Y-114787491D01*
X145334790Y-114520101D01*
X145475158Y-114380210D01*
X145526432Y-114327459D01*
X145568835Y-114280624D01*
X145599207Y-114243423D01*
X145614387Y-114219572D01*
X145615527Y-114215109D01*
X145607095Y-114190052D01*
X145585909Y-114157021D01*
X145575615Y-114144440D01*
X145536260Y-114082910D01*
X145527969Y-114042216D01*
X145661281Y-114042216D01*
X145662476Y-114046505D01*
X145680785Y-114067109D01*
X145710933Y-114073449D01*
X145742181Y-114065579D01*
X145762579Y-114046000D01*
X145769028Y-114010982D01*
X145754435Y-113981518D01*
X145723895Y-113966343D01*
X145715790Y-113965789D01*
X145683473Y-113977289D01*
X145663317Y-114005773D01*
X145661281Y-114042216D01*
X145527969Y-114042216D01*
X145523310Y-114019351D01*
X145536724Y-113955690D01*
X145576466Y-113893858D01*
X145580711Y-113889125D01*
X145611290Y-113859861D01*
X145641550Y-113844178D01*
X145683414Y-113836603D01*
X145698071Y-113835252D01*
X145742717Y-113833113D01*
X145772646Y-113838344D01*
X145799606Y-113854510D01*
X145821100Y-113872566D01*
X145864240Y-113915134D01*
X145888362Y-113953516D01*
X145897924Y-113996326D01*
X145898634Y-114022367D01*
X145886090Y-114084976D01*
X145853557Y-114139486D01*
X145827148Y-114163731D01*
X145810156Y-114186066D01*
X145803151Y-114225143D01*
X145802685Y-114244181D01*
X145802086Y-114269106D01*
X145798388Y-114289878D01*
X145788739Y-114310616D01*
X145770289Y-114335443D01*
X145740185Y-114368480D01*
X145695575Y-114413848D01*
X145662316Y-114447052D01*
X145521948Y-114586943D01*
X145521948Y-114867823D01*
X145331621Y-115058490D01*
X145141293Y-115249158D01*
X144672681Y-115249158D01*
X144495736Y-115071847D01*
X144318790Y-114894536D01*
X144318790Y-114587003D01*
X144158276Y-114426907D01*
X143997761Y-114266811D01*
X143513491Y-114751082D01*
X143029220Y-115235353D01*
X143102505Y-115310197D01*
X143278453Y-115471744D01*
X143473355Y-115617648D01*
X143683430Y-115745989D01*
X143904900Y-115854848D01*
X144133986Y-115942304D01*
X144366907Y-116006437D01*
X144532685Y-116036782D01*
X144586431Y-116044625D01*
X144633719Y-116051745D01*
X144664910Y-116056690D01*
X144666369Y-116056939D01*
X144689471Y-116058457D01*
X144734756Y-116059384D01*
X144797675Y-116059702D01*
X144873680Y-116059395D01*
X144958222Y-116058446D01*
X144980527Y-116058100D01*
X145082944Y-116055992D01*
X145164533Y-116053081D01*
X145231198Y-116048851D01*
X145288845Y-116042783D01*
X145343381Y-116034359D01*
X145400711Y-116023060D01*
X145415000Y-116019982D01*
X145595498Y-115974895D01*
X145762109Y-115920344D01*
X145927169Y-115852095D01*
X145989842Y-115822753D01*
X146217607Y-115698514D01*
X146431569Y-115552176D01*
X146629335Y-115385537D01*
X146788860Y-115222646D01*
X146954649Y-115018041D01*
X147096374Y-114802988D01*
X147213911Y-114578945D01*
X147307132Y-114347373D01*
X147375912Y-114109730D01*
X147420127Y-113867477D01*
X147439651Y-113622073D01*
X147434357Y-113374978D01*
X147404121Y-113127652D01*
X147348817Y-112881554D01*
X147268320Y-112638144D01*
X147162503Y-112398882D01*
X147049286Y-112194473D01*
X146906345Y-111984987D01*
X146743778Y-111793048D01*
X146562888Y-111619562D01*
X146364973Y-111465432D01*
X146151335Y-111331565D01*
X145923274Y-111218864D01*
X145682090Y-111128234D01*
X145429085Y-111060579D01*
X145415000Y-111057574D01*
X145293904Y-111037215D01*
X145155889Y-111022617D01*
X145009094Y-111014037D01*
X144861654Y-111011734D01*
X144721708Y-111015965D01*
X144597393Y-111026990D01*
X144570092Y-111030779D01*
X144306531Y-111083327D01*
X144055162Y-111159250D01*
X143816875Y-111257931D01*
X143592559Y-111378751D01*
X143383104Y-111521091D01*
X143189400Y-111684332D01*
X143012336Y-111867857D01*
X142852803Y-112071046D01*
X142711688Y-112293282D01*
X142684905Y-112341526D01*
X142574554Y-112572599D01*
X142489351Y-112811441D01*
X142429381Y-113056507D01*
X142394728Y-113306254D01*
X142385479Y-113559136D01*
X142267368Y-113559136D01*
X142267321Y-113544684D01*
X142268089Y-113398791D01*
X142270951Y-113279489D01*
X142275910Y-113186715D01*
X142282968Y-113120405D01*
X142284650Y-113110210D01*
X142343439Y-112845211D01*
X142422484Y-112597018D01*
X142522622Y-112364056D01*
X142644691Y-112144753D01*
X142789527Y-111937534D01*
X142957969Y-111740827D01*
X143077086Y-111621112D01*
X143279311Y-111446983D01*
X143497268Y-111293849D01*
X143729035Y-111162623D01*
X143972691Y-111054221D01*
X144226314Y-110969558D01*
X144487982Y-110909548D01*
X144612895Y-110890160D01*
X144698165Y-110882306D01*
X144801753Y-110878027D01*
X144915498Y-110877221D01*
X145031235Y-110879788D01*
M02*
