M48
; DRILL file {KiCad (5.1.5)-3} date 16/12/2020 15:44:55
; FORMAT={-:-/ absolute / inch / decimal}
; #@! TF.CreationDate,2020-12-16T15:44:55+01:00
; #@! TF.GenerationSoftware,Kicad,Pcbnew,(5.1.5)-3
FMAT,2
INCH
T1C0.0079
T2C0.0080
T3C0.0118
T4C0.0157
T5C0.0728
T6C0.0984
%
G90
G05
T1
X4.44Y-3.125
X4.44Y-3.15
X4.44Y-3.175
X4.44Y-3.2
X4.44Y-3.225
X4.44Y-3.25
X4.44Y-3.275
X4.44Y-3.51
X4.44Y-3.535
X4.44Y-3.56
X4.44Y-3.585
X4.44Y-3.61
X4.44Y-3.635
X4.44Y-3.66
X4.465Y-3.125
X4.465Y-3.15
X4.465Y-3.175
X4.465Y-3.2
X4.465Y-3.225
X4.465Y-3.25
X4.465Y-3.275
X4.465Y-3.51
X4.465Y-3.535
X4.465Y-3.56
X4.465Y-3.585
X4.465Y-3.61
X4.465Y-3.635
X4.465Y-3.66
X4.49Y-3.125
X4.49Y-3.15
X4.49Y-3.175
X4.49Y-3.2
X4.49Y-3.225
X4.49Y-3.25
X4.49Y-3.275
X4.49Y-3.51
X4.49Y-3.535
X4.49Y-3.56
X4.49Y-3.585
X4.49Y-3.61
X4.49Y-3.635
X4.49Y-3.66
X4.515Y-3.125
X4.515Y-3.15
X4.515Y-3.175
X4.515Y-3.2
X4.515Y-3.225
X4.515Y-3.25
X4.515Y-3.275
X4.515Y-3.51
X4.515Y-3.535
X4.515Y-3.56
X4.515Y-3.585
X4.515Y-3.61
X4.515Y-3.635
X4.515Y-3.66
X4.54Y-3.125
X4.54Y-3.15
X4.54Y-3.175
X4.54Y-3.2
X4.54Y-3.225
X4.54Y-3.25
X4.54Y-3.275
X4.54Y-3.51
X4.54Y-3.535
X4.54Y-3.56
X4.54Y-3.585
X4.54Y-3.61
X4.54Y-3.635
X4.54Y-3.66
X4.565Y-3.125
X4.565Y-3.15
X4.565Y-3.175
X4.565Y-3.2
X4.565Y-3.225
X4.565Y-3.25
X4.565Y-3.275
X4.565Y-3.51
X4.565Y-3.535
X4.565Y-3.56
X4.565Y-3.585
X4.565Y-3.61
X4.565Y-3.635
X4.565Y-3.66
X4.63Y-3.125
X4.63Y-3.15
X4.63Y-3.175
X4.63Y-3.2
X4.63Y-3.225
X4.63Y-3.25
X4.63Y-3.275
X4.655Y-3.125
X4.655Y-3.15
X4.655Y-3.175
X4.655Y-3.2
X4.655Y-3.225
X4.655Y-3.25
X4.655Y-3.275
X4.68Y-3.125
X4.68Y-3.15
X4.68Y-3.175
X4.68Y-3.2
X4.68Y-3.225
X4.68Y-3.25
X4.68Y-3.275
X4.705Y-3.125
X4.705Y-3.15
X4.705Y-3.175
X4.705Y-3.2
X4.705Y-3.225
X4.705Y-3.25
X4.705Y-3.275
X4.73Y-3.125
X4.73Y-3.15
X4.73Y-3.175
X4.73Y-3.2
X4.73Y-3.225
X4.73Y-3.25
X4.73Y-3.275
X4.755Y-3.125
X4.755Y-3.15
X4.755Y-3.175
X4.755Y-3.2
X4.755Y-3.225
X4.755Y-3.25
X4.755Y-3.275
X5.245Y-3.5825
X5.245Y-3.6075
X5.245Y-3.6325
X5.245Y-3.6575
X5.6725Y-3.455
X5.6725Y-3.48
X5.6975Y-3.455
X5.6975Y-3.48
X5.7225Y-3.455
X5.7225Y-3.48
X5.7475Y-3.455
X5.7475Y-3.48
X5.985Y-3.125
X5.985Y-3.15
X5.985Y-3.175
X5.985Y-3.2
X5.985Y-3.225
X5.985Y-3.25
X5.985Y-3.275
X5.985Y-3.625
X5.985Y-3.65
X5.985Y-3.675
X5.985Y-3.7
X5.985Y-3.725
X5.985Y-3.75
X5.985Y-3.775
X5.985Y-4.165
X5.985Y-4.19
X5.985Y-4.215
X5.985Y-4.24
X5.985Y-4.265
X5.985Y-4.29
X5.985Y-4.315
X6.01Y-3.125
X6.01Y-3.15
X6.01Y-3.175
X6.01Y-3.2
X6.01Y-3.225
X6.01Y-3.25
X6.01Y-3.275
X6.01Y-3.625
X6.01Y-3.65
X6.01Y-3.675
X6.01Y-3.7
X6.01Y-3.725
X6.01Y-3.75
X6.01Y-3.775
X6.01Y-4.165
X6.01Y-4.19
X6.01Y-4.215
X6.01Y-4.24
X6.01Y-4.265
X6.01Y-4.29
X6.01Y-4.315
X6.035Y-3.125
X6.035Y-3.15
X6.035Y-3.175
X6.035Y-3.2
X6.035Y-3.225
X6.035Y-3.25
X6.035Y-3.275
X6.035Y-3.625
X6.035Y-3.65
X6.035Y-3.675
X6.035Y-3.7
X6.035Y-3.725
X6.035Y-3.75
X6.035Y-3.775
X6.035Y-4.165
X6.035Y-4.19
X6.035Y-4.215
X6.035Y-4.24
X6.035Y-4.265
X6.035Y-4.29
X6.035Y-4.315
X6.06Y-3.125
X6.06Y-3.15
X6.06Y-3.175
X6.06Y-3.2
X6.06Y-3.225
X6.06Y-3.25
X6.06Y-3.275
X6.06Y-3.625
X6.06Y-3.65
X6.06Y-3.675
X6.06Y-3.7
X6.06Y-3.725
X6.06Y-3.75
X6.06Y-3.775
X6.06Y-4.165
X6.06Y-4.19
X6.06Y-4.215
X6.06Y-4.24
X6.06Y-4.265
X6.06Y-4.29
X6.06Y-4.315
X6.085Y-3.125
X6.085Y-3.15
X6.085Y-3.175
X6.085Y-3.2
X6.085Y-3.225
X6.085Y-3.25
X6.085Y-3.275
X6.085Y-3.625
X6.085Y-3.65
X6.085Y-3.675
X6.085Y-3.7
X6.085Y-3.725
X6.085Y-3.75
X6.085Y-3.775
X6.085Y-4.165
X6.085Y-4.19
X6.085Y-4.215
X6.085Y-4.24
X6.085Y-4.265
X6.085Y-4.29
X6.085Y-4.315
X6.11Y-3.125
X6.11Y-3.15
X6.11Y-3.175
X6.11Y-3.2
X6.11Y-3.225
X6.11Y-3.25
X6.11Y-3.275
X6.11Y-3.625
X6.11Y-3.65
X6.11Y-3.675
X6.11Y-3.7
X6.11Y-3.725
X6.11Y-3.75
X6.11Y-3.775
X6.11Y-4.165
X6.11Y-4.19
X6.11Y-4.215
X6.11Y-4.24
X6.11Y-4.265
X6.11Y-4.29
X6.11Y-4.315
X6.19Y-3.125
X6.19Y-3.15
X6.19Y-3.175
X6.19Y-3.2
X6.19Y-3.225
X6.19Y-3.25
X6.19Y-3.275
X6.19Y-3.625
X6.19Y-3.65
X6.19Y-3.675
X6.19Y-3.7
X6.19Y-3.725
X6.19Y-3.75
X6.19Y-3.775
X6.19Y-4.165
X6.19Y-4.19
X6.19Y-4.215
X6.19Y-4.24
X6.19Y-4.265
X6.19Y-4.29
X6.19Y-4.315
X6.215Y-3.125
X6.215Y-3.15
X6.215Y-3.175
X6.215Y-3.2
X6.215Y-3.225
X6.215Y-3.25
X6.215Y-3.275
X6.215Y-3.625
X6.215Y-3.65
X6.215Y-3.675
X6.215Y-3.7
X6.215Y-3.725
X6.215Y-3.75
X6.215Y-3.775
X6.215Y-4.165
X6.215Y-4.19
X6.215Y-4.215
X6.215Y-4.24
X6.215Y-4.265
X6.215Y-4.29
X6.215Y-4.315
X6.24Y-3.125
X6.24Y-3.15
X6.24Y-3.175
X6.24Y-3.2
X6.24Y-3.225
X6.24Y-3.25
X6.24Y-3.275
X6.24Y-3.625
X6.24Y-3.65
X6.24Y-3.675
X6.24Y-3.7
X6.24Y-3.725
X6.24Y-3.75
X6.24Y-3.775
X6.24Y-4.165
X6.24Y-4.19
X6.24Y-4.215
X6.24Y-4.24
X6.24Y-4.265
X6.24Y-4.29
X6.24Y-4.315
X6.265Y-3.125
X6.265Y-3.15
X6.265Y-3.175
X6.265Y-3.2
X6.265Y-3.225
X6.265Y-3.25
X6.265Y-3.275
X6.265Y-3.625
X6.265Y-3.65
X6.265Y-3.675
X6.265Y-3.7
X6.265Y-3.725
X6.265Y-3.75
X6.265Y-3.775
X6.265Y-4.165
X6.265Y-4.19
X6.265Y-4.215
X6.265Y-4.24
X6.265Y-4.265
X6.265Y-4.29
X6.265Y-4.315
X6.29Y-3.125
X6.29Y-3.15
X6.29Y-3.175
X6.29Y-3.2
X6.29Y-3.225
X6.29Y-3.25
X6.29Y-3.275
X6.29Y-3.625
X6.29Y-3.65
X6.29Y-3.675
X6.29Y-3.7
X6.29Y-3.725
X6.29Y-3.75
X6.29Y-3.775
X6.29Y-4.165
X6.29Y-4.19
X6.29Y-4.215
X6.29Y-4.24
X6.29Y-4.265
X6.29Y-4.29
X6.29Y-4.315
X6.315Y-3.125
X6.315Y-3.15
X6.315Y-3.175
X6.315Y-3.2
X6.315Y-3.225
X6.315Y-3.25
X6.315Y-3.275
X6.315Y-3.625
X6.315Y-3.65
X6.315Y-3.675
X6.315Y-3.7
X6.315Y-3.725
X6.315Y-3.75
X6.315Y-3.775
X6.315Y-4.165
X6.315Y-4.19
X6.315Y-4.215
X6.315Y-4.24
X6.315Y-4.265
X6.315Y-4.29
X6.315Y-4.315
T2
X5.6084Y-3.8934
X5.6084Y-3.9367
X5.6084Y-3.98
X5.6084Y-4.0233
X5.6084Y-4.0666
X5.6517Y-3.8934
X5.6517Y-3.9367
X5.6517Y-3.98
X5.6517Y-4.0233
X5.6517Y-4.0666
X5.695Y-3.8934
X5.695Y-3.9367
X5.695Y-3.98
X5.695Y-4.0233
X5.695Y-4.0666
X5.7383Y-3.8934
X5.7383Y-3.9367
X5.7383Y-3.98
X5.7383Y-4.0233
X5.7383Y-4.0666
X5.7816Y-3.8934
X5.7816Y-3.9367
X5.7816Y-3.98
X5.7816Y-4.0233
X5.7816Y-4.0666
T3
X4.845Y-4.475
X4.845Y-4.525
X4.845Y-4.575
X4.905Y-4.1672
X4.905Y-4.075
X4.91Y-3.54
X4.915Y-3.8425
X4.965Y-3.125
X5.035Y-3.71
X5.095Y-3.71
X5.11Y-4.03
X5.11Y-3.995
X5.115Y-3.89
X5.1385Y-4.0085
X5.17Y-4.5
X5.17Y-4.575
X5.175Y-3.71
X5.1832Y-4.06
X5.195Y-4.205
X5.2147Y-4.0598
X5.225Y-4.225
X5.2462Y-4.0612
X5.2708Y-3.96
X5.2723Y-3.7246
X5.275Y-4.095
X5.275Y-4.43
X5.295Y-3.985
X5.3207Y-4.0403
X5.3208Y-4.0055
X5.335Y-3.7423
X5.3436Y-3.8614
X5.3575Y-4.2475
X5.365Y-4.175
X5.37Y-3.78
X5.3913Y-3.8331
X5.395Y-3.73
X5.4Y-3.67
X5.4025Y-3.61
X5.4061Y-4.3309
X5.41Y-4.43
X5.4225Y-4.2475
X5.445Y-3.99
X5.45Y-4.165
X5.45Y-4.33
X5.475Y-3.935
X5.475Y-4.515
X5.475Y-4.03
X5.48Y-4.1
X5.515Y-4.405
X5.515Y-4.445
X5.515Y-4.515
X5.5156Y-3.8051
X5.5189Y-4.1148
X5.53Y-3.105
X5.54Y-3.825
X5.54Y-3.53
X5.55Y-4.19
X5.555Y-4.12
X5.555Y-4.155
X5.5735Y-3.9041
X5.5735Y-3.955
X5.5735Y-3.99
X5.5735Y-4.03
X5.5735Y-4.07
X5.645Y-4.285
X5.645Y-4.325
X5.665Y-3.57
X5.7271Y-4.2857
X5.78Y-3.635
X5.805Y-4.285
X5.805Y-4.325
X5.845Y-4.2
X5.86Y-4.475
X5.935Y-4.395
X5.9432Y-3.9804
X5.995Y-3.5565
X6.2075Y-3.845
X6.345Y-3.845
X6.54Y-3.55
X6.55Y-4.0725
X6.5525Y-4.5825
X6.6Y-3.55
X6.6125Y-4.0725
X6.6125Y-4.5825
T4
X6.385Y-3.58
X6.385Y-4.11
T5
X6.4939Y-3.6889
X6.4939Y-3.92
X6.725Y-3.6889
X6.725Y-3.92
X6.4939Y-3.1739
X6.4939Y-3.405
X6.725Y-3.1739
X6.725Y-3.405
X4.485Y-3.8789
X4.485Y-4.11
X4.7161Y-3.8789
X4.7161Y-4.11
X6.4939Y-4.2039
X6.4939Y-4.435
X6.725Y-4.2039
X6.725Y-4.435
X4.485Y-4.3039
X4.485Y-4.535
X4.7161Y-4.3039
X4.7161Y-4.535
T6
X6.6094Y-3.8044
X6.6094Y-3.2894
X4.6006Y-3.9944
X6.6094Y-4.3194
X4.6006Y-4.4194
T0
M30
