G04 #@! TF.GenerationSoftware,KiCad,Pcbnew,(5.1.5)-3*
G04 #@! TF.CreationDate,2020-12-16T15:48:44+01:00*
G04 #@! TF.ProjectId,esc,6573632e-6b69-4636-9164-5f7063625858,rev?*
G04 #@! TF.SameCoordinates,Original*
G04 #@! TF.FileFunction,Soldermask,Bot*
G04 #@! TF.FilePolarity,Negative*
%FSLAX46Y46*%
G04 Gerber Fmt 4.6, Leading zero omitted, Abs format (unit mm)*
G04 Created by KiCad (PCBNEW (5.1.5)-3) date 2020-12-16 15:48:44*
%MOMM*%
%LPD*%
G04 APERTURE LIST*
%ADD10C,0.100000*%
G04 APERTURE END LIST*
D10*
G36*
X120208594Y-113805780D02*
G01*
X120470383Y-113914217D01*
X120470385Y-113914218D01*
X120705990Y-114071644D01*
X120906356Y-114272010D01*
X121063782Y-114507615D01*
X121063783Y-114507617D01*
X121172220Y-114769406D01*
X121227500Y-115047319D01*
X121227500Y-115330681D01*
X121172220Y-115608594D01*
X121063783Y-115870383D01*
X121063782Y-115870385D01*
X120906356Y-116105990D01*
X120705990Y-116306356D01*
X120470385Y-116463782D01*
X120470384Y-116463783D01*
X120470383Y-116463783D01*
X120208594Y-116572220D01*
X119930681Y-116627500D01*
X119647319Y-116627500D01*
X119369406Y-116572220D01*
X119107617Y-116463783D01*
X119107616Y-116463783D01*
X119107615Y-116463782D01*
X118872010Y-116306356D01*
X118671644Y-116105990D01*
X118514218Y-115870385D01*
X118514217Y-115870383D01*
X118405780Y-115608594D01*
X118350500Y-115330681D01*
X118350500Y-115047319D01*
X118405780Y-114769406D01*
X118514217Y-114507617D01*
X118514218Y-114507615D01*
X118671644Y-114272010D01*
X118872010Y-114071644D01*
X119107615Y-113914218D01*
X119107617Y-113914217D01*
X119369406Y-113805780D01*
X119647319Y-113750500D01*
X119930681Y-113750500D01*
X120208594Y-113805780D01*
G37*
G36*
X114338594Y-113805780D02*
G01*
X114600383Y-113914217D01*
X114600385Y-113914218D01*
X114835990Y-114071644D01*
X115036356Y-114272010D01*
X115193782Y-114507615D01*
X115193783Y-114507617D01*
X115302220Y-114769406D01*
X115357500Y-115047319D01*
X115357500Y-115330681D01*
X115302220Y-115608594D01*
X115193783Y-115870383D01*
X115193782Y-115870385D01*
X115036356Y-116105990D01*
X114835990Y-116306356D01*
X114600385Y-116463782D01*
X114600384Y-116463783D01*
X114600383Y-116463783D01*
X114338594Y-116572220D01*
X114060681Y-116627500D01*
X113777319Y-116627500D01*
X113499406Y-116572220D01*
X113237617Y-116463783D01*
X113237616Y-116463783D01*
X113237615Y-116463782D01*
X113002010Y-116306356D01*
X112801644Y-116105990D01*
X112644218Y-115870385D01*
X112644217Y-115870383D01*
X112535780Y-115608594D01*
X112480500Y-115330681D01*
X112480500Y-115047319D01*
X112535780Y-114769406D01*
X112644217Y-114507617D01*
X112644218Y-114507615D01*
X112801644Y-114272010D01*
X113002010Y-114071644D01*
X113237615Y-113914218D01*
X113237617Y-113914217D01*
X113499406Y-113805780D01*
X113777319Y-113750500D01*
X114060681Y-113750500D01*
X114338594Y-113805780D01*
G37*
G36*
X165364594Y-111265780D02*
G01*
X165626383Y-111374217D01*
X165626385Y-111374218D01*
X165861990Y-111531644D01*
X166062356Y-111732010D01*
X166157573Y-111874513D01*
X166219783Y-111967617D01*
X166328220Y-112229406D01*
X166383500Y-112507319D01*
X166383500Y-112790681D01*
X166328220Y-113068594D01*
X166322112Y-113083339D01*
X166219782Y-113330385D01*
X166062356Y-113565990D01*
X165861990Y-113766356D01*
X165626385Y-113923782D01*
X165626384Y-113923783D01*
X165626383Y-113923783D01*
X165364594Y-114032220D01*
X165086681Y-114087500D01*
X164803319Y-114087500D01*
X164525406Y-114032220D01*
X164263617Y-113923783D01*
X164263616Y-113923783D01*
X164263615Y-113923782D01*
X164028010Y-113766356D01*
X163827644Y-113565990D01*
X163670218Y-113330385D01*
X163567888Y-113083339D01*
X163561780Y-113068594D01*
X163506500Y-112790681D01*
X163506500Y-112507319D01*
X163561780Y-112229406D01*
X163670217Y-111967617D01*
X163732427Y-111874513D01*
X163827644Y-111732010D01*
X164028010Y-111531644D01*
X164263615Y-111374218D01*
X164263617Y-111374217D01*
X164525406Y-111265780D01*
X164803319Y-111210500D01*
X165086681Y-111210500D01*
X165364594Y-111265780D01*
G37*
G36*
X171234594Y-111265780D02*
G01*
X171496383Y-111374217D01*
X171496385Y-111374218D01*
X171731990Y-111531644D01*
X171932356Y-111732010D01*
X172027573Y-111874513D01*
X172089783Y-111967617D01*
X172198220Y-112229406D01*
X172253500Y-112507319D01*
X172253500Y-112790681D01*
X172198220Y-113068594D01*
X172192112Y-113083339D01*
X172089782Y-113330385D01*
X171932356Y-113565990D01*
X171731990Y-113766356D01*
X171496385Y-113923782D01*
X171496384Y-113923783D01*
X171496383Y-113923783D01*
X171234594Y-114032220D01*
X170956681Y-114087500D01*
X170673319Y-114087500D01*
X170395406Y-114032220D01*
X170133617Y-113923783D01*
X170133616Y-113923783D01*
X170133615Y-113923782D01*
X169898010Y-113766356D01*
X169697644Y-113565990D01*
X169540218Y-113330385D01*
X169437888Y-113083339D01*
X169431780Y-113068594D01*
X169376500Y-112790681D01*
X169376500Y-112507319D01*
X169431780Y-112229406D01*
X169540217Y-111967617D01*
X169602427Y-111874513D01*
X169697644Y-111732010D01*
X169898010Y-111531644D01*
X170133615Y-111374218D01*
X170133617Y-111374217D01*
X170395406Y-111265780D01*
X170673319Y-111210500D01*
X170956681Y-111210500D01*
X171234594Y-111265780D01*
G37*
G36*
X117233487Y-111002996D02*
G01*
X117470253Y-111101068D01*
X117470255Y-111101069D01*
X117683339Y-111243447D01*
X117864553Y-111424661D01*
X117936037Y-111531644D01*
X118006932Y-111637747D01*
X118105004Y-111874513D01*
X118155000Y-112125861D01*
X118155000Y-112382139D01*
X118105004Y-112633487D01*
X118039892Y-112790680D01*
X118006931Y-112870255D01*
X117864553Y-113083339D01*
X117683339Y-113264553D01*
X117470255Y-113406931D01*
X117470254Y-113406932D01*
X117470253Y-113406932D01*
X117233487Y-113505004D01*
X116982139Y-113555000D01*
X116725861Y-113555000D01*
X116474513Y-113505004D01*
X116237747Y-113406932D01*
X116237746Y-113406932D01*
X116237745Y-113406931D01*
X116024661Y-113264553D01*
X115843447Y-113083339D01*
X115701069Y-112870255D01*
X115668108Y-112790680D01*
X115602996Y-112633487D01*
X115553000Y-112382139D01*
X115553000Y-112125861D01*
X115602996Y-111874513D01*
X115701068Y-111637747D01*
X115771964Y-111531644D01*
X115843447Y-111424661D01*
X116024661Y-111243447D01*
X116237745Y-111101069D01*
X116237747Y-111101068D01*
X116474513Y-111002996D01*
X116725861Y-110953000D01*
X116982139Y-110953000D01*
X117233487Y-111002996D01*
G37*
G36*
X168259487Y-108462996D02*
G01*
X168496253Y-108561068D01*
X168496255Y-108561069D01*
X168610814Y-108637615D01*
X168709339Y-108703447D01*
X168890553Y-108884661D01*
X169032932Y-109097747D01*
X169131004Y-109334513D01*
X169181000Y-109585861D01*
X169181000Y-109842139D01*
X169131004Y-110093487D01*
X169071977Y-110235990D01*
X169032931Y-110330255D01*
X168890553Y-110543339D01*
X168709339Y-110724553D01*
X168496255Y-110866931D01*
X168496254Y-110866932D01*
X168496253Y-110866932D01*
X168259487Y-110965004D01*
X168008139Y-111015000D01*
X167751861Y-111015000D01*
X167500513Y-110965004D01*
X167263747Y-110866932D01*
X167263746Y-110866932D01*
X167263745Y-110866931D01*
X167050661Y-110724553D01*
X166869447Y-110543339D01*
X166727069Y-110330255D01*
X166688023Y-110235990D01*
X166628996Y-110093487D01*
X166579000Y-109842139D01*
X166579000Y-109585861D01*
X166628996Y-109334513D01*
X166727068Y-109097747D01*
X166869447Y-108884661D01*
X167050661Y-108703447D01*
X167149186Y-108637615D01*
X167263745Y-108561069D01*
X167263747Y-108561068D01*
X167500513Y-108462996D01*
X167751861Y-108413000D01*
X168008139Y-108413000D01*
X168259487Y-108462996D01*
G37*
G36*
X114338594Y-107935780D02*
G01*
X114600383Y-108044217D01*
X114600385Y-108044218D01*
X114835990Y-108201644D01*
X115036356Y-108402010D01*
X115193782Y-108637615D01*
X115193783Y-108637617D01*
X115302220Y-108899406D01*
X115357500Y-109177319D01*
X115357500Y-109460681D01*
X115302220Y-109738594D01*
X115259330Y-109842139D01*
X115193782Y-110000385D01*
X115036356Y-110235990D01*
X114835990Y-110436356D01*
X114600385Y-110593782D01*
X114600384Y-110593783D01*
X114600383Y-110593783D01*
X114338594Y-110702220D01*
X114060681Y-110757500D01*
X113777319Y-110757500D01*
X113499406Y-110702220D01*
X113237617Y-110593783D01*
X113237616Y-110593783D01*
X113237615Y-110593782D01*
X113002010Y-110436356D01*
X112801644Y-110235990D01*
X112644218Y-110000385D01*
X112578670Y-109842139D01*
X112535780Y-109738594D01*
X112480500Y-109460681D01*
X112480500Y-109177319D01*
X112535780Y-108899406D01*
X112644217Y-108637617D01*
X112644218Y-108637615D01*
X112801644Y-108402010D01*
X113002010Y-108201644D01*
X113237615Y-108044218D01*
X113237617Y-108044217D01*
X113499406Y-107935780D01*
X113777319Y-107880500D01*
X114060681Y-107880500D01*
X114338594Y-107935780D01*
G37*
G36*
X120208594Y-107935780D02*
G01*
X120470383Y-108044217D01*
X120470385Y-108044218D01*
X120705990Y-108201644D01*
X120906356Y-108402010D01*
X121063782Y-108637615D01*
X121063783Y-108637617D01*
X121172220Y-108899406D01*
X121227500Y-109177319D01*
X121227500Y-109460681D01*
X121172220Y-109738594D01*
X121129330Y-109842139D01*
X121063782Y-110000385D01*
X120906356Y-110235990D01*
X120705990Y-110436356D01*
X120470385Y-110593782D01*
X120470384Y-110593783D01*
X120470383Y-110593783D01*
X120208594Y-110702220D01*
X119930681Y-110757500D01*
X119647319Y-110757500D01*
X119369406Y-110702220D01*
X119107617Y-110593783D01*
X119107616Y-110593783D01*
X119107615Y-110593782D01*
X118872010Y-110436356D01*
X118671644Y-110235990D01*
X118514218Y-110000385D01*
X118448670Y-109842139D01*
X118405780Y-109738594D01*
X118350500Y-109460681D01*
X118350500Y-109177319D01*
X118405780Y-108899406D01*
X118514217Y-108637617D01*
X118514218Y-108637615D01*
X118671644Y-108402010D01*
X118872010Y-108201644D01*
X119107615Y-108044218D01*
X119107617Y-108044217D01*
X119369406Y-107935780D01*
X119647319Y-107880500D01*
X119930681Y-107880500D01*
X120208594Y-107935780D01*
G37*
G36*
X171234594Y-105395780D02*
G01*
X171496383Y-105504217D01*
X171496385Y-105504218D01*
X171731990Y-105661644D01*
X171932356Y-105862010D01*
X172089782Y-106097615D01*
X172089783Y-106097617D01*
X172198220Y-106359406D01*
X172253500Y-106637319D01*
X172253500Y-106920681D01*
X172198220Y-107198594D01*
X172089783Y-107460383D01*
X172089782Y-107460385D01*
X171932356Y-107695990D01*
X171731990Y-107896356D01*
X171496385Y-108053782D01*
X171496384Y-108053783D01*
X171496383Y-108053783D01*
X171234594Y-108162220D01*
X170956681Y-108217500D01*
X170673319Y-108217500D01*
X170395406Y-108162220D01*
X170133617Y-108053783D01*
X170133616Y-108053783D01*
X170133615Y-108053782D01*
X169898010Y-107896356D01*
X169697644Y-107695990D01*
X169540218Y-107460385D01*
X169540217Y-107460383D01*
X169431780Y-107198594D01*
X169376500Y-106920681D01*
X169376500Y-106637319D01*
X169431780Y-106359406D01*
X169540217Y-106097617D01*
X169540218Y-106097615D01*
X169697644Y-105862010D01*
X169898010Y-105661644D01*
X170133615Y-105504218D01*
X170133617Y-105504217D01*
X170395406Y-105395780D01*
X170673319Y-105340500D01*
X170956681Y-105340500D01*
X171234594Y-105395780D01*
G37*
G36*
X165364594Y-105395780D02*
G01*
X165626383Y-105504217D01*
X165626385Y-105504218D01*
X165861990Y-105661644D01*
X166062356Y-105862010D01*
X166219782Y-106097615D01*
X166219783Y-106097617D01*
X166328220Y-106359406D01*
X166383500Y-106637319D01*
X166383500Y-106920681D01*
X166328220Y-107198594D01*
X166219783Y-107460383D01*
X166219782Y-107460385D01*
X166062356Y-107695990D01*
X165861990Y-107896356D01*
X165626385Y-108053782D01*
X165626384Y-108053783D01*
X165626383Y-108053783D01*
X165364594Y-108162220D01*
X165086681Y-108217500D01*
X164803319Y-108217500D01*
X164525406Y-108162220D01*
X164263617Y-108053783D01*
X164263616Y-108053783D01*
X164263615Y-108053782D01*
X164028010Y-107896356D01*
X163827644Y-107695990D01*
X163670218Y-107460385D01*
X163670217Y-107460383D01*
X163561780Y-107198594D01*
X163506500Y-106920681D01*
X163506500Y-106637319D01*
X163561780Y-106359406D01*
X163670217Y-106097617D01*
X163670218Y-106097615D01*
X163827644Y-105862010D01*
X164028010Y-105661644D01*
X164263615Y-105504218D01*
X164263617Y-105504217D01*
X164525406Y-105395780D01*
X164803319Y-105340500D01*
X165086681Y-105340500D01*
X165364594Y-105395780D01*
G37*
G36*
X120208594Y-103010780D02*
G01*
X120424293Y-103100126D01*
X120470385Y-103119218D01*
X120705990Y-103276644D01*
X120906356Y-103477010D01*
X121063782Y-103712615D01*
X121063783Y-103712617D01*
X121172220Y-103974406D01*
X121227500Y-104252319D01*
X121227500Y-104535681D01*
X121172220Y-104813594D01*
X121063783Y-105075383D01*
X121063782Y-105075385D01*
X120906356Y-105310990D01*
X120705990Y-105511356D01*
X120470385Y-105668782D01*
X120470384Y-105668783D01*
X120470383Y-105668783D01*
X120208594Y-105777220D01*
X119930681Y-105832500D01*
X119647319Y-105832500D01*
X119369406Y-105777220D01*
X119107617Y-105668783D01*
X119107616Y-105668783D01*
X119107615Y-105668782D01*
X118872010Y-105511356D01*
X118671644Y-105310990D01*
X118514218Y-105075385D01*
X118514217Y-105075383D01*
X118405780Y-104813594D01*
X118350500Y-104535681D01*
X118350500Y-104252319D01*
X118405780Y-103974406D01*
X118514217Y-103712617D01*
X118514218Y-103712615D01*
X118671644Y-103477010D01*
X118872010Y-103276644D01*
X119107615Y-103119218D01*
X119153707Y-103100126D01*
X119369406Y-103010780D01*
X119647319Y-102955500D01*
X119930681Y-102955500D01*
X120208594Y-103010780D01*
G37*
G36*
X114338594Y-103010780D02*
G01*
X114554293Y-103100126D01*
X114600385Y-103119218D01*
X114835990Y-103276644D01*
X115036356Y-103477010D01*
X115193782Y-103712615D01*
X115193783Y-103712617D01*
X115302220Y-103974406D01*
X115357500Y-104252319D01*
X115357500Y-104535681D01*
X115302220Y-104813594D01*
X115193783Y-105075383D01*
X115193782Y-105075385D01*
X115036356Y-105310990D01*
X114835990Y-105511356D01*
X114600385Y-105668782D01*
X114600384Y-105668783D01*
X114600383Y-105668783D01*
X114338594Y-105777220D01*
X114060681Y-105832500D01*
X113777319Y-105832500D01*
X113499406Y-105777220D01*
X113237617Y-105668783D01*
X113237616Y-105668783D01*
X113237615Y-105668782D01*
X113002010Y-105511356D01*
X112801644Y-105310990D01*
X112644218Y-105075385D01*
X112644217Y-105075383D01*
X112535780Y-104813594D01*
X112480500Y-104535681D01*
X112480500Y-104252319D01*
X112535780Y-103974406D01*
X112644217Y-103712617D01*
X112644218Y-103712615D01*
X112801644Y-103477010D01*
X113002010Y-103276644D01*
X113237615Y-103119218D01*
X113283707Y-103100126D01*
X113499406Y-103010780D01*
X113777319Y-102955500D01*
X114060681Y-102955500D01*
X114338594Y-103010780D01*
G37*
G36*
X144740797Y-103002569D02*
G01*
X144795575Y-103025259D01*
X144844875Y-103058200D01*
X144886801Y-103100126D01*
X144919742Y-103149426D01*
X144942432Y-103204204D01*
X144953999Y-103262354D01*
X144953999Y-103321648D01*
X144942432Y-103379798D01*
X144919742Y-103434576D01*
X144886801Y-103483876D01*
X144844875Y-103525802D01*
X144795575Y-103558743D01*
X144740797Y-103581433D01*
X144682647Y-103593000D01*
X144623353Y-103593000D01*
X144565203Y-103581433D01*
X144510425Y-103558743D01*
X144461125Y-103525802D01*
X144419199Y-103483876D01*
X144386258Y-103434576D01*
X144363568Y-103379798D01*
X144352001Y-103321648D01*
X144352001Y-103262354D01*
X144363568Y-103204204D01*
X144386258Y-103149426D01*
X144419199Y-103100126D01*
X144461125Y-103058200D01*
X144510425Y-103025259D01*
X144565203Y-103002569D01*
X144623353Y-102991002D01*
X144682647Y-102991002D01*
X144740797Y-103002569D01*
G37*
G36*
X146940798Y-103002569D02*
G01*
X146995576Y-103025259D01*
X147044876Y-103058200D01*
X147086802Y-103100126D01*
X147119743Y-103149426D01*
X147142433Y-103204204D01*
X147154000Y-103262354D01*
X147154000Y-103321648D01*
X147142433Y-103379798D01*
X147119743Y-103434576D01*
X147086802Y-103483876D01*
X147044876Y-103525802D01*
X146995576Y-103558743D01*
X146940798Y-103581433D01*
X146882648Y-103593000D01*
X146823354Y-103593000D01*
X146765204Y-103581433D01*
X146710426Y-103558743D01*
X146661126Y-103525802D01*
X146619200Y-103483876D01*
X146586259Y-103434576D01*
X146563569Y-103379798D01*
X146552002Y-103321648D01*
X146552002Y-103262354D01*
X146563569Y-103204204D01*
X146586259Y-103149426D01*
X146619200Y-103100126D01*
X146661126Y-103058200D01*
X146710426Y-103025259D01*
X146765204Y-103002569D01*
X146823354Y-102991002D01*
X146882648Y-102991002D01*
X146940798Y-103002569D01*
G37*
G36*
X145840797Y-103002569D02*
G01*
X145895575Y-103025259D01*
X145944875Y-103058200D01*
X145986801Y-103100126D01*
X146019742Y-103149426D01*
X146042432Y-103204204D01*
X146053999Y-103262354D01*
X146053999Y-103321648D01*
X146042432Y-103379798D01*
X146019742Y-103434576D01*
X145986801Y-103483876D01*
X145944875Y-103525802D01*
X145895575Y-103558743D01*
X145840797Y-103581433D01*
X145782647Y-103593000D01*
X145723353Y-103593000D01*
X145665203Y-103581433D01*
X145610425Y-103558743D01*
X145561125Y-103525802D01*
X145519199Y-103483876D01*
X145486258Y-103434576D01*
X145463568Y-103379798D01*
X145452001Y-103321648D01*
X145452001Y-103262354D01*
X145463568Y-103204204D01*
X145486258Y-103149426D01*
X145519199Y-103100126D01*
X145561125Y-103058200D01*
X145610425Y-103025259D01*
X145665203Y-103002569D01*
X145723353Y-102991002D01*
X145782647Y-102991002D01*
X145840797Y-103002569D01*
G37*
G36*
X143640797Y-103002569D02*
G01*
X143695575Y-103025259D01*
X143744875Y-103058200D01*
X143786801Y-103100126D01*
X143819742Y-103149426D01*
X143842432Y-103204204D01*
X143853999Y-103262354D01*
X143853999Y-103321648D01*
X143842432Y-103379798D01*
X143819742Y-103434576D01*
X143786801Y-103483876D01*
X143744875Y-103525802D01*
X143695575Y-103558743D01*
X143640797Y-103581433D01*
X143582647Y-103593000D01*
X143523353Y-103593000D01*
X143465203Y-103581433D01*
X143410425Y-103558743D01*
X143361125Y-103525802D01*
X143319199Y-103483876D01*
X143286258Y-103434576D01*
X143263568Y-103379798D01*
X143252001Y-103321648D01*
X143252001Y-103262354D01*
X143263568Y-103204204D01*
X143286258Y-103149426D01*
X143319199Y-103100126D01*
X143361125Y-103058200D01*
X143410425Y-103025259D01*
X143465203Y-103002569D01*
X143523353Y-102991002D01*
X143582647Y-102991002D01*
X143640797Y-103002569D01*
G37*
G36*
X142540796Y-103002569D02*
G01*
X142595574Y-103025259D01*
X142644874Y-103058200D01*
X142686800Y-103100126D01*
X142719741Y-103149426D01*
X142742431Y-103204204D01*
X142753998Y-103262354D01*
X142753998Y-103321648D01*
X142742431Y-103379798D01*
X142719741Y-103434576D01*
X142686800Y-103483876D01*
X142644874Y-103525802D01*
X142595574Y-103558743D01*
X142540796Y-103581433D01*
X142482646Y-103593000D01*
X142423352Y-103593000D01*
X142365202Y-103581433D01*
X142310424Y-103558743D01*
X142261124Y-103525802D01*
X142219198Y-103483876D01*
X142186257Y-103434576D01*
X142163567Y-103379798D01*
X142152000Y-103321648D01*
X142152000Y-103262354D01*
X142163567Y-103204204D01*
X142186257Y-103149426D01*
X142219198Y-103100126D01*
X142261124Y-103058200D01*
X142310424Y-103025259D01*
X142365202Y-103002569D01*
X142423352Y-102991002D01*
X142482646Y-102991002D01*
X142540796Y-103002569D01*
G37*
G36*
X117233487Y-100207996D02*
G01*
X117470253Y-100306068D01*
X117470255Y-100306069D01*
X117683339Y-100448447D01*
X117864553Y-100629661D01*
X117995247Y-100825258D01*
X118006932Y-100842747D01*
X118105004Y-101079513D01*
X118155000Y-101330861D01*
X118155000Y-101587139D01*
X118105004Y-101838487D01*
X118038051Y-102000125D01*
X118006931Y-102075255D01*
X117864553Y-102288339D01*
X117683339Y-102469553D01*
X117470255Y-102611931D01*
X117470254Y-102611932D01*
X117470253Y-102611932D01*
X117233487Y-102710004D01*
X116982139Y-102760000D01*
X116725861Y-102760000D01*
X116474513Y-102710004D01*
X116237747Y-102611932D01*
X116237746Y-102611932D01*
X116237745Y-102611931D01*
X116024661Y-102469553D01*
X115843447Y-102288339D01*
X115701069Y-102075255D01*
X115669949Y-102000125D01*
X115602996Y-101838487D01*
X115553000Y-101587139D01*
X115553000Y-101330861D01*
X115602996Y-101079513D01*
X115701068Y-100842747D01*
X115712754Y-100825258D01*
X115843447Y-100629661D01*
X116024661Y-100448447D01*
X116237745Y-100306069D01*
X116237747Y-100306068D01*
X116474513Y-100207996D01*
X116725861Y-100158000D01*
X116982139Y-100158000D01*
X117233487Y-100207996D01*
G37*
G36*
X143640797Y-101902568D02*
G01*
X143695575Y-101925258D01*
X143744875Y-101958199D01*
X143786801Y-102000125D01*
X143819742Y-102049425D01*
X143842432Y-102104203D01*
X143853999Y-102162353D01*
X143853999Y-102221647D01*
X143842432Y-102279797D01*
X143819742Y-102334575D01*
X143786801Y-102383875D01*
X143744875Y-102425801D01*
X143695575Y-102458742D01*
X143640797Y-102481432D01*
X143582647Y-102492999D01*
X143523353Y-102492999D01*
X143465203Y-102481432D01*
X143410425Y-102458742D01*
X143361125Y-102425801D01*
X143319199Y-102383875D01*
X143286258Y-102334575D01*
X143263568Y-102279797D01*
X143252001Y-102221647D01*
X143252001Y-102162353D01*
X143263568Y-102104203D01*
X143286258Y-102049425D01*
X143319199Y-102000125D01*
X143361125Y-101958199D01*
X143410425Y-101925258D01*
X143465203Y-101902568D01*
X143523353Y-101891001D01*
X143582647Y-101891001D01*
X143640797Y-101902568D01*
G37*
G36*
X146940798Y-101902568D02*
G01*
X146995576Y-101925258D01*
X147044876Y-101958199D01*
X147086802Y-102000125D01*
X147119743Y-102049425D01*
X147142433Y-102104203D01*
X147154000Y-102162353D01*
X147154000Y-102221647D01*
X147142433Y-102279797D01*
X147119743Y-102334575D01*
X147086802Y-102383875D01*
X147044876Y-102425801D01*
X146995576Y-102458742D01*
X146940798Y-102481432D01*
X146882648Y-102492999D01*
X146823354Y-102492999D01*
X146765204Y-102481432D01*
X146710426Y-102458742D01*
X146661126Y-102425801D01*
X146619200Y-102383875D01*
X146586259Y-102334575D01*
X146563569Y-102279797D01*
X146552002Y-102221647D01*
X146552002Y-102162353D01*
X146563569Y-102104203D01*
X146586259Y-102049425D01*
X146619200Y-102000125D01*
X146661126Y-101958199D01*
X146710426Y-101925258D01*
X146765204Y-101902568D01*
X146823354Y-101891001D01*
X146882648Y-101891001D01*
X146940798Y-101902568D01*
G37*
G36*
X145840797Y-101902568D02*
G01*
X145895575Y-101925258D01*
X145944875Y-101958199D01*
X145986801Y-102000125D01*
X146019742Y-102049425D01*
X146042432Y-102104203D01*
X146053999Y-102162353D01*
X146053999Y-102221647D01*
X146042432Y-102279797D01*
X146019742Y-102334575D01*
X145986801Y-102383875D01*
X145944875Y-102425801D01*
X145895575Y-102458742D01*
X145840797Y-102481432D01*
X145782647Y-102492999D01*
X145723353Y-102492999D01*
X145665203Y-102481432D01*
X145610425Y-102458742D01*
X145561125Y-102425801D01*
X145519199Y-102383875D01*
X145486258Y-102334575D01*
X145463568Y-102279797D01*
X145452001Y-102221647D01*
X145452001Y-102162353D01*
X145463568Y-102104203D01*
X145486258Y-102049425D01*
X145519199Y-102000125D01*
X145561125Y-101958199D01*
X145610425Y-101925258D01*
X145665203Y-101902568D01*
X145723353Y-101891001D01*
X145782647Y-101891001D01*
X145840797Y-101902568D01*
G37*
G36*
X144740797Y-101902568D02*
G01*
X144795575Y-101925258D01*
X144844875Y-101958199D01*
X144886801Y-102000125D01*
X144919742Y-102049425D01*
X144942432Y-102104203D01*
X144953999Y-102162353D01*
X144953999Y-102221647D01*
X144942432Y-102279797D01*
X144919742Y-102334575D01*
X144886801Y-102383875D01*
X144844875Y-102425801D01*
X144795575Y-102458742D01*
X144740797Y-102481432D01*
X144682647Y-102492999D01*
X144623353Y-102492999D01*
X144565203Y-102481432D01*
X144510425Y-102458742D01*
X144461125Y-102425801D01*
X144419199Y-102383875D01*
X144386258Y-102334575D01*
X144363568Y-102279797D01*
X144352001Y-102221647D01*
X144352001Y-102162353D01*
X144363568Y-102104203D01*
X144386258Y-102049425D01*
X144419199Y-102000125D01*
X144461125Y-101958199D01*
X144510425Y-101925258D01*
X144565203Y-101902568D01*
X144623353Y-101891001D01*
X144682647Y-101891001D01*
X144740797Y-101902568D01*
G37*
G36*
X142540796Y-101902568D02*
G01*
X142595574Y-101925258D01*
X142644874Y-101958199D01*
X142686800Y-102000125D01*
X142719741Y-102049425D01*
X142742431Y-102104203D01*
X142753998Y-102162353D01*
X142753998Y-102221647D01*
X142742431Y-102279797D01*
X142719741Y-102334575D01*
X142686800Y-102383875D01*
X142644874Y-102425801D01*
X142595574Y-102458742D01*
X142540796Y-102481432D01*
X142482646Y-102492999D01*
X142423352Y-102492999D01*
X142365202Y-102481432D01*
X142310424Y-102458742D01*
X142261124Y-102425801D01*
X142219198Y-102383875D01*
X142186257Y-102334575D01*
X142163567Y-102279797D01*
X142152000Y-102221647D01*
X142152000Y-102162353D01*
X142163567Y-102104203D01*
X142186257Y-102049425D01*
X142219198Y-102000125D01*
X142261124Y-101958199D01*
X142310424Y-101925258D01*
X142365202Y-101902568D01*
X142423352Y-101891001D01*
X142482646Y-101891001D01*
X142540796Y-101902568D01*
G37*
G36*
X142540796Y-100802568D02*
G01*
X142595574Y-100825258D01*
X142644874Y-100858199D01*
X142686800Y-100900125D01*
X142719741Y-100949425D01*
X142742431Y-101004203D01*
X142753998Y-101062353D01*
X142753998Y-101121647D01*
X142742431Y-101179797D01*
X142719741Y-101234575D01*
X142686800Y-101283875D01*
X142644874Y-101325801D01*
X142595574Y-101358742D01*
X142540796Y-101381432D01*
X142482646Y-101392999D01*
X142423352Y-101392999D01*
X142365202Y-101381432D01*
X142310424Y-101358742D01*
X142261124Y-101325801D01*
X142219198Y-101283875D01*
X142186257Y-101234575D01*
X142163567Y-101179797D01*
X142152000Y-101121647D01*
X142152000Y-101062353D01*
X142163567Y-101004203D01*
X142186257Y-100949425D01*
X142219198Y-100900125D01*
X142261124Y-100858199D01*
X142310424Y-100825258D01*
X142365202Y-100802568D01*
X142423352Y-100791001D01*
X142482646Y-100791001D01*
X142540796Y-100802568D01*
G37*
G36*
X143640797Y-100802568D02*
G01*
X143695575Y-100825258D01*
X143744875Y-100858199D01*
X143786801Y-100900125D01*
X143819742Y-100949425D01*
X143842432Y-101004203D01*
X143853999Y-101062353D01*
X143853999Y-101121647D01*
X143842432Y-101179797D01*
X143819742Y-101234575D01*
X143786801Y-101283875D01*
X143744875Y-101325801D01*
X143695575Y-101358742D01*
X143640797Y-101381432D01*
X143582647Y-101392999D01*
X143523353Y-101392999D01*
X143465203Y-101381432D01*
X143410425Y-101358742D01*
X143361125Y-101325801D01*
X143319199Y-101283875D01*
X143286258Y-101234575D01*
X143263568Y-101179797D01*
X143252001Y-101121647D01*
X143252001Y-101062353D01*
X143263568Y-101004203D01*
X143286258Y-100949425D01*
X143319199Y-100900125D01*
X143361125Y-100858199D01*
X143410425Y-100825258D01*
X143465203Y-100802568D01*
X143523353Y-100791001D01*
X143582647Y-100791001D01*
X143640797Y-100802568D01*
G37*
G36*
X144740797Y-100802568D02*
G01*
X144795575Y-100825258D01*
X144844875Y-100858199D01*
X144886801Y-100900125D01*
X144919742Y-100949425D01*
X144942432Y-101004203D01*
X144953999Y-101062353D01*
X144953999Y-101121647D01*
X144942432Y-101179797D01*
X144919742Y-101234575D01*
X144886801Y-101283875D01*
X144844875Y-101325801D01*
X144795575Y-101358742D01*
X144740797Y-101381432D01*
X144682647Y-101392999D01*
X144623353Y-101392999D01*
X144565203Y-101381432D01*
X144510425Y-101358742D01*
X144461125Y-101325801D01*
X144419199Y-101283875D01*
X144386258Y-101234575D01*
X144363568Y-101179797D01*
X144352001Y-101121647D01*
X144352001Y-101062353D01*
X144363568Y-101004203D01*
X144386258Y-100949425D01*
X144419199Y-100900125D01*
X144461125Y-100858199D01*
X144510425Y-100825258D01*
X144565203Y-100802568D01*
X144623353Y-100791001D01*
X144682647Y-100791001D01*
X144740797Y-100802568D01*
G37*
G36*
X146940798Y-100802568D02*
G01*
X146995576Y-100825258D01*
X147044876Y-100858199D01*
X147086802Y-100900125D01*
X147119743Y-100949425D01*
X147142433Y-101004203D01*
X147154000Y-101062353D01*
X147154000Y-101121647D01*
X147142433Y-101179797D01*
X147119743Y-101234575D01*
X147086802Y-101283875D01*
X147044876Y-101325801D01*
X146995576Y-101358742D01*
X146940798Y-101381432D01*
X146882648Y-101392999D01*
X146823354Y-101392999D01*
X146765204Y-101381432D01*
X146710426Y-101358742D01*
X146661126Y-101325801D01*
X146619200Y-101283875D01*
X146586259Y-101234575D01*
X146563569Y-101179797D01*
X146552002Y-101121647D01*
X146552002Y-101062353D01*
X146563569Y-101004203D01*
X146586259Y-100949425D01*
X146619200Y-100900125D01*
X146661126Y-100858199D01*
X146710426Y-100825258D01*
X146765204Y-100802568D01*
X146823354Y-100791001D01*
X146882648Y-100791001D01*
X146940798Y-100802568D01*
G37*
G36*
X145840797Y-100802568D02*
G01*
X145895575Y-100825258D01*
X145944875Y-100858199D01*
X145986801Y-100900125D01*
X146019742Y-100949425D01*
X146042432Y-101004203D01*
X146053999Y-101062353D01*
X146053999Y-101121647D01*
X146042432Y-101179797D01*
X146019742Y-101234575D01*
X145986801Y-101283875D01*
X145944875Y-101325801D01*
X145895575Y-101358742D01*
X145840797Y-101381432D01*
X145782647Y-101392999D01*
X145723353Y-101392999D01*
X145665203Y-101381432D01*
X145610425Y-101358742D01*
X145561125Y-101325801D01*
X145519199Y-101283875D01*
X145486258Y-101234575D01*
X145463568Y-101179797D01*
X145452001Y-101121647D01*
X145452001Y-101062353D01*
X145463568Y-101004203D01*
X145486258Y-100949425D01*
X145519199Y-100900125D01*
X145561125Y-100858199D01*
X145610425Y-100825258D01*
X145665203Y-100802568D01*
X145723353Y-100791001D01*
X145782647Y-100791001D01*
X145840797Y-100802568D01*
G37*
G36*
X171234594Y-98184780D02*
G01*
X171496383Y-98293217D01*
X171496385Y-98293218D01*
X171731990Y-98450644D01*
X171932356Y-98651010D01*
X172089782Y-98886615D01*
X172089783Y-98886617D01*
X172198220Y-99148406D01*
X172253500Y-99426319D01*
X172253500Y-99709681D01*
X172198220Y-99987594D01*
X172099551Y-100225801D01*
X172089782Y-100249385D01*
X171932356Y-100484990D01*
X171731990Y-100685356D01*
X171496385Y-100842782D01*
X171496384Y-100842783D01*
X171496383Y-100842783D01*
X171234594Y-100951220D01*
X170956681Y-101006500D01*
X170673319Y-101006500D01*
X170395406Y-100951220D01*
X170133617Y-100842783D01*
X170133616Y-100842783D01*
X170133615Y-100842782D01*
X169898010Y-100685356D01*
X169697644Y-100484990D01*
X169540218Y-100249385D01*
X169530449Y-100225801D01*
X169431780Y-99987594D01*
X169376500Y-99709681D01*
X169376500Y-99426319D01*
X169431780Y-99148406D01*
X169540217Y-98886617D01*
X169540218Y-98886615D01*
X169697644Y-98651010D01*
X169898010Y-98450644D01*
X170133615Y-98293218D01*
X170133617Y-98293217D01*
X170395406Y-98184780D01*
X170673319Y-98129500D01*
X170956681Y-98129500D01*
X171234594Y-98184780D01*
G37*
G36*
X165364594Y-98184780D02*
G01*
X165626383Y-98293217D01*
X165626385Y-98293218D01*
X165861990Y-98450644D01*
X166062356Y-98651010D01*
X166219782Y-98886615D01*
X166219783Y-98886617D01*
X166328220Y-99148406D01*
X166383500Y-99426319D01*
X166383500Y-99709681D01*
X166328220Y-99987594D01*
X166229551Y-100225801D01*
X166219782Y-100249385D01*
X166062356Y-100484990D01*
X165861990Y-100685356D01*
X165626385Y-100842782D01*
X165626384Y-100842783D01*
X165626383Y-100842783D01*
X165364594Y-100951220D01*
X165086681Y-101006500D01*
X164803319Y-101006500D01*
X164525406Y-100951220D01*
X164263617Y-100842783D01*
X164263616Y-100842783D01*
X164263615Y-100842782D01*
X164028010Y-100685356D01*
X163827644Y-100484990D01*
X163670218Y-100249385D01*
X163660449Y-100225801D01*
X163561780Y-99987594D01*
X163506500Y-99709681D01*
X163506500Y-99426319D01*
X163561780Y-99148406D01*
X163670217Y-98886617D01*
X163670218Y-98886615D01*
X163827644Y-98651010D01*
X164028010Y-98450644D01*
X164263615Y-98293218D01*
X164263617Y-98293217D01*
X164525406Y-98184780D01*
X164803319Y-98129500D01*
X165086681Y-98129500D01*
X165364594Y-98184780D01*
G37*
G36*
X146940798Y-99702568D02*
G01*
X146995576Y-99725258D01*
X147044876Y-99758199D01*
X147086802Y-99800125D01*
X147119743Y-99849425D01*
X147142433Y-99904203D01*
X147154000Y-99962353D01*
X147154000Y-100021647D01*
X147142433Y-100079797D01*
X147119743Y-100134575D01*
X147086802Y-100183875D01*
X147044876Y-100225801D01*
X146995576Y-100258742D01*
X146940798Y-100281432D01*
X146882648Y-100292999D01*
X146823354Y-100292999D01*
X146765204Y-100281432D01*
X146710426Y-100258742D01*
X146661126Y-100225801D01*
X146619200Y-100183875D01*
X146586259Y-100134575D01*
X146563569Y-100079797D01*
X146552002Y-100021647D01*
X146552002Y-99962353D01*
X146563569Y-99904203D01*
X146586259Y-99849425D01*
X146619200Y-99800125D01*
X146661126Y-99758199D01*
X146710426Y-99725258D01*
X146765204Y-99702568D01*
X146823354Y-99691001D01*
X146882648Y-99691001D01*
X146940798Y-99702568D01*
G37*
G36*
X145840797Y-99702568D02*
G01*
X145895575Y-99725258D01*
X145944875Y-99758199D01*
X145986801Y-99800125D01*
X146019742Y-99849425D01*
X146042432Y-99904203D01*
X146053999Y-99962353D01*
X146053999Y-100021647D01*
X146042432Y-100079797D01*
X146019742Y-100134575D01*
X145986801Y-100183875D01*
X145944875Y-100225801D01*
X145895575Y-100258742D01*
X145840797Y-100281432D01*
X145782647Y-100292999D01*
X145723353Y-100292999D01*
X145665203Y-100281432D01*
X145610425Y-100258742D01*
X145561125Y-100225801D01*
X145519199Y-100183875D01*
X145486258Y-100134575D01*
X145463568Y-100079797D01*
X145452001Y-100021647D01*
X145452001Y-99962353D01*
X145463568Y-99904203D01*
X145486258Y-99849425D01*
X145519199Y-99800125D01*
X145561125Y-99758199D01*
X145610425Y-99725258D01*
X145665203Y-99702568D01*
X145723353Y-99691001D01*
X145782647Y-99691001D01*
X145840797Y-99702568D01*
G37*
G36*
X144740797Y-99702568D02*
G01*
X144795575Y-99725258D01*
X144844875Y-99758199D01*
X144886801Y-99800125D01*
X144919742Y-99849425D01*
X144942432Y-99904203D01*
X144953999Y-99962353D01*
X144953999Y-100021647D01*
X144942432Y-100079797D01*
X144919742Y-100134575D01*
X144886801Y-100183875D01*
X144844875Y-100225801D01*
X144795575Y-100258742D01*
X144740797Y-100281432D01*
X144682647Y-100292999D01*
X144623353Y-100292999D01*
X144565203Y-100281432D01*
X144510425Y-100258742D01*
X144461125Y-100225801D01*
X144419199Y-100183875D01*
X144386258Y-100134575D01*
X144363568Y-100079797D01*
X144352001Y-100021647D01*
X144352001Y-99962353D01*
X144363568Y-99904203D01*
X144386258Y-99849425D01*
X144419199Y-99800125D01*
X144461125Y-99758199D01*
X144510425Y-99725258D01*
X144565203Y-99702568D01*
X144623353Y-99691001D01*
X144682647Y-99691001D01*
X144740797Y-99702568D01*
G37*
G36*
X143640797Y-99702568D02*
G01*
X143695575Y-99725258D01*
X143744875Y-99758199D01*
X143786801Y-99800125D01*
X143819742Y-99849425D01*
X143842432Y-99904203D01*
X143853999Y-99962353D01*
X143853999Y-100021647D01*
X143842432Y-100079797D01*
X143819742Y-100134575D01*
X143786801Y-100183875D01*
X143744875Y-100225801D01*
X143695575Y-100258742D01*
X143640797Y-100281432D01*
X143582647Y-100292999D01*
X143523353Y-100292999D01*
X143465203Y-100281432D01*
X143410425Y-100258742D01*
X143361125Y-100225801D01*
X143319199Y-100183875D01*
X143286258Y-100134575D01*
X143263568Y-100079797D01*
X143252001Y-100021647D01*
X143252001Y-99962353D01*
X143263568Y-99904203D01*
X143286258Y-99849425D01*
X143319199Y-99800125D01*
X143361125Y-99758199D01*
X143410425Y-99725258D01*
X143465203Y-99702568D01*
X143523353Y-99691001D01*
X143582647Y-99691001D01*
X143640797Y-99702568D01*
G37*
G36*
X142540796Y-99702568D02*
G01*
X142595574Y-99725258D01*
X142644874Y-99758199D01*
X142686800Y-99800125D01*
X142719741Y-99849425D01*
X142742431Y-99904203D01*
X142753998Y-99962353D01*
X142753998Y-100021647D01*
X142742431Y-100079797D01*
X142719741Y-100134575D01*
X142686800Y-100183875D01*
X142644874Y-100225801D01*
X142595574Y-100258742D01*
X142540796Y-100281432D01*
X142482646Y-100292999D01*
X142423352Y-100292999D01*
X142365202Y-100281432D01*
X142310424Y-100258742D01*
X142261124Y-100225801D01*
X142219198Y-100183875D01*
X142186257Y-100134575D01*
X142163567Y-100079797D01*
X142152000Y-100021647D01*
X142152000Y-99962353D01*
X142163567Y-99904203D01*
X142186257Y-99849425D01*
X142219198Y-99800125D01*
X142261124Y-99758199D01*
X142310424Y-99725258D01*
X142365202Y-99702568D01*
X142423352Y-99691001D01*
X142482646Y-99691001D01*
X142540796Y-99702568D01*
G37*
G36*
X120208594Y-97140780D02*
G01*
X120470383Y-97249217D01*
X120470385Y-97249218D01*
X120705990Y-97406644D01*
X120906356Y-97607010D01*
X121063782Y-97842615D01*
X121063783Y-97842617D01*
X121172220Y-98104406D01*
X121227500Y-98382319D01*
X121227500Y-98665681D01*
X121172220Y-98943594D01*
X121073704Y-99181431D01*
X121063782Y-99205385D01*
X120906356Y-99440990D01*
X120705990Y-99641356D01*
X120470385Y-99798782D01*
X120470384Y-99798783D01*
X120470383Y-99798783D01*
X120208594Y-99907220D01*
X119930681Y-99962500D01*
X119647319Y-99962500D01*
X119369406Y-99907220D01*
X119107617Y-99798783D01*
X119107616Y-99798783D01*
X119107615Y-99798782D01*
X118872010Y-99641356D01*
X118671644Y-99440990D01*
X118514218Y-99205385D01*
X118504296Y-99181431D01*
X118405780Y-98943594D01*
X118350500Y-98665681D01*
X118350500Y-98382319D01*
X118405780Y-98104406D01*
X118514217Y-97842617D01*
X118514218Y-97842615D01*
X118671644Y-97607010D01*
X118872010Y-97406644D01*
X119107615Y-97249218D01*
X119107617Y-97249217D01*
X119369406Y-97140780D01*
X119647319Y-97085500D01*
X119930681Y-97085500D01*
X120208594Y-97140780D01*
G37*
G36*
X114338594Y-97140780D02*
G01*
X114600383Y-97249217D01*
X114600385Y-97249218D01*
X114835990Y-97406644D01*
X115036356Y-97607010D01*
X115193782Y-97842615D01*
X115193783Y-97842617D01*
X115302220Y-98104406D01*
X115357500Y-98382319D01*
X115357500Y-98665681D01*
X115302220Y-98943594D01*
X115203704Y-99181431D01*
X115193782Y-99205385D01*
X115036356Y-99440990D01*
X114835990Y-99641356D01*
X114600385Y-99798782D01*
X114600384Y-99798783D01*
X114600383Y-99798783D01*
X114338594Y-99907220D01*
X114060681Y-99962500D01*
X113777319Y-99962500D01*
X113499406Y-99907220D01*
X113237617Y-99798783D01*
X113237616Y-99798783D01*
X113237615Y-99798782D01*
X113002010Y-99641356D01*
X112801644Y-99440990D01*
X112644218Y-99205385D01*
X112634296Y-99181431D01*
X112535780Y-98943594D01*
X112480500Y-98665681D01*
X112480500Y-98382319D01*
X112535780Y-98104406D01*
X112644217Y-97842617D01*
X112644218Y-97842615D01*
X112801644Y-97607010D01*
X113002010Y-97406644D01*
X113237615Y-97249218D01*
X113237617Y-97249217D01*
X113499406Y-97140780D01*
X113777319Y-97085500D01*
X114060681Y-97085500D01*
X114338594Y-97140780D01*
G37*
G36*
X143640797Y-98602567D02*
G01*
X143695575Y-98625257D01*
X143744875Y-98658198D01*
X143786801Y-98700124D01*
X143819742Y-98749424D01*
X143842432Y-98804202D01*
X143853999Y-98862352D01*
X143853999Y-98921646D01*
X143842432Y-98979796D01*
X143819742Y-99034574D01*
X143786801Y-99083874D01*
X143744875Y-99125800D01*
X143695575Y-99158741D01*
X143640797Y-99181431D01*
X143582647Y-99192998D01*
X143523353Y-99192998D01*
X143465203Y-99181431D01*
X143410425Y-99158741D01*
X143361125Y-99125800D01*
X143319199Y-99083874D01*
X143286258Y-99034574D01*
X143263568Y-98979796D01*
X143252001Y-98921646D01*
X143252001Y-98862352D01*
X143263568Y-98804202D01*
X143286258Y-98749424D01*
X143319199Y-98700124D01*
X143361125Y-98658198D01*
X143410425Y-98625257D01*
X143465203Y-98602567D01*
X143523353Y-98591000D01*
X143582647Y-98591000D01*
X143640797Y-98602567D01*
G37*
G36*
X146940798Y-98602567D02*
G01*
X146995576Y-98625257D01*
X147044876Y-98658198D01*
X147086802Y-98700124D01*
X147119743Y-98749424D01*
X147142433Y-98804202D01*
X147154000Y-98862352D01*
X147154000Y-98921646D01*
X147142433Y-98979796D01*
X147119743Y-99034574D01*
X147086802Y-99083874D01*
X147044876Y-99125800D01*
X146995576Y-99158741D01*
X146940798Y-99181431D01*
X146882648Y-99192998D01*
X146823354Y-99192998D01*
X146765204Y-99181431D01*
X146710426Y-99158741D01*
X146661126Y-99125800D01*
X146619200Y-99083874D01*
X146586259Y-99034574D01*
X146563569Y-98979796D01*
X146552002Y-98921646D01*
X146552002Y-98862352D01*
X146563569Y-98804202D01*
X146586259Y-98749424D01*
X146619200Y-98700124D01*
X146661126Y-98658198D01*
X146710426Y-98625257D01*
X146765204Y-98602567D01*
X146823354Y-98591000D01*
X146882648Y-98591000D01*
X146940798Y-98602567D01*
G37*
G36*
X145840797Y-98602567D02*
G01*
X145895575Y-98625257D01*
X145944875Y-98658198D01*
X145986801Y-98700124D01*
X146019742Y-98749424D01*
X146042432Y-98804202D01*
X146053999Y-98862352D01*
X146053999Y-98921646D01*
X146042432Y-98979796D01*
X146019742Y-99034574D01*
X145986801Y-99083874D01*
X145944875Y-99125800D01*
X145895575Y-99158741D01*
X145840797Y-99181431D01*
X145782647Y-99192998D01*
X145723353Y-99192998D01*
X145665203Y-99181431D01*
X145610425Y-99158741D01*
X145561125Y-99125800D01*
X145519199Y-99083874D01*
X145486258Y-99034574D01*
X145463568Y-98979796D01*
X145452001Y-98921646D01*
X145452001Y-98862352D01*
X145463568Y-98804202D01*
X145486258Y-98749424D01*
X145519199Y-98700124D01*
X145561125Y-98658198D01*
X145610425Y-98625257D01*
X145665203Y-98602567D01*
X145723353Y-98591000D01*
X145782647Y-98591000D01*
X145840797Y-98602567D01*
G37*
G36*
X142540796Y-98602567D02*
G01*
X142595574Y-98625257D01*
X142644874Y-98658198D01*
X142686800Y-98700124D01*
X142719741Y-98749424D01*
X142742431Y-98804202D01*
X142753998Y-98862352D01*
X142753998Y-98921646D01*
X142742431Y-98979796D01*
X142719741Y-99034574D01*
X142686800Y-99083874D01*
X142644874Y-99125800D01*
X142595574Y-99158741D01*
X142540796Y-99181431D01*
X142482646Y-99192998D01*
X142423352Y-99192998D01*
X142365202Y-99181431D01*
X142310424Y-99158741D01*
X142261124Y-99125800D01*
X142219198Y-99083874D01*
X142186257Y-99034574D01*
X142163567Y-98979796D01*
X142152000Y-98921646D01*
X142152000Y-98862352D01*
X142163567Y-98804202D01*
X142186257Y-98749424D01*
X142219198Y-98700124D01*
X142261124Y-98658198D01*
X142310424Y-98625257D01*
X142365202Y-98602567D01*
X142423352Y-98591000D01*
X142482646Y-98591000D01*
X142540796Y-98602567D01*
G37*
G36*
X144740797Y-98602567D02*
G01*
X144795575Y-98625257D01*
X144844875Y-98658198D01*
X144886801Y-98700124D01*
X144919742Y-98749424D01*
X144942432Y-98804202D01*
X144953999Y-98862352D01*
X144953999Y-98921646D01*
X144942432Y-98979796D01*
X144919742Y-99034574D01*
X144886801Y-99083874D01*
X144844875Y-99125800D01*
X144795575Y-99158741D01*
X144740797Y-99181431D01*
X144682647Y-99192998D01*
X144623353Y-99192998D01*
X144565203Y-99181431D01*
X144510425Y-99158741D01*
X144461125Y-99125800D01*
X144419199Y-99083874D01*
X144386258Y-99034574D01*
X144363568Y-98979796D01*
X144352001Y-98921646D01*
X144352001Y-98862352D01*
X144363568Y-98804202D01*
X144386258Y-98749424D01*
X144419199Y-98700124D01*
X144461125Y-98658198D01*
X144510425Y-98625257D01*
X144565203Y-98602567D01*
X144623353Y-98591000D01*
X144682647Y-98591000D01*
X144740797Y-98602567D01*
G37*
G36*
X168259487Y-95381996D02*
G01*
X168496253Y-95480068D01*
X168496255Y-95480069D01*
X168709339Y-95622447D01*
X168890553Y-95803661D01*
X169032932Y-96016747D01*
X169131004Y-96253513D01*
X169181000Y-96504861D01*
X169181000Y-96761139D01*
X169131004Y-97012487D01*
X169032947Y-97249217D01*
X169032931Y-97249255D01*
X168890553Y-97462339D01*
X168709339Y-97643553D01*
X168496255Y-97785931D01*
X168496254Y-97785932D01*
X168496253Y-97785932D01*
X168259487Y-97884004D01*
X168008139Y-97934000D01*
X167751861Y-97934000D01*
X167500513Y-97884004D01*
X167263747Y-97785932D01*
X167263746Y-97785932D01*
X167263745Y-97785931D01*
X167050661Y-97643553D01*
X166869447Y-97462339D01*
X166727069Y-97249255D01*
X166727053Y-97249217D01*
X166628996Y-97012487D01*
X166579000Y-96761139D01*
X166579000Y-96504861D01*
X166628996Y-96253513D01*
X166727068Y-96016747D01*
X166869447Y-95803661D01*
X167050661Y-95622447D01*
X167263745Y-95480069D01*
X167263747Y-95480068D01*
X167500513Y-95381996D01*
X167751861Y-95332000D01*
X168008139Y-95332000D01*
X168259487Y-95381996D01*
G37*
G36*
X171234594Y-92314780D02*
G01*
X171496383Y-92423217D01*
X171496385Y-92423218D01*
X171731990Y-92580644D01*
X171932356Y-92781010D01*
X172089782Y-93016615D01*
X172089783Y-93016617D01*
X172198220Y-93278406D01*
X172253500Y-93556319D01*
X172253500Y-93839681D01*
X172198220Y-94117594D01*
X172089783Y-94379383D01*
X172089782Y-94379385D01*
X171932356Y-94614990D01*
X171731990Y-94815356D01*
X171496385Y-94972782D01*
X171496384Y-94972783D01*
X171496383Y-94972783D01*
X171234594Y-95081220D01*
X170956681Y-95136500D01*
X170673319Y-95136500D01*
X170395406Y-95081220D01*
X170133617Y-94972783D01*
X170133616Y-94972783D01*
X170133615Y-94972782D01*
X169898010Y-94815356D01*
X169697644Y-94614990D01*
X169540218Y-94379385D01*
X169540217Y-94379383D01*
X169431780Y-94117594D01*
X169376500Y-93839681D01*
X169376500Y-93556319D01*
X169431780Y-93278406D01*
X169540217Y-93016617D01*
X169540218Y-93016615D01*
X169697644Y-92781010D01*
X169898010Y-92580644D01*
X170133615Y-92423218D01*
X170133617Y-92423217D01*
X170395406Y-92314780D01*
X170673319Y-92259500D01*
X170956681Y-92259500D01*
X171234594Y-92314780D01*
G37*
G36*
X165364594Y-92314780D02*
G01*
X165626383Y-92423217D01*
X165626385Y-92423218D01*
X165861990Y-92580644D01*
X166062356Y-92781010D01*
X166219782Y-93016615D01*
X166219783Y-93016617D01*
X166328220Y-93278406D01*
X166383500Y-93556319D01*
X166383500Y-93839681D01*
X166328220Y-94117594D01*
X166219783Y-94379383D01*
X166219782Y-94379385D01*
X166062356Y-94614990D01*
X165861990Y-94815356D01*
X165626385Y-94972782D01*
X165626384Y-94972783D01*
X165626383Y-94972783D01*
X165364594Y-95081220D01*
X165086681Y-95136500D01*
X164803319Y-95136500D01*
X164525406Y-95081220D01*
X164263617Y-94972783D01*
X164263616Y-94972783D01*
X164263615Y-94972782D01*
X164028010Y-94815356D01*
X163827644Y-94614990D01*
X163670218Y-94379385D01*
X163670217Y-94379383D01*
X163561780Y-94117594D01*
X163506500Y-93839681D01*
X163506500Y-93556319D01*
X163561780Y-93278406D01*
X163670217Y-93016617D01*
X163670218Y-93016615D01*
X163827644Y-92781010D01*
X164028010Y-92580644D01*
X164263615Y-92423218D01*
X164263617Y-92423217D01*
X164525406Y-92314780D01*
X164803319Y-92259500D01*
X165086681Y-92259500D01*
X165364594Y-92314780D01*
G37*
G36*
X165364594Y-85103780D02*
G01*
X165626383Y-85212217D01*
X165626385Y-85212218D01*
X165861990Y-85369644D01*
X166062356Y-85570010D01*
X166219782Y-85805615D01*
X166219783Y-85805617D01*
X166328220Y-86067406D01*
X166383500Y-86345319D01*
X166383500Y-86628681D01*
X166328220Y-86906594D01*
X166219783Y-87168383D01*
X166219782Y-87168385D01*
X166062356Y-87403990D01*
X165861990Y-87604356D01*
X165626385Y-87761782D01*
X165626384Y-87761783D01*
X165626383Y-87761783D01*
X165364594Y-87870220D01*
X165086681Y-87925500D01*
X164803319Y-87925500D01*
X164525406Y-87870220D01*
X164263617Y-87761783D01*
X164263616Y-87761783D01*
X164263615Y-87761782D01*
X164028010Y-87604356D01*
X163827644Y-87403990D01*
X163670218Y-87168385D01*
X163670217Y-87168383D01*
X163561780Y-86906594D01*
X163506500Y-86628681D01*
X163506500Y-86345319D01*
X163561780Y-86067406D01*
X163670217Y-85805617D01*
X163670218Y-85805615D01*
X163827644Y-85570010D01*
X164028010Y-85369644D01*
X164263615Y-85212218D01*
X164263617Y-85212217D01*
X164525406Y-85103780D01*
X164803319Y-85048500D01*
X165086681Y-85048500D01*
X165364594Y-85103780D01*
G37*
G36*
X171234594Y-85103780D02*
G01*
X171496383Y-85212217D01*
X171496385Y-85212218D01*
X171731990Y-85369644D01*
X171932356Y-85570010D01*
X172089782Y-85805615D01*
X172089783Y-85805617D01*
X172198220Y-86067406D01*
X172253500Y-86345319D01*
X172253500Y-86628681D01*
X172198220Y-86906594D01*
X172089783Y-87168383D01*
X172089782Y-87168385D01*
X171932356Y-87403990D01*
X171731990Y-87604356D01*
X171496385Y-87761782D01*
X171496384Y-87761783D01*
X171496383Y-87761783D01*
X171234594Y-87870220D01*
X170956681Y-87925500D01*
X170673319Y-87925500D01*
X170395406Y-87870220D01*
X170133617Y-87761783D01*
X170133616Y-87761783D01*
X170133615Y-87761782D01*
X169898010Y-87604356D01*
X169697644Y-87403990D01*
X169540218Y-87168385D01*
X169540217Y-87168383D01*
X169431780Y-86906594D01*
X169376500Y-86628681D01*
X169376500Y-86345319D01*
X169431780Y-86067406D01*
X169540217Y-85805617D01*
X169540218Y-85805615D01*
X169697644Y-85570010D01*
X169898010Y-85369644D01*
X170133615Y-85212218D01*
X170133617Y-85212217D01*
X170395406Y-85103780D01*
X170673319Y-85048500D01*
X170956681Y-85048500D01*
X171234594Y-85103780D01*
G37*
G36*
X168259487Y-82300996D02*
G01*
X168496253Y-82399068D01*
X168496255Y-82399069D01*
X168709339Y-82541447D01*
X168890553Y-82722661D01*
X169032932Y-82935747D01*
X169131004Y-83172513D01*
X169181000Y-83423861D01*
X169181000Y-83680139D01*
X169131004Y-83931487D01*
X169032932Y-84168253D01*
X169032931Y-84168255D01*
X168890553Y-84381339D01*
X168709339Y-84562553D01*
X168496255Y-84704931D01*
X168496254Y-84704932D01*
X168496253Y-84704932D01*
X168259487Y-84803004D01*
X168008139Y-84853000D01*
X167751861Y-84853000D01*
X167500513Y-84803004D01*
X167263747Y-84704932D01*
X167263746Y-84704932D01*
X167263745Y-84704931D01*
X167050661Y-84562553D01*
X166869447Y-84381339D01*
X166727069Y-84168255D01*
X166727068Y-84168253D01*
X166628996Y-83931487D01*
X166579000Y-83680139D01*
X166579000Y-83423861D01*
X166628996Y-83172513D01*
X166727068Y-82935747D01*
X166869447Y-82722661D01*
X167050661Y-82541447D01*
X167263745Y-82399069D01*
X167263747Y-82399068D01*
X167500513Y-82300996D01*
X167751861Y-82251000D01*
X168008139Y-82251000D01*
X168259487Y-82300996D01*
G37*
G36*
X171234594Y-79233780D02*
G01*
X171496383Y-79342217D01*
X171496385Y-79342218D01*
X171731990Y-79499644D01*
X171932356Y-79700010D01*
X172089782Y-79935615D01*
X172089783Y-79935617D01*
X172198220Y-80197406D01*
X172253500Y-80475319D01*
X172253500Y-80758681D01*
X172198220Y-81036594D01*
X172089783Y-81298383D01*
X172089782Y-81298385D01*
X171932356Y-81533990D01*
X171731990Y-81734356D01*
X171496385Y-81891782D01*
X171496384Y-81891783D01*
X171496383Y-81891783D01*
X171234594Y-82000220D01*
X170956681Y-82055500D01*
X170673319Y-82055500D01*
X170395406Y-82000220D01*
X170133617Y-81891783D01*
X170133616Y-81891783D01*
X170133615Y-81891782D01*
X169898010Y-81734356D01*
X169697644Y-81533990D01*
X169540218Y-81298385D01*
X169540217Y-81298383D01*
X169431780Y-81036594D01*
X169376500Y-80758681D01*
X169376500Y-80475319D01*
X169431780Y-80197406D01*
X169540217Y-79935617D01*
X169540218Y-79935615D01*
X169697644Y-79700010D01*
X169898010Y-79499644D01*
X170133615Y-79342218D01*
X170133617Y-79342217D01*
X170395406Y-79233780D01*
X170673319Y-79178500D01*
X170956681Y-79178500D01*
X171234594Y-79233780D01*
G37*
G36*
X165364594Y-79233780D02*
G01*
X165626383Y-79342217D01*
X165626385Y-79342218D01*
X165861990Y-79499644D01*
X166062356Y-79700010D01*
X166219782Y-79935615D01*
X166219783Y-79935617D01*
X166328220Y-80197406D01*
X166383500Y-80475319D01*
X166383500Y-80758681D01*
X166328220Y-81036594D01*
X166219783Y-81298383D01*
X166219782Y-81298385D01*
X166062356Y-81533990D01*
X165861990Y-81734356D01*
X165626385Y-81891782D01*
X165626384Y-81891783D01*
X165626383Y-81891783D01*
X165364594Y-82000220D01*
X165086681Y-82055500D01*
X164803319Y-82055500D01*
X164525406Y-82000220D01*
X164263617Y-81891783D01*
X164263616Y-81891783D01*
X164263615Y-81891782D01*
X164028010Y-81734356D01*
X163827644Y-81533990D01*
X163670218Y-81298385D01*
X163670217Y-81298383D01*
X163561780Y-81036594D01*
X163506500Y-80758681D01*
X163506500Y-80475319D01*
X163561780Y-80197406D01*
X163670217Y-79935617D01*
X163670218Y-79935615D01*
X163827644Y-79700010D01*
X164028010Y-79499644D01*
X164263615Y-79342218D01*
X164263617Y-79342217D01*
X164525406Y-79233780D01*
X164803319Y-79178500D01*
X165086681Y-79178500D01*
X165364594Y-79233780D01*
G37*
M02*
