G04 #@! TF.GenerationSoftware,KiCad,Pcbnew,(5.1.5)-3*
G04 #@! TF.CreationDate,2020-12-16T15:48:43+01:00*
G04 #@! TF.ProjectId,esc,6573632e-6b69-4636-9164-5f7063625858,rev?*
G04 #@! TF.SameCoordinates,Original*
G04 #@! TF.FileFunction,Copper,L3,Inr*
G04 #@! TF.FilePolarity,Positive*
%FSLAX46Y46*%
G04 Gerber Fmt 4.6, Leading zero omitted, Abs format (unit mm)*
G04 Created by KiCad (PCBNEW (5.1.5)-3) date 2020-12-16 15:48:43*
%MOMM*%
%LPD*%
G04 APERTURE LIST*
%ADD10C,0.499999*%
%ADD11C,2.775000*%
%ADD12C,0.600000*%
%ADD13C,0.450000*%
%ADD14C,0.800000*%
%ADD15C,0.254000*%
G04 APERTURE END LIST*
D10*
X142452999Y-98891999D03*
X143553000Y-98891999D03*
X144653000Y-98891999D03*
X145753000Y-98891999D03*
X146853001Y-98891999D03*
X142452999Y-99992000D03*
X143553000Y-99992000D03*
X144653000Y-99992000D03*
X145753000Y-99992000D03*
X146853001Y-99992000D03*
X142452999Y-101092000D03*
X143553000Y-101092000D03*
X144653000Y-101092000D03*
X145753000Y-101092000D03*
X146853001Y-101092000D03*
X142452999Y-102192000D03*
X143553000Y-102192000D03*
X144653000Y-102192000D03*
X145753000Y-102192000D03*
X146853001Y-102192000D03*
X142452999Y-103292001D03*
X143553000Y-103292001D03*
X144653000Y-103292001D03*
X145753000Y-103292001D03*
X146853001Y-103292001D03*
D11*
X164945000Y-86487000D03*
X164945000Y-80617000D03*
X170815000Y-80617000D03*
X170815000Y-86487000D03*
X113919000Y-98524000D03*
X119789000Y-98524000D03*
X119789000Y-104394000D03*
X113919000Y-104394000D03*
X164945000Y-99568000D03*
X164945000Y-93698000D03*
X170815000Y-93698000D03*
X170815000Y-99568000D03*
X113919000Y-109319000D03*
X119789000Y-109319000D03*
X119789000Y-115189000D03*
X113919000Y-115189000D03*
X164945000Y-112649000D03*
X164945000Y-106779000D03*
X170815000Y-106779000D03*
X170815000Y-112649000D03*
D12*
X140970000Y-106426000D03*
D13*
X152019000Y-95885000D03*
D12*
X161163000Y-97663000D03*
D13*
X152654000Y-95885000D03*
X153289000Y-95885000D03*
X153924000Y-95885000D03*
X154559000Y-95885000D03*
X155194000Y-95885000D03*
X155194000Y-95250000D03*
X153289000Y-95250000D03*
X153924000Y-95250000D03*
X152019000Y-95250000D03*
X152654000Y-95250000D03*
X154559000Y-95250000D03*
X153289000Y-93980000D03*
X154559000Y-93980000D03*
X155194000Y-94615000D03*
X153289000Y-94615000D03*
X152019000Y-93980000D03*
X153924000Y-93980000D03*
X152654000Y-93980000D03*
X155194000Y-93980000D03*
X153924000Y-94615000D03*
X152019000Y-94615000D03*
X152654000Y-94615000D03*
X154559000Y-94615000D03*
X152654000Y-92075000D03*
X155194000Y-92075000D03*
X154559000Y-92075000D03*
X152019000Y-92710000D03*
X152654000Y-92710000D03*
X153289000Y-93345000D03*
X152019000Y-92075000D03*
X154559000Y-93345000D03*
X153924000Y-92710000D03*
X153289000Y-92075000D03*
X154559000Y-92710000D03*
X152019000Y-93345000D03*
X153924000Y-93345000D03*
X152654000Y-93345000D03*
X155194000Y-92710000D03*
X153924000Y-92075000D03*
X155194000Y-93345000D03*
X153289000Y-92710000D03*
X152654000Y-81280000D03*
X155194000Y-81280000D03*
X154559000Y-81280000D03*
X152019000Y-81915000D03*
X152654000Y-81915000D03*
X153289000Y-82550000D03*
X152019000Y-81280000D03*
X154559000Y-82550000D03*
X153924000Y-81915000D03*
X153289000Y-81280000D03*
X155194000Y-83185000D03*
X154559000Y-81915000D03*
X153289000Y-83185000D03*
X152019000Y-82550000D03*
X153924000Y-82550000D03*
X152654000Y-82550000D03*
X155194000Y-81915000D03*
X153924000Y-81280000D03*
X155194000Y-82550000D03*
X153289000Y-81915000D03*
X153924000Y-83185000D03*
X152019000Y-83185000D03*
X152654000Y-83185000D03*
X154559000Y-83185000D03*
X154559000Y-79375000D03*
X154559000Y-80645000D03*
X152019000Y-80010000D03*
X155194000Y-79375000D03*
X152019000Y-80645000D03*
X152019000Y-79375000D03*
X154559000Y-80010000D03*
X153924000Y-80645000D03*
X153924000Y-79375000D03*
X153289000Y-80010000D03*
X152654000Y-79375000D03*
X153289000Y-79375000D03*
X152654000Y-80010000D03*
X153289000Y-80645000D03*
X153924000Y-80010000D03*
X155194000Y-80010000D03*
X155194000Y-80645000D03*
X152654000Y-80645000D03*
X152654000Y-105791000D03*
X153924000Y-108966000D03*
X152654000Y-107696000D03*
X154559000Y-108966000D03*
X153289000Y-108966000D03*
X155194000Y-109601000D03*
X154559000Y-109601000D03*
X153924000Y-105791000D03*
X153289000Y-105791000D03*
X152019000Y-107061000D03*
X154559000Y-106426000D03*
X153289000Y-106426000D03*
X155194000Y-106426000D03*
X152019000Y-105791000D03*
X152654000Y-109601000D03*
X155194000Y-105791000D03*
X154559000Y-105791000D03*
X152019000Y-108331000D03*
X153289000Y-109601000D03*
X152019000Y-109601000D03*
X153924000Y-107061000D03*
X155194000Y-107696000D03*
X153289000Y-108331000D03*
X153289000Y-107061000D03*
X152654000Y-107061000D03*
X155194000Y-108331000D03*
X153924000Y-107696000D03*
X152019000Y-106426000D03*
X152654000Y-108966000D03*
X153924000Y-109601000D03*
X152654000Y-106426000D03*
X154559000Y-107696000D03*
X153924000Y-106426000D03*
X155194000Y-107061000D03*
X153924000Y-108331000D03*
X152019000Y-108966000D03*
X155194000Y-108966000D03*
X154559000Y-107061000D03*
X152654000Y-108331000D03*
X152019000Y-107696000D03*
X153289000Y-107696000D03*
X154559000Y-108331000D03*
X113411000Y-79375000D03*
X114681000Y-82550000D03*
X113411000Y-81280000D03*
X115316000Y-82550000D03*
X114046000Y-82550000D03*
X115951000Y-83185000D03*
X115316000Y-83185000D03*
X114681000Y-79375000D03*
X114046000Y-79375000D03*
X115316000Y-80010000D03*
X114046000Y-80010000D03*
X115951000Y-80010000D03*
X113411000Y-83185000D03*
X115951000Y-79375000D03*
X115316000Y-79375000D03*
X114046000Y-83185000D03*
X114681000Y-80645000D03*
X115951000Y-81280000D03*
X114046000Y-81915000D03*
X114046000Y-80645000D03*
X113411000Y-80645000D03*
X115951000Y-81915000D03*
X114681000Y-81280000D03*
X113411000Y-82550000D03*
X114681000Y-83185000D03*
X113411000Y-80010000D03*
X115316000Y-81280000D03*
X114681000Y-80010000D03*
X115951000Y-80645000D03*
X114681000Y-81915000D03*
X115951000Y-82550000D03*
X115316000Y-80645000D03*
X113411000Y-81915000D03*
X114046000Y-81280000D03*
X115316000Y-81915000D03*
X114046000Y-90424000D03*
X115951000Y-90424000D03*
X113411000Y-92329000D03*
X114681000Y-92964000D03*
X113411000Y-91694000D03*
X113411000Y-92964000D03*
X114046000Y-91694000D03*
X114681000Y-89789000D03*
X113411000Y-91059000D03*
X115316000Y-90424000D03*
X114046000Y-91059000D03*
X114681000Y-90424000D03*
X113411000Y-90424000D03*
X113411000Y-89789000D03*
X115316000Y-89789000D03*
X115951000Y-92329000D03*
X115316000Y-91059000D03*
X115316000Y-92964000D03*
X115316000Y-92329000D03*
X114681000Y-92329000D03*
X115951000Y-89154000D03*
X114046000Y-92329000D03*
X115951000Y-91059000D03*
X115951000Y-92964000D03*
X114046000Y-89789000D03*
X114681000Y-91059000D03*
X115951000Y-89789000D03*
X115951000Y-91694000D03*
X114681000Y-91694000D03*
X115316000Y-91694000D03*
X114046000Y-92964000D03*
X114681000Y-89154000D03*
X113411000Y-89154000D03*
X114046000Y-89154000D03*
X115316000Y-89154000D03*
X112776000Y-80010000D03*
X112776000Y-79375000D03*
X112776000Y-80645000D03*
X112776000Y-82550000D03*
X112776000Y-81915000D03*
X112776000Y-81280000D03*
X112776000Y-83185000D03*
X112776000Y-92329000D03*
X112776000Y-91694000D03*
X112776000Y-91059000D03*
X112776000Y-92964000D03*
X112776000Y-89789000D03*
X112776000Y-90424000D03*
X112776000Y-89154000D03*
D12*
X124841000Y-97599500D03*
X147447000Y-109855000D03*
X147447000Y-108839000D03*
X143383000Y-109855000D03*
X146812000Y-92329000D03*
X143891000Y-90678000D03*
X140462000Y-78867000D03*
X126111000Y-79375000D03*
X124714000Y-89916000D03*
X131318000Y-114300000D03*
X124588030Y-103505000D03*
X124588020Y-105846587D03*
X137160000Y-93217994D03*
X136939161Y-97360031D03*
X133985000Y-112522000D03*
X137414000Y-112522000D03*
X137315052Y-110004950D03*
X132715000Y-107315000D03*
X129413000Y-94234000D03*
X166370000Y-103441500D03*
X166116000Y-90170008D03*
X166433500Y-116395500D03*
D13*
X133223000Y-92900500D03*
X133223000Y-92265500D03*
X133223000Y-90995500D03*
X133223000Y-91630500D03*
D12*
X131318008Y-116205000D03*
X127889000Y-94234000D03*
X137033000Y-94742000D03*
X136271000Y-106045000D03*
X139065000Y-114681000D03*
X138430000Y-109982000D03*
D13*
X117602000Y-80645000D03*
X117602000Y-82550000D03*
X117602000Y-79375000D03*
X117602000Y-81280000D03*
X117602000Y-83185000D03*
X117602000Y-80010000D03*
X117602000Y-81915000D03*
X118237000Y-83185000D03*
X118237000Y-81915000D03*
X118237000Y-79375000D03*
X118237000Y-80010000D03*
X118237000Y-82550000D03*
X118237000Y-81280000D03*
X118237000Y-80645000D03*
X119507000Y-83185000D03*
X119507000Y-81915000D03*
X119507000Y-79375000D03*
X119507000Y-80010000D03*
X119507000Y-82550000D03*
X119507000Y-81280000D03*
X119507000Y-80645000D03*
X118872000Y-80645000D03*
X118872000Y-82550000D03*
X118872000Y-79375000D03*
X118872000Y-81280000D03*
X118872000Y-83185000D03*
X118872000Y-80010000D03*
X118872000Y-81915000D03*
X120142000Y-83185000D03*
X120142000Y-79375000D03*
X120142000Y-82550000D03*
X120142000Y-80645000D03*
X120142000Y-81280000D03*
X120142000Y-80010000D03*
X120142000Y-81915000D03*
X120777000Y-79375000D03*
X120777000Y-80645000D03*
X120777000Y-82550000D03*
X120777000Y-83185000D03*
X120777000Y-80010000D03*
X120777000Y-81280000D03*
X120777000Y-81915000D03*
X158496000Y-79375000D03*
X159131000Y-81915000D03*
X158496000Y-80645000D03*
X159131000Y-81280000D03*
X159131000Y-80010000D03*
X159131000Y-80645000D03*
X159131000Y-82550000D03*
X158496000Y-82550000D03*
X159131000Y-79375000D03*
X159131000Y-83185000D03*
X157226000Y-83185000D03*
X157226000Y-81915000D03*
X157226000Y-79375000D03*
X157226000Y-80010000D03*
X157226000Y-82550000D03*
X157226000Y-81280000D03*
X157226000Y-80645000D03*
X159766000Y-81915000D03*
X158496000Y-83185000D03*
X159766000Y-81280000D03*
X158496000Y-80010000D03*
X159766000Y-80645000D03*
X159766000Y-79375000D03*
X158496000Y-81280000D03*
X158496000Y-81915000D03*
X159766000Y-82550000D03*
X159766000Y-83185000D03*
X159766000Y-80010000D03*
X160401000Y-80010000D03*
X160401000Y-81280000D03*
X160401000Y-81915000D03*
X160401000Y-82550000D03*
X160401000Y-80645000D03*
X160401000Y-83185000D03*
X160401000Y-79375000D03*
X157861000Y-83185000D03*
X157861000Y-79375000D03*
X157861000Y-82550000D03*
X157861000Y-80645000D03*
X157861000Y-81280000D03*
X157861000Y-80010000D03*
X157861000Y-81915000D03*
X158496000Y-92710000D03*
X159766000Y-93980000D03*
X159766000Y-93345000D03*
X159131000Y-94615000D03*
X158496000Y-93345000D03*
X159131000Y-92710000D03*
X159131000Y-93345000D03*
X157226000Y-95885000D03*
X157226000Y-92710000D03*
X158496000Y-95250000D03*
X157226000Y-92075000D03*
X159131000Y-92075000D03*
X157226000Y-95250000D03*
X157226000Y-93980000D03*
X157226000Y-93345000D03*
X159131000Y-95250000D03*
X159131000Y-93980000D03*
X157226000Y-94615000D03*
X159766000Y-94615000D03*
X158496000Y-95885000D03*
X158496000Y-92075000D03*
X159131000Y-95885000D03*
X160401000Y-95250000D03*
X157861000Y-93980000D03*
X157861000Y-92710000D03*
X160401000Y-92710000D03*
X160401000Y-94615000D03*
X160401000Y-93345000D03*
X159766000Y-92710000D03*
X159766000Y-92075000D03*
X160401000Y-92075000D03*
X157861000Y-93345000D03*
X160401000Y-93980000D03*
X157861000Y-92075000D03*
X157861000Y-95250000D03*
X159766000Y-95885000D03*
X157861000Y-94615000D03*
X157861000Y-95885000D03*
X158496000Y-93980000D03*
X158496000Y-94615000D03*
X160401000Y-95885000D03*
X159766000Y-95250000D03*
X160401000Y-106426000D03*
X160401000Y-107696000D03*
X159131000Y-107061000D03*
X157861000Y-108331000D03*
X157861000Y-108966000D03*
X157226000Y-106426000D03*
X158496000Y-108966000D03*
X160401000Y-109601000D03*
X160401000Y-108331000D03*
X158496000Y-107696000D03*
X157226000Y-105791000D03*
X159766000Y-109601000D03*
X158496000Y-107061000D03*
X160401000Y-105791000D03*
X160401000Y-107061000D03*
X157861000Y-107061000D03*
X158496000Y-109601000D03*
X157226000Y-107061000D03*
X157861000Y-106426000D03*
X159131000Y-105791000D03*
X157861000Y-107696000D03*
X159131000Y-108331000D03*
X159766000Y-105791000D03*
X157861000Y-105791000D03*
X157861000Y-109601000D03*
X157226000Y-109601000D03*
X157226000Y-107696000D03*
X159131000Y-108966000D03*
X158496000Y-106426000D03*
X160401000Y-108966000D03*
X159766000Y-108966000D03*
X159766000Y-108331000D03*
X159131000Y-109601000D03*
X159766000Y-106426000D03*
X159131000Y-107696000D03*
X159766000Y-107696000D03*
X158496000Y-105791000D03*
X157226000Y-108331000D03*
X157226000Y-108966000D03*
X159766000Y-107061000D03*
X159131000Y-106426000D03*
X158496000Y-108331000D03*
X145351500Y-88392000D03*
X144716500Y-88392000D03*
X144081500Y-88392000D03*
X145986500Y-88392000D03*
X144081500Y-87757000D03*
X145986500Y-87757000D03*
X144716500Y-87757000D03*
X145351500Y-87757000D03*
D12*
X152273000Y-90333990D03*
X148463000Y-106680000D03*
X150956929Y-101103191D03*
X145468426Y-108855968D03*
D14*
X162179000Y-104394000D03*
X162179000Y-90931990D03*
D12*
X150749000Y-111633000D03*
X143383000Y-108839000D03*
X138430000Y-105791000D03*
X141097000Y-104648002D03*
X140081000Y-112903000D03*
X140081000Y-114681000D03*
X140081000Y-111887000D03*
X129794000Y-101473000D03*
X141097000Y-105537000D03*
X130518058Y-101816058D03*
X140180873Y-104516479D03*
X133985000Y-104013006D03*
X141567998Y-103378000D03*
X135148023Y-101738718D03*
X139192000Y-104140002D03*
X134493000Y-101219000D03*
X139065012Y-102362000D03*
X133878409Y-100584000D03*
X141567998Y-101346000D03*
X133253409Y-103155456D03*
X141567998Y-100457000D03*
X132454271Y-103118076D03*
X139065000Y-99949000D03*
X138302450Y-101345450D03*
X131654291Y-103125139D03*
X141567998Y-99163388D03*
X140096017Y-96649405D03*
X135728553Y-98078441D03*
X140715998Y-97155000D03*
X129921000Y-98806000D03*
X141567998Y-102362000D03*
X135146320Y-102624320D03*
X123063000Y-114935000D03*
X135509797Y-95055021D03*
X123063000Y-116205000D03*
X136398000Y-96012000D03*
X167640000Y-90170000D03*
X129793998Y-102362000D03*
X131952982Y-106807000D03*
X167957500Y-103441502D03*
X148844000Y-113665000D03*
X167957500Y-116395500D03*
X136080500Y-107886500D03*
X157670498Y-97663000D03*
X140716000Y-89662000D03*
X137731500Y-107886500D03*
X131445000Y-94234000D03*
X137223500Y-91694004D03*
X123063000Y-113665000D03*
X133915211Y-94605010D03*
D15*
G36*
X139633414Y-78424111D02*
G01*
X139562932Y-78594271D01*
X139527000Y-78774911D01*
X139527000Y-78959089D01*
X139562932Y-79139729D01*
X139633414Y-79309889D01*
X139735738Y-79463028D01*
X139865972Y-79593262D01*
X140019111Y-79695586D01*
X140189271Y-79766068D01*
X140369911Y-79802000D01*
X140554089Y-79802000D01*
X140734729Y-79766068D01*
X140904889Y-79695586D01*
X141058028Y-79593262D01*
X141188262Y-79463028D01*
X141290586Y-79309889D01*
X141361068Y-79139729D01*
X141397000Y-78959089D01*
X141397000Y-78774911D01*
X141361068Y-78594271D01*
X141290586Y-78424111D01*
X141263785Y-78384000D01*
X151003000Y-78384000D01*
X151003000Y-78803500D01*
X151005440Y-78828276D01*
X151012667Y-78852101D01*
X151024403Y-78874057D01*
X151040197Y-78893303D01*
X151059443Y-78909097D01*
X151081399Y-78920833D01*
X151105224Y-78928060D01*
X151130000Y-78930500D01*
X151281692Y-78930500D01*
X151256878Y-78967637D01*
X151192049Y-79124147D01*
X151159000Y-79290297D01*
X151159000Y-79459703D01*
X151192049Y-79625853D01*
X151219655Y-79692500D01*
X151192049Y-79759147D01*
X151159000Y-79925297D01*
X151159000Y-80094703D01*
X151192049Y-80260853D01*
X151219655Y-80327500D01*
X151192049Y-80394147D01*
X151159000Y-80560297D01*
X151159000Y-80729703D01*
X151192049Y-80895853D01*
X151219655Y-80962500D01*
X151192049Y-81029147D01*
X151159000Y-81195297D01*
X151159000Y-81364703D01*
X151192049Y-81530853D01*
X151219655Y-81597500D01*
X151192049Y-81664147D01*
X151159000Y-81830297D01*
X151159000Y-81999703D01*
X151192049Y-82165853D01*
X151219655Y-82232500D01*
X151192049Y-82299147D01*
X151159000Y-82465297D01*
X151159000Y-82634703D01*
X151192049Y-82800853D01*
X151219655Y-82867500D01*
X151192049Y-82934147D01*
X151159000Y-83100297D01*
X151159000Y-83269703D01*
X151192049Y-83435853D01*
X151256878Y-83592363D01*
X151350995Y-83733218D01*
X151470782Y-83853005D01*
X151611637Y-83947122D01*
X151768147Y-84011951D01*
X151934297Y-84045000D01*
X152103703Y-84045000D01*
X152269853Y-84011951D01*
X152336500Y-83984345D01*
X152403147Y-84011951D01*
X152569297Y-84045000D01*
X152738703Y-84045000D01*
X152904853Y-84011951D01*
X152971500Y-83984345D01*
X153038147Y-84011951D01*
X153204297Y-84045000D01*
X153373703Y-84045000D01*
X153539853Y-84011951D01*
X153606500Y-83984345D01*
X153673147Y-84011951D01*
X153839297Y-84045000D01*
X154008703Y-84045000D01*
X154174853Y-84011951D01*
X154241500Y-83984345D01*
X154308147Y-84011951D01*
X154474297Y-84045000D01*
X154643703Y-84045000D01*
X154809853Y-84011951D01*
X154876500Y-83984345D01*
X154943147Y-84011951D01*
X155109297Y-84045000D01*
X155278703Y-84045000D01*
X155444853Y-84011951D01*
X155601363Y-83947122D01*
X155742218Y-83853005D01*
X155862005Y-83733218D01*
X155956122Y-83592363D01*
X156020951Y-83435853D01*
X156034777Y-83366344D01*
X165995000Y-83366344D01*
X165995000Y-83737656D01*
X166067439Y-84101834D01*
X166209534Y-84444882D01*
X166415825Y-84753618D01*
X166678382Y-85016175D01*
X166987118Y-85222466D01*
X167330166Y-85364561D01*
X167694344Y-85437000D01*
X168065656Y-85437000D01*
X168429834Y-85364561D01*
X168772882Y-85222466D01*
X169081618Y-85016175D01*
X169344175Y-84753618D01*
X169550466Y-84444882D01*
X169692561Y-84101834D01*
X169765000Y-83737656D01*
X169765000Y-83366344D01*
X169692561Y-83002166D01*
X169550466Y-82659118D01*
X169344175Y-82350382D01*
X169081618Y-82087825D01*
X168772882Y-81881534D01*
X168429834Y-81739439D01*
X168065656Y-81667000D01*
X167694344Y-81667000D01*
X167330166Y-81739439D01*
X166987118Y-81881534D01*
X166678382Y-82087825D01*
X166415825Y-82350382D01*
X166209534Y-82659118D01*
X166067439Y-83002166D01*
X165995000Y-83366344D01*
X156034777Y-83366344D01*
X156054000Y-83269703D01*
X156054000Y-83100297D01*
X156020951Y-82934147D01*
X155993345Y-82867500D01*
X156020951Y-82800853D01*
X156054000Y-82634703D01*
X156054000Y-82465297D01*
X156020951Y-82299147D01*
X155993345Y-82232500D01*
X156020951Y-82165853D01*
X156054000Y-81999703D01*
X156054000Y-81830297D01*
X156020951Y-81664147D01*
X155993345Y-81597500D01*
X156020951Y-81530853D01*
X156054000Y-81364703D01*
X156054000Y-81195297D01*
X156020951Y-81029147D01*
X155993345Y-80962500D01*
X156020951Y-80895853D01*
X156054000Y-80729703D01*
X156054000Y-80560297D01*
X156025657Y-80417801D01*
X162922500Y-80417801D01*
X162922500Y-80816199D01*
X163000224Y-81206941D01*
X163152684Y-81575013D01*
X163374022Y-81906269D01*
X163655731Y-82187978D01*
X163986987Y-82409316D01*
X164355059Y-82561776D01*
X164745801Y-82639500D01*
X165144199Y-82639500D01*
X165534941Y-82561776D01*
X165903013Y-82409316D01*
X166234269Y-82187978D01*
X166515978Y-81906269D01*
X166737316Y-81575013D01*
X166889776Y-81206941D01*
X166967500Y-80816199D01*
X166967500Y-80417801D01*
X166889776Y-80027059D01*
X166737316Y-79658987D01*
X166515978Y-79327731D01*
X166234269Y-79046022D01*
X165903013Y-78824684D01*
X165534941Y-78672224D01*
X165144199Y-78594500D01*
X164745801Y-78594500D01*
X164355059Y-78672224D01*
X163986987Y-78824684D01*
X163655731Y-79046022D01*
X163374022Y-79327731D01*
X163152684Y-79658987D01*
X163000224Y-80027059D01*
X162922500Y-80417801D01*
X156025657Y-80417801D01*
X156020951Y-80394147D01*
X155993345Y-80327500D01*
X156020951Y-80260853D01*
X156054000Y-80094703D01*
X156054000Y-79925297D01*
X156020951Y-79759147D01*
X155993345Y-79692500D01*
X156020951Y-79625853D01*
X156054000Y-79459703D01*
X156054000Y-79290297D01*
X156020951Y-79124147D01*
X155956122Y-78967637D01*
X155862005Y-78826782D01*
X155829000Y-78793777D01*
X155829000Y-78384000D01*
X172568001Y-78384000D01*
X172568001Y-79600148D01*
X172385978Y-79327731D01*
X172104269Y-79046022D01*
X171773013Y-78824684D01*
X171404941Y-78672224D01*
X171014199Y-78594500D01*
X170615801Y-78594500D01*
X170225059Y-78672224D01*
X169856987Y-78824684D01*
X169525731Y-79046022D01*
X169244022Y-79327731D01*
X169022684Y-79658987D01*
X168870224Y-80027059D01*
X168792500Y-80417801D01*
X168792500Y-80816199D01*
X168870224Y-81206941D01*
X169022684Y-81575013D01*
X169244022Y-81906269D01*
X169525731Y-82187978D01*
X169856987Y-82409316D01*
X170225059Y-82561776D01*
X170615801Y-82639500D01*
X171014199Y-82639500D01*
X171404941Y-82561776D01*
X171773013Y-82409316D01*
X172104269Y-82187978D01*
X172385978Y-81906269D01*
X172568001Y-81633852D01*
X172568001Y-85470148D01*
X172385978Y-85197731D01*
X172104269Y-84916022D01*
X171773013Y-84694684D01*
X171404941Y-84542224D01*
X171014199Y-84464500D01*
X170615801Y-84464500D01*
X170225059Y-84542224D01*
X169856987Y-84694684D01*
X169525731Y-84916022D01*
X169244022Y-85197731D01*
X169022684Y-85528987D01*
X168870224Y-85897059D01*
X168792500Y-86287801D01*
X168792500Y-86686199D01*
X168870224Y-87076941D01*
X169022684Y-87445013D01*
X169244022Y-87776269D01*
X169525731Y-88057978D01*
X169856987Y-88279316D01*
X170225059Y-88431776D01*
X170615801Y-88509500D01*
X171014199Y-88509500D01*
X171404941Y-88431776D01*
X171773013Y-88279316D01*
X172104269Y-88057978D01*
X172385978Y-87776269D01*
X172568001Y-87503852D01*
X172568001Y-92681147D01*
X172385978Y-92408731D01*
X172104269Y-92127022D01*
X171773013Y-91905684D01*
X171404941Y-91753224D01*
X171014199Y-91675500D01*
X170615801Y-91675500D01*
X170225059Y-91753224D01*
X169856987Y-91905684D01*
X169525731Y-92127022D01*
X169244022Y-92408731D01*
X169022684Y-92739987D01*
X168870224Y-93108059D01*
X168792500Y-93498801D01*
X168792500Y-93897199D01*
X168870224Y-94287941D01*
X169022684Y-94656013D01*
X169244022Y-94987269D01*
X169525731Y-95268978D01*
X169856987Y-95490316D01*
X170225059Y-95642776D01*
X170615801Y-95720500D01*
X171014199Y-95720500D01*
X171404941Y-95642776D01*
X171773013Y-95490316D01*
X172104269Y-95268978D01*
X172385978Y-94987269D01*
X172568001Y-94714853D01*
X172568000Y-98551147D01*
X172385978Y-98278731D01*
X172104269Y-97997022D01*
X171773013Y-97775684D01*
X171404941Y-97623224D01*
X171014199Y-97545500D01*
X170615801Y-97545500D01*
X170225059Y-97623224D01*
X169856987Y-97775684D01*
X169525731Y-97997022D01*
X169244022Y-98278731D01*
X169022684Y-98609987D01*
X168870224Y-98978059D01*
X168792500Y-99368801D01*
X168792500Y-99767199D01*
X168870224Y-100157941D01*
X169022684Y-100526013D01*
X169244022Y-100857269D01*
X169525731Y-101138978D01*
X169856987Y-101360316D01*
X170225059Y-101512776D01*
X170615801Y-101590500D01*
X171014199Y-101590500D01*
X171404941Y-101512776D01*
X171773013Y-101360316D01*
X172104269Y-101138978D01*
X172385978Y-100857269D01*
X172568000Y-100584853D01*
X172568000Y-105762147D01*
X172385978Y-105489731D01*
X172104269Y-105208022D01*
X171773013Y-104986684D01*
X171404941Y-104834224D01*
X171014199Y-104756500D01*
X170615801Y-104756500D01*
X170225059Y-104834224D01*
X169856987Y-104986684D01*
X169525731Y-105208022D01*
X169244022Y-105489731D01*
X169022684Y-105820987D01*
X168870224Y-106189059D01*
X168792500Y-106579801D01*
X168792500Y-106978199D01*
X168870224Y-107368941D01*
X169022684Y-107737013D01*
X169244022Y-108068269D01*
X169525731Y-108349978D01*
X169856987Y-108571316D01*
X170225059Y-108723776D01*
X170615801Y-108801500D01*
X171014199Y-108801500D01*
X171404941Y-108723776D01*
X171773013Y-108571316D01*
X172104269Y-108349978D01*
X172385978Y-108068269D01*
X172568000Y-107795853D01*
X172568000Y-111632147D01*
X172385978Y-111359731D01*
X172104269Y-111078022D01*
X171773013Y-110856684D01*
X171404941Y-110704224D01*
X171014199Y-110626500D01*
X170615801Y-110626500D01*
X170225059Y-110704224D01*
X169856987Y-110856684D01*
X169525731Y-111078022D01*
X169244022Y-111359731D01*
X169022684Y-111690987D01*
X168870224Y-112059059D01*
X168792500Y-112449801D01*
X168792500Y-112848199D01*
X168870224Y-113238941D01*
X169022684Y-113607013D01*
X169244022Y-113938269D01*
X169525731Y-114219978D01*
X169856987Y-114441316D01*
X170225059Y-114593776D01*
X170615801Y-114671500D01*
X171014199Y-114671500D01*
X171404941Y-114593776D01*
X171773013Y-114441316D01*
X172104269Y-114219978D01*
X172385978Y-113938269D01*
X172568000Y-113665853D01*
X172568000Y-116942000D01*
X168716855Y-116942000D01*
X168786086Y-116838389D01*
X168856568Y-116668229D01*
X168892500Y-116487589D01*
X168892500Y-116303411D01*
X168856568Y-116122771D01*
X168786086Y-115952611D01*
X168683762Y-115799472D01*
X168553528Y-115669238D01*
X168400389Y-115566914D01*
X168230229Y-115496432D01*
X168049589Y-115460500D01*
X167865411Y-115460500D01*
X167684771Y-115496432D01*
X167514611Y-115566914D01*
X167361472Y-115669238D01*
X167231238Y-115799472D01*
X167195500Y-115852958D01*
X167159762Y-115799472D01*
X167029528Y-115669238D01*
X166876389Y-115566914D01*
X166706229Y-115496432D01*
X166525589Y-115460500D01*
X166341411Y-115460500D01*
X166160771Y-115496432D01*
X165990611Y-115566914D01*
X165837472Y-115669238D01*
X165707238Y-115799472D01*
X165604914Y-115952611D01*
X165534432Y-116122771D01*
X165498500Y-116303411D01*
X165498500Y-116487589D01*
X165534432Y-116668229D01*
X165604914Y-116838389D01*
X165674145Y-116942000D01*
X156210000Y-116942000D01*
X156210000Y-112449801D01*
X162922500Y-112449801D01*
X162922500Y-112848199D01*
X163000224Y-113238941D01*
X163152684Y-113607013D01*
X163374022Y-113938269D01*
X163655731Y-114219978D01*
X163986987Y-114441316D01*
X164355059Y-114593776D01*
X164745801Y-114671500D01*
X165144199Y-114671500D01*
X165534941Y-114593776D01*
X165903013Y-114441316D01*
X166234269Y-114219978D01*
X166515978Y-113938269D01*
X166737316Y-113607013D01*
X166889776Y-113238941D01*
X166967500Y-112848199D01*
X166967500Y-112449801D01*
X166889776Y-112059059D01*
X166737316Y-111690987D01*
X166515978Y-111359731D01*
X166234269Y-111078022D01*
X165903013Y-110856684D01*
X165534941Y-110704224D01*
X165144199Y-110626500D01*
X164745801Y-110626500D01*
X164355059Y-110704224D01*
X163986987Y-110856684D01*
X163655731Y-111078022D01*
X163374022Y-111359731D01*
X163152684Y-111690987D01*
X163000224Y-112059059D01*
X162922500Y-112449801D01*
X156210000Y-112449801D01*
X156210000Y-109528344D01*
X165995000Y-109528344D01*
X165995000Y-109899656D01*
X166067439Y-110263834D01*
X166209534Y-110606882D01*
X166415825Y-110915618D01*
X166678382Y-111178175D01*
X166987118Y-111384466D01*
X167330166Y-111526561D01*
X167694344Y-111599000D01*
X168065656Y-111599000D01*
X168429834Y-111526561D01*
X168772882Y-111384466D01*
X169081618Y-111178175D01*
X169344175Y-110915618D01*
X169550466Y-110606882D01*
X169692561Y-110263834D01*
X169765000Y-109899656D01*
X169765000Y-109528344D01*
X169692561Y-109164166D01*
X169550466Y-108821118D01*
X169344175Y-108512382D01*
X169081618Y-108249825D01*
X168772882Y-108043534D01*
X168429834Y-107901439D01*
X168065656Y-107829000D01*
X167694344Y-107829000D01*
X167330166Y-107901439D01*
X166987118Y-108043534D01*
X166678382Y-108249825D01*
X166415825Y-108512382D01*
X166209534Y-108821118D01*
X166067439Y-109164166D01*
X165995000Y-109528344D01*
X156210000Y-109528344D01*
X156210000Y-106579801D01*
X162922500Y-106579801D01*
X162922500Y-106978199D01*
X163000224Y-107368941D01*
X163152684Y-107737013D01*
X163374022Y-108068269D01*
X163655731Y-108349978D01*
X163986987Y-108571316D01*
X164355059Y-108723776D01*
X164745801Y-108801500D01*
X165144199Y-108801500D01*
X165534941Y-108723776D01*
X165903013Y-108571316D01*
X166234269Y-108349978D01*
X166515978Y-108068269D01*
X166737316Y-107737013D01*
X166889776Y-107368941D01*
X166967500Y-106978199D01*
X166967500Y-106579801D01*
X166889776Y-106189059D01*
X166737316Y-105820987D01*
X166515978Y-105489731D01*
X166234269Y-105208022D01*
X165903013Y-104986684D01*
X165534941Y-104834224D01*
X165144199Y-104756500D01*
X164745801Y-104756500D01*
X164355059Y-104834224D01*
X163986987Y-104986684D01*
X163655731Y-105208022D01*
X163374022Y-105489731D01*
X163152684Y-105820987D01*
X163000224Y-106189059D01*
X162922500Y-106579801D01*
X156210000Y-106579801D01*
X156210000Y-104292061D01*
X161144000Y-104292061D01*
X161144000Y-104495939D01*
X161183774Y-104695898D01*
X161261795Y-104884256D01*
X161375063Y-105053774D01*
X161519226Y-105197937D01*
X161688744Y-105311205D01*
X161877102Y-105389226D01*
X162077061Y-105429000D01*
X162280939Y-105429000D01*
X162480898Y-105389226D01*
X162669256Y-105311205D01*
X162838774Y-105197937D01*
X162982937Y-105053774D01*
X163096205Y-104884256D01*
X163174226Y-104695898D01*
X163214000Y-104495939D01*
X163214000Y-104292061D01*
X163174226Y-104092102D01*
X163096205Y-103903744D01*
X162982937Y-103734226D01*
X162838774Y-103590063D01*
X162669256Y-103476795D01*
X162480898Y-103398774D01*
X162280939Y-103359000D01*
X162077061Y-103359000D01*
X161877102Y-103398774D01*
X161688744Y-103476795D01*
X161519226Y-103590063D01*
X161375063Y-103734226D01*
X161261795Y-103903744D01*
X161183774Y-104092102D01*
X161144000Y-104292061D01*
X156210000Y-104292061D01*
X156210000Y-103349411D01*
X165435000Y-103349411D01*
X165435000Y-103533589D01*
X165470932Y-103714229D01*
X165541414Y-103884389D01*
X165643738Y-104037528D01*
X165773972Y-104167762D01*
X165927111Y-104270086D01*
X166097271Y-104340568D01*
X166277911Y-104376500D01*
X166462089Y-104376500D01*
X166642729Y-104340568D01*
X166812889Y-104270086D01*
X166966028Y-104167762D01*
X167096262Y-104037528D01*
X167163749Y-103936526D01*
X167231238Y-104037530D01*
X167361472Y-104167764D01*
X167514611Y-104270088D01*
X167684771Y-104340570D01*
X167865411Y-104376502D01*
X168049589Y-104376502D01*
X168230229Y-104340570D01*
X168400389Y-104270088D01*
X168553528Y-104167764D01*
X168683762Y-104037530D01*
X168786086Y-103884391D01*
X168856568Y-103714231D01*
X168892500Y-103533591D01*
X168892500Y-103349413D01*
X168856568Y-103168773D01*
X168786086Y-102998613D01*
X168683762Y-102845474D01*
X168553528Y-102715240D01*
X168400389Y-102612916D01*
X168230229Y-102542434D01*
X168049589Y-102506502D01*
X167865411Y-102506502D01*
X167684771Y-102542434D01*
X167514611Y-102612916D01*
X167361472Y-102715240D01*
X167231238Y-102845474D01*
X167163751Y-102946476D01*
X167096262Y-102845472D01*
X166966028Y-102715238D01*
X166812889Y-102612914D01*
X166642729Y-102542432D01*
X166462089Y-102506500D01*
X166277911Y-102506500D01*
X166097271Y-102542432D01*
X165927111Y-102612914D01*
X165773972Y-102715238D01*
X165643738Y-102845472D01*
X165541414Y-102998611D01*
X165470932Y-103168771D01*
X165435000Y-103349411D01*
X156210000Y-103349411D01*
X156210000Y-99368801D01*
X162922500Y-99368801D01*
X162922500Y-99767199D01*
X163000224Y-100157941D01*
X163152684Y-100526013D01*
X163374022Y-100857269D01*
X163655731Y-101138978D01*
X163986987Y-101360316D01*
X164355059Y-101512776D01*
X164745801Y-101590500D01*
X165144199Y-101590500D01*
X165534941Y-101512776D01*
X165903013Y-101360316D01*
X166234269Y-101138978D01*
X166515978Y-100857269D01*
X166737316Y-100526013D01*
X166889776Y-100157941D01*
X166967500Y-99767199D01*
X166967500Y-99368801D01*
X166889776Y-98978059D01*
X166737316Y-98609987D01*
X166515978Y-98278731D01*
X166234269Y-97997022D01*
X165903013Y-97775684D01*
X165534941Y-97623224D01*
X165144199Y-97545500D01*
X164745801Y-97545500D01*
X164355059Y-97623224D01*
X163986987Y-97775684D01*
X163655731Y-97997022D01*
X163374022Y-98278731D01*
X163152684Y-98609987D01*
X163000224Y-98978059D01*
X162922500Y-99368801D01*
X156210000Y-99368801D01*
X156210000Y-97570911D01*
X156735498Y-97570911D01*
X156735498Y-97755089D01*
X156771430Y-97935729D01*
X156841912Y-98105889D01*
X156944236Y-98259028D01*
X157074470Y-98389262D01*
X157227609Y-98491586D01*
X157397769Y-98562068D01*
X157578409Y-98598000D01*
X157762587Y-98598000D01*
X157943227Y-98562068D01*
X158113387Y-98491586D01*
X158266526Y-98389262D01*
X158396760Y-98259028D01*
X158499084Y-98105889D01*
X158569566Y-97935729D01*
X158605498Y-97755089D01*
X158605498Y-97570911D01*
X160228000Y-97570911D01*
X160228000Y-97755089D01*
X160263932Y-97935729D01*
X160334414Y-98105889D01*
X160436738Y-98259028D01*
X160566972Y-98389262D01*
X160720111Y-98491586D01*
X160890271Y-98562068D01*
X161070911Y-98598000D01*
X161255089Y-98598000D01*
X161435729Y-98562068D01*
X161605889Y-98491586D01*
X161759028Y-98389262D01*
X161889262Y-98259028D01*
X161991586Y-98105889D01*
X162062068Y-97935729D01*
X162098000Y-97755089D01*
X162098000Y-97570911D01*
X162062068Y-97390271D01*
X161991586Y-97220111D01*
X161889262Y-97066972D01*
X161759028Y-96936738D01*
X161605889Y-96834414D01*
X161435729Y-96763932D01*
X161255089Y-96728000D01*
X161070911Y-96728000D01*
X160890271Y-96763932D01*
X160720111Y-96834414D01*
X160566972Y-96936738D01*
X160436738Y-97066972D01*
X160334414Y-97220111D01*
X160263932Y-97390271D01*
X160228000Y-97570911D01*
X158605498Y-97570911D01*
X158569566Y-97390271D01*
X158499084Y-97220111D01*
X158396760Y-97066972D01*
X158266526Y-96936738D01*
X158113387Y-96834414D01*
X157943227Y-96763932D01*
X157762587Y-96728000D01*
X157578409Y-96728000D01*
X157397769Y-96763932D01*
X157227609Y-96834414D01*
X157074470Y-96936738D01*
X156944236Y-97066972D01*
X156841912Y-97220111D01*
X156771430Y-97390271D01*
X156735498Y-97570911D01*
X156210000Y-97570911D01*
X156210000Y-96447344D01*
X165995000Y-96447344D01*
X165995000Y-96818656D01*
X166067439Y-97182834D01*
X166209534Y-97525882D01*
X166415825Y-97834618D01*
X166678382Y-98097175D01*
X166987118Y-98303466D01*
X167330166Y-98445561D01*
X167694344Y-98518000D01*
X168065656Y-98518000D01*
X168429834Y-98445561D01*
X168772882Y-98303466D01*
X169081618Y-98097175D01*
X169344175Y-97834618D01*
X169550466Y-97525882D01*
X169692561Y-97182834D01*
X169765000Y-96818656D01*
X169765000Y-96447344D01*
X169692561Y-96083166D01*
X169550466Y-95740118D01*
X169344175Y-95431382D01*
X169081618Y-95168825D01*
X168772882Y-94962534D01*
X168429834Y-94820439D01*
X168065656Y-94748000D01*
X167694344Y-94748000D01*
X167330166Y-94820439D01*
X166987118Y-94962534D01*
X166678382Y-95168825D01*
X166415825Y-95431382D01*
X166209534Y-95740118D01*
X166067439Y-96083166D01*
X165995000Y-96447344D01*
X156210000Y-96447344D01*
X156210000Y-93498801D01*
X162922500Y-93498801D01*
X162922500Y-93897199D01*
X163000224Y-94287941D01*
X163152684Y-94656013D01*
X163374022Y-94987269D01*
X163655731Y-95268978D01*
X163986987Y-95490316D01*
X164355059Y-95642776D01*
X164745801Y-95720500D01*
X165144199Y-95720500D01*
X165534941Y-95642776D01*
X165903013Y-95490316D01*
X166234269Y-95268978D01*
X166515978Y-94987269D01*
X166737316Y-94656013D01*
X166889776Y-94287941D01*
X166967500Y-93897199D01*
X166967500Y-93498801D01*
X166889776Y-93108059D01*
X166737316Y-92739987D01*
X166515978Y-92408731D01*
X166234269Y-92127022D01*
X165903013Y-91905684D01*
X165534941Y-91753224D01*
X165144199Y-91675500D01*
X164745801Y-91675500D01*
X164355059Y-91753224D01*
X163986987Y-91905684D01*
X163655731Y-92127022D01*
X163374022Y-92408731D01*
X163152684Y-92739987D01*
X163000224Y-93108059D01*
X162922500Y-93498801D01*
X156210000Y-93498801D01*
X156210000Y-90830051D01*
X161144000Y-90830051D01*
X161144000Y-91033929D01*
X161183774Y-91233888D01*
X161261795Y-91422246D01*
X161375063Y-91591764D01*
X161519226Y-91735927D01*
X161688744Y-91849195D01*
X161877102Y-91927216D01*
X162077061Y-91966990D01*
X162280939Y-91966990D01*
X162480898Y-91927216D01*
X162669256Y-91849195D01*
X162838774Y-91735927D01*
X162982937Y-91591764D01*
X163096205Y-91422246D01*
X163174226Y-91233888D01*
X163214000Y-91033929D01*
X163214000Y-90830051D01*
X163174226Y-90630092D01*
X163096205Y-90441734D01*
X162982937Y-90272216D01*
X162838774Y-90128053D01*
X162763743Y-90077919D01*
X165181000Y-90077919D01*
X165181000Y-90262097D01*
X165216932Y-90442737D01*
X165287414Y-90612897D01*
X165389738Y-90766036D01*
X165519972Y-90896270D01*
X165673111Y-90998594D01*
X165843271Y-91069076D01*
X166023911Y-91105008D01*
X166208089Y-91105008D01*
X166388729Y-91069076D01*
X166558889Y-90998594D01*
X166712028Y-90896270D01*
X166842262Y-90766036D01*
X166878003Y-90712546D01*
X166913738Y-90766028D01*
X167043972Y-90896262D01*
X167197111Y-90998586D01*
X167367271Y-91069068D01*
X167547911Y-91105000D01*
X167732089Y-91105000D01*
X167912729Y-91069068D01*
X168082889Y-90998586D01*
X168236028Y-90896262D01*
X168366262Y-90766028D01*
X168468586Y-90612889D01*
X168539068Y-90442729D01*
X168575000Y-90262089D01*
X168575000Y-90077911D01*
X168539068Y-89897271D01*
X168468586Y-89727111D01*
X168366262Y-89573972D01*
X168236028Y-89443738D01*
X168082889Y-89341414D01*
X167912729Y-89270932D01*
X167732089Y-89235000D01*
X167547911Y-89235000D01*
X167367271Y-89270932D01*
X167197111Y-89341414D01*
X167043972Y-89443738D01*
X166913738Y-89573972D01*
X166877997Y-89627462D01*
X166842262Y-89573980D01*
X166712028Y-89443746D01*
X166558889Y-89341422D01*
X166388729Y-89270940D01*
X166208089Y-89235008D01*
X166023911Y-89235008D01*
X165843271Y-89270940D01*
X165673111Y-89341422D01*
X165519972Y-89443746D01*
X165389738Y-89573980D01*
X165287414Y-89727119D01*
X165216932Y-89897279D01*
X165181000Y-90077919D01*
X162763743Y-90077919D01*
X162669256Y-90014785D01*
X162480898Y-89936764D01*
X162280939Y-89896990D01*
X162077061Y-89896990D01*
X161877102Y-89936764D01*
X161688744Y-90014785D01*
X161519226Y-90128053D01*
X161375063Y-90272216D01*
X161261795Y-90441734D01*
X161183774Y-90630092D01*
X161144000Y-90830051D01*
X156210000Y-90830051D01*
X156210000Y-88900000D01*
X156207560Y-88875224D01*
X156200333Y-88851399D01*
X156188597Y-88829443D01*
X156172803Y-88810197D01*
X156153557Y-88794403D01*
X156131601Y-88782667D01*
X156107776Y-88775440D01*
X156083000Y-88773000D01*
X141013036Y-88773000D01*
X140988729Y-88762932D01*
X140808089Y-88727000D01*
X140623911Y-88727000D01*
X140443271Y-88762932D01*
X140418964Y-88773000D01*
X121083606Y-88773000D01*
X118598407Y-86287801D01*
X162922500Y-86287801D01*
X162922500Y-86686199D01*
X163000224Y-87076941D01*
X163152684Y-87445013D01*
X163374022Y-87776269D01*
X163655731Y-88057978D01*
X163986987Y-88279316D01*
X164355059Y-88431776D01*
X164745801Y-88509500D01*
X165144199Y-88509500D01*
X165534941Y-88431776D01*
X165903013Y-88279316D01*
X166234269Y-88057978D01*
X166515978Y-87776269D01*
X166737316Y-87445013D01*
X166889776Y-87076941D01*
X166967500Y-86686199D01*
X166967500Y-86287801D01*
X166889776Y-85897059D01*
X166737316Y-85528987D01*
X166515978Y-85197731D01*
X166234269Y-84916022D01*
X165903013Y-84694684D01*
X165534941Y-84542224D01*
X165144199Y-84464500D01*
X164745801Y-84464500D01*
X164355059Y-84542224D01*
X163986987Y-84694684D01*
X163655731Y-84916022D01*
X163374022Y-85197731D01*
X163152684Y-85528987D01*
X163000224Y-85897059D01*
X162922500Y-86287801D01*
X118598407Y-86287801D01*
X116840000Y-84529394D01*
X116840000Y-79282911D01*
X125176000Y-79282911D01*
X125176000Y-79467089D01*
X125211932Y-79647729D01*
X125282414Y-79817889D01*
X125384738Y-79971028D01*
X125514972Y-80101262D01*
X125668111Y-80203586D01*
X125838271Y-80274068D01*
X126018911Y-80310000D01*
X126203089Y-80310000D01*
X126383729Y-80274068D01*
X126553889Y-80203586D01*
X126707028Y-80101262D01*
X126837262Y-79971028D01*
X126939586Y-79817889D01*
X127010068Y-79647729D01*
X127046000Y-79467089D01*
X127046000Y-79282911D01*
X127010068Y-79102271D01*
X126939586Y-78932111D01*
X126837262Y-78778972D01*
X126707028Y-78648738D01*
X126553889Y-78546414D01*
X126383729Y-78475932D01*
X126203089Y-78440000D01*
X126018911Y-78440000D01*
X125838271Y-78475932D01*
X125668111Y-78546414D01*
X125514972Y-78648738D01*
X125384738Y-78778972D01*
X125282414Y-78932111D01*
X125211932Y-79102271D01*
X125176000Y-79282911D01*
X116840000Y-79282911D01*
X116840000Y-78384000D01*
X139660215Y-78384000D01*
X139633414Y-78424111D01*
G37*
X139633414Y-78424111D02*
X139562932Y-78594271D01*
X139527000Y-78774911D01*
X139527000Y-78959089D01*
X139562932Y-79139729D01*
X139633414Y-79309889D01*
X139735738Y-79463028D01*
X139865972Y-79593262D01*
X140019111Y-79695586D01*
X140189271Y-79766068D01*
X140369911Y-79802000D01*
X140554089Y-79802000D01*
X140734729Y-79766068D01*
X140904889Y-79695586D01*
X141058028Y-79593262D01*
X141188262Y-79463028D01*
X141290586Y-79309889D01*
X141361068Y-79139729D01*
X141397000Y-78959089D01*
X141397000Y-78774911D01*
X141361068Y-78594271D01*
X141290586Y-78424111D01*
X141263785Y-78384000D01*
X151003000Y-78384000D01*
X151003000Y-78803500D01*
X151005440Y-78828276D01*
X151012667Y-78852101D01*
X151024403Y-78874057D01*
X151040197Y-78893303D01*
X151059443Y-78909097D01*
X151081399Y-78920833D01*
X151105224Y-78928060D01*
X151130000Y-78930500D01*
X151281692Y-78930500D01*
X151256878Y-78967637D01*
X151192049Y-79124147D01*
X151159000Y-79290297D01*
X151159000Y-79459703D01*
X151192049Y-79625853D01*
X151219655Y-79692500D01*
X151192049Y-79759147D01*
X151159000Y-79925297D01*
X151159000Y-80094703D01*
X151192049Y-80260853D01*
X151219655Y-80327500D01*
X151192049Y-80394147D01*
X151159000Y-80560297D01*
X151159000Y-80729703D01*
X151192049Y-80895853D01*
X151219655Y-80962500D01*
X151192049Y-81029147D01*
X151159000Y-81195297D01*
X151159000Y-81364703D01*
X151192049Y-81530853D01*
X151219655Y-81597500D01*
X151192049Y-81664147D01*
X151159000Y-81830297D01*
X151159000Y-81999703D01*
X151192049Y-82165853D01*
X151219655Y-82232500D01*
X151192049Y-82299147D01*
X151159000Y-82465297D01*
X151159000Y-82634703D01*
X151192049Y-82800853D01*
X151219655Y-82867500D01*
X151192049Y-82934147D01*
X151159000Y-83100297D01*
X151159000Y-83269703D01*
X151192049Y-83435853D01*
X151256878Y-83592363D01*
X151350995Y-83733218D01*
X151470782Y-83853005D01*
X151611637Y-83947122D01*
X151768147Y-84011951D01*
X151934297Y-84045000D01*
X152103703Y-84045000D01*
X152269853Y-84011951D01*
X152336500Y-83984345D01*
X152403147Y-84011951D01*
X152569297Y-84045000D01*
X152738703Y-84045000D01*
X152904853Y-84011951D01*
X152971500Y-83984345D01*
X153038147Y-84011951D01*
X153204297Y-84045000D01*
X153373703Y-84045000D01*
X153539853Y-84011951D01*
X153606500Y-83984345D01*
X153673147Y-84011951D01*
X153839297Y-84045000D01*
X154008703Y-84045000D01*
X154174853Y-84011951D01*
X154241500Y-83984345D01*
X154308147Y-84011951D01*
X154474297Y-84045000D01*
X154643703Y-84045000D01*
X154809853Y-84011951D01*
X154876500Y-83984345D01*
X154943147Y-84011951D01*
X155109297Y-84045000D01*
X155278703Y-84045000D01*
X155444853Y-84011951D01*
X155601363Y-83947122D01*
X155742218Y-83853005D01*
X155862005Y-83733218D01*
X155956122Y-83592363D01*
X156020951Y-83435853D01*
X156034777Y-83366344D01*
X165995000Y-83366344D01*
X165995000Y-83737656D01*
X166067439Y-84101834D01*
X166209534Y-84444882D01*
X166415825Y-84753618D01*
X166678382Y-85016175D01*
X166987118Y-85222466D01*
X167330166Y-85364561D01*
X167694344Y-85437000D01*
X168065656Y-85437000D01*
X168429834Y-85364561D01*
X168772882Y-85222466D01*
X169081618Y-85016175D01*
X169344175Y-84753618D01*
X169550466Y-84444882D01*
X169692561Y-84101834D01*
X169765000Y-83737656D01*
X169765000Y-83366344D01*
X169692561Y-83002166D01*
X169550466Y-82659118D01*
X169344175Y-82350382D01*
X169081618Y-82087825D01*
X168772882Y-81881534D01*
X168429834Y-81739439D01*
X168065656Y-81667000D01*
X167694344Y-81667000D01*
X167330166Y-81739439D01*
X166987118Y-81881534D01*
X166678382Y-82087825D01*
X166415825Y-82350382D01*
X166209534Y-82659118D01*
X166067439Y-83002166D01*
X165995000Y-83366344D01*
X156034777Y-83366344D01*
X156054000Y-83269703D01*
X156054000Y-83100297D01*
X156020951Y-82934147D01*
X155993345Y-82867500D01*
X156020951Y-82800853D01*
X156054000Y-82634703D01*
X156054000Y-82465297D01*
X156020951Y-82299147D01*
X155993345Y-82232500D01*
X156020951Y-82165853D01*
X156054000Y-81999703D01*
X156054000Y-81830297D01*
X156020951Y-81664147D01*
X155993345Y-81597500D01*
X156020951Y-81530853D01*
X156054000Y-81364703D01*
X156054000Y-81195297D01*
X156020951Y-81029147D01*
X155993345Y-80962500D01*
X156020951Y-80895853D01*
X156054000Y-80729703D01*
X156054000Y-80560297D01*
X156025657Y-80417801D01*
X162922500Y-80417801D01*
X162922500Y-80816199D01*
X163000224Y-81206941D01*
X163152684Y-81575013D01*
X163374022Y-81906269D01*
X163655731Y-82187978D01*
X163986987Y-82409316D01*
X164355059Y-82561776D01*
X164745801Y-82639500D01*
X165144199Y-82639500D01*
X165534941Y-82561776D01*
X165903013Y-82409316D01*
X166234269Y-82187978D01*
X166515978Y-81906269D01*
X166737316Y-81575013D01*
X166889776Y-81206941D01*
X166967500Y-80816199D01*
X166967500Y-80417801D01*
X166889776Y-80027059D01*
X166737316Y-79658987D01*
X166515978Y-79327731D01*
X166234269Y-79046022D01*
X165903013Y-78824684D01*
X165534941Y-78672224D01*
X165144199Y-78594500D01*
X164745801Y-78594500D01*
X164355059Y-78672224D01*
X163986987Y-78824684D01*
X163655731Y-79046022D01*
X163374022Y-79327731D01*
X163152684Y-79658987D01*
X163000224Y-80027059D01*
X162922500Y-80417801D01*
X156025657Y-80417801D01*
X156020951Y-80394147D01*
X155993345Y-80327500D01*
X156020951Y-80260853D01*
X156054000Y-80094703D01*
X156054000Y-79925297D01*
X156020951Y-79759147D01*
X155993345Y-79692500D01*
X156020951Y-79625853D01*
X156054000Y-79459703D01*
X156054000Y-79290297D01*
X156020951Y-79124147D01*
X155956122Y-78967637D01*
X155862005Y-78826782D01*
X155829000Y-78793777D01*
X155829000Y-78384000D01*
X172568001Y-78384000D01*
X172568001Y-79600148D01*
X172385978Y-79327731D01*
X172104269Y-79046022D01*
X171773013Y-78824684D01*
X171404941Y-78672224D01*
X171014199Y-78594500D01*
X170615801Y-78594500D01*
X170225059Y-78672224D01*
X169856987Y-78824684D01*
X169525731Y-79046022D01*
X169244022Y-79327731D01*
X169022684Y-79658987D01*
X168870224Y-80027059D01*
X168792500Y-80417801D01*
X168792500Y-80816199D01*
X168870224Y-81206941D01*
X169022684Y-81575013D01*
X169244022Y-81906269D01*
X169525731Y-82187978D01*
X169856987Y-82409316D01*
X170225059Y-82561776D01*
X170615801Y-82639500D01*
X171014199Y-82639500D01*
X171404941Y-82561776D01*
X171773013Y-82409316D01*
X172104269Y-82187978D01*
X172385978Y-81906269D01*
X172568001Y-81633852D01*
X172568001Y-85470148D01*
X172385978Y-85197731D01*
X172104269Y-84916022D01*
X171773013Y-84694684D01*
X171404941Y-84542224D01*
X171014199Y-84464500D01*
X170615801Y-84464500D01*
X170225059Y-84542224D01*
X169856987Y-84694684D01*
X169525731Y-84916022D01*
X169244022Y-85197731D01*
X169022684Y-85528987D01*
X168870224Y-85897059D01*
X168792500Y-86287801D01*
X168792500Y-86686199D01*
X168870224Y-87076941D01*
X169022684Y-87445013D01*
X169244022Y-87776269D01*
X169525731Y-88057978D01*
X169856987Y-88279316D01*
X170225059Y-88431776D01*
X170615801Y-88509500D01*
X171014199Y-88509500D01*
X171404941Y-88431776D01*
X171773013Y-88279316D01*
X172104269Y-88057978D01*
X172385978Y-87776269D01*
X172568001Y-87503852D01*
X172568001Y-92681147D01*
X172385978Y-92408731D01*
X172104269Y-92127022D01*
X171773013Y-91905684D01*
X171404941Y-91753224D01*
X171014199Y-91675500D01*
X170615801Y-91675500D01*
X170225059Y-91753224D01*
X169856987Y-91905684D01*
X169525731Y-92127022D01*
X169244022Y-92408731D01*
X169022684Y-92739987D01*
X168870224Y-93108059D01*
X168792500Y-93498801D01*
X168792500Y-93897199D01*
X168870224Y-94287941D01*
X169022684Y-94656013D01*
X169244022Y-94987269D01*
X169525731Y-95268978D01*
X169856987Y-95490316D01*
X170225059Y-95642776D01*
X170615801Y-95720500D01*
X171014199Y-95720500D01*
X171404941Y-95642776D01*
X171773013Y-95490316D01*
X172104269Y-95268978D01*
X172385978Y-94987269D01*
X172568001Y-94714853D01*
X172568000Y-98551147D01*
X172385978Y-98278731D01*
X172104269Y-97997022D01*
X171773013Y-97775684D01*
X171404941Y-97623224D01*
X171014199Y-97545500D01*
X170615801Y-97545500D01*
X170225059Y-97623224D01*
X169856987Y-97775684D01*
X169525731Y-97997022D01*
X169244022Y-98278731D01*
X169022684Y-98609987D01*
X168870224Y-98978059D01*
X168792500Y-99368801D01*
X168792500Y-99767199D01*
X168870224Y-100157941D01*
X169022684Y-100526013D01*
X169244022Y-100857269D01*
X169525731Y-101138978D01*
X169856987Y-101360316D01*
X170225059Y-101512776D01*
X170615801Y-101590500D01*
X171014199Y-101590500D01*
X171404941Y-101512776D01*
X171773013Y-101360316D01*
X172104269Y-101138978D01*
X172385978Y-100857269D01*
X172568000Y-100584853D01*
X172568000Y-105762147D01*
X172385978Y-105489731D01*
X172104269Y-105208022D01*
X171773013Y-104986684D01*
X171404941Y-104834224D01*
X171014199Y-104756500D01*
X170615801Y-104756500D01*
X170225059Y-104834224D01*
X169856987Y-104986684D01*
X169525731Y-105208022D01*
X169244022Y-105489731D01*
X169022684Y-105820987D01*
X168870224Y-106189059D01*
X168792500Y-106579801D01*
X168792500Y-106978199D01*
X168870224Y-107368941D01*
X169022684Y-107737013D01*
X169244022Y-108068269D01*
X169525731Y-108349978D01*
X169856987Y-108571316D01*
X170225059Y-108723776D01*
X170615801Y-108801500D01*
X171014199Y-108801500D01*
X171404941Y-108723776D01*
X171773013Y-108571316D01*
X172104269Y-108349978D01*
X172385978Y-108068269D01*
X172568000Y-107795853D01*
X172568000Y-111632147D01*
X172385978Y-111359731D01*
X172104269Y-111078022D01*
X171773013Y-110856684D01*
X171404941Y-110704224D01*
X171014199Y-110626500D01*
X170615801Y-110626500D01*
X170225059Y-110704224D01*
X169856987Y-110856684D01*
X169525731Y-111078022D01*
X169244022Y-111359731D01*
X169022684Y-111690987D01*
X168870224Y-112059059D01*
X168792500Y-112449801D01*
X168792500Y-112848199D01*
X168870224Y-113238941D01*
X169022684Y-113607013D01*
X169244022Y-113938269D01*
X169525731Y-114219978D01*
X169856987Y-114441316D01*
X170225059Y-114593776D01*
X170615801Y-114671500D01*
X171014199Y-114671500D01*
X171404941Y-114593776D01*
X171773013Y-114441316D01*
X172104269Y-114219978D01*
X172385978Y-113938269D01*
X172568000Y-113665853D01*
X172568000Y-116942000D01*
X168716855Y-116942000D01*
X168786086Y-116838389D01*
X168856568Y-116668229D01*
X168892500Y-116487589D01*
X168892500Y-116303411D01*
X168856568Y-116122771D01*
X168786086Y-115952611D01*
X168683762Y-115799472D01*
X168553528Y-115669238D01*
X168400389Y-115566914D01*
X168230229Y-115496432D01*
X168049589Y-115460500D01*
X167865411Y-115460500D01*
X167684771Y-115496432D01*
X167514611Y-115566914D01*
X167361472Y-115669238D01*
X167231238Y-115799472D01*
X167195500Y-115852958D01*
X167159762Y-115799472D01*
X167029528Y-115669238D01*
X166876389Y-115566914D01*
X166706229Y-115496432D01*
X166525589Y-115460500D01*
X166341411Y-115460500D01*
X166160771Y-115496432D01*
X165990611Y-115566914D01*
X165837472Y-115669238D01*
X165707238Y-115799472D01*
X165604914Y-115952611D01*
X165534432Y-116122771D01*
X165498500Y-116303411D01*
X165498500Y-116487589D01*
X165534432Y-116668229D01*
X165604914Y-116838389D01*
X165674145Y-116942000D01*
X156210000Y-116942000D01*
X156210000Y-112449801D01*
X162922500Y-112449801D01*
X162922500Y-112848199D01*
X163000224Y-113238941D01*
X163152684Y-113607013D01*
X163374022Y-113938269D01*
X163655731Y-114219978D01*
X163986987Y-114441316D01*
X164355059Y-114593776D01*
X164745801Y-114671500D01*
X165144199Y-114671500D01*
X165534941Y-114593776D01*
X165903013Y-114441316D01*
X166234269Y-114219978D01*
X166515978Y-113938269D01*
X166737316Y-113607013D01*
X166889776Y-113238941D01*
X166967500Y-112848199D01*
X166967500Y-112449801D01*
X166889776Y-112059059D01*
X166737316Y-111690987D01*
X166515978Y-111359731D01*
X166234269Y-111078022D01*
X165903013Y-110856684D01*
X165534941Y-110704224D01*
X165144199Y-110626500D01*
X164745801Y-110626500D01*
X164355059Y-110704224D01*
X163986987Y-110856684D01*
X163655731Y-111078022D01*
X163374022Y-111359731D01*
X163152684Y-111690987D01*
X163000224Y-112059059D01*
X162922500Y-112449801D01*
X156210000Y-112449801D01*
X156210000Y-109528344D01*
X165995000Y-109528344D01*
X165995000Y-109899656D01*
X166067439Y-110263834D01*
X166209534Y-110606882D01*
X166415825Y-110915618D01*
X166678382Y-111178175D01*
X166987118Y-111384466D01*
X167330166Y-111526561D01*
X167694344Y-111599000D01*
X168065656Y-111599000D01*
X168429834Y-111526561D01*
X168772882Y-111384466D01*
X169081618Y-111178175D01*
X169344175Y-110915618D01*
X169550466Y-110606882D01*
X169692561Y-110263834D01*
X169765000Y-109899656D01*
X169765000Y-109528344D01*
X169692561Y-109164166D01*
X169550466Y-108821118D01*
X169344175Y-108512382D01*
X169081618Y-108249825D01*
X168772882Y-108043534D01*
X168429834Y-107901439D01*
X168065656Y-107829000D01*
X167694344Y-107829000D01*
X167330166Y-107901439D01*
X166987118Y-108043534D01*
X166678382Y-108249825D01*
X166415825Y-108512382D01*
X166209534Y-108821118D01*
X166067439Y-109164166D01*
X165995000Y-109528344D01*
X156210000Y-109528344D01*
X156210000Y-106579801D01*
X162922500Y-106579801D01*
X162922500Y-106978199D01*
X163000224Y-107368941D01*
X163152684Y-107737013D01*
X163374022Y-108068269D01*
X163655731Y-108349978D01*
X163986987Y-108571316D01*
X164355059Y-108723776D01*
X164745801Y-108801500D01*
X165144199Y-108801500D01*
X165534941Y-108723776D01*
X165903013Y-108571316D01*
X166234269Y-108349978D01*
X166515978Y-108068269D01*
X166737316Y-107737013D01*
X166889776Y-107368941D01*
X166967500Y-106978199D01*
X166967500Y-106579801D01*
X166889776Y-106189059D01*
X166737316Y-105820987D01*
X166515978Y-105489731D01*
X166234269Y-105208022D01*
X165903013Y-104986684D01*
X165534941Y-104834224D01*
X165144199Y-104756500D01*
X164745801Y-104756500D01*
X164355059Y-104834224D01*
X163986987Y-104986684D01*
X163655731Y-105208022D01*
X163374022Y-105489731D01*
X163152684Y-105820987D01*
X163000224Y-106189059D01*
X162922500Y-106579801D01*
X156210000Y-106579801D01*
X156210000Y-104292061D01*
X161144000Y-104292061D01*
X161144000Y-104495939D01*
X161183774Y-104695898D01*
X161261795Y-104884256D01*
X161375063Y-105053774D01*
X161519226Y-105197937D01*
X161688744Y-105311205D01*
X161877102Y-105389226D01*
X162077061Y-105429000D01*
X162280939Y-105429000D01*
X162480898Y-105389226D01*
X162669256Y-105311205D01*
X162838774Y-105197937D01*
X162982937Y-105053774D01*
X163096205Y-104884256D01*
X163174226Y-104695898D01*
X163214000Y-104495939D01*
X163214000Y-104292061D01*
X163174226Y-104092102D01*
X163096205Y-103903744D01*
X162982937Y-103734226D01*
X162838774Y-103590063D01*
X162669256Y-103476795D01*
X162480898Y-103398774D01*
X162280939Y-103359000D01*
X162077061Y-103359000D01*
X161877102Y-103398774D01*
X161688744Y-103476795D01*
X161519226Y-103590063D01*
X161375063Y-103734226D01*
X161261795Y-103903744D01*
X161183774Y-104092102D01*
X161144000Y-104292061D01*
X156210000Y-104292061D01*
X156210000Y-103349411D01*
X165435000Y-103349411D01*
X165435000Y-103533589D01*
X165470932Y-103714229D01*
X165541414Y-103884389D01*
X165643738Y-104037528D01*
X165773972Y-104167762D01*
X165927111Y-104270086D01*
X166097271Y-104340568D01*
X166277911Y-104376500D01*
X166462089Y-104376500D01*
X166642729Y-104340568D01*
X166812889Y-104270086D01*
X166966028Y-104167762D01*
X167096262Y-104037528D01*
X167163749Y-103936526D01*
X167231238Y-104037530D01*
X167361472Y-104167764D01*
X167514611Y-104270088D01*
X167684771Y-104340570D01*
X167865411Y-104376502D01*
X168049589Y-104376502D01*
X168230229Y-104340570D01*
X168400389Y-104270088D01*
X168553528Y-104167764D01*
X168683762Y-104037530D01*
X168786086Y-103884391D01*
X168856568Y-103714231D01*
X168892500Y-103533591D01*
X168892500Y-103349413D01*
X168856568Y-103168773D01*
X168786086Y-102998613D01*
X168683762Y-102845474D01*
X168553528Y-102715240D01*
X168400389Y-102612916D01*
X168230229Y-102542434D01*
X168049589Y-102506502D01*
X167865411Y-102506502D01*
X167684771Y-102542434D01*
X167514611Y-102612916D01*
X167361472Y-102715240D01*
X167231238Y-102845474D01*
X167163751Y-102946476D01*
X167096262Y-102845472D01*
X166966028Y-102715238D01*
X166812889Y-102612914D01*
X166642729Y-102542432D01*
X166462089Y-102506500D01*
X166277911Y-102506500D01*
X166097271Y-102542432D01*
X165927111Y-102612914D01*
X165773972Y-102715238D01*
X165643738Y-102845472D01*
X165541414Y-102998611D01*
X165470932Y-103168771D01*
X165435000Y-103349411D01*
X156210000Y-103349411D01*
X156210000Y-99368801D01*
X162922500Y-99368801D01*
X162922500Y-99767199D01*
X163000224Y-100157941D01*
X163152684Y-100526013D01*
X163374022Y-100857269D01*
X163655731Y-101138978D01*
X163986987Y-101360316D01*
X164355059Y-101512776D01*
X164745801Y-101590500D01*
X165144199Y-101590500D01*
X165534941Y-101512776D01*
X165903013Y-101360316D01*
X166234269Y-101138978D01*
X166515978Y-100857269D01*
X166737316Y-100526013D01*
X166889776Y-100157941D01*
X166967500Y-99767199D01*
X166967500Y-99368801D01*
X166889776Y-98978059D01*
X166737316Y-98609987D01*
X166515978Y-98278731D01*
X166234269Y-97997022D01*
X165903013Y-97775684D01*
X165534941Y-97623224D01*
X165144199Y-97545500D01*
X164745801Y-97545500D01*
X164355059Y-97623224D01*
X163986987Y-97775684D01*
X163655731Y-97997022D01*
X163374022Y-98278731D01*
X163152684Y-98609987D01*
X163000224Y-98978059D01*
X162922500Y-99368801D01*
X156210000Y-99368801D01*
X156210000Y-97570911D01*
X156735498Y-97570911D01*
X156735498Y-97755089D01*
X156771430Y-97935729D01*
X156841912Y-98105889D01*
X156944236Y-98259028D01*
X157074470Y-98389262D01*
X157227609Y-98491586D01*
X157397769Y-98562068D01*
X157578409Y-98598000D01*
X157762587Y-98598000D01*
X157943227Y-98562068D01*
X158113387Y-98491586D01*
X158266526Y-98389262D01*
X158396760Y-98259028D01*
X158499084Y-98105889D01*
X158569566Y-97935729D01*
X158605498Y-97755089D01*
X158605498Y-97570911D01*
X160228000Y-97570911D01*
X160228000Y-97755089D01*
X160263932Y-97935729D01*
X160334414Y-98105889D01*
X160436738Y-98259028D01*
X160566972Y-98389262D01*
X160720111Y-98491586D01*
X160890271Y-98562068D01*
X161070911Y-98598000D01*
X161255089Y-98598000D01*
X161435729Y-98562068D01*
X161605889Y-98491586D01*
X161759028Y-98389262D01*
X161889262Y-98259028D01*
X161991586Y-98105889D01*
X162062068Y-97935729D01*
X162098000Y-97755089D01*
X162098000Y-97570911D01*
X162062068Y-97390271D01*
X161991586Y-97220111D01*
X161889262Y-97066972D01*
X161759028Y-96936738D01*
X161605889Y-96834414D01*
X161435729Y-96763932D01*
X161255089Y-96728000D01*
X161070911Y-96728000D01*
X160890271Y-96763932D01*
X160720111Y-96834414D01*
X160566972Y-96936738D01*
X160436738Y-97066972D01*
X160334414Y-97220111D01*
X160263932Y-97390271D01*
X160228000Y-97570911D01*
X158605498Y-97570911D01*
X158569566Y-97390271D01*
X158499084Y-97220111D01*
X158396760Y-97066972D01*
X158266526Y-96936738D01*
X158113387Y-96834414D01*
X157943227Y-96763932D01*
X157762587Y-96728000D01*
X157578409Y-96728000D01*
X157397769Y-96763932D01*
X157227609Y-96834414D01*
X157074470Y-96936738D01*
X156944236Y-97066972D01*
X156841912Y-97220111D01*
X156771430Y-97390271D01*
X156735498Y-97570911D01*
X156210000Y-97570911D01*
X156210000Y-96447344D01*
X165995000Y-96447344D01*
X165995000Y-96818656D01*
X166067439Y-97182834D01*
X166209534Y-97525882D01*
X166415825Y-97834618D01*
X166678382Y-98097175D01*
X166987118Y-98303466D01*
X167330166Y-98445561D01*
X167694344Y-98518000D01*
X168065656Y-98518000D01*
X168429834Y-98445561D01*
X168772882Y-98303466D01*
X169081618Y-98097175D01*
X169344175Y-97834618D01*
X169550466Y-97525882D01*
X169692561Y-97182834D01*
X169765000Y-96818656D01*
X169765000Y-96447344D01*
X169692561Y-96083166D01*
X169550466Y-95740118D01*
X169344175Y-95431382D01*
X169081618Y-95168825D01*
X168772882Y-94962534D01*
X168429834Y-94820439D01*
X168065656Y-94748000D01*
X167694344Y-94748000D01*
X167330166Y-94820439D01*
X166987118Y-94962534D01*
X166678382Y-95168825D01*
X166415825Y-95431382D01*
X166209534Y-95740118D01*
X166067439Y-96083166D01*
X165995000Y-96447344D01*
X156210000Y-96447344D01*
X156210000Y-93498801D01*
X162922500Y-93498801D01*
X162922500Y-93897199D01*
X163000224Y-94287941D01*
X163152684Y-94656013D01*
X163374022Y-94987269D01*
X163655731Y-95268978D01*
X163986987Y-95490316D01*
X164355059Y-95642776D01*
X164745801Y-95720500D01*
X165144199Y-95720500D01*
X165534941Y-95642776D01*
X165903013Y-95490316D01*
X166234269Y-95268978D01*
X166515978Y-94987269D01*
X166737316Y-94656013D01*
X166889776Y-94287941D01*
X166967500Y-93897199D01*
X166967500Y-93498801D01*
X166889776Y-93108059D01*
X166737316Y-92739987D01*
X166515978Y-92408731D01*
X166234269Y-92127022D01*
X165903013Y-91905684D01*
X165534941Y-91753224D01*
X165144199Y-91675500D01*
X164745801Y-91675500D01*
X164355059Y-91753224D01*
X163986987Y-91905684D01*
X163655731Y-92127022D01*
X163374022Y-92408731D01*
X163152684Y-92739987D01*
X163000224Y-93108059D01*
X162922500Y-93498801D01*
X156210000Y-93498801D01*
X156210000Y-90830051D01*
X161144000Y-90830051D01*
X161144000Y-91033929D01*
X161183774Y-91233888D01*
X161261795Y-91422246D01*
X161375063Y-91591764D01*
X161519226Y-91735927D01*
X161688744Y-91849195D01*
X161877102Y-91927216D01*
X162077061Y-91966990D01*
X162280939Y-91966990D01*
X162480898Y-91927216D01*
X162669256Y-91849195D01*
X162838774Y-91735927D01*
X162982937Y-91591764D01*
X163096205Y-91422246D01*
X163174226Y-91233888D01*
X163214000Y-91033929D01*
X163214000Y-90830051D01*
X163174226Y-90630092D01*
X163096205Y-90441734D01*
X162982937Y-90272216D01*
X162838774Y-90128053D01*
X162763743Y-90077919D01*
X165181000Y-90077919D01*
X165181000Y-90262097D01*
X165216932Y-90442737D01*
X165287414Y-90612897D01*
X165389738Y-90766036D01*
X165519972Y-90896270D01*
X165673111Y-90998594D01*
X165843271Y-91069076D01*
X166023911Y-91105008D01*
X166208089Y-91105008D01*
X166388729Y-91069076D01*
X166558889Y-90998594D01*
X166712028Y-90896270D01*
X166842262Y-90766036D01*
X166878003Y-90712546D01*
X166913738Y-90766028D01*
X167043972Y-90896262D01*
X167197111Y-90998586D01*
X167367271Y-91069068D01*
X167547911Y-91105000D01*
X167732089Y-91105000D01*
X167912729Y-91069068D01*
X168082889Y-90998586D01*
X168236028Y-90896262D01*
X168366262Y-90766028D01*
X168468586Y-90612889D01*
X168539068Y-90442729D01*
X168575000Y-90262089D01*
X168575000Y-90077911D01*
X168539068Y-89897271D01*
X168468586Y-89727111D01*
X168366262Y-89573972D01*
X168236028Y-89443738D01*
X168082889Y-89341414D01*
X167912729Y-89270932D01*
X167732089Y-89235000D01*
X167547911Y-89235000D01*
X167367271Y-89270932D01*
X167197111Y-89341414D01*
X167043972Y-89443738D01*
X166913738Y-89573972D01*
X166877997Y-89627462D01*
X166842262Y-89573980D01*
X166712028Y-89443746D01*
X166558889Y-89341422D01*
X166388729Y-89270940D01*
X166208089Y-89235008D01*
X166023911Y-89235008D01*
X165843271Y-89270940D01*
X165673111Y-89341422D01*
X165519972Y-89443746D01*
X165389738Y-89573980D01*
X165287414Y-89727119D01*
X165216932Y-89897279D01*
X165181000Y-90077919D01*
X162763743Y-90077919D01*
X162669256Y-90014785D01*
X162480898Y-89936764D01*
X162280939Y-89896990D01*
X162077061Y-89896990D01*
X161877102Y-89936764D01*
X161688744Y-90014785D01*
X161519226Y-90128053D01*
X161375063Y-90272216D01*
X161261795Y-90441734D01*
X161183774Y-90630092D01*
X161144000Y-90830051D01*
X156210000Y-90830051D01*
X156210000Y-88900000D01*
X156207560Y-88875224D01*
X156200333Y-88851399D01*
X156188597Y-88829443D01*
X156172803Y-88810197D01*
X156153557Y-88794403D01*
X156131601Y-88782667D01*
X156107776Y-88775440D01*
X156083000Y-88773000D01*
X141013036Y-88773000D01*
X140988729Y-88762932D01*
X140808089Y-88727000D01*
X140623911Y-88727000D01*
X140443271Y-88762932D01*
X140418964Y-88773000D01*
X121083606Y-88773000D01*
X118598407Y-86287801D01*
X162922500Y-86287801D01*
X162922500Y-86686199D01*
X163000224Y-87076941D01*
X163152684Y-87445013D01*
X163374022Y-87776269D01*
X163655731Y-88057978D01*
X163986987Y-88279316D01*
X164355059Y-88431776D01*
X164745801Y-88509500D01*
X165144199Y-88509500D01*
X165534941Y-88431776D01*
X165903013Y-88279316D01*
X166234269Y-88057978D01*
X166515978Y-87776269D01*
X166737316Y-87445013D01*
X166889776Y-87076941D01*
X166967500Y-86686199D01*
X166967500Y-86287801D01*
X166889776Y-85897059D01*
X166737316Y-85528987D01*
X166515978Y-85197731D01*
X166234269Y-84916022D01*
X165903013Y-84694684D01*
X165534941Y-84542224D01*
X165144199Y-84464500D01*
X164745801Y-84464500D01*
X164355059Y-84542224D01*
X163986987Y-84694684D01*
X163655731Y-84916022D01*
X163374022Y-85197731D01*
X163152684Y-85528987D01*
X163000224Y-85897059D01*
X162922500Y-86287801D01*
X118598407Y-86287801D01*
X116840000Y-84529394D01*
X116840000Y-79282911D01*
X125176000Y-79282911D01*
X125176000Y-79467089D01*
X125211932Y-79647729D01*
X125282414Y-79817889D01*
X125384738Y-79971028D01*
X125514972Y-80101262D01*
X125668111Y-80203586D01*
X125838271Y-80274068D01*
X126018911Y-80310000D01*
X126203089Y-80310000D01*
X126383729Y-80274068D01*
X126553889Y-80203586D01*
X126707028Y-80101262D01*
X126837262Y-79971028D01*
X126939586Y-79817889D01*
X127010068Y-79647729D01*
X127046000Y-79467089D01*
X127046000Y-79282911D01*
X127010068Y-79102271D01*
X126939586Y-78932111D01*
X126837262Y-78778972D01*
X126707028Y-78648738D01*
X126553889Y-78546414D01*
X126383729Y-78475932D01*
X126203089Y-78440000D01*
X126018911Y-78440000D01*
X125838271Y-78475932D01*
X125668111Y-78546414D01*
X125514972Y-78648738D01*
X125384738Y-78778972D01*
X125282414Y-78932111D01*
X125211932Y-79102271D01*
X125176000Y-79282911D01*
X116840000Y-79282911D01*
X116840000Y-78384000D01*
X139660215Y-78384000D01*
X139633414Y-78424111D01*
G36*
X112227782Y-83853005D02*
G01*
X112368637Y-83947122D01*
X112525147Y-84011951D01*
X112691297Y-84045000D01*
X112860703Y-84045000D01*
X113026853Y-84011951D01*
X113093500Y-83984345D01*
X113160147Y-84011951D01*
X113326297Y-84045000D01*
X113495703Y-84045000D01*
X113661853Y-84011951D01*
X113728500Y-83984345D01*
X113795147Y-84011951D01*
X113961297Y-84045000D01*
X114130703Y-84045000D01*
X114296853Y-84011951D01*
X114363500Y-83984345D01*
X114430147Y-84011951D01*
X114596297Y-84045000D01*
X114765703Y-84045000D01*
X114931853Y-84011951D01*
X114998500Y-83984345D01*
X115065147Y-84011951D01*
X115231297Y-84045000D01*
X115400703Y-84045000D01*
X115566853Y-84011951D01*
X115633500Y-83984345D01*
X115700147Y-84011951D01*
X115866297Y-84045000D01*
X116035703Y-84045000D01*
X116078000Y-84036587D01*
X116078000Y-84582000D01*
X116090201Y-84705882D01*
X116126336Y-84825004D01*
X116185017Y-84934787D01*
X116263987Y-85031013D01*
X120581987Y-89349013D01*
X120678213Y-89427983D01*
X120787996Y-89486664D01*
X120907118Y-89522799D01*
X121031000Y-89535000D01*
X123859779Y-89535000D01*
X123814932Y-89643271D01*
X123779000Y-89823911D01*
X123779000Y-90008089D01*
X123814932Y-90188729D01*
X123885414Y-90358889D01*
X123987738Y-90512028D01*
X124117972Y-90642262D01*
X124271111Y-90744586D01*
X124441271Y-90815068D01*
X124621911Y-90851000D01*
X124806089Y-90851000D01*
X124986729Y-90815068D01*
X125156889Y-90744586D01*
X125310028Y-90642262D01*
X125440262Y-90512028D01*
X125542586Y-90358889D01*
X125613068Y-90188729D01*
X125649000Y-90008089D01*
X125649000Y-89823911D01*
X125613068Y-89643271D01*
X125568221Y-89535000D01*
X139787944Y-89535000D01*
X139781000Y-89569911D01*
X139781000Y-89754089D01*
X139816932Y-89934729D01*
X139887414Y-90104889D01*
X139989738Y-90258028D01*
X140119972Y-90388262D01*
X140273111Y-90490586D01*
X140443271Y-90561068D01*
X140623911Y-90597000D01*
X140808089Y-90597000D01*
X140863836Y-90585911D01*
X142956000Y-90585911D01*
X142956000Y-90770089D01*
X142991932Y-90950729D01*
X143062414Y-91120889D01*
X143164738Y-91274028D01*
X143294972Y-91404262D01*
X143448111Y-91506586D01*
X143618271Y-91577068D01*
X143798911Y-91613000D01*
X143983089Y-91613000D01*
X144163729Y-91577068D01*
X144333889Y-91506586D01*
X144487028Y-91404262D01*
X144617262Y-91274028D01*
X144719586Y-91120889D01*
X144790068Y-90950729D01*
X144826000Y-90770089D01*
X144826000Y-90585911D01*
X144790068Y-90405271D01*
X144719586Y-90235111D01*
X144617262Y-90081972D01*
X144487028Y-89951738D01*
X144333889Y-89849414D01*
X144163729Y-89778932D01*
X143983089Y-89743000D01*
X143798911Y-89743000D01*
X143618271Y-89778932D01*
X143448111Y-89849414D01*
X143294972Y-89951738D01*
X143164738Y-90081972D01*
X143062414Y-90235111D01*
X142991932Y-90405271D01*
X142956000Y-90585911D01*
X140863836Y-90585911D01*
X140988729Y-90561068D01*
X141158889Y-90490586D01*
X141312028Y-90388262D01*
X141442262Y-90258028D01*
X141544586Y-90104889D01*
X141615068Y-89934729D01*
X141651000Y-89754089D01*
X141651000Y-89569911D01*
X141644056Y-89535000D01*
X151785817Y-89535000D01*
X151676972Y-89607728D01*
X151546738Y-89737962D01*
X151444414Y-89891101D01*
X151373932Y-90061261D01*
X151338000Y-90241901D01*
X151338000Y-90426079D01*
X151373932Y-90606719D01*
X151444414Y-90776879D01*
X151546738Y-90930018D01*
X151676972Y-91060252D01*
X151830111Y-91162576D01*
X151956675Y-91215000D01*
X151934297Y-91215000D01*
X151768147Y-91248049D01*
X151611637Y-91312878D01*
X151470782Y-91406995D01*
X151350995Y-91526782D01*
X151256878Y-91667637D01*
X151192049Y-91824147D01*
X151159000Y-91990297D01*
X151159000Y-92159703D01*
X151192049Y-92325853D01*
X151219655Y-92392500D01*
X151192049Y-92459147D01*
X151159000Y-92625297D01*
X151159000Y-92794703D01*
X151192049Y-92960853D01*
X151219655Y-93027500D01*
X151192049Y-93094147D01*
X151159000Y-93260297D01*
X151159000Y-93429703D01*
X151192049Y-93595853D01*
X151219655Y-93662500D01*
X151192049Y-93729147D01*
X151159000Y-93895297D01*
X151159000Y-94064703D01*
X151192049Y-94230853D01*
X151219655Y-94297500D01*
X151192049Y-94364147D01*
X151159000Y-94530297D01*
X151159000Y-94699703D01*
X151192049Y-94865853D01*
X151219655Y-94932500D01*
X151192049Y-94999147D01*
X151159000Y-95165297D01*
X151159000Y-95334703D01*
X151192049Y-95500853D01*
X151219655Y-95567500D01*
X151192049Y-95634147D01*
X151159000Y-95800297D01*
X151159000Y-95969703D01*
X151192049Y-96135853D01*
X151256878Y-96292363D01*
X151350995Y-96433218D01*
X151470782Y-96553005D01*
X151611637Y-96647122D01*
X151768147Y-96711951D01*
X151934297Y-96745000D01*
X152103703Y-96745000D01*
X152269853Y-96711951D01*
X152336500Y-96684345D01*
X152403147Y-96711951D01*
X152569297Y-96745000D01*
X152738703Y-96745000D01*
X152904853Y-96711951D01*
X152971500Y-96684345D01*
X153038147Y-96711951D01*
X153204297Y-96745000D01*
X153373703Y-96745000D01*
X153539853Y-96711951D01*
X153606500Y-96684345D01*
X153673147Y-96711951D01*
X153839297Y-96745000D01*
X154008703Y-96745000D01*
X154174853Y-96711951D01*
X154241500Y-96684345D01*
X154308147Y-96711951D01*
X154474297Y-96745000D01*
X154643703Y-96745000D01*
X154809853Y-96711951D01*
X154876500Y-96684345D01*
X154943147Y-96711951D01*
X155109297Y-96745000D01*
X155278703Y-96745000D01*
X155444853Y-96711951D01*
X155448000Y-96710647D01*
X155448000Y-104965353D01*
X155444853Y-104964049D01*
X155278703Y-104931000D01*
X155109297Y-104931000D01*
X154943147Y-104964049D01*
X154876500Y-104991655D01*
X154809853Y-104964049D01*
X154643703Y-104931000D01*
X154474297Y-104931000D01*
X154308147Y-104964049D01*
X154241500Y-104991655D01*
X154174853Y-104964049D01*
X154008703Y-104931000D01*
X153839297Y-104931000D01*
X153673147Y-104964049D01*
X153606500Y-104991655D01*
X153539853Y-104964049D01*
X153373703Y-104931000D01*
X153204297Y-104931000D01*
X153038147Y-104964049D01*
X152971500Y-104991655D01*
X152904853Y-104964049D01*
X152738703Y-104931000D01*
X152569297Y-104931000D01*
X152403147Y-104964049D01*
X152336500Y-104991655D01*
X152269853Y-104964049D01*
X152103703Y-104931000D01*
X151934297Y-104931000D01*
X151768147Y-104964049D01*
X151611637Y-105028878D01*
X151470782Y-105122995D01*
X151350995Y-105242782D01*
X151256878Y-105383637D01*
X151192049Y-105540147D01*
X151159000Y-105706297D01*
X151159000Y-105875703D01*
X151192049Y-106041853D01*
X151219655Y-106108500D01*
X151192049Y-106175147D01*
X151159000Y-106341297D01*
X151159000Y-106510703D01*
X151192049Y-106676853D01*
X151219655Y-106743500D01*
X151192049Y-106810147D01*
X151159000Y-106976297D01*
X151159000Y-107145703D01*
X151192049Y-107311853D01*
X151219655Y-107378500D01*
X151192049Y-107445147D01*
X151159000Y-107611297D01*
X151159000Y-107780703D01*
X151192049Y-107946853D01*
X151219655Y-108013500D01*
X151192049Y-108080147D01*
X151159000Y-108246297D01*
X151159000Y-108415703D01*
X151192049Y-108581853D01*
X151219655Y-108648500D01*
X151192049Y-108715147D01*
X151159000Y-108881297D01*
X151159000Y-109050703D01*
X151192049Y-109216853D01*
X151219655Y-109283500D01*
X151192049Y-109350147D01*
X151159000Y-109516297D01*
X151159000Y-109685703D01*
X151192049Y-109851853D01*
X151256878Y-110008363D01*
X151350995Y-110149218D01*
X151470782Y-110269005D01*
X151611637Y-110363122D01*
X151768147Y-110427951D01*
X151934297Y-110461000D01*
X152103703Y-110461000D01*
X152269853Y-110427951D01*
X152336500Y-110400345D01*
X152403147Y-110427951D01*
X152569297Y-110461000D01*
X152738703Y-110461000D01*
X152904853Y-110427951D01*
X152971500Y-110400345D01*
X153038147Y-110427951D01*
X153204297Y-110461000D01*
X153373703Y-110461000D01*
X153539853Y-110427951D01*
X153606500Y-110400345D01*
X153673147Y-110427951D01*
X153839297Y-110461000D01*
X154008703Y-110461000D01*
X154174853Y-110427951D01*
X154241500Y-110400345D01*
X154308147Y-110427951D01*
X154474297Y-110461000D01*
X154643703Y-110461000D01*
X154809853Y-110427951D01*
X154876500Y-110400345D01*
X154943147Y-110427951D01*
X155109297Y-110461000D01*
X155278703Y-110461000D01*
X155444853Y-110427951D01*
X155448000Y-110426647D01*
X155448000Y-116942000D01*
X123642957Y-116942000D01*
X123659028Y-116931262D01*
X123789262Y-116801028D01*
X123891586Y-116647889D01*
X123962068Y-116477729D01*
X123998000Y-116297089D01*
X123998000Y-116112911D01*
X123962068Y-115932271D01*
X123891586Y-115762111D01*
X123789262Y-115608972D01*
X123750290Y-115570000D01*
X123789262Y-115531028D01*
X123891586Y-115377889D01*
X123962068Y-115207729D01*
X123998000Y-115027089D01*
X123998000Y-114842911D01*
X123962068Y-114662271D01*
X123891586Y-114492111D01*
X123789262Y-114338972D01*
X123750290Y-114300000D01*
X123789262Y-114261028D01*
X123824753Y-114207911D01*
X130383000Y-114207911D01*
X130383000Y-114392089D01*
X130418932Y-114572729D01*
X130489414Y-114742889D01*
X130591738Y-114896028D01*
X130721972Y-115026262D01*
X130875111Y-115128586D01*
X131045271Y-115199068D01*
X131225911Y-115235000D01*
X131410089Y-115235000D01*
X131590729Y-115199068D01*
X131760889Y-115128586D01*
X131914028Y-115026262D01*
X132044262Y-114896028D01*
X132146586Y-114742889D01*
X132217068Y-114572729D01*
X132253000Y-114392089D01*
X132253000Y-114207911D01*
X132217068Y-114027271D01*
X132146586Y-113857111D01*
X132044262Y-113703972D01*
X131914028Y-113573738D01*
X131760889Y-113471414D01*
X131590729Y-113400932D01*
X131410089Y-113365000D01*
X131225911Y-113365000D01*
X131045271Y-113400932D01*
X130875111Y-113471414D01*
X130721972Y-113573738D01*
X130591738Y-113703972D01*
X130489414Y-113857111D01*
X130418932Y-114027271D01*
X130383000Y-114207911D01*
X123824753Y-114207911D01*
X123891586Y-114107889D01*
X123962068Y-113937729D01*
X123998000Y-113757089D01*
X123998000Y-113572911D01*
X123962068Y-113392271D01*
X123891586Y-113222111D01*
X123789262Y-113068972D01*
X123659028Y-112938738D01*
X123505889Y-112836414D01*
X123335729Y-112765932D01*
X123155089Y-112730000D01*
X122970911Y-112730000D01*
X122790271Y-112765932D01*
X122620111Y-112836414D01*
X122466972Y-112938738D01*
X122336738Y-113068972D01*
X122234414Y-113222111D01*
X122163932Y-113392271D01*
X122128000Y-113572911D01*
X122128000Y-113757089D01*
X122163932Y-113937729D01*
X122234414Y-114107889D01*
X122336738Y-114261028D01*
X122375710Y-114300000D01*
X122336738Y-114338972D01*
X122234414Y-114492111D01*
X122163932Y-114662271D01*
X122128000Y-114842911D01*
X122128000Y-115027089D01*
X122163932Y-115207729D01*
X122234414Y-115377889D01*
X122336738Y-115531028D01*
X122375710Y-115570000D01*
X122336738Y-115608972D01*
X122234414Y-115762111D01*
X122163932Y-115932271D01*
X122128000Y-116112911D01*
X122128000Y-116297089D01*
X122163932Y-116477729D01*
X122234414Y-116647889D01*
X122336738Y-116801028D01*
X122466972Y-116931262D01*
X122483043Y-116942000D01*
X120805854Y-116942000D01*
X121078269Y-116759978D01*
X121359978Y-116478269D01*
X121581316Y-116147013D01*
X121733776Y-115778941D01*
X121811500Y-115388199D01*
X121811500Y-114989801D01*
X121733776Y-114599059D01*
X121581316Y-114230987D01*
X121359978Y-113899731D01*
X121078269Y-113618022D01*
X120747013Y-113396684D01*
X120378941Y-113244224D01*
X119988199Y-113166500D01*
X119589801Y-113166500D01*
X119199059Y-113244224D01*
X118830987Y-113396684D01*
X118499731Y-113618022D01*
X118218022Y-113899731D01*
X117996684Y-114230987D01*
X117844224Y-114599059D01*
X117766500Y-114989801D01*
X117766500Y-115388199D01*
X117844224Y-115778941D01*
X117996684Y-116147013D01*
X118218022Y-116478269D01*
X118499731Y-116759978D01*
X118772146Y-116942000D01*
X114935854Y-116942000D01*
X115208269Y-116759978D01*
X115489978Y-116478269D01*
X115711316Y-116147013D01*
X115863776Y-115778941D01*
X115941500Y-115388199D01*
X115941500Y-114989801D01*
X115863776Y-114599059D01*
X115711316Y-114230987D01*
X115489978Y-113899731D01*
X115208269Y-113618022D01*
X114877013Y-113396684D01*
X114508941Y-113244224D01*
X114118199Y-113166500D01*
X113719801Y-113166500D01*
X113329059Y-113244224D01*
X112960987Y-113396684D01*
X112629731Y-113618022D01*
X112348022Y-113899731D01*
X112166000Y-114172146D01*
X112166000Y-112068344D01*
X114969000Y-112068344D01*
X114969000Y-112439656D01*
X115041439Y-112803834D01*
X115183534Y-113146882D01*
X115389825Y-113455618D01*
X115652382Y-113718175D01*
X115961118Y-113924466D01*
X116304166Y-114066561D01*
X116668344Y-114139000D01*
X117039656Y-114139000D01*
X117403834Y-114066561D01*
X117746882Y-113924466D01*
X118055618Y-113718175D01*
X118318175Y-113455618D01*
X118524466Y-113146882D01*
X118666561Y-112803834D01*
X118739000Y-112439656D01*
X118739000Y-112429911D01*
X133050000Y-112429911D01*
X133050000Y-112614089D01*
X133085932Y-112794729D01*
X133156414Y-112964889D01*
X133258738Y-113118028D01*
X133388972Y-113248262D01*
X133542111Y-113350586D01*
X133712271Y-113421068D01*
X133892911Y-113457000D01*
X134077089Y-113457000D01*
X134257729Y-113421068D01*
X134427889Y-113350586D01*
X134581028Y-113248262D01*
X134711262Y-113118028D01*
X134813586Y-112964889D01*
X134884068Y-112794729D01*
X134920000Y-112614089D01*
X134920000Y-112429911D01*
X136479000Y-112429911D01*
X136479000Y-112614089D01*
X136514932Y-112794729D01*
X136585414Y-112964889D01*
X136687738Y-113118028D01*
X136817972Y-113248262D01*
X136971111Y-113350586D01*
X137141271Y-113421068D01*
X137321911Y-113457000D01*
X137506089Y-113457000D01*
X137686729Y-113421068D01*
X137856889Y-113350586D01*
X138010028Y-113248262D01*
X138140262Y-113118028D01*
X138242586Y-112964889D01*
X138313068Y-112794729D01*
X138349000Y-112614089D01*
X138349000Y-112429911D01*
X138313068Y-112249271D01*
X138242586Y-112079111D01*
X138140262Y-111925972D01*
X138010028Y-111795738D01*
X138008791Y-111794911D01*
X139146000Y-111794911D01*
X139146000Y-111979089D01*
X139181932Y-112159729D01*
X139252414Y-112329889D01*
X139295920Y-112395000D01*
X139252414Y-112460111D01*
X139181932Y-112630271D01*
X139146000Y-112810911D01*
X139146000Y-112995089D01*
X139181932Y-113175729D01*
X139252414Y-113345889D01*
X139354738Y-113499028D01*
X139484972Y-113629262D01*
X139638111Y-113731586D01*
X139783964Y-113792000D01*
X139638111Y-113852414D01*
X139484972Y-113954738D01*
X139354738Y-114084972D01*
X139252414Y-114238111D01*
X139181932Y-114408271D01*
X139146000Y-114588911D01*
X139146000Y-114773089D01*
X139181932Y-114953729D01*
X139252414Y-115123889D01*
X139354738Y-115277028D01*
X139484972Y-115407262D01*
X139638111Y-115509586D01*
X139808271Y-115580068D01*
X139988911Y-115616000D01*
X140173089Y-115616000D01*
X140353729Y-115580068D01*
X140523889Y-115509586D01*
X140677028Y-115407262D01*
X140807262Y-115277028D01*
X140909586Y-115123889D01*
X140980068Y-114953729D01*
X141016000Y-114773089D01*
X141016000Y-114588911D01*
X140980068Y-114408271D01*
X140909586Y-114238111D01*
X140807262Y-114084972D01*
X140677028Y-113954738D01*
X140523889Y-113852414D01*
X140378036Y-113792000D01*
X140523889Y-113731586D01*
X140677028Y-113629262D01*
X140733379Y-113572911D01*
X147909000Y-113572911D01*
X147909000Y-113757089D01*
X147944932Y-113937729D01*
X148015414Y-114107889D01*
X148117738Y-114261028D01*
X148247972Y-114391262D01*
X148401111Y-114493586D01*
X148571271Y-114564068D01*
X148751911Y-114600000D01*
X148936089Y-114600000D01*
X149116729Y-114564068D01*
X149286889Y-114493586D01*
X149440028Y-114391262D01*
X149570262Y-114261028D01*
X149672586Y-114107889D01*
X149743068Y-113937729D01*
X149779000Y-113757089D01*
X149779000Y-113572911D01*
X149743068Y-113392271D01*
X149672586Y-113222111D01*
X149570262Y-113068972D01*
X149440028Y-112938738D01*
X149286889Y-112836414D01*
X149116729Y-112765932D01*
X148936089Y-112730000D01*
X148751911Y-112730000D01*
X148571271Y-112765932D01*
X148401111Y-112836414D01*
X148247972Y-112938738D01*
X148117738Y-113068972D01*
X148015414Y-113222111D01*
X147944932Y-113392271D01*
X147909000Y-113572911D01*
X140733379Y-113572911D01*
X140807262Y-113499028D01*
X140909586Y-113345889D01*
X140980068Y-113175729D01*
X141016000Y-112995089D01*
X141016000Y-112810911D01*
X140980068Y-112630271D01*
X140909586Y-112460111D01*
X140866080Y-112395000D01*
X140909586Y-112329889D01*
X140980068Y-112159729D01*
X141016000Y-111979089D01*
X141016000Y-111794911D01*
X140980068Y-111614271D01*
X140949682Y-111540911D01*
X149814000Y-111540911D01*
X149814000Y-111725089D01*
X149849932Y-111905729D01*
X149920414Y-112075889D01*
X150022738Y-112229028D01*
X150152972Y-112359262D01*
X150306111Y-112461586D01*
X150476271Y-112532068D01*
X150656911Y-112568000D01*
X150841089Y-112568000D01*
X151021729Y-112532068D01*
X151191889Y-112461586D01*
X151345028Y-112359262D01*
X151475262Y-112229028D01*
X151577586Y-112075889D01*
X151648068Y-111905729D01*
X151684000Y-111725089D01*
X151684000Y-111540911D01*
X151648068Y-111360271D01*
X151577586Y-111190111D01*
X151475262Y-111036972D01*
X151345028Y-110906738D01*
X151191889Y-110804414D01*
X151021729Y-110733932D01*
X150841089Y-110698000D01*
X150656911Y-110698000D01*
X150476271Y-110733932D01*
X150306111Y-110804414D01*
X150152972Y-110906738D01*
X150022738Y-111036972D01*
X149920414Y-111190111D01*
X149849932Y-111360271D01*
X149814000Y-111540911D01*
X140949682Y-111540911D01*
X140909586Y-111444111D01*
X140807262Y-111290972D01*
X140677028Y-111160738D01*
X140523889Y-111058414D01*
X140353729Y-110987932D01*
X140173089Y-110952000D01*
X139988911Y-110952000D01*
X139808271Y-110987932D01*
X139638111Y-111058414D01*
X139484972Y-111160738D01*
X139354738Y-111290972D01*
X139252414Y-111444111D01*
X139181932Y-111614271D01*
X139146000Y-111794911D01*
X138008791Y-111794911D01*
X137856889Y-111693414D01*
X137686729Y-111622932D01*
X137506089Y-111587000D01*
X137321911Y-111587000D01*
X137141271Y-111622932D01*
X136971111Y-111693414D01*
X136817972Y-111795738D01*
X136687738Y-111925972D01*
X136585414Y-112079111D01*
X136514932Y-112249271D01*
X136479000Y-112429911D01*
X134920000Y-112429911D01*
X134884068Y-112249271D01*
X134813586Y-112079111D01*
X134711262Y-111925972D01*
X134581028Y-111795738D01*
X134427889Y-111693414D01*
X134257729Y-111622932D01*
X134077089Y-111587000D01*
X133892911Y-111587000D01*
X133712271Y-111622932D01*
X133542111Y-111693414D01*
X133388972Y-111795738D01*
X133258738Y-111925972D01*
X133156414Y-112079111D01*
X133085932Y-112249271D01*
X133050000Y-112429911D01*
X118739000Y-112429911D01*
X118739000Y-112068344D01*
X118666561Y-111704166D01*
X118524466Y-111361118D01*
X118318175Y-111052382D01*
X118055618Y-110789825D01*
X117746882Y-110583534D01*
X117403834Y-110441439D01*
X117039656Y-110369000D01*
X116668344Y-110369000D01*
X116304166Y-110441439D01*
X115961118Y-110583534D01*
X115652382Y-110789825D01*
X115389825Y-111052382D01*
X115183534Y-111361118D01*
X115041439Y-111704166D01*
X114969000Y-112068344D01*
X112166000Y-112068344D01*
X112166000Y-110335854D01*
X112348022Y-110608269D01*
X112629731Y-110889978D01*
X112960987Y-111111316D01*
X113329059Y-111263776D01*
X113719801Y-111341500D01*
X114118199Y-111341500D01*
X114508941Y-111263776D01*
X114877013Y-111111316D01*
X115208269Y-110889978D01*
X115489978Y-110608269D01*
X115711316Y-110277013D01*
X115863776Y-109908941D01*
X115941500Y-109518199D01*
X115941500Y-109119801D01*
X117766500Y-109119801D01*
X117766500Y-109518199D01*
X117844224Y-109908941D01*
X117996684Y-110277013D01*
X118218022Y-110608269D01*
X118499731Y-110889978D01*
X118830987Y-111111316D01*
X119199059Y-111263776D01*
X119589801Y-111341500D01*
X119988199Y-111341500D01*
X120378941Y-111263776D01*
X120747013Y-111111316D01*
X121078269Y-110889978D01*
X121359978Y-110608269D01*
X121581316Y-110277013D01*
X121732152Y-109912861D01*
X136380052Y-109912861D01*
X136380052Y-110097039D01*
X136415984Y-110277679D01*
X136486466Y-110447839D01*
X136588790Y-110600978D01*
X136719024Y-110731212D01*
X136872163Y-110833536D01*
X137042323Y-110904018D01*
X137222963Y-110939950D01*
X137407141Y-110939950D01*
X137587781Y-110904018D01*
X137757941Y-110833536D01*
X137911080Y-110731212D01*
X138041314Y-110600978D01*
X138143638Y-110447839D01*
X138214120Y-110277679D01*
X138250052Y-110097039D01*
X138250052Y-109912861D01*
X138214120Y-109732221D01*
X138143638Y-109562061D01*
X138041314Y-109408922D01*
X137911080Y-109278688D01*
X137757941Y-109176364D01*
X137587781Y-109105882D01*
X137407141Y-109069950D01*
X137222963Y-109069950D01*
X137042323Y-109105882D01*
X136872163Y-109176364D01*
X136719024Y-109278688D01*
X136588790Y-109408922D01*
X136486466Y-109562061D01*
X136415984Y-109732221D01*
X136380052Y-109912861D01*
X121732152Y-109912861D01*
X121733776Y-109908941D01*
X121811500Y-109518199D01*
X121811500Y-109119801D01*
X121733776Y-108729059D01*
X121581316Y-108360987D01*
X121359978Y-108029731D01*
X121078269Y-107748022D01*
X120747013Y-107526684D01*
X120378941Y-107374224D01*
X119988199Y-107296500D01*
X119589801Y-107296500D01*
X119199059Y-107374224D01*
X118830987Y-107526684D01*
X118499731Y-107748022D01*
X118218022Y-108029731D01*
X117996684Y-108360987D01*
X117844224Y-108729059D01*
X117766500Y-109119801D01*
X115941500Y-109119801D01*
X115863776Y-108729059D01*
X115711316Y-108360987D01*
X115489978Y-108029731D01*
X115208269Y-107748022D01*
X114877013Y-107526684D01*
X114508941Y-107374224D01*
X114118199Y-107296500D01*
X113719801Y-107296500D01*
X113329059Y-107374224D01*
X112960987Y-107526684D01*
X112629731Y-107748022D01*
X112348022Y-108029731D01*
X112166000Y-108302146D01*
X112166000Y-105410854D01*
X112348022Y-105683269D01*
X112629731Y-105964978D01*
X112960987Y-106186316D01*
X113329059Y-106338776D01*
X113719801Y-106416500D01*
X114118199Y-106416500D01*
X114508941Y-106338776D01*
X114877013Y-106186316D01*
X115208269Y-105964978D01*
X115489978Y-105683269D01*
X115711316Y-105352013D01*
X115863776Y-104983941D01*
X115941500Y-104593199D01*
X115941500Y-104194801D01*
X117766500Y-104194801D01*
X117766500Y-104593199D01*
X117844224Y-104983941D01*
X117996684Y-105352013D01*
X118218022Y-105683269D01*
X118499731Y-105964978D01*
X118830987Y-106186316D01*
X119199059Y-106338776D01*
X119589801Y-106416500D01*
X119988199Y-106416500D01*
X120378941Y-106338776D01*
X120747013Y-106186316D01*
X121078269Y-105964978D01*
X121288749Y-105754498D01*
X123653020Y-105754498D01*
X123653020Y-105938676D01*
X123688952Y-106119316D01*
X123759434Y-106289476D01*
X123861758Y-106442615D01*
X123991992Y-106572849D01*
X124145131Y-106675173D01*
X124315291Y-106745655D01*
X124495931Y-106781587D01*
X124680109Y-106781587D01*
X124860749Y-106745655D01*
X124934972Y-106714911D01*
X131017982Y-106714911D01*
X131017982Y-106899089D01*
X131053914Y-107079729D01*
X131124396Y-107249889D01*
X131226720Y-107403028D01*
X131356954Y-107533262D01*
X131510093Y-107635586D01*
X131680253Y-107706068D01*
X131860893Y-107742000D01*
X131879833Y-107742000D01*
X131886414Y-107757889D01*
X131988738Y-107911028D01*
X132118972Y-108041262D01*
X132272111Y-108143586D01*
X132442271Y-108214068D01*
X132622911Y-108250000D01*
X132807089Y-108250000D01*
X132987729Y-108214068D01*
X133157889Y-108143586D01*
X133311028Y-108041262D01*
X133441262Y-107911028D01*
X133519182Y-107794411D01*
X135145500Y-107794411D01*
X135145500Y-107978589D01*
X135181432Y-108159229D01*
X135251914Y-108329389D01*
X135354238Y-108482528D01*
X135484472Y-108612762D01*
X135637611Y-108715086D01*
X135807771Y-108785568D01*
X135988411Y-108821500D01*
X136172589Y-108821500D01*
X136353229Y-108785568D01*
X136523389Y-108715086D01*
X136676528Y-108612762D01*
X136806762Y-108482528D01*
X136906000Y-108334008D01*
X137005238Y-108482528D01*
X137135472Y-108612762D01*
X137288611Y-108715086D01*
X137458771Y-108785568D01*
X137639411Y-108821500D01*
X137823589Y-108821500D01*
X138004229Y-108785568D01*
X138097556Y-108746911D01*
X142448000Y-108746911D01*
X142448000Y-108931089D01*
X142483932Y-109111729D01*
X142554414Y-109281889D01*
X142597920Y-109347000D01*
X142554414Y-109412111D01*
X142483932Y-109582271D01*
X142448000Y-109762911D01*
X142448000Y-109947089D01*
X142483932Y-110127729D01*
X142554414Y-110297889D01*
X142656738Y-110451028D01*
X142786972Y-110581262D01*
X142940111Y-110683586D01*
X143110271Y-110754068D01*
X143290911Y-110790000D01*
X143475089Y-110790000D01*
X143655729Y-110754068D01*
X143825889Y-110683586D01*
X143979028Y-110581262D01*
X144109262Y-110451028D01*
X144211586Y-110297889D01*
X144282068Y-110127729D01*
X144318000Y-109947089D01*
X144318000Y-109762911D01*
X144282068Y-109582271D01*
X144211586Y-109412111D01*
X144168080Y-109347000D01*
X144211586Y-109281889D01*
X144282068Y-109111729D01*
X144318000Y-108931089D01*
X144318000Y-108763879D01*
X144533426Y-108763879D01*
X144533426Y-108948057D01*
X144569358Y-109128697D01*
X144639840Y-109298857D01*
X144742164Y-109451996D01*
X144872398Y-109582230D01*
X145025537Y-109684554D01*
X145195697Y-109755036D01*
X145376337Y-109790968D01*
X145560515Y-109790968D01*
X145741155Y-109755036D01*
X145911315Y-109684554D01*
X146064454Y-109582230D01*
X146194688Y-109451996D01*
X146297012Y-109298857D01*
X146367494Y-109128697D01*
X146403426Y-108948057D01*
X146403426Y-108763879D01*
X146400051Y-108746911D01*
X146512000Y-108746911D01*
X146512000Y-108931089D01*
X146547932Y-109111729D01*
X146618414Y-109281889D01*
X146661920Y-109347000D01*
X146618414Y-109412111D01*
X146547932Y-109582271D01*
X146512000Y-109762911D01*
X146512000Y-109947089D01*
X146547932Y-110127729D01*
X146618414Y-110297889D01*
X146720738Y-110451028D01*
X146850972Y-110581262D01*
X147004111Y-110683586D01*
X147174271Y-110754068D01*
X147354911Y-110790000D01*
X147539089Y-110790000D01*
X147719729Y-110754068D01*
X147889889Y-110683586D01*
X148043028Y-110581262D01*
X148173262Y-110451028D01*
X148275586Y-110297889D01*
X148346068Y-110127729D01*
X148382000Y-109947089D01*
X148382000Y-109762911D01*
X148346068Y-109582271D01*
X148275586Y-109412111D01*
X148232080Y-109347000D01*
X148275586Y-109281889D01*
X148346068Y-109111729D01*
X148382000Y-108931089D01*
X148382000Y-108746911D01*
X148346068Y-108566271D01*
X148275586Y-108396111D01*
X148173262Y-108242972D01*
X148043028Y-108112738D01*
X147889889Y-108010414D01*
X147719729Y-107939932D01*
X147539089Y-107904000D01*
X147354911Y-107904000D01*
X147174271Y-107939932D01*
X147004111Y-108010414D01*
X146850972Y-108112738D01*
X146720738Y-108242972D01*
X146618414Y-108396111D01*
X146547932Y-108566271D01*
X146512000Y-108746911D01*
X146400051Y-108746911D01*
X146367494Y-108583239D01*
X146297012Y-108413079D01*
X146194688Y-108259940D01*
X146064454Y-108129706D01*
X145911315Y-108027382D01*
X145741155Y-107956900D01*
X145560515Y-107920968D01*
X145376337Y-107920968D01*
X145195697Y-107956900D01*
X145025537Y-108027382D01*
X144872398Y-108129706D01*
X144742164Y-108259940D01*
X144639840Y-108413079D01*
X144569358Y-108583239D01*
X144533426Y-108763879D01*
X144318000Y-108763879D01*
X144318000Y-108746911D01*
X144282068Y-108566271D01*
X144211586Y-108396111D01*
X144109262Y-108242972D01*
X143979028Y-108112738D01*
X143825889Y-108010414D01*
X143655729Y-107939932D01*
X143475089Y-107904000D01*
X143290911Y-107904000D01*
X143110271Y-107939932D01*
X142940111Y-108010414D01*
X142786972Y-108112738D01*
X142656738Y-108242972D01*
X142554414Y-108396111D01*
X142483932Y-108566271D01*
X142448000Y-108746911D01*
X138097556Y-108746911D01*
X138174389Y-108715086D01*
X138327528Y-108612762D01*
X138457762Y-108482528D01*
X138560086Y-108329389D01*
X138630568Y-108159229D01*
X138666500Y-107978589D01*
X138666500Y-107794411D01*
X138630568Y-107613771D01*
X138560086Y-107443611D01*
X138457762Y-107290472D01*
X138327528Y-107160238D01*
X138174389Y-107057914D01*
X138004229Y-106987432D01*
X137823589Y-106951500D01*
X137639411Y-106951500D01*
X137458771Y-106987432D01*
X137288611Y-107057914D01*
X137135472Y-107160238D01*
X137005238Y-107290472D01*
X136906000Y-107438992D01*
X136806762Y-107290472D01*
X136676528Y-107160238D01*
X136523389Y-107057914D01*
X136353229Y-106987432D01*
X136172589Y-106951500D01*
X135988411Y-106951500D01*
X135807771Y-106987432D01*
X135637611Y-107057914D01*
X135484472Y-107160238D01*
X135354238Y-107290472D01*
X135251914Y-107443611D01*
X135181432Y-107613771D01*
X135145500Y-107794411D01*
X133519182Y-107794411D01*
X133543586Y-107757889D01*
X133614068Y-107587729D01*
X133650000Y-107407089D01*
X133650000Y-107222911D01*
X133614068Y-107042271D01*
X133543586Y-106872111D01*
X133441262Y-106718972D01*
X133311028Y-106588738D01*
X133157889Y-106486414D01*
X132987729Y-106415932D01*
X132807089Y-106380000D01*
X132788149Y-106380000D01*
X132781568Y-106364111D01*
X132679244Y-106210972D01*
X132549010Y-106080738D01*
X132395871Y-105978414D01*
X132225711Y-105907932D01*
X132045071Y-105872000D01*
X131860893Y-105872000D01*
X131680253Y-105907932D01*
X131510093Y-105978414D01*
X131356954Y-106080738D01*
X131226720Y-106210972D01*
X131124396Y-106364111D01*
X131053914Y-106534271D01*
X131017982Y-106714911D01*
X124934972Y-106714911D01*
X125030909Y-106675173D01*
X125184048Y-106572849D01*
X125314282Y-106442615D01*
X125416606Y-106289476D01*
X125487088Y-106119316D01*
X125523020Y-105938676D01*
X125523020Y-105754498D01*
X125487088Y-105573858D01*
X125416606Y-105403698D01*
X125314282Y-105250559D01*
X125184048Y-105120325D01*
X125030909Y-105018001D01*
X124860749Y-104947519D01*
X124680109Y-104911587D01*
X124495931Y-104911587D01*
X124315291Y-104947519D01*
X124145131Y-105018001D01*
X123991992Y-105120325D01*
X123861758Y-105250559D01*
X123759434Y-105403698D01*
X123688952Y-105573858D01*
X123653020Y-105754498D01*
X121288749Y-105754498D01*
X121359978Y-105683269D01*
X121581316Y-105352013D01*
X121733776Y-104983941D01*
X121811500Y-104593199D01*
X121811500Y-104194801D01*
X121733776Y-103804059D01*
X121581316Y-103435987D01*
X121565898Y-103412911D01*
X123653030Y-103412911D01*
X123653030Y-103597089D01*
X123688962Y-103777729D01*
X123759444Y-103947889D01*
X123861768Y-104101028D01*
X123992002Y-104231262D01*
X124145141Y-104333586D01*
X124315301Y-104404068D01*
X124495941Y-104440000D01*
X124680119Y-104440000D01*
X124860759Y-104404068D01*
X125030919Y-104333586D01*
X125184058Y-104231262D01*
X125314292Y-104101028D01*
X125416616Y-103947889D01*
X125487098Y-103777729D01*
X125523030Y-103597089D01*
X125523030Y-103412911D01*
X125487098Y-103232271D01*
X125416616Y-103062111D01*
X125314292Y-102908972D01*
X125184058Y-102778738D01*
X125030919Y-102676414D01*
X124860759Y-102605932D01*
X124680119Y-102570000D01*
X124495941Y-102570000D01*
X124315301Y-102605932D01*
X124145141Y-102676414D01*
X123992002Y-102778738D01*
X123861768Y-102908972D01*
X123759444Y-103062111D01*
X123688962Y-103232271D01*
X123653030Y-103412911D01*
X121565898Y-103412911D01*
X121359978Y-103104731D01*
X121078269Y-102823022D01*
X120747013Y-102601684D01*
X120378941Y-102449224D01*
X119988199Y-102371500D01*
X119589801Y-102371500D01*
X119199059Y-102449224D01*
X118830987Y-102601684D01*
X118499731Y-102823022D01*
X118218022Y-103104731D01*
X117996684Y-103435987D01*
X117844224Y-103804059D01*
X117766500Y-104194801D01*
X115941500Y-104194801D01*
X115863776Y-103804059D01*
X115711316Y-103435987D01*
X115489978Y-103104731D01*
X115208269Y-102823022D01*
X114877013Y-102601684D01*
X114508941Y-102449224D01*
X114118199Y-102371500D01*
X113719801Y-102371500D01*
X113329059Y-102449224D01*
X112960987Y-102601684D01*
X112629731Y-102823022D01*
X112348022Y-103104731D01*
X112166000Y-103377146D01*
X112166000Y-101273344D01*
X114969000Y-101273344D01*
X114969000Y-101644656D01*
X115041439Y-102008834D01*
X115183534Y-102351882D01*
X115389825Y-102660618D01*
X115652382Y-102923175D01*
X115961118Y-103129466D01*
X116304166Y-103271561D01*
X116668344Y-103344000D01*
X117039656Y-103344000D01*
X117403834Y-103271561D01*
X117746882Y-103129466D01*
X118055618Y-102923175D01*
X118318175Y-102660618D01*
X118524466Y-102351882D01*
X118558419Y-102269911D01*
X128858998Y-102269911D01*
X128858998Y-102454089D01*
X128894930Y-102634729D01*
X128965412Y-102804889D01*
X129067736Y-102958028D01*
X129197970Y-103088262D01*
X129351109Y-103190586D01*
X129521269Y-103261068D01*
X129701909Y-103297000D01*
X129886087Y-103297000D01*
X130066727Y-103261068D01*
X130236887Y-103190586D01*
X130390026Y-103088262D01*
X130520260Y-102958028D01*
X130622584Y-102804889D01*
X130648000Y-102743528D01*
X130790787Y-102715126D01*
X130816499Y-102704476D01*
X130755223Y-102852410D01*
X130719291Y-103033050D01*
X130719291Y-103217228D01*
X130755223Y-103397868D01*
X130825705Y-103568028D01*
X130928029Y-103721167D01*
X131058263Y-103851401D01*
X131211402Y-103953725D01*
X131381562Y-104024207D01*
X131562202Y-104060139D01*
X131746380Y-104060139D01*
X131927020Y-104024207D01*
X132062807Y-103967963D01*
X132181542Y-104017144D01*
X132362182Y-104053076D01*
X132546360Y-104053076D01*
X132727000Y-104017144D01*
X132809141Y-103983120D01*
X132810520Y-103984042D01*
X132980680Y-104054524D01*
X133050000Y-104068313D01*
X133050000Y-104105095D01*
X133085932Y-104285735D01*
X133156414Y-104455895D01*
X133258738Y-104609034D01*
X133388972Y-104739268D01*
X133542111Y-104841592D01*
X133712271Y-104912074D01*
X133892911Y-104948006D01*
X134077089Y-104948006D01*
X134257729Y-104912074D01*
X134427889Y-104841592D01*
X134581028Y-104739268D01*
X134711262Y-104609034D01*
X134813586Y-104455895D01*
X134884068Y-104285735D01*
X134920000Y-104105095D01*
X134920000Y-103920917D01*
X134884068Y-103740277D01*
X134813586Y-103570117D01*
X134747452Y-103471140D01*
X134873591Y-103523388D01*
X135054231Y-103559320D01*
X135238409Y-103559320D01*
X135419049Y-103523388D01*
X135589209Y-103452906D01*
X135742348Y-103350582D01*
X135872582Y-103220348D01*
X135974906Y-103067209D01*
X136045388Y-102897049D01*
X136081320Y-102716409D01*
X136081320Y-102532231D01*
X136045388Y-102351591D01*
X135975603Y-102183113D01*
X135976609Y-102181607D01*
X136047091Y-102011447D01*
X136083023Y-101830807D01*
X136083023Y-101646629D01*
X136047091Y-101465989D01*
X135976609Y-101295829D01*
X135948233Y-101253361D01*
X137367450Y-101253361D01*
X137367450Y-101437539D01*
X137403382Y-101618179D01*
X137473864Y-101788339D01*
X137576188Y-101941478D01*
X137706422Y-102071712D01*
X137859561Y-102174036D01*
X138029721Y-102244518D01*
X138131054Y-102264675D01*
X138130012Y-102269911D01*
X138130012Y-102454089D01*
X138165944Y-102634729D01*
X138236426Y-102804889D01*
X138338750Y-102958028D01*
X138468984Y-103088262D01*
X138622123Y-103190586D01*
X138792283Y-103261068D01*
X138845234Y-103271601D01*
X138749111Y-103311416D01*
X138595972Y-103413740D01*
X138465738Y-103543974D01*
X138363414Y-103697113D01*
X138292932Y-103867273D01*
X138257000Y-104047913D01*
X138257000Y-104232091D01*
X138292932Y-104412731D01*
X138363414Y-104582891D01*
X138465738Y-104736030D01*
X138595972Y-104866264D01*
X138605418Y-104872575D01*
X138522089Y-104856000D01*
X138337911Y-104856000D01*
X138157271Y-104891932D01*
X137987111Y-104962414D01*
X137833972Y-105064738D01*
X137703738Y-105194972D01*
X137601414Y-105348111D01*
X137530932Y-105518271D01*
X137495000Y-105698911D01*
X137495000Y-105883089D01*
X137530932Y-106063729D01*
X137601414Y-106233889D01*
X137703738Y-106387028D01*
X137833972Y-106517262D01*
X137987111Y-106619586D01*
X138157271Y-106690068D01*
X138337911Y-106726000D01*
X138522089Y-106726000D01*
X138702729Y-106690068D01*
X138872889Y-106619586D01*
X139026028Y-106517262D01*
X139156262Y-106387028D01*
X139258586Y-106233889D01*
X139329068Y-106063729D01*
X139365000Y-105883089D01*
X139365000Y-105698911D01*
X139329068Y-105518271D01*
X139258586Y-105348111D01*
X139156262Y-105194972D01*
X139026028Y-105064738D01*
X139016582Y-105058427D01*
X139099911Y-105075002D01*
X139284089Y-105075002D01*
X139412486Y-105049462D01*
X139454611Y-105112507D01*
X139584845Y-105242741D01*
X139737984Y-105345065D01*
X139908144Y-105415547D01*
X140088784Y-105451479D01*
X140162000Y-105451479D01*
X140162000Y-105629089D01*
X140197932Y-105809729D01*
X140220637Y-105864545D01*
X140141414Y-105983111D01*
X140070932Y-106153271D01*
X140035000Y-106333911D01*
X140035000Y-106518089D01*
X140070932Y-106698729D01*
X140141414Y-106868889D01*
X140243738Y-107022028D01*
X140373972Y-107152262D01*
X140527111Y-107254586D01*
X140697271Y-107325068D01*
X140877911Y-107361000D01*
X141062089Y-107361000D01*
X141242729Y-107325068D01*
X141412889Y-107254586D01*
X141566028Y-107152262D01*
X141696262Y-107022028D01*
X141798586Y-106868889D01*
X141869068Y-106698729D01*
X141891111Y-106587911D01*
X147528000Y-106587911D01*
X147528000Y-106772089D01*
X147563932Y-106952729D01*
X147634414Y-107122889D01*
X147736738Y-107276028D01*
X147866972Y-107406262D01*
X148020111Y-107508586D01*
X148190271Y-107579068D01*
X148370911Y-107615000D01*
X148555089Y-107615000D01*
X148735729Y-107579068D01*
X148905889Y-107508586D01*
X149059028Y-107406262D01*
X149189262Y-107276028D01*
X149291586Y-107122889D01*
X149362068Y-106952729D01*
X149398000Y-106772089D01*
X149398000Y-106587911D01*
X149362068Y-106407271D01*
X149291586Y-106237111D01*
X149189262Y-106083972D01*
X149059028Y-105953738D01*
X148905889Y-105851414D01*
X148735729Y-105780932D01*
X148555089Y-105745000D01*
X148370911Y-105745000D01*
X148190271Y-105780932D01*
X148020111Y-105851414D01*
X147866972Y-105953738D01*
X147736738Y-106083972D01*
X147634414Y-106237111D01*
X147563932Y-106407271D01*
X147528000Y-106587911D01*
X141891111Y-106587911D01*
X141905000Y-106518089D01*
X141905000Y-106333911D01*
X141869068Y-106153271D01*
X141846363Y-106098455D01*
X141925586Y-105979889D01*
X141996068Y-105809729D01*
X142032000Y-105629089D01*
X142032000Y-105444911D01*
X141996068Y-105264271D01*
X141925586Y-105094111D01*
X141924510Y-105092501D01*
X141925586Y-105090891D01*
X141996068Y-104920731D01*
X142032000Y-104740091D01*
X142032000Y-104555913D01*
X141996068Y-104375273D01*
X141938599Y-104236529D01*
X142010887Y-104206586D01*
X142140043Y-104120287D01*
X142194854Y-104142990D01*
X142365834Y-104177000D01*
X142540164Y-104177000D01*
X142711144Y-104142990D01*
X142872203Y-104076277D01*
X143003000Y-103988882D01*
X143133796Y-104076277D01*
X143294855Y-104142990D01*
X143465835Y-104177000D01*
X143640165Y-104177000D01*
X143811145Y-104142990D01*
X143972204Y-104076277D01*
X144103000Y-103988882D01*
X144233796Y-104076277D01*
X144394855Y-104142990D01*
X144565835Y-104177000D01*
X144740165Y-104177000D01*
X144911145Y-104142990D01*
X145072204Y-104076277D01*
X145203000Y-103988882D01*
X145333796Y-104076277D01*
X145494855Y-104142990D01*
X145665835Y-104177000D01*
X145840165Y-104177000D01*
X146011145Y-104142990D01*
X146172204Y-104076277D01*
X146303001Y-103988882D01*
X146433797Y-104076277D01*
X146594856Y-104142990D01*
X146765836Y-104177000D01*
X146940166Y-104177000D01*
X147111146Y-104142990D01*
X147272205Y-104076277D01*
X147417155Y-103979425D01*
X147540425Y-103856155D01*
X147637277Y-103711205D01*
X147703990Y-103550146D01*
X147738000Y-103379166D01*
X147738000Y-103204836D01*
X147703990Y-103033856D01*
X147637277Y-102872797D01*
X147549882Y-102742000D01*
X147637277Y-102611204D01*
X147703990Y-102450145D01*
X147738000Y-102279165D01*
X147738000Y-102104835D01*
X147703990Y-101933855D01*
X147637277Y-101772796D01*
X147549882Y-101642000D01*
X147637277Y-101511204D01*
X147703990Y-101350145D01*
X147738000Y-101179165D01*
X147738000Y-101011102D01*
X150021929Y-101011102D01*
X150021929Y-101195280D01*
X150057861Y-101375920D01*
X150128343Y-101546080D01*
X150230667Y-101699219D01*
X150360901Y-101829453D01*
X150514040Y-101931777D01*
X150684200Y-102002259D01*
X150864840Y-102038191D01*
X151049018Y-102038191D01*
X151229658Y-102002259D01*
X151399818Y-101931777D01*
X151552957Y-101829453D01*
X151683191Y-101699219D01*
X151785515Y-101546080D01*
X151855997Y-101375920D01*
X151891929Y-101195280D01*
X151891929Y-101011102D01*
X151855997Y-100830462D01*
X151785515Y-100660302D01*
X151683191Y-100507163D01*
X151552957Y-100376929D01*
X151399818Y-100274605D01*
X151229658Y-100204123D01*
X151049018Y-100168191D01*
X150864840Y-100168191D01*
X150684200Y-100204123D01*
X150514040Y-100274605D01*
X150360901Y-100376929D01*
X150230667Y-100507163D01*
X150128343Y-100660302D01*
X150057861Y-100830462D01*
X150021929Y-101011102D01*
X147738000Y-101011102D01*
X147738000Y-101004835D01*
X147703990Y-100833855D01*
X147637277Y-100672796D01*
X147549882Y-100542000D01*
X147637277Y-100411204D01*
X147703990Y-100250145D01*
X147738000Y-100079165D01*
X147738000Y-99904835D01*
X147703990Y-99733855D01*
X147637277Y-99572796D01*
X147549882Y-99442000D01*
X147637277Y-99311203D01*
X147703990Y-99150144D01*
X147738000Y-98979164D01*
X147738000Y-98804834D01*
X147703990Y-98633854D01*
X147637277Y-98472795D01*
X147540425Y-98327845D01*
X147417155Y-98204575D01*
X147272205Y-98107723D01*
X147111146Y-98041010D01*
X146940166Y-98007000D01*
X146765836Y-98007000D01*
X146594856Y-98041010D01*
X146433797Y-98107723D01*
X146303001Y-98195118D01*
X146172204Y-98107723D01*
X146011145Y-98041010D01*
X145840165Y-98007000D01*
X145665835Y-98007000D01*
X145494855Y-98041010D01*
X145333796Y-98107723D01*
X145203000Y-98195118D01*
X145072204Y-98107723D01*
X144911145Y-98041010D01*
X144740165Y-98007000D01*
X144565835Y-98007000D01*
X144394855Y-98041010D01*
X144233796Y-98107723D01*
X144103000Y-98195118D01*
X143972204Y-98107723D01*
X143811145Y-98041010D01*
X143640165Y-98007000D01*
X143465835Y-98007000D01*
X143294855Y-98041010D01*
X143133796Y-98107723D01*
X143003000Y-98195118D01*
X142872203Y-98107723D01*
X142711144Y-98041010D01*
X142540164Y-98007000D01*
X142365834Y-98007000D01*
X142194854Y-98041010D01*
X142033795Y-98107723D01*
X141888845Y-98204575D01*
X141831029Y-98262391D01*
X141660087Y-98228388D01*
X141475909Y-98228388D01*
X141295269Y-98264320D01*
X141125109Y-98334802D01*
X140971970Y-98437126D01*
X140841736Y-98567360D01*
X140739412Y-98720499D01*
X140668930Y-98890659D01*
X140632998Y-99071299D01*
X140632998Y-99255477D01*
X140668930Y-99436117D01*
X140739412Y-99606277D01*
X140841736Y-99759416D01*
X140892514Y-99810194D01*
X140841736Y-99860972D01*
X140739412Y-100014111D01*
X140668930Y-100184271D01*
X140632998Y-100364911D01*
X140632998Y-100549089D01*
X140668930Y-100729729D01*
X140739412Y-100899889D01*
X140740488Y-100901500D01*
X140739412Y-100903111D01*
X140668930Y-101073271D01*
X140632998Y-101253911D01*
X140632998Y-101438089D01*
X140668930Y-101618729D01*
X140739412Y-101788889D01*
X140782918Y-101854000D01*
X140739412Y-101919111D01*
X140668930Y-102089271D01*
X140632998Y-102269911D01*
X140632998Y-102454089D01*
X140668930Y-102634729D01*
X140739412Y-102804889D01*
X140782918Y-102870000D01*
X140739412Y-102935111D01*
X140668930Y-103105271D01*
X140632998Y-103285911D01*
X140632998Y-103470089D01*
X140668930Y-103650729D01*
X140707499Y-103743844D01*
X140623762Y-103687893D01*
X140453602Y-103617411D01*
X140272962Y-103581479D01*
X140088784Y-103581479D01*
X139960387Y-103607019D01*
X139918262Y-103543974D01*
X139788028Y-103413740D01*
X139634889Y-103311416D01*
X139464729Y-103240934D01*
X139411778Y-103230401D01*
X139507901Y-103190586D01*
X139661040Y-103088262D01*
X139791274Y-102958028D01*
X139893598Y-102804889D01*
X139964080Y-102634729D01*
X140000012Y-102454089D01*
X140000012Y-102269911D01*
X139964080Y-102089271D01*
X139893598Y-101919111D01*
X139791274Y-101765972D01*
X139661040Y-101635738D01*
X139507901Y-101533414D01*
X139337741Y-101462932D01*
X139236408Y-101442775D01*
X139237450Y-101437539D01*
X139237450Y-101253361D01*
X139201518Y-101072721D01*
X139131036Y-100902561D01*
X139118634Y-100884000D01*
X139157089Y-100884000D01*
X139337729Y-100848068D01*
X139507889Y-100777586D01*
X139661028Y-100675262D01*
X139791262Y-100545028D01*
X139893586Y-100391889D01*
X139964068Y-100221729D01*
X140000000Y-100041089D01*
X140000000Y-99856911D01*
X139964068Y-99676271D01*
X139893586Y-99506111D01*
X139791262Y-99352972D01*
X139661028Y-99222738D01*
X139507889Y-99120414D01*
X139337729Y-99049932D01*
X139157089Y-99014000D01*
X138972911Y-99014000D01*
X138792271Y-99049932D01*
X138622111Y-99120414D01*
X138468972Y-99222738D01*
X138338738Y-99352972D01*
X138236414Y-99506111D01*
X138165932Y-99676271D01*
X138130000Y-99856911D01*
X138130000Y-100041089D01*
X138165932Y-100221729D01*
X138236414Y-100391889D01*
X138248816Y-100410450D01*
X138210361Y-100410450D01*
X138029721Y-100446382D01*
X137859561Y-100516864D01*
X137706422Y-100619188D01*
X137576188Y-100749422D01*
X137473864Y-100902561D01*
X137403382Y-101072721D01*
X137367450Y-101253361D01*
X135948233Y-101253361D01*
X135874285Y-101142690D01*
X135744051Y-101012456D01*
X135590912Y-100910132D01*
X135420752Y-100839650D01*
X135341363Y-100823858D01*
X135321586Y-100776111D01*
X135219262Y-100622972D01*
X135089028Y-100492738D01*
X134935889Y-100390414D01*
X134780409Y-100326013D01*
X134777477Y-100311271D01*
X134706995Y-100141111D01*
X134604671Y-99987972D01*
X134474437Y-99857738D01*
X134321298Y-99755414D01*
X134151138Y-99684932D01*
X133970498Y-99649000D01*
X133786320Y-99649000D01*
X133605680Y-99684932D01*
X133435520Y-99755414D01*
X133282381Y-99857738D01*
X133152147Y-99987972D01*
X133049823Y-100141111D01*
X132979341Y-100311271D01*
X132943409Y-100491911D01*
X132943409Y-100676089D01*
X132979341Y-100856729D01*
X133049823Y-101026889D01*
X133152147Y-101180028D01*
X133282381Y-101310262D01*
X133435520Y-101412586D01*
X133591000Y-101476987D01*
X133593932Y-101491729D01*
X133664414Y-101661889D01*
X133766738Y-101815028D01*
X133896972Y-101945262D01*
X134050111Y-102047586D01*
X134220271Y-102118068D01*
X134299660Y-102133860D01*
X134318740Y-102179925D01*
X134317734Y-102181431D01*
X134247252Y-102351591D01*
X134211320Y-102532231D01*
X134211320Y-102716409D01*
X134247252Y-102897049D01*
X134317734Y-103067209D01*
X134383868Y-103166186D01*
X134257729Y-103113938D01*
X134188409Y-103100149D01*
X134188409Y-103063367D01*
X134152477Y-102882727D01*
X134081995Y-102712567D01*
X133979671Y-102559428D01*
X133849437Y-102429194D01*
X133696298Y-102326870D01*
X133526138Y-102256388D01*
X133345498Y-102220456D01*
X133161320Y-102220456D01*
X132980680Y-102256388D01*
X132898539Y-102290412D01*
X132897160Y-102289490D01*
X132727000Y-102219008D01*
X132546360Y-102183076D01*
X132362182Y-102183076D01*
X132181542Y-102219008D01*
X132045755Y-102275252D01*
X131927020Y-102226071D01*
X131746380Y-102190139D01*
X131562202Y-102190139D01*
X131381562Y-102226071D01*
X131355850Y-102236721D01*
X131417126Y-102088787D01*
X131453058Y-101908147D01*
X131453058Y-101723969D01*
X131417126Y-101543329D01*
X131346644Y-101373169D01*
X131244320Y-101220030D01*
X131114086Y-101089796D01*
X130960947Y-100987472D01*
X130790787Y-100916990D01*
X130610147Y-100881058D01*
X130522992Y-100881058D01*
X130520262Y-100876972D01*
X130390028Y-100746738D01*
X130236889Y-100644414D01*
X130066729Y-100573932D01*
X129886089Y-100538000D01*
X129701911Y-100538000D01*
X129521271Y-100573932D01*
X129351111Y-100644414D01*
X129197972Y-100746738D01*
X129067738Y-100876972D01*
X128965414Y-101030111D01*
X128894932Y-101200271D01*
X128859000Y-101380911D01*
X128859000Y-101565089D01*
X128894932Y-101745729D01*
X128965414Y-101915889D01*
X128966489Y-101917499D01*
X128965412Y-101919111D01*
X128894930Y-102089271D01*
X128858998Y-102269911D01*
X118558419Y-102269911D01*
X118666561Y-102008834D01*
X118739000Y-101644656D01*
X118739000Y-101273344D01*
X118666561Y-100909166D01*
X118524466Y-100566118D01*
X118318175Y-100257382D01*
X118055618Y-99994825D01*
X117746882Y-99788534D01*
X117403834Y-99646439D01*
X117039656Y-99574000D01*
X116668344Y-99574000D01*
X116304166Y-99646439D01*
X115961118Y-99788534D01*
X115652382Y-99994825D01*
X115389825Y-100257382D01*
X115183534Y-100566118D01*
X115041439Y-100909166D01*
X114969000Y-101273344D01*
X112166000Y-101273344D01*
X112166000Y-99540854D01*
X112348022Y-99813269D01*
X112629731Y-100094978D01*
X112960987Y-100316316D01*
X113329059Y-100468776D01*
X113719801Y-100546500D01*
X114118199Y-100546500D01*
X114508941Y-100468776D01*
X114877013Y-100316316D01*
X115208269Y-100094978D01*
X115489978Y-99813269D01*
X115711316Y-99482013D01*
X115863776Y-99113941D01*
X115941500Y-98723199D01*
X115941500Y-98324801D01*
X117766500Y-98324801D01*
X117766500Y-98723199D01*
X117844224Y-99113941D01*
X117996684Y-99482013D01*
X118218022Y-99813269D01*
X118499731Y-100094978D01*
X118830987Y-100316316D01*
X119199059Y-100468776D01*
X119589801Y-100546500D01*
X119988199Y-100546500D01*
X120378941Y-100468776D01*
X120747013Y-100316316D01*
X121078269Y-100094978D01*
X121359978Y-99813269D01*
X121581316Y-99482013D01*
X121733776Y-99113941D01*
X121811500Y-98723199D01*
X121811500Y-98713911D01*
X128986000Y-98713911D01*
X128986000Y-98898089D01*
X129021932Y-99078729D01*
X129092414Y-99248889D01*
X129194738Y-99402028D01*
X129324972Y-99532262D01*
X129478111Y-99634586D01*
X129648271Y-99705068D01*
X129828911Y-99741000D01*
X130013089Y-99741000D01*
X130193729Y-99705068D01*
X130363889Y-99634586D01*
X130517028Y-99532262D01*
X130647262Y-99402028D01*
X130749586Y-99248889D01*
X130820068Y-99078729D01*
X130856000Y-98898089D01*
X130856000Y-98713911D01*
X130820068Y-98533271D01*
X130749586Y-98363111D01*
X130647262Y-98209972D01*
X130517028Y-98079738D01*
X130363889Y-97977414D01*
X130193729Y-97906932D01*
X130013089Y-97871000D01*
X129828911Y-97871000D01*
X129648271Y-97906932D01*
X129478111Y-97977414D01*
X129324972Y-98079738D01*
X129194738Y-98209972D01*
X129092414Y-98363111D01*
X129021932Y-98533271D01*
X128986000Y-98713911D01*
X121811500Y-98713911D01*
X121811500Y-98324801D01*
X121733776Y-97934059D01*
X121581316Y-97565987D01*
X121542177Y-97507411D01*
X123906000Y-97507411D01*
X123906000Y-97691589D01*
X123941932Y-97872229D01*
X124012414Y-98042389D01*
X124114738Y-98195528D01*
X124244972Y-98325762D01*
X124398111Y-98428086D01*
X124568271Y-98498568D01*
X124748911Y-98534500D01*
X124933089Y-98534500D01*
X125113729Y-98498568D01*
X125283889Y-98428086D01*
X125437028Y-98325762D01*
X125567262Y-98195528D01*
X125669586Y-98042389D01*
X125740068Y-97872229D01*
X125776000Y-97691589D01*
X125776000Y-97507411D01*
X125740068Y-97326771D01*
X125669586Y-97156611D01*
X125567262Y-97003472D01*
X125437028Y-96873238D01*
X125283889Y-96770914D01*
X125113729Y-96700432D01*
X124933089Y-96664500D01*
X124748911Y-96664500D01*
X124568271Y-96700432D01*
X124398111Y-96770914D01*
X124244972Y-96873238D01*
X124114738Y-97003472D01*
X124012414Y-97156611D01*
X123941932Y-97326771D01*
X123906000Y-97507411D01*
X121542177Y-97507411D01*
X121359978Y-97234731D01*
X121078269Y-96953022D01*
X120747013Y-96731684D01*
X120378941Y-96579224D01*
X119988199Y-96501500D01*
X119589801Y-96501500D01*
X119199059Y-96579224D01*
X118830987Y-96731684D01*
X118499731Y-96953022D01*
X118218022Y-97234731D01*
X117996684Y-97565987D01*
X117844224Y-97934059D01*
X117766500Y-98324801D01*
X115941500Y-98324801D01*
X115863776Y-97934059D01*
X115711316Y-97565987D01*
X115489978Y-97234731D01*
X115208269Y-96953022D01*
X114877013Y-96731684D01*
X114508941Y-96579224D01*
X114118199Y-96501500D01*
X113719801Y-96501500D01*
X113329059Y-96579224D01*
X112960987Y-96731684D01*
X112629731Y-96953022D01*
X112348022Y-97234731D01*
X112166000Y-97507146D01*
X112166000Y-94141911D01*
X128478000Y-94141911D01*
X128478000Y-94326089D01*
X128513932Y-94506729D01*
X128584414Y-94676889D01*
X128686738Y-94830028D01*
X128816972Y-94960262D01*
X128970111Y-95062586D01*
X129140271Y-95133068D01*
X129320911Y-95169000D01*
X129505089Y-95169000D01*
X129685729Y-95133068D01*
X129855889Y-95062586D01*
X130009028Y-94960262D01*
X130139262Y-94830028D01*
X130241586Y-94676889D01*
X130312068Y-94506729D01*
X130348000Y-94326089D01*
X130348000Y-94141911D01*
X130510000Y-94141911D01*
X130510000Y-94326089D01*
X130545932Y-94506729D01*
X130616414Y-94676889D01*
X130718738Y-94830028D01*
X130848972Y-94960262D01*
X131002111Y-95062586D01*
X131172271Y-95133068D01*
X131352911Y-95169000D01*
X131537089Y-95169000D01*
X131717729Y-95133068D01*
X131887889Y-95062586D01*
X132041028Y-94960262D01*
X132171262Y-94830028D01*
X132273586Y-94676889D01*
X132341503Y-94512921D01*
X132980211Y-94512921D01*
X132980211Y-94697099D01*
X133016143Y-94877739D01*
X133086625Y-95047899D01*
X133188949Y-95201038D01*
X133319183Y-95331272D01*
X133472322Y-95433596D01*
X133642482Y-95504078D01*
X133823122Y-95540010D01*
X134007300Y-95540010D01*
X134187940Y-95504078D01*
X134358100Y-95433596D01*
X134511239Y-95331272D01*
X134594807Y-95247704D01*
X134610729Y-95327750D01*
X134681211Y-95497910D01*
X134783535Y-95651049D01*
X134913769Y-95781283D01*
X135066908Y-95883607D01*
X135237068Y-95954089D01*
X135417708Y-95990021D01*
X135463000Y-95990021D01*
X135463000Y-96104089D01*
X135498932Y-96284729D01*
X135569414Y-96454889D01*
X135671738Y-96608028D01*
X135801972Y-96738262D01*
X135955111Y-96840586D01*
X136116939Y-96907617D01*
X136110575Y-96917142D01*
X136040093Y-97087302D01*
X136020218Y-97187217D01*
X136001282Y-97179373D01*
X135820642Y-97143441D01*
X135636464Y-97143441D01*
X135455824Y-97179373D01*
X135285664Y-97249855D01*
X135132525Y-97352179D01*
X135002291Y-97482413D01*
X134899967Y-97635552D01*
X134829485Y-97805712D01*
X134793553Y-97986352D01*
X134793553Y-98170530D01*
X134829485Y-98351170D01*
X134899967Y-98521330D01*
X135002291Y-98674469D01*
X135132525Y-98804703D01*
X135285664Y-98907027D01*
X135455824Y-98977509D01*
X135636464Y-99013441D01*
X135820642Y-99013441D01*
X136001282Y-98977509D01*
X136171442Y-98907027D01*
X136324581Y-98804703D01*
X136454815Y-98674469D01*
X136557139Y-98521330D01*
X136627621Y-98351170D01*
X136647496Y-98251255D01*
X136666432Y-98259099D01*
X136847072Y-98295031D01*
X137031250Y-98295031D01*
X137211890Y-98259099D01*
X137382050Y-98188617D01*
X137535189Y-98086293D01*
X137665423Y-97956059D01*
X137767747Y-97802920D01*
X137838229Y-97632760D01*
X137874161Y-97452120D01*
X137874161Y-97267942D01*
X137838229Y-97087302D01*
X137767747Y-96917142D01*
X137665423Y-96764003D01*
X137535189Y-96633769D01*
X137420769Y-96557316D01*
X139161017Y-96557316D01*
X139161017Y-96741494D01*
X139196949Y-96922134D01*
X139267431Y-97092294D01*
X139369755Y-97245433D01*
X139499989Y-97375667D01*
X139653128Y-97477991D01*
X139823288Y-97548473D01*
X139870863Y-97557936D01*
X139887412Y-97597889D01*
X139989736Y-97751028D01*
X140119970Y-97881262D01*
X140273109Y-97983586D01*
X140443269Y-98054068D01*
X140623909Y-98090000D01*
X140808087Y-98090000D01*
X140988727Y-98054068D01*
X141158887Y-97983586D01*
X141312026Y-97881262D01*
X141442260Y-97751028D01*
X141544584Y-97597889D01*
X141615066Y-97427729D01*
X141650998Y-97247089D01*
X141650998Y-97062911D01*
X141615066Y-96882271D01*
X141544584Y-96712111D01*
X141442260Y-96558972D01*
X141312026Y-96428738D01*
X141158887Y-96326414D01*
X140988727Y-96255932D01*
X140941152Y-96246469D01*
X140924603Y-96206516D01*
X140822279Y-96053377D01*
X140692045Y-95923143D01*
X140538906Y-95820819D01*
X140368746Y-95750337D01*
X140188106Y-95714405D01*
X140003928Y-95714405D01*
X139823288Y-95750337D01*
X139653128Y-95820819D01*
X139499989Y-95923143D01*
X139369755Y-96053377D01*
X139267431Y-96206516D01*
X139196949Y-96376676D01*
X139161017Y-96557316D01*
X137420769Y-96557316D01*
X137382050Y-96531445D01*
X137220222Y-96464414D01*
X137226586Y-96454889D01*
X137297068Y-96284729D01*
X137333000Y-96104089D01*
X137333000Y-95919911D01*
X137297068Y-95739271D01*
X137226586Y-95569111D01*
X137124262Y-95415972D01*
X136994028Y-95285738D01*
X136840889Y-95183414D01*
X136670729Y-95112932D01*
X136490089Y-95077000D01*
X136444797Y-95077000D01*
X136444797Y-94962932D01*
X136408865Y-94782292D01*
X136338383Y-94612132D01*
X136236059Y-94458993D01*
X136105825Y-94328759D01*
X135952686Y-94226435D01*
X135782526Y-94155953D01*
X135601886Y-94120021D01*
X135417708Y-94120021D01*
X135237068Y-94155953D01*
X135066908Y-94226435D01*
X134913769Y-94328759D01*
X134830201Y-94412327D01*
X134814279Y-94332281D01*
X134743797Y-94162121D01*
X134641473Y-94008982D01*
X134511239Y-93878748D01*
X134358100Y-93776424D01*
X134187940Y-93705942D01*
X134007300Y-93670010D01*
X133823122Y-93670010D01*
X133642482Y-93705942D01*
X133472322Y-93776424D01*
X133319183Y-93878748D01*
X133188949Y-94008982D01*
X133086625Y-94162121D01*
X133016143Y-94332281D01*
X132980211Y-94512921D01*
X132341503Y-94512921D01*
X132344068Y-94506729D01*
X132380000Y-94326089D01*
X132380000Y-94141911D01*
X132344068Y-93961271D01*
X132273586Y-93791111D01*
X132171262Y-93637972D01*
X132041028Y-93507738D01*
X131887889Y-93405414D01*
X131717729Y-93334932D01*
X131537089Y-93299000D01*
X131352911Y-93299000D01*
X131172271Y-93334932D01*
X131002111Y-93405414D01*
X130848972Y-93507738D01*
X130718738Y-93637972D01*
X130616414Y-93791111D01*
X130545932Y-93961271D01*
X130510000Y-94141911D01*
X130348000Y-94141911D01*
X130312068Y-93961271D01*
X130241586Y-93791111D01*
X130139262Y-93637972D01*
X130009028Y-93507738D01*
X129855889Y-93405414D01*
X129685729Y-93334932D01*
X129505089Y-93299000D01*
X129320911Y-93299000D01*
X129140271Y-93334932D01*
X128970111Y-93405414D01*
X128816972Y-93507738D01*
X128686738Y-93637972D01*
X128584414Y-93791111D01*
X128513932Y-93961271D01*
X128478000Y-94141911D01*
X112166000Y-94141911D01*
X112166000Y-93570223D01*
X112227782Y-93632005D01*
X112368637Y-93726122D01*
X112525147Y-93790951D01*
X112691297Y-93824000D01*
X112860703Y-93824000D01*
X113026853Y-93790951D01*
X113093500Y-93763345D01*
X113160147Y-93790951D01*
X113326297Y-93824000D01*
X113495703Y-93824000D01*
X113661853Y-93790951D01*
X113728500Y-93763345D01*
X113795147Y-93790951D01*
X113961297Y-93824000D01*
X114130703Y-93824000D01*
X114296853Y-93790951D01*
X114363500Y-93763345D01*
X114430147Y-93790951D01*
X114596297Y-93824000D01*
X114765703Y-93824000D01*
X114931853Y-93790951D01*
X114998500Y-93763345D01*
X115065147Y-93790951D01*
X115231297Y-93824000D01*
X115400703Y-93824000D01*
X115566853Y-93790951D01*
X115633500Y-93763345D01*
X115700147Y-93790951D01*
X115866297Y-93824000D01*
X116035703Y-93824000D01*
X116201853Y-93790951D01*
X116358363Y-93726122D01*
X116499218Y-93632005D01*
X116619005Y-93512218D01*
X116713122Y-93371363D01*
X116777951Y-93214853D01*
X116795643Y-93125905D01*
X136225000Y-93125905D01*
X136225000Y-93310083D01*
X136260932Y-93490723D01*
X136331414Y-93660883D01*
X136433738Y-93814022D01*
X136563972Y-93944256D01*
X136717111Y-94046580D01*
X136887271Y-94117062D01*
X137067911Y-94152994D01*
X137252089Y-94152994D01*
X137432729Y-94117062D01*
X137602889Y-94046580D01*
X137756028Y-93944256D01*
X137886262Y-93814022D01*
X137988586Y-93660883D01*
X138059068Y-93490723D01*
X138095000Y-93310083D01*
X138095000Y-93125905D01*
X138059068Y-92945265D01*
X137988586Y-92775105D01*
X137886262Y-92621966D01*
X137756028Y-92491732D01*
X137734300Y-92477214D01*
X137819528Y-92420266D01*
X137949762Y-92290032D01*
X137985256Y-92236911D01*
X145877000Y-92236911D01*
X145877000Y-92421089D01*
X145912932Y-92601729D01*
X145983414Y-92771889D01*
X146085738Y-92925028D01*
X146215972Y-93055262D01*
X146369111Y-93157586D01*
X146539271Y-93228068D01*
X146719911Y-93264000D01*
X146904089Y-93264000D01*
X147084729Y-93228068D01*
X147254889Y-93157586D01*
X147408028Y-93055262D01*
X147538262Y-92925028D01*
X147640586Y-92771889D01*
X147711068Y-92601729D01*
X147747000Y-92421089D01*
X147747000Y-92236911D01*
X147711068Y-92056271D01*
X147640586Y-91886111D01*
X147538262Y-91732972D01*
X147408028Y-91602738D01*
X147254889Y-91500414D01*
X147084729Y-91429932D01*
X146904089Y-91394000D01*
X146719911Y-91394000D01*
X146539271Y-91429932D01*
X146369111Y-91500414D01*
X146215972Y-91602738D01*
X146085738Y-91732972D01*
X145983414Y-91886111D01*
X145912932Y-92056271D01*
X145877000Y-92236911D01*
X137985256Y-92236911D01*
X138052086Y-92136893D01*
X138122568Y-91966733D01*
X138158500Y-91786093D01*
X138158500Y-91601915D01*
X138122568Y-91421275D01*
X138052086Y-91251115D01*
X137949762Y-91097976D01*
X137819528Y-90967742D01*
X137666389Y-90865418D01*
X137496229Y-90794936D01*
X137315589Y-90759004D01*
X137131411Y-90759004D01*
X136950771Y-90794936D01*
X136780611Y-90865418D01*
X136627472Y-90967742D01*
X136497238Y-91097976D01*
X136394914Y-91251115D01*
X136324432Y-91421275D01*
X136288500Y-91601915D01*
X136288500Y-91786093D01*
X136324432Y-91966733D01*
X136394914Y-92136893D01*
X136497238Y-92290032D01*
X136627472Y-92420266D01*
X136649200Y-92434784D01*
X136563972Y-92491732D01*
X136433738Y-92621966D01*
X136331414Y-92775105D01*
X136260932Y-92945265D01*
X136225000Y-93125905D01*
X116795643Y-93125905D01*
X116811000Y-93048703D01*
X116811000Y-92879297D01*
X116777951Y-92713147D01*
X116750345Y-92646500D01*
X116777951Y-92579853D01*
X116811000Y-92413703D01*
X116811000Y-92244297D01*
X116777951Y-92078147D01*
X116750345Y-92011500D01*
X116777951Y-91944853D01*
X116811000Y-91778703D01*
X116811000Y-91609297D01*
X116777951Y-91443147D01*
X116750345Y-91376500D01*
X116777951Y-91309853D01*
X116811000Y-91143703D01*
X116811000Y-90974297D01*
X116777951Y-90808147D01*
X116750345Y-90741500D01*
X116777951Y-90674853D01*
X116811000Y-90508703D01*
X116811000Y-90339297D01*
X116777951Y-90173147D01*
X116750345Y-90106500D01*
X116777951Y-90039853D01*
X116811000Y-89873703D01*
X116811000Y-89704297D01*
X116777951Y-89538147D01*
X116750345Y-89471500D01*
X116777951Y-89404853D01*
X116811000Y-89238703D01*
X116811000Y-89069297D01*
X116777951Y-88903147D01*
X116713122Y-88746637D01*
X116619005Y-88605782D01*
X116499218Y-88485995D01*
X116358363Y-88391878D01*
X116201853Y-88327049D01*
X116035703Y-88294000D01*
X115866297Y-88294000D01*
X115700147Y-88327049D01*
X115633500Y-88354655D01*
X115566853Y-88327049D01*
X115400703Y-88294000D01*
X115231297Y-88294000D01*
X115065147Y-88327049D01*
X114998500Y-88354655D01*
X114931853Y-88327049D01*
X114765703Y-88294000D01*
X114596297Y-88294000D01*
X114430147Y-88327049D01*
X114363500Y-88354655D01*
X114296853Y-88327049D01*
X114130703Y-88294000D01*
X113961297Y-88294000D01*
X113795147Y-88327049D01*
X113728500Y-88354655D01*
X113661853Y-88327049D01*
X113495703Y-88294000D01*
X113326297Y-88294000D01*
X113160147Y-88327049D01*
X113093500Y-88354655D01*
X113026853Y-88327049D01*
X112860703Y-88294000D01*
X112691297Y-88294000D01*
X112525147Y-88327049D01*
X112368637Y-88391878D01*
X112227782Y-88485995D01*
X112166000Y-88547777D01*
X112166000Y-83791223D01*
X112227782Y-83853005D01*
G37*
X112227782Y-83853005D02*
X112368637Y-83947122D01*
X112525147Y-84011951D01*
X112691297Y-84045000D01*
X112860703Y-84045000D01*
X113026853Y-84011951D01*
X113093500Y-83984345D01*
X113160147Y-84011951D01*
X113326297Y-84045000D01*
X113495703Y-84045000D01*
X113661853Y-84011951D01*
X113728500Y-83984345D01*
X113795147Y-84011951D01*
X113961297Y-84045000D01*
X114130703Y-84045000D01*
X114296853Y-84011951D01*
X114363500Y-83984345D01*
X114430147Y-84011951D01*
X114596297Y-84045000D01*
X114765703Y-84045000D01*
X114931853Y-84011951D01*
X114998500Y-83984345D01*
X115065147Y-84011951D01*
X115231297Y-84045000D01*
X115400703Y-84045000D01*
X115566853Y-84011951D01*
X115633500Y-83984345D01*
X115700147Y-84011951D01*
X115866297Y-84045000D01*
X116035703Y-84045000D01*
X116078000Y-84036587D01*
X116078000Y-84582000D01*
X116090201Y-84705882D01*
X116126336Y-84825004D01*
X116185017Y-84934787D01*
X116263987Y-85031013D01*
X120581987Y-89349013D01*
X120678213Y-89427983D01*
X120787996Y-89486664D01*
X120907118Y-89522799D01*
X121031000Y-89535000D01*
X123859779Y-89535000D01*
X123814932Y-89643271D01*
X123779000Y-89823911D01*
X123779000Y-90008089D01*
X123814932Y-90188729D01*
X123885414Y-90358889D01*
X123987738Y-90512028D01*
X124117972Y-90642262D01*
X124271111Y-90744586D01*
X124441271Y-90815068D01*
X124621911Y-90851000D01*
X124806089Y-90851000D01*
X124986729Y-90815068D01*
X125156889Y-90744586D01*
X125310028Y-90642262D01*
X125440262Y-90512028D01*
X125542586Y-90358889D01*
X125613068Y-90188729D01*
X125649000Y-90008089D01*
X125649000Y-89823911D01*
X125613068Y-89643271D01*
X125568221Y-89535000D01*
X139787944Y-89535000D01*
X139781000Y-89569911D01*
X139781000Y-89754089D01*
X139816932Y-89934729D01*
X139887414Y-90104889D01*
X139989738Y-90258028D01*
X140119972Y-90388262D01*
X140273111Y-90490586D01*
X140443271Y-90561068D01*
X140623911Y-90597000D01*
X140808089Y-90597000D01*
X140863836Y-90585911D01*
X142956000Y-90585911D01*
X142956000Y-90770089D01*
X142991932Y-90950729D01*
X143062414Y-91120889D01*
X143164738Y-91274028D01*
X143294972Y-91404262D01*
X143448111Y-91506586D01*
X143618271Y-91577068D01*
X143798911Y-91613000D01*
X143983089Y-91613000D01*
X144163729Y-91577068D01*
X144333889Y-91506586D01*
X144487028Y-91404262D01*
X144617262Y-91274028D01*
X144719586Y-91120889D01*
X144790068Y-90950729D01*
X144826000Y-90770089D01*
X144826000Y-90585911D01*
X144790068Y-90405271D01*
X144719586Y-90235111D01*
X144617262Y-90081972D01*
X144487028Y-89951738D01*
X144333889Y-89849414D01*
X144163729Y-89778932D01*
X143983089Y-89743000D01*
X143798911Y-89743000D01*
X143618271Y-89778932D01*
X143448111Y-89849414D01*
X143294972Y-89951738D01*
X143164738Y-90081972D01*
X143062414Y-90235111D01*
X142991932Y-90405271D01*
X142956000Y-90585911D01*
X140863836Y-90585911D01*
X140988729Y-90561068D01*
X141158889Y-90490586D01*
X141312028Y-90388262D01*
X141442262Y-90258028D01*
X141544586Y-90104889D01*
X141615068Y-89934729D01*
X141651000Y-89754089D01*
X141651000Y-89569911D01*
X141644056Y-89535000D01*
X151785817Y-89535000D01*
X151676972Y-89607728D01*
X151546738Y-89737962D01*
X151444414Y-89891101D01*
X151373932Y-90061261D01*
X151338000Y-90241901D01*
X151338000Y-90426079D01*
X151373932Y-90606719D01*
X151444414Y-90776879D01*
X151546738Y-90930018D01*
X151676972Y-91060252D01*
X151830111Y-91162576D01*
X151956675Y-91215000D01*
X151934297Y-91215000D01*
X151768147Y-91248049D01*
X151611637Y-91312878D01*
X151470782Y-91406995D01*
X151350995Y-91526782D01*
X151256878Y-91667637D01*
X151192049Y-91824147D01*
X151159000Y-91990297D01*
X151159000Y-92159703D01*
X151192049Y-92325853D01*
X151219655Y-92392500D01*
X151192049Y-92459147D01*
X151159000Y-92625297D01*
X151159000Y-92794703D01*
X151192049Y-92960853D01*
X151219655Y-93027500D01*
X151192049Y-93094147D01*
X151159000Y-93260297D01*
X151159000Y-93429703D01*
X151192049Y-93595853D01*
X151219655Y-93662500D01*
X151192049Y-93729147D01*
X151159000Y-93895297D01*
X151159000Y-94064703D01*
X151192049Y-94230853D01*
X151219655Y-94297500D01*
X151192049Y-94364147D01*
X151159000Y-94530297D01*
X151159000Y-94699703D01*
X151192049Y-94865853D01*
X151219655Y-94932500D01*
X151192049Y-94999147D01*
X151159000Y-95165297D01*
X151159000Y-95334703D01*
X151192049Y-95500853D01*
X151219655Y-95567500D01*
X151192049Y-95634147D01*
X151159000Y-95800297D01*
X151159000Y-95969703D01*
X151192049Y-96135853D01*
X151256878Y-96292363D01*
X151350995Y-96433218D01*
X151470782Y-96553005D01*
X151611637Y-96647122D01*
X151768147Y-96711951D01*
X151934297Y-96745000D01*
X152103703Y-96745000D01*
X152269853Y-96711951D01*
X152336500Y-96684345D01*
X152403147Y-96711951D01*
X152569297Y-96745000D01*
X152738703Y-96745000D01*
X152904853Y-96711951D01*
X152971500Y-96684345D01*
X153038147Y-96711951D01*
X153204297Y-96745000D01*
X153373703Y-96745000D01*
X153539853Y-96711951D01*
X153606500Y-96684345D01*
X153673147Y-96711951D01*
X153839297Y-96745000D01*
X154008703Y-96745000D01*
X154174853Y-96711951D01*
X154241500Y-96684345D01*
X154308147Y-96711951D01*
X154474297Y-96745000D01*
X154643703Y-96745000D01*
X154809853Y-96711951D01*
X154876500Y-96684345D01*
X154943147Y-96711951D01*
X155109297Y-96745000D01*
X155278703Y-96745000D01*
X155444853Y-96711951D01*
X155448000Y-96710647D01*
X155448000Y-104965353D01*
X155444853Y-104964049D01*
X155278703Y-104931000D01*
X155109297Y-104931000D01*
X154943147Y-104964049D01*
X154876500Y-104991655D01*
X154809853Y-104964049D01*
X154643703Y-104931000D01*
X154474297Y-104931000D01*
X154308147Y-104964049D01*
X154241500Y-104991655D01*
X154174853Y-104964049D01*
X154008703Y-104931000D01*
X153839297Y-104931000D01*
X153673147Y-104964049D01*
X153606500Y-104991655D01*
X153539853Y-104964049D01*
X153373703Y-104931000D01*
X153204297Y-104931000D01*
X153038147Y-104964049D01*
X152971500Y-104991655D01*
X152904853Y-104964049D01*
X152738703Y-104931000D01*
X152569297Y-104931000D01*
X152403147Y-104964049D01*
X152336500Y-104991655D01*
X152269853Y-104964049D01*
X152103703Y-104931000D01*
X151934297Y-104931000D01*
X151768147Y-104964049D01*
X151611637Y-105028878D01*
X151470782Y-105122995D01*
X151350995Y-105242782D01*
X151256878Y-105383637D01*
X151192049Y-105540147D01*
X151159000Y-105706297D01*
X151159000Y-105875703D01*
X151192049Y-106041853D01*
X151219655Y-106108500D01*
X151192049Y-106175147D01*
X151159000Y-106341297D01*
X151159000Y-106510703D01*
X151192049Y-106676853D01*
X151219655Y-106743500D01*
X151192049Y-106810147D01*
X151159000Y-106976297D01*
X151159000Y-107145703D01*
X151192049Y-107311853D01*
X151219655Y-107378500D01*
X151192049Y-107445147D01*
X151159000Y-107611297D01*
X151159000Y-107780703D01*
X151192049Y-107946853D01*
X151219655Y-108013500D01*
X151192049Y-108080147D01*
X151159000Y-108246297D01*
X151159000Y-108415703D01*
X151192049Y-108581853D01*
X151219655Y-108648500D01*
X151192049Y-108715147D01*
X151159000Y-108881297D01*
X151159000Y-109050703D01*
X151192049Y-109216853D01*
X151219655Y-109283500D01*
X151192049Y-109350147D01*
X151159000Y-109516297D01*
X151159000Y-109685703D01*
X151192049Y-109851853D01*
X151256878Y-110008363D01*
X151350995Y-110149218D01*
X151470782Y-110269005D01*
X151611637Y-110363122D01*
X151768147Y-110427951D01*
X151934297Y-110461000D01*
X152103703Y-110461000D01*
X152269853Y-110427951D01*
X152336500Y-110400345D01*
X152403147Y-110427951D01*
X152569297Y-110461000D01*
X152738703Y-110461000D01*
X152904853Y-110427951D01*
X152971500Y-110400345D01*
X153038147Y-110427951D01*
X153204297Y-110461000D01*
X153373703Y-110461000D01*
X153539853Y-110427951D01*
X153606500Y-110400345D01*
X153673147Y-110427951D01*
X153839297Y-110461000D01*
X154008703Y-110461000D01*
X154174853Y-110427951D01*
X154241500Y-110400345D01*
X154308147Y-110427951D01*
X154474297Y-110461000D01*
X154643703Y-110461000D01*
X154809853Y-110427951D01*
X154876500Y-110400345D01*
X154943147Y-110427951D01*
X155109297Y-110461000D01*
X155278703Y-110461000D01*
X155444853Y-110427951D01*
X155448000Y-110426647D01*
X155448000Y-116942000D01*
X123642957Y-116942000D01*
X123659028Y-116931262D01*
X123789262Y-116801028D01*
X123891586Y-116647889D01*
X123962068Y-116477729D01*
X123998000Y-116297089D01*
X123998000Y-116112911D01*
X123962068Y-115932271D01*
X123891586Y-115762111D01*
X123789262Y-115608972D01*
X123750290Y-115570000D01*
X123789262Y-115531028D01*
X123891586Y-115377889D01*
X123962068Y-115207729D01*
X123998000Y-115027089D01*
X123998000Y-114842911D01*
X123962068Y-114662271D01*
X123891586Y-114492111D01*
X123789262Y-114338972D01*
X123750290Y-114300000D01*
X123789262Y-114261028D01*
X123824753Y-114207911D01*
X130383000Y-114207911D01*
X130383000Y-114392089D01*
X130418932Y-114572729D01*
X130489414Y-114742889D01*
X130591738Y-114896028D01*
X130721972Y-115026262D01*
X130875111Y-115128586D01*
X131045271Y-115199068D01*
X131225911Y-115235000D01*
X131410089Y-115235000D01*
X131590729Y-115199068D01*
X131760889Y-115128586D01*
X131914028Y-115026262D01*
X132044262Y-114896028D01*
X132146586Y-114742889D01*
X132217068Y-114572729D01*
X132253000Y-114392089D01*
X132253000Y-114207911D01*
X132217068Y-114027271D01*
X132146586Y-113857111D01*
X132044262Y-113703972D01*
X131914028Y-113573738D01*
X131760889Y-113471414D01*
X131590729Y-113400932D01*
X131410089Y-113365000D01*
X131225911Y-113365000D01*
X131045271Y-113400932D01*
X130875111Y-113471414D01*
X130721972Y-113573738D01*
X130591738Y-113703972D01*
X130489414Y-113857111D01*
X130418932Y-114027271D01*
X130383000Y-114207911D01*
X123824753Y-114207911D01*
X123891586Y-114107889D01*
X123962068Y-113937729D01*
X123998000Y-113757089D01*
X123998000Y-113572911D01*
X123962068Y-113392271D01*
X123891586Y-113222111D01*
X123789262Y-113068972D01*
X123659028Y-112938738D01*
X123505889Y-112836414D01*
X123335729Y-112765932D01*
X123155089Y-112730000D01*
X122970911Y-112730000D01*
X122790271Y-112765932D01*
X122620111Y-112836414D01*
X122466972Y-112938738D01*
X122336738Y-113068972D01*
X122234414Y-113222111D01*
X122163932Y-113392271D01*
X122128000Y-113572911D01*
X122128000Y-113757089D01*
X122163932Y-113937729D01*
X122234414Y-114107889D01*
X122336738Y-114261028D01*
X122375710Y-114300000D01*
X122336738Y-114338972D01*
X122234414Y-114492111D01*
X122163932Y-114662271D01*
X122128000Y-114842911D01*
X122128000Y-115027089D01*
X122163932Y-115207729D01*
X122234414Y-115377889D01*
X122336738Y-115531028D01*
X122375710Y-115570000D01*
X122336738Y-115608972D01*
X122234414Y-115762111D01*
X122163932Y-115932271D01*
X122128000Y-116112911D01*
X122128000Y-116297089D01*
X122163932Y-116477729D01*
X122234414Y-116647889D01*
X122336738Y-116801028D01*
X122466972Y-116931262D01*
X122483043Y-116942000D01*
X120805854Y-116942000D01*
X121078269Y-116759978D01*
X121359978Y-116478269D01*
X121581316Y-116147013D01*
X121733776Y-115778941D01*
X121811500Y-115388199D01*
X121811500Y-114989801D01*
X121733776Y-114599059D01*
X121581316Y-114230987D01*
X121359978Y-113899731D01*
X121078269Y-113618022D01*
X120747013Y-113396684D01*
X120378941Y-113244224D01*
X119988199Y-113166500D01*
X119589801Y-113166500D01*
X119199059Y-113244224D01*
X118830987Y-113396684D01*
X118499731Y-113618022D01*
X118218022Y-113899731D01*
X117996684Y-114230987D01*
X117844224Y-114599059D01*
X117766500Y-114989801D01*
X117766500Y-115388199D01*
X117844224Y-115778941D01*
X117996684Y-116147013D01*
X118218022Y-116478269D01*
X118499731Y-116759978D01*
X118772146Y-116942000D01*
X114935854Y-116942000D01*
X115208269Y-116759978D01*
X115489978Y-116478269D01*
X115711316Y-116147013D01*
X115863776Y-115778941D01*
X115941500Y-115388199D01*
X115941500Y-114989801D01*
X115863776Y-114599059D01*
X115711316Y-114230987D01*
X115489978Y-113899731D01*
X115208269Y-113618022D01*
X114877013Y-113396684D01*
X114508941Y-113244224D01*
X114118199Y-113166500D01*
X113719801Y-113166500D01*
X113329059Y-113244224D01*
X112960987Y-113396684D01*
X112629731Y-113618022D01*
X112348022Y-113899731D01*
X112166000Y-114172146D01*
X112166000Y-112068344D01*
X114969000Y-112068344D01*
X114969000Y-112439656D01*
X115041439Y-112803834D01*
X115183534Y-113146882D01*
X115389825Y-113455618D01*
X115652382Y-113718175D01*
X115961118Y-113924466D01*
X116304166Y-114066561D01*
X116668344Y-114139000D01*
X117039656Y-114139000D01*
X117403834Y-114066561D01*
X117746882Y-113924466D01*
X118055618Y-113718175D01*
X118318175Y-113455618D01*
X118524466Y-113146882D01*
X118666561Y-112803834D01*
X118739000Y-112439656D01*
X118739000Y-112429911D01*
X133050000Y-112429911D01*
X133050000Y-112614089D01*
X133085932Y-112794729D01*
X133156414Y-112964889D01*
X133258738Y-113118028D01*
X133388972Y-113248262D01*
X133542111Y-113350586D01*
X133712271Y-113421068D01*
X133892911Y-113457000D01*
X134077089Y-113457000D01*
X134257729Y-113421068D01*
X134427889Y-113350586D01*
X134581028Y-113248262D01*
X134711262Y-113118028D01*
X134813586Y-112964889D01*
X134884068Y-112794729D01*
X134920000Y-112614089D01*
X134920000Y-112429911D01*
X136479000Y-112429911D01*
X136479000Y-112614089D01*
X136514932Y-112794729D01*
X136585414Y-112964889D01*
X136687738Y-113118028D01*
X136817972Y-113248262D01*
X136971111Y-113350586D01*
X137141271Y-113421068D01*
X137321911Y-113457000D01*
X137506089Y-113457000D01*
X137686729Y-113421068D01*
X137856889Y-113350586D01*
X138010028Y-113248262D01*
X138140262Y-113118028D01*
X138242586Y-112964889D01*
X138313068Y-112794729D01*
X138349000Y-112614089D01*
X138349000Y-112429911D01*
X138313068Y-112249271D01*
X138242586Y-112079111D01*
X138140262Y-111925972D01*
X138010028Y-111795738D01*
X138008791Y-111794911D01*
X139146000Y-111794911D01*
X139146000Y-111979089D01*
X139181932Y-112159729D01*
X139252414Y-112329889D01*
X139295920Y-112395000D01*
X139252414Y-112460111D01*
X139181932Y-112630271D01*
X139146000Y-112810911D01*
X139146000Y-112995089D01*
X139181932Y-113175729D01*
X139252414Y-113345889D01*
X139354738Y-113499028D01*
X139484972Y-113629262D01*
X139638111Y-113731586D01*
X139783964Y-113792000D01*
X139638111Y-113852414D01*
X139484972Y-113954738D01*
X139354738Y-114084972D01*
X139252414Y-114238111D01*
X139181932Y-114408271D01*
X139146000Y-114588911D01*
X139146000Y-114773089D01*
X139181932Y-114953729D01*
X139252414Y-115123889D01*
X139354738Y-115277028D01*
X139484972Y-115407262D01*
X139638111Y-115509586D01*
X139808271Y-115580068D01*
X139988911Y-115616000D01*
X140173089Y-115616000D01*
X140353729Y-115580068D01*
X140523889Y-115509586D01*
X140677028Y-115407262D01*
X140807262Y-115277028D01*
X140909586Y-115123889D01*
X140980068Y-114953729D01*
X141016000Y-114773089D01*
X141016000Y-114588911D01*
X140980068Y-114408271D01*
X140909586Y-114238111D01*
X140807262Y-114084972D01*
X140677028Y-113954738D01*
X140523889Y-113852414D01*
X140378036Y-113792000D01*
X140523889Y-113731586D01*
X140677028Y-113629262D01*
X140733379Y-113572911D01*
X147909000Y-113572911D01*
X147909000Y-113757089D01*
X147944932Y-113937729D01*
X148015414Y-114107889D01*
X148117738Y-114261028D01*
X148247972Y-114391262D01*
X148401111Y-114493586D01*
X148571271Y-114564068D01*
X148751911Y-114600000D01*
X148936089Y-114600000D01*
X149116729Y-114564068D01*
X149286889Y-114493586D01*
X149440028Y-114391262D01*
X149570262Y-114261028D01*
X149672586Y-114107889D01*
X149743068Y-113937729D01*
X149779000Y-113757089D01*
X149779000Y-113572911D01*
X149743068Y-113392271D01*
X149672586Y-113222111D01*
X149570262Y-113068972D01*
X149440028Y-112938738D01*
X149286889Y-112836414D01*
X149116729Y-112765932D01*
X148936089Y-112730000D01*
X148751911Y-112730000D01*
X148571271Y-112765932D01*
X148401111Y-112836414D01*
X148247972Y-112938738D01*
X148117738Y-113068972D01*
X148015414Y-113222111D01*
X147944932Y-113392271D01*
X147909000Y-113572911D01*
X140733379Y-113572911D01*
X140807262Y-113499028D01*
X140909586Y-113345889D01*
X140980068Y-113175729D01*
X141016000Y-112995089D01*
X141016000Y-112810911D01*
X140980068Y-112630271D01*
X140909586Y-112460111D01*
X140866080Y-112395000D01*
X140909586Y-112329889D01*
X140980068Y-112159729D01*
X141016000Y-111979089D01*
X141016000Y-111794911D01*
X140980068Y-111614271D01*
X140949682Y-111540911D01*
X149814000Y-111540911D01*
X149814000Y-111725089D01*
X149849932Y-111905729D01*
X149920414Y-112075889D01*
X150022738Y-112229028D01*
X150152972Y-112359262D01*
X150306111Y-112461586D01*
X150476271Y-112532068D01*
X150656911Y-112568000D01*
X150841089Y-112568000D01*
X151021729Y-112532068D01*
X151191889Y-112461586D01*
X151345028Y-112359262D01*
X151475262Y-112229028D01*
X151577586Y-112075889D01*
X151648068Y-111905729D01*
X151684000Y-111725089D01*
X151684000Y-111540911D01*
X151648068Y-111360271D01*
X151577586Y-111190111D01*
X151475262Y-111036972D01*
X151345028Y-110906738D01*
X151191889Y-110804414D01*
X151021729Y-110733932D01*
X150841089Y-110698000D01*
X150656911Y-110698000D01*
X150476271Y-110733932D01*
X150306111Y-110804414D01*
X150152972Y-110906738D01*
X150022738Y-111036972D01*
X149920414Y-111190111D01*
X149849932Y-111360271D01*
X149814000Y-111540911D01*
X140949682Y-111540911D01*
X140909586Y-111444111D01*
X140807262Y-111290972D01*
X140677028Y-111160738D01*
X140523889Y-111058414D01*
X140353729Y-110987932D01*
X140173089Y-110952000D01*
X139988911Y-110952000D01*
X139808271Y-110987932D01*
X139638111Y-111058414D01*
X139484972Y-111160738D01*
X139354738Y-111290972D01*
X139252414Y-111444111D01*
X139181932Y-111614271D01*
X139146000Y-111794911D01*
X138008791Y-111794911D01*
X137856889Y-111693414D01*
X137686729Y-111622932D01*
X137506089Y-111587000D01*
X137321911Y-111587000D01*
X137141271Y-111622932D01*
X136971111Y-111693414D01*
X136817972Y-111795738D01*
X136687738Y-111925972D01*
X136585414Y-112079111D01*
X136514932Y-112249271D01*
X136479000Y-112429911D01*
X134920000Y-112429911D01*
X134884068Y-112249271D01*
X134813586Y-112079111D01*
X134711262Y-111925972D01*
X134581028Y-111795738D01*
X134427889Y-111693414D01*
X134257729Y-111622932D01*
X134077089Y-111587000D01*
X133892911Y-111587000D01*
X133712271Y-111622932D01*
X133542111Y-111693414D01*
X133388972Y-111795738D01*
X133258738Y-111925972D01*
X133156414Y-112079111D01*
X133085932Y-112249271D01*
X133050000Y-112429911D01*
X118739000Y-112429911D01*
X118739000Y-112068344D01*
X118666561Y-111704166D01*
X118524466Y-111361118D01*
X118318175Y-111052382D01*
X118055618Y-110789825D01*
X117746882Y-110583534D01*
X117403834Y-110441439D01*
X117039656Y-110369000D01*
X116668344Y-110369000D01*
X116304166Y-110441439D01*
X115961118Y-110583534D01*
X115652382Y-110789825D01*
X115389825Y-111052382D01*
X115183534Y-111361118D01*
X115041439Y-111704166D01*
X114969000Y-112068344D01*
X112166000Y-112068344D01*
X112166000Y-110335854D01*
X112348022Y-110608269D01*
X112629731Y-110889978D01*
X112960987Y-111111316D01*
X113329059Y-111263776D01*
X113719801Y-111341500D01*
X114118199Y-111341500D01*
X114508941Y-111263776D01*
X114877013Y-111111316D01*
X115208269Y-110889978D01*
X115489978Y-110608269D01*
X115711316Y-110277013D01*
X115863776Y-109908941D01*
X115941500Y-109518199D01*
X115941500Y-109119801D01*
X117766500Y-109119801D01*
X117766500Y-109518199D01*
X117844224Y-109908941D01*
X117996684Y-110277013D01*
X118218022Y-110608269D01*
X118499731Y-110889978D01*
X118830987Y-111111316D01*
X119199059Y-111263776D01*
X119589801Y-111341500D01*
X119988199Y-111341500D01*
X120378941Y-111263776D01*
X120747013Y-111111316D01*
X121078269Y-110889978D01*
X121359978Y-110608269D01*
X121581316Y-110277013D01*
X121732152Y-109912861D01*
X136380052Y-109912861D01*
X136380052Y-110097039D01*
X136415984Y-110277679D01*
X136486466Y-110447839D01*
X136588790Y-110600978D01*
X136719024Y-110731212D01*
X136872163Y-110833536D01*
X137042323Y-110904018D01*
X137222963Y-110939950D01*
X137407141Y-110939950D01*
X137587781Y-110904018D01*
X137757941Y-110833536D01*
X137911080Y-110731212D01*
X138041314Y-110600978D01*
X138143638Y-110447839D01*
X138214120Y-110277679D01*
X138250052Y-110097039D01*
X138250052Y-109912861D01*
X138214120Y-109732221D01*
X138143638Y-109562061D01*
X138041314Y-109408922D01*
X137911080Y-109278688D01*
X137757941Y-109176364D01*
X137587781Y-109105882D01*
X137407141Y-109069950D01*
X137222963Y-109069950D01*
X137042323Y-109105882D01*
X136872163Y-109176364D01*
X136719024Y-109278688D01*
X136588790Y-109408922D01*
X136486466Y-109562061D01*
X136415984Y-109732221D01*
X136380052Y-109912861D01*
X121732152Y-109912861D01*
X121733776Y-109908941D01*
X121811500Y-109518199D01*
X121811500Y-109119801D01*
X121733776Y-108729059D01*
X121581316Y-108360987D01*
X121359978Y-108029731D01*
X121078269Y-107748022D01*
X120747013Y-107526684D01*
X120378941Y-107374224D01*
X119988199Y-107296500D01*
X119589801Y-107296500D01*
X119199059Y-107374224D01*
X118830987Y-107526684D01*
X118499731Y-107748022D01*
X118218022Y-108029731D01*
X117996684Y-108360987D01*
X117844224Y-108729059D01*
X117766500Y-109119801D01*
X115941500Y-109119801D01*
X115863776Y-108729059D01*
X115711316Y-108360987D01*
X115489978Y-108029731D01*
X115208269Y-107748022D01*
X114877013Y-107526684D01*
X114508941Y-107374224D01*
X114118199Y-107296500D01*
X113719801Y-107296500D01*
X113329059Y-107374224D01*
X112960987Y-107526684D01*
X112629731Y-107748022D01*
X112348022Y-108029731D01*
X112166000Y-108302146D01*
X112166000Y-105410854D01*
X112348022Y-105683269D01*
X112629731Y-105964978D01*
X112960987Y-106186316D01*
X113329059Y-106338776D01*
X113719801Y-106416500D01*
X114118199Y-106416500D01*
X114508941Y-106338776D01*
X114877013Y-106186316D01*
X115208269Y-105964978D01*
X115489978Y-105683269D01*
X115711316Y-105352013D01*
X115863776Y-104983941D01*
X115941500Y-104593199D01*
X115941500Y-104194801D01*
X117766500Y-104194801D01*
X117766500Y-104593199D01*
X117844224Y-104983941D01*
X117996684Y-105352013D01*
X118218022Y-105683269D01*
X118499731Y-105964978D01*
X118830987Y-106186316D01*
X119199059Y-106338776D01*
X119589801Y-106416500D01*
X119988199Y-106416500D01*
X120378941Y-106338776D01*
X120747013Y-106186316D01*
X121078269Y-105964978D01*
X121288749Y-105754498D01*
X123653020Y-105754498D01*
X123653020Y-105938676D01*
X123688952Y-106119316D01*
X123759434Y-106289476D01*
X123861758Y-106442615D01*
X123991992Y-106572849D01*
X124145131Y-106675173D01*
X124315291Y-106745655D01*
X124495931Y-106781587D01*
X124680109Y-106781587D01*
X124860749Y-106745655D01*
X124934972Y-106714911D01*
X131017982Y-106714911D01*
X131017982Y-106899089D01*
X131053914Y-107079729D01*
X131124396Y-107249889D01*
X131226720Y-107403028D01*
X131356954Y-107533262D01*
X131510093Y-107635586D01*
X131680253Y-107706068D01*
X131860893Y-107742000D01*
X131879833Y-107742000D01*
X131886414Y-107757889D01*
X131988738Y-107911028D01*
X132118972Y-108041262D01*
X132272111Y-108143586D01*
X132442271Y-108214068D01*
X132622911Y-108250000D01*
X132807089Y-108250000D01*
X132987729Y-108214068D01*
X133157889Y-108143586D01*
X133311028Y-108041262D01*
X133441262Y-107911028D01*
X133519182Y-107794411D01*
X135145500Y-107794411D01*
X135145500Y-107978589D01*
X135181432Y-108159229D01*
X135251914Y-108329389D01*
X135354238Y-108482528D01*
X135484472Y-108612762D01*
X135637611Y-108715086D01*
X135807771Y-108785568D01*
X135988411Y-108821500D01*
X136172589Y-108821500D01*
X136353229Y-108785568D01*
X136523389Y-108715086D01*
X136676528Y-108612762D01*
X136806762Y-108482528D01*
X136906000Y-108334008D01*
X137005238Y-108482528D01*
X137135472Y-108612762D01*
X137288611Y-108715086D01*
X137458771Y-108785568D01*
X137639411Y-108821500D01*
X137823589Y-108821500D01*
X138004229Y-108785568D01*
X138097556Y-108746911D01*
X142448000Y-108746911D01*
X142448000Y-108931089D01*
X142483932Y-109111729D01*
X142554414Y-109281889D01*
X142597920Y-109347000D01*
X142554414Y-109412111D01*
X142483932Y-109582271D01*
X142448000Y-109762911D01*
X142448000Y-109947089D01*
X142483932Y-110127729D01*
X142554414Y-110297889D01*
X142656738Y-110451028D01*
X142786972Y-110581262D01*
X142940111Y-110683586D01*
X143110271Y-110754068D01*
X143290911Y-110790000D01*
X143475089Y-110790000D01*
X143655729Y-110754068D01*
X143825889Y-110683586D01*
X143979028Y-110581262D01*
X144109262Y-110451028D01*
X144211586Y-110297889D01*
X144282068Y-110127729D01*
X144318000Y-109947089D01*
X144318000Y-109762911D01*
X144282068Y-109582271D01*
X144211586Y-109412111D01*
X144168080Y-109347000D01*
X144211586Y-109281889D01*
X144282068Y-109111729D01*
X144318000Y-108931089D01*
X144318000Y-108763879D01*
X144533426Y-108763879D01*
X144533426Y-108948057D01*
X144569358Y-109128697D01*
X144639840Y-109298857D01*
X144742164Y-109451996D01*
X144872398Y-109582230D01*
X145025537Y-109684554D01*
X145195697Y-109755036D01*
X145376337Y-109790968D01*
X145560515Y-109790968D01*
X145741155Y-109755036D01*
X145911315Y-109684554D01*
X146064454Y-109582230D01*
X146194688Y-109451996D01*
X146297012Y-109298857D01*
X146367494Y-109128697D01*
X146403426Y-108948057D01*
X146403426Y-108763879D01*
X146400051Y-108746911D01*
X146512000Y-108746911D01*
X146512000Y-108931089D01*
X146547932Y-109111729D01*
X146618414Y-109281889D01*
X146661920Y-109347000D01*
X146618414Y-109412111D01*
X146547932Y-109582271D01*
X146512000Y-109762911D01*
X146512000Y-109947089D01*
X146547932Y-110127729D01*
X146618414Y-110297889D01*
X146720738Y-110451028D01*
X146850972Y-110581262D01*
X147004111Y-110683586D01*
X147174271Y-110754068D01*
X147354911Y-110790000D01*
X147539089Y-110790000D01*
X147719729Y-110754068D01*
X147889889Y-110683586D01*
X148043028Y-110581262D01*
X148173262Y-110451028D01*
X148275586Y-110297889D01*
X148346068Y-110127729D01*
X148382000Y-109947089D01*
X148382000Y-109762911D01*
X148346068Y-109582271D01*
X148275586Y-109412111D01*
X148232080Y-109347000D01*
X148275586Y-109281889D01*
X148346068Y-109111729D01*
X148382000Y-108931089D01*
X148382000Y-108746911D01*
X148346068Y-108566271D01*
X148275586Y-108396111D01*
X148173262Y-108242972D01*
X148043028Y-108112738D01*
X147889889Y-108010414D01*
X147719729Y-107939932D01*
X147539089Y-107904000D01*
X147354911Y-107904000D01*
X147174271Y-107939932D01*
X147004111Y-108010414D01*
X146850972Y-108112738D01*
X146720738Y-108242972D01*
X146618414Y-108396111D01*
X146547932Y-108566271D01*
X146512000Y-108746911D01*
X146400051Y-108746911D01*
X146367494Y-108583239D01*
X146297012Y-108413079D01*
X146194688Y-108259940D01*
X146064454Y-108129706D01*
X145911315Y-108027382D01*
X145741155Y-107956900D01*
X145560515Y-107920968D01*
X145376337Y-107920968D01*
X145195697Y-107956900D01*
X145025537Y-108027382D01*
X144872398Y-108129706D01*
X144742164Y-108259940D01*
X144639840Y-108413079D01*
X144569358Y-108583239D01*
X144533426Y-108763879D01*
X144318000Y-108763879D01*
X144318000Y-108746911D01*
X144282068Y-108566271D01*
X144211586Y-108396111D01*
X144109262Y-108242972D01*
X143979028Y-108112738D01*
X143825889Y-108010414D01*
X143655729Y-107939932D01*
X143475089Y-107904000D01*
X143290911Y-107904000D01*
X143110271Y-107939932D01*
X142940111Y-108010414D01*
X142786972Y-108112738D01*
X142656738Y-108242972D01*
X142554414Y-108396111D01*
X142483932Y-108566271D01*
X142448000Y-108746911D01*
X138097556Y-108746911D01*
X138174389Y-108715086D01*
X138327528Y-108612762D01*
X138457762Y-108482528D01*
X138560086Y-108329389D01*
X138630568Y-108159229D01*
X138666500Y-107978589D01*
X138666500Y-107794411D01*
X138630568Y-107613771D01*
X138560086Y-107443611D01*
X138457762Y-107290472D01*
X138327528Y-107160238D01*
X138174389Y-107057914D01*
X138004229Y-106987432D01*
X137823589Y-106951500D01*
X137639411Y-106951500D01*
X137458771Y-106987432D01*
X137288611Y-107057914D01*
X137135472Y-107160238D01*
X137005238Y-107290472D01*
X136906000Y-107438992D01*
X136806762Y-107290472D01*
X136676528Y-107160238D01*
X136523389Y-107057914D01*
X136353229Y-106987432D01*
X136172589Y-106951500D01*
X135988411Y-106951500D01*
X135807771Y-106987432D01*
X135637611Y-107057914D01*
X135484472Y-107160238D01*
X135354238Y-107290472D01*
X135251914Y-107443611D01*
X135181432Y-107613771D01*
X135145500Y-107794411D01*
X133519182Y-107794411D01*
X133543586Y-107757889D01*
X133614068Y-107587729D01*
X133650000Y-107407089D01*
X133650000Y-107222911D01*
X133614068Y-107042271D01*
X133543586Y-106872111D01*
X133441262Y-106718972D01*
X133311028Y-106588738D01*
X133157889Y-106486414D01*
X132987729Y-106415932D01*
X132807089Y-106380000D01*
X132788149Y-106380000D01*
X132781568Y-106364111D01*
X132679244Y-106210972D01*
X132549010Y-106080738D01*
X132395871Y-105978414D01*
X132225711Y-105907932D01*
X132045071Y-105872000D01*
X131860893Y-105872000D01*
X131680253Y-105907932D01*
X131510093Y-105978414D01*
X131356954Y-106080738D01*
X131226720Y-106210972D01*
X131124396Y-106364111D01*
X131053914Y-106534271D01*
X131017982Y-106714911D01*
X124934972Y-106714911D01*
X125030909Y-106675173D01*
X125184048Y-106572849D01*
X125314282Y-106442615D01*
X125416606Y-106289476D01*
X125487088Y-106119316D01*
X125523020Y-105938676D01*
X125523020Y-105754498D01*
X125487088Y-105573858D01*
X125416606Y-105403698D01*
X125314282Y-105250559D01*
X125184048Y-105120325D01*
X125030909Y-105018001D01*
X124860749Y-104947519D01*
X124680109Y-104911587D01*
X124495931Y-104911587D01*
X124315291Y-104947519D01*
X124145131Y-105018001D01*
X123991992Y-105120325D01*
X123861758Y-105250559D01*
X123759434Y-105403698D01*
X123688952Y-105573858D01*
X123653020Y-105754498D01*
X121288749Y-105754498D01*
X121359978Y-105683269D01*
X121581316Y-105352013D01*
X121733776Y-104983941D01*
X121811500Y-104593199D01*
X121811500Y-104194801D01*
X121733776Y-103804059D01*
X121581316Y-103435987D01*
X121565898Y-103412911D01*
X123653030Y-103412911D01*
X123653030Y-103597089D01*
X123688962Y-103777729D01*
X123759444Y-103947889D01*
X123861768Y-104101028D01*
X123992002Y-104231262D01*
X124145141Y-104333586D01*
X124315301Y-104404068D01*
X124495941Y-104440000D01*
X124680119Y-104440000D01*
X124860759Y-104404068D01*
X125030919Y-104333586D01*
X125184058Y-104231262D01*
X125314292Y-104101028D01*
X125416616Y-103947889D01*
X125487098Y-103777729D01*
X125523030Y-103597089D01*
X125523030Y-103412911D01*
X125487098Y-103232271D01*
X125416616Y-103062111D01*
X125314292Y-102908972D01*
X125184058Y-102778738D01*
X125030919Y-102676414D01*
X124860759Y-102605932D01*
X124680119Y-102570000D01*
X124495941Y-102570000D01*
X124315301Y-102605932D01*
X124145141Y-102676414D01*
X123992002Y-102778738D01*
X123861768Y-102908972D01*
X123759444Y-103062111D01*
X123688962Y-103232271D01*
X123653030Y-103412911D01*
X121565898Y-103412911D01*
X121359978Y-103104731D01*
X121078269Y-102823022D01*
X120747013Y-102601684D01*
X120378941Y-102449224D01*
X119988199Y-102371500D01*
X119589801Y-102371500D01*
X119199059Y-102449224D01*
X118830987Y-102601684D01*
X118499731Y-102823022D01*
X118218022Y-103104731D01*
X117996684Y-103435987D01*
X117844224Y-103804059D01*
X117766500Y-104194801D01*
X115941500Y-104194801D01*
X115863776Y-103804059D01*
X115711316Y-103435987D01*
X115489978Y-103104731D01*
X115208269Y-102823022D01*
X114877013Y-102601684D01*
X114508941Y-102449224D01*
X114118199Y-102371500D01*
X113719801Y-102371500D01*
X113329059Y-102449224D01*
X112960987Y-102601684D01*
X112629731Y-102823022D01*
X112348022Y-103104731D01*
X112166000Y-103377146D01*
X112166000Y-101273344D01*
X114969000Y-101273344D01*
X114969000Y-101644656D01*
X115041439Y-102008834D01*
X115183534Y-102351882D01*
X115389825Y-102660618D01*
X115652382Y-102923175D01*
X115961118Y-103129466D01*
X116304166Y-103271561D01*
X116668344Y-103344000D01*
X117039656Y-103344000D01*
X117403834Y-103271561D01*
X117746882Y-103129466D01*
X118055618Y-102923175D01*
X118318175Y-102660618D01*
X118524466Y-102351882D01*
X118558419Y-102269911D01*
X128858998Y-102269911D01*
X128858998Y-102454089D01*
X128894930Y-102634729D01*
X128965412Y-102804889D01*
X129067736Y-102958028D01*
X129197970Y-103088262D01*
X129351109Y-103190586D01*
X129521269Y-103261068D01*
X129701909Y-103297000D01*
X129886087Y-103297000D01*
X130066727Y-103261068D01*
X130236887Y-103190586D01*
X130390026Y-103088262D01*
X130520260Y-102958028D01*
X130622584Y-102804889D01*
X130648000Y-102743528D01*
X130790787Y-102715126D01*
X130816499Y-102704476D01*
X130755223Y-102852410D01*
X130719291Y-103033050D01*
X130719291Y-103217228D01*
X130755223Y-103397868D01*
X130825705Y-103568028D01*
X130928029Y-103721167D01*
X131058263Y-103851401D01*
X131211402Y-103953725D01*
X131381562Y-104024207D01*
X131562202Y-104060139D01*
X131746380Y-104060139D01*
X131927020Y-104024207D01*
X132062807Y-103967963D01*
X132181542Y-104017144D01*
X132362182Y-104053076D01*
X132546360Y-104053076D01*
X132727000Y-104017144D01*
X132809141Y-103983120D01*
X132810520Y-103984042D01*
X132980680Y-104054524D01*
X133050000Y-104068313D01*
X133050000Y-104105095D01*
X133085932Y-104285735D01*
X133156414Y-104455895D01*
X133258738Y-104609034D01*
X133388972Y-104739268D01*
X133542111Y-104841592D01*
X133712271Y-104912074D01*
X133892911Y-104948006D01*
X134077089Y-104948006D01*
X134257729Y-104912074D01*
X134427889Y-104841592D01*
X134581028Y-104739268D01*
X134711262Y-104609034D01*
X134813586Y-104455895D01*
X134884068Y-104285735D01*
X134920000Y-104105095D01*
X134920000Y-103920917D01*
X134884068Y-103740277D01*
X134813586Y-103570117D01*
X134747452Y-103471140D01*
X134873591Y-103523388D01*
X135054231Y-103559320D01*
X135238409Y-103559320D01*
X135419049Y-103523388D01*
X135589209Y-103452906D01*
X135742348Y-103350582D01*
X135872582Y-103220348D01*
X135974906Y-103067209D01*
X136045388Y-102897049D01*
X136081320Y-102716409D01*
X136081320Y-102532231D01*
X136045388Y-102351591D01*
X135975603Y-102183113D01*
X135976609Y-102181607D01*
X136047091Y-102011447D01*
X136083023Y-101830807D01*
X136083023Y-101646629D01*
X136047091Y-101465989D01*
X135976609Y-101295829D01*
X135948233Y-101253361D01*
X137367450Y-101253361D01*
X137367450Y-101437539D01*
X137403382Y-101618179D01*
X137473864Y-101788339D01*
X137576188Y-101941478D01*
X137706422Y-102071712D01*
X137859561Y-102174036D01*
X138029721Y-102244518D01*
X138131054Y-102264675D01*
X138130012Y-102269911D01*
X138130012Y-102454089D01*
X138165944Y-102634729D01*
X138236426Y-102804889D01*
X138338750Y-102958028D01*
X138468984Y-103088262D01*
X138622123Y-103190586D01*
X138792283Y-103261068D01*
X138845234Y-103271601D01*
X138749111Y-103311416D01*
X138595972Y-103413740D01*
X138465738Y-103543974D01*
X138363414Y-103697113D01*
X138292932Y-103867273D01*
X138257000Y-104047913D01*
X138257000Y-104232091D01*
X138292932Y-104412731D01*
X138363414Y-104582891D01*
X138465738Y-104736030D01*
X138595972Y-104866264D01*
X138605418Y-104872575D01*
X138522089Y-104856000D01*
X138337911Y-104856000D01*
X138157271Y-104891932D01*
X137987111Y-104962414D01*
X137833972Y-105064738D01*
X137703738Y-105194972D01*
X137601414Y-105348111D01*
X137530932Y-105518271D01*
X137495000Y-105698911D01*
X137495000Y-105883089D01*
X137530932Y-106063729D01*
X137601414Y-106233889D01*
X137703738Y-106387028D01*
X137833972Y-106517262D01*
X137987111Y-106619586D01*
X138157271Y-106690068D01*
X138337911Y-106726000D01*
X138522089Y-106726000D01*
X138702729Y-106690068D01*
X138872889Y-106619586D01*
X139026028Y-106517262D01*
X139156262Y-106387028D01*
X139258586Y-106233889D01*
X139329068Y-106063729D01*
X139365000Y-105883089D01*
X139365000Y-105698911D01*
X139329068Y-105518271D01*
X139258586Y-105348111D01*
X139156262Y-105194972D01*
X139026028Y-105064738D01*
X139016582Y-105058427D01*
X139099911Y-105075002D01*
X139284089Y-105075002D01*
X139412486Y-105049462D01*
X139454611Y-105112507D01*
X139584845Y-105242741D01*
X139737984Y-105345065D01*
X139908144Y-105415547D01*
X140088784Y-105451479D01*
X140162000Y-105451479D01*
X140162000Y-105629089D01*
X140197932Y-105809729D01*
X140220637Y-105864545D01*
X140141414Y-105983111D01*
X140070932Y-106153271D01*
X140035000Y-106333911D01*
X140035000Y-106518089D01*
X140070932Y-106698729D01*
X140141414Y-106868889D01*
X140243738Y-107022028D01*
X140373972Y-107152262D01*
X140527111Y-107254586D01*
X140697271Y-107325068D01*
X140877911Y-107361000D01*
X141062089Y-107361000D01*
X141242729Y-107325068D01*
X141412889Y-107254586D01*
X141566028Y-107152262D01*
X141696262Y-107022028D01*
X141798586Y-106868889D01*
X141869068Y-106698729D01*
X141891111Y-106587911D01*
X147528000Y-106587911D01*
X147528000Y-106772089D01*
X147563932Y-106952729D01*
X147634414Y-107122889D01*
X147736738Y-107276028D01*
X147866972Y-107406262D01*
X148020111Y-107508586D01*
X148190271Y-107579068D01*
X148370911Y-107615000D01*
X148555089Y-107615000D01*
X148735729Y-107579068D01*
X148905889Y-107508586D01*
X149059028Y-107406262D01*
X149189262Y-107276028D01*
X149291586Y-107122889D01*
X149362068Y-106952729D01*
X149398000Y-106772089D01*
X149398000Y-106587911D01*
X149362068Y-106407271D01*
X149291586Y-106237111D01*
X149189262Y-106083972D01*
X149059028Y-105953738D01*
X148905889Y-105851414D01*
X148735729Y-105780932D01*
X148555089Y-105745000D01*
X148370911Y-105745000D01*
X148190271Y-105780932D01*
X148020111Y-105851414D01*
X147866972Y-105953738D01*
X147736738Y-106083972D01*
X147634414Y-106237111D01*
X147563932Y-106407271D01*
X147528000Y-106587911D01*
X141891111Y-106587911D01*
X141905000Y-106518089D01*
X141905000Y-106333911D01*
X141869068Y-106153271D01*
X141846363Y-106098455D01*
X141925586Y-105979889D01*
X141996068Y-105809729D01*
X142032000Y-105629089D01*
X142032000Y-105444911D01*
X141996068Y-105264271D01*
X141925586Y-105094111D01*
X141924510Y-105092501D01*
X141925586Y-105090891D01*
X141996068Y-104920731D01*
X142032000Y-104740091D01*
X142032000Y-104555913D01*
X141996068Y-104375273D01*
X141938599Y-104236529D01*
X142010887Y-104206586D01*
X142140043Y-104120287D01*
X142194854Y-104142990D01*
X142365834Y-104177000D01*
X142540164Y-104177000D01*
X142711144Y-104142990D01*
X142872203Y-104076277D01*
X143003000Y-103988882D01*
X143133796Y-104076277D01*
X143294855Y-104142990D01*
X143465835Y-104177000D01*
X143640165Y-104177000D01*
X143811145Y-104142990D01*
X143972204Y-104076277D01*
X144103000Y-103988882D01*
X144233796Y-104076277D01*
X144394855Y-104142990D01*
X144565835Y-104177000D01*
X144740165Y-104177000D01*
X144911145Y-104142990D01*
X145072204Y-104076277D01*
X145203000Y-103988882D01*
X145333796Y-104076277D01*
X145494855Y-104142990D01*
X145665835Y-104177000D01*
X145840165Y-104177000D01*
X146011145Y-104142990D01*
X146172204Y-104076277D01*
X146303001Y-103988882D01*
X146433797Y-104076277D01*
X146594856Y-104142990D01*
X146765836Y-104177000D01*
X146940166Y-104177000D01*
X147111146Y-104142990D01*
X147272205Y-104076277D01*
X147417155Y-103979425D01*
X147540425Y-103856155D01*
X147637277Y-103711205D01*
X147703990Y-103550146D01*
X147738000Y-103379166D01*
X147738000Y-103204836D01*
X147703990Y-103033856D01*
X147637277Y-102872797D01*
X147549882Y-102742000D01*
X147637277Y-102611204D01*
X147703990Y-102450145D01*
X147738000Y-102279165D01*
X147738000Y-102104835D01*
X147703990Y-101933855D01*
X147637277Y-101772796D01*
X147549882Y-101642000D01*
X147637277Y-101511204D01*
X147703990Y-101350145D01*
X147738000Y-101179165D01*
X147738000Y-101011102D01*
X150021929Y-101011102D01*
X150021929Y-101195280D01*
X150057861Y-101375920D01*
X150128343Y-101546080D01*
X150230667Y-101699219D01*
X150360901Y-101829453D01*
X150514040Y-101931777D01*
X150684200Y-102002259D01*
X150864840Y-102038191D01*
X151049018Y-102038191D01*
X151229658Y-102002259D01*
X151399818Y-101931777D01*
X151552957Y-101829453D01*
X151683191Y-101699219D01*
X151785515Y-101546080D01*
X151855997Y-101375920D01*
X151891929Y-101195280D01*
X151891929Y-101011102D01*
X151855997Y-100830462D01*
X151785515Y-100660302D01*
X151683191Y-100507163D01*
X151552957Y-100376929D01*
X151399818Y-100274605D01*
X151229658Y-100204123D01*
X151049018Y-100168191D01*
X150864840Y-100168191D01*
X150684200Y-100204123D01*
X150514040Y-100274605D01*
X150360901Y-100376929D01*
X150230667Y-100507163D01*
X150128343Y-100660302D01*
X150057861Y-100830462D01*
X150021929Y-101011102D01*
X147738000Y-101011102D01*
X147738000Y-101004835D01*
X147703990Y-100833855D01*
X147637277Y-100672796D01*
X147549882Y-100542000D01*
X147637277Y-100411204D01*
X147703990Y-100250145D01*
X147738000Y-100079165D01*
X147738000Y-99904835D01*
X147703990Y-99733855D01*
X147637277Y-99572796D01*
X147549882Y-99442000D01*
X147637277Y-99311203D01*
X147703990Y-99150144D01*
X147738000Y-98979164D01*
X147738000Y-98804834D01*
X147703990Y-98633854D01*
X147637277Y-98472795D01*
X147540425Y-98327845D01*
X147417155Y-98204575D01*
X147272205Y-98107723D01*
X147111146Y-98041010D01*
X146940166Y-98007000D01*
X146765836Y-98007000D01*
X146594856Y-98041010D01*
X146433797Y-98107723D01*
X146303001Y-98195118D01*
X146172204Y-98107723D01*
X146011145Y-98041010D01*
X145840165Y-98007000D01*
X145665835Y-98007000D01*
X145494855Y-98041010D01*
X145333796Y-98107723D01*
X145203000Y-98195118D01*
X145072204Y-98107723D01*
X144911145Y-98041010D01*
X144740165Y-98007000D01*
X144565835Y-98007000D01*
X144394855Y-98041010D01*
X144233796Y-98107723D01*
X144103000Y-98195118D01*
X143972204Y-98107723D01*
X143811145Y-98041010D01*
X143640165Y-98007000D01*
X143465835Y-98007000D01*
X143294855Y-98041010D01*
X143133796Y-98107723D01*
X143003000Y-98195118D01*
X142872203Y-98107723D01*
X142711144Y-98041010D01*
X142540164Y-98007000D01*
X142365834Y-98007000D01*
X142194854Y-98041010D01*
X142033795Y-98107723D01*
X141888845Y-98204575D01*
X141831029Y-98262391D01*
X141660087Y-98228388D01*
X141475909Y-98228388D01*
X141295269Y-98264320D01*
X141125109Y-98334802D01*
X140971970Y-98437126D01*
X140841736Y-98567360D01*
X140739412Y-98720499D01*
X140668930Y-98890659D01*
X140632998Y-99071299D01*
X140632998Y-99255477D01*
X140668930Y-99436117D01*
X140739412Y-99606277D01*
X140841736Y-99759416D01*
X140892514Y-99810194D01*
X140841736Y-99860972D01*
X140739412Y-100014111D01*
X140668930Y-100184271D01*
X140632998Y-100364911D01*
X140632998Y-100549089D01*
X140668930Y-100729729D01*
X140739412Y-100899889D01*
X140740488Y-100901500D01*
X140739412Y-100903111D01*
X140668930Y-101073271D01*
X140632998Y-101253911D01*
X140632998Y-101438089D01*
X140668930Y-101618729D01*
X140739412Y-101788889D01*
X140782918Y-101854000D01*
X140739412Y-101919111D01*
X140668930Y-102089271D01*
X140632998Y-102269911D01*
X140632998Y-102454089D01*
X140668930Y-102634729D01*
X140739412Y-102804889D01*
X140782918Y-102870000D01*
X140739412Y-102935111D01*
X140668930Y-103105271D01*
X140632998Y-103285911D01*
X140632998Y-103470089D01*
X140668930Y-103650729D01*
X140707499Y-103743844D01*
X140623762Y-103687893D01*
X140453602Y-103617411D01*
X140272962Y-103581479D01*
X140088784Y-103581479D01*
X139960387Y-103607019D01*
X139918262Y-103543974D01*
X139788028Y-103413740D01*
X139634889Y-103311416D01*
X139464729Y-103240934D01*
X139411778Y-103230401D01*
X139507901Y-103190586D01*
X139661040Y-103088262D01*
X139791274Y-102958028D01*
X139893598Y-102804889D01*
X139964080Y-102634729D01*
X140000012Y-102454089D01*
X140000012Y-102269911D01*
X139964080Y-102089271D01*
X139893598Y-101919111D01*
X139791274Y-101765972D01*
X139661040Y-101635738D01*
X139507901Y-101533414D01*
X139337741Y-101462932D01*
X139236408Y-101442775D01*
X139237450Y-101437539D01*
X139237450Y-101253361D01*
X139201518Y-101072721D01*
X139131036Y-100902561D01*
X139118634Y-100884000D01*
X139157089Y-100884000D01*
X139337729Y-100848068D01*
X139507889Y-100777586D01*
X139661028Y-100675262D01*
X139791262Y-100545028D01*
X139893586Y-100391889D01*
X139964068Y-100221729D01*
X140000000Y-100041089D01*
X140000000Y-99856911D01*
X139964068Y-99676271D01*
X139893586Y-99506111D01*
X139791262Y-99352972D01*
X139661028Y-99222738D01*
X139507889Y-99120414D01*
X139337729Y-99049932D01*
X139157089Y-99014000D01*
X138972911Y-99014000D01*
X138792271Y-99049932D01*
X138622111Y-99120414D01*
X138468972Y-99222738D01*
X138338738Y-99352972D01*
X138236414Y-99506111D01*
X138165932Y-99676271D01*
X138130000Y-99856911D01*
X138130000Y-100041089D01*
X138165932Y-100221729D01*
X138236414Y-100391889D01*
X138248816Y-100410450D01*
X138210361Y-100410450D01*
X138029721Y-100446382D01*
X137859561Y-100516864D01*
X137706422Y-100619188D01*
X137576188Y-100749422D01*
X137473864Y-100902561D01*
X137403382Y-101072721D01*
X137367450Y-101253361D01*
X135948233Y-101253361D01*
X135874285Y-101142690D01*
X135744051Y-101012456D01*
X135590912Y-100910132D01*
X135420752Y-100839650D01*
X135341363Y-100823858D01*
X135321586Y-100776111D01*
X135219262Y-100622972D01*
X135089028Y-100492738D01*
X134935889Y-100390414D01*
X134780409Y-100326013D01*
X134777477Y-100311271D01*
X134706995Y-100141111D01*
X134604671Y-99987972D01*
X134474437Y-99857738D01*
X134321298Y-99755414D01*
X134151138Y-99684932D01*
X133970498Y-99649000D01*
X133786320Y-99649000D01*
X133605680Y-99684932D01*
X133435520Y-99755414D01*
X133282381Y-99857738D01*
X133152147Y-99987972D01*
X133049823Y-100141111D01*
X132979341Y-100311271D01*
X132943409Y-100491911D01*
X132943409Y-100676089D01*
X132979341Y-100856729D01*
X133049823Y-101026889D01*
X133152147Y-101180028D01*
X133282381Y-101310262D01*
X133435520Y-101412586D01*
X133591000Y-101476987D01*
X133593932Y-101491729D01*
X133664414Y-101661889D01*
X133766738Y-101815028D01*
X133896972Y-101945262D01*
X134050111Y-102047586D01*
X134220271Y-102118068D01*
X134299660Y-102133860D01*
X134318740Y-102179925D01*
X134317734Y-102181431D01*
X134247252Y-102351591D01*
X134211320Y-102532231D01*
X134211320Y-102716409D01*
X134247252Y-102897049D01*
X134317734Y-103067209D01*
X134383868Y-103166186D01*
X134257729Y-103113938D01*
X134188409Y-103100149D01*
X134188409Y-103063367D01*
X134152477Y-102882727D01*
X134081995Y-102712567D01*
X133979671Y-102559428D01*
X133849437Y-102429194D01*
X133696298Y-102326870D01*
X133526138Y-102256388D01*
X133345498Y-102220456D01*
X133161320Y-102220456D01*
X132980680Y-102256388D01*
X132898539Y-102290412D01*
X132897160Y-102289490D01*
X132727000Y-102219008D01*
X132546360Y-102183076D01*
X132362182Y-102183076D01*
X132181542Y-102219008D01*
X132045755Y-102275252D01*
X131927020Y-102226071D01*
X131746380Y-102190139D01*
X131562202Y-102190139D01*
X131381562Y-102226071D01*
X131355850Y-102236721D01*
X131417126Y-102088787D01*
X131453058Y-101908147D01*
X131453058Y-101723969D01*
X131417126Y-101543329D01*
X131346644Y-101373169D01*
X131244320Y-101220030D01*
X131114086Y-101089796D01*
X130960947Y-100987472D01*
X130790787Y-100916990D01*
X130610147Y-100881058D01*
X130522992Y-100881058D01*
X130520262Y-100876972D01*
X130390028Y-100746738D01*
X130236889Y-100644414D01*
X130066729Y-100573932D01*
X129886089Y-100538000D01*
X129701911Y-100538000D01*
X129521271Y-100573932D01*
X129351111Y-100644414D01*
X129197972Y-100746738D01*
X129067738Y-100876972D01*
X128965414Y-101030111D01*
X128894932Y-101200271D01*
X128859000Y-101380911D01*
X128859000Y-101565089D01*
X128894932Y-101745729D01*
X128965414Y-101915889D01*
X128966489Y-101917499D01*
X128965412Y-101919111D01*
X128894930Y-102089271D01*
X128858998Y-102269911D01*
X118558419Y-102269911D01*
X118666561Y-102008834D01*
X118739000Y-101644656D01*
X118739000Y-101273344D01*
X118666561Y-100909166D01*
X118524466Y-100566118D01*
X118318175Y-100257382D01*
X118055618Y-99994825D01*
X117746882Y-99788534D01*
X117403834Y-99646439D01*
X117039656Y-99574000D01*
X116668344Y-99574000D01*
X116304166Y-99646439D01*
X115961118Y-99788534D01*
X115652382Y-99994825D01*
X115389825Y-100257382D01*
X115183534Y-100566118D01*
X115041439Y-100909166D01*
X114969000Y-101273344D01*
X112166000Y-101273344D01*
X112166000Y-99540854D01*
X112348022Y-99813269D01*
X112629731Y-100094978D01*
X112960987Y-100316316D01*
X113329059Y-100468776D01*
X113719801Y-100546500D01*
X114118199Y-100546500D01*
X114508941Y-100468776D01*
X114877013Y-100316316D01*
X115208269Y-100094978D01*
X115489978Y-99813269D01*
X115711316Y-99482013D01*
X115863776Y-99113941D01*
X115941500Y-98723199D01*
X115941500Y-98324801D01*
X117766500Y-98324801D01*
X117766500Y-98723199D01*
X117844224Y-99113941D01*
X117996684Y-99482013D01*
X118218022Y-99813269D01*
X118499731Y-100094978D01*
X118830987Y-100316316D01*
X119199059Y-100468776D01*
X119589801Y-100546500D01*
X119988199Y-100546500D01*
X120378941Y-100468776D01*
X120747013Y-100316316D01*
X121078269Y-100094978D01*
X121359978Y-99813269D01*
X121581316Y-99482013D01*
X121733776Y-99113941D01*
X121811500Y-98723199D01*
X121811500Y-98713911D01*
X128986000Y-98713911D01*
X128986000Y-98898089D01*
X129021932Y-99078729D01*
X129092414Y-99248889D01*
X129194738Y-99402028D01*
X129324972Y-99532262D01*
X129478111Y-99634586D01*
X129648271Y-99705068D01*
X129828911Y-99741000D01*
X130013089Y-99741000D01*
X130193729Y-99705068D01*
X130363889Y-99634586D01*
X130517028Y-99532262D01*
X130647262Y-99402028D01*
X130749586Y-99248889D01*
X130820068Y-99078729D01*
X130856000Y-98898089D01*
X130856000Y-98713911D01*
X130820068Y-98533271D01*
X130749586Y-98363111D01*
X130647262Y-98209972D01*
X130517028Y-98079738D01*
X130363889Y-97977414D01*
X130193729Y-97906932D01*
X130013089Y-97871000D01*
X129828911Y-97871000D01*
X129648271Y-97906932D01*
X129478111Y-97977414D01*
X129324972Y-98079738D01*
X129194738Y-98209972D01*
X129092414Y-98363111D01*
X129021932Y-98533271D01*
X128986000Y-98713911D01*
X121811500Y-98713911D01*
X121811500Y-98324801D01*
X121733776Y-97934059D01*
X121581316Y-97565987D01*
X121542177Y-97507411D01*
X123906000Y-97507411D01*
X123906000Y-97691589D01*
X123941932Y-97872229D01*
X124012414Y-98042389D01*
X124114738Y-98195528D01*
X124244972Y-98325762D01*
X124398111Y-98428086D01*
X124568271Y-98498568D01*
X124748911Y-98534500D01*
X124933089Y-98534500D01*
X125113729Y-98498568D01*
X125283889Y-98428086D01*
X125437028Y-98325762D01*
X125567262Y-98195528D01*
X125669586Y-98042389D01*
X125740068Y-97872229D01*
X125776000Y-97691589D01*
X125776000Y-97507411D01*
X125740068Y-97326771D01*
X125669586Y-97156611D01*
X125567262Y-97003472D01*
X125437028Y-96873238D01*
X125283889Y-96770914D01*
X125113729Y-96700432D01*
X124933089Y-96664500D01*
X124748911Y-96664500D01*
X124568271Y-96700432D01*
X124398111Y-96770914D01*
X124244972Y-96873238D01*
X124114738Y-97003472D01*
X124012414Y-97156611D01*
X123941932Y-97326771D01*
X123906000Y-97507411D01*
X121542177Y-97507411D01*
X121359978Y-97234731D01*
X121078269Y-96953022D01*
X120747013Y-96731684D01*
X120378941Y-96579224D01*
X119988199Y-96501500D01*
X119589801Y-96501500D01*
X119199059Y-96579224D01*
X118830987Y-96731684D01*
X118499731Y-96953022D01*
X118218022Y-97234731D01*
X117996684Y-97565987D01*
X117844224Y-97934059D01*
X117766500Y-98324801D01*
X115941500Y-98324801D01*
X115863776Y-97934059D01*
X115711316Y-97565987D01*
X115489978Y-97234731D01*
X115208269Y-96953022D01*
X114877013Y-96731684D01*
X114508941Y-96579224D01*
X114118199Y-96501500D01*
X113719801Y-96501500D01*
X113329059Y-96579224D01*
X112960987Y-96731684D01*
X112629731Y-96953022D01*
X112348022Y-97234731D01*
X112166000Y-97507146D01*
X112166000Y-94141911D01*
X128478000Y-94141911D01*
X128478000Y-94326089D01*
X128513932Y-94506729D01*
X128584414Y-94676889D01*
X128686738Y-94830028D01*
X128816972Y-94960262D01*
X128970111Y-95062586D01*
X129140271Y-95133068D01*
X129320911Y-95169000D01*
X129505089Y-95169000D01*
X129685729Y-95133068D01*
X129855889Y-95062586D01*
X130009028Y-94960262D01*
X130139262Y-94830028D01*
X130241586Y-94676889D01*
X130312068Y-94506729D01*
X130348000Y-94326089D01*
X130348000Y-94141911D01*
X130510000Y-94141911D01*
X130510000Y-94326089D01*
X130545932Y-94506729D01*
X130616414Y-94676889D01*
X130718738Y-94830028D01*
X130848972Y-94960262D01*
X131002111Y-95062586D01*
X131172271Y-95133068D01*
X131352911Y-95169000D01*
X131537089Y-95169000D01*
X131717729Y-95133068D01*
X131887889Y-95062586D01*
X132041028Y-94960262D01*
X132171262Y-94830028D01*
X132273586Y-94676889D01*
X132341503Y-94512921D01*
X132980211Y-94512921D01*
X132980211Y-94697099D01*
X133016143Y-94877739D01*
X133086625Y-95047899D01*
X133188949Y-95201038D01*
X133319183Y-95331272D01*
X133472322Y-95433596D01*
X133642482Y-95504078D01*
X133823122Y-95540010D01*
X134007300Y-95540010D01*
X134187940Y-95504078D01*
X134358100Y-95433596D01*
X134511239Y-95331272D01*
X134594807Y-95247704D01*
X134610729Y-95327750D01*
X134681211Y-95497910D01*
X134783535Y-95651049D01*
X134913769Y-95781283D01*
X135066908Y-95883607D01*
X135237068Y-95954089D01*
X135417708Y-95990021D01*
X135463000Y-95990021D01*
X135463000Y-96104089D01*
X135498932Y-96284729D01*
X135569414Y-96454889D01*
X135671738Y-96608028D01*
X135801972Y-96738262D01*
X135955111Y-96840586D01*
X136116939Y-96907617D01*
X136110575Y-96917142D01*
X136040093Y-97087302D01*
X136020218Y-97187217D01*
X136001282Y-97179373D01*
X135820642Y-97143441D01*
X135636464Y-97143441D01*
X135455824Y-97179373D01*
X135285664Y-97249855D01*
X135132525Y-97352179D01*
X135002291Y-97482413D01*
X134899967Y-97635552D01*
X134829485Y-97805712D01*
X134793553Y-97986352D01*
X134793553Y-98170530D01*
X134829485Y-98351170D01*
X134899967Y-98521330D01*
X135002291Y-98674469D01*
X135132525Y-98804703D01*
X135285664Y-98907027D01*
X135455824Y-98977509D01*
X135636464Y-99013441D01*
X135820642Y-99013441D01*
X136001282Y-98977509D01*
X136171442Y-98907027D01*
X136324581Y-98804703D01*
X136454815Y-98674469D01*
X136557139Y-98521330D01*
X136627621Y-98351170D01*
X136647496Y-98251255D01*
X136666432Y-98259099D01*
X136847072Y-98295031D01*
X137031250Y-98295031D01*
X137211890Y-98259099D01*
X137382050Y-98188617D01*
X137535189Y-98086293D01*
X137665423Y-97956059D01*
X137767747Y-97802920D01*
X137838229Y-97632760D01*
X137874161Y-97452120D01*
X137874161Y-97267942D01*
X137838229Y-97087302D01*
X137767747Y-96917142D01*
X137665423Y-96764003D01*
X137535189Y-96633769D01*
X137420769Y-96557316D01*
X139161017Y-96557316D01*
X139161017Y-96741494D01*
X139196949Y-96922134D01*
X139267431Y-97092294D01*
X139369755Y-97245433D01*
X139499989Y-97375667D01*
X139653128Y-97477991D01*
X139823288Y-97548473D01*
X139870863Y-97557936D01*
X139887412Y-97597889D01*
X139989736Y-97751028D01*
X140119970Y-97881262D01*
X140273109Y-97983586D01*
X140443269Y-98054068D01*
X140623909Y-98090000D01*
X140808087Y-98090000D01*
X140988727Y-98054068D01*
X141158887Y-97983586D01*
X141312026Y-97881262D01*
X141442260Y-97751028D01*
X141544584Y-97597889D01*
X141615066Y-97427729D01*
X141650998Y-97247089D01*
X141650998Y-97062911D01*
X141615066Y-96882271D01*
X141544584Y-96712111D01*
X141442260Y-96558972D01*
X141312026Y-96428738D01*
X141158887Y-96326414D01*
X140988727Y-96255932D01*
X140941152Y-96246469D01*
X140924603Y-96206516D01*
X140822279Y-96053377D01*
X140692045Y-95923143D01*
X140538906Y-95820819D01*
X140368746Y-95750337D01*
X140188106Y-95714405D01*
X140003928Y-95714405D01*
X139823288Y-95750337D01*
X139653128Y-95820819D01*
X139499989Y-95923143D01*
X139369755Y-96053377D01*
X139267431Y-96206516D01*
X139196949Y-96376676D01*
X139161017Y-96557316D01*
X137420769Y-96557316D01*
X137382050Y-96531445D01*
X137220222Y-96464414D01*
X137226586Y-96454889D01*
X137297068Y-96284729D01*
X137333000Y-96104089D01*
X137333000Y-95919911D01*
X137297068Y-95739271D01*
X137226586Y-95569111D01*
X137124262Y-95415972D01*
X136994028Y-95285738D01*
X136840889Y-95183414D01*
X136670729Y-95112932D01*
X136490089Y-95077000D01*
X136444797Y-95077000D01*
X136444797Y-94962932D01*
X136408865Y-94782292D01*
X136338383Y-94612132D01*
X136236059Y-94458993D01*
X136105825Y-94328759D01*
X135952686Y-94226435D01*
X135782526Y-94155953D01*
X135601886Y-94120021D01*
X135417708Y-94120021D01*
X135237068Y-94155953D01*
X135066908Y-94226435D01*
X134913769Y-94328759D01*
X134830201Y-94412327D01*
X134814279Y-94332281D01*
X134743797Y-94162121D01*
X134641473Y-94008982D01*
X134511239Y-93878748D01*
X134358100Y-93776424D01*
X134187940Y-93705942D01*
X134007300Y-93670010D01*
X133823122Y-93670010D01*
X133642482Y-93705942D01*
X133472322Y-93776424D01*
X133319183Y-93878748D01*
X133188949Y-94008982D01*
X133086625Y-94162121D01*
X133016143Y-94332281D01*
X132980211Y-94512921D01*
X132341503Y-94512921D01*
X132344068Y-94506729D01*
X132380000Y-94326089D01*
X132380000Y-94141911D01*
X132344068Y-93961271D01*
X132273586Y-93791111D01*
X132171262Y-93637972D01*
X132041028Y-93507738D01*
X131887889Y-93405414D01*
X131717729Y-93334932D01*
X131537089Y-93299000D01*
X131352911Y-93299000D01*
X131172271Y-93334932D01*
X131002111Y-93405414D01*
X130848972Y-93507738D01*
X130718738Y-93637972D01*
X130616414Y-93791111D01*
X130545932Y-93961271D01*
X130510000Y-94141911D01*
X130348000Y-94141911D01*
X130312068Y-93961271D01*
X130241586Y-93791111D01*
X130139262Y-93637972D01*
X130009028Y-93507738D01*
X129855889Y-93405414D01*
X129685729Y-93334932D01*
X129505089Y-93299000D01*
X129320911Y-93299000D01*
X129140271Y-93334932D01*
X128970111Y-93405414D01*
X128816972Y-93507738D01*
X128686738Y-93637972D01*
X128584414Y-93791111D01*
X128513932Y-93961271D01*
X128478000Y-94141911D01*
X112166000Y-94141911D01*
X112166000Y-93570223D01*
X112227782Y-93632005D01*
X112368637Y-93726122D01*
X112525147Y-93790951D01*
X112691297Y-93824000D01*
X112860703Y-93824000D01*
X113026853Y-93790951D01*
X113093500Y-93763345D01*
X113160147Y-93790951D01*
X113326297Y-93824000D01*
X113495703Y-93824000D01*
X113661853Y-93790951D01*
X113728500Y-93763345D01*
X113795147Y-93790951D01*
X113961297Y-93824000D01*
X114130703Y-93824000D01*
X114296853Y-93790951D01*
X114363500Y-93763345D01*
X114430147Y-93790951D01*
X114596297Y-93824000D01*
X114765703Y-93824000D01*
X114931853Y-93790951D01*
X114998500Y-93763345D01*
X115065147Y-93790951D01*
X115231297Y-93824000D01*
X115400703Y-93824000D01*
X115566853Y-93790951D01*
X115633500Y-93763345D01*
X115700147Y-93790951D01*
X115866297Y-93824000D01*
X116035703Y-93824000D01*
X116201853Y-93790951D01*
X116358363Y-93726122D01*
X116499218Y-93632005D01*
X116619005Y-93512218D01*
X116713122Y-93371363D01*
X116777951Y-93214853D01*
X116795643Y-93125905D01*
X136225000Y-93125905D01*
X136225000Y-93310083D01*
X136260932Y-93490723D01*
X136331414Y-93660883D01*
X136433738Y-93814022D01*
X136563972Y-93944256D01*
X136717111Y-94046580D01*
X136887271Y-94117062D01*
X137067911Y-94152994D01*
X137252089Y-94152994D01*
X137432729Y-94117062D01*
X137602889Y-94046580D01*
X137756028Y-93944256D01*
X137886262Y-93814022D01*
X137988586Y-93660883D01*
X138059068Y-93490723D01*
X138095000Y-93310083D01*
X138095000Y-93125905D01*
X138059068Y-92945265D01*
X137988586Y-92775105D01*
X137886262Y-92621966D01*
X137756028Y-92491732D01*
X137734300Y-92477214D01*
X137819528Y-92420266D01*
X137949762Y-92290032D01*
X137985256Y-92236911D01*
X145877000Y-92236911D01*
X145877000Y-92421089D01*
X145912932Y-92601729D01*
X145983414Y-92771889D01*
X146085738Y-92925028D01*
X146215972Y-93055262D01*
X146369111Y-93157586D01*
X146539271Y-93228068D01*
X146719911Y-93264000D01*
X146904089Y-93264000D01*
X147084729Y-93228068D01*
X147254889Y-93157586D01*
X147408028Y-93055262D01*
X147538262Y-92925028D01*
X147640586Y-92771889D01*
X147711068Y-92601729D01*
X147747000Y-92421089D01*
X147747000Y-92236911D01*
X147711068Y-92056271D01*
X147640586Y-91886111D01*
X147538262Y-91732972D01*
X147408028Y-91602738D01*
X147254889Y-91500414D01*
X147084729Y-91429932D01*
X146904089Y-91394000D01*
X146719911Y-91394000D01*
X146539271Y-91429932D01*
X146369111Y-91500414D01*
X146215972Y-91602738D01*
X146085738Y-91732972D01*
X145983414Y-91886111D01*
X145912932Y-92056271D01*
X145877000Y-92236911D01*
X137985256Y-92236911D01*
X138052086Y-92136893D01*
X138122568Y-91966733D01*
X138158500Y-91786093D01*
X138158500Y-91601915D01*
X138122568Y-91421275D01*
X138052086Y-91251115D01*
X137949762Y-91097976D01*
X137819528Y-90967742D01*
X137666389Y-90865418D01*
X137496229Y-90794936D01*
X137315589Y-90759004D01*
X137131411Y-90759004D01*
X136950771Y-90794936D01*
X136780611Y-90865418D01*
X136627472Y-90967742D01*
X136497238Y-91097976D01*
X136394914Y-91251115D01*
X136324432Y-91421275D01*
X136288500Y-91601915D01*
X136288500Y-91786093D01*
X136324432Y-91966733D01*
X136394914Y-92136893D01*
X136497238Y-92290032D01*
X136627472Y-92420266D01*
X136649200Y-92434784D01*
X136563972Y-92491732D01*
X136433738Y-92621966D01*
X136331414Y-92775105D01*
X136260932Y-92945265D01*
X136225000Y-93125905D01*
X116795643Y-93125905D01*
X116811000Y-93048703D01*
X116811000Y-92879297D01*
X116777951Y-92713147D01*
X116750345Y-92646500D01*
X116777951Y-92579853D01*
X116811000Y-92413703D01*
X116811000Y-92244297D01*
X116777951Y-92078147D01*
X116750345Y-92011500D01*
X116777951Y-91944853D01*
X116811000Y-91778703D01*
X116811000Y-91609297D01*
X116777951Y-91443147D01*
X116750345Y-91376500D01*
X116777951Y-91309853D01*
X116811000Y-91143703D01*
X116811000Y-90974297D01*
X116777951Y-90808147D01*
X116750345Y-90741500D01*
X116777951Y-90674853D01*
X116811000Y-90508703D01*
X116811000Y-90339297D01*
X116777951Y-90173147D01*
X116750345Y-90106500D01*
X116777951Y-90039853D01*
X116811000Y-89873703D01*
X116811000Y-89704297D01*
X116777951Y-89538147D01*
X116750345Y-89471500D01*
X116777951Y-89404853D01*
X116811000Y-89238703D01*
X116811000Y-89069297D01*
X116777951Y-88903147D01*
X116713122Y-88746637D01*
X116619005Y-88605782D01*
X116499218Y-88485995D01*
X116358363Y-88391878D01*
X116201853Y-88327049D01*
X116035703Y-88294000D01*
X115866297Y-88294000D01*
X115700147Y-88327049D01*
X115633500Y-88354655D01*
X115566853Y-88327049D01*
X115400703Y-88294000D01*
X115231297Y-88294000D01*
X115065147Y-88327049D01*
X114998500Y-88354655D01*
X114931853Y-88327049D01*
X114765703Y-88294000D01*
X114596297Y-88294000D01*
X114430147Y-88327049D01*
X114363500Y-88354655D01*
X114296853Y-88327049D01*
X114130703Y-88294000D01*
X113961297Y-88294000D01*
X113795147Y-88327049D01*
X113728500Y-88354655D01*
X113661853Y-88327049D01*
X113495703Y-88294000D01*
X113326297Y-88294000D01*
X113160147Y-88327049D01*
X113093500Y-88354655D01*
X113026853Y-88327049D01*
X112860703Y-88294000D01*
X112691297Y-88294000D01*
X112525147Y-88327049D01*
X112368637Y-88391878D01*
X112227782Y-88485995D01*
X112166000Y-88547777D01*
X112166000Y-83791223D01*
X112227782Y-83853005D01*
M02*
